<?xml version="1.0" encoding="UTF-8" standalone="no"?>
<!-- Generator: Adobe Adobe Illustrator 24.2.0, SVG Export Plug-In . SVG Version: 6.00 Build 0)  -->

<svg
   version="1.1"
   id="Layer_1"
   x="0px"
   y="0px"
   width="115.59624"
   height="165.66628"
   viewBox="0 0 115.59624 165.66628"
   xml:space="preserve"
   sodipodi:docname="ajo.svg"
   inkscape:version="1.4 (e7c3feb1, 2024-10-09)"
   xmlns:inkscape="http://www.inkscape.org/namespaces/inkscape"
   xmlns:sodipodi="http://sodipodi.sourceforge.net/DTD/sodipodi-0.dtd"
   xmlns="http://www.w3.org/2000/svg"
   xmlns:svg="http://www.w3.org/2000/svg"><defs
   id="defs17" /><sodipodi:namedview
   id="namedview17"
   pagecolor="#ffffff"
   bordercolor="#000000"
   borderopacity="0.25"
   inkscape:showpageshadow="2"
   inkscape:pageopacity="0.0"
   inkscape:pagecheckerboard="0"
   inkscape:deskcolor="#d1d1d1"
   inkscape:zoom="1.6816667"
   inkscape:cx="50.545094"
   inkscape:cy="105.55005"
   inkscape:window-width="1200"
   inkscape:window-height="1186"
   inkscape:window-x="0"
   inkscape:window-y="0"
   inkscape:window-maximized="0"
   inkscape:current-layer="Layer_1" />
<g
   id="g17"
   transform="translate(-249.27335,-194.31373)">
	<g
   id="g16">
		<path
   d="m 285.44,355.08 c -0.54,-0.85 0.14,-1.3 0.56,-1.75 0.73,-0.78 1.73,-1.07 2.76,-1.21 0.58,-0.08 1.17,-0.13 1.74,-0.25 0.64,-0.14 1.15,-0.49 1.4,-1.35 -0.71,-0.21 -1.37,-0.55 -2.05,-0.6 -12.46,-0.83 -22.06,-6.95 -29.75,-16.37 -6.15,-7.52 -9.61,-16.24 -10.57,-25.92 -0.99,-9.91 0.86,-19.23 5.97,-27.84 1.7,-2.87 3.79,-5.45 6.14,-7.81 0.78,-0.79 1.74,-1.4 2.65,-2.06 4.79,-3.45 9.62,-6.85 14.38,-10.34 3.82,-2.81 7.4,-5.85 10.29,-9.7 3.73,-4.97 5.86,-10.53 6.93,-16.57 1.38,-7.76 1.8,-15.59 1.81,-23.46 0,-1.41 0.13,-2.83 0.13,-4.24 0,-1.23 0.51,-2.2 1.4,-2.94 1.61,-1.34 3.23,-2.69 4.94,-3.88 2.32,-1.62 4.79,-3.02 7.47,-3.99 0.68,-0.25 1.41,-0.43 2.12,-0.48 0.81,-0.06 1.18,0.31 1.18,1.14 0,1.75 0.01,3.52 -0.14,5.26 -0.7,8.23 -0.93,16.48 -0.6,24.72 0.18,4.59 1.14,9.09 3.04,13.34 1.61,3.62 3.48,7.1 5.7,10.38 1.95,2.88 4.13,5.55 6.73,7.89 3.84,3.47 7.65,6.95 11.84,10.02 6.14,4.5 11.48,9.84 15.76,16.18 3.28,4.86 5.73,10.1 6.87,15.88 1.74,8.83 0.35,17.18 -3.98,25.05 -3.11,5.63 -7.32,10.33 -12.22,14.46 -3.9,3.28 -8.14,6.07 -12.62,8.47 -1.36,0.73 -2.92,1.09 -4.41,1.53 -2.8,0.83 -5.62,1.59 -8.61,2.42 1.02,1.01 2.16,1.22 3.3,1.36 1.45,0.17 2.4,0.99 3.09,2.19 0.1,0.18 0.09,0.43 0.19,1.01 -0.51,-0.36 -0.83,-0.47 -0.96,-0.69 -0.67,-1.18 -1.74,-1.58 -3,-1.82 -0.98,-0.19 -2.03,-0.51 -2.83,-1.09 -0.7,-0.51 -1.28,-0.56 -2.01,-0.37 -0.38,0.1 -0.75,0.2 -1.22,0.33 -0.24,1.06 -0.69,2.15 -0.65,3.22 0.04,0.99 0.61,1.95 1.03,3.17 -0.41,-0.2 -0.73,-0.26 -0.91,-0.46 -0.99,-1.1 -1.23,-2.4 -0.88,-3.82 0.15,-0.6 0.33,-1.19 0.52,-1.9 -2.56,0.23 -4.97,0.45 -7.49,0.67 0.36,1.06 0.94,2.11 0.5,3.29 -0.4,1.07 -0.77,2.16 -1.42,3.24 -0.07,-0.28 -0.26,-0.59 -0.2,-0.84 0.17,-0.75 0.42,-1.5 0.68,-2.23 0.68,-1.87 -0.13,-3.37 -2.06,-3.66 -0.81,-0.12 -1.65,-0.16 -2.47,-0.14 -0.65,0.02 -1.39,-0.26 -1.91,0.41 -0.64,0.84 -1.09,1.72 -0.95,2.83 0.12,1.01 0.21,2.03 0.26,3.05 0.02,0.46 0.04,0.99 -0.73,1.17 -0.05,-0.3 -0.11,-0.56 -0.12,-0.82 -0.03,-0.73 0.08,-1.49 -0.07,-2.19 -0.34,-1.56 -0.21,-3 0.85,-4.41 -1.36,-0.61 -2.74,-0.28 -4.09,-0.68 -0.66,1.88 -2.07,2.58 -3.81,2.87 -1.3,0.22 -2.23,0.92 -2.71,2.18 -0.07,0.19 -0.26,0.35 -0.47,0.6 -0.53,-0.61 -0.29,-1.09 -0.04,-1.54 0.6,-1.09 1.56,-1.72 2.75,-2.02 0.57,-0.15 1.15,-0.23 1.7,-0.42 0.77,-0.26 1.36,-0.73 1.55,-1.75 -1.58,-0.33 -3.14,-0.66 -4.78,-1.01 -0.15,0.19 -0.35,0.4 -0.5,0.63 -0.55,0.83 -1.34,1.22 -2.32,1.35 -0.77,0.1 -1.53,0.27 -2.3,0.41 -1.11,0.23 -1.48,1.33 -2.38,1.9 z m 45.47,-95.22 c -4.33,-3.59 -7.83,-7.88 -10.74,-12.68 -3.74,-6.17 -6.54,-12.68 -7.06,-19.96 -0.27,-3.84 -0.34,-7.71 -0.24,-11.56 0.14,-5.46 0.52,-10.91 0.79,-16.37 0.02,-0.5 -0.01,-1 -0.02,-1.65 -2.94,2.26 -2.6,1.43 -2.7,4.45 -0.19,5.66 -0.24,11.32 -0.35,16.98 -0.01,0.5 -0.07,1 -0.12,1.64 -0.73,-0.63 -0.76,-0.63 -0.74,-1.55 0.14,-5.76 0.29,-11.51 0.44,-17.27 0.01,-0.45 0,-0.91 0,-1.41 -1.84,0.63 -2.65,1.67 -2.53,3.55 0.19,3.07 0.19,6.14 0.25,9.22 0.01,0.45 -0.04,0.9 -0.07,1.42 -0.89,-0.24 -0.76,-0.8 -0.77,-1.24 -0.05,-3.32 -0.08,-6.63 -0.12,-9.95 0,-0.27 -0.05,-0.54 -0.08,-0.97 -2.63,1.31 -5.01,2.87 -7.99,3.3 0,1.04 -0.01,2.01 0,2.98 0.14,8.46 -0.3,16.88 -1.84,25.21 -1.08,5.83 -3.15,11.21 -6.67,16.07 -3.01,4.14 -6.76,7.42 -10.82,10.41 -4.28,3.15 -8.64,6.2 -12.96,9.31 -1.27,0.91 -2.64,1.72 -3.75,2.8 -7.71,7.56 -11.57,16.89 -12.25,27.57 -0.44,6.82 0.62,13.46 3.16,19.79 5.61,13.96 15.35,23.55 29.94,27.89 0.85,0.25 1.74,0.32 2.67,0.49 -0.03,-0.22 -0.02,-0.29 -0.05,-0.31 -0.18,-0.16 -0.36,-0.33 -0.56,-0.46 -2.9,-1.97 -5.31,-4.43 -7.47,-7.17 -4.87,-6.19 -8.32,-13.06 -10.33,-20.67 -2.18,-8.26 -3.57,-16.61 -2.86,-25.18 0.51,-6.12 1.98,-12.02 4.38,-17.68 0.13,-0.31 0.22,-0.69 0.45,-0.91 0.24,-0.22 0.72,-0.47 0.95,-0.37 0.5,0.21 0.18,0.61 0.02,0.97 -3.01,7.03 -4.66,14.36 -4.73,22.03 -0.05,5.59 0.75,11.09 1.92,16.54 1.95,9.11 5.54,17.44 11.38,24.78 4.44,5.58 9.87,9.38 17.05,10.38 2.18,0.3 4.36,0.61 6.55,0.91 -0.24,-0.49 -0.55,-0.69 -0.87,-0.9 -3.78,-2.48 -6.89,-5.63 -9.08,-9.58 -4.74,-8.56 -7.31,-17.74 -7.43,-27.55 -0.1,-7.53 0.5,-15.02 1.48,-22.48 0.79,-6.02 2,-11.94 4.18,-17.62 1.98,-5.14 4.05,-10.25 6.08,-15.37 0.09,-0.22 0.18,-0.5 0.36,-0.62 0.2,-0.14 0.51,-0.22 0.75,-0.18 0.1,0.02 0.21,0.4 0.2,0.61 -0.01,0.23 -0.16,0.45 -0.25,0.68 -1,2.49 -2.01,4.98 -3,7.47 -2.35,5.9 -4.73,11.8 -5.86,18.07 -0.86,4.75 -1.5,9.54 -1.99,14.34 -0.59,5.68 -0.86,11.37 -0.61,17.1 0.35,8.15 2.61,15.74 6.15,23.01 2.61,5.34 6.53,9.42 11.76,12.27 3.56,1.94 8.64,1.1 10.96,-2.18 1.2,-1.7 2.24,-3.55 3.13,-5.43 2.2,-4.67 3.45,-9.63 4.29,-14.71 0.98,-5.9 1.45,-11.84 0.61,-17.78 -1.02,-7.25 -2.6,-14.4 -4.45,-21.48 -1.7,-6.53 -4.25,-12.77 -6.63,-19.06 -0.28,-0.73 -0.55,-1.46 -0.76,-2.21 -0.05,-0.18 0.12,-0.59 0.22,-0.6 0.24,-0.03 0.53,0.08 0.74,0.22 0.14,0.09 0.18,0.34 0.25,0.52 1.93,5.16 3.9,10.31 5.77,15.49 2.2,6.13 3.32,12.53 4.68,18.88 0.81,3.77 1.49,7.56 1.72,11.42 0.33,5.54 -0.21,11.02 -1.2,16.46 -1.01,5.5 -2.63,10.8 -5.22,15.78 -1,1.92 -2.18,3.7 -3.88,5.09 -0.07,0.06 -0.07,0.22 -0.11,0.4 0.76,-0.1 1.44,-0.18 2.11,-0.26 7.11,-0.92 13.31,-3.72 18.34,-8.89 2.31,-2.38 4.61,-4.79 6.72,-7.34 8.01,-9.69 10.53,-20.84 8.29,-33.07 -0.95,-5.2 -2.76,-10.17 -5.7,-14.64 -0.99,-1.51 -1.95,-3.04 -2.93,-4.56 -0.5,-0.78 -1.02,-1.55 -1.51,-2.34 -0.22,-0.36 -0.34,-0.8 0.14,-0.98 0.2,-0.07 0.63,0.17 0.79,0.38 0.72,0.98 1.38,2.01 2.07,3.02 3,4.36 5.56,8.91 7.13,14.03 2.07,6.72 2.64,13.47 1.33,20.37 -1.11,5.88 -3.11,11.39 -6.77,16.2 -3.77,4.95 -7.87,9.58 -12.84,13.37 -0.19,0.14 -0.35,0.32 -0.53,0.48 0.9,-0.08 1.74,-0.3 2.49,-0.7 1.55,-0.83 3.07,-1.71 4.57,-2.63 6.66,-4.12 12.62,-9.03 17.28,-15.39 5.41,-7.39 8.23,-15.58 7.46,-24.81 -0.58,-7.02 -3.18,-13.34 -7.05,-19.17 -4.04,-6.08 -9.1,-11.21 -14.9,-15.61 -3.59,-2.79 -7.09,-5.66 -10.61,-8.85 z m -30.88,-55.59 c 4.98,-1.76 9.32,-4.55 13.14,-8.18 0.08,-0.08 0.09,-0.23 0.17,-0.43 -0.27,0.03 -0.46,0.01 -0.64,0.07 -0.46,0.15 -0.92,0.31 -1.36,0.51 -3.62,1.6 -6.96,3.68 -10.02,6.19 -0.52,0.43 -1,0.92 -1.47,1.41 -0.08,0.08 0.01,0.3 0.18,0.43 z"
   id="path1" />
		<path
   d="m 308.88,292.57 c 0.29,4.51 0.66,8.89 0.84,13.27 0.25,6.19 0.24,12.38 0.55,18.57 0.2,3.93 0.8,7.85 1.21,11.77 0.05,0.44 0.4,0.95 -0.24,1.33 -0.63,-0.32 -0.57,-0.97 -0.66,-1.5 -0.8,-4.91 -1.25,-9.86 -1.3,-14.84 -0.08,-8.34 -0.33,-16.67 -1,-24.98 -0.17,-2.04 -0.24,-4.09 -0.33,-6.13 -0.02,-0.34 0.09,-0.69 0.32,-1.04 0.73,1.05 0.42,2.27 0.61,3.55 z"
   id="path2" />
		<path
   d="m 299.25,341.76 c -4.13,-6.08 -6.93,-12.64 -8.62,-19.68 -0.99,-4.1 -1.35,-8.27 -1.49,-12.47 -0.02,-0.55 0.07,-1.1 0.12,-1.76 0.79,0.23 0.67,0.7 0.7,1.1 0.11,1.75 0.19,3.5 0.33,5.25 0.48,6.29 2.12,12.28 4.71,18.02 1.69,3.74 3.49,7.42 6.19,10.57 0.73,0.85 1.51,1.66 2.25,2.5 0.21,0.23 0.34,0.53 0.53,0.82 -0.7,0.42 -1.03,-0.05 -1.32,-0.39 -1.14,-1.27 -2.23,-2.58 -3.4,-3.96 z"
   id="path3" />
		<path
   d="m 321.76,265.35 c 2.13,1.79 4.19,3.5 6.24,5.22 0.04,0.03 -0.01,0.18 -0.02,0.28 -0.49,0.38 -0.83,-0.03 -1.16,-0.26 -5.81,-4.19 -10.75,-9.13 -14.1,-15.6 -2.35,-4.53 -3.75,-9.3 -4.5,-14.3 -0.14,-0.96 -0.37,-1.92 -0.51,-2.88 -0.11,-0.79 -0.29,-1.6 0.06,-2.47 0.63,0.24 0.51,0.73 0.58,1.12 0.59,3.16 0.99,6.38 1.8,9.48 1.98,7.53 5.75,14.05 11.61,19.41 z"
   id="path4" />
		<path
   d="m 331.9,318.67 c -0.58,4.69 -1.4,9.18 -3.06,13.69 -0.74,-0.67 -0.44,-1.14 -0.34,-1.58 0.69,-2.99 1.53,-5.95 2.06,-8.97 1.08,-6.1 1.01,-12.22 0.08,-18.35 -0.6,-3.96 -1.32,-7.88 -2.43,-11.73 -0.08,-0.27 -0.07,-0.57 -0.08,-0.86 0,-0.06 0.12,-0.12 0.25,-0.24 0.55,0.25 0.57,0.82 0.71,1.3 1.22,4.07 1.96,8.24 2.56,12.45 0.66,4.72 0.71,9.43 0.25,14.29 z"
   id="path5" />
		<path
   d="m 282.47,301.23 c -0.11,2.87 -0.34,5.6 -0.26,8.32 0.09,2.77 0.51,5.53 0.75,8.3 0.23,2.67 1.25,5.21 1.6,7.96 -0.89,-0.07 -0.9,-0.57 -0.98,-0.97 -0.57,-2.72 -1.29,-5.41 -1.64,-8.16 -0.4,-3.09 -0.67,-6.22 -0.61,-9.33 0.12,-6.09 0.59,-12.17 1.69,-18.18 0.06,-0.31 0.2,-0.61 0.31,-0.93 0.73,0.22 0.51,0.7 0.47,1.09 -0.44,3.92 -0.88,7.84 -1.33,11.9 z"
   id="path6" />
		<path
   d="m 340.7,330.44 c 1.39,-2.58 2.89,-5 4.03,-7.58 1.09,-2.49 1.81,-5.15 2.74,-7.88 0.51,0.71 0.3,1.34 0.14,1.9 -0.62,2.05 -1.13,4.15 -1.99,6.11 -3.14,7.19 -7.36,13.64 -13.42,18.75 -0.38,0.32 -0.69,0.85 -1.48,0.69 0.11,-0.3 0.15,-0.57 0.29,-0.76 0.2,-0.27 0.48,-0.48 0.74,-0.7 3.52,-3.02 6.48,-6.5 8.95,-10.53 z"
   id="path7" />
		<path
   d="m 304.04,227.25 c -0.47,3.52 -0.81,6.92 -1.43,10.28 -0.48,2.63 -1.29,5.2 -1.98,7.79 -0.1,0.37 -0.34,0.71 -0.6,1.22 -0.55,-0.75 -0.28,-1.24 -0.12,-1.72 2.34,-7.26 3.05,-14.79 3.59,-22.34 0.19,-2.63 0.15,-5.27 0.23,-7.9 0.01,-0.41 0.07,-0.82 0.11,-1.32 0.79,0.29 0.63,0.85 0.62,1.28 -0.08,3.51 -0.18,7.02 -0.28,10.53 -0.02,0.68 -0.08,1.36 -0.14,2.18 z"
   id="path8" />
		<path
   d="m 320.21,311.93 c 0.12,-0.3 0.23,-0.48 0.38,-0.72 1.29,2.83 1.29,16.25 -0.85,23.17 -1.33,4.32 -2.07,6.15 -3.14,6.72 0.19,-0.71 0.28,-1.26 0.47,-1.77 1.09,-2.87 2.11,-5.76 2.64,-8.8 1,-5.75 1.16,-11.52 0.58,-17.32 -0.04,-0.38 -0.06,-0.77 -0.08,-1.28 z"
   id="path9" />
		<path
   d="m 282.39,338.66 c -2.75,-2.94 -4.94,-6.16 -6.71,-9.67 -2.06,-4.1 -3.82,-8.33 -5.12,-12.73 -0.18,-0.61 -0.49,-1.25 -0.23,-1.92 0.7,-0.11 0.64,0.38 0.73,0.73 1.29,4.72 3.25,9.18 5.42,13.55 1.66,3.34 3.74,6.39 6.27,9.14 0.31,0.33 0.55,0.72 0.82,1.07 -0.58,0.55 -0.82,0.13 -1.18,-0.17 z"
   id="path10" />
		<path
   d="m 255.86,318.62 c -0.2,-0.84 -0.68,-1.55 -0.2,-2.51 0.21,0.28 0.42,0.46 0.49,0.68 2.41,7.95 6.85,14.6 12.91,20.23 0.36,0.33 0.94,0.56 0.79,1.3 -0.68,0.19 -1.01,-0.32 -1.37,-0.65 -2.41,-2.22 -4.65,-4.61 -6.53,-7.29 -2.53,-3.62 -4.65,-7.45 -6.09,-11.76 z"
   id="path11" />
		<path
   d="m 296.39,274.11 c -0.44,0.94 -0.81,1.79 -1.25,2.6 -0.12,0.22 -0.44,0.33 -0.66,0.49 -0.09,-0.07 -0.18,-0.15 -0.27,-0.22 0.78,-1.86 1.61,-3.69 2.31,-5.58 0.71,-1.92 1.34,-3.86 1.89,-5.83 0.55,-1.97 0.99,-3.97 1.43,-5.96 0.43,-1.97 0.79,-3.95 1.19,-5.93 0.75,0.14 0.65,0.54 0.59,0.92 -1.08,6.44 -2.39,12.82 -4.95,18.88 -0.09,0.17 -0.16,0.35 -0.28,0.63 z"
   id="path12" />
		<path
   d="m 311.36,271.6 c -0.85,0.11 -0.82,-0.59 -0.95,-1.04 -0.73,-2.48 -1.45,-4.96 -2.08,-7.46 -0.56,-2.22 -1.01,-4.47 -1.47,-6.71 -0.16,-0.77 -0.31,-1.58 0.03,-2.68 0.27,0.42 0.45,0.58 0.48,0.77 0.87,5.55 2.34,10.96 4.01,16.31 0.07,0.23 0.03,0.48 -0.02,0.81 z"
   id="path13" />
		<path
   d="m 290.48,257.68 c 0.15,-0.2 0.22,-0.35 0.34,-0.41 0.11,-0.05 0.27,-0.01 0.53,-0.01 -0.28,1.49 -1.3,2.52 -1.9,3.75 -0.6,1.23 -1.24,2.43 -1.84,3.66 -0.62,1.27 -1.15,2.59 -1.81,3.84 -0.6,1.15 -0.81,2.54 -1.86,3.52 -0.57,-0.64 -0.17,-1.08 0.01,-1.48 1.85,-4.09 3.61,-8.22 6.04,-12.02 0.16,-0.25 0.29,-0.51 0.49,-0.85 z"
   id="path14" />
		<path
   d="m 359.31,315.23 c 0.26,0.04 0.62,0.17 0.62,0.3 0,0.38 -0.11,0.77 -0.22,1.14 -1.23,3.94 -2.98,7.62 -5.43,10.96 -0.36,0.49 -0.81,0.92 -1.23,1.39 -0.61,-0.54 -0.24,-0.87 -0.01,-1.21 0.82,-1.21 1.7,-2.39 2.44,-3.64 1.67,-2.77 2.95,-5.72 3.83,-8.94 z"
   id="path15" />
		<path
   d="m 324.87,263.7 c 1.53,1.5 2.98,2.93 4.43,4.37 0.04,0.04 -0.02,0.18 -0.06,0.43 -0.31,-0.11 -0.65,-0.14 -0.86,-0.31 -2.95,-2.44 -5.55,-5.19 -7.73,-8.35 -0.27,-0.4 -0.47,-0.86 -0.62,-1.32 -0.05,-0.16 0.12,-0.4 0.31,-0.96 1.17,2.53 2.84,4.28 4.53,6.14 z"
   id="path16" />
	</g>
</g>
</svg>
