<?xml version="1.0" encoding="UTF-8" standalone="no"?>
<!-- Generator: Adobe Adobe Illustrator 24.2.0, SVG Export Plug-In . SVG Version: 6.00 Build 0)  -->

<svg
   version="1.1"
   id="Layer_1"
   x="0px"
   y="0px"
   width="157.45929"
   height="203.77434"
   viewBox="0 0 157.45929 203.77434"
   xml:space="preserve"
   sodipodi:docname="alcachofa.svg"
   inkscape:version="1.4 (e7c3feb1, 2024-10-09)"
   xmlns:inkscape="http://www.inkscape.org/namespaces/inkscape"
   xmlns:sodipodi="http://sodipodi.sourceforge.net/DTD/sodipodi-0.dtd"
   xmlns="http://www.w3.org/2000/svg"
   xmlns:svg="http://www.w3.org/2000/svg"><defs
   id="defs83" /><sodipodi:namedview
   id="namedview83"
   pagecolor="#ffffff"
   bordercolor="#000000"
   borderopacity="0.25"
   inkscape:showpageshadow="2"
   inkscape:pageopacity="0.0"
   inkscape:pagecheckerboard="0"
   inkscape:deskcolor="#d1d1d1"
   inkscape:zoom="1.6816667"
   inkscape:cx="77.304262"
   inkscape:cy="115.06442"
   inkscape:window-width="1200"
   inkscape:window-height="1186"
   inkscape:window-x="0"
   inkscape:window-y="0"
   inkscape:window-maximized="0"
   inkscape:current-layer="Layer_1" />
<g
   id="g83"
   transform="translate(-222.17146,-184.68977)">
	<g
   id="g82">
		<path
   d="m 372.93,254.61 c 2.29,4.29 3.16,8.91 4.24,13.46 1.68,7.1 2.57,14.32 2.45,21.62 -0.08,5.08 -0.63,10.12 -1.84,15.08 -0.75,3.06 -2.12,5.86 -3.53,8.65 -0.57,1.13 -1.13,2.26 -1.74,3.47 0.36,0.15 0.6,0.28 0.87,0.36 0.68,0.2 0.93,0.71 0.9,1.34 -0.06,1.57 -0.24,3.09 -1.26,4.41 -2.86,3.71 -6.52,6.45 -10.64,8.57 -5.52,2.84 -11.21,5.27 -17.24,6.85 -5.09,1.34 -10.12,2.96 -15.25,4.12 -4.42,1 -8.94,1.53 -13.41,2.27 -0.56,0.09 -1.12,0.21 -1.7,0.31 0.18,3.19 0.37,6.25 0.53,9.31 0.19,3.7 0.46,7.41 0.52,11.11 0.1,5.27 0.02,10.54 0.07,15.81 0.02,2.66 -1.58,4.67 -4.14,5.55 -7.93,2.73 -15.59,1.69 -23.07,-1.6 -1.36,-0.6 -2.6,-1.54 -3.79,-2.45 -1.48,-1.14 -2.21,-2.74 -2.16,-4.6 0.08,-3.12 0.13,-6.25 0.42,-9.35 0.72,-7.68 2.44,-15.21 3.82,-22.98 -0.43,-0.07 -0.88,-0.17 -1.34,-0.21 -9.38,-0.98 -18.44,-3.3 -27.15,-6.88 -8.99,-3.7 -16.38,-9.59 -22.49,-17.11 -4.67,-5.75 -8.74,-11.87 -11.16,-18.95 -1.46,-4.28 -2.23,-8.7 -2.62,-13.18 -0.16,-1.83 0.12,-3.7 0.2,-5.55 0,-0.1 0.01,-0.21 0.05,-0.29 0.23,-0.4 0.39,-0.98 0.75,-1.14 0.55,-0.26 0.81,0.37 1.07,0.76 1.3,1.89 2.58,3.79 3.89,5.68 0.22,0.31 0.5,0.58 0.94,0.78 -0.14,-0.44 -0.27,-0.89 -0.44,-1.33 -1.89,-5.08 -3.52,-10.23 -4.36,-15.61 -2.06,-13.21 -1.54,-26.25 2.03,-39.17 1.15,-4.14 2.29,-8.28 3.99,-12.23 0.6,-1.38 1.36,-2.7 2.16,-3.98 0.69,-1.1 1.29,-1.3 2.49,-0.83 1.04,0.4 2.05,0.92 2.97,1.54 1.45,0.97 2.81,2.06 4.32,3.18 0.33,-0.87 0.62,-1.69 0.94,-2.49 0.6,-1.49 1.17,-3 1.86,-4.46 0.48,-1.01 1.05,-2 1.73,-2.88 1.38,-1.78 2.33,-1.7 3.67,-1.1 1.15,0.52 2.27,1.11 3.33,1.78 1.06,0.67 2.02,1.48 3.11,2.29 0.49,-1.03 0.87,-1.98 1.38,-2.85 1.38,-2.3 2.71,-4.64 4.26,-6.82 4.34,-6.1 9.31,-11.68 14.62,-16.94 0.93,-0.93 2,-1.71 3,-2.57 0.88,-0.75 1.85,-0.9 2.84,-0.3 0.95,0.58 1.99,1.12 2.73,1.92 2.52,2.71 4.93,5.53 7.38,8.31 0.12,0.14 0.26,0.27 0.45,0.48 0.33,-0.26 0.62,-0.49 0.91,-0.72 1.41,-1.13 2.76,-2.33 4.24,-3.37 3.03,-2.12 5.71,-2.2 8.62,0.13 2.73,2.19 5.23,4.68 7.68,7.19 1.46,1.49 2.62,3.28 3.91,4.93 0.36,0.45 0.72,0.9 1.3,1.63 0.32,-0.46 0.54,-0.84 0.82,-1.17 3.44,-4.04 7.59,-7.3 11.73,-10.57 0.27,-0.21 0.56,-0.39 0.86,-0.56 1.61,-0.9 2.83,-0.82 4.08,0.56 1.07,1.19 2.09,2.48 2.85,3.87 3.32,6.06 5.7,12.51 7.68,19.12 0.63,2.1 1.06,4.26 1.59,6.39 0.07,0.26 0.18,0.51 0.36,1.03 0.81,-1.36 1.54,-2.51 2.19,-3.69 0.84,-1.54 1.62,-3.12 2.43,-4.68 0.2,-0.39 0.42,-0.77 0.65,-1.15 1.57,-2.57 3.17,-2.64 4.87,-0.12 2.45,3.62 4.32,7.55 5.5,11.75 2.38,8.5 3.54,17.19 3.64,26.02 0.01,1.01 0.09,2.01 0.39,3.06 0.21,-0.52 0.37,-1.08 0.66,-1.55 0.23,-0.38 0.59,-0.83 0.97,-0.92 0.24,-0.06 0.66,0.44 0.94,0.75 0.23,0.24 0.31,0.55 0.48,0.91 z M 267.07,230.59 c -1.62,2.38 -3.27,4.74 -4.86,7.14 -2.54,3.82 -5.09,7.64 -7.12,11.77 -0.42,0.86 -0.51,1.56 -0.03,2.45 1.13,2.11 2.2,4.25 3.18,6.43 2.15,4.75 5.27,8.89 8.26,13.11 0.29,0.41 0.66,0.78 0.97,1.14 0.78,-1.48 1.36,-2.9 2.22,-4.12 1.43,-2.03 2.95,-4.01 4.61,-5.86 2.24,-2.51 4.62,-4.9 7,-7.29 0.68,-0.68 0.97,-1.38 0.91,-2.33 -0.05,-0.97 -0.03,-1.95 0.04,-2.93 0.49,-6.69 1.76,-13.25 3.32,-19.75 3.08,-12.88 7.99,-25.07 14.17,-36.77 0.17,-0.33 0.34,-0.66 0.67,-1.3 -0.61,0.34 -0.95,0.48 -1.24,0.7 -1.16,0.9 -2.38,1.73 -3.42,2.75 -4.31,4.25 -8.66,8.47 -12.81,12.86 -3.52,3.73 -6.56,7.87 -9.36,12.18 -2.11,3.23 -4.27,6.43 -6.51,9.82 z m 19.19,104.08 c -2.86,-1.48 -5.73,-2.94 -8.57,-4.46 -7.02,-3.75 -13.96,-7.62 -20.5,-12.19 -8.41,-5.87 -15.74,-12.96 -22.94,-20.19 -3.69,-3.71 -7.12,-7.64 -9.94,-12.07 -0.12,-0.2 -0.18,-0.44 -0.27,-0.65 -0.12,0.09 -0.24,0.18 -0.36,0.27 -0.21,2.41 -0.22,4.8 0.11,7.23 1.07,7.83 3.77,15 8.19,21.56 4.4,6.52 9.43,12.44 15.79,17.15 6.24,4.62 13.26,7.62 20.7,9.66 2.73,0.75 5.45,1.6 8.24,1.99 7.58,1.07 15.09,0.28 22.52,-1.41 0.5,-0.11 0.98,-0.29 1.56,-0.47 -4.9,-2.16 -9.62,-4.23 -14.53,-6.42 z m 55.72,-25.24 c -2.81,-1.13 -5.6,-2.29 -8.42,-3.37 -2,-0.76 -4.03,-1.46 -6.08,-2.09 -1.29,-0.4 -2.59,-0.24 -3.72,0.45 2.62,12.77 2.22,25.37 -0.92,38.09 0.61,-0.07 1.08,-0.11 1.54,-0.17 6.21,-0.88 12.13,-2.87 18.16,-4.48 6.06,-1.61 11.89,-3.79 17.52,-6.51 3.72,-1.8 7.16,-3.99 10.07,-6.95 0.72,-0.73 1.38,-1.52 1.98,-2.34 0.76,-1.05 1.04,-2.26 1,-3.57 -0.28,-0.09 -0.46,-0.17 -0.64,-0.21 -4.15,-0.86 -8.38,-1.43 -12.43,-2.64 -6.02,-1.81 -11.91,-4.06 -18.06,-6.21 z m -42.45,-9.54 c 0.09,0.51 0.1,1.06 0.29,1.53 1.01,2.48 2.08,4.94 3.1,7.41 0.39,0.93 0.73,1.89 1.15,2.98 0.35,-0.39 0.58,-0.62 0.78,-0.87 6.53,-8.47 12.44,-17.37 17.72,-26.67 0.92,-1.61 1.7,-3.29 2.58,-4.92 0.33,-0.61 0.36,-1.15 0.1,-1.8 -0.6,-1.54 -1.1,-3.13 -1.69,-4.68 -3.97,-10.55 -9.45,-20.33 -15.42,-29.84 -1.66,-2.63 -3.66,-5.05 -5.55,-7.54 -0.57,-0.75 -1.21,-1.47 -2.28,-1.71 0,0.29 -0.04,0.49 0.01,0.67 0.93,4.11 1.12,8.3 1.44,12.48 0.53,6.82 0.41,13.65 0.19,20.48 -0.2,5.99 -0.68,11.97 -1.04,17.96 -0.26,4.79 -0.52,9.56 -1.38,14.52 z m -21.82,-19.98 c -0.29,0.83 -0.6,1.65 -0.86,2.49 -2.27,7.37 -2.71,14.95 -2.47,22.58 0.16,5.16 0.61,10.32 1.01,15.47 0.18,2.28 0.58,4.54 0.85,6.82 0.07,0.6 0.35,0.96 0.88,1.22 1.18,0.59 2.39,1.13 3.48,1.87 1.16,0.79 2.12,0.6 3.19,-0.12 2.14,-1.45 4.32,-2.84 6.48,-4.25 4.33,-2.83 8.66,-5.65 12.98,-8.48 0.32,-0.21 0.58,-0.48 0.84,-0.7 -0.8,-3.86 -3.78,-11.67 -5.73,-15.39 -3.71,-7.07 -8.07,-13.69 -13.31,-19.73 -0.89,-1.03 -1.78,-2.07 -2.7,-3.08 -0.85,-0.92 -1.91,-1.48 -3.37,-1.67 -0.4,0.91 -0.8,1.83 -1.27,2.97 z m -27.21,21.13 c 2.09,-2.38 4.12,-4.82 6.29,-7.13 2.17,-2.31 4.44,-4.53 6.74,-6.71 2.44,-2.32 4.96,-4.55 7.46,-6.8 0.24,-0.22 0.59,-0.33 0.9,-0.49 -1.5,-1.74 -2.76,-3.16 -3.97,-4.62 -3.48,-4.17 -6.72,-8.53 -9.25,-13.32 -2.52,-4.78 -4.7,-9.75 -7.02,-14.64 -1.32,-2.8 -2.62,-5.62 -4.05,-8.69 -0.4,0.76 -0.74,1.29 -0.97,1.86 -1.4,3.48 -2.79,6.97 -4.16,10.47 -0.16,0.4 -0.22,0.85 -0.23,1.28 -0.07,1.8 -0.08,3.61 -0.16,5.41 -0.33,7.52 0.2,15.02 0.53,22.53 0.35,7.77 1.58,15.42 3.08,23.04 0.2,1.04 0.43,2.07 0.69,3.32 1.43,-1.93 2.71,-3.64 4.12,-5.51 z m 27.65,-25.19 c 0.93,-0.31 1.82,-0.13 2.71,0.22 1.22,0.48 2.17,1.29 3.01,2.26 5.17,5.99 10.12,12.14 13.8,19.21 0.29,0.55 0.62,1.08 1.1,1.91 0.16,-0.88 0.3,-1.42 0.36,-1.98 0.23,-2.43 0.48,-4.85 0.64,-7.28 0.47,-7.25 1.02,-14.5 1.32,-21.75 0.33,-7.95 0.37,-15.9 -0.28,-23.84 -0.28,-3.45 -0.55,-6.9 -1.36,-10.28 -0.07,-0.31 -0.2,-0.61 -0.37,-1.13 -0.63,0.65 -1.2,1.11 -1.62,1.68 -1.62,2.2 -3.23,4.4 -4.76,6.66 -1.61,2.38 -3.11,4.84 -4.68,7.25 -1.95,2.99 -4.12,5.8 -6.65,8.33 -2.04,2.03 -4.06,4.09 -5.98,6.23 -1.59,1.78 -3.11,3.63 -4.49,5.58 -0.86,1.22 -1.42,2.65 -2.07,4.01 -0.26,0.55 -0.3,1.11 0.16,1.64 1.29,1.46 2.55,2.93 3.73,4.28 1.82,-1.03 3.51,-1.98 5.43,-3 z m 5.78,-33.06 c -0.44,3.39 -1.13,6.76 -0.74,10.24 0.52,-0.45 0.94,-0.91 1.29,-1.43 2.14,-3.2 4.25,-6.43 6.41,-9.62 1.72,-2.54 3.49,-5.06 5.28,-7.55 0.48,-0.67 1.09,-1.25 1.68,-1.83 0.8,-0.77 1.71,-0.84 2.69,-0.34 1.28,0.66 2.36,1.53 3.27,2.65 2.65,3.26 5.09,6.67 7.24,10.28 0.93,1.55 1.81,3.12 2.72,4.68 0.18,0.31 0.44,0.58 0.72,0.94 0.69,-0.81 1.26,-1.53 1.89,-2.22 0.7,-0.77 0.97,-1.61 0.84,-2.66 -0.61,-4.98 -1.08,-9.98 -1.78,-14.95 -0.8,-5.65 -1.84,-11.29 -3.98,-16.6 -2.29,-5.7 -4.83,-11.29 -7.34,-16.9 -0.75,-1.68 -1.73,-3.25 -2.75,-5.11 -0.74,1.34 -1.35,2.38 -1.9,3.46 -5.18,10.2 -9.52,20.75 -12.36,31.84 -1.25,4.9 -2.11,9.91 -3.18,15.12 z m 8.95,83.04 c -3.08,1.95 -6.17,3.91 -9.34,5.92 0.37,0.23 0.6,0.41 0.85,0.54 5.92,3 11.91,5.83 18.29,7.72 0.32,0.09 0.75,0.43 0.78,0.69 0.03,0.28 -0.29,0.72 -0.58,0.88 -0.68,0.37 -1.41,0.71 -2.16,0.88 -2.47,0.54 -4.96,1.03 -7.45,1.49 -1.43,0.26 -2.88,0.43 -4.32,0.64 11.09,1.13 22.02,0 32.85,-1.83 3.24,-7.58 3.81,-32.13 0.84,-37.91 -0.84,0.49 -1.72,0.91 -2.5,1.47 -2.62,1.87 -5.33,3.64 -7.79,5.7 -6.07,5.07 -12.49,9.65 -19.47,13.81 z m 43.71,-69.04 c 0,1.36 0,2.72 0,4.1 2.58,0.89 4.75,2.26 6.69,4.01 2.24,2.03 4.56,3.98 6.74,6.07 4.05,3.88 7.15,8.5 9.86,13.38 0.92,1.65 1.59,3.44 2.43,5.28 0.15,-0.44 0.31,-0.78 0.39,-1.14 0.78,-3.57 1.47,-7.17 2.35,-10.72 0.48,-1.92 0.17,-3.62 -0.57,-5.38 -2.14,-5.14 -4.31,-10.26 -6.99,-15.13 -6.59,-11.97 -13.76,-23.6 -21.37,-34.95 -0.27,-0.4 -0.59,-0.81 -0.98,-1.07 -0.32,-0.21 -0.93,-0.42 -1.14,-0.26 -0.38,0.28 -0.62,0.81 -0.79,1.29 -0.08,0.22 0.12,0.56 0.2,0.84 1.59,5.17 2.22,10.5 2.54,15.86 0.35,5.82 0.44,11.68 0.64,17.82 z m 28.98,58.96 c 1.85,0.35 3.71,0.7 5.55,1.06 1.1,-2.2 2.13,-4.24 3.15,-6.29 1.17,-2.37 2.14,-4.82 2.57,-7.44 0.47,-2.83 0.92,-5.68 1.23,-8.53 0.58,-5.46 0.3,-10.92 -0.37,-16.35 -0.69,-5.57 -1.94,-11.04 -3.39,-16.46 -0.62,-2.31 -1.43,-4.54 -2.73,-6.81 -0.25,0.66 -0.48,1.13 -0.61,1.63 -0.63,2.45 -1.3,4.9 -1.82,7.38 -1.6,7.58 -3.12,15.18 -4.69,22.77 -1.47,7.08 -4.29,13.55 -8.82,19.23 -1.42,1.78 -2.8,3.6 -4.26,5.47 4.51,1.92 9.2,3.21 14.19,4.34 z m -90.66,8 c -0.26,-2.57 -0.53,-5.14 -0.77,-7.71 -0.71,-7.64 -0.9,-15.29 -0.21,-22.94 0.44,-4.92 1.46,-9.74 3.38,-14.32 0.16,-0.38 0.27,-0.78 0.53,-1.51 -1.03,0.62 -1.8,1.02 -2.5,1.51 -4.09,2.86 -7.92,6.01 -11.3,9.7 -1.58,1.73 -3.22,3.41 -4.95,4.98 -4.47,4.07 -8.14,8.8 -11.59,13.72 -0.21,0.31 -0.39,0.64 -0.62,1.02 8.63,7.71 18.18,13.86 28.49,19.25 -0.17,-1.32 -0.29,-2.38 -0.46,-3.7 z m 29.81,-10.54 c -0.11,0.95 0.21,1.78 0.7,2.71 0.88,-0.69 1.67,-1.32 2.48,-1.94 3.52,-2.7 7,-5.45 10.59,-8.06 1.49,-1.08 3.17,-1.9 4.82,-2.74 1.54,-0.8 3.2,-0.79 4.85,-0.35 0.94,0.25 1.88,0.54 2.78,0.89 3.23,1.25 6.44,2.54 9.66,3.81 0.49,0.19 0.98,0.36 1.58,0.58 0,-0.98 0.06,-1.81 -0.01,-2.62 -0.46,-5.05 -0.94,-10.09 -1.42,-15.14 -0.74,-7.69 -2.21,-15.24 -4.41,-22.64 -0.46,-1.54 -1.01,-3.04 -1.61,-4.83 -0.43,0.68 -0.78,1.14 -1.02,1.64 -1.08,2.19 -2.18,4.36 -3.17,6.59 -4.79,10.77 -10.63,20.96 -17.37,30.62 -2.68,3.82 -5.56,7.52 -8.45,11.48 z m -68.98,-56.38 c 0.03,-0.54 0.01,-1.08 0.11,-1.61 0.2,-1.04 -0.23,-1.7 -0.99,-2.38 -1.19,-1.07 -2.26,-2.29 -3.34,-3.48 -0.26,-0.28 -0.7,-0.62 -0.12,-1.27 0.33,0.36 0.63,0.7 0.94,1.03 0.93,1 1.86,2 2.81,2.98 0.21,0.21 0.52,0.32 0.89,0.54 0.08,-0.84 0.09,-1.53 0.23,-2.19 0.17,-0.77 -0.07,-1.26 -0.66,-1.77 -0.95,-0.84 -1.8,-1.78 -2.66,-2.71 -0.15,-0.17 -0.16,-0.47 -0.33,-1 1.05,0.4 1.37,1.17 1.91,1.66 0.56,0.51 1.12,1.04 1.8,1.68 0.46,-2.01 1.05,-3.78 -0.93,-5.14 -0.5,-0.35 -0.85,-0.94 -1.23,-1.44 -0.24,-0.32 -0.42,-0.69 -0.71,-1.18 1.18,-0.09 1.28,0.86 1.77,1.29 0.56,0.5 1.04,1.09 1.75,1.85 0.22,-1.61 0.68,-2.96 0.47,-4.19 -0.15,-0.86 -1.23,-1.56 -1.89,-2.33 -0.13,-0.15 -0.28,-0.28 -0.38,-0.44 -0.16,-0.26 -0.28,-0.53 -0.52,-1.02 1.57,0.37 1.86,1.94 3.11,2.41 0.11,-0.54 0.15,-1.02 0.3,-1.46 0.5,-1.51 0.36,-2.82 -0.96,-3.91 -0.44,-0.36 -0.73,-0.91 -1.05,-1.4 -0.11,-0.17 -0.09,-0.42 -0.15,-0.8 1.4,0.52 1.57,2.12 2.83,2.58 0.31,-1.24 0.61,-2.42 0.91,-3.64 -0.46,-0.52 -0.96,-1 -1.35,-1.55 -0.36,-0.51 -1.2,-0.85 -0.77,-1.98 0.83,0.91 1.53,1.68 2.26,2.48 0.91,-1.6 1.38,-3.05 -0.14,-4.42 -0.21,-0.19 -0.37,-0.47 -0.47,-0.74 -0.08,-0.23 -0.04,-0.5 -0.05,-0.75 0.08,-0.03 0.15,-0.07 0.23,-0.1 0.55,0.69 1.11,1.38 1.68,2.1 0.82,-1.5 0.87,-1.69 -0.21,-2.55 -1.56,-1.24 -3.21,-2.38 -4.87,-3.5 -0.54,-0.37 -1.23,-0.52 -1.89,-0.79 -1.23,1.32 -1.93,2.82 -2.57,4.34 -1.85,4.42 -3.1,9.03 -4.32,13.66 -3.28,12.43 -3.54,24.97 -1.49,37.61 1.11,6.84 3.47,13.3 6.11,19.66 0.72,1.74 2.31,2.8 3.76,4.31 0.08,-1.71 -0.06,-2.94 -1.42,-3.82 -0.89,-0.58 -1.61,-1.41 -2.37,-2.17 -0.17,-0.17 -0.18,-0.5 -0.27,-0.75 1.54,0.58 2.26,2.04 3.84,2.69 -0.09,-1.58 -0.2,-2.98 -0.25,-4.39 -0.03,-0.7 -0.34,-1.14 -0.9,-1.56 -1.1,-0.81 -2.14,-1.7 -3.18,-2.59 -0.2,-0.17 -0.28,-0.49 -0.42,-0.74 0.08,-0.07 0.17,-0.15 0.25,-0.22 1.47,0.73 2.42,2.28 4.05,2.96 0,-1.75 -0.02,-3.35 0.01,-4.95 0.01,-0.59 -0.35,-0.86 -0.78,-1.13 -0.99,-0.63 -1.98,-1.26 -2.95,-1.91 -0.29,-0.2 -0.52,-0.49 -0.93,-0.9 1.21,-0.23 1.7,0.58 2.37,0.94 0.71,0.39 1.38,0.84 2.21,1.36 0.06,-0.59 0.11,-0.96 0.13,-1.34 0.05,-0.97 0.39,-2.1 0.03,-2.88 -0.39,-0.83 -1.46,-1.34 -2.24,-1.98 -0.41,-0.34 -0.85,-0.67 -1.24,-1.03 -0.34,-0.31 -0.64,-0.67 -0.96,-1.01 1.15,-0.3 1.56,0.63 2.23,1.07 0.75,0.5 1.46,1.07 2.34,1.73 0.15,-1.21 0.22,-2.17 0.39,-3.11 0.15,-0.83 -0.11,-1.35 -0.8,-1.84 -1.11,-0.79 -2.14,-1.7 -3.19,-2.57 -0.29,-0.24 -0.63,-0.52 -0.16,-0.98 1.44,0.74 2.37,2.22 3.92,2.87 0,-1.19 -0.04,-2.26 0.02,-3.32 0.04,-0.77 -0.22,-1.26 -0.84,-1.71 -1.06,-0.78 -2.05,-1.65 -3.05,-2.52 -0.21,-0.19 -0.31,-0.5 -0.57,-0.94 1.19,0.05 1.55,0.92 2.18,1.36 0.7,0.49 1.35,1.04 2.24,1.74 0.08,-1.37 0.09,-2.44 0.22,-3.49 0.1,-0.82 -0.15,-1.35 -0.79,-1.87 -1.13,-0.93 -2.17,-1.96 -3.22,-2.98 -0.17,-0.17 -0.18,-0.5 -0.26,-0.76 0.1,-0.06 0.19,-0.11 0.29,-0.17 1.27,1.16 2.55,2.32 3.93,3.58 0.16,-0.44 0.23,-0.66 0.32,-1.11 z m 123.64,40.88 c 0.13,-0.26 0.26,-0.52 0.39,-0.79 2.07,-4.22 2.09,-5.22 0.2,-9.52 -0.12,-0.27 -0.26,-0.52 -0.37,-0.79 -1.51,-3.6 -3.87,-6.67 -6.14,-9.77 -3.7,-5.05 -8.43,-9.06 -13.38,-12.82 -0.95,-0.72 -2.14,-1.16 -3.25,-1.66 -0.36,-0.16 -0.81,-0.13 -1.42,-0.22 0.64,1.95 1.23,3.65 1.75,5.37 2.82,9.39 4.22,19.03 5,28.77 0.32,4.03 0.68,8.06 1.04,12.27 2.17,0.76 4.45,1.56 6.83,2.39 3.56,-4.09 6.78,-8.3 9.35,-13.23 z m -38.34,-53.87 c -1.92,2.75 -3.84,5.5 -5.84,8.38 1.32,2.5 2.78,5.14 4.12,7.84 1.32,2.66 2.58,5.36 3.73,8.1 1.17,2.75 2.18,5.57 3.37,8.64 0.46,-0.93 0.78,-1.58 1.09,-2.23 1.56,-3.31 3.11,-6.62 4.69,-9.92 0.8,-1.67 1.65,-3.33 3.61,-3.98 0,-0.64 0.01,-1.17 0,-1.71 -0.1,-3.41 -0.17,-6.83 -0.31,-10.24 -0.17,-4.29 -0.32,-8.58 -0.63,-12.85 -0.29,-3.94 -0.86,-7.85 -2,-11.65 -0.09,-0.31 -0.23,-0.6 -0.49,-1.26 -3.35,7.37 -7.07,14.15 -11.34,20.88 z M 282.6,186.27 c -0.88,-0.57 -1.19,0.12 -1.55,0.71 -4.57,7.48 -8.43,15.28 -10.78,23.76 -1.12,4.04 -2.17,8.09 -3.21,12.15 -0.12,0.48 -0.15,1.11 0.07,1.51 0.33,0.6 0.91,1.06 1.57,1.77 6.42,-11.24 14.63,-20.72 23.94,-29.26 -0.28,-0.45 -0.43,-0.76 -0.65,-1.01 -2.53,-2.84 -5.05,-5.68 -7.61,-8.48 -0.42,-0.47 -1.05,-0.72 -1.78,-1.15 z m -15.73,42.36 c 0.31,-0.48 0.62,-0.96 0.97,-1.48 -1.1,-1.19 -2.08,-2.33 -3.15,-3.39 -3.71,-3.66 -7.4,-7.36 -11.62,-10.46 -0.93,-0.68 -2,-1.21 -3.08,-1.62 -1.42,-0.54 -2.42,0.27 -2.32,1.78 0.3,4.48 0.85,8.93 1.85,13.3 1.53,6.69 3.19,13.36 4.8,20.03 0.05,0.22 0.17,0.42 0.36,0.87 3.54,-6.77 7.94,-12.72 12.19,-19.03 z m 94.43,-9.99 c -0.41,-0.72 -0.79,-1.46 -1.24,-2.16 -0.41,-0.66 -0.89,-1.28 -1.34,-1.91 -0.16,0.52 -0.09,0.9 -0.01,1.28 0.94,4.19 1.78,8.38 1.91,12.7 0.26,8.59 -0.58,17.04 -2.73,25.36 -0.16,0.62 -0.13,1.11 0.17,1.66 2.81,5.19 5.23,10.57 7.49,16.03 0.1,0.23 0.29,0.43 0.54,0.8 0.57,-2.79 1.11,-5.36 1.62,-7.94 0.23,-1.15 0.54,-2.3 0.57,-3.45 0.21,-8.35 -0.04,-16.69 -1.51,-24.93 -1.06,-5.97 -2.38,-11.87 -5.47,-17.44 z m -1.51,11.2 c 0.04,-5.23 -0.91,-10.31 -2.43,-15.35 -2.02,3.28 -3.77,6.64 -5.74,9.87 -1.97,3.24 -4.17,6.34 -6.3,9.55 3.88,6.46 7.64,13.01 11.75,19.73 2.1,-7.95 2.92,-15.67 2.72,-23.8 z m -11.72,-2.35 c 0.86,-1.01 1.08,-2.13 0.67,-3.4 -0.15,-0.46 -0.17,-0.96 -0.27,-1.44 -1.3,-6.18 -3.45,-12.1 -5.9,-17.9 -1.01,-2.38 -2.19,-4.68 -3.38,-6.97 -0.64,-1.23 -1.45,-2.37 -2.59,-3.18 -0.89,8.28 -1.77,16.48 -2.66,24.77 1.59,0.12 2.63,1.24 3.5,2.58 2.1,3.23 4.22,6.45 6.34,9.67 0.23,0.34 0.51,0.65 0.92,1.17 1.17,-1.84 2.22,-3.48 3.37,-5.3 z m -102.92,13.13 c 0.45,-0.86 0.84,-1.77 1.36,-2.59 0.82,-1.28 1.71,-1.22 2.34,0.14 1.44,3.1 2.84,6.2 4.26,9.31 0.21,0.46 0.43,0.91 0.64,1.36 -2.46,-11.48 -6.02,-22.68 -6.99,-34.48 -0.36,0.39 -0.61,0.78 -0.78,1.2 -3.62,8.57 -6.53,17.35 -7.49,26.65 -0.73,7.08 -1.3,14.17 -1.94,21.26 -0.03,0.29 0,0.58 0,0.87 2.37,-8.05 5.32,-15.83 8.6,-23.72 z m -6.9,23.28 c -1.31,5.18 -2.02,10.45 -2.04,15.78 -0.02,3.95 0.14,7.9 0.25,11.85 0.04,1.41 0.07,2.84 0.28,4.23 0.21,1.47 0.26,3.04 1.46,4.19 2.15,2.06 4.29,4.14 6.44,6.19 0.21,0.2 0.49,0.33 0.96,0.64 -3.94,-17.29 -4.72,-34.58 -4.36,-51.97 -1.29,2.87 -2.13,5.86 -2.99,9.09 z m 65.79,98.56 c -0.28,3.35 -0.58,6.7 -0.85,10.05 -0.26,3.21 -0.5,6.41 -0.74,9.62 -0.13,1.68 -0.25,3.36 -0.39,5.16 2.15,0.06 4.07,-0.42 5.97,-0.69 0.83,-2.69 1.95,-38.63 1.28,-40.84 -1.42,0.13 -2.85,0.26 -4.3,0.4 -0.02,0.39 -0.03,0.63 -0.04,0.87 -0.08,2.53 -0.11,5.06 -0.26,7.59 -0.14,2.53 -0.43,5.05 -0.67,7.84 z m 18.75,-158.18 c -0.61,0.69 -1.22,1.38 -1.78,2.01 3.66,5.08 7.24,10.05 10.84,15.05 0.84,-0.61 1.03,-1.64 1.19,-2.63 0.35,-2.26 0.69,-4.53 0.94,-6.81 0.42,-3.78 0.75,-7.57 1.16,-11.36 0.23,-2.13 0.5,-4.25 0.25,-6.4 -1.83,0.35 -8.85,5.98 -12.6,10.14 z m -63.5,12.63 c 1.16,1.05 2.32,2.08 3.47,3.14 1.11,1.03 2.1,2.2 3.39,3.21 1.47,-6.31 2.98,-12.36 5.07,-18.24 2.09,-5.86 4.92,-11.39 7.92,-16.87 -0.56,0.28 -0.99,0.64 -1.38,1.04 -1.86,1.94 -3.75,3.84 -5.53,5.84 -4.56,5.09 -8.88,10.37 -12.32,16.3 -0.63,1.09 -1.13,2.26 -1.69,3.4 -0.26,0.54 -0.26,1.03 0.27,1.43 0.23,0.18 0.43,0.4 0.8,0.75 z m 50.62,-21.3 c -1.53,-1.2 -3.04,-2.43 -4.6,-3.58 -0.52,-0.38 -1.17,-0.65 -2,-0.4 5,5.81 9.05,12.18 13.2,18.47 4.17,6.33 7.53,13.12 10.89,20.19 1.14,-2.33 2.11,-4.4 3.17,-6.42 0.37,-0.7 0.37,-1.22 -0.06,-1.87 -1.53,-2.26 -2.92,-4.62 -4.54,-6.81 -2.63,-3.57 -5.45,-7 -8.08,-10.57 -2.35,-3.21 -4.88,-6.22 -7.98,-9.01 z m -13.05,182.58 c 0,2.77 0,5.53 0,8.43 1.26,0.2 2.49,0.39 3.8,0.6 0.09,-0.51 0.19,-0.88 0.22,-1.25 0.38,-4.76 0.73,-9.52 1.11,-14.28 0.36,-4.52 0.78,-9.03 1.13,-13.55 0.27,-3.4 0.49,-6.8 0.71,-10.2 0.03,-0.52 -0.05,-1.04 -0.08,-1.6 -0.9,0 -1.66,0 -2.51,0 -0.17,1.06 -0.34,2.06 -0.5,3.06 -0.85,5.39 -1.78,10.77 -2.53,16.17 -0.57,4.09 -0.89,8.23 -1.35,12.62 z m 17.47,-19.71 c -0.34,-4.36 -0.43,-8.73 -0.9,-13.21 -0.97,0.14 -1.76,0.25 -2.52,0.36 -0.62,13.59 -0.03,27.05 -1.43,40.65 0.95,-0.31 1.64,-0.54 2.33,-0.75 1.87,-0.58 2.8,-1.89 2.87,-3.8 0.06,-1.61 0.03,-3.22 0,-4.83 -0.1,-6.04 -0.22,-12.09 -0.35,-18.42 z m -20.78,4.08 c -1.03,7.59 -1.49,15.21 -1.16,22.91 1.11,0.29 2.08,0.54 3.26,0.85 -0.57,-13.64 2.25,-26.69 4.25,-39.93 -1.03,0 -1.93,0 -2.87,0 -1.74,5.23 -2.48,10.59 -3.48,16.17 z m -5.6,7.26 c -0.14,2.43 -0.34,4.87 -0.4,7.3 -0.05,1.75 0.06,3.51 0.16,5.26 0.03,0.44 0.2,1.04 0.52,1.25 0.83,0.55 1.72,1.06 2.95,1.19 -0.56,-13.11 1.07,-25.86 4.43,-38.5 -1.07,0 -1.98,0 -2.95,0 -0.2,0.59 -0.42,1.13 -0.57,1.69 -0.46,1.79 -0.9,3.59 -1.34,5.39 -1.31,5.33 -2.32,10.69 -2.8,16.42 z m -1.17,-15.83 c -1.22,6.37 -2.33,12.76 -2.76,19.24 -0.13,2.03 0.01,4.09 0.16,6.13 0.1,1.34 1.05,2.19 2.21,2.9 -0.8,-12.35 1.67,-24.22 4.86,-36.11 -1.11,-0.06 -2.02,-0.11 -3.07,-0.17 -0.47,2.68 -0.92,5.22 -1.4,8.01 z m 30.55,-116.02 c -0.07,0.85 -0.05,1.68 0.41,2.75 2.31,-2.79 4.46,-5.36 6.58,-7.96 0.46,-0.56 0.85,-1.19 1.21,-1.82 0.54,-0.94 0.52,-0.96 -0.38,-1.94 -0.67,0.84 -1.29,1.72 -2,2.51 -1.87,2.1 -3.79,4.18 -5.82,6.46 z m 5.48,-10.24 c -1.75,1.89 -3.47,3.81 -5.27,5.64 -0.57,0.58 -0.89,1.08 -0.64,1.9 0.13,0.43 0.14,0.91 0.2,1.36 0.22,-0.05 0.34,-0.04 0.39,-0.09 2.5,-2.39 4.76,-4.99 6.76,-7.82 0.73,-1.03 0.65,-1.29 -0.38,-2.27 -0.07,0.06 -0.15,0.12 -0.22,0.19 -0.23,0.31 -0.47,0.61 -0.84,1.09 z m -1.02,-3.7 c 0.73,-1.16 0.73,-1.16 -0.19,-2.2 -1.6,1.48 -3.14,3.04 -4.82,4.42 -0.83,0.68 -1.22,1.31 -0.88,2.34 0.12,0.35 0.19,0.72 0.33,1.22 2.2,-1.63 3.83,-3.61 5.56,-5.78 z m -2.1,15.53 c -0.39,0.43 -0.75,0.91 -1.18,1.29 -0.84,0.74 -0.98,1.55 -0.43,2.71 3.34,-3.78 6.68,-7.39 8.43,-12.12 -2.23,2.66 -4.46,5.31 -6.82,8.12 z m -2.67,-9.32 c -0.82,0.9 -0.85,1.41 -0.09,2.66 2.32,-2.11 4.36,-4.45 6.21,-6.96 0.53,-0.71 0.26,-1.21 -0.17,-1.7 -1.97,2 -3.88,3.92 -5.95,6 z m 2.24,-7.22 c 0.5,-0.6 1,-1.2 1.5,-1.8 0.31,-0.37 0.43,-0.75 0.14,-1.19 -0.23,-0.35 -0.43,-0.72 -0.65,-1.08 -1.42,1.48 -2.75,2.89 -4.12,4.26 -1.18,1.17 -1.23,1.29 -0.36,3.02 1.14,-1.04 2.25,-2.05 3.49,-3.21 z m -4.6,-0.69 c 0.1,0.25 0.21,0.49 0.35,0.82 1.68,-1.44 3.09,-2.95 4.34,-4.63 0.49,-0.67 0.26,-1.11 -0.26,-1.47 -1.39,1.36 -2.72,2.63 -4,3.95 -0.26,0.27 -0.31,0.74 -0.43,1.33 z m 1.16,-3.06 c 0.74,-0.83 1.53,-1.63 2.22,-2.51 0.66,-0.83 0.61,-0.86 -0.13,-1.58 -1.32,1.29 -2.64,2.57 -4.03,3.92 0.11,0.38 0.26,0.86 0.45,1.5 0.56,-0.49 0.95,-0.84 1.49,-1.33 z m -1.73,-6.96 c -0.61,0.54 -1.22,1.09 -1.86,1.66 0.21,0.54 0.4,1.02 0.62,1.61 1.4,-0.94 2.41,-2.07 3.41,-3.35 -0.27,-0.43 -0.51,-0.82 -0.9,-1.45 -0.44,0.56 -0.78,0.97 -1.27,1.53 z m 0.23,3.15 c -0.39,0.34 -0.79,0.69 -1.22,1.06 0.18,0.51 0.34,0.93 0.53,1.44 1.4,-1.02 2.42,-2.24 3.41,-3.48 0.47,-0.58 0.11,-0.93 -0.36,-1.35 -0.77,0.77 -1.49,1.48 -2.36,2.33 z m -3.21,-6.18 c -0.81,0.62 -0.3,1.15 0.2,1.87 0.97,-0.86 1.87,-1.67 2.83,-2.52 -0.4,-0.52 -0.69,-0.88 -0.98,-1.26 -0.7,0.65 -1.3,1.22 -2.05,1.91 z m 0.55,2.54 c 0.06,0.38 0.12,0.75 0.24,1.48 1.09,-1.08 1.92,-1.88 2.73,-2.7 0.39,-0.39 0.37,-0.76 -0.16,-1.12 -0.88,0.73 -1.78,1.46 -2.81,2.34 z m -0.97,-4.98 c -0.33,0.33 -0.67,0.67 -1,1 0.18,0.35 0.3,0.62 0.45,0.86 0.04,0.06 0.17,0.08 0.35,0.15 0.71,-0.72 1.44,-1.47 2.2,-2.25 -0.31,-0.39 -0.51,-0.64 -0.75,-0.95 -0.41,0.39 -0.75,0.72 -1.25,1.19 z m -0.8,-2.26 c -0.42,0.32 -0.84,0.64 -1.26,0.95 0.34,0.61 0.54,0.97 0.77,1.37 0.75,-0.7 1.4,-1.32 2.11,-1.99 -0.34,-0.41 -0.59,-0.72 -1,-1.22 -0.21,0.33 -0.34,0.54 -0.62,0.89 z m 0.16,-1.69 c -0.18,-0.26 -0.36,-0.53 -0.57,-0.83 -0.59,0.57 -1.11,1.06 -1.67,1.6 0.24,0.41 0.45,0.75 0.75,1.25 0.57,-0.69 1.03,-1.24 1.49,-2.02 z m -3,-0.92 c 0.14,0.23 0.28,0.47 0.48,0.81 0.52,-0.57 0.97,-1.05 1.46,-1.59 -0.35,-0.45 -0.63,-0.8 -1.02,-1.3 -0.3,0.8 -1.4,0.89 -0.92,2.08 z m 11.57,42.11 c -0.47,0.47 -0.95,0.94 -0.39,1.88 0.63,-1.03 1.18,-1.94 1.73,-2.85 -0.09,-0.07 -0.19,-0.15 -0.28,-0.22 -0.31,0.35 -0.62,0.7 -1.06,1.19 z m -11.74,-44.02 c 0.71,-0.92 0.71,-0.92 -0.13,-1.66 -0.14,0.18 -0.29,0.37 -0.44,0.56 -0.06,0.07 -0.14,0.14 -0.18,0.22 -0.21,0.46 -0.04,0.73 0.75,0.88 z m -1.65,-2.25 c 0.12,0.19 0.24,0.39 0.36,0.59 0.84,-0.77 0.84,-0.77 0.12,-1.57 -0.18,0.27 -0.36,0.53 -0.48,0.98 z m -0.86,-1.68 c 0.13,0.29 0.31,0.58 0.61,0.26 0.12,-0.12 0.1,-0.56 -0.02,-0.7 -0.29,-0.32 -0.49,-0.08 -0.59,0.44 z"
   id="path1" />
		<path
   d="m 266.43,264.81 c -0.21,0.5 -0.51,0.71 -0.88,0.33 -0.11,-0.11 -0.11,-0.5 0,-0.62 0.34,-0.37 0.67,-0.25 0.88,0.29 z"
   id="path2" />
		<path
   d="m 265.16,256.44 c -0.14,0.53 -0.44,0.68 -0.75,0.37 -0.13,-0.13 -0.12,-0.6 0.01,-0.74 0.32,-0.35 0.59,-0.12 0.74,0.37 z"
   id="path3" />
		<path
   d="m 275.66,253.72 c -0.16,0.46 -0.42,0.7 -0.74,0.37 -0.13,-0.13 -0.13,-0.59 0,-0.73 0.32,-0.34 0.57,-0.09 0.74,0.36 z"
   id="path4" />
		<path
   d="m 257.8,253.89 c 0.46,-0.26 0.74,-0.14 0.78,0.29 0.01,0.12 -0.2,0.38 -0.34,0.39 -0.41,0.05 -0.63,-0.15 -0.44,-0.68 z"
   id="path5" />
		<path
   d="m 269.29,338.4 c -0.46,-0.45 -0.51,-0.85 0.05,-1.06 0.15,-0.05 0.54,0.22 0.63,0.43 0.21,0.49 -0.1,0.69 -0.68,0.63 z"
   id="path6" />
		<path
   d="m 262.39,332.39 c 0.53,-0.23 0.88,-0.15 0.87,0.39 0,0.16 -0.3,0.44 -0.47,0.44 -0.54,0.03 -0.66,-0.3 -0.4,-0.83 z"
   id="path7" />
		<path
   d="m 275.09,336.91 c 0.13,-0.52 0.46,-0.69 0.76,-0.41 0.15,0.14 0.15,0.72 0,0.85 -0.32,0.28 -0.63,0.07 -0.76,-0.44 z"
   id="path8" />
		<path
   d="m 284.71,337.24 c 0.58,0.2 0.7,0.52 0.3,0.87 -0.13,0.11 -0.51,0.13 -0.63,0.02 -0.39,-0.38 -0.2,-0.68 0.33,-0.89 z"
   id="path9" />
		<path
   d="m 277.91,340.14 c -0.26,-0.46 -0.15,-0.74 0.29,-0.79 0.13,-0.01 0.38,0.2 0.4,0.34 0.04,0.42 -0.15,0.65 -0.69,0.45 z"
   id="path10" />
		<path
   d="m 269.51,333.11 c -0.08,0.5 -0.29,0.69 -0.66,0.43 -0.11,-0.08 -0.19,-0.36 -0.13,-0.48 0.19,-0.39 0.48,-0.34 0.79,0.05 z"
   id="path11" />
		<path
   d="m 289.99,339.71 c 0.46,-0.26 0.74,-0.14 0.79,0.29 0.02,0.12 -0.21,0.38 -0.34,0.39 -0.42,0.06 -0.64,-0.14 -0.45,-0.68 z"
   id="path12" />
		<path
   d="m 251.21,327.86 c 0.31,-0.43 0.61,-0.46 0.84,-0.07 0.07,0.11 -0.01,0.42 -0.12,0.5 -0.38,0.25 -0.62,0.07 -0.72,-0.43 z"
   id="path13" />
		<path
   d="m 365.78,322.94 c 0.35,-0.4 0.65,-0.39 0.82,0.01 0.06,0.13 -0.09,0.49 -0.23,0.55 -0.41,0.17 -0.6,-0.08 -0.59,-0.56 z"
   id="path14" />
		<path
   d="m 354.79,324.31 c -0.47,0.24 -0.75,0.1 -0.76,-0.32 0,-0.15 0.28,-0.43 0.43,-0.43 0.42,0.01 0.57,0.28 0.33,0.75 z"
   id="path15" />
		<path
   d="m 349.31,331.37 c 0.19,-0.44 0.44,-0.65 0.77,-0.3 0.1,0.11 0.1,0.48 0,0.6 -0.34,0.37 -0.58,0.12 -0.77,-0.3 z"
   id="path16" />
		<path
   d="m 340.75,332.78 c -0.22,-0.45 -0.12,-0.75 0.32,-0.75 0.15,0 0.43,0.28 0.43,0.43 0.01,0.44 -0.29,0.53 -0.75,0.32 z"
   id="path17" />
		<path
   d="m 333.84,335.81 c 0.61,-0.18 0.84,0.05 0.74,0.55 -0.03,0.14 -0.26,0.35 -0.39,0.34 -0.54,-0.03 -0.59,-0.39 -0.35,-0.89 z"
   id="path18" />
		<path
   d="m 311.13,294.53 c 0.04,0.58 -0.19,0.85 -0.66,0.69 -0.14,-0.05 -0.29,-0.42 -0.24,-0.57 0.14,-0.44 0.45,-0.6 0.9,-0.12 z"
   id="path19" />
		<path
   d="m 302.73,298.97 c 0.38,-0.36 0.69,-0.35 0.81,0.1 0.04,0.14 -0.09,0.44 -0.21,0.48 -0.4,0.16 -0.63,-0.05 -0.6,-0.58 z"
   id="path20" />
		<path
   d="m 319.44,284.66 c 0.21,0.49 0.06,0.73 -0.37,0.69 -0.13,-0.01 -0.33,-0.22 -0.34,-0.34 -0.01,-0.42 0.23,-0.57 0.71,-0.35 z"
   id="path21" />
		<path
   d="m 308.63,300.92 c -0.53,0.18 -0.74,-0.03 -0.68,-0.45 0.02,-0.14 0.27,-0.36 0.39,-0.34 0.44,0.05 0.55,0.33 0.29,0.79 z"
   id="path22" />
		<path
   d="m 285.74,323.29 c 0.02,0.19 0.04,0.34 -0.02,0.37 -0.26,0.14 -0.54,0.25 -0.81,0.37 -0.04,-0.25 -0.2,-0.56 -0.11,-0.75 0.21,-0.4 0.56,-0.51 0.94,0.01 z"
   id="path23" />
		<path
   d="m 285.98,316.45 c -0.48,0.27 -0.73,0.08 -0.75,-0.32 -0.01,-0.15 0.28,-0.44 0.43,-0.43 0.4,0.01 0.59,0.27 0.32,0.75 z"
   id="path24" />
		<path
   d="m 298.67,317.27 c -0.52,0.17 -0.75,-0.02 -0.69,-0.45 0.02,-0.13 0.27,-0.34 0.4,-0.33 0.45,0.04 0.54,0.33 0.29,0.78 z"
   id="path25" />
		<path
   d="m 249.18,282.3 c -0.01,-0.54 0.21,-0.84 0.67,-0.67 0.15,0.06 0.32,0.49 0.24,0.66 -0.18,0.42 -0.52,0.49 -0.91,0.01 z"
   id="path26" />
		<path
   d="m 264.81,280.32 c -0.5,-0.2 -0.73,-0.5 -0.37,-0.87 0.11,-0.12 0.56,-0.1 0.7,0.02 0.37,0.34 0.22,0.65 -0.33,0.85 z"
   id="path27" />
		<path
   d="m 249.65,289.17 c -0.18,0.52 -0.47,0.59 -0.77,0.26 -0.09,-0.1 -0.09,-0.42 0,-0.52 0.3,-0.33 0.59,-0.26 0.77,0.26 z"
   id="path28" />
		<path
   d="m 248.43,299.07 c -0.49,-0.08 -0.69,-0.3 -0.43,-0.67 0.07,-0.11 0.36,-0.18 0.48,-0.13 0.4,0.2 0.32,0.49 -0.05,0.8 z"
   id="path29" />
		<path
   d="m 255,288.47 c 0.5,-0.15 0.75,0.02 0.69,0.46 -0.02,0.13 -0.27,0.35 -0.4,0.33 -0.44,-0.03 -0.55,-0.32 -0.29,-0.79 z"
   id="path30" />
		<path
   d="m 288.12,277.5 c -0.4,-0.3 -0.48,-0.64 -0.11,-0.84 0.16,-0.09 0.62,0.03 0.7,0.19 0.25,0.46 -0.02,0.68 -0.59,0.65 z"
   id="path31" />
		<path
   d="m 295.66,288.76 c -0.03,-0.51 0.15,-0.76 0.58,-0.58 0.12,0.05 0.26,0.34 0.22,0.47 -0.12,0.43 -0.41,0.49 -0.8,0.11 z"
   id="path32" />
		<path
   d="m 273.46,272.43 c 0.26,0.46 0.15,0.74 -0.29,0.79 -0.12,0.01 -0.38,-0.21 -0.39,-0.34 -0.05,-0.41 0.14,-0.65 0.68,-0.45 z"
   id="path33" />
		<path
   d="m 309.16,232.79 c 0.53,0.22 0.69,0.54 0.31,0.9 -0.11,0.11 -0.51,0.09 -0.63,-0.03 -0.36,-0.34 -0.25,-0.67 0.32,-0.87 z"
   id="path34" />
		<path
   d="m 289.36,238.17 c -0.19,0.43 -0.44,0.65 -0.77,0.3 -0.1,-0.11 -0.1,-0.48 0,-0.6 0.33,-0.37 0.58,-0.12 0.77,0.3 z"
   id="path35" />
		<path
   d="m 296.51,226.88 c 0.54,0.2 0.69,0.51 0.29,0.87 -0.12,0.11 -0.5,0.12 -0.62,0.02 -0.41,-0.39 -0.14,-0.67 0.33,-0.89 z"
   id="path36" />
		<path
   d="m 315.19,242.88 c 0.41,0.31 0.42,0.6 0.04,0.79 -0.11,0.06 -0.4,-0.02 -0.47,-0.13 -0.24,-0.36 -0.08,-0.59 0.43,-0.66 z"
   id="path37" />
		<path
   d="m 289.91,333.19 c -0.23,-0.53 -0.07,-0.84 0.41,-0.85 0.15,0 0.43,0.29 0.43,0.44 -0.01,0.47 -0.3,0.67 -0.84,0.41 z"
   id="path38" />
		<path
   d="m 301.83,336.2 c -0.41,0.5 -0.77,0.41 -0.9,-0.05 -0.06,-0.22 0.19,-0.73 0.36,-0.77 0.5,-0.09 0.66,0.27 0.54,0.82 z"
   id="path39" />
		<path
   d="m 314.79,339.02 c -0.58,0.29 -0.83,0.03 -0.83,-0.44 0,-0.16 0.29,-0.45 0.44,-0.45 0.54,0.01 0.61,0.37 0.39,0.89 z"
   id="path40" />
		<path
   d="m 316.81,331.64 c -0.1,0.49 -0.34,0.7 -0.72,0.41 -0.11,-0.09 -0.19,-0.4 -0.13,-0.5 0.24,-0.36 0.54,-0.36 0.85,0.09 z"
   id="path41" />
		<path
   d="m 344.97,261.21 c -0.42,-0.39 -0.44,-0.75 0,-0.95 0.15,-0.07 0.57,0.12 0.64,0.28 0.17,0.44 -0.05,0.72 -0.64,0.67 z"
   id="path42" />
		<path
   d="m 339.87,250.23 c 0.58,-0.01 0.83,0.24 0.63,0.71 -0.06,0.14 -0.43,0.3 -0.57,0.24 -0.43,-0.2 -0.51,-0.54 -0.06,-0.95 z"
   id="path43" />
		<path
   d="m 359.16,273.36 c -0.61,-0.19 -0.67,-0.52 -0.29,-0.86 0.13,-0.11 0.52,-0.12 0.64,-0.01 0.39,0.38 0.19,0.67 -0.35,0.87 z"
   id="path44" />
		<path
   d="m 352.28,268.19 c -0.35,0.37 -0.66,0.38 -0.83,-0.02 -0.06,-0.13 0.1,-0.49 0.24,-0.55 0.41,-0.17 0.61,0.08 0.59,0.57 z"
   id="path45" />
		<path
   d="m 362.09,278.64 c 0.49,0.08 0.71,0.29 0.44,0.66 -0.08,0.11 -0.36,0.19 -0.48,0.13 -0.4,-0.19 -0.34,-0.48 0.04,-0.79 z"
   id="path46" />
		<path
   d="m 373.81,298.87 c 0.22,-0.54 0.54,-0.7 0.9,-0.31 0.11,0.11 0.1,0.5 0,0.61 -0.36,0.36 -0.7,0.27 -0.9,-0.3 z"
   id="path47" />
		<path
   d="m 356.29,311.15 c -0.44,-0.44 -0.33,-0.76 0.11,-0.92 0.15,-0.05 0.52,0.1 0.57,0.24 0.16,0.48 -0.13,0.7 -0.68,0.68 z"
   id="path48" />
		<path
   d="m 363.92,309.72 c -0.54,0.2 -0.73,-0.03 -0.68,-0.45 0.02,-0.13 0.27,-0.35 0.39,-0.33 0.42,0.05 0.59,0.3 0.29,0.78 z"
   id="path49" />
		<path
   d="m 371.73,307.48 c -0.39,0.39 -0.68,0.33 -0.8,-0.1 -0.04,-0.13 0.09,-0.43 0.21,-0.48 0.43,-0.18 0.62,0.06 0.59,0.58 z"
   id="path50" />
		<path
   d="m 368.27,312.37 c 0.35,0.31 0.47,0.61 0.04,0.8 -0.12,0.06 -0.41,-0.02 -0.48,-0.13 -0.25,-0.37 -0.04,-0.58 0.44,-0.67 z"
   id="path51" />
		<path
   d="m 268.9,318.45 c 0.25,0.55 0.06,0.84 -0.43,0.83 -0.15,0 -0.43,-0.29 -0.42,-0.43 0.02,-0.49 0.32,-0.66 0.85,-0.4 z"
   id="path52" />
		<path
   d="m 257.83,314.44 c -0.43,-0.41 -0.4,-0.75 0.07,-0.93 0.15,-0.06 0.53,0.08 0.58,0.22 0.2,0.49 -0.11,0.7 -0.65,0.71 z"
   id="path53" />
		<path
   d="m 318.58,300.57 c 0.23,-0.51 0.54,-0.71 0.92,-0.32 0.11,0.11 0.1,0.51 -0.01,0.63 -0.37,0.4 -0.69,0.22 -0.91,-0.31 z"
   id="path54" />
		<path
   d="m 337.96,301.73 c -0.45,-0.42 -0.37,-0.73 0.1,-0.87 0.16,-0.05 0.52,0.1 0.57,0.23 0.16,0.47 -0.08,0.7 -0.67,0.64 z"
   id="path55" />
		<path
   d="m 332.65,295.2 c -0.5,0.01 -0.75,-0.18 -0.57,-0.6 0.06,-0.14 0.42,-0.29 0.56,-0.23 0.42,0.18 0.37,0.49 0.01,0.83 z"
   id="path56" />
		<path
   d="m 332.42,300.48 c -0.45,0.16 -0.76,0.09 -0.71,-0.36 0.01,-0.13 0.22,-0.33 0.35,-0.35 0.47,-0.05 0.52,0.26 0.36,0.71 z"
   id="path57" />
		<path
   d="m 351.64,298.17 c -0.03,-0.15 -0.04,-0.2 -0.02,-0.24 0.14,-0.42 0.42,-0.66 0.85,-0.45 0.14,0.07 0.28,0.44 0.21,0.58 -0.21,0.46 -0.57,0.61 -1.04,0.11 z"
   id="path58" />
		<path
   d="m 357.34,296.63 c -0.02,-0.57 0.23,-0.79 0.68,-0.59 0.14,0.06 0.29,0.42 0.23,0.56 -0.19,0.47 -0.53,0.44 -0.91,0.03 z"
   id="path59" />
		<path
   d="m 349.47,305.3 c 0.18,-0.52 0.47,-0.59 0.78,-0.26 0.09,0.1 0.09,0.42 0,0.52 -0.31,0.34 -0.6,0.25 -0.78,-0.26 z"
   id="path60" />
		<path
   d="m 331.78,258.97 c -0.1,0.49 -0.33,0.7 -0.72,0.42 -0.11,-0.08 -0.19,-0.39 -0.13,-0.5 0.24,-0.37 0.55,-0.35 0.85,0.08 z"
   id="path61" />
		<path
   d="m 329.1,266.39 c 0.15,0.5 -0.02,0.75 -0.46,0.7 -0.13,-0.02 -0.35,-0.28 -0.33,-0.41 0.04,-0.44 0.31,-0.56 0.79,-0.29 z"
   id="path62" />
		<path
   d="m 270.78,217.79 c -0.18,-0.48 -0.1,-0.76 0.36,-0.7 0.13,0.02 0.35,0.22 0.35,0.34 0.02,0.44 -0.26,0.54 -0.71,0.36 z"
   id="path63" />
		<path
   d="m 277.94,205.5 c 0.48,-0.19 0.75,-0.08 0.71,0.36 -0.01,0.13 -0.22,0.33 -0.35,0.34 -0.42,0.03 -0.56,-0.22 -0.36,-0.7 z"
   id="path64" />
		<path
   d="m 258.66,226.55 c 0.44,0.18 0.65,0.44 0.3,0.76 -0.11,0.1 -0.49,0.1 -0.6,0 -0.37,-0.33 -0.12,-0.58 0.3,-0.76 z"
   id="path65" />
		<path
   d="m 256.94,237.51 c -0.41,-0.3 -0.46,-0.61 -0.07,-0.83 0.12,-0.07 0.43,0.01 0.51,0.12 0.24,0.37 0.08,0.63 -0.44,0.71 z"
   id="path66" />
		<path
   d="m 262.71,229.47 c 0.38,0.31 0.48,0.6 0.04,0.78 -0.13,0.05 -0.41,-0.01 -0.48,-0.12 -0.21,-0.34 -0.08,-0.6 0.44,-0.66 z"
   id="path67" />
		<path
   d="m 364.23,258.89 c 0.19,-0.57 0.52,-0.67 0.86,-0.3 0.11,0.12 0.12,0.51 0.02,0.62 -0.36,0.39 -0.67,0.21 -0.88,-0.32 z"
   id="path68" />
		<path
   d="m 360.51,253.1 c 0.18,-0.42 0.43,-0.67 0.76,-0.3 0.1,0.12 0.11,0.48 0,0.59 -0.32,0.36 -0.57,0.15 -0.76,-0.29 z"
   id="path69" />
		<path
   d="m 362.97,247.84 c -0.5,-0.07 -0.69,-0.3 -0.43,-0.66 0.08,-0.11 0.36,-0.19 0.47,-0.13 0.39,0.19 0.36,0.48 -0.04,0.79 z"
   id="path70" />
		<path
   d="m 352.43,232.21 c -0.07,-0.6 0.19,-0.81 0.64,-0.64 0.15,0.05 0.31,0.41 0.27,0.55 -0.15,0.45 -0.48,0.52 -0.91,0.09 z"
   id="path71" />
		<path
   d="m 349.45,235.26 c 0.58,0.2 0.67,0.52 0.29,0.87 -0.12,0.11 -0.51,0.13 -0.62,0.02 -0.37,-0.36 -0.21,-0.68 0.33,-0.89 z"
   id="path72" />
		<path
   d="m 354.88,243.98 c 0.08,-0.53 0.35,-0.66 0.72,-0.43 0.11,0.07 0.17,0.38 0.11,0.5 -0.23,0.4 -0.53,0.36 -0.83,-0.07 z"
   id="path73" />
		<path
   d="m 343.8,216.32 c -0.48,0.01 -0.75,-0.17 -0.57,-0.59 0.06,-0.14 0.42,-0.29 0.56,-0.24 0.39,0.17 0.41,0.48 0.01,0.83 z"
   id="path74" />
		<path
   d="m 343.89,226.52 c -0.3,-0.48 -0.13,-0.73 0.29,-0.78 0.12,-0.02 0.38,0.2 0.39,0.33 0.06,0.41 -0.14,0.65 -0.68,0.45 z"
   id="path75" />
		<path
   d="m 339.64,221.6 c -0.03,-0.54 0.2,-0.73 0.61,-0.58 0.12,0.04 0.25,0.34 0.21,0.48 -0.13,0.46 -0.45,0.43 -0.82,0.1 z"
   id="path76" />
		<path
   d="m 241.01,244.15 c 0.16,0.45 0.1,0.75 -0.36,0.71 -0.13,-0.01 -0.33,-0.22 -0.35,-0.35 -0.05,-0.47 0.26,-0.52 0.71,-0.36 z"
   id="path77" />
		<path
   d="m 240.11,287.82 c -0.48,0.01 -0.75,-0.17 -0.56,-0.59 0.06,-0.14 0.42,-0.29 0.55,-0.23 0.4,0.17 0.41,0.48 0.01,0.82 z"
   id="path78" />
		<path
   d="m 240.72,295.72 c 0.16,0.46 0.1,0.76 -0.36,0.71 -0.13,-0.01 -0.34,-0.22 -0.35,-0.35 -0.05,-0.46 0.26,-0.52 0.71,-0.36 z"
   id="path79" />
		<path
   d="m 324.78,208 c 0.03,-0.54 0.24,-0.85 0.72,-0.63 0.14,0.06 0.28,0.43 0.22,0.58 -0.19,0.46 -0.54,0.48 -0.94,0.05 z"
   id="path80" />
		<path
   d="m 331.24,215.35 c -0.31,0.41 -0.62,0.45 -0.85,0.06 -0.07,-0.11 0.01,-0.43 0.13,-0.5 0.38,-0.26 0.63,-0.07 0.72,0.44 z"
   id="path81" />
		<path
   d="m 262.59,216.02 c -0.02,-0.5 0.18,-0.74 0.59,-0.57 0.14,0.06 0.28,0.42 0.23,0.56 -0.16,0.43 -0.48,0.35 -0.82,0.01 z"
   id="path82" />
	</g>
</g>
</svg>
