<?xml version="1.0" encoding="UTF-8" standalone="no"?>
<!-- Generator: Adobe Adobe Illustrator 24.2.0, SVG Export Plug-In . SVG Version: 6.00 Build 0)  -->

<svg
   version="1.1"
   id="Layer_1"
   x="0px"
   y="0px"
   width="212.99124"
   height="251.46527"
   viewBox="0 0 212.99124 251.46527"
   xml:space="preserve"
   sodipodi:docname="apio.svg"
   inkscape:version="1.4 (e7c3feb1, 2024-10-09)"
   xmlns:inkscape="http://www.inkscape.org/namespaces/inkscape"
   xmlns:sodipodi="http://sodipodi.sourceforge.net/DTD/sodipodi-0.dtd"
   xmlns="http://www.w3.org/2000/svg"
   xmlns:svg="http://www.w3.org/2000/svg"><defs
   id="defs2" /><sodipodi:namedview
   id="namedview2"
   pagecolor="#ffffff"
   bordercolor="#000000"
   borderopacity="0.25"
   inkscape:showpageshadow="2"
   inkscape:pageopacity="0.0"
   inkscape:pagecheckerboard="0"
   inkscape:deskcolor="#d1d1d1"
   inkscape:zoom="1.6816667"
   inkscape:cx="26.164519"
   inkscape:cy="130.52527"
   inkscape:window-width="1200"
   inkscape:window-height="1186"
   inkscape:window-x="0"
   inkscape:window-y="0"
   inkscape:window-maximized="0"
   inkscape:current-layer="Layer_1" />
<g
   id="g2"
   transform="translate(-178.39505,-169.25692)">
	<g
   id="g1">
		<path
   d="m 359.14,245.22 c -0.19,0.47 -0.4,0.85 -0.56,1.12 0.57,1.15 1.12,2.26 1.65,3.38 0.21,0.45 0.17,0.85 -0.34,1.11 -0.16,0.08 -0.42,0.22 -0.42,0.33 0.03,1.32 -0.88,1.16 -1.72,1.15 -0.14,0 -0.29,0.03 -0.57,0.06 0.27,0.69 0.58,1.32 0.75,1.98 0.19,0.7 0.24,1.44 0.36,2.16 0.05,0.29 0.18,0.57 0.19,0.86 0.03,0.79 -0.52,1.19 -1.25,0.86 -0.53,-0.23 -1,-0.59 -1.61,-0.96 -0.39,0.64 -0.92,0.95 -1.62,0.35 -0.1,-0.09 -0.32,-0.2 -0.39,-0.15 -1.19,0.78 -1.85,-0.29 -2.62,-0.8 -0.14,0.08 -0.23,0.11 -0.29,0.17 -0.32,0.4 -0.55,1.02 -0.95,1.16 -0.61,0.21 -0.86,-0.49 -1.13,-0.94 -0.4,-0.66 -0.93,-0.97 -1.7,-1.21 -0.75,-0.24 -1.33,-1 -2.15,-1.67 0.1,-0.05 -0.05,0.04 -0.21,0.11 -1.1,0.47 -1.76,0.21 -2.15,-0.92 -0.26,-0.75 -0.46,-1.41 -1.37,-1.72 -0.79,-0.27 -0.92,-0.99 -0.42,-1.83 0.55,-0.92 1.25,-1.74 1.84,-2.64 0.48,-0.73 1.02,-1.46 1.3,-2.27 0.46,-1.3 0.43,-2.6 -0.91,-3.61 -0.32,0.19 -0.68,0.33 -0.96,0.58 -2.94,2.64 -5.91,5.25 -8.78,7.96 -0.84,0.79 -1.47,1.82 -2.09,2.8 -3.95,6.34 -7.46,12.93 -11.01,19.5 -5.77,10.69 -11.81,21.24 -17.61,31.92 -7.31,13.46 -14.84,26.81 -21.72,40.51 -5.09,10.13 -11.15,19.7 -17.23,29.26 -2.33,3.67 -4.76,7.27 -7.09,10.94 -4.31,6.8 -9.57,12.81 -15.2,18.54 -3.89,3.96 -8.16,7.42 -12.87,10.33 -2.78,1.72 -5.62,3.36 -8.93,3.9 -0.75,0.12 -1.53,0.14 -2.35,0.21 0.04,0.26 0.07,0.49 0.12,0.72 0.28,1.49 -0.28,2.3 -1.81,2.25 -1.1,-0.03 -2.27,-0.18 -3.29,-0.57 -2.64,-1.01 -5.28,-2.05 -7.79,-3.33 -7.36,-3.78 -14.25,-8.31 -20.47,-13.79 -1.42,-1.25 -2.71,-2.67 -3.98,-4.09 -0.51,-0.57 -0.9,-1.29 -1.19,-2 -0.53,-1.32 -0.02,-2.15 1.39,-2.44 0.32,-0.07 0.65,-0.11 0.96,-0.16 0.02,-0.16 0.07,-0.28 0.03,-0.34 -1.76,-3.09 -2.11,-6.46 -1.97,-9.92 0.17,-4.35 0.56,-8.67 2.03,-12.82 0.54,-1.52 1.09,-3.03 1.75,-4.5 8.43,-18.56 18.02,-36.5 29.47,-53.39 10.61,-15.65 21.99,-30.72 34.08,-45.26 9.12,-10.96 17.91,-22.19 27.02,-33.15 8.02,-9.65 16.04,-19.29 24.46,-28.61 6.64,-7.36 12.94,-15.02 19.56,-22.39 4.11,-4.57 8.54,-8.86 12.81,-13.28 1.09,-1.13 2.3,-1.65 3.93,-1.33 4.72,0.93 8.97,2.72 12.14,6.49 0.68,0.81 1.21,1.76 1.72,2.7 0.79,1.48 0.58,2.85 -0.46,4.21 -2.32,3.03 -4.8,5.91 -7.52,8.58 -1.04,1.03 -2.1,2.04 -3.16,3.05 -6.38,6.06 -12.45,12.41 -18.32,18.95 -6.65,7.41 -13.55,14.61 -19.97,22.22 -13.59,16.08 -26.35,32.8 -37.93,50.41 -5.26,7.99 -10.58,15.95 -15.18,24.35 -0.35,0.64 -0.7,1.28 -0.92,2.06 0.25,-0.23 0.52,-0.44 0.74,-0.7 9.15,-10.81 18.13,-21.75 26.33,-33.31 1.58,-2.23 3.29,-4.37 4.91,-6.57 4.77,-6.49 9.57,-12.96 14.29,-19.48 6.41,-8.86 13.01,-17.59 19.99,-26.01 5.92,-7.14 12.03,-14.13 18.31,-20.95 4.89,-5.32 10.15,-10.29 15.26,-15.39 0.65,-0.65 1.38,-1.25 2.14,-1.77 1.15,-0.79 2.08,-0.73 2.99,0.32 1.76,2.02 3.46,4.1 5.11,6.21 0.96,1.23 0.7,2.6 0.01,3.86 -0.39,0.72 -1,1.32 -1.5,1.97 -0.28,0.37 -0.56,0.74 -0.83,1.1 2.41,1.87 4.67,3.64 6.93,5.39 0.18,0.14 0.41,0.22 0.75,0.41 0.02,-0.47 0.03,-0.78 0.06,-1.1 0.12,-1.08 0.37,-1.26 1.41,-1 0.32,0.08 0.65,0.17 1.08,0.28 0.26,-0.79 0.49,-1.52 0.74,-2.25 0.14,-0.41 0.28,-0.84 0.48,-1.22 0.47,-0.87 1.09,-1.04 1.74,-0.34 0.67,0.73 1.15,1.64 1.8,2.6 -0.03,0.01 0.15,-0.03 0.32,-0.07 1.14,-0.3 1.54,-0.07 1.65,1.11 0.08,0.86 0.02,1.74 0.02,2.73 0.33,0 0.65,-0.01 0.97,0 0.91,0.04 1.23,0.39 1.11,1.29 -0.1,0.77 -0.31,1.52 -0.5,2.4 0.25,0 0.41,0 0.58,0 1.13,-0.01 1.42,0.35 1.07,1.41 -0.18,0.55 -0.43,1.09 -0.72,1.6 -1.7,3.02 -3.43,6.02 -5.14,9.03 -0.26,0.45 -0.5,0.91 -0.6,1.49 0.24,-0.2 0.51,-0.37 0.73,-0.59 2.97,-2.9 5.36,-6.2 6.85,-10.1 0.39,-1.04 0.55,-2.17 0.8,-3.26 0.07,-0.33 0.04,-0.69 0.12,-1.02 0.22,-0.99 0.58,-1.16 1.44,-0.66 0.46,0.27 0.88,0.59 1.39,0.94 0.26,-0.56 0.5,-1.05 0.75,-1.59 1.48,0.33 1.79,1.65 2.53,2.56 0.46,-0.06 0.98,-0.29 1.36,-0.14 0.4,0.16 0.67,0.66 0.97,1.03 0.15,0.19 0.29,0.4 0.38,0.62 0.33,0.78 0.85,1.13 1.72,0.94 0.4,-0.09 0.84,-0.01 1.47,-0.01 -0.23,0.66 -0.4,1.13 -0.62,1.76 0.71,0 1.38,0.02 2.03,0 1.32,-0.05 1.32,-0.05 1.41,1.37 0.57,0.29 1.63,-0.59 1.78,0.56 0.08,0.6 -0.34,1.26 -0.54,1.91 1.05,0.64 1.07,0.92 0.01,1.6 -0.45,0.29 -0.92,0.54 -1.6,0.93 0.69,0.26 1.19,0.41 1.65,0.65 0.27,0.14 0.47,0.41 0.7,0.63 -0.24,0.2 -0.46,0.53 -0.72,0.57 -0.81,0.14 -1.64,0.19 -2.47,0.25 -0.34,0.03 -0.68,0 -1.05,0.18 0.82,0.28 1.64,0.55 2.58,0.87 -0.51,0.82 -0.92,1.41 -0.79,2.27 0.06,0.38 -0.53,0.86 -0.87,1.35 0.33,0.4 0.63,0.76 0.99,1.19 -0.82,0.83 -1.9,0.37 -2.85,0.72 0.17,0.38 0.35,0.76 0.5,1.09 -0.3,0.62 -0.74,0.46 -1.18,0.37 -2.24,-0.47 -4.5,-0.87 -6.73,-1.41 -3.15,-0.77 -6.31,-1.27 -9.56,-0.76 -1.65,0.26 -3.3,0.11 -4.95,-0.15 -0.57,-0.09 -1.19,0.11 -1.98,0.2 0.53,0.71 1.07,0.53 1.5,0.53 4.66,0.02 9.09,1.1 13.35,2.91 0.27,0.11 0.55,0.21 0.81,0.34 1.33,0.63 1.41,0.89 0.7,2.17 1.49,2.15 1.49,2.15 -0.43,3.42 0.28,0.43 0.59,0.85 0.85,1.3 0.51,0.87 0.45,1.23 -0.34,1.88 -0.63,0.52 -1.29,1.01 -1.97,1.54 0.3,0.76 0.56,1.42 0.84,2.15 -0.28,0.13 -0.49,0.28 -0.7,0.3 -1.05,0.13 -1.37,0.78 -1.65,1.73 -0.4,1.33 -1.03,2.62 -1.7,3.85 -0.39,0.72 -0.9,0.64 -1.32,-0.05 -0.38,-0.62 -0.71,-1.27 -1.05,-1.9 -0.52,0.18 -1,0.54 -1.36,0.44 -0.47,-0.13 -0.85,-0.6 -1.24,-0.96 -0.35,-0.33 -0.65,-0.72 -0.97,-1.08 -0.95,0.93 -1.1,0.93 -1.97,0.03 -0.3,-0.32 -0.58,-0.66 -0.87,-0.99 -0.25,-0.29 -0.5,-0.59 -0.85,-1 -0.19,0.36 -0.32,0.64 -0.49,0.89 -0.16,0.23 -0.38,0.42 -0.54,0.59 -0.84,-0.13 -1.13,-0.77 -1.29,-1.34 -0.36,-1.26 -0.57,-2.55 -0.83,-3.84 -0.1,-0.5 -0.02,-1 -0.61,-1.38 -0.28,-0.18 -0.35,-0.88 -0.32,-1.32 0.21,-3.16 0.71,-6.28 1.53,-9.36 -0.52,-0.35 -0.94,0.03 -1.35,0.23 -2.88,1.44 -5.78,2.84 -8.6,4.38 -2.06,1.12 -4.02,2.41 -6.01,3.64 -0.57,0.35 -1.11,0.76 -1.69,1.17 0.45,0.67 1.02,0.48 1.52,0.47 3.22,-0.07 6.44,-0.17 9.66,-0.2 0.9,-0.01 1.81,0.16 2.67,0.24 0.29,1.2 -0.86,1.37 -1.06,2.03 0.9,0.71 1.77,1.37 2.65,2.13 z M 349,200.24 c 0.41,0.23 0.81,0.47 1.23,0.7 0.11,0.06 0.25,0.07 0.41,0.11 -0.16,-0.42 -0.3,-0.78 -0.53,-1.38 0.62,0.23 0.97,0.36 1.36,0.51 -0.12,-0.57 -0.88,-0.79 -0.52,-1.57 0.5,0.3 0.93,0.56 1.37,0.81 0.05,-0.07 0.11,-0.14 0.16,-0.21 -0.45,-0.56 -0.9,-1.11 -1.37,-1.7 -0.82,0.97 -1.57,1.85 -2.36,2.93 -0.32,0.43 -0.63,0.87 -0.95,1.3 0.08,0.06 0.16,0.12 0.24,0.18 0.18,-0.2 0.36,-0.4 0.58,-0.64 0.34,0.16 0.69,0.33 1.11,0.53 -0.38,-0.62 -0.67,-1.11 -0.73,-1.57 z m -4.1,4.59 c -4.02,4.57 -7.9,9.25 -11.74,13.96 1.44,1.29 2.87,1.96 3.67,1.72 -0.38,-0.85 -1.72,-0.69 -1.97,-1.92 0.44,0.11 0.76,0.15 1.04,0.27 0.4,0.17 0.76,0.47 1.17,0.58 0.17,0.05 0.44,-0.21 0.69,-0.35 -0.58,-0.67 -1.52,-0.64 -1.69,-1.77 0.85,0.31 1.53,0.55 2.26,0.82 0.26,-1.14 -1.38,-0.82 -1.15,-1.8 0.71,-0.53 1.31,0.89 2.08,0.17 -0.09,-0.81 -1.32,-0.73 -1.24,-1.63 0.78,-0.48 1.27,0.92 2.05,0.33 -0.26,-0.83 -1.53,-0.81 -1.42,-2.02 0.76,0.36 1.39,0.67 2.09,1 0,-1 -1.26,-0.99 -1.05,-2.14 0.63,0.36 1.17,0.66 1.73,0.98 0.81,-1.07 -1.08,-1.18 -0.57,-2.15 0.49,0.2 0.97,0.4 1.52,0.63 -0.2,-0.69 -1.13,-0.82 -0.88,-1.78 0.56,0.3 1.01,0.55 1.75,0.95 -0.39,-0.69 -0.61,-1.09 -0.95,-1.71 0.71,0.17 1.11,0.26 1.75,0.41 -0.47,-0.55 -0.76,-0.88 -1.01,-1.17 0.54,-0.81 1.22,0.62 1.7,-0.33 -0.26,-0.3 -0.52,-0.61 -0.78,-0.91 0.35,-0.37 0.63,-0.68 0.92,-1 0.33,0.06 0.67,0.13 1.12,0.21 -0.43,-0.61 -0.75,-1.09 -0.83,-1.45 0.47,0.11 0.95,0.23 1.66,0.4 -0.42,-0.51 -0.69,-0.83 -0.95,-1.16 -0.32,0.24 -0.62,0.46 -0.97,0.86 z m -1.44,-27.62 c -1.07,1 -2.14,1.99 -3.21,2.99 -7.54,7.02 -15.18,13.94 -22.24,21.45 -3.88,4.13 -7.87,8.15 -11.73,12.29 -4.65,5.01 -9.24,10.07 -13.8,15.16 -3.39,3.78 -6.76,7.58 -10.01,11.48 -5.62,6.75 -11.17,13.57 -16.7,20.4 -2.79,3.45 -5.61,6.9 -8.18,10.51 -11.43,16.02 -22.29,32.42 -33.18,48.8 -3.73,5.61 -7.03,11.47 -10.11,17.48 -5.85,11.4 -10.63,23.23 -14.59,35.41 -0.05,0.16 -0.21,0.28 -0.39,0.51 -0.67,-0.72 -0.25,-1.37 -0.05,-1.95 1.33,-3.82 2.64,-7.66 4.08,-11.44 5.56,-14.59 12.34,-28.58 21.05,-41.57 8.26,-12.33 16.56,-24.63 24.89,-36.91 5.37,-7.92 10.93,-15.7 17.13,-23.02 4.51,-5.32 8.85,-10.8 13.29,-16.19 2.67,-3.24 5.23,-6.59 8.07,-9.67 8.21,-8.89 16.2,-18 24.66,-26.67 6.31,-6.46 12.46,-13.08 19.12,-19.19 3.82,-3.5 7.58,-7.05 11.36,-10.58 0.37,-0.35 0.72,-0.73 1.17,-1.18 -0.75,-0.58 -1.35,-1.05 -2,-1.56 -5.18,4.35 -10.19,8.71 -14.84,13.45 -8.88,9.07 -17.84,18.07 -26.29,27.55 -5.2,5.83 -10.59,11.49 -15.64,17.45 -4.17,4.91 -7.93,10.16 -11.93,15.2 -7.8,9.83 -15.73,19.55 -23.25,29.59 -9.51,12.7 -18.96,25.44 -27.57,38.78 -6.36,9.85 -12.29,19.94 -17.2,30.6 -3.56,7.72 -6.63,15.62 -8.78,23.86 -0.04,0.14 -0.23,0.23 -0.42,0.42 -0.39,-0.84 -0.15,-1.54 0.04,-2.22 1.6,-5.69 3.57,-11.25 5.85,-16.7 5.22,-12.52 11.96,-24.23 19.27,-35.62 11.48,-17.89 24.32,-34.81 37.31,-51.61 6.27,-8.11 12.71,-16.09 19.1,-24.11 3.31,-4.16 6.5,-8.44 10.05,-12.4 10.61,-11.86 21.36,-23.6 32.52,-34.95 6.61,-6.73 13.28,-13.36 20.58,-19.35 0.11,-0.09 0.16,-0.23 0.35,-0.5 -1,-0.48 -1.97,-0.9 -2.89,-1.4 -0.9,-0.49 -1.58,-0.33 -2.32,0.38 -2.61,2.49 -5.32,4.89 -7.93,7.39 -9.11,8.78 -17.8,17.98 -26.15,27.48 -7.8,8.87 -15.27,18.03 -22.87,27.07 -15.97,18.98 -31.49,38.32 -46.59,58 -13.36,17.41 -25.23,35.7 -34.5,55.63 -2.74,5.88 -5.61,11.7 -7.6,17.9 -0.05,0.17 -0.21,0.31 -0.43,0.6 -0.14,-0.37 -0.33,-0.63 -0.3,-0.85 0.08,-0.48 0.26,-0.94 0.42,-1.4 1.82,-5.27 4.17,-10.3 6.51,-15.35 7.67,-16.58 16.92,-32.23 27.71,-46.96 9.87,-13.47 20.14,-26.64 30.63,-39.63 8.8,-10.9 17.84,-21.61 26.7,-32.46 16.66,-20.41 34.16,-40.04 53.61,-57.86 0.19,-0.18 0.35,-0.41 0.56,-0.66 -0.23,-0.12 -0.35,-0.21 -0.48,-0.24 -2.52,-0.64 -2.69,-0.69 -4.52,1.19 -4.64,4.75 -9.33,9.45 -13.77,14.38 -6.11,6.79 -11.88,13.87 -18.01,20.64 -8.29,9.17 -16.19,18.66 -24.09,28.16 -9.33,11.23 -18.34,22.72 -27.68,33.94 -12.66,15.22 -24.57,31 -35.53,47.47 -10.35,15.55 -19.05,32.03 -26.95,48.95 -2.91,6.22 -4.39,12.69 -4.46,19.53 -0.02,2.43 0.3,4.78 1.49,6.93 0.29,0.52 0.72,0.97 1.08,1.46 -0.02,-1.46 -0.31,-2.79 -0.38,-4.14 -0.07,-1.36 -0.18,-2.77 0.43,-4.1 0.26,0.22 0.45,0.45 0.45,0.69 0.01,0.58 -0.04,1.17 -0.1,1.75 -0.22,2.19 0.28,4.27 1.05,6.29 0.19,0.49 0.45,0.86 1.09,0.58 0,-0.31 -0.01,-0.6 0,-0.89 0.04,-1.41 0.05,-2.83 0.13,-4.24 0.03,-0.46 -0.06,-1.1 0.8,-1.22 0.21,2.4 -0.67,4.79 0.16,7.21 0.79,0.25 1.59,0.49 2.38,0.74 0.25,-2.16 0.48,-4.15 0.71,-6.13 0.05,-0.39 0.13,-0.75 0.81,-0.81 -0.03,2.52 -0.87,4.93 -0.43,7.43 0.54,0.23 1.05,0.44 1.62,0.68 0.57,-1.58 0.35,-3.26 1.44,-4.55 0.24,1.73 -0.6,3.35 -0.49,5.07 0.65,0.36 1.23,0.68 1.86,1.03 0.39,-0.45 0.74,-0.8 1.02,-1.19 1.04,-1.47 2.05,-2.97 3.09,-4.44 0.26,-0.37 0.35,-0.95 0.98,-0.91 0.08,0.11 0.19,0.21 0.17,0.26 -0.93,2.55 -2.87,4.46 -4.46,6.78 0.82,0.37 1.56,0.7 2.3,1.04 0.24,-0.18 0.45,-0.3 0.63,-0.46 3.95,-3.55 7.43,-7.53 10.03,-12.15 2.88,-5.1 5.67,-10.26 8.1,-15.58 3.22,-7.05 6.14,-14.25 9.05,-21.44 5.15,-12.72 10.69,-25.26 17.05,-37.42 5.39,-10.31 11.84,-19.97 18.28,-29.65 12.24,-18.4 25.71,-35.87 40.09,-52.62 5.56,-6.48 11.5,-12.64 17.22,-18.98 5.66,-6.27 11.51,-12.36 17.59,-18.23 3.09,-2.98 6.01,-6.13 9,-9.22 0.45,-0.47 0.88,-0.96 1.01,-1.65 -1.63,1.42 -3.16,2.91 -4.67,4.42 -8.3,8.34 -16.5,16.78 -24.9,25.01 -8.06,7.9 -15.75,16.16 -23.07,24.74 -9.37,11 -18.21,22.44 -26.79,34.07 -8.5,11.52 -16.28,23.52 -23,36.17 -6.73,12.67 -13.29,25.43 -19.2,38.51 -4.92,10.89 -9.85,21.78 -14.78,32.67 -0.26,0.58 -0.51,1.17 -0.83,1.71 -0.14,0.23 -0.46,0.35 -0.88,0.63 0,-0.44 -0.06,-0.64 0.01,-0.79 1.86,-4.24 3.67,-8.51 5.61,-12.72 8.02,-17.42 16,-34.85 24.8,-51.89 8.36,-16.17 17.75,-31.66 28.65,-46.25 13.01,-17.42 26.45,-34.48 41.58,-50.13 3.29,-3.4 6.7,-6.7 10.06,-10.04 9.45,-9.4 18.89,-18.8 28.34,-28.2 0.1,-0.1 0.21,-0.2 0.32,-0.3 0.55,-0.54 0.57,-1.06 -0.07,-1.63 -0.4,0.34 -0.78,0.63 -1.14,0.96 -5.88,5.43 -11.93,10.7 -17.61,16.33 -9.92,9.83 -19.79,19.71 -28.97,30.25 -4.97,5.71 -9.9,11.45 -14.75,17.26 -4.5,5.4 -9,10.81 -13.23,16.42 -9.22,12.25 -17.86,24.92 -26.07,37.87 -4.94,7.79 -9.56,15.78 -14.35,23.66 -3.43,5.63 -6.71,11.34 -9.5,17.32 -1.77,3.8 -3.63,7.57 -5.58,11.28 -4.34,8.25 -8.64,16.51 -12.21,25.14 -0.08,0.19 -0.28,0.32 -0.48,0.52 -0.25,-0.83 -0.28,-0.85 0.1,-1.69 2.21,-4.83 4.34,-9.71 6.69,-14.48 4.18,-8.49 8.48,-16.92 12.76,-25.37 1.08,-2.13 2.18,-4.26 3.4,-6.31 5.68,-9.51 11.27,-19.08 17.15,-28.47 4.77,-7.61 9.86,-15.01 14.88,-22.46 8.6,-12.76 17.85,-25.04 28.01,-36.61 4.54,-5.17 8.83,-10.57 13.45,-15.67 5.6,-6.19 11.43,-12.16 17.17,-18.23 9.16,-9.7 18.79,-18.9 28.86,-27.66 0.39,-0.34 0.75,-0.71 1.23,-1.17 -0.71,-0.64 -1.31,-1.17 -1.92,-1.72 -0.39,0.3 -0.71,0.6 -1.17,1.04 z m -94.15,215.22 c 1.7,-2.32 3.48,-4.59 5.08,-6.98 2.85,-4.26 5.64,-8.56 8.39,-12.89 5.86,-9.23 11.73,-18.47 16.63,-28.26 6.66,-13.32 14,-26.27 21.08,-39.36 6.29,-11.63 12.95,-23.07 19.11,-34.77 6.23,-11.82 13.26,-23.11 21.14,-33.88 1.11,-1.52 1.13,-1.62 0.01,-3.4 -0.36,0.5 -0.72,0.95 -1.04,1.44 -3.18,4.92 -6.54,9.73 -9.49,14.78 -9.09,15.6 -18.1,31.25 -26.99,46.97 -5.05,8.92 -9.84,17.98 -14.69,27 -4,7.44 -8.05,14.84 -12.45,22.05 -6.36,10.41 -12.76,20.8 -19.04,31.26 -5.35,8.91 -11.41,17.26 -18.56,24.81 -0.87,0.92 -1.8,1.78 -2.74,2.63 -0.24,0.22 -0.62,0.29 -0.93,0.43 -0.04,-0.45 0.07,-0.71 0.25,-0.88 0.53,-0.51 1.13,-0.94 1.62,-1.48 4.06,-4.49 8.17,-8.94 11.7,-13.88 3.97,-5.57 7.5,-11.42 11.02,-17.28 5.14,-8.53 10.36,-17.01 15.6,-25.47 5.81,-9.39 10.95,-19.15 16.21,-28.84 7.64,-14.07 15.23,-28.16 23.28,-42 8.32,-14.3 16.16,-28.88 25.77,-42.4 0.85,-1.19 0.63,-2.23 -0.26,-3.37 -0.79,1.15 -1.54,2.22 -2.28,3.31 -3.6,5.28 -7.36,10.47 -10.76,15.88 -9.13,14.5 -18.15,29.06 -26.7,43.91 -4.29,7.44 -8.82,14.76 -12.8,22.36 -5.08,9.7 -10.69,19.07 -16.26,28.47 -2.56,4.32 -5.53,8.41 -8.03,12.76 -5.08,8.86 -10.61,17.42 -16.33,25.87 -4.47,6.62 -9.43,12.82 -15.48,18.09 -0.24,0.21 -0.47,0.42 -0.75,0.68 -0.19,-0.86 -0.2,-0.88 0.37,-1.39 4.86,-4.36 9.15,-9.24 12.82,-14.61 4.68,-6.85 9.22,-13.8 13.68,-20.79 3.26,-5.1 6.19,-10.4 9.45,-15.5 5.86,-9.18 11.29,-18.61 16.62,-28.1 2.53,-4.51 4.74,-9.2 7.35,-13.67 9.84,-16.86 19.79,-33.65 30.08,-50.25 5.79,-9.34 11.95,-18.43 18.23,-27.43 0.44,-0.63 0.96,-1.22 1.51,-1.76 0.29,-0.28 0.91,-0.35 1.03,-0.65 0.17,-0.4 0.01,-0.95 -0.02,-1.43 -0.05,-0.85 -0.1,-1.71 -0.15,-2.51 0.61,-0.2 1,-0.32 1.35,-0.44 0.46,-2.17 0.46,-2.17 1.52,-2.81 0.33,-1.97 0.38,-2.05 1.75,-2.41 0.09,-0.22 0.17,-0.45 0.26,-0.68 0.11,-0.27 0.22,-0.54 0.37,-0.8 0.57,-1 0.74,-1.04 1.74,-0.52 2.55,-2.61 4.79,-5.44 6.73,-8.67 -0.71,-0.53 -1.36,-1.01 -1.99,-1.49 -1.59,2.21 -3.04,4.35 -4.61,6.38 -4.1,5.29 -7.74,10.9 -11.35,16.53 -3.48,5.42 -7,10.82 -10.51,16.22 -0.96,1.47 -1.95,2.93 -2.91,4.39 -6.23,9.46 -12.08,19.15 -17.93,28.85 -9.02,14.96 -18.03,29.93 -26.78,45.06 -6.87,11.88 -14.03,23.57 -22.01,34.75 -5.84,8.18 -11.6,16.43 -17.6,24.5 -3.55,4.77 -7.5,9.25 -11.3,13.84 -0.49,0.59 -1.12,1.07 -1.74,1.55 -0.13,0.1 -0.45,-0.06 -0.77,-0.11 1.01,-1.07 1.92,-2 2.78,-2.98 1.06,-1.21 2.07,-2.47 3.11,-3.7 7.57,-9.02 14.31,-18.67 21.11,-28.27 7.34,-10.36 14.4,-20.9 20.85,-31.84 5.23,-8.87 10.33,-17.82 15.59,-26.67 5.66,-9.52 11.56,-18.91 17.16,-28.47 4.76,-8.13 9.7,-16.15 14.88,-24.02 3.94,-6 8.03,-11.9 11.84,-17.98 5.44,-8.7 10.97,-17.32 17.31,-25.4 0.77,-0.98 1.35,-2.11 2.02,-3.19 -1.34,-0.71 -1.73,-0.76 -2.61,0.13 -1.06,1.07 -2.09,2.21 -2.92,3.46 -2.44,3.65 -4.78,7.37 -7.14,11.08 -5.29,8.32 -10.46,16.72 -15.89,24.95 -6.77,10.27 -13.49,20.56 -19.8,31.13 -6.13,10.27 -12.73,20.25 -19.02,30.42 -10.31,16.69 -20.6,33.4 -30.76,50.19 -5.25,8.68 -11.37,16.7 -17.65,24.61 -4.24,5.34 -9.27,9.9 -14.4,14.35 -2.2,1.91 -4.56,3.62 -7.15,5.04 -2.74,1.5 -5.35,3.23 -8,4.88 -0.52,0.32 -0.96,0.76 -1.41,1.12 0.13,0.28 0.19,0.42 0.26,0.54 1.07,1.66 1.41,1.76 3.17,0.84 1.51,-0.79 3.01,-1.62 4.53,-2.39 0.39,-0.2 0.8,-0.62 1.31,-0.25 0.01,0.12 0.06,0.28 0.02,0.3 -2.19,1.25 -4.39,2.48 -6.69,3.78 0.67,0.59 1.32,1.16 1.99,1.75 0.52,-0.25 0.97,-0.42 1.38,-0.68 1.98,-1.24 3.95,-2.51 5.93,-3.76 0.38,-0.24 0.67,-0.75 1.28,-0.44 -0.01,0.16 0.03,0.36 -0.04,0.43 -2.25,2.12 -5.02,3.46 -7.8,5.1 0.78,0.71 1.44,1.32 2.22,2.02 1.45,-0.81 2.89,-1.52 4.23,-2.39 1.55,-1.01 3.01,-2.17 4.51,-3.25 0.32,-0.23 0.62,-0.71 1.29,-0.08 -2.73,2.62 -5.92,4.49 -9.35,6.28 0.77,0.78 1.44,1.45 2.18,2.19 1.35,-0.7 2.7,-1.3 3.93,-2.07 1.61,-1 3.14,-2.15 4.71,-3.23 0.33,-0.23 0.63,-0.64 1.16,-0.36 0,0.16 0.06,0.36 -0.01,0.42 -2.69,2.42 -5.78,4.24 -9.12,5.8 1.25,0.9 1.65,1.09 2.8,0.74 1.63,-0.5 3.3,-0.98 4.78,-1.78 4.26,-2.3 8.2,-5.12 11.86,-8.29 4.74,-4.07 8.97,-8.67 13.07,-13.67 z m 43.7,-140.87 c -4.87,6.66 -9.73,13.32 -14.62,19.96 -1.71,2.32 -3.53,4.55 -5.2,6.9 -8.38,11.79 -17.44,23.04 -26.89,33.98 -1.18,1.37 -2.47,2.64 -3.69,3.97 -0.42,0.46 -0.89,0.91 -1.16,1.46 -1.32,2.67 -2.59,5.36 -3.87,8.05 -0.13,0.28 -0.18,0.6 -0.28,0.94 0.93,-0.06 0.93,-0.06 1.56,0.32 -0.58,0.89 -2.39,0.03 -2.49,1.71 0.72,0.15 1.45,-0.45 2.28,0.19 -0.39,0.21 -0.63,0.41 -0.92,0.48 -0.47,0.13 -0.96,0.18 -1.44,0.25 -0.63,0.1 -0.89,0.48 -0.87,1.14 0.5,0.22 1.24,-0.54 1.64,0.32 -0.77,0.85 -2.73,0.15 -2.67,2.02 0.91,0.12 1.76,-0.7 2.86,0.23 -1.04,0.25 -1.82,0.46 -2.61,0.62 -0.86,0.17 -1.38,0.61 -1.42,1.48 0.64,0.51 1.43,-0.53 2.05,0.27 -0.44,0.67 -1.15,0.61 -1.72,0.71 -0.98,0.17 -1.41,0.69 -1.47,1.67 0.58,-0.04 1.11,-0.07 1.82,-0.11 -0.4,0.88 -1.06,0.87 -1.58,0.99 -0.87,0.2 -1.33,0.64 -1.28,1.51 0.62,0.37 1.35,-0.54 1.91,0.27 -0.39,0.62 -1.06,0.48 -1.58,0.65 -1.18,0.37 -1.23,0.39 -1.4,1.75 0.5,0.27 1.11,-0.54 1.72,0.35 -0.59,0.21 -1.1,0.42 -1.63,0.57 -0.57,0.17 -1.1,0.34 -1.04,1.08 0.65,0.38 1.43,-0.6 2.13,0.42 -0.62,0.18 -1.1,0.41 -1.61,0.46 -1.05,0.11 -1.54,0.67 -1.6,1.73 0.55,0.05 1.07,0.09 1.83,0.15 -0.86,1.06 -2.73,0.28 -2.71,2.01 0.51,0.33 1.21,-0.38 1.61,0.41 -0.6,0.88 -2.43,0.1 -2.47,1.73 0.39,0.31 1.07,-0.37 1.25,0.56 -0.74,0.53 -2.35,0.26 -2.16,1.87 0.54,0.36 1.26,-0.53 1.76,0.45 -0.46,0.16 -0.84,0.4 -1.25,0.43 -0.99,0.08 -1.45,0.67 -1.69,1.53 -0.09,0.31 -0.19,0.62 -0.28,0.92 0.45,0.11 0.82,0.19 1.29,0.3 -0.59,0.98 -2.34,0.39 -2.11,1.95 0.57,0.1 1.11,0.19 1.84,0.31 -0.8,0.93 -1.69,0.4 -2.49,0.82 -0.1,0.27 -0.25,0.65 -0.4,1.02 0.63,0.36 1.29,-0.48 1.94,0.42 -0.63,0.22 -1.14,0.43 -1.68,0.57 -0.86,0.22 -1.25,0.75 -1.25,1.67 0.76,-0.11 1.43,-0.21 2.33,-0.35 -0.46,0.95 -1.16,1.01 -1.72,1.1 -1.36,0.24 -1.77,1.14 -1.98,2.36 1.04,0.11 1.9,-0.84 3.21,-0.29 -0.55,0.3 -0.85,0.52 -1.18,0.64 -0.64,0.23 -1.31,0.39 -1.95,0.61 -0.26,0.09 -0.63,0.2 -0.73,0.4 -0.49,1.02 -1.08,2.01 -1.31,3.26 1.67,-0.29 3.01,-0.94 4.29,-1.76 7.28,-4.64 13.45,-10.5 18.91,-17.14 0.07,-0.09 0.07,-0.23 0.16,-0.53 -1.08,0.43 -2,0.87 -2.96,1.16 -0.88,0.27 -1.67,1.19 -2.93,0.51 0.33,-0.22 0.5,-0.38 0.7,-0.46 1.44,-0.6 2.9,-1.16 4.33,-1.79 1.63,-0.72 3.04,-1.72 4.07,-3.22 2.42,-3.55 4.89,-7.06 7.33,-10.6 0.11,-0.15 0.16,-0.35 0.24,-0.52 -0.39,0.08 -0.62,0.25 -0.84,0.44 -4.14,3.66 -8.59,6.92 -13.11,10.08 -0.48,0.33 -0.97,0.66 -1.48,0.94 -0.15,0.09 -0.4,0.01 -0.61,0.01 0.02,-0.23 -0.01,-0.36 0.04,-0.41 0.16,-0.17 0.34,-0.34 0.54,-0.48 5.31,-3.66 10.39,-7.62 15.29,-11.81 2.1,-1.8 3.96,-3.73 5.4,-6.11 6.27,-10.35 12.58,-20.68 18.87,-31.02 0.15,-0.24 0.21,-0.53 0.31,-0.79 -0.48,0.3 -0.81,0.66 -1.11,1.04 -4.89,6.15 -9.74,12.34 -14.69,18.44 -6.15,7.59 -12.32,15.16 -19.67,21.65 -1.1,0.97 -2.19,1.94 -3.31,2.89 -0.32,0.27 -0.68,0.56 -1.14,0.14 0.08,-0.16 0.12,-0.32 0.22,-0.41 2.92,-2.73 5.9,-5.41 8.75,-8.21 2.16,-2.12 4.22,-4.34 6.2,-6.63 2.75,-3.18 5.41,-6.42 8.04,-9.7 6.36,-7.91 12.71,-15.84 19,-23.81 1.78,-2.26 3.46,-4.62 4.94,-7.08 7.49,-12.42 15.71,-24.37 23.62,-36.51 5.7,-8.75 11.37,-17.52 17.05,-26.29 0.27,-0.42 0.49,-0.88 0.73,-1.33 -0.53,0.31 -0.87,0.72 -1.19,1.14 -3.28,4.37 -6.63,8.69 -9.82,13.13 -4.19,5.83 -8.18,11.79 -12.37,17.61 -7.45,10.33 -15.33,20.35 -22.46,30.93 -4.04,5.99 -8.13,11.94 -12.68,17.57 -1.59,1.97 -3.15,3.98 -4.61,6.06 -5.46,7.78 -11.66,14.92 -18.42,21.58 -2.12,2.09 -4.41,4 -6.64,5.97 -0.19,0.17 -0.52,0.19 -0.94,0.33 0.11,-0.38 0.11,-0.55 0.2,-0.64 0.55,-0.55 1.09,-1.12 1.68,-1.63 6.24,-5.36 11.88,-11.32 16.99,-17.75 4.62,-5.81 9.04,-11.76 13.54,-17.66 1.51,-1.98 2.98,-3.99 4.41,-6.02 6.74,-9.58 13.21,-19.35 20.38,-28.63 7.29,-9.43 13.87,-19.36 20.8,-29.05 6.76,-9.45 13.91,-18.62 21.45,-27.46 4.65,-5.46 9.65,-10.62 14.49,-15.92 0.35,-0.38 0.66,-0.79 0.99,-1.19 -0.29,-0.35 -0.48,-0.57 -0.65,-0.81 -0.17,-0.23 -0.31,-0.49 -0.47,-0.75 -0.35,0.3 -0.51,0.42 -0.64,0.56 -6.99,7.5 -14.25,14.74 -20.94,22.53 -7.23,8.41 -14.34,16.9 -20.9,25.84 -5.49,7.48 -10.85,15.04 -16.29,22.55 -9.11,12.56 -18.21,25.14 -27.39,37.66 -6.94,9.45 -14.04,18.77 -21.99,27.4 -0.27,0.29 -0.4,0.83 -1.1,0.6 -0.03,-0.76 0.57,-1.18 0.98,-1.66 2.99,-3.54 6.14,-6.97 8.97,-10.63 6.81,-8.8 13.54,-17.67 20.17,-26.6 4.48,-6.04 8.68,-12.28 13.1,-18.35 7.32,-10.06 14.8,-20.01 21.99,-30.18 8.17,-11.58 17.4,-22.34 26.88,-32.86 4.97,-5.51 10.17,-10.81 15.27,-16.2 0.39,-0.41 0.76,-0.84 1.1,-1.23 -0.39,-0.74 -0.85,-0.88 -1.39,-0.48 -0.7,0.52 -1.42,1.05 -2.04,1.67 -4.85,4.82 -9.84,9.5 -14.46,14.53 -6.44,7.01 -12.74,14.16 -18.82,21.48 -6.59,7.96 -12.88,16.12 -18.99,24.68 z M 205.7,393.64 c -2.19,3.12 -5.07,5.59 -7.83,8.33 0.94,0.58 1.82,1.13 2.73,1.69 0.2,-0.67 -0.75,-1.1 -0.02,-1.79 1.19,1.15 1.66,2.92 3.41,3.87 -0.47,-1.71 -2.22,-2.54 -2.17,-4.4 0.84,0.34 0.96,1.03 1.34,1.5 0.38,0.48 0.75,0.97 1.3,1.67 0.53,-1.62 -1.55,-2.24 -0.89,-3.83 0.71,0.95 1.3,1.75 1.94,2.6 0.35,-0.28 0.59,-0.48 0.82,-0.66 -1.53,-2.54 -1.53,-2.54 -1.1,-3.22 0.63,0.93 1.25,1.83 1.91,2.8 0.39,-0.3 0.64,-0.49 0.89,-0.68 -1.59,-2.68 -1.59,-2.68 -1.2,-3.38 0.3,0.45 0.56,0.85 0.83,1.24 0.3,0.45 0.58,0.91 0.9,1.34 0.35,0.47 0.65,0.24 0.96,-0.18 -0.33,-0.51 -0.7,-1.02 -1.01,-1.57 -0.27,-0.49 -0.84,-0.93 -0.36,-1.85 0.35,0.47 0.6,0.79 0.84,1.13 0.36,0.52 0.69,1.07 1.09,1.56 0.34,0.42 0.65,0.28 0.88,-0.21 -0.32,-0.54 -0.67,-1.07 -0.95,-1.63 -0.29,-0.57 -0.8,-1.09 -0.66,-1.8 0.66,-0.22 0.73,0.27 0.91,0.58 0.43,0.71 0.82,1.44 1.26,2.14 0.29,0.46 0.61,0.39 0.94,-0.11 -0.33,-0.55 -0.71,-1.1 -1.01,-1.7 -0.26,-0.53 -0.87,-1.05 -0.21,-1.96 0.4,0.69 0.69,1.24 1.02,1.76 0.33,0.53 0.69,1.03 1.07,1.59 0.31,-0.19 0.5,-0.31 0.7,-0.43 -0.4,-1.26 -1.77,-1.97 -1.81,-3.6 1.38,0.79 1.64,2.26 2.76,3.08 0.23,-0.15 0.48,-0.31 0.72,-0.46 -0.47,-1.22 -1.75,-1.9 -1.76,-3.21 0.1,-0.07 0.2,-0.14 0.31,-0.21 0.79,1 1.57,1.99 2.57,3.26 0.42,-0.4 0.71,-0.68 0.96,-0.92 -1.68,-2.32 -1.68,-2.32 -1.57,-3.41 0.8,1 1.47,1.85 2.2,2.76 0.37,-0.32 0.68,-0.59 0.94,-0.82 -0.36,-1.11 -1.5,-1.75 -1.42,-2.92 0.11,-0.07 0.23,-0.14 0.34,-0.21 0.62,0.86 1.24,1.73 1.93,2.69 0.84,-0.73 1.55,-1.36 2.25,-1.97 -1.63,-2.22 -1.63,-2.22 -1.36,-3.02 0.69,0.82 1.33,1.58 2.02,2.4 0.54,-0.51 0.98,-0.93 1.37,-1.31 -0.28,-1.05 -1.43,-1.55 -1.13,-2.99 0.71,0.85 1.27,1.53 1.75,2.11 0.57,-0.38 1.09,-0.71 1.49,-0.97 -0.4,-1.04 -1.35,-1.5 -1.14,-2.86 0.73,0.82 1.27,1.43 1.92,2.17 0.49,-0.5 0.89,-0.9 1.22,-1.24 -0.21,-0.93 -1.28,-1.29 -0.98,-2.57 0.66,0.68 1.16,1.21 1.73,1.8 0.28,-0.3 0.49,-0.53 0.67,-0.72 -0.16,-0.65 -0.97,-0.94 -0.67,-1.89 0.56,0.44 1.02,0.79 1.51,1.17 0.48,-0.7 -0.13,-0.96 -0.33,-1.32 -0.23,-0.43 -0.77,-0.76 -0.36,-1.6 0.59,0.64 1.09,1.18 1.57,1.71 0.52,-0.22 0.72,-0.48 0.37,-0.91 -0.31,-0.38 -0.65,-0.73 -0.92,-1.14 -0.13,-0.19 -0.1,-0.48 -0.14,-0.73 0.08,-0.05 0.16,-0.1 0.24,-0.15 0.56,0.55 1.13,1.1 1.75,1.71 0.48,-0.56 0.92,-1.06 1.32,-1.51 -0.7,-1.18 -1.96,-1.88 -2.07,-3.23 0.1,-0.07 0.2,-0.14 0.3,-0.22 0.76,0.89 1.53,1.78 2.3,2.69 0.48,-0.35 0.72,-0.6 0.36,-1.03 -0.32,-0.37 -0.66,-0.72 -0.93,-1.13 -0.16,-0.23 -0.19,-0.55 -0.28,-0.83 0.09,-0.06 0.18,-0.12 0.28,-0.18 0.6,0.58 1.19,1.15 1.86,1.8 0.36,-0.48 0.64,-0.86 0.88,-1.17 -0.23,-0.98 -1.32,-1.43 -1.23,-2.51 1.07,0.01 1.08,1.37 2.1,1.49 -0.07,-1.23 -1.5,-1.65 -1.42,-2.91 1.15,0.15 1.24,1.42 2.17,1.76 0.21,-0.28 0.44,-0.57 0.65,-0.84 -1.36,-1.91 -1.36,-1.91 -1.12,-2.71 0.57,0.65 1.09,1.25 1.86,2.13 0.07,-0.58 0.21,-0.9 0.11,-1.11 -0.23,-0.48 -0.61,-0.88 -0.87,-1.35 -0.12,-0.21 -0.09,-0.5 -0.13,-0.75 0.09,-0.05 0.18,-0.1 0.27,-0.15 0.51,0.59 1.01,1.17 1.58,1.83 0.31,-0.42 0.56,-0.76 0.77,-1.04 -0.24,-1.04 -1.53,-1.45 -1.12,-2.75 0.58,0.62 1.15,1.23 1.81,1.94 0.27,-0.38 0.5,-0.71 0.69,-0.99 -0.47,-0.89 -1.51,-1.26 -1.53,-2.42 1.12,0.12 1.3,1.4 2.3,1.57 0.27,-0.39 0.53,-0.78 0.77,-1.12 -0.5,-0.96 -1.63,-1.34 -1.81,-2.55 1.26,0.09 1.47,1.41 2.51,1.68 0.21,-0.33 0.44,-0.68 0.64,-1 -0.62,-0.71 -1.16,-1.34 -1.85,-2.13 1.36,-0.2 1.54,1.14 2.44,1.19 0.4,-0.25 0.52,-0.56 0.15,-0.94 -0.34,-0.35 -0.72,-0.66 -1.03,-1.04 -0.15,-0.18 -0.15,-0.47 -0.22,-0.71 0.07,-0.06 0.15,-0.11 0.22,-0.17 0.62,0.48 1.24,0.96 1.86,1.44 0.53,-0.47 0.73,-0.88 0.17,-1.38 -0.32,-0.29 -0.64,-0.61 -0.88,-0.97 -0.15,-0.23 -0.16,-0.56 -0.24,-0.84 0.08,-0.05 0.16,-0.1 0.24,-0.15 0.58,0.54 1.17,1.08 1.83,1.7 0.23,-0.35 0.39,-0.61 0.51,-0.81 -0.37,-0.85 -1.52,-1.1 -1.3,-2.44 0.7,0.6 1.26,1.08 1.91,1.65 0.25,-0.47 0.44,-0.83 0.59,-1.1 -0.46,-0.8 -1.53,-0.92 -1.6,-2.24 0.84,0.54 1.46,0.93 2.16,1.38 0.21,-0.29 0.42,-0.59 0.59,-0.83 -0.26,-0.85 -1.44,-1 -1.31,-2.28 0.7,0.5 1.23,0.88 1.84,1.32 0.2,-0.31 0.38,-0.61 0.54,-0.87 -0.53,-0.79 -1.61,-0.94 -1.79,-2.02 1.09,-0.16 1.43,1.08 2.43,1.06 0.19,-0.32 0.41,-0.68 0.61,-1.02 -0.39,-0.72 -1.37,-0.91 -1.43,-1.87 0.94,-0.2 1.2,0.88 2.05,0.88 0.14,-0.28 0.3,-0.59 0.43,-0.86 -0.49,-0.68 -1.43,-0.86 -1.46,-1.85 0.94,-0.16 1.19,0.9 1.97,0.93 0.49,-0.3 0.45,-0.61 0.03,-1 -0.38,-0.36 -1.04,-0.56 -0.94,-1.56 0.68,0.42 1.22,0.76 1.86,1.15 0.2,-0.34 0.37,-0.65 0.5,-0.86 -0.38,-0.88 -1.61,-1 -1.47,-2.37 0.77,0.57 1.37,1 2.07,1.52 0.32,-0.55 0.58,-0.99 0.79,-1.35 -0.54,-1.08 -1.84,-1.48 -1.65,-2.93 0.71,0.66 1.41,1.32 2.19,2.05 0.24,-0.41 0.42,-0.74 0.6,-1.05 -0.58,-0.66 -1.11,-1.25 -1.77,-2.01 1.28,-0.27 1.49,1 2.4,1.05 0.32,-0.54 0.65,-1.1 0.9,-1.54 -0.44,-1.02 -1.8,-1.13 -1.65,-2.58 0.82,0.61 1.5,1.1 2.25,1.66 0.35,-0.61 0.63,-1.1 0.85,-1.51 -0.35,-0.96 -1.51,-1.28 -1.36,-2.69 0.75,0.68 1.31,1.2 1.96,1.79 0.37,-0.62 0.66,-1.11 0.89,-1.5 -0.54,-1.17 -1.92,-1.51 -2.14,-3 1.25,0.38 1.7,1.51 2.68,1.99 0.15,-0.2 0.31,-0.37 0.43,-0.58 0.11,-0.2 0.18,-0.43 0.25,-0.62 -1.74,-1.91 -1.74,-1.91 -1.64,-2.66 0.76,0.65 1.43,1.23 2.22,1.91 0.42,-0.71 0.78,-1.32 1.09,-1.83 -0.41,-1.21 -1.71,-1.71 -1.9,-3.1 1.27,0.32 1.56,1.55 2.53,2.1 0.31,-0.52 0.57,-0.97 0.8,-1.36 -0.36,-0.97 -1.45,-1.41 -1.2,-2.68 0.58,0.56 1.16,1.13 1.79,1.74 0.27,-0.48 0.49,-0.85 0.66,-1.15 -0.22,-0.95 -1.43,-1.26 -1.26,-2.65 0.71,0.64 1.22,1.1 1.85,1.67 0.26,-0.43 0.49,-0.82 0.68,-1.13 -0.36,-0.95 -1.63,-1.16 -1.43,-2.57 0.74,0.62 1.31,1.1 2.01,1.69 0.39,-0.65 0.71,-1.21 1,-1.7 -0.57,-0.97 -1.61,-1.42 -1.98,-2.75 1.28,0.36 1.64,1.46 2.57,1.82 0.23,-0.38 0.45,-0.74 0.66,-1.09 -0.43,-0.94 -1.45,-1.48 -1.62,-2.67 1.22,0.15 1.3,1.33 2.21,1.74 0.28,-0.45 0.58,-0.92 0.88,-1.4 -0.52,-0.67 -0.98,-1.25 -1.55,-1.97 1.19,-0.22 1.37,0.79 2.11,1.06 0.24,-0.37 0.49,-0.77 0.71,-1.12 -0.43,-0.96 -1.86,-1.03 -1.79,-2.53 0.88,0.62 1.57,1.11 2.33,1.64 0.21,-0.37 0.37,-0.64 0.51,-0.88 -0.57,-0.77 -1.72,-0.83 -1.94,-1.89 1.14,-0.42 1.65,1.43 2.87,0.71 -0.43,-1.02 -1.78,-1.19 -1.88,-2.74 0.92,0.68 1.59,1.18 2.3,1.7 0.16,-0.17 0.32,-0.29 0.42,-0.45 0.12,-0.19 0.19,-0.41 0.27,-0.6 -1.65,-1.58 -1.65,-1.58 -1.56,-2.32 0.71,0.53 1.36,1.01 2.11,1.56 0.31,-0.49 0.58,-0.92 0.79,-1.25 -0.27,-1.05 -1.67,-1.21 -1.53,-2.65 0.8,0.63 1.43,1.12 2.14,1.68 0.36,-0.58 0.69,-1.1 1,-1.58 -0.53,-0.98 -1.83,-1.28 -1.68,-2.69 0.71,0.58 1.41,1.17 2.21,1.82 0.33,-0.53 0.61,-0.97 0.85,-1.34 -0.34,-0.92 -1.53,-1.24 -1.3,-2.61 0.69,0.62 1.24,1.12 1.88,1.7 0.43,-0.67 0.8,-1.26 1.09,-1.73 -0.41,-1.03 -1.72,-1.21 -1.58,-2.64 0.82,0.64 1.48,1.16 2.21,1.72 0.34,-0.58 0.6,-1.03 0.81,-1.38 -0.33,-0.9 -1.6,-1 -1.38,-2.29 0.74,0.51 1.35,0.93 2.02,1.39 0.31,-0.51 0.55,-0.92 0.76,-1.28 -0.45,-0.97 -1.69,-1.25 -1.87,-2.47 1.19,0.03 1.48,1.22 2.5,1.51 0.36,-0.56 0.74,-1.16 1.06,-1.67 -0.2,-0.81 -1.24,-1 -1.01,-2.12 0.6,0.43 1.08,0.76 1.63,1.15 0.32,-0.53 0.59,-0.97 0.84,-1.37 -0.38,-0.78 -1.44,-0.81 -1.58,-1.77 0.95,-0.29 1.35,0.76 2.25,0.76 0.26,-0.42 0.55,-0.89 0.79,-1.28 -0.31,-0.86 -1.48,-1.01 -1.25,-2.26 0.66,0.49 1.2,0.89 1.83,1.35 0.32,-0.51 0.62,-0.98 0.85,-1.34 -0.3,-0.94 -1.52,-1.13 -1.31,-2.44 0.71,0.55 1.29,1.01 1.93,1.51 0.25,-0.47 0.46,-0.84 0.57,-1.04 -0.24,-0.95 -1.52,-1.1 -1.21,-2.41 0.67,0.54 1.22,0.98 1.86,1.49 0.28,-0.49 0.5,-0.89 0.69,-1.22 -0.34,-0.7 -1.18,-0.91 -1.16,-2.03 0.71,0.46 1.2,0.77 1.78,1.15 0.33,-0.54 0.63,-1.03 0.88,-1.44 -0.26,-0.97 -1.63,-1.09 -1.43,-2.49 0.74,0.57 1.33,1.03 1.99,1.54 0.22,-0.36 0.38,-0.63 0.53,-0.86 -0.39,-0.74 -1.55,-0.76 -1.48,-2.05 0.76,0.45 1.36,0.81 2.04,1.21 0.25,-0.43 0.46,-0.79 0.65,-1.1 -0.37,-0.85 -1.52,-1.02 -1.29,-2.24 0.59,0.44 1.18,0.87 1.84,1.36 0.25,-0.4 0.45,-0.72 0.61,-0.98 -0.26,-0.73 -1.31,-0.86 -1.14,-2.01 0.64,0.41 1.13,0.73 1.7,1.09 0.22,-0.37 0.4,-0.69 0.57,-0.97 -0.49,-0.61 -0.92,-1.15 -1.45,-1.81 1.12,-0.29 1.28,0.74 2.03,0.88 0.19,-0.33 0.41,-0.69 0.58,-0.99 -0.44,-0.84 -1.47,-1.1 -1.61,-2.16 1.09,-0.1 1.32,1.05 2.13,1.19 0.64,-0.52 0.4,-0.95 -0.07,-1.45 -0.42,-0.44 -1.16,-0.77 -0.87,-1.84 0.71,0.61 1.31,1.12 1.98,1.69 0.23,-0.45 0.4,-0.78 0.55,-1.07 -0.54,-0.59 -1,-1.1 -1.56,-1.71 1.12,-0.42 1.35,0.73 2.07,0.76 0.48,-0.29 0.38,-0.58 0,-0.9 -0.33,-0.29 -0.9,-0.43 -0.73,-1.26 0.57,0.27 1.06,0.5 1.62,0.77 0.19,-0.32 0.38,-0.63 0.55,-0.9 -0.4,-0.74 -1.46,-0.77 -1.56,-2.02 0.8,0.42 1.4,0.74 2.09,1.09 0.17,-0.27 0.34,-0.53 0.48,-0.74 -0.38,-0.85 -1.52,-0.86 -1.71,-1.89 1.01,-0.22 1.44,0.83 2.36,0.91 0.18,-0.32 0.38,-0.67 0.55,-0.98 -0.55,-0.75 -1.52,-0.92 -1.81,-1.96 1.08,-0.09 1.54,0.95 2.47,1.08 0.23,-0.41 0.46,-0.81 0.64,-1.14 -0.54,-0.87 -1.65,-1.03 -1.89,-2.13 1.15,-0.09 1.57,1.05 2.55,1.23 0.27,-0.45 0.53,-0.88 0.73,-1.21 -0.48,-1.09 -1.91,-1.18 -1.83,-2.6 0.81,0.55 1.61,1.11 2.48,1.71 0.33,-0.55 0.62,-1.03 0.84,-1.39 -0.42,-0.85 -1.4,-1.01 -1.49,-1.88 0.17,-0.08 0.3,-0.18 0.34,-0.15 0.57,0.35 1.13,0.71 1.75,1.11 0.18,-0.29 0.35,-0.56 0.49,-0.78 -0.33,-0.87 -1.6,-0.94 -1.52,-2.33 0.8,0.55 1.41,0.98 2.1,1.45 0.24,-0.38 0.44,-0.69 0.6,-0.94 -0.36,-0.86 -1.45,-1.1 -1.25,-2.28 0.59,0.45 1.18,0.9 1.77,1.35 0.54,-0.31 0.61,-0.62 0.15,-1.02 -0.47,-0.42 -0.95,-0.84 -1.37,-1.32 -0.13,-0.14 -0.06,-0.45 -0.12,-1 0.93,0.78 1.62,1.35 2.38,1.98 0.24,-0.35 0.41,-0.61 0.57,-0.84 -0.49,-0.62 -0.91,-1.15 -1.45,-1.84 1.12,-0.21 1.32,0.76 2.04,0.92 0.12,-0.14 0.26,-0.31 0.38,-0.45 -0.4,-0.95 -1.74,-0.99 -1.89,-2.2 1.11,-0.02 1.58,1.04 2.52,1.24 0.21,-0.34 0.41,-0.65 0.57,-0.92 -0.35,-0.82 -1.64,-0.88 -1.39,-2.19 0.69,0.47 1.28,0.87 1.97,1.34 0.29,-0.43 0.54,-0.81 0.75,-1.12 -0.31,-0.68 -1.24,-0.67 -1.19,-1.72 0.65,0.28 1.19,0.52 1.8,0.78 0.14,-0.22 0.29,-0.44 0.41,-0.63 -0.41,-0.7 -1.44,-0.8 -1.41,-2 0.76,0.44 1.36,0.79 1.95,1.13 0.47,-0.8 0.46,-0.8 0.04,-1.23 -0.41,-0.42 -1.11,-0.62 -1.11,-1.45 1.02,-0.15 1.33,1.01 2.25,1.05 0.19,-0.35 0.39,-0.71 0.55,-1.02 -0.51,-0.7 -1.45,-0.82 -1.64,-1.77 0.99,-0.23 1.37,0.79 2.17,0.87 0.44,-0.31 0.7,-0.65 0.13,-1.12 -0.49,-0.4 -1.02,-0.77 -1.47,-1.2 -0.17,-0.17 -0.19,-0.49 -0.28,-0.75 0.09,-0.06 0.18,-0.11 0.26,-0.17 0.77,0.56 1.55,1.12 2.4,1.74 0.22,-0.33 0.39,-0.59 0.51,-0.77 -0.37,-0.96 -1.77,-1.02 -1.64,-2.49 0.83,0.6 1.48,1.08 2.21,1.6 0.23,-0.39 0.42,-0.7 0.58,-0.96 -0.38,-0.67 -1.35,-0.77 -1.35,-1.94 0.75,0.42 1.3,0.73 1.94,1.09 0.27,-0.47 0.5,-0.87 0.72,-1.26 -0.78,-0.66 -1.45,-1.24 -2.33,-1.99 1.46,-0.29 1.88,0.96 2.89,1.11 0.15,-0.22 0.33,-0.47 0.49,-0.7 -0.47,-0.79 -1.66,-0.75 -1.91,-2.12 0.99,0.49 1.73,0.86 2.5,1.25 0.26,-0.41 0.45,-0.73 0.63,-1.02 -0.54,-0.85 -1.77,-0.92 -1.8,-2.21 0.76,0.44 1.52,0.87 2.33,1.33 0.15,-0.18 0.29,-0.31 0.38,-0.47 0.07,-0.11 0.07,-0.25 0.12,-0.41 -0.43,-0.29 -0.85,-0.55 -1.23,-0.84 -0.36,-0.27 -0.92,-0.39 -0.86,-1.12 1.14,-0.11 1.7,1.12 2.78,1.14 0.22,-0.38 0.43,-0.74 0.63,-1.08 -0.68,-0.9 -2.02,-1.04 -2.34,-2.17 0.07,-0.1 0.14,-0.2 0.22,-0.29 0.87,0.53 1.74,1.07 2.58,1.58 0.52,-0.43 0.6,-0.75 0.05,-1.09 -1.33,-0.81 -2.65,-1.64 -3.98,-2.45 -0.16,-0.1 -0.36,-0.16 -0.54,-0.22 -1,-0.35 -1.25,-0.31 -1.88,0.54 -0.55,0.74 -1.05,1.53 -1.55,2.31 -5,7.87 -9.93,15.78 -15.01,23.59 -7.49,11.49 -15.26,22.8 -22.59,34.39 -7.64,12.08 -14.88,24.43 -22.34,36.63 -4.4,7.2 -8.59,14.54 -13.56,21.39 -2.44,3.36 -4.7,6.84 -7.13,10.2 -1.97,2.73 -3.96,5.46 -6.13,8.02 -4.97,5.88 -10.56,11.1 -17.04,15.32 -2.07,1.35 -4.25,2.39 -6.75,2.72 -0.83,1.63 -1.62,3.25 -2.46,4.84 -2.66,4.96 -5.09,10.04 -8.74,14.63 z M 378.53,227.17 c -1.5,-0.2 -2.99,-0.47 -4.49,-0.58 -1.35,-0.1 -2.82,-0.35 -4.06,0.04 -1.77,0.56 -3.38,1.63 -5.06,2.48 0.02,0.12 0.04,0.23 0.06,0.35 1.08,0.04 2.2,0.25 3.25,0.08 3.58,-0.58 7.08,-0.3 10.58,0.59 2.02,0.52 4.07,0.89 6.21,1.35 -0.19,-1.94 1.42,-1.24 2.1,-1.62 0.37,-1.38 0.71,-2.64 1.1,-4.1 -1.6,-0.27 -3.07,-0.52 -4.55,-0.76 -0.51,-0.08 -1.1,-0.01 -1.29,-0.86 2.03,-1.21 4.33,-0.28 6.39,-0.67 -0.22,-0.56 -0.64,-1.11 -0.52,-1.46 0.17,-0.48 0.77,-0.8 1.18,-1.19 -1.17,-1.2 0.85,-1.59 0.66,-2.54 -1.68,0.03 -1.68,0.03 -1.92,-1.47 -0.33,0 -0.67,0.01 -1,0 -0.34,-0.01 -0.69,0.02 -1.02,-0.05 -0.41,-0.1 -0.92,-0.18 -1.18,-0.46 -0.23,-0.25 -0.17,-0.76 -0.24,-1.21 -1.04,0.17 -1.61,-0.41 -2.04,-1.27 -0.26,-0.5 -0.61,-0.96 -0.91,-1.43 -1.41,0.87 -1.41,0.86 -2.06,-0.39 -0.28,-0.53 -0.64,-1.02 -1,-1.59 -0.96,1.62 -1.06,1.64 -2.39,0.7 -0.26,-0.18 -0.55,-0.3 -0.68,-0.37 -0.56,1.84 -0.95,3.66 -1.66,5.35 -1.62,3.88 -4.15,7.15 -7.27,9.97 -0.69,0.63 -1.37,1.27 -2.06,1.91 0.68,-0.03 1.18,-0.29 1.7,-0.54 2.11,-1 4.19,-2.09 6.36,-2.95 1.18,-0.47 1.95,-1.06 2.43,-2.26 0.77,-1.92 2.06,-3.53 3.47,-5.03 0.27,-0.29 0.55,-0.76 1.23,-0.2 -1.59,1.93 -3.38,3.73 -4.25,6.32 2.2,-0.39 4.2,-1.29 6.62,-1.09 -1.01,1.17 -2.19,0.82 -3.16,1.13 -1.07,0.34 -2.16,0.6 -3.23,0.94 -1.01,0.32 -2,0.69 -3.01,1.04 3.4,0.68 6.81,0.95 10.11,1.85 -0.18,0.75 -0.59,0.62 -0.97,0.56 -1.07,-0.15 -2.12,-0.33 -3.43,-0.57 z m -0.96,7.71 c -4.37,-1.84 -8.82,-3.31 -13.73,-3.13 0.78,1.12 1.54,2.12 2.19,3.18 0.68,1.12 1.28,2.3 1.87,3.48 0.29,0.58 0.68,0.85 1.33,0.96 1.36,0.23 2.69,0.44 4.06,0.07 0.31,-0.08 0.67,0.06 1.01,0.11 0.01,0.12 0.01,0.24 0.02,0.36 -0.79,0.46 -1.7,0.53 -2.59,0.55 -0.87,0.03 -1.75,-0.14 -2.65,-0.22 0.12,1.16 1.36,1.58 1.26,2.97 -1.91,-1.17 -2.32,-3.19 -3.52,-4.75 -0.13,0.32 -0.23,0.48 -0.27,0.66 -0.24,1.29 -0.46,2.59 -0.7,3.88 -0.07,0.4 0.01,0.91 -0.85,0.95 0.06,-0.77 0.06,-1.48 0.18,-2.17 0.23,-1.34 0.55,-2.68 0.8,-4.02 0.06,-0.33 0.16,-0.73 0.04,-1 -0.88,-1.91 -1.84,-3.76 -3.75,-4.9 -0.14,0.19 -0.28,0.3 -0.3,0.42 -0.42,2.5 -0.83,5 -1.23,7.5 -0.03,0.18 -0.03,0.49 0.08,0.55 1.1,0.7 0.66,1.81 0.8,2.78 0.18,1.3 0.1,2.69 1,3.9 0.17,-0.22 0.26,-0.32 0.33,-0.43 0.66,-1 0.93,-1.03 1.74,-0.14 0.49,0.53 0.93,1.1 1.45,1.71 0.27,-0.4 0.46,-0.69 0.72,-1.07 1.28,0.75 1.94,2.02 2.98,2.88 0.32,-0.35 0.6,-0.66 0.9,-0.99 1.2,0.52 1.43,1.84 2.41,2.76 0.45,-1.06 1,-1.96 1.19,-2.93 0.26,-1.32 0.69,-2.39 2.01,-2.86 -0.6,-1.85 -0.57,-1.93 0.88,-3.04 0.45,-0.34 0.89,-0.69 1.38,-1.08 -0.44,-0.62 -0.8,-1.08 -1.12,-1.56 -0.45,-0.69 -0.39,-1 0.27,-1.46 0.34,-0.24 0.71,-0.44 1.1,-0.67 -0.24,-0.36 -0.37,-0.64 -0.57,-0.84 -0.63,-0.61 -0.84,-1.28 -0.39,-2.08 0.03,-0.03 -0.08,-0.14 -0.33,-0.33 z m -30.39,-15.1 c -0.07,0.48 -0.12,0.96 -0.2,1.43 -0.28,1.55 -0.12,3.32 0.43,4.33 1.13,-1.98 2.26,-3.93 3.81,-5.96 0.13,0.53 0.29,0.78 0.22,0.93 -0.2,0.44 -0.49,0.84 -0.73,1.26 -1.12,2 -2.24,3.99 -3.33,6.01 -0.17,0.31 -0.2,0.68 -0.28,0.97 2.07,-0.35 4.03,-0.7 6,-1.01 0.26,-0.04 0.54,0.11 1.16,0.26 -1.03,0.71 -1.89,0.6 -2.67,0.78 -1.42,0.33 -2.84,0.65 -4.25,1.01 -0.67,0.17 -1.03,0.65 -1.19,1.33 -0.49,1.99 -1.03,3.96 -1.53,5.94 -0.09,0.35 -0.04,0.74 -0.06,1.11 0.54,-0.2 0.95,-0.49 1.14,-0.88 1.19,-2.48 3.3,-4.07 5.43,-5.63 0.41,-0.3 0.96,-0.44 1.47,-0.54 0.95,-0.18 1.92,-0.28 2.89,-0.91 -0.16,-0.5 -0.18,-1.11 -0.5,-1.45 -0.85,-0.93 -0.72,-1.81 -0.18,-2.8 0.39,-0.71 0.8,-1.45 0.67,-2.46 -0.45,0 -0.87,0.01 -1.29,0 -0.84,-0.03 -1.06,-0.33 -0.74,-1.11 0.34,-0.85 0.74,-1.67 1.09,-2.42 -0.38,-0.34 -0.79,-0.55 -0.87,-0.84 -0.09,-0.31 0.13,-0.71 0.23,-1.12 -1.09,-0.23 -0.6,-1.02 -0.53,-1.8 -1.02,0.54 -1.43,0.03 -1.74,-0.74 -0.28,-0.69 -0.63,-1.35 -1.04,-2.23 -0.45,0.63 -0.74,1 -1,1.4 -0.72,1.12 -0.71,1.12 -1.99,0.57 -0.19,0.55 -0.44,1.08 -0.55,1.63 -0.17,0.88 -0.91,0.63 -1.37,0.72 -0.09,0.14 -0.12,0.18 -0.14,0.23 -0.27,0.91 0.1,2.15 -1.33,2.46 -0.13,0.03 -0.2,0.52 -0.24,0.8 -0.13,0.88 -0.42,1.61 -1.53,1.66 0.08,0.65 0.11,1.18 0.2,1.7 0.3,1.8 0.16,2.13 -1.47,3.06 -0.03,0.26 -0.15,0.58 -0.07,0.84 0.38,1.28 1.02,2.51 0.6,3.92 -0.05,0.15 0.12,0.36 0.17,0.55 0.24,0.89 0.46,1.79 0.72,2.68 0.25,0.83 0.54,1.64 0.92,2.77 0.17,-0.54 0.26,-0.75 0.3,-0.97 0.52,-3.24 1.49,-6.35 2.61,-9.43 0.15,-0.42 0.11,-0.94 0.05,-1.41 -0.26,-1.93 -0.67,-3.86 -0.15,-5.81 0.08,-0.44 0.01,-1.04 0.86,-0.83 z m -0.1,32.07 c -0.4,-0.41 0.01,-0.69 0.15,-1.03 0.42,-0.98 0.9,-1.94 1.18,-2.96 0.14,-0.52 0.12,-1.29 -0.18,-1.68 -0.88,-1.13 -1.87,-2.2 -3.25,-3.07 -0.06,1.59 -0.48,2.91 -1.34,4.05 -0.5,0.66 -1.04,1.29 -1.52,1.97 -0.34,0.49 -0.61,1.04 -1.02,1.77 1.99,0.08 1.76,1.89 2.63,2.87 0.56,-0.46 1.03,-0.84 1.61,-1.31 0.25,0.45 0.49,0.75 0.6,1.1 0.3,0.9 0.73,1.54 1.82,1.6 0.37,0.02 0.75,0.4 1.07,0.68 0.31,0.28 0.55,0.64 0.83,0.99 0.09,-0.16 0.15,-0.24 0.19,-0.33 0.62,-1.33 0.78,-1.37 1.83,-0.47 0.26,0.22 0.52,0.43 0.91,0.76 0.59,-0.83 1.25,-0.39 1.87,-0.04 0.27,-0.22 0.55,-0.6 0.7,-0.55 0.75,0.25 1.47,0.61 2.3,0.97 -0.26,-1.52 -0.21,-3.02 -1.15,-4.34 -0.58,-0.8 -0.31,-1.23 0.66,-1.38 0.42,-0.07 0.85,-0.08 1.28,-0.12 -0.25,-1.21 -0.25,-1.21 0.98,-1.64 -0.34,-0.69 -0.58,-1.43 -1.01,-2.02 -0.83,-1.16 -0.88,-1.13 -0.16,-2.52 -1.09,-0.54 -2.18,-1.08 -3.26,-1.62 -0.04,-0.13 -0.08,-0.27 -0.13,-0.4 0.52,-0.34 1.04,-0.67 1.57,-1.01 -3.72,-0.63 -7.27,-0.25 -10.95,-0.09 0.2,0.41 0.57,0.57 0.83,0.83 1.15,1.12 2.34,2.21 3.39,3.43 0.63,0.73 1.23,1.07 2.23,0.97 1.91,-0.18 3.8,0.1 5.59,0.85 0.37,0.16 0.84,0.27 0.74,1.07 -2.27,-0.73 -4.47,-1.52 -6.93,-0.99 0.76,1.47 1.85,2.66 2.4,4.21 -0.84,-0.08 -0.81,-0.1 -2.13,-2.11 -0.59,-0.9 -1.05,-1.93 -2.04,-2.59 -0.43,1.61 -0.8,3.12 -2.29,4.15 z m 16.22,-26.1 c 0.36,-0.85 0.72,-1.7 1.07,-2.52 -2.18,-3.26 -3.1,-8.61 -1.55,-10.31 0.04,0.74 0.12,1.29 0.09,1.83 -0.11,1.88 0.13,3.7 0.69,5.48 0.21,0.66 0.45,1.35 1.23,1.89 0.2,-0.69 0.39,-1.23 0.52,-1.79 0.72,-3.13 1.64,-6.24 1.51,-9.51 -0.02,-0.43 0,-0.89 0.71,-0.9 0.53,2.6 -0.28,5.09 -0.34,7.7 0.75,-0.95 1.5,-1.9 2.25,-2.85 0.24,0.39 0.31,0.69 0.19,0.9 -0.28,0.51 -0.6,1.01 -0.98,1.45 -0.72,0.83 -1.67,1.52 -2.19,2.46 -0.56,1 -0.69,2.22 -1.08,3.33 -0.27,0.78 -0.65,1.52 -0.97,2.29 -0.1,0.25 -0.17,0.52 -0.25,0.78 2.65,-4.24 5.52,-8.34 7.51,-13.02 -1.75,-0.04 -1.97,-0.33 -1.63,-1.82 0.15,-0.64 0.28,-1.27 0.43,-2.01 -0.45,0.02 -0.69,0.05 -0.93,0.04 -1.02,-0.01 -1.28,-0.27 -1.27,-1.31 0,-0.39 0.11,-0.78 0.12,-1.16 0,-0.51 -0.05,-1.02 -0.08,-1.58 -0.73,0.26 -1.29,0.45 -1.88,0.66 -0.52,-1.28 -0.38,-2.73 -1.93,-3.4 -0.36,1.13 -0.67,2.19 -1.05,3.23 -0.33,0.91 -0.65,1.04 -1.57,0.81 -0.32,-0.08 -0.63,-0.17 -1.22,-0.33 0.22,0.98 0.3,1.8 0.6,2.53 0.26,0.64 0.4,1.23 0.08,1.82 -0.45,0.83 -0.35,1.67 -0.26,2.56 0.11,1.16 0.13,2.34 0.07,3.51 -0.05,0.95 -0.42,1.11 -1.35,0.75 -0.13,-0.05 -0.26,-0.1 -0.5,-0.19 0.1,0.6 0.2,1.11 0.28,1.63 0.18,1.24 0.03,1.46 -1.26,1.82 1.89,2.34 2.61,5.16 3.33,7.98 0.1,0 0.21,0.01 0.31,0.01 0.39,-0.84 0.81,-1.7 1.3,-2.76 z m -31.96,-10.87 c -0.63,0.83 -1.27,1.66 -1.91,2.51 1.15,0.31 2.12,0.56 3.05,0.81 6.72,-7.95 13.42,-15.88 20.18,-23.87 -0.43,-0.59 -0.82,-1.13 -1.31,-1.81 -0.45,0.48 -0.82,0.85 -1.17,1.23 -3.72,4.07 -7.47,8.11 -11.15,12.22 -2.57,2.88 -5.05,5.83 -7.69,8.91 z m 18.9,20.07 c 3.56,-1.87 7.12,-3.73 10.72,-5.62 -0.13,-0.52 -0.28,-1.08 -0.42,-1.65 -0.66,-2.72 -1.54,-5.34 -3.64,-7.36 -0.23,-0.22 -0.3,-0.62 -0.55,-1.19 0.98,0.05 1.67,0.08 2.42,0.12 -0.12,-1.16 -0.3,-2.21 -0.87,-3.2 -1.82,1.82 -2.64,4.04 -3.36,6.31 2.11,0.61 2.29,1.01 1.46,3.1 -0.02,0.05 -0.02,0.1 -0.05,0.14 -0.66,1.05 -0.99,2.09 0.04,3.14 0.12,0.13 0.16,0.35 0.2,0.54 0.32,1.29 0.07,1.78 -1.21,2.19 -0.74,0.23 -1.52,0.34 -2.27,0.53 -0.37,0.09 -0.78,0.17 -1.07,0.38 -1.05,0.79 -2.08,1.61 -3.07,2.48 -0.45,0.39 -0.79,0.9 -1.19,1.36 0.08,0.1 0.16,0.19 0.23,0.29 0.82,-0.49 1.63,-0.97 2.63,-1.56 z m 6.64,-25.28 c 0.4,-0.54 0.8,-1.08 1.26,-1.71 -0.77,-0.57 -1.44,-1.07 -2.16,-1.59 -1.59,2.2 -3.09,4.28 -4.61,6.39 0.4,0.89 0.79,1.75 1.25,2.77 1.48,-2.02 2.81,-3.85 4.26,-5.86 z m -0.56,6.17 c 1.41,-2.02 2.98,-3.95 4.05,-6.29 -0.53,-0.4 -0.94,-0.72 -1.48,-1.13 -1.55,2.14 -3.12,4.13 -4.47,6.26 -0.35,0.56 -0.05,1.53 -0.05,2.4 0.22,0.08 0.52,0.18 0.85,0.3 0.35,-0.5 0.67,-0.93 1.1,-1.54 z M 202.16,414.23 c 0.51,0.28 1.02,0.57 1.59,0.89 1.52,-1.42 3.01,-2.81 4.57,-4.27 -0.47,-0.37 -0.88,-0.7 -1.4,-1.12 -1.13,0.91 -2.25,1.76 -3.31,2.68 -0.58,0.51 -1.05,1.12 -1.45,1.82 z m -3.58,-2.07 c 0.61,0.26 0.88,-0.27 1.22,-0.56 1.21,-1.05 2.39,-2.14 3.6,-3.19 0.25,-0.21 0.59,-0.31 1.04,-0.54 -0.77,-0.51 -1.13,-0.75 -1.56,-1.03 -0.56,0.41 -1.12,0.8 -1.65,1.21 -1.29,1.02 -2.57,2.05 -3.99,3.19 0.47,0.32 0.81,0.56 1.34,0.92 z M 340.51,241.34 c 0.85,-0.64 1.7,-1.28 2.61,-1.97 -0.35,-0.84 -0.67,-1.62 -1.02,-2.45 -1.63,1.6 -4.81,6.29 -4.99,7.34 1.1,-0.95 2.17,-1.87 3.4,-2.92 z m -144.8,169.02 c 0.37,0.21 0.69,0.54 1.17,0.15 1.68,-1.39 3.39,-2.76 5.19,-4.23 -0.48,-0.33 -0.86,-0.59 -1.33,-0.92 -1.78,1.39 -3.51,2.75 -5.23,4.1 -0.36,0.28 -0.39,0.54 0.2,0.9 z m -3.56,-5.08 c 1.27,-0.93 2.53,-1.86 3.91,-2.87 -0.57,-0.31 -0.95,-0.52 -1.33,-0.72 -2.04,1.12 -3.89,2.42 -5.78,3.94 0.59,0.41 1.01,0.7 1.44,0.99 0.58,-0.45 1.09,-0.83 1.76,-1.34 z m -3.07,-3.65 c 0.83,-0.5 1.66,-0.99 2.52,-1.51 -1.08,-0.86 -1.31,-1.03 -1.82,-0.78 -1.68,0.82 -3.38,1.64 -4.99,2.88 0.54,0.45 0.98,0.81 1.4,1.16 0.96,-0.58 1.83,-1.11 2.89,-1.75 z m 10.96,11.39 c 0.34,0.18 0.67,0.37 1.01,0.55 1.71,-1.48 3.38,-2.92 5.12,-4.42 -0.49,-0.33 -0.84,-0.57 -1.31,-0.89 -1.23,1.06 -2.46,2.07 -3.64,3.14 -0.48,0.43 -0.87,0.98 -1.18,1.62 z m -5.07,-6.09 c -0.65,0.47 -1.31,0.94 -2.11,1.51 0.62,0.4 1.04,0.67 1.44,0.93 1.92,-1.53 3.73,-2.97 5.55,-4.42 -0.92,-0.77 -0.94,-0.79 -1.62,-0.33 -1.05,0.72 -2.06,1.46 -3.26,2.31 z m 14.98,6.77 c -1.04,0.92 -2.09,1.83 -3.29,2.89 0.72,0.33 1.23,0.57 1.72,0.8 1.31,-1.04 2.57,-2.02 3.93,-3.1 -0.49,-0.44 -0.94,-0.85 -1.4,-1.28 -0.33,0.23 -0.56,0.4 -0.96,0.69 z m -17.16,-11.86 c 0.29,-0.21 0.58,-0.42 0.9,-0.66 -0.99,-0.62 -1.01,-0.65 -1.64,-0.3 -1.27,0.71 -2.53,1.45 -3.78,2.19 -0.44,0.26 -0.85,0.56 -1.39,0.92 0.57,0.44 0.98,0.75 1.38,1.05 1.51,-1.07 2.93,-2.08 4.53,-3.2 z m 0.73,5.12 c 1.48,-1.06 2.96,-2.13 4.46,-3.2 -0.55,-0.63 -1.01,-0.86 -1.62,-0.43 -1.74,1.22 -3.48,2.44 -5.38,3.77 0.53,0.36 0.87,0.58 1.2,0.8 0.46,-0.32 0.82,-0.57 1.34,-0.94 z m -9.88,-5.78 c 0.37,0.45 0.72,0.27 1.13,0.03 1.12,-0.68 2.26,-1.31 3.38,-1.98 0.26,-0.16 0.49,-0.37 0.84,-0.65 -0.83,-0.25 -1.36,-0.99 -2.17,-0.54 -1.29,0.73 -2.55,1.5 -3.91,2.3 0.28,0.34 0.42,0.52 0.73,0.84 z m 25.88,11.8 c 0.18,-0.2 0.37,-0.41 0.61,-0.68 -0.41,-0.3 -0.75,-0.55 -1.19,-0.87 -1.46,1.36 -2.87,2.66 -4.31,4 1.22,0.77 1.23,0.77 2,0.1 0.92,-0.79 1.82,-1.6 2.89,-2.55 z m 3.43,4.02 c 0.32,-0.35 0.63,-0.7 0.99,-1.1 -0.36,-0.33 -0.64,-0.58 -0.98,-0.89 -1.29,0.79 -2.51,1.57 -3.62,2.83 0.78,0.29 1.35,0.5 1.99,0.74 0.51,-0.5 0.99,-0.97 1.62,-1.58 z m 2.17,0.35 c -0.18,-0.21 -0.36,-0.42 -0.59,-0.69 -0.78,0.72 -1.59,1.29 -2.11,2.27 1.21,0.33 2.27,0.85 3.66,0.27 -0.3,-0.61 -0.57,-1.15 -0.96,-1.85 z m -32.01,-19.64 c -0.55,0.36 -1.09,0.72 -1.85,1.22 0.39,0.41 0.65,0.67 0.91,0.94 1.41,-0.88 2.61,-1.64 3.84,-2.41 -1.03,-1.12 -1.87,-0.38 -2.9,0.25 z m -3.23,-1.08 c 0.32,0.51 0.64,1.02 0.98,1.58 0.94,-0.62 1.73,-1.13 2.71,-1.77 -1.17,-0.52 -2.14,-0.73 -3.16,-0.68 -0.4,0.02 -0.64,0.19 -0.53,0.87 z M 358.81,215.59 c 0.48,0.25 0.96,0.5 1.47,0.77 0,-1.22 0,-2.3 0,-3.38 -0.1,-0.03 -0.2,-0.07 -0.3,-0.1 -0.52,0.83 -1.04,1.66 -1.55,2.5 -0.01,0 0.11,0.1 0.38,0.21 z m -5.95,-18.3 c -0.25,-0.28 -0.5,-0.55 -0.81,-0.9 -0.2,0.26 -0.36,0.46 -0.53,0.69 0.58,0.48 1.1,0.91 1.62,1.34 0.08,-0.06 0.16,-0.13 0.24,-0.19 -0.13,-0.26 -0.25,-0.52 -0.52,-0.94 z m 0.19,-2.02 c -0.17,0.21 -0.35,0.41 -0.57,0.67 0.47,0.35 0.87,0.64 1.35,1 0.18,-0.81 -0.01,-1.34 -0.78,-1.67 z m -5.33,7.43 c -0.14,-0.13 -0.28,-0.26 -0.42,-0.39 -0.05,0.06 -0.11,0.12 -0.16,0.19 0.22,0.19 0.45,0.38 0.67,0.57 -0.01,-0.09 0,-0.18 -0.09,-0.37 z"
   id="path1" />
	</g>
</g>
</svg>
