<?xml version="1.0" encoding="UTF-8" standalone="no"?>
<!-- Generator: Adobe Adobe Illustrator 24.2.0, SVG Export Plug-In . SVG Version: 6.00 Build 0)  -->

<svg
   version="1.1"
   id="Layer_1"
   x="0px"
   y="0px"
   width="279.80777"
   height="93.042374"
   viewBox="0 0 279.80777 93.042374"
   xml:space="preserve"
   sodipodi:docname="arverja.svg"
   inkscape:version="1.4 (e7c3feb1, 2024-10-09)"
   xmlns:inkscape="http://www.inkscape.org/namespaces/inkscape"
   xmlns:sodipodi="http://sodipodi.sourceforge.net/DTD/sodipodi-0.dtd"
   xmlns="http://www.w3.org/2000/svg"
   xmlns:svg="http://www.w3.org/2000/svg"><defs
   id="defs108" /><sodipodi:namedview
   id="namedview108"
   pagecolor="#ffffff"
   bordercolor="#000000"
   borderopacity="0.25"
   inkscape:showpageshadow="2"
   inkscape:pageopacity="0.0"
   inkscape:pagecheckerboard="0"
   inkscape:deskcolor="#d1d1d1"
   inkscape:zoom="1.6816667"
   inkscape:cx="114.17245"
   inkscape:cy="81.764123"
   inkscape:window-width="1200"
   inkscape:window-height="1186"
   inkscape:window-x="0"
   inkscape:window-y="0"
   inkscape:window-maximized="0"
   inkscape:current-layer="Layer_1" />
<g
   id="g108"
   transform="translate(-186.4602,-231.10495)">
	<g
   id="g107">
		<path
   d="m 262.15,302.1 c -0.53,-0.89 -1.05,-1.66 -1.47,-2.48 -0.3,-0.58 -0.69,-0.88 -1.34,-0.97 -3.32,-0.43 -6.42,-1.63 -9.55,-2.74 -0.73,-0.26 -1.46,-0.58 -2.14,-0.95 -10.12,-5.5 -18.95,-12.51 -25.89,-21.81 -2.27,-3.04 -4.83,-5.88 -7.26,-8.8 -0.29,-0.35 -0.66,-0.63 -1.16,-0.81 0.51,1.08 1.07,2.15 1.53,3.26 0.26,0.64 0.86,1.39 0.16,2.02 -0.62,0.55 -1.34,0.05 -1.89,-0.3 -1.43,-0.91 -2.88,-1.83 -4.18,-2.91 -1.96,-1.63 -3.6,-3.57 -5.04,-5.68 -0.16,-0.24 -0.34,-0.48 -0.52,-0.7 -0.05,-0.06 -0.17,-0.07 -0.33,-0.14 -0.79,2.58 -0.79,5.19 -0.46,7.81 0.12,0.92 0.4,1.81 0.58,2.72 0.08,0.38 0.15,0.78 0.11,1.15 -0.06,0.57 -0.56,0.85 -1.07,0.59 -0.38,-0.19 -0.73,-0.49 -1.03,-0.79 -2.51,-2.53 -3.7,-5.68 -4.33,-9.11 -0.52,-2.85 -0.12,-5.65 0.5,-8.42 0.23,-1.05 -0.05,-1.67 -0.83,-2.39 -3.85,-3.58 -7.06,-7.67 -9.58,-12.3 -0.59,-1.08 -0.68,-2.1 -0.15,-3.2 0.47,-0.96 0.78,-2.02 1.37,-2.9 1.02,-1.54 2.16,-1.52 3.21,0.02 0.63,0.92 1.16,1.92 1.64,2.93 1.76,3.68 3.84,7.13 6.86,9.95 0.35,0.33 0.7,0.65 1.02,0.94 1.76,-0.77 3.4,-1.51 5.06,-2.2 3.19,-1.35 6.52,-1.74 9.89,-0.97 1.39,0.32 2.68,1.11 4,1.72 0.25,0.12 0.49,0.35 0.65,0.58 0.32,0.47 0.09,1.03 -0.47,1.1 -0.33,0.04 -0.68,-0.04 -1.01,-0.09 -3.38,-0.52 -6.5,0.21 -9.38,2.01 -0.1,0.07 -0.16,0.21 -0.35,0.48 1.63,0.13 3.14,0.11 4.59,0.4 2.91,0.58 5.83,1.18 8.67,2.04 10.35,3.16 20.92,5.19 31.63,6.54 3.04,0.39 6.1,0.72 9.18,0.45 3.01,-0.27 5.91,0.5 8.85,0.95 0.91,0.14 1.84,0.17 2.76,0.21 2.97,0.11 5.95,0.2 8.92,0.28 3.81,0.11 7.61,0.19 11.42,0.31 2.73,0.08 5.46,0.2 8.19,0.27 1.29,0.04 2.42,-0.24 3.55,-1.04 2.65,-1.87 5.73,-2.65 8.91,-3.06 3.61,-0.46 7.21,-0.07 10.79,0.4 2.09,0.27 3.92,1.15 5.59,2.39 0.61,0.45 1.23,0.69 2.01,0.69 7.03,0.06 14.05,0.18 21.08,0.2 1.04,0 2.14,-0.25 3.13,-0.61 5.43,-1.94 10.96,-2.56 16.71,-1.82 2.24,0.29 4.57,-0.05 6.85,-0.23 6.06,-0.49 11.72,-2.42 17.21,-4.92 1.01,-0.46 2.11,-0.77 3.18,-1.06 0.55,-0.15 1.17,-0.19 1.74,-0.14 1.23,0.1 1.74,0.88 1.31,2.03 -0.2,0.54 -0.49,1.08 -0.85,1.53 -4.31,5.35 -7.04,11.55 -9.85,17.73 -1.2,2.65 -2.82,5.13 -4.44,7.55 -0.74,1.1 -1.92,1.93 -2.95,2.82 -1.25,1.07 -2.56,2.07 -4.1,3.3 0.92,0.1 1.53,0.24 2.13,0.22 4.19,-0.12 8.38,-0.31 12.58,-0.41 4.24,-0.11 8.49,-0.17 12.74,-0.21 4.73,-0.03 9.47,-0.01 14.22,-0.01 0.08,-0.43 0.01,-0.99 0.27,-1.27 0.29,-0.32 0.85,-0.49 1.31,-0.55 3.8,-0.49 7.4,-0.1 10.51,2.46 1.24,1.02 2.53,2 3.84,2.93 2.15,1.52 4.49,1.73 6.77,0.47 2.34,-1.29 4.58,-2.78 6.83,-4.24 2.13,-1.38 4.22,-2.82 6.32,-4.24 2.08,-1.4 3.33,-0.35 4.2,1.39 0.24,0.48 0.5,0.95 0.73,1.43 0.74,1.58 0.58,2.89 -0.77,3.95 -2.88,2.25 -5.83,4.42 -8.79,6.56 -1.3,0.94 -2.74,1.7 -4.07,2.6 -2.05,1.38 -3.7,3.17 -5.06,5.23 -0.93,1.4 -1.63,2.87 -1.91,4.55 -0.18,1.06 -0.46,2.1 -0.74,3.13 -1.1,4.05 -3.7,6.73 -7.66,7.97 -1.94,0.61 -3.99,0.89 -6.01,1.19 -1.06,0.16 -1.11,0.02 -1.47,-1.22 -0.41,0.13 -0.83,0.24 -1.23,0.39 -6.75,2.51 -13.69,4.28 -20.8,5.34 -5.48,0.81 -11,0.67 -16.5,0.01 -6.54,-0.79 -13.07,-1.7 -19.62,-2.33 -2.8,-0.27 -5.65,0.07 -8.48,0.12 -5.72,0.1 -11.37,1 -17.05,1.54 -4.25,0.4 -8.49,0.26 -12.71,-0.26 -3.92,-0.48 -7.82,-1.12 -11.74,-1.65 -5.01,-0.67 -10.02,-0.48 -15.05,-0.08 -8.11,0.66 -16.13,0 -23.86,-2.57 -7.36,-2.45 -13.47,-6.8 -18.01,-13.18 -0.74,-0.97 -1.41,-1.99 -2.15,-3.09 z m -73.79,-64.42 c 0.6,-1.16 1.16,-2.33 1.8,-3.47 0.4,-0.71 0.43,-1.26 -0.37,-1.69 -0.14,0.07 -0.33,0.11 -0.37,0.21 -0.57,1.22 -1.17,2.43 -1.63,3.7 -0.2,0.56 0.06,1.14 0.6,1.64 0.06,0.18 0.09,0.38 0.18,0.55 2.22,3.87 5,7.3 8.12,10.47 0.12,0.12 0.34,0.15 0.52,0.42 0.17,0.17 0.32,0.38 0.53,0.51 1.03,0.66 1.13,1.56 0.89,2.68 -0.29,1.38 -0.5,2.78 -0.65,4.19 -0.43,4.09 0.65,7.82 2.84,11.26 0.15,0.24 0.41,0.41 0.78,0.76 -0.15,-1.12 -0.29,-1.98 -0.37,-2.85 -0.25,-2.7 0.05,-5.36 0.65,-7.99 0.14,-0.6 0.1,-1.4 0.84,-1.56 0.81,-0.18 0.97,0.67 1.28,1.18 1.9,3.11 4.27,5.81 7.11,8.1 0.7,0.56 1.42,1.09 2.61,1.5 -0.4,-0.83 -0.63,-1.35 -0.89,-1.86 -1.47,-2.77 -3.2,-5.36 -5.32,-7.68 -0.69,-0.76 -1.39,-1.51 -2.04,-2.29 -0.9,-1.08 -0.7,-1.73 0.7,-2.02 0.8,-0.17 1.65,-0.24 2.46,-0.14 3.87,0.47 7.25,2.19 10.52,4.18 0.33,0.2 0.67,0.38 1.01,0.57 -1.42,-2.55 -3.27,-4.6 -5.72,-6.03 -2.11,-1.23 -4.35,-1.97 -6.84,-1.61 -0.19,0.03 -0.39,0.04 -0.58,0.01 -0.71,-0.12 -0.97,-0.66 -0.62,-1.29 0.2,-0.36 0.42,-0.71 0.86,-1 0.99,-0.57 1.99,-1.15 2.96,-1.71 -0.28,-0.8 -0.52,-1.47 -0.79,-2.22 -0.4,0.12 -0.74,0.22 -1.03,0.31 -0.09,0.88 0.7,1.59 0.18,2.49 -0.91,-0.52 -0.57,-1.59 -1.24,-2.22 -0.22,0.09 -0.47,0.18 -0.64,0.25 0.13,1.09 0.25,2.07 0.17,3.09 -0.39,-0.85 -0.78,-1.69 -1.21,-2.64 -0.49,0.22 -0.96,0.43 -1.47,0.66 0.23,1.06 0.47,2 0.62,2.95 0.14,0.89 0.77,1.77 0.15,3 -1.01,-1.88 -0.91,-3.85 -1.61,-5.66 -0.41,0.21 -0.74,0.37 -1.03,0.51 0.38,3.64 0.38,3.64 -0.3,4.07 -0.13,-0.98 -0.25,-1.94 -0.39,-2.88 -0.1,-0.7 -0.49,-0.72 -1,-0.49 -0.26,2.27 -0.26,2.27 -0.85,2.77 0,-0.97 -0.05,-1.78 0.01,-2.59 0.07,-0.83 -0.19,-1.38 -1.05,-1.73 -0.24,0.7 -0.41,1.36 -0.69,1.97 -0.21,0.46 -0.56,0.86 -0.85,1.03 0.24,-1.03 0.44,-2.07 0.73,-3.09 0.16,-0.56 0.28,-1.02 -0.41,-1.3 -0.8,0.77 -0.52,2.17 -1.84,2.89 0.11,-0.59 0.14,-0.96 0.25,-1.31 0.21,-0.65 0.48,-1.28 0.71,-1.92 0.23,-0.67 -0.02,-1.07 -0.68,-1.29 -0.94,2.39 -0.94,2.39 -1.58,2.72 0.03,-0.33 0,-0.61 0.08,-0.87 0.21,-0.7 0.43,-1.4 0.69,-2.08 0.29,-0.73 0.2,-1.31 -0.52,-1.78 -0.76,0.78 -0.66,2.12 -1.93,2.89 0.08,-0.55 0.06,-0.87 0.17,-1.14 0.31,-0.77 0.66,-1.52 1,-2.28 0.24,-0.54 0.16,-1 -0.43,-1.43 -0.29,0.52 -0.52,0.99 -0.82,1.43 -0.29,0.43 -0.28,1.17 -1.2,1.19 0.07,-0.34 0.07,-0.63 0.17,-0.86 0.29,-0.62 0.62,-1.22 0.93,-1.82 0.59,-1.12 0.6,-1.12 -0.34,-2.23 -0.95,0.8 -0.99,2.28 -2.32,3.17 0.09,-0.56 0.08,-0.9 0.21,-1.17 0.39,-0.79 0.79,-1.57 1.27,-2.3 0.52,-0.78 0.45,-1.41 -0.32,-2.15 -0.53,0.93 -1.03,1.81 -1.54,2.68 -0.28,0.41 -0.41,0.96 -1.12,0.64 z m 239.23,62.31 c -0.57,0.46 -1.12,0.95 -1.72,1.36 -0.34,0.23 -0.8,0.48 -1.15,0.41 -0.6,-0.1 -0.58,-0.74 -0.55,-1.21 0.05,-0.77 0.1,-1.57 0.35,-2.29 0.67,-1.96 1.98,-3.46 3.76,-4.53 0.96,-0.58 1.98,-1.06 2.96,-1.6 0.64,-0.35 1.3,-0.69 1.89,-1.12 0.79,-0.57 0.9,-1.08 0.18,-1.66 -0.93,-0.75 -1.96,-1.54 -3.08,-1.86 -1.53,-0.43 -3.17,-0.56 -4.78,-0.6 -3.27,-0.09 -6.54,-0.02 -9.81,-0.05 -6.39,-0.06 -12.79,-0.23 -19.17,0.29 -5.81,0.47 -11.6,0.46 -17.39,-0.28 -7.86,-1.01 -15.77,-1.2 -23.68,-0.82 -4.77,0.23 -9.53,0.77 -14.31,1.01 -9.68,0.48 -19.32,0.16 -28.85,-1.82 -5.83,-1.21 -11.76,-1.83 -17.67,-2.5 -5.53,-0.62 -10.79,0.22 -15.88,2.37 -1.48,0.62 -3,1.17 -4.5,1.75 -4.53,1.74 -9.23,2.36 -14.07,2.13 -0.86,-0.04 -1.74,-0.1 -2.55,0.46 0.06,0.28 0.08,0.52 0.15,0.75 0.14,0.47 0.26,0.95 0.47,1.39 2.09,4.52 4.25,8.99 7.23,13.03 4.72,6.4 10.93,10.71 18.49,12.96 8.2,2.44 16.6,2.76 25.09,1.97 3.05,-0.28 6.16,-0.27 9.21,-0.01 4.42,0.39 8.8,1.16 13.2,1.72 5.44,0.69 10.88,0.94 16.35,0.23 3.29,-0.42 6.59,-0.74 9.9,-1.03 2.43,-0.21 4.87,-0.36 7.31,-0.44 2.34,-0.07 4.71,-0.21 7.02,0.03 6.5,0.69 12.98,1.58 19.47,2.35 5.16,0.62 10.32,0.69 15.47,-0.03 5.52,-0.77 10.93,-2.06 16.23,-3.77 3.15,-1.01 6.23,-2.27 9.34,-3.42 2.39,-0.88 3.62,-2.74 4,-5.12 0.18,-1.16 0.47,-2.18 1.16,-3.09 0.5,-0.66 1.07,-1.27 1.59,-1.91 0.35,-0.43 0.79,-0.84 0.6,-1.75 -0.57,0.33 -1.08,0.5 -1.42,0.84 -0.72,0.72 -1.37,1.52 -2.03,2.3 -0.75,0.9 -1.41,1.88 -2.23,2.7 -2.01,2.03 -4.51,2.84 -7.33,2.63 -0.43,-0.03 -1,-0.27 -1.21,-0.6 -0.35,-0.57 0.2,-0.99 0.61,-1.32 0.61,-0.49 1.25,-0.94 1.91,-1.35 2.49,-1.53 4.3,-3.69 5.53,-6.29 0.47,-0.99 0.69,-2.12 0.83,-3.22 0.1,-0.83 -0.39,-1.25 -1.23,-1.3 -0.43,-0.02 -0.87,0.06 -1.3,0.15 -1.6,0.34 -2.96,1.09 -4.39,2.16 z M 232.2,282.7 c 4.04,3.65 8.54,6.63 13.16,9.49 3.91,2.42 8.19,3.85 12.58,5.02 0.44,0.12 0.91,0.13 1.6,0.23 -0.34,-0.72 -0.57,-1.2 -0.79,-1.67 -0.57,-1.19 -1.17,-2.36 -1.69,-3.57 -0.31,-0.71 -0.55,-1.47 -0.7,-2.23 -0.22,-1.18 0.14,-1.76 1.3,-2.05 0.65,-0.16 1.35,-0.16 2.02,-0.2 2.28,-0.12 4.57,-0.2 6.86,-0.34 4.51,-0.28 8.49,-2.3 12.63,-3.85 -0.08,-0.15 -0.09,-0.22 -0.11,-0.22 -0.44,-0.02 -0.87,-0.04 -1.31,-0.04 -3.77,0.02 -7.52,-0.21 -11.15,-1.32 -8.49,-2.59 -16.48,-6.3 -24.05,-10.91 -4.21,-2.56 -8.36,-5.21 -12.54,-7.82 -2.31,-1.45 -4.63,-2.89 -6.94,-4.34 -0.25,-0.16 -0.51,-0.32 -0.92,-0.58 0.2,0.63 0.38,1.04 0.45,1.46 0.13,0.8 -0.44,1.24 -1.16,0.89 -0.48,-0.23 -0.89,-0.59 -1.32,-0.92 -2.75,-2.08 -5.78,-3.64 -9.08,-4.63 -1.11,-0.33 -2.29,-0.42 -3.45,-0.57 -0.28,-0.04 -0.58,0.13 -1.05,0.24 1.94,1.98 3.36,4.17 5.56,5.64 0.92,0.62 1.71,1.45 2.52,2.23 2.99,2.9 5.49,6.21 8.02,9.5 2.86,3.72 5.91,7.27 9.56,10.56 z m 153.71,-10.89 c -3.56,1.96 -7.19,3.71 -11.19,4.59 -2,0.44 -4.01,0.86 -5.96,1.47 -6.7,2.08 -13.54,2.15 -20.43,1.48 -2.77,-0.27 -5.54,-0.59 -8.31,-0.63 -4.53,-0.07 -9.07,0.05 -13.6,0.13 -2.1,0.04 -4.19,0.11 -6.28,0.27 -3.74,0.29 -7.47,0.71 -11.22,0.99 -3.26,0.24 -6.53,0.35 -9.79,0.54 -1.49,0.09 -2.99,0.19 -4.63,0.7 0.33,0.1 0.45,0.16 0.57,0.17 6.07,0.57 12.11,1.39 18.1,2.56 6.82,1.33 13.7,2.09 20.65,1.86 5.7,-0.19 11.4,-0.56 17.09,-0.91 5.16,-0.32 10.32,-0.7 15.5,-0.34 4.72,0.32 9.43,0.65 14.15,1.03 0.69,0.05 1.2,-0.05 1.73,-0.5 1.76,-1.46 3.58,-2.87 5.34,-4.33 0.63,-0.53 1.31,-1.08 1.74,-1.76 1.48,-2.35 2.97,-4.7 4.25,-7.16 1.31,-2.5 2.39,-5.13 3.56,-7.7 0.15,-0.32 0.24,-0.67 0.36,-1.01 -3.55,3.26 -7.2,6.25 -11.63,8.55 z m -58.08,2.84 c 3.36,-0.1 6.72,-0.2 10.12,-0.3 0.62,-1.27 0.74,-2.6 0.57,-3.98 -0.37,-2.99 -1.87,-5.38 -3.79,-7.6 -2.64,-3.05 -5.8,-5.04 -9.91,-5.26 -0.44,-0.02 -0.87,-0.1 -1.31,-0.14 -4.11,-0.37 -8.19,-0.32 -12.15,1.07 -5.08,1.78 -8.43,5.33 -10.47,10.19 -1.07,2.55 -0.59,4.97 1.06,7.17 0.5,0.67 1.06,0.94 1.99,0.86 7.86,-0.7 15.74,-1.33 23.89,-2.01 z M 264.67,276 c 7.79,2.28 15.7,3.41 23.93,2.53 0.11,-0.56 0.26,-1.08 0.3,-1.6 0.34,-4.77 -1.31,-8.7 -5.01,-11.73 -1.91,-1.56 -4.04,-2.73 -6.42,-3.42 -1.59,-0.46 -3.18,-0.93 -4.8,-1.23 -3.3,-0.6 -6.56,-1.37 -9.99,-1.06 -5.34,0.49 -9.7,2.7 -13.14,6.78 -0.43,0.51 -0.72,1.12 -1.11,1.73 5,3.55 10.24,6.29 16.24,8 z m 87.23,-6.72 c -0.28,1.79 0.02,3.49 0.67,5.16 0.22,0.56 0.56,0.85 1.2,0.86 3.66,0.05 7.33,0.04 10.94,-0.67 7.1,-1.4 13.71,-4.14 20.15,-7.35 0.86,-0.43 1.17,-1.05 1,-1.86 -0.13,-0.64 -0.4,-1.32 -0.79,-1.83 -1.96,-2.57 -4.72,-3.89 -7.78,-4.58 -4.59,-1.03 -9.23,-1.06 -13.8,0.03 -6.21,1.48 -7.87,2.15 -10.93,8.35 -0.25,0.52 -0.4,1.1 -0.66,1.89 z m 89.25,35.08 c -0.57,0.78 -1.12,1.58 -1.71,2.35 -0.77,1.01 -1.7,1.93 -1.67,3.32 0.02,1.13 -0.35,2.13 -1.02,2.99 -0.9,1.15 -1.89,2.23 -2.86,3.32 -0.31,0.35 -0.66,0.68 -0.99,1.02 0.04,0.08 0.09,0.17 0.13,0.25 1.43,-0.39 2.87,-0.79 4.29,-1.18 -0.07,-0.52 -0.12,-0.87 -0.19,-1.4 0.54,0.29 0.91,0.49 1.37,0.74 0.54,-0.39 1.11,-0.8 1.65,-1.18 -0.37,-0.84 -1.39,-0.97 -1.46,-1.94 1.08,-0.17 1.39,1.09 2.41,1.12 0.39,-0.62 0.79,-1.25 1.15,-1.83 -0.55,-0.93 -1.7,-1.17 -1.66,-2.44 0.67,0.46 1.34,0.93 2.01,1.39 0.97,-1.85 0.97,-1.85 -0.49,-3.06 -0.31,-0.26 -0.76,-0.45 -0.57,-1.26 0.72,0.45 1.34,0.84 2.1,1.32 0.21,-1.02 0.39,-1.9 0.54,-2.63 -0.6,-0.86 -1.69,-0.9 -2,-1.92 1.01,-0.27 1.49,0.79 2.4,0.78 0.19,-0.43 0.38,-0.86 0.53,-1.21 -0.69,-1.22 -2.04,-1.79 -2.49,-3.3 1.51,0.36 1.86,1.87 3.1,2.37 0.38,-0.56 0.75,-1.11 1.07,-1.59 -0.45,-1.26 -1.63,-2.03 -1.75,-3.53 1.33,0.57 1.39,2.05 2.47,2.63 0.59,-0.62 1.15,-1.22 1.73,-1.83 -0.47,-0.86 -0.9,-1.62 -1.32,-2.39 -0.84,-1.54 -0.83,-1.54 -0.54,-2.55 0.87,1.53 1.65,2.89 2.49,4.36 0.69,-0.52 1.3,-0.97 1.94,-1.45 -0.53,-0.81 -1.03,-1.47 -1.43,-2.19 -0.36,-0.66 -1.08,-1.23 -0.7,-2.5 1.02,1.54 1.88,2.84 2.81,4.24 0.66,-0.42 1.21,-0.76 1.8,-1.14 -0.61,-0.86 -1.2,-1.59 -1.66,-2.39 -0.41,-0.73 -1.25,-1.34 -0.86,-2.64 1.31,1.55 1.94,3.34 3.39,4.57 0.44,-0.3 0.82,-0.57 1.24,-0.86 -0.54,-0.82 -1.07,-1.52 -1.49,-2.28 -0.42,-0.76 -1.28,-1.35 -1,-2.68 1.42,1.39 1.92,3.22 3.31,4.44 0.55,-0.39 1.05,-0.73 1.53,-1.07 -2.52,-4.01 -2.52,-4.01 -2.2,-4.92 0.99,1.54 1.93,2.98 2.91,4.5 0.66,-0.48 1.2,-0.86 1.78,-1.28 -0.59,-0.82 -1.15,-1.5 -1.6,-2.24 -0.45,-0.74 -1.29,-1.33 -1,-2.76 1.17,1.62 2.16,3 3.19,4.44 0.36,-0.28 0.6,-0.44 0.81,-0.64 0.2,-0.2 0.35,-0.44 0.5,-0.63 -2.24,-3.5 -2.24,-3.5 -2.17,-4.6 0.93,0.33 0.92,1.31 1.39,1.93 0.52,0.69 0.96,1.44 1.61,2.42 0.41,-0.72 0.95,-1.23 0.9,-1.67 -0.19,-1.6 -0.71,-3.11 -2.33,-4.15 -1.4,0.9 -2.8,1.78 -4.17,2.69 -2.84,1.89 -5.65,3.83 -8.51,5.69 -3.84,2.49 -7.53,2.25 -11.05,-0.71 -1.01,-0.85 -2.05,-1.66 -3.1,-2.45 -2.16,-1.64 -4.66,-2 -7.31,-1.83 0.41,0.35 0.88,0.54 1.32,0.79 1.4,0.79 2.9,1.45 4.14,2.44 1.74,1.39 1.59,2.95 -0.29,4.14 -1.36,0.86 -2.82,1.55 -4.23,2.32 -1.55,0.84 -2.73,2.04 -3.45,3.66 -0.2,0.46 -0.33,0.95 -0.49,1.43 1.02,-0.44 1.79,-1.03 2.61,-1.55 1.54,-0.98 3.19,-1.7 5.06,-1.71 1.85,0 2.98,1.16 2.7,3 -0.19,1.23 -0.56,2.49 -1.11,3.61 -1.34,2.72 -3.27,4.96 -5.88,6.57 -0.35,0.21 -0.65,0.5 -1.13,0.88 2.32,-0.03 4.15,-0.75 5.61,-2.29 0.9,-0.95 1.61,-2.08 2.49,-3.06 0.84,-0.93 1.69,-1.93 2.73,-2.61 1.54,-1.05 2.68,-0.29 2.67,1.82 z m -49.08,-38.11 c 1.43,-1.24 2.92,-2.41 4.12,-3.9 -1.21,0.66 -2.31,1.45 -3.48,2.13 -5.57,3.25 -11.32,6.15 -17.36,8.42 -5.09,1.91 -10.29,3.5 -15.77,3.59 -4.53,0.07 -9.09,0.04 -13.61,-0.32 -6.59,-0.53 -13.16,-0.6 -19.74,-0.13 -4.33,0.31 -8.66,0.68 -12.98,1.09 -4.47,0.42 -8.93,0.9 -13.39,1.38 -4.61,0.5 -9.2,1.2 -13.82,1.5 -5.92,0.39 -11.79,-0.27 -17.57,-1.66 -5.72,-1.38 -11.24,-3.26 -16.29,-6.36 -3.74,-2.3 -7.53,-4.52 -11.28,-6.81 -3.68,-2.24 -7.58,-4.03 -11.52,-5.74 -1.7,-0.74 -3.44,-1.39 -5.16,-2.06 -0.27,-0.1 -0.59,-0.09 -0.88,-0.12 -0.04,0.09 -0.08,0.18 -0.12,0.28 0.87,0.6 1.72,1.23 2.62,1.78 4.83,2.95 9.73,5.79 14.49,8.85 8.1,5.19 16.66,9.36 25.81,12.32 2.62,0.85 5.3,1.35 8.05,1.38 2.87,0.03 5.76,0.08 8.62,-0.14 3.01,-0.24 6.02,-0.64 8.98,-1.25 3.07,-0.63 6.15,-1.06 9.27,-1.24 3.55,-0.21 7.11,-0.39 10.66,-0.65 3.55,-0.26 7.09,-0.68 10.64,-0.88 3.16,-0.17 6.34,-0.06 9.51,-0.21 5.97,-0.28 11.89,0.16 17.83,0.67 4.03,0.35 8.1,0.62 12.12,-0.12 3.02,-0.56 6.01,-1.28 8.99,-2.01 2.65,-0.65 5.35,-1.21 7.88,-2.2 4.74,-1.87 9.2,-4.3 13.38,-7.59 z m -108.91,-3.18 c 5.48,3.59 7.66,8.71 6.99,15.13 1.6,0.2 9.56,-0.83 10.92,-1.4 -0.01,-0.05 0,-0.1 -0.03,-0.14 -0.18,-0.29 -0.36,-0.58 -0.54,-0.86 -1.6,-2.49 -1.77,-5.12 -0.74,-7.84 0.79,-2.08 2.08,-3.85 3.45,-5.58 0.22,-0.28 0.42,-0.59 0.7,-0.98 -8.29,-0.22 -16.4,-0.44 -24.52,-0.66 -0.01,0.06 -0.03,0.12 -0.04,0.17 1.2,0.69 2.42,1.37 3.81,2.16 z m -29.37,-2.12 c 0.94,-0.49 1.87,-0.98 2.85,-1.5 -0.15,-0.1 -0.22,-0.18 -0.29,-0.19 -0.53,-0.08 -1.06,-0.14 -1.6,-0.21 -9.39,-1.16 -18.71,-2.74 -27.83,-5.34 -2.86,-0.82 -5.7,-1.7 -8.56,-2.52 -1.1,-0.31 -2.24,-0.52 -3.62,-0.84 1.65,1.45 3.06,2.7 4.49,3.91 0.24,0.21 0.62,0.26 0.94,0.37 2.52,0.9 5.08,1.72 7.57,2.7 6.36,2.52 12.39,5.71 18.21,9.31 0.45,0.28 0.91,0.52 1.39,0.79 1.59,-2.71 3.72,-4.75 6.45,-6.48 z m 92.79,14.01 c 1.59,0 3.19,0 4.78,0 0.01,-0.03 0.03,-0.08 0.02,-0.13 -0.09,-0.33 -0.18,-0.65 -0.28,-0.98 -0.81,-2.64 -0.74,-5.22 0.64,-7.65 0.84,-1.48 1.84,-2.86 2.77,-4.29 0.17,-0.26 0.33,-0.52 0.59,-0.93 -6.8,0 -13.38,0 -20.29,0 3.77,3.88 5.93,8.08 4.69,13.44 2.35,0.17 4.58,0.34 7.08,0.54 z m 46.21,-18.83 c -3.86,1.33 -7.83,2.15 -11.98,2.5 3.05,1.69 5.88,3.46 6.58,7.21 0.22,-0.07 0.41,-0.1 0.57,-0.18 2.88,-1.54 5.72,-3.15 8.33,-5.14 1.47,-1.12 3.01,-2.15 4.52,-3.22 0.23,-0.17 0.48,-0.34 0.66,-0.56 0.83,-1.09 1.64,-2.18 2.43,-3.29 0.21,-0.3 0.31,-0.67 0.48,-1.04 -1.24,-0.18 -2.6,0.11 -4.19,0.77 -2.38,0.97 -4.78,1.92 -7.4,2.95 z M 216.68,244.58 c -0.88,-0.23 -1.75,-0.49 -2.63,-0.69 -0.74,-0.17 -1.42,-0.12 -1.68,1.18 -0.53,-1.15 -1.11,-1.54 -2.03,-0.86 0.14,0.58 0.28,1.18 0.46,1.93 1.88,-0.95 3.85,-1.23 5.88,-1.56 z"
   id="path1" />
		<path
   d="m 372.76,314.23 c -0.45,-0.76 -0.86,-1.42 -1.23,-2.11 -0.21,-0.39 -0.41,-0.88 0.14,-1.14 0.55,-0.25 0.8,0.23 0.98,0.62 1.05,2.32 2.7,4.04 5.02,5.1 0.09,0.04 0.21,0.08 0.24,0.16 0.1,0.25 0.17,0.51 0.26,0.76 -0.26,0.07 -0.59,0.29 -0.76,0.2 -1.06,-0.59 -2.13,-1.19 -3.1,-1.9 -0.57,-0.43 -0.99,-1.07 -1.55,-1.69 z"
   id="path2" />
		<path
   d="m 393.64,308.98 c -2.74,2.18 -5.39,4.3 -8.2,6.54 0.04,-0.36 0.01,-0.62 0.1,-0.83 0.1,-0.21 0.3,-0.38 0.48,-0.54 2.73,-2.44 5.47,-4.87 8.57,-6.85 0.46,-0.29 0.89,-0.81 1.68,-0.46 -0.56,1.1 -1.74,1.36 -2.63,2.14 z"
   id="path3" />
		<path
   d="m 378.68,310.42 c 3.22,-2.54 6.38,-4.96 9.91,-6.86 0.07,-0.04 0.24,0.11 0.44,0.21 -0.1,0.19 -0.18,0.35 -0.27,0.51 0,0 -10.62,7.38 -10.66,7.41 -0.31,-0.62 0.21,-0.86 0.58,-1.27 z"
   id="path4" />
		<path
   d="m 395.04,311.83 c -2.01,1.68 -3.94,3.3 -5.87,4.92 -0.02,0.02 -0.09,-0.02 -0.27,-0.07 0.05,-0.23 0.05,-0.52 0.18,-0.7 0.22,-0.32 0.5,-0.61 0.8,-0.85 2.53,-2.05 5.07,-4.1 7.63,-6.11 0.37,-0.29 0.8,-0.76 1.48,-0.29 -0.39,0.85 -1.26,1.05 -1.87,1.55 -0.65,0.52 -1.34,0.99 -2.08,1.55 z"
   id="path5" />
		<path
   d="m 392.25,306.19 c -3.32,2.29 -6.55,4.53 -9.79,6.76 -0.04,0.03 -0.16,-0.08 -0.44,-0.22 0.34,-0.37 0.63,-0.72 0.96,-1.02 2.49,-2.17 8.27,-6.03 9.8,-6.46 -0.2,0.41 -0.32,0.65 -0.53,0.94 z"
   id="path6" />
		<path
   d="m 331.33,309.94 c -3.48,5.28 -4.87,7.03 -5.93,7.38 0.03,-0.22 0,-0.43 0.09,-0.56 2.24,-3.24 4.5,-6.47 6.76,-9.69 0.05,-0.07 0.26,-0.03 0.5,-0.04 -0.05,1.18 -0.9,1.91 -1.42,2.91 z"
   id="path7" />
		<path
   d="m 326.25,312.18 c -1.22,1.61 -2.3,3.2 -3.61,4.59 -0.09,-0.04 -0.18,-0.08 -0.27,-0.12 0.02,-0.24 -0.03,-0.51 0.08,-0.71 0.18,-0.34 0.47,-0.62 0.69,-0.94 1.75,-2.57 3.48,-5.14 5.23,-7.71 0.28,-0.41 0.37,-1.03 1.05,-1.07 0.11,1.01 -0.4,1.96 -3.17,5.96 z"
   id="path8" />
		<path
   d="m 320.29,313.53 c -1.09,1.49 -2.49,2.43 -3.95,3.31 -0.16,0.1 -0.35,0.24 -0.52,0.24 -0.26,0 -0.52,-0.11 -0.78,-0.17 0.08,-0.29 0.08,-0.68 0.27,-0.85 0.39,-0.35 0.87,-0.6 1.33,-0.87 1.41,-0.82 2.51,-1.96 3.37,-3.34 0.1,-0.17 0.17,-0.39 0.31,-0.48 0.25,-0.15 0.56,-0.21 0.84,-0.31 0.04,0.31 0.2,0.67 0.09,0.91 -0.22,0.52 -0.58,0.99 -0.96,1.56 z"
   id="path9" />
		<path
   d="m 393.36,318.17 c -0.24,-0.05 -0.4,-0.15 -0.57,-0.25 0.15,-0.24 0.26,-0.54 0.46,-0.72 2.31,-2.08 4.62,-4.17 6.96,-6.21 0.39,-0.34 0.87,-0.8 1.74,-0.38 -0.89,1.04 -2.09,1.5 -2.98,2.32 -0.93,0.86 -1.92,1.65 -2.84,2.52 -0.92,0.87 -1.8,1.78 -2.77,2.72 z"
   id="path10" />
		<path
   d="m 334.25,309.65 c 0.52,-0.62 0.57,-1.57 1.63,-1.71 0.02,1.19 -0.83,1.88 -1.29,2.73 -0.45,0.86 -1.01,1.66 -1.55,2.47 -0.57,0.85 -1.14,1.7 -1.79,2.48 -0.59,0.71 -0.97,1.66 -1.98,2.05 -0.35,-0.59 0.11,-0.86 0.33,-1.18 1.53,-2.26 3.07,-4.51 4.65,-6.84 z"
   id="path11" />
		<path
   d="m 270.98,301.45 c 1.58,-1.73 3.1,-3.37 4.63,-5.01 0.08,-0.08 0.26,-0.06 0.37,-0.09 0.46,0.46 0.07,0.73 -0.18,1 -0.83,0.89 -1.72,1.73 -2.51,2.66 -1.1,1.3 -2.13,2.66 -3.2,3.99 -0.26,0.32 -0.52,0.65 -0.84,1.05 -0.26,-0.98 -0.26,-0.98 1.73,-3.6 z"
   id="path12" />
		<path
   d="m 379.53,304.82 c 2.3,-1.54 4.52,-3.02 6.74,-4.49 0.07,-0.05 0.25,0.08 0.46,0.16 -0.08,0.19 -0.11,0.43 -0.23,0.51 -2.77,1.91 -5.56,3.81 -8.5,5.82 -0.04,-1.23 0.94,-1.4 1.53,-2 z"
   id="path13" />
		<path
   d="m 279.29,305.95 c -1.18,1.74 -2.29,3.39 -3.51,5.19 -0.12,-0.32 -0.34,-0.62 -0.27,-0.75 1.57,-2.88 3.34,-5.62 5.73,-7.91 0.11,-0.1 0.33,-0.09 0.61,-0.16 0.1,0.99 -0.74,1.28 -1.12,1.83 -0.42,0.61 -0.92,1.15 -1.44,1.8 z"
   id="path14" />
		<path
   d="m 274.97,305.44 c 1.36,-1.69 2.74,-3.2 4.24,-4.64 0.62,0.7 0.14,0.97 -0.12,1.27 -0.91,1 -1.88,1.96 -2.76,3 -0.84,1 -1.59,2.08 -2.39,3.11 -0.19,0.24 -0.43,0.45 -0.71,0.75 -0.13,-1.07 -0.13,-1.07 1.74,-3.49 z"
   id="path15" />
		<path
   d="m 338.25,310.65 c -1.57,2.61 -3.15,5.07 -5.05,7.31 -0.09,-0.04 -0.19,-0.08 -0.28,-0.12 -0.01,-0.2 -0.11,-0.47 -0.01,-0.61 1.63,-2.47 3.29,-4.92 4.94,-7.38 0.04,-0.06 0.17,-0.07 0.46,-0.19 0,0.36 0,0.63 -0.06,0.99 z"
   id="path16" />
		<path
   d="m 279.99,309 c 1.23,-1.69 2.41,-3.29 3.59,-4.89 0.1,0.03 0.21,0.07 0.31,0.1 0.04,0.23 0.18,0.49 0.11,0.69 -0.09,0.26 -0.33,0.47 -0.5,0.71 -1.45,2.08 -2.89,4.15 -4.33,6.24 -0.11,0.16 -0.15,0.36 -0.29,0.69 -0.46,-1.11 -0.46,-1.11 1.11,-3.54 z"
   id="path17" />
		<path
   d="m 399.51,316.31 c -0.63,0.7 -1.2,1.33 -1.97,2.18 -0.23,-1.46 0.71,-1.92 1.25,-2.53 3.36,-3.8 4.09,-4.4 5.15,-4.36 -0.46,1.05 -1.44,1.56 -2.14,2.32 -0.72,0.8 -1.48,1.55 -2.29,2.39 z"
   id="path18" />
		<path
   d="m 306.18,304.19 c -1.62,2.25 -3.19,4.42 -4.77,6.58 -0.06,0.08 -0.26,0.05 -0.5,0.1 0.03,-1.2 1.05,-1.72 1.55,-2.54 0.53,-0.87 1.16,-1.69 1.73,-2.53 0.57,-0.84 1.11,-1.69 1.64,-2.49 0.65,0.15 0.6,0.45 0.35,0.88 z"
   id="path19" />
		<path
   d="m 269.36,296.02 c -1.35,1.5 -2.63,2.93 -3.91,4.36 -0.01,0.01 -0.09,-0.02 -0.25,-0.07 0.08,-1.24 1.05,-1.97 1.75,-2.81 2.43,-2.93 3.31,-3.68 4.37,-3.85 -0.27,1.11 -1.31,1.52 -1.96,2.37 z"
   id="path20" />
		<path
   d="m 374.96,297.04 c -0.32,0.43 -0.54,0.82 -0.86,1.11 -0.17,0.15 -0.5,0.12 -0.75,0.17 -0.04,-0.27 -0.18,-0.56 -0.1,-0.79 0.12,-0.35 0.34,-0.7 0.61,-0.98 0.77,-0.8 1.57,-1.57 2.38,-2.32 0.32,-0.3 0.77,-0.62 1.09,-0.1 0.12,0.2 -0.07,0.73 -0.28,0.96 -0.63,0.67 -1.34,1.25 -2.09,1.95 z"
   id="path21" />
		<path
   d="m 337.42,288.13 c 0.3,-0.24 0.52,-0.4 0.91,-0.68 -0.02,1.35 -1.05,1.85 -1.54,2.66 -0.51,0.83 -1.08,1.62 -1.68,2.39 -0.59,0.76 -0.85,1.83 -1.92,2.27 0.03,-1.16 1.58,-3.56 4.23,-6.64 z"
   id="path22" />
		<path
   d="m 308.95,305.11 c -1.29,1.84 -2.52,3.6 -3.76,5.34 -0.05,0.08 -0.26,0.05 -0.52,0.09 0.05,-0.29 0.02,-0.54 0.13,-0.71 1.5,-2.23 3.02,-4.46 4.66,-6.85 0.47,1.03 -0.22,1.47 -0.51,2.13 z"
   id="path23" />
		<path
   d="m 271.96,304.5 c 2.91,-3.77 3.46,-4.32 4.72,-4.44 -1.88,2.26 -3.64,4.37 -5.51,6.63 -0.36,-1.11 0.43,-1.51 0.79,-2.19 z"
   id="path24" />
		<path
   d="m 337.87,293.63 c -0.35,0.43 -0.65,0.78 -0.94,1.13 -0.12,-0.06 -0.24,-0.12 -0.35,-0.19 0.1,-0.32 0.14,-0.67 0.3,-0.94 1.7,-2.86 3.93,-5.53 5.05,-5.95 -0.32,1.31 -1.36,2.02 -1.99,3 -0.63,0.98 -1.34,1.91 -2.07,2.95 z"
   id="path25" />
		<path
   d="m 269.53,300.3 c -0.57,0.74 -1.07,1.39 -1.58,2.03 -0.04,0.05 -0.18,0.03 -0.34,0.05 -0.32,-0.67 0.24,-1.06 0.53,-1.49 1.79,-2.64 3.65,-4.49 4.89,-4.86 -0.05,1.12 -1.09,1.41 -1.61,2.09 -0.58,0.73 -1.22,1.4 -1.89,2.18 z"
   id="path26" />
		<path
   d="m 405.62,313.9 c 0.61,-0.52 1.14,-0.98 1.68,-1.43 0.09,0.07 0.19,0.15 0.28,0.22 -0.11,0.26 -0.16,0.58 -0.34,0.78 -1.59,1.71 -3.19,3.4 -4.8,5.08 -0.1,0.11 -0.32,0.11 -0.52,0.18 0.13,-1.21 0.58,-1.78 3.7,-4.83 z"
   id="path27" />
		<path
   d="m 282.89,312.21 c -0.24,0.19 -0.42,0.29 -0.66,0.43 0.11,-1.78 2.79,-5.85 4.37,-6.73 0.43,0.5 -0.06,0.76 -0.27,1.09 -1.13,1.7 -2.26,3.41 -3.44,5.21 z"
   id="path28" />
		<path
   d="m 330.87,293.87 c -0.27,0.2 -0.48,0.33 -0.77,0.49 0.12,-1.16 1.24,-3.12 3.19,-5.53 0.36,-0.44 0.55,-1.17 1.53,-1.12 -0.37,1.26 -1.35,2.02 -1.94,3.01 -0.62,1.04 -1.3,2.05 -2.01,3.15 z"
   id="path29" />
		<path
   d="m 300.31,306.46 c 1.37,-2.04 1.37,-2.04 2.13,-2.22 -0.18,1.08 -3.14,5.35 -4.35,6.22 -0.34,-0.97 0.55,-1.36 0.87,-1.96 0.38,-0.68 0.86,-1.3 1.35,-2.04 z"
   id="path30" />
		<path
   d="m 286.05,310.97 c 1.47,-2.34 1.97,-2.88 3.12,-3.37 -0.03,0.27 0.02,0.56 -0.09,0.68 -1.5,1.62 -2.66,3.46 -3.64,5.43 -0.06,0.11 -0.21,0.17 -0.33,0.26 -0.35,-0.78 -0.35,-0.78 0.94,-3 z"
   id="path31" />
		<path
   d="m 409.87,314.65 c -1.08,1.13 -2.09,2.18 -3.1,3.23 -0.03,0.03 -0.17,-0.05 -0.26,-0.09 0.29,-1.4 3.52,-4.8 5.08,-5.26 -0.08,1.11 -1.16,1.36 -1.72,2.12 z"
   id="path32" />
		<path
   d="m 337.09,316.02 c 1.09,-1.66 2.11,-3.24 3.14,-4.81 0.03,-0.05 0.18,-0.02 0.39,-0.04 -0.02,0.27 0.04,0.55 -0.06,0.76 -1.05,2.26 -2.86,4.79 -3.79,5.33 -0.39,-0.5 0.08,-0.79 0.32,-1.24 z"
   id="path33" />
		<path
   d="m 291.32,309.32 c 0.03,0.25 0.04,0.46 -0.05,0.61 -0.99,1.67 -1.99,3.34 -3,5 -0.07,0.11 -0.2,0.19 -0.42,0.39 -0.09,-0.29 -0.25,-0.52 -0.2,-0.67 0.71,-1.99 1.74,-3.8 3.2,-5.34 0.08,-0.07 0.27,-0.04 0.47,0.01 z"
   id="path34" />
		<path
   d="m 382.08,300.04 c 1.06,-0.5 1.83,-1.39 3.12,-1.48 -0.19,1.05 -1.1,1.13 -1.67,1.54 -0.63,0.45 -1.32,0.82 -1.99,1.21 -0.64,0.37 -1.29,0.72 -2.12,1.18 0.31,-0.98 0.31,-0.98 2.66,-2.45 z"
   id="path35" />
		<path
   d="m 342.76,289.45 c 0.73,-0.73 1.11,-1.68 2.37,-2.19 -0.37,1.43 -1.36,2.1 -2.01,2.98 -0.64,0.86 -1.18,1.85 -2.23,2.38 0.11,-1.34 1.16,-2.1 1.87,-3.17 z"
   id="path36" />
		<path
   d="m 380.18,290.48 c 0.85,-0.39 1.59,-0.77 2.37,-1.01 0.28,-0.09 0.85,0.07 0.96,0.29 0.23,0.45 -0.22,0.65 -0.59,0.81 -0.72,0.3 -1.44,0.59 -2.14,0.92 -0.39,0.18 -0.8,0.58 -1.15,0.09 -0.37,-0.5 0.14,-0.76 0.55,-1.1 z"
   id="path37" />
		<path
   d="m 421.84,307.35 c -0.55,2.08 -1.96,3.53 -3.43,4.92 -0.1,0.09 -0.34,0.03 -0.67,0.05 0.15,-0.34 0.2,-0.56 0.33,-0.73 1,-1.3 2.01,-2.6 3.04,-3.87 0.15,-0.19 0.44,-0.3 0.73,-0.37 z"
   id="path38" />
		<path
   d="m 419.25,307.64 c -2.33,3.05 -2.8,3.52 -3.82,3.78 0.05,-0.85 0.75,-1.23 1.16,-1.77 0.47,-0.62 0.97,-1.22 1.52,-1.77 0.47,-0.47 0.59,-1.34 1.71,-1.44 -0.22,0.48 -0.37,0.8 -0.57,1.2 z"
   id="path39" />
		<path
   d="m 412.49,316.67 c -0.45,0.54 -0.83,1 -1.21,1.46 -0.11,-0.06 -0.21,-0.12 -0.32,-0.18 0.07,-0.28 0.07,-0.61 0.21,-0.84 0.83,-1.39 2.86,-3.38 3.9,-3.83 0.25,0.96 -0.68,1.18 -1.06,1.7 -0.43,0.58 -0.96,1.08 -1.52,1.69 z"
   id="path40" />
		<path
   d="m 265.16,297.15 c -0.29,0.24 -0.5,0.4 -0.72,0.56 -0.45,-0.49 -0.09,-0.77 0.13,-1.06 1.44,-1.96 2.92,-3.29 4.07,-3.59 -0.14,1.08 -1.14,1.38 -1.67,2.05 -0.55,0.69 -1.16,1.31 -1.81,2.04 z"
   id="path41" />
		<path
   d="m 413.63,307.56 c 0.41,-0.43 0.49,-1.07 1.19,-1.2 0.3,0.81 -0.27,1.24 -0.61,1.7 -1.47,2.05 -2.21,2.72 -3.42,3.04 0.77,-1.44 2,-2.28 2.84,-3.54 z"
   id="path42" />
		<path
   d="m 321.49,306.27 c 0.25,-0.77 -0.11,-1.6 0.59,-2.11 0.53,0 0.75,0.31 0.72,0.75 -0.06,0.87 -0.14,1.74 -0.32,2.58 -0.05,0.23 -0.44,0.4 -0.68,0.59 -0.14,-0.23 -0.36,-0.44 -0.4,-0.69 -0.05,-0.32 0.04,-0.67 0.09,-1.12 z"
   id="path43" />
		<path
   d="m 381.66,297.58 c 1.48,-0.88 1.48,-0.88 2.26,-0.89 -0.33,0.66 -2.31,2.09 -3.97,2.84 -0.2,0.09 -0.48,0.01 -1.08,0.01 0.95,-0.95 1.88,-1.36 2.79,-1.96 z"
   id="path44" />
		<path
   d="m 291.24,315.46 c 1.1,-2.95 1.6,-3.78 2.64,-4.32 0.01,0.21 0.09,0.41 0.03,0.55 -0.63,1.31 -1.27,2.62 -1.94,3.91 -0.22,0.41 -0.53,0.65 -0.73,-0.14 z"
   id="path45" />
		<path
   d="m 309.16,307.99 c 0.66,-1.28 1.27,-2.46 1.93,-3.77 0.52,0.56 0.31,0.96 0.17,1.35 -0.68,1.83 -1.78,3.57 -2.61,4.08 -0.35,-0.68 0.3,-1.06 0.51,-1.66 z"
   id="path46" />
		<path
   d="m 351.62,288.92 c -0.77,1.03 -1.23,2.16 -2.42,3.17 0.06,-0.6 0.01,-0.89 0.11,-1.1 0.81,-1.58 2.33,-3.51 3.1,-3.95 0.23,0.82 -0.47,1.22 -0.79,1.88 z"
   id="path47" />
		<path
   d="m 347.94,289.36 c -0.79,1.01 -1.29,2.14 -2.41,2.88 -0.04,-0.95 0.03,-1.08 2.09,-3.76 0.26,-0.34 0.43,-0.91 1.16,-0.7 0.04,0.68 -0.54,1.01 -0.84,1.58 z"
   id="path48" />
		<path
   d="m 412.77,307.29 c -1.62,2.19 -2.51,2.96 -3.79,3.23 0.26,-1.09 1.32,-1.37 1.87,-2.08 0.55,-0.72 1.17,-1.39 1.74,-2.05 0.63,0.2 0.4,0.51 0.18,0.9 z"
   id="path49" />
		<path
   d="m 341.26,315.77 c 0.74,-1.12 1.16,-2.34 2.27,-3.33 0.06,0.39 0.17,0.62 0.11,0.78 -0.5,1.31 -2.1,3.57 -2.75,3.94 -0.37,-0.54 0.16,-0.87 0.37,-1.39 z"
   id="path50" />
		<path
   d="m 328.87,291.38 c -0.31,0.29 -0.56,0.49 -0.92,0.8 -0.07,-0.32 -0.2,-0.55 -0.13,-0.64 0.91,-1.28 1.86,-2.53 3.14,-3.68 0.07,0.86 0.07,0.86 -2.09,3.52 z"
   id="path51" />
		<path
   d="m 264.85,293.86 c -0.6,0.67 -1.13,1.26 -1.76,1.97 -0.15,-1.29 1.75,-3.55 3.25,-4 -0.15,0.96 -0.97,1.33 -1.49,2.03 z"
   id="path52" />
		<path
   d="m 352.78,290.91 c 0.84,-1.24 1.44,-2.56 2.57,-3.51 0.16,0.23 0.27,0.35 0.25,0.38 -0.74,1.16 -1.47,2.34 -2.27,3.47 -0.22,0.3 -0.5,0.14 -0.55,-0.34 z"
   id="path53" />
		<path
   d="m 371.58,307.91 c -0.16,0.42 -0.33,0.72 -0.49,1.02 -0.2,-0.28 -0.55,-0.55 -0.58,-0.85 -0.07,-0.56 0.01,-1.14 0.1,-1.7 0.03,-0.17 0.39,-0.44 0.48,-0.4 0.22,0.09 0.5,0.33 0.54,0.54 0.06,0.41 -0.03,0.85 -0.05,1.39 z"
   id="path54" />
		<path
   d="m 416.96,315.27 c 0.42,-0.4 0.57,-1.04 1.28,-0.87 -0.31,1.16 -1.48,2.55 -2.62,3.08 -0.08,-1.05 0.86,-1.44 1.34,-2.21 z"
   id="path55" />
		<path
   d="m 262.13,294.13 c -0.22,-0.07 -0.46,-0.27 -0.45,-0.28 0.68,-0.92 1.38,-1.82 2.09,-2.71 0.02,-0.02 0.17,0.07 0.36,0.16 -0.37,1.1 -1.25,1.87 -2,2.83 z"
   id="path56" />
		<path
   d="m 344.43,315.5 c 0.4,-0.68 0.49,-1.46 1.26,-1.8 0.12,0.93 -0.35,2.04 -1.28,3.06 -0.41,-0.39 -0.15,-0.78 0.02,-1.26 z"
   id="path57" />
		<path
   d="m 295.63,313.83 c 0.24,-0.44 0.24,-0.99 0.98,-0.9 -0.07,1.12 -0.57,2.03 -1.08,3.16 -0.72,-0.94 -0.04,-1.53 0.1,-2.26 z"
   id="path58" />
		<path
   d="m 419.88,315.84 c 0.37,-0.4 0.54,-0.93 1.28,-0.82 -0.17,1 -0.82,1.5 -1.42,2.04 -0.11,-0.07 -0.23,-0.14 -0.34,-0.2 0.14,-0.31 0.28,-0.62 0.48,-1.02 z"
   id="path59" />
		<path
   d="m 304.05,314.51 c -0.17,0.5 -0.31,0.89 -0.47,1.33 -0.65,-0.77 -0.6,-1.11 0.23,-2.35 0.59,0.16 0.3,0.58 0.24,1.02 z"
   id="path60" />
		<path
   d="m 300.36,314.98 c -0.2,0.36 -0.36,0.62 -0.63,1.05 -0.49,-1.16 0.16,-1.74 0.52,-2.64 0.56,0.65 0.31,1.07 0.11,1.59 z"
   id="path61" />
		<path
   d="m 298.35,306.92 c -0.27,0.33 -0.5,0.55 -0.88,0.93 -0.17,-0.83 0.07,-1.19 0.52,-1.4 0.07,-0.03 0.27,0.24 0.36,0.47 z"
   id="path62" />
		<path
   d="m 308.63,312.77 c 0.46,0.04 0.56,0.26 0.31,0.54 -0.08,0.09 -0.32,0.04 -0.49,0.06 0.04,-0.19 0.07,-0.38 0.18,-0.6 z"
   id="path63" />
		<path
   d="m 349.77,316.1 c 0.01,-0.23 0.08,-0.4 0.15,-0.56 0.14,0.14 0.28,0.28 0.42,0.41 -0.17,0.07 -0.33,0.14 -0.57,0.15 z"
   id="path64" />
		<path
   d="m 388.33,296.67 c -0.24,-0.09 -0.41,-0.25 -0.58,-0.41 0.11,-0.08 0.22,-0.16 0.33,-0.23 0.11,0.19 0.22,0.39 0.25,0.64 z"
   id="path65" />
		<path
   d="m 366.03,312.67 c -0.19,-0.09 -0.31,-0.23 -0.41,-0.39 0,-0.01 0.12,-0.1 0.19,-0.16 0.1,0.17 0.2,0.33 0.22,0.55 z"
   id="path66" />
		<path
   d="m 235.88,283.07 c -0.47,0.46 -0.87,0.84 -1.27,1.22 -0.08,-0.06 -0.17,-0.11 -0.25,-0.17 0.04,-0.25 0,-0.58 0.14,-0.74 2.03,-2.16 4.07,-4.3 6.13,-6.43 0.2,-0.2 0.53,-0.28 1.04,-0.53 -0.31,1.29 -1.29,1.67 -1.87,2.38 -0.58,0.71 -1.26,1.34 -1.89,2.02 -0.66,0.72 -1.3,1.45 -2.03,2.25 z"
   id="path67" />
		<path
   d="m 233.47,280.07 c -0.57,0.48 -0.87,1.18 -1.8,1.18 0.23,-1.18 1.22,-1.64 1.83,-2.37 0.69,-0.82 1.44,-1.58 2.21,-2.33 0.72,-0.7 1.31,-1.55 2.24,-1.99 0.49,0.49 0.09,0.74 -0.16,1.01 -1.42,1.47 -2.84,2.95 -4.32,4.5 z"
   id="path68" />
		<path
   d="m 245.12,288.44 c -0.33,0.25 -0.59,0.43 -1.09,0.77 0.1,-0.52 0.06,-0.84 0.21,-1 1.49,-1.66 3.01,-3.3 4.54,-4.93 0.13,-0.13 0.38,-0.14 0.88,-0.32 -0.57,1.37 -1.5,2.07 -2.22,2.91 -0.73,0.86 -1.5,1.67 -2.32,2.57 z"
   id="path69" />
		<path
   d="m 244.64,282.45 c -1.21,1.51 -2.36,2.95 -3.52,4.37 -0.07,0.08 -0.26,0.06 -0.53,0.11 0.02,-0.27 -0.03,-0.52 0.07,-0.68 1.36,-2.17 3.77,-4.87 4.67,-5.23 0.2,0.66 -0.38,0.93 -0.69,1.43 z"
   id="path70" />
		<path
   d="m 233.3,275.2 c -0.85,0.95 -1.61,1.83 -2.41,2.68 -0.28,0.29 -0.55,0.74 -1.2,0.34 0.17,-0.27 0.3,-0.56 0.51,-0.78 1.4,-1.47 2.81,-2.93 4.23,-4.38 0.05,-0.05 0.25,0.07 0.57,0.16 -0.59,0.68 -1.11,1.29 -1.7,1.98 z"
   id="path71" />
		<path
   d="m 238.64,284.65 c -0.36,0.35 -0.56,0.82 -1.23,0.61 0.08,-0.87 0.81,-1.28 1.26,-1.84 0.45,-0.57 0.94,-1.11 1.47,-1.61 0.53,-0.49 0.79,-1.33 1.84,-1.45 -0.17,1.09 -0.99,1.59 -1.53,2.26 -0.56,0.67 -1.16,1.3 -1.81,2.03 z"
   id="path72" />
		<path
   d="m 230.63,273.41 c -1.88,2.19 -1.88,2.19 -2.79,2.35 0.15,-0.55 2.53,-3.48 3.47,-4.23 0.22,-0.18 0.54,-0.24 0.81,-0.35 0.07,0.09 0.14,0.18 0.21,0.27 -0.55,0.62 -1.09,1.25 -1.7,1.96 z"
   id="path73" />
		<path
   d="m 250.62,285.53 c 0.3,-0.32 0.53,-0.64 0.97,-0.05 -1.17,1.57 -2.32,3.19 -3.99,4.33 -0.11,-0.07 -0.22,-0.15 -0.33,-0.22 0.11,-0.25 0.18,-0.54 0.35,-0.74 0.97,-1.1 1.96,-2.16 3,-3.32 z"
   id="path74" />
		<path
   d="m 244.46,285.76 c -0.46,0.44 -0.69,1.08 -1.43,0.97 0.26,-0.94 2.17,-3.29 3.19,-3.94 0.11,0.73 0.11,0.73 -1.76,2.97 z"
   id="path75" />
		<path
   d="m 229.58,270.26 c -1.05,1.14 -2.04,2.19 -3.06,3.22 -0.08,0.08 -0.26,0.08 -0.55,0.16 0.06,-0.33 0.03,-0.63 0.16,-0.78 0.88,-0.96 1.78,-1.9 2.7,-2.82 0.27,-0.27 0.64,-0.58 0.75,0.22 z"
   id="path76" />
		<path
   d="m 226.26,269.64 c -0.71,0.62 -1.1,1.46 -2.01,1.73 0.02,-0.91 1.5,-2.66 2.91,-3.43 0.29,0.85 -0.51,1.12 -0.9,1.7 z"
   id="path77" />
		<path
   d="m 221.39,267.09 c -0.35,0.17 -0.62,0.27 -0.89,0.37 -0.06,-0.1 -0.12,-0.2 -0.19,-0.3 0.79,-0.93 1.64,-1.78 2.71,-2.55 0.08,0.88 0.08,0.88 -1.63,2.48 z"
   id="path78" />
		<path
   d="m 253.54,287.77 c -0.61,0.9 -1.09,1.86 -2.32,2.35 0.06,-0.37 0.02,-0.63 0.13,-0.76 0.45,-0.56 0.93,-1.11 1.45,-1.61 0.14,-0.14 0.47,-0.05 0.74,0.02 z"
   id="path79" />
		<path
   d="m 222.78,268.25 c 0.75,-0.74 1.43,-1.39 2.25,-2.18 -0.04,1.22 -0.67,1.98 -2.26,2.91 -0.02,-0.25 -0.04,-0.45 0.01,-0.73 z"
   id="path80" />
		<path
   d="m 219.27,264.95 c 0.59,-0.61 1.12,-1.15 1.79,-1.83 0,1.28 -0.93,2.34 -2.12,2.58 0.1,-0.27 0.18,-0.47 0.33,-0.75 z"
   id="path81" />
		<path
   d="m 217.57,263.91 c -0.27,0.05 -0.45,0.05 -0.83,0.05 0.64,-0.98 1.27,-1.61 2.27,-1.71 0.08,0.09 0.15,0.18 0.23,0.28 -0.52,0.44 -1.05,0.89 -1.67,1.38 z"
   id="path82" />
		<path
   d="m 215.29,261.35 c 0.4,-0.31 0.73,-0.55 1.22,-0.92 0.1,1.17 -0.62,1.37 -1.39,1.89 0.05,-0.46 0.08,-0.68 0.17,-0.97 z"
   id="path83" />
		<path
   d="m 214.6,259.37 c 0.08,0.65 -0.2,0.89 -0.87,0.84 0.02,-0.59 0.16,-0.95 0.87,-0.84 z"
   id="path84" />
		<path
   d="m 305.06,263.51 c 0.12,0.38 0.19,0.77 0.11,1.12 -0.46,2.04 -0.95,4.07 -1.45,6.1 -0.05,0.21 -0.2,0.39 -0.46,0.87 -0.15,-0.58 -0.34,-0.9 -0.28,-1.16 0.53,-2.22 1.1,-4.43 1.67,-6.64 0.03,-0.11 0.2,-0.2 0.41,-0.29 z"
   id="path85" />
		<path
   d="m 306.41,268.62 c -0.13,0.78 -0.24,1.43 -0.36,2.09 -0.09,0.01 -0.19,0.03 -0.28,0.04 -0.09,-0.26 -0.29,-0.53 -0.27,-0.79 0.17,-2.57 0.77,-5.02 1.86,-7.36 0.72,0.23 0.5,0.63 0.4,0.99 -0.44,1.64 -0.89,3.27 -1.35,5.03 z"
   id="path86" />
		<path
   d="m 310.79,262.74 c -0.61,2.18 -1.19,4.26 -1.77,6.33 -0.08,0.01 -0.16,0.02 -0.24,0.04 -0.07,-0.33 -0.22,-0.66 -0.2,-0.98 0.13,-2.1 1.24,-5.53 2.18,-6.51 0.03,0.43 0.04,0.72 0.03,1.12 z"
   id="path87" />
		<path
   d="m 312.85,265.67 c -0.19,0.74 -0.36,1.37 -0.57,2.12 -0.91,-0.79 -0.36,-1.52 -0.23,-2.14 0.58,-2.71 1.22,-4.03 2.15,-4.61 0.22,0.92 -0.43,1.55 -0.64,2.3 -0.2,0.74 -0.45,1.48 -0.71,2.33 z"
   id="path88" />
		<path
   d="m 315.57,264.61 c 0.51,-1.57 0.85,-3.09 1.93,-4.49 0.15,0.33 0.35,0.55 0.3,0.7 -0.62,1.88 -1.27,3.74 -1.92,5.61 -0.01,0.03 -0.08,0.04 -0.2,0.1 -0.74,-0.54 -0.07,-1.22 -0.11,-1.92 z"
   id="path89" />
		<path
   d="m 323.16,263.37 c -0.19,0.53 -0.36,0.96 -0.58,1.55 -0.55,-1.2 -0.06,-2.79 1.1,-3.91 0.39,0.92 -0.36,1.53 -0.52,2.36 z"
   id="path90" />
		<path
   d="m 319.37,262.28 c 0.26,-0.43 0.23,-0.99 0.84,-0.96 0.12,0.78 -0.47,2.68 -1.22,3.89 -0.58,-1.09 0.14,-1.93 0.38,-2.93 z"
   id="path91" />
		<path
   d="m 325.69,263.42 c 0.29,-0.73 0.35,-1.49 1.23,-1.84 0.15,1 -0.34,1.67 -0.81,2.35 -0.15,-0.14 -0.3,-0.27 -0.42,-0.51 z"
   id="path92" />
		<path
   d="m 328.81,263.38 c 0.22,-0.26 0.41,-0.42 0.71,-0.68 0.14,0.68 0.16,1.13 -0.45,1.31 -0.04,0.01 -0.19,-0.35 -0.26,-0.63 z"
   id="path93" />
		<path
   d="m 335.3,268.46 c -0.21,-0.07 -0.33,-0.21 -0.46,-0.34 0.1,-0.07 0.2,-0.15 0.29,-0.22 0.08,0.16 0.17,0.33 0.17,0.56 z"
   id="path94" />
		<path
   d="m 258.98,264.85 c 1.56,-3.17 2,-3.79 3.2,-4.45 -0.04,0.33 0.02,0.64 -0.11,0.81 -1.53,2.04 -2.66,4.28 -3.44,6.71 -0.04,0.13 -0.16,0.24 -0.25,0.38 -0.52,-0.82 -0.49,-0.99 0.6,-3.45 z"
   id="path95" />
		<path
   d="m 261.85,265.08 c 1.64,-3.44 1.68,-3.5 2.55,-3.99 0.05,0.08 0.13,0.17 0.13,0.25 -0.01,0.19 -0.04,0.39 -0.12,0.55 -0.99,1.97 -1.99,3.93 -3.07,6.05 -0.58,-1.16 0.24,-1.91 0.51,-2.86 z"
   id="path96" />
		<path
   d="m 256.46,263.51 c 0.42,-0.61 0.79,-1.14 1.28,-1.85 0.49,1.2 -0.36,1.66 -0.62,2.29 -0.32,0.75 -0.72,1.48 -1.14,2.18 -0.37,0.62 -0.34,1.49 -1.07,2 -0.3,-1.07 -0.1,-1.63 1.55,-4.62 z"
   id="path97" />
		<path
   d="m 252.61,265.23 c 0.51,-0.76 0.96,-1.44 1.55,-2.32 0.18,0.45 0.38,0.71 0.32,0.82 -0.92,1.64 -1.87,3.25 -2.82,4.87 -0.02,0.03 -0.09,0.02 -0.13,0.02 -0.34,-0.76 -0.29,-0.91 1.08,-3.39 z"
   id="path98" />
		<path
   d="m 265.77,264.61 c 0.6,-0.88 0.74,-2 1.81,-2.47 0.03,0.75 -1.4,3.78 -2.31,4.92 -0.55,-0.97 0.25,-1.61 0.5,-2.45 z"
   id="path99" />
		<path
   d="m 271.05,262.1 c 0.2,0.13 0.45,0.39 0.4,0.47 -0.83,1.36 -1.69,2.7 -2.55,4.04 -0.01,0.02 -0.09,-0.01 -0.14,-0.02 -0.18,-0.96 0.51,-2.37 2.29,-4.49 z"
   id="path100" />
		<path
   d="m 273.83,265.76 c -0.2,-0.03 -0.42,-0.12 -0.42,-0.17 0.2,-1.17 0.85,-2.02 1.87,-2.6 -0.02,1.15 -0.89,1.84 -1.45,2.77 z"
   id="path101" />
		<path
   d="m 353.44,270.02 c 0.9,-3.55 2.91,-6.95 4.54,-7.53 -0.09,0.33 -0.08,0.62 -0.22,0.8 -2.03,2.5 -3.45,5.28 -3.84,8.52 -0.01,0.11 -0.16,0.21 -0.32,0.41 -0.6,-0.71 -0.21,-1.42 -0.16,-2.2 z"
   id="path102" />
		<path
   d="m 357.69,266.88 c 0.62,-0.85 0.97,-1.79 1.98,-2.41 0.04,0.37 0.15,0.65 0.06,0.78 -1.27,1.73 -2.28,3.61 -3.09,5.6 -0.03,0.06 -0.16,0.08 -0.38,0.18 -0.05,-0.27 -0.21,-0.55 -0.13,-0.74 0.47,-1.12 1,-2.22 1.56,-3.41 z"
   id="path103" />
		<path
   d="m 361.97,266.77 c -0.37,0.78 -0.68,1.47 -1.15,2.48 -0.19,-0.55 -0.35,-0.78 -0.3,-0.94 0.47,-1.65 1.37,-3.08 2.19,-4.67 0.5,0.73 0.5,0.73 -0.74,3.13 z"
   id="path104" />
		<path
   d="m 365.87,265.65 c -0.31,0.53 -0.57,0.98 -0.84,1.42 -0.09,-0.02 -0.18,-0.03 -0.27,-0.05 -0.04,-0.23 -0.18,-0.49 -0.11,-0.67 0.67,-1.8 1.65,-3.04 2.7,-3.39 -0.17,1.08 -1.09,1.69 -1.48,2.69 z"
   id="path105" />
		<path
   d="m 370.7,264.95 c -0.31,0.47 -0.34,1.12 -1.21,1.07 0.29,-1.01 0.49,-1.89 1.42,-2.38 0.45,0.55 -0.03,0.85 -0.21,1.31 z"
   id="path106" />
		<path
   d="m 375.04,263.97 c 0.32,-0.23 0.58,-0.39 1.03,-0.67 -0.06,1.1 -0.71,1.37 -1.19,1.8 -0.61,-0.57 -0.09,-0.78 0.16,-1.13 z"
   id="path107" />
	</g>
</g>
</svg>
