<?xml version="1.0" encoding="UTF-8" standalone="no"?>
<!-- Generator: Adobe Adobe Illustrator 24.2.0, SVG Export Plug-In . SVG Version: 6.00 Build 0)  -->

<svg
   version="1.1"
   id="Layer_1"
   x="0px"
   y="0px"
   width="91.378395"
   height="134.87794"
   viewBox="0 0 91.378395 134.87794"
   xml:space="preserve"
   sodipodi:docname="arverja1.svg"
   inkscape:version="1.4 (e7c3feb1, 2024-10-09)"
   xmlns:inkscape="http://www.inkscape.org/namespaces/inkscape"
   xmlns:sodipodi="http://sodipodi.sourceforge.net/DTD/sodipodi-0.dtd"
   xmlns="http://www.w3.org/2000/svg"
   xmlns:svg="http://www.w3.org/2000/svg"><defs
   id="defs11" /><sodipodi:namedview
   id="namedview11"
   pagecolor="#ffffff"
   bordercolor="#000000"
   borderopacity="0.25"
   inkscape:showpageshadow="2"
   inkscape:pageopacity="0.0"
   inkscape:pagecheckerboard="0"
   inkscape:deskcolor="#d1d1d1"
   inkscape:zoom="1.6816667"
   inkscape:cx="51.139742"
   inkscape:cy="85.332012"
   inkscape:window-width="1200"
   inkscape:window-height="1186"
   inkscape:window-x="0"
   inkscape:window-y="0"
   inkscape:window-maximized="0"
   inkscape:current-layer="Layer_1" />
<g
   id="g11"
   transform="translate(-248.45299,-214.48859)">
	<g
   id="g10">
		<path
   d="m 266.06,306.77 c 0.68,-1.36 1.38,-2.6 1.93,-3.9 1.14,-2.72 2.58,-5.26 4.36,-7.6 2.28,-3 4.14,-6.26 5.96,-9.56 2.07,-3.75 3.32,-7.79 4.42,-11.9 0.68,-2.53 1.59,-5.01 2.52,-7.47 0.35,-0.94 1.01,-1.77 1.57,-2.63 0.79,-1.22 1.62,-2.41 2.43,-3.61 -0.06,-0.1 -0.11,-0.2 -0.17,-0.29 -0.58,0.11 -1.15,0.28 -1.74,0.32 -0.35,0.03 -0.87,-0.01 -1.03,-0.23 -0.33,-0.45 0.08,-0.79 0.46,-1.05 1.13,-0.75 1.97,-1.78 2.53,-2.98 0.97,-2.07 2,-4.14 2.68,-6.31 0.7,-2.23 1.85,-3.95 3.89,-5.06 0.12,-0.07 0.22,-0.18 0.41,-0.33 -0.79,-1.59 -0.12,-2.93 0.72,-4.33 0.56,-0.94 0.93,-2.04 1.17,-3.11 0.46,-2.11 1.65,-3.42 3.66,-4.17 2.39,-0.9 4.5,-2.17 6.08,-4.35 1.74,-2.41 4.34,-3.37 7.3,-3.32 0.1,0 0.19,0.04 0.29,0.03 0.09,0 0.18,-0.04 0.28,-0.06 0.42,-1.27 0.04,-2.55 -1.29,-3.51 -1.21,-0.87 -1.92,-2.06 -2.55,-3.33 -0.79,-1.59 -0.33,-2.47 1.42,-2.83 0.95,-0.2 1.91,-0.4 2.86,-0.61 1.29,-0.29 2.35,0.11 3.05,1.2 0.55,0.86 0.93,1.82 1.39,2.73 0.53,1.04 1.01,2.12 1.62,3.11 1.39,2.27 2.36,4.7 2.96,7.28 0.04,0.18 0.11,0.35 0.22,0.71 0.52,-0.53 0.93,-0.97 1.37,-1.38 1.4,-1.3 3.29,-1.07 3.94,0.69 0.71,1.91 1.47,3.79 2.21,5.69 0.22,0.56 0.14,1.24 0.22,2 0.3,0.21 0.7,0.48 1.1,0.75 2.58,1.76 3.6,4.19 2.9,7.2 -0.32,1.37 -0.22,2.55 0.59,3.75 0.73,1.09 1.3,2.29 1.89,3.46 0.15,0.3 0.21,0.76 0.08,1.05 -0.08,0.18 -0.59,0.22 -0.9,0.23 -0.28,0.01 -0.56,-0.1 -0.83,-0.16 -0.07,0.13 -0.16,0.22 -0.15,0.3 0.35,4.13 0.63,8.26 1.08,12.38 0.38,3.48 -0.01,6.81 -1.39,10.02 -0.58,1.34 -1.11,2.71 -1.73,4.03 -1.8,3.83 -2.89,7.87 -3.54,12.03 -0.61,3.91 -1.86,7.6 -3.85,10.99 -2.05,3.48 -3.14,7.23 -3.82,11.14 -0.31,1.76 -0.87,3.4 -1.81,4.9 -0.52,0.83 -1.02,1.67 -1.57,2.47 -1.56,2.26 -2.87,4.65 -3.94,7.17 -0.71,1.68 -1.66,3.19 -2.83,4.59 -4.27,5.15 -8.61,10.23 -13.4,14.9 -2.08,2.03 -3.1,2.11 -5.15,0.03 -0.84,-0.85 -1.54,-1.91 -2.04,-2.99 -1.12,-2.46 -1.76,-5.05 -1.62,-7.8 0.17,-3.26 0.22,-6.54 0.34,-9.8 0.1,-2.74 0.68,-5.41 1.33,-8.07 0.64,-2.64 1.09,-5.33 1.37,-8.13 -0.17,0.17 -0.38,0.31 -0.51,0.5 -2.46,3.41 -4.65,6.96 -6.39,10.81 -1.89,4.19 -4.35,8.04 -7.43,11.52 -3.47,3.92 -7.86,6.21 -12.74,7.67 -3.08,0.93 -6.23,1.59 -9.36,2.35 -2.07,0.51 -3.97,1.34 -5.57,2.78 -0.25,0.23 -0.52,0.45 -0.81,0.62 -0.8,0.46 -1.66,0.36 -2.23,-0.36 -0.41,-0.52 -0.77,-1.14 -0.97,-1.77 -1.2,-3.76 -1.19,-7.46 0.45,-11.13 2.1,-4.72 4.04,-9.52 6.17,-14.22 0.74,-1.62 1.76,-3.15 2.86,-4.56 1.2,-1.53 2.68,-2.84 3.96,-4.31 1.15,-1.29 2.18,-2.71 3.32,-4.18 z m 2.2,10.57 c -0.8,1.4 -1.63,2.78 -2.4,4.19 -1.55,2.84 -3.42,5.44 -5.57,7.86 -1.49,1.67 -2.89,3.45 -4.11,5.32 -2.03,3.09 -3.35,6.49 -3.77,10.2 -0.03,0.24 0.04,0.5 0.09,0.95 2.31,-2.06 4.93,-2.92 7.67,-3.52 1.43,-0.32 2.84,-0.71 4.27,-1.02 2.78,-0.6 5.45,-1.51 8.03,-2.68 2.7,-1.23 5.04,-2.91 7.09,-5.07 3.42,-3.59 5.92,-7.76 7.95,-12.21 1.49,-3.26 3.25,-6.33 5.37,-9.21 2.36,-3.22 4.13,-6.72 5.16,-10.59 0.41,-1.55 0.93,-3.08 1.4,-4.62 1.56,-5.18 3.05,-10.39 4.69,-15.54 1.57,-4.92 3.33,-9.79 4.93,-14.7 0.88,-2.7 1.44,-5.47 1.16,-8.35 -0.06,-0.61 -0.22,-1 -0.89,-1.12 -1.58,-0.28 -2.71,-1.26 -3.68,-2.47 -0.19,-0.24 -0.4,-0.45 -0.57,-0.64 -0.66,1.48 -1.23,2.86 -1.88,4.21 -0.61,1.27 -1.3,2.5 -1.95,3.75 -0.37,0.7 -0.87,0.76 -1.34,0.15 -0.28,-0.37 -0.52,-0.78 -0.93,-1.41 -0.42,1.13 -0.8,1.96 -1.03,2.84 -0.7,2.59 -1.15,5.26 -2.04,7.77 -1.56,4.42 -3.53,8.67 -6.23,12.55 -1.56,2.24 -3.05,4.54 -4.7,6.72 -1.98,2.6 -3.28,5.5 -4.38,8.55 -0.57,1.6 -1.23,3.22 -2.18,4.61 -1.87,2.74 -3.96,5.32 -5.96,7.96 -1.37,1.78 -2.73,3.55 -4.2,5.52 z m 69.39,-51.9 c -0.04,-0.29 -0.09,-0.58 -0.11,-0.87 -0.32,-3.84 -0.67,-7.67 -0.94,-11.51 -0.05,-0.74 -0.31,-1.25 -0.97,-1.45 -0.73,-0.22 -1.51,-0.46 -2.26,-0.44 -1.95,0.05 -3.4,-0.66 -4.36,-2.38 -0.26,-0.47 -0.63,-0.89 -0.95,-1.33 -0.09,0.04 -0.19,0.09 -0.28,0.13 0.41,3.06 -0.31,6.09 -0.03,9.18 0.35,3.98 0.14,7.97 -0.71,11.93 -0.97,4.52 -1.26,9.21 -2.79,13.6 -1.78,5.09 -2.56,10.4 -3.84,15.61 -0.68,2.74 -0.83,5.65 -1.77,8.28 -2.78,7.75 -5.4,15.59 -9.64,22.72 -0.25,0.42 -0.46,0.86 -0.66,1.3 -1.46,3.2 -3.26,6.22 -5.26,9.11 -1.34,1.94 -2.39,4.03 -2.91,6.34 -0.08,0.34 -0.06,0.71 -0.11,1.33 0.49,-0.44 0.78,-0.68 1.05,-0.95 4.72,-4.68 9.03,-9.72 13.19,-14.89 0.55,-0.68 1.03,-1.44 1.37,-2.24 1.56,-3.71 3.62,-7.13 5.85,-10.46 1.05,-1.56 1.65,-3.28 1.97,-5.15 0.68,-3.96 1.81,-7.75 3.89,-11.27 1.9,-3.21 3.11,-6.72 3.69,-10.42 0.67,-4.26 1.75,-8.39 3.56,-12.32 0.67,-1.46 1.28,-2.95 1.9,-4.44 1.21,-2.91 1.59,-5.97 1.12,-9.41 z m -87.94,73.24 c -0.1,1.83 0.03,3.63 0.75,5.38 0.23,-0.89 0.32,-1.78 0.44,-2.68 0.64,-4.67 2.84,-8.66 5.42,-12.5 1.47,-2.18 2.96,-4.38 4.15,-6.71 2.09,-4.12 4.7,-7.85 7.7,-11.36 3.17,-3.72 5.93,-7.74 7.82,-12.3 1.54,-3.71 3.46,-7.21 5.81,-10.47 1.65,-2.3 3.21,-4.66 4.83,-6.98 2.25,-3.21 4.21,-6.56 5.47,-10.3 1.29,-3.83 2.72,-7.62 4.08,-11.43 0.08,-0.22 0.01,-0.49 0.01,-1.18 -1.63,2.07 -3.6,1.35 -5.23,1.42 -1.24,1.88 -2.4,3.62 -3.54,5.38 -0.4,0.61 -0.82,1.23 -1.07,1.91 -0.81,2.24 -1.77,4.47 -2.28,6.78 -1.78,7.96 -5.42,15.01 -10.14,21.57 -1.95,2.7 -3.7,5.5 -4.97,8.59 -1.37,3.33 -3.32,6.28 -5.96,8.77 -1.1,1.03 -2.09,2.19 -3.1,3.32 -1.42,1.58 -2.41,3.41 -3.24,5.36 -1.71,4.04 -3.5,8.04 -5.27,12.06 -0.72,1.64 -1.43,3.3 -1.68,5.37 z m 58.31,-52.48 c -0.07,0.28 -0.13,0.57 -0.23,0.85 -1.18,3.41 -2.44,6.79 -3.54,10.23 -2,6.22 -4.18,12.37 -5.61,18.78 -1.33,5.99 -2.18,11.97 -1.94,18.13 0.14,3.5 0.75,6.87 1.77,10.2 0.09,0.29 0.27,0.55 0.36,0.75 0.97,-2.15 1.93,-4.27 2.92,-6.48 -2.43,-1.54 -3.95,-3.74 -4.18,-6.74 -0.23,-3.03 0.81,-5.54 3.12,-7.49 -1.98,-4.58 -0.5,-8.15 2.98,-11.14 -1.49,-5.13 -0.28,-9.29 4.23,-12.25 -1.49,-5.01 -0.28,-9.03 4.1,-11.96 -1.21,-2.19 -1.29,-4.41 -0.44,-6.67 0.85,-2.27 2.48,-3.91 4.61,-5.16 -1.78,-2.22 -2.55,-4.6 -2.19,-7.32 0.37,-2.8 1.87,-4.85 4.29,-6.38 -1.23,-1.3 -1.48,-2.87 -1.7,-4.76 -1.24,2.38 -2.18,4.51 -2.81,6.76 -1.91,6.79 -3.78,13.61 -5.74,20.65 z m 5.46,-60.01 c -2,0.39 -3.67,1.35 -4.81,3.05 -0.87,1.29 -1.95,2.31 -3.32,3.01 -1.08,0.55 -2.17,1.11 -3.29,1.57 -1.37,0.56 -2.33,1.47 -2.57,2.94 -0.28,1.67 -0.9,3.17 -1.84,4.57 -0.28,0.41 -0.51,1.05 -0.39,1.49 0.3,1.1 0.8,2.14 1.3,3.38 1.99,-1.61 4.08,-2.1 6.43,-1.87 1.12,0.11 1.78,-0.77 1.74,-2.06 -0.02,-0.77 -0.25,-1.53 -0.38,-2.3 -0.46,-2.73 -0.38,-5.35 1.41,-7.67 0.24,-0.31 0.4,-0.67 0.62,-0.99 1.47,-2.16 3.37,-3.35 6.09,-2.74 1.82,0.41 3.81,0.33 5.25,1.86 0.15,0.16 0.55,0.1 0.84,0.13 0.78,0.07 1.55,0.15 2.33,0.2 0.46,0.03 0.91,0.01 1.62,0.01 -0.6,-1.89 -0.98,-3.62 -1.69,-5.19 -1.32,-2.93 -2.84,-5.76 -4.28,-8.63 -0.13,-0.26 -0.3,-0.53 -0.53,-0.69 -0.31,-0.21 -0.71,-0.48 -1.03,-0.43 -1.37,0.21 -2.72,0.53 -4.19,0.82 0.56,1.49 1.1,2.72 2.26,3.56 0.99,0.72 1.66,1.68 1.98,2.82 0.18,0.62 0.18,1.35 0.05,1.99 -0.18,0.91 -0.63,1.16 -1.58,1.16 -0.59,-0.01 -1.18,-0.01 -2.02,0.01 z m -11.01,72.34 c 0.57,-1.71 1.03,-3.47 1.74,-5.13 2.53,-5.96 3.71,-12.32 5.48,-18.5 1.64,-5.72 3.05,-11.51 5.76,-16.86 0.9,-1.79 1.73,-3.6 2.59,-5.41 0.16,-0.33 0.26,-0.69 0.46,-1.23 -0.68,0.12 -1.19,0.21 -1.56,0.28 -0.59,1.6 -1.05,3.09 -1.66,4.52 -1.4,3.27 -2.86,6.51 -4.3,9.77 -0.43,0.98 -0.94,1.93 -1.29,2.94 -3.57,10.12 -6.8,20.35 -9.71,30.68 -0.61,2.16 -1.4,4.26 -2.08,6.4 -0.31,0.97 -0.62,1.95 -0.81,2.94 -0.74,3.88 -1.42,7.77 -2.14,11.65 -0.24,1.29 -0.7,2.56 -0.78,3.86 -0.28,4.58 -0.5,9.16 -0.62,13.74 -0.07,2.69 0.87,5.18 2.17,7.5 0.51,0.91 1.23,1.68 2.48,2.24 -0.25,-0.89 -0.44,-1.53 -0.61,-2.17 -0.57,-2.17 -1.27,-4.31 -1.67,-6.51 -0.69,-3.86 -0.54,-7.78 -0.45,-11.68 0.03,-1.12 0.11,-2.25 0.32,-3.35 0.74,-3.83 1.37,-7.69 2.37,-11.46 1.25,-4.71 2.81,-9.34 4.31,-14.22 z m 17.9,-59.48 c 0.22,-0.38 -0.03,-0.45 -0.32,-0.61 -0.8,-0.44 -1.71,-0.81 -2.31,-1.46 -1.44,-1.57 -2.51,-3.5 -4.69,-4.28 -0.19,-0.07 -0.38,-0.5 -0.34,-0.71 0.05,-0.22 0.36,-0.47 0.59,-0.53 0.61,-0.15 1.25,-0.2 1.88,-0.29 0.39,-0.06 0.78,-0.09 1.16,-0.17 0.33,-0.06 0.66,-0.17 0.99,-0.25 -0.01,-0.11 -0.02,-0.23 -0.02,-0.34 -1.33,-0.23 -2.65,-0.46 -3.98,-0.69 -0.93,-0.16 -1.73,0.14 -2.44,0.73 -1.66,1.39 -2.65,3.22 -3.39,5.21 -0.15,0.4 -0.17,0.87 -0.13,1.3 0.17,1.84 0.39,3.67 0.54,5.1 1.14,0.84 2.19,1.31 2.79,2.11 1.21,1.61 1.92,3.5 2.21,5.52 0.04,0.3 0.11,0.6 0.19,1.03 2.64,-2.76 4.83,-5.58 5.96,-9.12 0.28,-0.84 0.79,-1.59 1.31,-2.55 z m -42.01,57.34 c -0.72,1.55 -1.39,3.12 -2.16,4.64 -0.72,1.43 -1.43,2.91 -2.35,4.21 -1.92,2.7 -3.92,5.35 -6.01,7.93 -2.13,2.63 -4.09,5.35 -5.58,8.39 -1.45,2.94 -3.15,5.72 -5.08,8.38 -0.87,1.2 -1.56,2.53 -2.33,3.8 0.52,-0.22 0.79,-0.6 1.08,-0.96 1.06,-1.34 2.04,-2.75 3.2,-4 2.41,-2.6 4.36,-5.49 6.03,-8.61 1.77,-3.32 3.87,-6.41 6.36,-9.27 3.66,-4.2 7.09,-8.58 8.67,-14.1 0.62,-2.17 1.78,-4.1 3.13,-5.93 1.65,-2.24 3.24,-4.52 4.77,-6.85 1.26,-1.91 2.52,-3.85 3.53,-5.9 1.27,-2.58 2.54,-5.21 3.33,-7.95 0.94,-3.27 1.5,-6.66 2.87,-9.81 0.09,-0.22 -0.04,-0.53 -0.07,-0.8 -0.4,0.24 -0.57,0.48 -0.67,0.75 -0.6,1.7 -1.22,3.39 -1.76,5.12 -1.85,5.94 -4.1,11.68 -7.86,16.73 -1.98,2.66 -3.84,5.42 -5.64,8.2 -1.24,1.87 -2.25,3.88 -3.46,6.03 z m 31.34,15.18 c 1.81,0.06 3.37,0.8 4.96,1.93 1.04,-2.91 2.02,-5.7 3.03,-8.49 0.18,-0.49 0.03,-0.83 -0.3,-1.17 -2,-2.02 -4.4,-2.89 -7.19,-2.21 -4.52,1.1 -7.05,6.15 -5.39,10.63 0.03,0.07 0.15,0.11 0.3,0.22 0.33,-0.17 0.69,-0.36 1.01,-0.52 -0.04,-1.05 -0.84,-1.95 -0.05,-2.93 0.27,0.41 0.36,0.86 0.49,1.29 0.14,0.45 0.31,0.9 0.47,1.37 0.88,-0.05 1.65,-0.09 2.67,-0.12 z m 7.84,-9.33 c 0.19,0.12 0.38,0.24 0.65,0.4 0.82,-4.01 1.61,-7.9 2.41,-11.87 -2.63,-1.66 -5.33,-1.93 -8.03,-0.43 -2.98,1.66 -4.2,4.37 -4,7.72 0.05,0.85 0.15,1.73 0.72,2.48 0.44,-0.13 0.8,-0.24 1.19,-0.35 -0.15,-1.07 -0.92,-2.01 -0.22,-3.41 0.45,1.31 0.8,2.32 1.13,3.26 3.74,0.58 4.1,0.71 6.15,2.2 z m -0.52,-28.69 c 0.1,-0.27 0.19,-0.54 0.29,-0.81 0.11,0.01 0.22,0.02 0.33,0.02 0.2,1.21 0.39,2.42 0.61,3.71 2.1,-0.17 4.05,0 5.66,1.45 0.16,-0.3 0.26,-0.42 0.29,-0.56 0.62,-3.5 1.22,-7 1.86,-10.49 0.13,-0.7 -0.22,-1.08 -0.7,-1.47 -2.56,-2.03 -6.2,-1.66 -8.41,0.86 -2.16,2.46 -2.39,6.31 -0.53,9.11 0.2,0.3 0.48,0.54 0.94,1.05 -0.15,-1.1 -0.24,-1.86 -0.34,-2.87 z m -4.54,45.22 c 0.52,-1.31 1.04,-2.61 1.54,-3.86 -2.1,-2.61 -6.87,-2.89 -10.13,-0.11 -2.82,2.41 -3.66,6.34 -1.84,8.89 0.32,-0.14 0.65,-0.29 0.94,-0.43 -0.07,-0.99 -0.98,-1.79 -0.21,-3.11 0.32,0.88 0.53,1.49 0.77,2.08 0.18,0.44 0.32,0.95 0.96,0.93 1.94,-0.05 3.56,0.79 5.19,2.09 0.94,-2.17 1.81,-4.22 2.78,-6.48 z m 2.9,-30.59 c 1.94,-0.19 3.76,0.29 5.47,1.16 0.48,-1.72 0.9,-3.32 1.37,-4.9 0.49,-1.63 1.02,-3.24 1.52,-4.81 -1.14,-1.42 -2.5,-1.99 -4.18,-1.95 -4.11,0.11 -7.81,4.4 -7.24,8.5 0.1,0.7 0.45,1.38 0.76,2.03 0.18,0.38 0.53,0.39 0.83,-0.02 -0.15,-1.09 -0.87,-2.19 -0.1,-3.37 0.27,0.51 0.35,1.06 0.5,1.59 0.18,0.63 0.12,1.39 1.07,1.77 z m 20.39,-42.73 c 0.05,-0.24 0.1,-0.48 0.15,-0.71 0.72,-3.11 -0.22,-5.28 -3,-6.86 -0.28,-0.16 -0.65,-0.33 -0.93,-0.28 -1.47,0.26 -2.92,0.6 -4.4,0.91 -0.11,1.36 -0.25,2.82 -0.31,4.27 -0.02,0.41 0.1,0.87 0.31,1.23 0.81,1.39 1.71,2.73 2.5,4.13 0.74,1.3 1.81,1.86 3.26,1.76 1.37,-0.09 2.6,0.26 3.71,1.08 0.16,0.12 0.38,0.16 0.85,0.36 -0.56,-1.11 -0.92,-1.96 -1.4,-2.74 -0.56,-0.89 -0.88,-1.83 -0.74,-3.15 z m -16.36,16.12 c 0.03,-0.76 -0.23,-1.6 0.64,-2.36 0.42,1.28 -0.2,2.53 0.59,3.59 2.05,-0.12 3.93,0.4 5.83,1.8 0.31,-4.06 0.06,-7.82 -0.22,-11.58 -2.74,-1.37 -5.93,-0.31 -7.5,2.49 -1.47,2.61 -1.11,6.05 0.84,7.32 -0.06,-0.38 -0.11,-0.71 -0.18,-1.26 z m -16.44,63.15 c -2.87,1.17 -4.15,3.42 -4.16,6.41 -0.01,2.85 1.22,5.01 3.83,6.46 2.59,-3.51 4.18,-7.43 6.19,-11.1 -1.47,-1.78 -3.17,-2.32 -5.86,-1.77 z m 0.74,-71.62 c 0.2,-2.53 0.11,-5.03 -0.54,-7.5 -1.23,-0.17 -2.01,0.63 -2.94,0.97 -2.02,0.74 -2.33,2.42 -2.52,4.2 -0.02,0.19 -0.01,0.39 0,0.58 0.14,2.1 0.17,4.19 -0.94,6.15 0.73,0.5 1.4,0.9 2,1.38 0.58,0.47 1.08,1.03 1.66,1.59 1.43,-2.32 2.91,-4.45 3.28,-7.37 z m 11.36,-2.21 c 0.7,-0.2 1.39,-0.49 2.1,-0.58 2.16,-0.27 3.95,-1.29 5.66,-2.52 2.65,-1.9 4.02,-5.88 3.12,-9.52 -2.25,-0.84 -4.71,0.89 -5.39,2.77 -0.18,0.5 -0.4,0.99 -0.57,1.5 -0.73,2.25 -1.89,4.26 -3.37,6.09 -0.57,0.72 -1.12,1.45 -1.55,2.26 z m -4,-3.37 c -0.38,-0.79 -0.73,-1.59 -1.15,-2.36 -0.45,-0.81 -1.14,-1.29 -2.18,-1.29 -0.58,1.3 -1.76,1.7 -3.11,1.9 0.14,1.33 0.42,2.54 0.36,3.73 -0.07,1.46 0.49,2.66 1.16,3.84 1.09,1.94 2.78,2.87 4.96,2.93 0.13,-1.41 0.15,-2.77 0.41,-4.09 0.31,-1.54 0.18,-2.99 -0.45,-4.66 z m -20.88,9.4 c -0.24,0.41 -0.48,0.81 -0.76,1.29 1.38,0.07 2.63,0.21 3.88,0.17 0.53,-0.02 1.12,-0.33 1.54,-0.68 1.1,-0.93 1.57,-2.21 1.65,-3.62 0.04,-0.78 0.03,-1.56 -0.02,-2.34 -0.08,-1.29 0.03,-2.55 0.57,-3.72 0.44,-0.96 0.29,-1.75 -0.38,-2.58 -1.76,0.86 -2.9,2.17 -3.36,4.03 -0.64,2.58 -1.74,4.96 -3.12,7.45 z m 40.04,-25.7 c -0.18,-0.6 -0.29,-1.24 -0.55,-1.8 -0.33,-0.7 -1.05,-0.99 -1.54,-0.65 -0.93,0.64 -1.7,1.45 -2.07,2.56 -0.31,0.96 -0.56,1.93 -0.87,2.89 -0.27,0.83 -0.48,1.66 -0.1,2.7 1.49,0.01 3,0.14 4.48,0.01 2.45,-0.22 2.88,-1.21 1.67,-3.39 -0.38,-0.67 -0.65,-1.39 -1.02,-2.32 z m -10.96,0.52 c -1.2,0.22 -2.41,0.44 -3.68,0.67 1.03,1.27 1.97,2.38 2.85,3.52 0.85,1.11 2.04,1.46 3.33,1.5 1.15,0.04 1.75,-0.66 1.9,-1.84 0.09,-0.76 0.33,-1.5 0.53,-2.25 0.1,-0.4 0.26,-0.78 0.44,-1.32 -1.81,-0.1 -3.45,-0.19 -5.37,-0.28 z m 4.84,19.39 c 0.76,0.11 1.52,0.22 2.33,0.34 0,-1.88 0,-3.68 0,-5.47 -1.61,2.22 -3.74,3.58 -6.04,4.75 -0.67,0.34 -0.77,1.05 -0.91,1.84 2.05,-1.17 2.57,-1.34 4.62,-1.46 z m -12.59,6.74 c 0,1.08 0,2.15 0,3.55 0.78,-1.71 1.36,-3.13 2.06,-4.5 1.42,-2.79 1.62,-3.31 1.45,-4.43 -0.83,0.7 -1.63,1.38 -2.57,2.17 0.07,0.51 0.13,1.18 0.25,1.84 0.18,1.01 0.19,1.01 -1.19,1.37 z"
   id="path1" />
		<path
   d="m 300.16,286.7 c 0.08,0.45 0.13,0.88 0.03,1.27 -0.36,1.52 -0.82,3.01 -1.16,4.53 -1.33,5.91 -3.68,11.39 -6.77,16.58 -2.34,3.94 -4.58,7.94 -6.81,11.95 -0.87,1.57 -1.57,3.25 -2.36,4.87 -0.17,0.36 -0.39,0.7 -0.67,1.18 -0.54,-0.83 -0.14,-1.35 0.09,-1.82 1.3,-2.68 2.57,-5.37 3.99,-7.98 1.8,-3.29 3.75,-6.51 5.63,-9.76 2.83,-4.89 4.94,-10.05 6.12,-15.59 0.29,-1.38 0.68,-2.74 1.09,-4.1 0.14,-0.41 0.48,-0.77 0.82,-1.13 z"
   id="path2" />
		<path
   d="m 261.24,332.15 c -0.67,1.08 -1.26,2.08 -1.88,3.06 -0.14,0.23 -0.39,0.39 -0.7,0.49 0.04,-1.46 0.86,-2.54 1.63,-3.61 0.79,-1.1 1.69,-2.13 2.62,-3.12 0.89,-0.95 1.46,-2.24 2.63,-2.96 0.52,0.66 0.06,0.96 -0.19,1.27 -1.34,1.6 -2.7,3.19 -4.11,4.87 z"
   id="path3" />
		<path
   d="m 264.31,331.71 c -0.52,0.59 -0.49,1.48 -1.32,1.75 -0.13,-1.22 1.34,-3.72 3.15,-5.45 0.59,0.2 0.4,0.56 0.17,0.89 -0.64,0.92 -1.29,1.82 -2,2.81 z"
   id="path4" />
		<path
   d="m 326.98,280.99 c -0.96,4.32 -1.89,8.53 -2.83,12.73 0,0.01 -0.09,0 -0.34,0 -0.01,-0.58 -0.11,-1.19 -0.02,-1.76 0.62,-3.9 1.29,-7.78 2.46,-11.57 1.62,-5.23 2.81,-10.55 3.09,-16.04 0.04,-0.87 0.18,-1.75 0.32,-2.61 0.08,-0.44 0.28,-0.86 0.46,-1.4 0.28,0.26 0.48,0.36 0.48,0.45 -0.57,6.81 -1.39,13.57 -3.62,20.2 z"
   id="path5" />
		<path
   d="m 329.84,277.38 c 0.63,-3.09 1.24,-6.06 1.88,-9.2 0.86,0.67 0.54,1.34 0.44,1.88 -0.48,2.58 -1.01,5.16 -1.57,7.72 -0.62,2.85 -1.29,5.69 -1.96,8.53 -0.07,0.28 -0.26,0.54 -0.4,0.81 -0.1,-0.02 -0.19,-0.04 -0.29,-0.05 0,-0.54 -0.1,-1.09 0.02,-1.61 0.59,-2.66 1.23,-5.31 1.88,-8.08 z"
   id="path6" />
		<path
   d="m 320.21,316.91 c -0.89,1.81 -1.77,3.49 -2.59,5.2 -1.2,2.5 -2.36,5.01 -3.55,7.52 -0.1,0.21 -0.24,0.39 -0.63,0.57 -0.04,-0.27 -0.18,-0.58 -0.09,-0.8 0.62,-1.58 1.22,-3.19 1.96,-4.72 1.32,-2.72 2.73,-5.39 4.11,-8.07 0.1,-0.2 0.29,-0.35 0.58,-0.7 0.11,0.42 0.18,0.65 0.21,1 z"
   id="path7" />
		<path
   d="m 291.03,270.21 c -0.35,0.8 -0.65,1.5 -0.95,2.18 -0.76,-0.21 -0.51,-0.6 -0.39,-0.95 0.65,-1.83 1.3,-3.66 1.94,-5.5 0.33,-0.96 0.62,-1.92 1.02,-3.17 0.25,0.39 0.52,0.62 0.51,0.83 -0.03,0.48 -0.15,0.96 -0.31,1.42 -0.57,1.7 -1.18,3.39 -1.82,5.19 z"
   id="path8" />
		<path
   d="m 290.48,266.01 c -0.24,0.78 -0.44,1.45 -0.66,2.19 -0.27,-0.15 -0.48,-0.21 -0.49,-0.29 -0.09,-0.81 0.23,-1.8 0.91,-2.78 0.12,0.32 0.2,0.55 0.24,0.88 z"
   id="path9" />
		<path
   d="m 302.94,334.19 c 0.33,0.45 0.31,0.71 -0.22,0.74 -0.09,0.01 -0.18,-0.06 -0.27,-0.11 -1.17,-0.73 -2.33,-3.26 -2.12,-4.77 0.89,0.45 0.66,1.45 1.11,2.05 0.5,0.66 0.96,1.34 1.5,2.09 z"
   id="path10" />
	</g>
</g>
</svg>
