<?xml version="1.0" encoding="UTF-8" standalone="no"?>
<!-- Generator: Adobe Adobe Illustrator 24.2.0, SVG Export Plug-In . SVG Version: 6.00 Build 0)  -->

<svg
   version="1.1"
   id="Layer_1"
   x="0px"
   y="0px"
   width="201.91237"
   height="209.45726"
   viewBox="0 0 201.91237 209.45726"
   xml:space="preserve"
   sodipodi:docname="Veg43.svg"
   inkscape:version="1.4 (e7c3feb1, 2024-10-09)"
   xmlns:inkscape="http://www.inkscape.org/namespaces/inkscape"
   xmlns:sodipodi="http://sodipodi.sourceforge.net/DTD/sodipodi-0.dtd"
   xmlns="http://www.w3.org/2000/svg"
   xmlns:svg="http://www.w3.org/2000/svg"><defs
   id="defs8" /><sodipodi:namedview
   id="namedview8"
   pagecolor="#ffffff"
   bordercolor="#000000"
   borderopacity="0.25"
   inkscape:showpageshadow="2"
   inkscape:pageopacity="0.0"
   inkscape:pagecheckerboard="0"
   inkscape:deskcolor="#d1d1d1"
   inkscape:zoom="1.6816667"
   inkscape:cx="96.333003"
   inkscape:cy="134.68781"
   inkscape:window-width="1200"
   inkscape:window-height="1186"
   inkscape:window-x="0"
   inkscape:window-y="0"
   inkscape:window-maximized="0"
   inkscape:current-layer="Layer_1" />
<g
   id="g8"
   transform="translate(-203.39,-165.28705)">
	<g
   id="g7">
		<path
   d="m 228.45,307.54 c 0.36,-2.64 0.81,-5.14 1.04,-7.67 0.54,-5.84 0.76,-11.7 0.19,-17.54 -0.38,-3.84 -1.31,-7.54 -2.91,-11.13 -3.01,-6.77 -7.04,-12.81 -12.11,-18.19 -1.34,-1.42 -2.55,-2.95 -3.74,-4.5 -1.11,-1.45 -1.7,-3.14 -2.08,-4.94 -0.48,-2.23 -1.05,-4.47 -1.88,-6.59 -0.5,-1.27 -1.54,-2.34 -2.36,-3.48 -0.39,-0.55 -0.83,-1.06 -1.21,-1.54 0.32,-0.86 0.92,-0.83 1.5,-0.68 2.9,0.76 5.04,2.47 6.36,5.18 0.13,0.26 0.2,0.55 0.3,0.83 1.24,3.65 3.13,6.87 5.79,9.73 4.17,4.49 8.6,8.67 13.7,12.07 4.75,3.17 10,5.03 15.72,5.49 6.33,0.51 12.58,-0.27 18.78,-1.38 5.51,-0.99 11.04,-1.4 16.61,-0.94 4.83,0.4 9.55,1.43 14.12,3.07 0.53,0.19 1.07,0.36 1.74,0.58 -0.14,-3.69 0.49,-7.07 1.4,-10.43 3.19,-11.77 9.43,-21.66 18.37,-29.91 4.74,-4.38 10.33,-7.09 16.39,-9.07 4.01,-1.31 8.16,-1.93 12.29,-2.63 7.03,-1.19 14.02,-2.53 20.75,-4.96 4.22,-1.52 8.16,-3.47 11.53,-6.49 1.31,-1.17 2.77,-2.18 4.01,-3.42 1.34,-1.34 2.65,-2.76 3.68,-4.34 2.01,-3.06 2.19,-6.44 0.36,-9.58 -2.53,-4.34 -2.15,-8.44 0.26,-12.59 1.52,-2.61 3.41,-4.88 5.93,-6.57 0.45,-0.3 0.94,-0.91 1.55,-0.49 0.71,0.49 0.22,1.16 0.03,1.73 -0.56,1.66 -1.18,3.31 -1.73,4.97 -1.12,3.38 -0.89,6.74 0.32,10.04 0.9,2.47 1.97,4.9 2.22,7.56 0.32,3.39 0.41,6.82 -1.4,9.84 -3.37,5.64 -3.53,11.61 -1.96,17.69 1.29,5 2.97,9.92 5.3,14.55 1.92,3.81 3.51,7.74 4.47,11.89 1.56,6.8 3.06,13.62 3.43,20.62 0.65,12.42 -2.13,23.95 -8.35,34.78 -5.69,9.91 -13.64,17.37 -23.41,23.03 -4.46,2.58 -9.33,4.22 -14.25,5.68 -5.76,1.72 -11.59,3.13 -17.59,3.69 -1.5,0.14 -3.02,0.15 -4.53,0.2 -0.58,0.02 -1.15,0 -1.57,0 -1.17,4.75 -2.29,9.32 -3.39,13.79 2.45,0.24 5,0.49 7.55,0.76 0.07,0.01 0.12,0.23 0.26,0.53 -2.8,-0.11 -5.47,-0.21 -8.15,-0.31 -0.03,0.11 -0.07,0.22 -0.1,0.33 0.81,0.46 1.67,0.84 2.42,1.39 0.7,0.52 1.6,0.78 2,1.74 0.34,0.84 1.4,1.33 1.4,2.58 -0.34,-0.15 -0.58,-0.2 -0.72,-0.34 -0.24,-0.24 -0.46,-0.51 -0.63,-0.81 -0.65,-1.16 -1.55,-1.63 -2.9,-1.24 -0.68,0.2 -1.42,0.19 -2.09,0.28 1.33,1.22 2.64,2.42 3.94,3.64 0.07,0.06 0.01,0.26 0.01,0.39 -0.6,0.24 -0.81,-0.24 -1.13,-0.49 -0.98,-0.8 -1.93,-1.64 -2.96,-2.38 -1.16,-0.83 -2.41,-1.52 -4.03,-1.13 -0.11,-0.51 -0.2,-0.9 -0.35,-1.58 2.46,0.95 4.75,0.74 7.14,0.44 -1.07,-1.36 -3.3,-2.19 -5.51,-2.06 0.15,-0.43 0.28,-0.81 0.41,-1.18 1.46,0.2 1.48,0.21 1.95,-1.05 2.08,-5.62 3.27,-11.42 3.7,-17.4 0.64,-8.9 -0.48,-17.57 -3.62,-25.9 -6.4,-16.97 -17.92,-28.97 -35.07,-35.24 -9.48,-3.46 -19.23,-3.96 -29.15,-2.17 -3.45,0.62 -6.95,0.95 -10.43,1.41 -0.28,0.04 -0.57,0.07 -0.85,0.3 1.26,0 2.52,0.02 3.78,0 3.71,-0.09 7.42,-0.16 11.12,-0.3 5.86,-0.21 11.57,0.68 17.21,2.18 4.59,1.22 8.98,2.97 13.27,5 3.11,1.47 5.88,3.48 8.46,5.73 5.93,5.17 11.18,10.88 14.77,18 3.48,6.9 5.49,14.14 5.86,21.88 0.27,5.56 -0.51,11 -1.44,16.43 -0.54,3.18 -1.26,6.31 -2.51,9.3 -0.15,0.35 -0.16,0.85 -0.04,1.22 0.37,1.09 0.25,2.11 -0.17,3.13 -1.15,2.83 -2.75,5.39 -4.82,7.63 -0.87,0.94 -1.81,1.77 -3.14,2.05 -0.29,0.06 -0.6,0.32 -0.8,0.57 -4.38,5.44 -10.07,8.79 -16.71,10.75 -5.48,1.62 -11.07,2.32 -16.75,2.43 -8.52,0.17 -16.49,-2.09 -24.16,-5.64 -6.61,-3.06 -12.27,-7.43 -17.31,-12.6 -3.73,-3.83 -6.18,-8.5 -8.1,-13.46 -2.1,-5.42 -3.2,-11.03 -3.51,-16.83 -0.3,-5.71 -0.37,-11.41 -0.07,-17.12 0.01,-0.24 0,-0.49 -0.17,-0.76 -0.1,0.42 -0.25,0.83 -0.3,1.25 -0.36,2.66 -0.81,5.31 -1.04,7.98 -1.43,16.68 2.93,31.45 14.87,43.54 7.72,7.82 17.21,12.41 27.99,14.25 14.61,2.5 28.33,-0.36 41.34,-7.18 0.85,-0.45 0.85,-0.46 1.07,-1.6 0.79,0.51 1.54,1 2.41,1.56 0.13,-0.49 0.24,-0.85 0.33,-1.21 0.18,-0.66 0.38,-1.31 0.52,-1.98 0.31,-1.54 1.17,-2.62 2.66,-3.23 0.5,0.31 1.03,0.64 1.75,1.09 -0.2,-1.13 -0.36,-2 -0.52,-2.88 0.08,-0.04 0.15,-0.08 0.23,-0.11 0.18,0.17 0.46,0.3 0.54,0.51 0.19,0.55 0.38,1.12 0.43,1.7 0.11,1.3 0.84,1.88 2.22,1.98 -0.15,-1.08 -0.59,-2.04 -1.04,-2.97 -0.45,-0.92 -0.98,-1.8 -1.48,-2.7 0.1,-0.08 0.19,-0.15 0.29,-0.23 0.23,0.18 0.51,0.32 0.69,0.54 1.15,1.49 1.81,3.23 2.36,5 0.25,0.81 0.7,1.09 1.55,0.89 -0.44,-3.06 -2.05,-5.7 -3.07,-8.82 1.34,0.9 1.66,1.63 4.11,9.02 0.15,0.04 0.33,0.12 0.52,0.13 0.19,0.02 0.38,-0.02 0.58,-0.04 0.06,-0.16 0.16,-0.29 0.16,-0.42 0.05,-1.53 -0.12,-2.91 -1.31,-4.15 -1,-1.03 -1.67,-2.39 -2.45,-3.62 -0.16,-0.25 -0.16,-0.6 -0.29,-1.12 1.19,0.56 1.3,1.64 1.87,2.35 0.58,0.72 1.11,1.46 1.84,2.43 0.22,-1.23 0.29,-2.1 -0.55,-2.84 -1,-0.89 -1.76,-1.96 -2.23,-3.22 -0.1,-0.27 -0.06,-0.58 -0.09,-0.87 0.1,-0.04 0.2,-0.08 0.31,-0.11 0.61,0.99 1.21,1.98 1.95,3.17 0.45,-1.19 -0.7,-1.99 -0.15,-3.07 0.25,0.3 0.49,0.48 0.58,0.71 0.25,0.68 0.55,1.38 0.64,2.09 0.15,1.15 0.73,1.87 1.78,2.26 1.23,0.46 2.47,0.91 3.7,1.37 0.34,0.13 0.67,0.26 1,0.39 -0.21,0.73 -0.67,0.56 -1,0.46 -1.25,-0.41 -2.48,-0.86 -3.72,-1.31 -0.36,-0.13 -0.7,-0.3 -1.11,-0.49 -0.26,1.56 -0.16,2.86 1.22,3.81 0.52,0.36 0.91,0.9 1.52,1.52 -1.38,0.27 -1.67,-0.92 -2.65,-1.2 0,0.9 0,1.76 0,2.8 -1.44,-0.08 -2.68,-0.15 -3.92,-0.22 -0.31,0.71 0.49,1.46 0.02,2.21 -0.71,-0.1 -0.71,-0.63 -0.74,-1.01 -0.13,-1.49 -1.01,-2.1 -2.48,-2.2 0,2.34 0,4.65 0,6.96 0.47,0.31 0.92,0.62 1.37,0.92 -0.03,0.09 -0.06,0.18 -0.09,0.26 -0.4,0.03 -0.81,0.05 -1.29,0.08 -0.62,0.87 0.09,2.21 -0.9,3.1 -0.53,-0.41 -0.3,-0.92 -0.28,-1.36 0.03,-0.49 0.1,-0.97 0.18,-1.45 0.14,-0.8 -0.2,-1.2 -0.99,-1.26 -0.47,0.5 0.24,1.41 -0.81,1.88 -0.08,-0.47 -0.23,-0.87 -0.19,-1.25 0.1,-1.02 -0.32,-1.66 -1.24,-2.05 -0.44,-0.18 -0.84,-0.45 -1.36,-0.73 -0.64,2.09 0.34,4.13 -0.21,6.14 -0.71,-0.15 -0.65,-0.64 -0.65,-1.05 -0.01,-1.85 -0.01,-3.7 -0.01,-5.58 -0.61,-0.4 -1.13,-0.74 -1.5,-0.98 -0.66,0.48 -1.18,0.96 -1.78,1.28 -8.17,4.3 -16.82,6.99 -26.05,7.78 -10.43,0.9 -20.49,-0.54 -29.94,-5.1 -15.74,-7.6 -25.26,-20.16 -28.92,-37.18 -1.43,-6.65 -1.47,-13.37 -0.55,-20.1 0.22,-1.46 0.51,-2.95 0.77,-4.57 z m -1.42,-47.57 c -0.53,-0.5 -1.07,-1 -1.6,-1.5 -0.48,-0.45 -0.96,-0.9 -1.44,-1.35 -0.09,0.11 -0.17,0.21 -0.26,0.32 1.11,0.9 2.22,1.8 3.34,2.91 3.77,3.32 7.99,5.9 12.67,7.74 5.86,2.31 11.98,3.38 18.21,4.09 8.11,0.93 15.83,3.32 23.14,6.95 9.28,4.6 16.97,11.25 23.88,18.85 3.79,4.17 7.09,8.71 9.51,13.82 4.07,8.6 6.16,17.75 7.51,27.1 0.19,1.31 0.23,2.63 0.35,3.95 0.58,-0.87 0.97,-1.76 1.24,-2.67 0.39,-1.31 0.78,-2.62 1.03,-3.96 1.01,-5.4 0.4,-10.8 -0.16,-16.18 -0.48,-4.6 -2.09,-8.91 -3.67,-13.22 -4.89,-13.28 -13.73,-23.15 -26.14,-29.77 -9.44,-5.03 -19.57,-7.68 -30.32,-7.77 -6.34,-0.05 -12.69,-0.14 -18.96,-1.22 -4.69,-0.81 -9.24,-2.05 -13.31,-4.64 -1.36,-0.86 -2.66,-1.82 -3.99,-2.72 -0.33,-0.21 -0.69,-0.36 -1.03,-0.73 z m 148.05,-53.13 c -0.96,0.47 -1.91,0.98 -2.89,1.41 -6.52,2.84 -13.31,4.74 -20.32,5.92 -4.33,0.73 -8.68,1.39 -12.96,2.36 -8.94,2.03 -16.78,6 -23.23,12.79 -7.98,8.41 -13.18,18.19 -15.81,29.42 -0.59,2.52 -0.91,5.08 -0.57,7.71 1.77,0.85 3.52,1.69 5.34,2.57 0.11,-0.36 0.22,-0.62 0.27,-0.9 0.23,-1.35 0.44,-2.7 0.68,-4.04 0.89,-5.03 2.4,-9.84 4.99,-14.29 4.72,-8.13 10.39,-15.49 17.56,-21.61 3.11,-2.66 6.49,-5.01 9.75,-7.48 0.35,-0.26 0.74,-0.67 1.41,-0.12 -0.41,0.36 -0.74,0.69 -1.11,0.96 -0.9,0.67 -1.82,1.31 -2.74,1.96 -9.99,7.03 -17.85,15.97 -23.99,26.5 -2.83,4.85 -4.32,10.11 -5.32,15.56 -0.24,1.33 -0.43,2.67 -0.64,3.99 0.85,0.51 1.54,0.93 2.35,1.42 0.8,-2.28 1.52,-4.45 2.33,-6.58 0.82,-2.14 1.68,-4.27 2.62,-6.36 0.92,-2.03 1.56,-4.22 2.99,-6.19 0.52,0.92 0.01,1.44 -0.22,1.97 -2.38,5.46 -4.85,10.87 -6.63,16.57 -0.11,0.36 -0.17,0.73 -0.26,1.14 1.04,0.73 2.02,1.41 3.1,2.17 0.42,-1.4 0.77,-2.6 1.14,-3.81 0.37,-1.21 0.75,-2.42 1.14,-3.63 4.03,-12.69 11.13,-23.48 20.46,-32.87 0.72,-0.73 1.51,-1.39 2.3,-2.04 0.19,-0.16 0.54,-0.12 0.81,-0.17 0.07,0.09 0.13,0.18 0.2,0.28 -12.85,11.72 -21.24,26.03 -25.25,42.89 0.7,0.57 1.3,1.07 2.01,1.64 0.27,-0.49 0.51,-0.9 0.73,-1.33 4.97,-9.76 10.68,-19.07 16.97,-28.03 0.73,-1.04 1.46,-2.08 2.21,-3.1 0.23,-0.32 0.56,-0.57 0.97,-0.98 0.34,1 -0.25,1.42 -0.58,1.88 -6.99,9.73 -13.27,19.89 -18.81,30.51 -0.27,0.51 -0.51,1.04 -0.8,1.62 1.29,1.25 2.53,2.45 3.88,3.75 0.4,-0.8 0.74,-1.44 1.05,-2.1 3.42,-7.19 7.02,-14.28 11.19,-21.06 1.58,-2.58 3.35,-5.04 5.06,-7.54 0.27,-0.39 0.5,-0.98 1.44,-0.76 -1.64,2.71 -3.59,5.06 -5.11,7.68 -1.55,2.66 -3.14,5.29 -4.62,7.98 -1.49,2.69 -2.89,5.43 -4.28,8.17 -1.39,2.73 -2.73,5.49 -4.12,8.29 1.32,1.6 2.6,3.16 3.97,4.83 0.31,-0.59 0.53,-1.02 0.75,-1.43 2.17,-4.04 4.33,-8.09 6.52,-12.11 0.25,-0.46 0.42,-1.11 1.15,-1.2 0.34,0.72 -0.18,1.15 -0.44,1.63 -2.04,3.78 -4.11,7.54 -6.15,11.31 -0.46,0.85 -0.84,1.75 -1.28,2.67 0.74,1.1 1.45,2.16 2.3,3.42 1.37,-2.21 2.65,-4.17 3.82,-6.19 4.03,-6.97 8.03,-13.96 12.04,-20.94 0.19,-0.34 0.47,-0.63 0.79,-1.05 0.18,0.35 0.32,0.52 0.28,0.59 -4.98,9.74 -10.73,19.03 -16.47,28.43 0.63,1.14 1.31,2.35 2.05,3.68 1.83,-1.96 3.33,-3.93 4.68,-6.02 1.74,-2.71 3.42,-5.46 5.14,-8.18 0.26,-0.42 0.6,-0.79 0.99,-1.31 0.15,0.38 0.29,0.56 0.24,0.64 -3,5.6 -6.44,10.91 -10.64,15.73 0.78,1.82 1.54,3.59 2.37,5.55 0.44,-0.53 0.79,-0.91 1.1,-1.33 3.16,-4.22 6.36,-8.41 9.45,-12.68 3.15,-4.35 6.17,-8.79 9.26,-13.18 0.34,-0.49 0.76,-0.92 1.22,-1.46 0.56,0.9 -0.06,1.3 -0.35,1.7 -5.13,7.19 -10.27,14.38 -15.44,21.54 -1.4,1.94 -2.92,3.79 -4.35,5.7 -0.24,0.32 -0.47,0.8 -0.41,1.15 0.12,0.69 0.45,1.35 0.72,2.12 0.45,-0.32 0.79,-0.51 1.07,-0.76 1.92,-1.74 3.84,-3.46 5.72,-5.24 1.14,-1.07 2.19,-2.23 3.3,-3.33 0.23,-0.23 0.58,-0.34 0.87,-0.51 0.11,0.15 0.22,0.29 0.33,0.44 -3.5,3.64 -6.91,7.37 -11.1,10.28 0.37,1.41 0.7,2.66 1.07,4.08 0.56,-0.42 1,-0.72 1.4,-1.06 2.18,-1.88 4.39,-3.74 6.53,-5.66 6.2,-5.54 12.05,-11.42 17.21,-17.96 3.06,-3.88 5.82,-7.96 7.87,-12.48 0.16,-0.35 0.2,-0.93 1.07,-0.68 -0.22,0.63 -0.38,1.26 -0.66,1.84 -2.29,4.79 -5.3,9.11 -8.66,13.19 -7.04,8.55 -15.08,16.09 -23.69,23.04 -1,0.81 -1,0.8 -0.48,2.07 0.34,-0.17 0.7,-0.3 1.02,-0.5 1.86,-1.17 3.77,-2.26 5.55,-3.55 6.65,-4.84 12.8,-10.25 18.34,-16.34 1.28,-1.41 2.5,-2.87 3.76,-4.3 0.29,-0.33 0.51,-0.85 1.12,-0.75 0.31,0.57 -0.11,0.86 -0.37,1.17 -0.94,1.13 -1.87,2.25 -2.86,3.33 -7.61,8.33 -15.85,15.9 -25.76,21.47 -0.09,0.05 -0.16,0.11 -0.25,0.15 -0.67,0.33 -0.6,0.76 -0.25,1.25 0.18,-0.03 0.28,-0.02 0.36,-0.06 0.32,-0.13 0.63,-0.27 0.94,-0.41 10.28,-4.64 19.53,-10.83 27.77,-18.52 3.47,-3.24 6.64,-6.76 9.09,-10.86 2.93,-4.91 5.56,-9.97 7.03,-15.55 0.09,-0.33 0.27,-0.63 0.42,-0.95 0.11,0.02 0.22,0.04 0.33,0.06 0.04,0.3 0.16,0.61 0.1,0.88 -0.18,0.81 -0.38,1.62 -0.65,2.4 -3.07,8.78 -7.59,16.67 -14.26,23.26 -5.97,5.91 -12.66,10.88 -19.9,15.09 -3.2,1.86 -6.58,3.4 -9.9,5.05 -1.38,0.68 -1.41,0.63 -1.16,2.19 0.02,0.13 0.13,0.24 0.21,0.4 0.35,-0.07 0.69,-0.11 1.01,-0.19 3.13,-0.8 6.14,-1.91 9.01,-3.42 9.43,-4.97 18.15,-10.91 25.65,-18.54 5.38,-5.47 9.46,-11.78 11.89,-19.1 0.25,-0.74 0.43,-1.5 0.69,-2.23 0.09,-0.26 0.35,-0.45 0.53,-0.68 0.1,0.05 0.2,0.09 0.3,0.14 -0.09,0.55 -0.13,1.12 -0.29,1.66 -2.4,8.2 -6.87,15.16 -12.85,21.17 -7.43,7.48 -16.04,13.35 -25.33,18.25 -2.95,1.56 -6.06,2.69 -9.29,3.51 -0.46,0.12 -0.91,0.27 -1.47,0.44 0.09,0.48 0.17,0.88 0.26,1.39 0.83,-0.1 1.58,-0.09 2.26,-0.3 2.24,-0.66 4.5,-1.3 6.69,-2.11 4.48,-1.66 9.05,-3.14 13.13,-5.7 2.48,-1.56 4.95,-3.13 7.36,-4.79 5.26,-3.62 9.94,-7.88 13.91,-12.9 3.65,-4.6 6.44,-9.65 8.07,-15.31 0.39,-1.36 0.67,-2.75 1.05,-4.11 0.13,-0.45 0.04,-1.09 0.92,-1.37 0,0.47 0.06,0.83 -0.01,1.16 -0.71,3.4 -1.63,6.73 -3.06,9.91 -2.85,6.33 -6.94,11.76 -11.98,16.48 -8.71,8.16 -18.66,14.25 -30.1,17.82 -2.42,0.76 -4.78,1.72 -7.33,1.97 -0.32,0.03 -0.63,0.12 -0.96,0.19 0,0.58 -0.01,1.06 0.01,1.55 0.01,0.18 0.09,0.37 0.14,0.59 0.33,-0.02 0.62,-0.02 0.9,-0.07 5.11,-0.81 10.16,-1.94 15.12,-3.42 8.4,-2.51 16.5,-5.71 23.63,-11.01 7.42,-5.52 12.59,-12.6 14.93,-21.6 1.6,-6.16 2.41,-12.44 2.73,-18.79 0.17,-3.32 0.18,-6.63 -0.11,-9.94 -0.12,-1.41 -0.22,-2.82 -0.29,-4.23 -0.01,-0.22 0.16,-0.45 0.36,-0.99 0.19,0.58 0.33,0.83 0.35,1.09 0.18,1.85 0.37,3.69 0.49,5.54 0.53,8.44 -0.37,16.76 -2.05,25.02 -1.71,8.4 -5.68,15.55 -11.95,21.36 -4.18,3.88 -8.95,6.93 -14.13,9.3 -9.15,4.19 -18.77,6.84 -28.68,8.48 -0.46,0.08 -0.91,0.22 -1.39,0.33 0,1.07 0,2.03 0,3.12 0.7,-0.06 1.33,-0.08 1.94,-0.18 3.7,-0.62 7.41,-1.24 11.11,-1.89 8.2,-1.44 15.93,-4.16 23.11,-8.42 8.52,-5.06 15.01,-11.93 18.94,-21.09 0.58,-1.34 1.08,-2.72 1.65,-4.07 0.11,-0.26 0.34,-0.47 0.52,-0.7 0.11,0.05 0.22,0.1 0.33,0.15 -0.08,0.39 -0.13,0.79 -0.26,1.16 -3.28,9.78 -9.2,17.58 -17.72,23.36 -7.62,5.16 -16,8.51 -25.04,10.18 -4.84,0.89 -9.69,1.73 -14.69,2.61 -0.04,0.36 -0.09,0.86 -0.17,1.53 0.79,-0.07 1.42,-0.08 2.02,-0.19 5.37,-1.02 10.77,-1.89 16.08,-3.12 9.01,-2.08 17.73,-4.96 25.7,-9.88 5.49,-3.39 10.21,-7.49 13.63,-13.01 1.16,-1.87 2.36,-3.71 3.45,-5.61 6.66,-11.71 8.82,-24.29 7.07,-37.57 -0.52,-3.91 -1.36,-7.78 -2.05,-11.67 -0.91,-5.18 -2.52,-10.13 -4.85,-14.83 -2.18,-4.39 -3.79,-8.99 -5.29,-13.63 -1.89,-5.83 -1.74,-11.83 -0.89,-17.82 0.24,-1.73 0.75,-3.43 1.15,-5.14 0.4,-1.69 0.66,-3.39 0.33,-5.13 -0.55,1.3 -1.03,2.61 -1.46,3.93 -0.99,3.02 -1.85,6.07 -2.21,9.24 -0.63,5.44 -0.04,10.82 1.11,16.14 0.72,3.34 1.76,6.6 2.49,9.93 0.54,2.47 0.81,5 1.2,7.51 0.07,0.47 0.16,0.96 -0.65,1.12 -0.11,-0.68 -0.23,-1.29 -0.3,-1.91 -0.33,-3.16 -0.94,-6.26 -1.75,-9.34 -0.97,-3.68 -2.13,-7.31 -2.56,-11.11 -0.39,-3.49 -0.91,-6.97 -0.51,-10.5 0.2,-1.78 0.37,-3.57 0.56,-5.35 -0.05,0.07 -0.12,0.13 -0.16,0.21 -0.09,0.22 -0.19,0.45 -0.26,0.68 -1.78,6.07 -2.24,12.27 -1.64,18.55 0.37,3.89 0.92,7.75 1.23,11.64 0.43,5.28 0.11,10.54 -0.92,15.74 -0.67,3.39 -1.48,6.76 -2.3,10.13 -0.2,0.84 -0.64,1.63 -1.04,2.4 -0.09,0.18 -0.48,0.2 -0.88,0.34 0.53,-1.53 1.07,-2.78 1.39,-4.09 0.71,-2.89 1.37,-5.79 1.94,-8.71 0.79,-4.03 1.32,-8.12 1.12,-12.22 -0.21,-4.33 -0.75,-8.65 -1.2,-12.97 -0.43,-4.18 -0.68,-8.37 -0.17,-12.56 0.24,-1.98 0.57,-3.94 0.91,-6.23 -0.39,0.68 -0.63,1.08 -0.87,1.49 -2.28,4.04 -4.68,8 -7.57,11.65 -1.87,2.38 -3.7,4.79 -5.55,7.19 -1.91,2.48 -3.64,5.07 -5.01,7.9 -0.11,0.22 -0.31,0.4 -0.51,0.65 -0.58,-0.66 -0.15,-1.14 0.09,-1.55 1.24,-2.1 2.44,-4.23 3.83,-6.22 1.64,-2.36 3.41,-4.64 5.22,-6.89 3.84,-4.77 7.08,-9.93 9.9,-15.36 0.16,-0.31 0.29,-0.64 0.44,-0.98 -2.37,2.15 -4.62,4.33 -7.01,6.32 -2.74,2.27 -5.63,4.37 -8.44,6.56 -5.3,4.11 -10.36,8.47 -14.44,13.85 -0.16,0.21 -0.41,0.34 -0.68,0.55 -0.07,-0.85 -0.08,-0.86 0.4,-1.49 2.32,-3.03 4.87,-5.87 7.81,-8.31 4.21,-3.49 8.52,-6.85 12.82,-10.23 2.96,-2.33 5.82,-4.75 8.36,-7.55 0.2,-0.22 0.4,-0.43 0.58,-0.66 0.16,-0.22 0.3,-0.45 0.45,-0.68 -2.64,2.67 -5.52,5 -8.73,6.9 -4.28,2.53 -8.56,5.09 -13.17,7 -3.2,1.33 -6.42,2.59 -9.64,3.86 -0.42,0.17 -0.87,0.45 -1.39,0.05 0.16,-0.64 0.73,-0.63 1.14,-0.78 7.26,-2.66 14.26,-5.85 20.87,-9.88 0.23,-0.14 0.39,-0.38 0.79,-0.52 4.79,-2.51 8.63,-6.12 11.86,-10.41 0.15,-0.2 0.16,-0.5 0.22,-0.68 -1.65,1.69 -3.25,3.44 -4.98,5.07 -1.27,1.2 -2.7,2.24 -4.05,3.35 -1.03,0.85 -2.11,1.74 -3.4,2.62 z m -54.44,148.22 c 0.58,-0.78 1.24,-1.52 1.73,-2.36 0.88,-1.51 1.77,-3.04 2.45,-4.65 0.77,-1.83 0.11,-3.13 -1.74,-3.81 -0.73,-0.27 -1.49,-0.47 -2.25,-0.61 -2.24,-0.39 -4.47,-0.1 -6.68,0.27 -0.38,0.06 -0.85,0.41 -1.21,-0.38 0.7,-0.28 1.39,-0.55 2.18,-0.86 -0.76,-1.96 -1.49,-3.86 -2.24,-5.76 -4.13,-10.55 -9.9,-20.14 -17.2,-28.77 -10.21,-12.08 -22.72,-21.2 -36.94,-28 -4.97,-2.38 -10.08,-4.45 -15.06,-6.82 -5.52,-2.62 -10.81,-5.66 -15.35,-9.84 -0.16,-0.15 -0.36,-0.25 -0.54,-0.37 0.09,0.58 0.34,1.02 0.62,1.46 4.19,6.64 8.55,13.19 12.54,19.95 3.86,6.55 7.32,13.34 10.98,20.01 3.97,7.23 7.91,14.47 12.65,21.24 5.65,8.09 12.33,15.13 20.77,20.36 5.34,3.31 10.99,5.9 17.23,7.06 2.36,0.44 4.7,0.58 7.1,-0.02 -0.38,-1.38 -1.56,-2.51 -0.97,-4.33 0.24,0.41 0.4,0.58 0.45,0.78 0.69,2.97 2.64,4.93 5.12,6.48 3.04,1.92 3.71,1.82 6.36,-1.03 z m -9.61,-24.62 c 1.72,4.08 3.43,8.17 5.14,12.23 1.74,0 3.42,0 5.23,0 -0.06,-1.1 -0.06,-2.12 -0.17,-3.12 -0.65,-5.89 -2.07,-11.61 -3.67,-17.3 -2.28,-8.1 -6.16,-15.34 -11.56,-21.82 -4.28,-5.13 -9.19,-9.57 -14.41,-13.69 -5.64,-4.46 -11.9,-7.8 -18.69,-10.15 -6.21,-2.15 -12.58,-3.43 -19.12,-4.12 -7.01,-0.73 -13.64,-2.82 -19.85,-6.19 -0.36,-0.19 -0.73,-0.36 -1.1,-0.54 -0.05,0.09 -0.1,0.18 -0.15,0.27 1.55,0.99 3.09,2 4.66,2.95 5.19,3.14 10.76,5.53 16.32,7.91 9.05,3.88 17.55,8.7 25.47,14.58 13.85,10.3 24.32,23.3 31.9,38.99 z m -77.4,-56.2 c -0.85,-1.35 -1.7,-2.7 -2.55,-4.05 -0.09,0.04 -0.17,0.09 -0.26,0.13 0.17,0.43 0.33,0.87 0.5,1.3 1.42,3.53 2.97,7.01 4.22,10.6 2.01,5.8 3.78,11.69 5.73,17.52 3.33,9.98 7.83,19.45 12.81,28.69 1.36,2.53 2.92,4.97 4.56,7.33 7.43,10.65 17.92,16.75 30.27,19.88 5.76,1.46 11.68,1.68 17.59,1.47 1.97,-0.07 3.95,-0.36 5.66,-0.94 -0.61,-0.69 -1.24,-1.41 -1.95,-2.22 -3.03,0.8 -6.15,0.47 -9.28,-0.25 -7.21,-1.64 -13.64,-4.96 -19.59,-9.24 -6.81,-4.89 -12.39,-10.99 -17.2,-17.83 -4.95,-7.04 -9.14,-14.54 -13.16,-22.13 -5.43,-10.21 -10.91,-20.39 -17.35,-30.26 z m 2.18,23.32 c 0.26,3.4 0.38,6.82 0.8,10.21 0.66,5.25 2.3,10.26 3.95,15.27 4.39,13.28 12.25,23.98 23.62,32.11 3.99,2.85 8.35,4.87 13.19,5.72 4.72,0.83 9.49,1.07 14.29,0.74 7.1,-0.5 14.02,-1.82 20.75,-4.13 0.42,-0.14 0.85,-0.23 1.3,-0.71 -0.35,0.03 -0.49,0.01 -0.62,0.05 -3.17,0.92 -6.4,1.31 -9.69,1.2 -2.05,-0.07 -4.1,-0.16 -6.14,-0.29 -5.09,-0.34 -10.01,-1.41 -14.83,-3.15 -11.8,-4.28 -20.92,-11.72 -27.3,-22.55 -2.51,-4.25 -4.75,-8.63 -6.86,-13.09 -3.41,-7.24 -6.61,-14.56 -8.89,-22.26 -1.36,-4.58 -2.94,-9.09 -4.43,-13.64 -0.18,-0.56 -0.43,-1.1 -0.65,-1.65 0.82,5.29 1.13,10.59 1.51,16.17 z m -2.13,30.5 c 1.2,5.68 3.56,10.86 7.19,15.38 6.82,8.48 15.03,15.29 24.88,20.04 4.96,2.4 10.19,3.61 15.7,3.52 4.49,-0.08 8.95,-0.45 13.41,-1.09 7.05,-1.01 13.46,-3.53 19.33,-7.51 0.27,-0.19 0.51,-0.43 0.76,-0.64 -0.57,-0.07 -0.97,0.07 -1.37,0.21 -0.46,0.16 -0.93,0.3 -1.39,0.46 -10.47,3.43 -21.15,4.95 -32.16,3.7 -5.13,-0.58 -9.93,-2.12 -14.26,-4.93 -7.89,-5.12 -14.42,-11.63 -19.42,-19.62 -3.18,-5.08 -5.4,-10.6 -7.27,-16.27 -1.71,-5.2 -3.18,-10.46 -3.63,-15.94 -0.33,-3.94 -0.51,-7.88 -0.77,-11.83 -0.31,-4.73 -0.78,-9.44 -1.86,-14.06 -1.74,-7.44 -5.21,-14.05 -9.73,-20.16 -0.07,-0.1 -0.2,-0.16 -0.3,-0.24 0.39,1.04 0.94,1.99 1.55,2.9 1.94,2.89 3.5,5.97 4.78,9.2 2.43,6.14 3.16,12.54 3.17,19.08 0.01,6.93 0.03,13.86 0.07,20.8 0.05,5.62 0.12,11.23 1.32,17 z m 55.21,-54.62 c 13.93,5.72 24.55,15 30.88,28.85 2.32,5.07 4.32,10.28 5.17,15.81 0.53,3.46 0.66,6.98 0.93,10.48 0.35,4.5 -0.31,8.85 -1.91,13.07 -0.2,0.54 -0.37,1.09 -0.57,1.71 0.48,0.22 0.86,0.39 1.26,0.58 0.94,-1.16 1.32,-2.49 1.62,-3.8 1.74,-7.58 3.13,-15.19 2.5,-23.03 -0.38,-4.7 -1.28,-9.26 -2.89,-13.7 -3.15,-8.68 -8.32,-15.96 -15.13,-22.14 -3.01,-2.73 -6.11,-5.35 -9.75,-7.19 -6.66,-3.37 -13.68,-5.69 -21.05,-6.9 -5.58,-0.92 -11.19,-0.53 -16.8,-0.44 -3.95,0.06 -7.9,0.06 -11.84,-0.11 -2.08,-0.09 -4.14,-0.63 -6.22,-0.92 -5.59,-0.78 -10.84,-2.42 -15.39,-5.93 -0.98,-0.75 -2.14,-1.27 -3.22,-1.9 -0.06,0.08 -0.12,0.16 -0.18,0.24 0.37,0.34 0.72,0.72 1.13,1.02 1.66,1.2 3.29,2.45 5.03,3.53 2.45,1.53 5.08,2.64 7.89,3.41 5.12,1.42 10.35,1.95 15.61,2.2 4.24,0.2 8.49,0.22 12.73,0.44 2.19,0.11 4.38,0.37 6.54,0.72 4.64,0.72 9.08,2.23 13.66,4 z m -51.15,66.99 c -3.85,-6.11 -5.61,-12.87 -5.92,-19.99 -0.28,-6.39 -0.25,-12.79 -0.32,-19.18 -0.04,-3.6 -0.01,-7.2 -0.01,-10.79 -0.33,5.51 -0.5,11.03 -0.53,16.54 -0.03,5.37 0.05,10.73 0.16,16.1 0.12,6.01 1.4,11.8 3.61,17.39 1.91,4.8 4.34,9.32 8.02,13 5,5 10.53,9.3 17.03,12.24 6.77,3.06 13.75,5.26 21.26,5.41 6.53,0.13 12.94,-0.6 19.22,-2.5 5.44,-1.65 10.23,-4.32 14.19,-8.41 0.49,-0.5 0.93,-1.04 1.4,-1.56 -1.01,0.32 -1.82,0.84 -2.63,1.35 -4.75,3.01 -9.81,5.17 -15.37,6.2 -5.88,1.09 -11.78,1.65 -17.76,1.55 -3.85,-0.06 -7.58,-0.66 -11.17,-2.05 -8.32,-3.22 -15.5,-8.19 -21.91,-14.34 -3.4,-3.28 -6.69,-6.68 -9.27,-10.96 z m 123.67,-14.61 c 4.78,-1.68 9.59,-3.31 13.73,-6.39 -12.58,5.94 -26.06,8.49 -39.67,10.72 0.23,0.24 0.46,0.43 0.69,0.42 1.7,-0.05 3.42,-0.04 5.11,-0.23 6.8,-0.74 13.41,-2.39 20.14,-4.52 z M 393.17,185.9 c -0.64,-1.73 -1.28,-3.46 -1.92,-5.19 0.03,1.34 0.33,2.6 0.58,3.88 0.36,1.81 0.78,3.62 0.99,5.45 0.34,2.89 -0.07,5.72 -0.89,8.51 -0.26,0.89 -0.41,1.81 -0.61,2.72 0.1,0.03 0.2,0.05 0.3,0.08 1.01,-1.86 2.09,-3.7 2.41,-5.86 0.48,-3.18 0.25,-6.31 -0.86,-9.59 z m -5.03,-8.22 c -0.03,0.92 -0.2,1.86 -0.06,2.75 0.24,1.48 0.6,2.96 1.06,4.39 0.64,1.98 0.92,3.97 0.6,6.04 -0.07,0.43 -0.05,0.87 -0.07,1.31 0.1,0.01 0.21,0.03 0.31,0.04 0.18,-0.69 0.39,-1.37 0.53,-2.06 0.53,-2.64 0.18,-5.23 -0.41,-7.81 -0.35,-1.51 -0.72,-3.04 -0.85,-4.58 -0.11,-1.38 0.09,-2.78 0.16,-4.18 -0.07,-0.02 -0.13,-0.04 -0.2,-0.06 -0.34,1.3 -0.69,2.61 -1.07,4.16 z m -177.97,66.05 c 0.32,0.91 0.5,1.92 1,2.72 0.93,1.48 1.98,2.89 3.09,4.23 1.49,1.79 3.1,3.5 4.66,5.24 0.2,0.22 0.42,0.42 0.62,0.63 0.05,-0.35 -0.04,-0.56 -0.17,-0.75 -0.39,-0.56 -0.77,-1.12 -1.19,-1.66 -3.41,-4.38 -6.86,-8.74 -8.39,-14.23 -0.01,-0.05 -0.02,-0.1 -0.05,-0.14 -0.14,-0.25 -0.29,-0.5 -0.44,-0.75 -0.06,0.03 -0.12,0.06 -0.17,0.09 0.34,1.46 0.67,2.92 1.04,4.62 z m -0.39,-7.39 c -0.61,-0.91 -0.61,-0.91 -1.11,-1.14 0.79,1.85 1.66,3.85 2.5,5.86 0.45,1.08 0.73,2.23 1.26,3.26 0.55,1.07 1.16,2.18 1.99,3.02 1.44,1.44 3.07,2.69 4.62,4.02 0.16,0.14 0.37,0.22 0.63,0.37 -0.01,-0.23 0.01,-0.34 -0.03,-0.39 -0.45,-0.51 -0.88,-1.05 -1.37,-1.51 -3.87,-3.64 -6.77,-7.89 -8.27,-13.03 -0.03,-0.1 -0.09,-0.18 -0.22,-0.46 z m 110.25,123.74 c -0.07,0.23 -0.21,0.46 -0.19,0.68 0.22,2.03 0.47,4.06 0.7,6.09 0.12,1.12 0.1,1.12 1.4,1.46 0.33,-1.69 0.15,-3.38 0.13,-5.08 -0.02,-1.51 -0.47,-2.53 -2.04,-3.15 z m -2.34,3.21 c -0.16,0.85 -0.32,1.7 -0.5,2.63 0.88,0.38 1.49,1.03 2.48,1.14 0,-2.22 -0.3,-4.32 -0.71,-6.4 -0.12,-0.01 -0.25,-0.02 -0.37,-0.03 -0.27,0.81 -0.54,1.62 -0.9,2.66 z m 70.86,-190.12 c 0.15,-0.33 0.29,-0.67 0.44,-1 -3.09,3.7 -3.6,9.09 -1.02,11.84 -1.27,-3.79 -0.98,-7.26 0.58,-10.84 z"
   id="path1" />
		<path
   d="m 281.89,313.41 c 5.81,4.31 10.86,9.22 14.87,15.15 0.9,1.33 1.77,2.7 2.49,4.13 0.46,0.89 0.76,1.91 0.89,2.91 0.19,1.42 -0.61,2.19 -2.05,2.22 -1.27,0.02 -2.37,-0.51 -3.43,-1.13 -2.13,-1.23 -3.98,-2.82 -5.69,-4.57 -6.9,-7.04 -12.97,-14.7 -17.42,-23.56 -0.39,-0.78 -0.84,-1.54 -1.22,-2.34 -0.13,-0.27 -0.14,-0.59 0.05,-1.03 0.21,0.22 0.46,0.41 0.61,0.67 0.88,1.57 1.74,3.16 2.6,4.75 4.34,7.95 10.02,14.87 16.36,21.28 1.61,1.63 3.36,3.15 5.42,4.19 0.81,0.41 1.71,0.72 2.61,0.83 1.02,0.14 1.52,-0.39 1.29,-1.4 -0.25,-1.12 -0.65,-2.26 -1.21,-3.26 -1.84,-3.29 -4.1,-6.29 -6.61,-9.1 -4.03,-4.51 -8.7,-8.25 -13.69,-11.62 -0.41,-0.28 -0.79,-0.6 -1.24,-0.94 0.69,-0.63 1.07,-0.17 1.43,0.07 1.31,0.89 2.58,1.8 3.94,2.75 z"
   id="path2" />
		<path
   d="m 303.7,332.66 c -2.55,-4.79 -5.61,-9.05 -9.76,-12.44 -0.26,-0.21 -0.45,-0.5 -0.68,-0.76 0.08,-0.11 0.15,-0.22 0.23,-0.32 0.31,0.13 0.69,0.19 0.93,0.41 1.1,0.96 2.25,1.89 3.23,2.97 2.29,2.54 4.34,5.28 6.04,8.26 0.88,1.53 1.54,3.15 1.78,4.93 0.57,4.2 -1.48,6.38 -5.69,5.93 -3.9,-0.42 -7.5,-1.65 -10.68,-4.05 -2.51,-1.89 -4.82,-3.98 -6.87,-6.36 -2.3,-2.66 -4.72,-5.22 -6.37,-8.37 -0.25,-0.48 -0.73,-0.94 -0.25,-1.75 0.27,0.38 0.5,0.66 0.69,0.96 3.72,6 8.33,11.18 14.05,15.34 3.05,2.22 6.59,3.17 10.28,3.46 2.04,0.16 3.95,-0.56 4.04,-3.69 0.04,-1.56 -0.3,-3.02 -0.97,-4.52 z"
   id="path3" />
		<path
   d="m 248.84,279.09 c -0.4,-0.63 -1.08,-0.97 -1.2,-1.78 0.83,-0.18 1.06,0.48 1.42,0.85 1.96,1.97 3.81,4.06 5.87,5.92 4.31,3.89 8.67,7.73 13.14,11.44 3.98,3.3 8.07,6.46 12.22,9.55 1.98,1.48 4.19,2.67 6.31,3.97 0.56,0.34 0.58,0.32 0.87,1.02 -0.6,0.26 -1.05,-0.13 -1.47,-0.38 -2.28,-1.41 -4.61,-2.75 -6.79,-4.31 -7.48,-5.33 -14.39,-11.37 -21.27,-17.44 -3.15,-2.78 -6.28,-5.58 -9.1,-8.84 z"
   id="path4" />
		<path
   d="m 261.55,306.51 c -3.81,-5.92 -7.72,-11.64 -12,-17.1 -3.14,-4 -6.47,-7.82 -10.06,-11.42 -0.34,-0.34 -0.95,-0.6 -0.54,-1.49 0.53,0.45 1.03,0.8 1.45,1.22 4.67,4.67 8.95,9.69 12.74,15.09 3.96,5.63 7.74,11.38 11.59,17.08 0.24,0.36 0.44,0.76 0.64,1.15 0.03,0.06 -0.03,0.18 -0.07,0.34 -0.55,0.17 -0.72,-0.29 -0.94,-0.63 -0.92,-1.38 -1.84,-2.77 -2.81,-4.24 z"
   id="path5" />
		<path
   d="m 319.88,353.57 c 1.05,-1.76 2.08,-3.41 3.01,-5.11 0.55,-1.01 0.27,-1.73 -0.7,-2.35 -1.11,-0.71 -2.37,-0.88 -3.64,-0.89 -1.22,-0.01 -2.43,0.11 -3.65,0.14 -0.5,0.01 -1.06,0.19 -1.63,-0.47 0.47,-0.14 0.8,-0.33 1.13,-0.33 1.85,-0.04 3.71,-0.15 5.54,-0.01 0.98,0.08 1.98,0.49 2.86,0.98 1.13,0.63 1.52,1.79 1.04,2.88 -1.07,2.46 -2.35,4.82 -4.25,6.77 -1.46,1.5 -2.51,1.65 -4.28,0.55 -1.97,-1.22 -3.63,-2.8 -4.95,-4.7 -0.4,-0.58 -0.83,-1.19 -0.57,-2.19 0.31,0.34 0.59,0.53 0.72,0.79 1.09,2.29 2.94,3.86 4.97,5.24 1.65,1.12 2.29,1 3.67,-0.45 0.23,-0.24 0.45,-0.51 0.73,-0.85 z"
   id="path6" />
		<path
   d="m 308.15,336.1 c -0.25,-0.83 -1.03,-1.42 -0.58,-2.49 0.29,0.29 0.53,0.44 0.65,0.66 1.61,3.12 2.67,6.36 2.44,9.95 -0.17,2.61 -1.29,3.83 -3.9,3.91 -2.39,0.07 -4.8,0.01 -7.1,-0.67 -1.38,-0.41 -2.67,-1.13 -3.98,-1.76 -0.27,-0.13 -0.44,-0.44 -0.66,-0.66 0.05,-0.09 0.1,-0.19 0.16,-0.28 0.32,0.12 0.68,0.17 0.96,0.35 2.15,1.42 4.55,1.94 7.06,2.09 1.35,0.08 2.73,0.15 4.07,0.02 1.7,-0.17 2.29,-0.81 2.53,-2.5 0.27,-1.96 0.01,-3.89 -0.56,-5.77 -0.31,-0.94 -0.7,-1.83 -1.09,-2.85 z"
   id="path7" />
	</g>
</g>
</svg>
