<?xml version="1.0" encoding="UTF-8" standalone="no"?>
<!-- Generator: Adobe Adobe Illustrator 24.2.0, SVG Export Plug-In . SVG Version: 6.00 Build 0)  -->

<svg
   version="1.1"
   id="Layer_1"
   x="0px"
   y="0px"
   width="141.81595"
   height="269.95746"
   viewBox="0 0 141.81595 269.95746"
   xml:space="preserve"
   sodipodi:docname="choclo.svg"
   inkscape:version="1.4 (e7c3feb1, 2024-10-09)"
   xmlns:inkscape="http://www.inkscape.org/namespaces/inkscape"
   xmlns:sodipodi="http://sodipodi.sourceforge.net/DTD/sodipodi-0.dtd"
   xmlns="http://www.w3.org/2000/svg"
   xmlns:svg="http://www.w3.org/2000/svg"><defs
   id="defs9" /><sodipodi:namedview
   id="namedview9"
   pagecolor="#ffffff"
   bordercolor="#000000"
   borderopacity="0.25"
   inkscape:showpageshadow="2"
   inkscape:pageopacity="0.0"
   inkscape:pagecheckerboard="0"
   inkscape:deskcolor="#d1d1d1"
   inkscape:zoom="1.6816667"
   inkscape:cx="105.25273"
   inkscape:cy="134.09316"
   inkscape:window-width="1200"
   inkscape:window-height="1186"
   inkscape:window-x="0"
   inkscape:window-y="0"
   inkscape:window-maximized="0"
   inkscape:current-layer="Layer_1" />
<g
   id="g9"
   transform="translate(-194.4522,-165.90918)">
	<g
   id="g8">
		<path
   d="m 333.44,257.49 c -1.03,-3.35 -2.75,-6.15 -5.19,-8.5 -0.73,-0.7 -1.45,-1.45 -2.68,-1.49 -0.41,1.36 -0.84,2.71 -1.21,4.06 -2.6,9.57 -4.53,19.27 -5.94,29.09 -1.22,8.51 -1.98,17.06 -2.82,25.6 -0.43,4.39 -0.1,8.78 -0.09,13.17 0.01,3.07 0.02,6.15 -0.02,9.22 -0.07,5.56 -0.07,11.13 -0.32,16.69 -0.16,3.65 -0.59,7.3 -1.12,10.91 -0.76,5.26 -1.63,10.51 -2.62,15.73 -1.23,6.52 -4.02,12.39 -7.81,17.83 -2.02,2.9 -4.24,5.6 -6.63,8.18 -0.94,1.01 -1.98,1.85 -3.21,2.51 -2.1,1.13 -4.15,2.34 -6.42,3.63 0.07,0.71 0.09,1.58 0.25,2.42 0.72,3.82 0.9,7.64 0.48,11.51 -0.28,2.57 -1.26,4.68 -3.28,6.3 -0.15,0.12 -0.28,0.26 -0.26,0.24 0,1.44 0.02,2.7 -0.01,3.95 -0.05,2.3 -1.14,4 -3.14,5.09 -1.95,1.06 -4.05,1.6 -6.26,1.89 -3.17,0.42 -6.34,0.58 -9.45,-0.23 -1.45,-0.37 -2.86,-0.96 -4.2,-1.65 -2.14,-1.09 -3.03,-2.95 -2.77,-5.34 0.04,-0.39 0.09,-0.77 0.15,-1.24 -0.33,-0.17 -0.65,-0.37 -1,-0.52 -1.89,-0.8 -3.2,-2.17 -4.13,-3.98 -1.32,-2.57 -1.85,-5.35 -2.07,-8.17 -0.21,-2.72 -0.25,-5.45 -0.37,-8.27 -0.02,-0.02 -0.11,-0.15 -0.24,-0.21 -6.16,-2.85 -10.81,-7.47 -14.8,-12.8 -6.99,-9.34 -11.4,-19.84 -13.62,-31.27 -1.49,-7.67 -2.59,-15.39 -3.03,-23.2 -0.62,-11.21 -1.74,-22.38 -3.23,-33.5 -0.88,-6.57 -2.15,-13.09 -3.22,-19.64 -0.78,-4.82 -1.49,-9.64 -2.25,-14.46 -0.71,-4.43 -1.41,-8.87 -3.28,-13.02 -0.14,-0.31 -0.27,-0.62 -0.45,-1.04 -0.27,0.16 -0.53,0.25 -0.73,0.43 -3.24,2.84 -6.68,5.4 -10.34,7.66 -0.43,0.27 -0.83,0.6 -1.32,0.22 -0.57,-0.44 -0.3,-0.95 -0.05,-1.44 2.98,-5.76 5.6,-11.71 9.13,-17.19 0.92,-1.43 1.67,-2.98 2.6,-4.41 0.76,-1.18 1.61,-2.33 2.53,-3.39 0.8,-0.92 1.32,-0.83 1.9,0.22 3.15,5.73 6.34,11.44 9.4,17.21 2.65,5 5.13,10.09 7.69,15.14 0.17,0.34 0.37,0.66 0.7,0.95 -2.51,-13.79 -4.34,-27.65 -5.46,-41.73 -1.59,1.13 -3,2.15 -4.45,3.13 -0.6,0.41 -1.25,0.77 -1.93,1.02 -0.84,0.31 -1.33,-0.19 -1.11,-1.07 0.06,-0.24 0.17,-0.46 0.25,-0.69 1.03,-3 2.07,-5.99 3.1,-8.99 1.15,-3.33 1.68,-6.81 2.39,-10.25 0.12,-0.58 0.43,-1.22 0.86,-1.61 1.4,-1.3 2.97,-2.38 4.86,-2.89 0.56,-0.15 1.12,-0.33 1.67,-0.52 1.54,-0.55 2,-0.39 2.55,1.15 1.19,3.3 2.32,6.63 3.48,9.95 0.14,0.41 0.28,0.82 0.5,1.46 0.53,-2.38 1.2,-4.42 3.62,-5.12 0,-1.71 -0.01,-3.31 0,-4.92 0.02,-3.51 0.06,-7.03 0.07,-10.54 0.01,-2.05 -0.01,-4.1 -0.01,-6.15 0,-4.34 0.02,-8.69 -0.01,-13.03 -0.01,-1.66 -0.15,-3.31 -0.23,-4.97 0,-0.1 -0.03,-0.2 -0.02,-0.29 0.04,-0.64 -0.3,-1.5 0.62,-1.74 0.82,-0.21 1.03,0.61 1.3,1.14 2.01,3.85 3.98,7.71 5.98,11.57 0.06,0.12 0.18,0.22 0.31,0.36 0.41,-0.28 0.8,-0.55 1.26,-0.87 -0.51,-1.09 -0.59,-2.24 -0.44,-3.41 0.17,-1.31 0.98,-2.07 2.24,-2.5 -0.89,-1.95 -0.32,-3.54 1,-5 0.22,-0.24 0.26,-0.7 0.29,-1.06 0.12,-1.6 0.84,-2.92 2.05,-3.91 0.57,-0.47 1.35,-0.69 2.25,-1.13 0.86,-1.7 2.96,-2.74 5.08,-2.2 1.84,-1.87 5.8,-2.26 7.67,-0.66 2.43,-0.98 4.73,-0.89 6.84,0.87 2.59,-0.72 5.8,1.25 6.04,5.51 2.44,0.52 2.87,2.55 3.28,4.87 0.28,-0.41 0.46,-0.64 0.6,-0.9 1.03,-1.82 2.04,-3.66 3.07,-5.48 0.14,-0.25 0.33,-0.49 0.54,-0.69 0.58,-0.54 1.24,-0.4 1.46,0.37 0.27,0.98 0.47,2 0.6,3.01 0.75,5.48 1.01,10.98 0.64,16.5 -0.19,2.77 -0.26,5.54 -0.39,8.41 0.58,0.11 1.08,0.21 1.66,0.33 0.46,-1.4 0.89,-2.73 1.33,-4.07 1.42,-4.34 3.49,-8.37 5.82,-12.27 0.3,-0.5 0.64,-1 1.05,-1.39 0.51,-0.48 1.02,-0.29 1.19,0.39 0.07,0.28 0.07,0.58 0.08,0.87 0.24,5.07 0.38,10.15 0.75,15.21 0.41,5.74 1.03,11.47 1.53,17.2 0.39,4.42 0.74,8.85 1.07,13.27 0.26,3.48 0.45,6.97 0.87,10.52 0.18,-0.48 0.36,-0.95 0.53,-1.43 1.47,-4.02 3.51,-7.72 6.24,-11.03 1.28,-1.56 2.8,-2.85 4.47,-3.97 3.16,-2.12 8.25,-2.3 11.8,0.54 0.19,0.15 0.4,0.29 0.55,0.48 0.38,0.49 0.19,1.03 -0.41,1.05 -3.9,0.08 -6.82,2.41 -9.94,4.28 -0.83,0.5 -0.98,1.31 -1.15,2.1 -0.43,1.95 -0.84,3.91 -1.16,5.89 -0.64,3.9 -1.23,7.8 -1.83,11.71 -0.07,0.43 -0.06,0.87 0.1,1.38 0.23,-0.4 0.47,-0.78 0.67,-1.19 1.94,-3.81 4.44,-7.23 7.38,-10.33 0.2,-0.21 0.4,-0.43 0.62,-0.62 1.48,-1.31 2.94,-1.38 4.23,0.12 1.24,1.43 2.4,2.99 3.26,4.66 3.02,5.92 4.64,12.2 4.43,18.89 -0.01,0.2 0.05,0.42 -0.03,0.58 -0.14,0.28 -0.36,0.52 -0.54,0.78 -0.28,-0.21 -0.66,-0.37 -0.82,-0.66 -0.2,-0.37 -0.22,-0.84 -0.34,-1.26 -0.31,-1.28 -0.68,-2.55 -1.08,-3.92 z m -84.68,135.79 c 2.76,4.7 5.99,9.02 9.89,12.84 1.32,1.3 2.76,2.1 4.61,2.2 1.37,0.07 2.74,0.21 4.43,0.21 -0.51,-0.46 -0.74,-0.7 -1,-0.91 -11.94,-9.53 -20.24,-21.69 -25.83,-35.8 -0.13,-0.32 -0.27,-0.63 -0.34,-0.96 -0.04,-0.24 0.04,-0.5 0.07,-0.75 0.44,0.24 0.67,0.53 0.82,0.86 0.5,1.11 0.97,2.24 1.45,3.36 5.59,13.27 13.98,24.43 25.25,33.4 0.37,0.29 0.8,0.67 1.23,0.7 1.03,0.08 2.06,-0.09 3.19,-0.48 -0.3,-0.26 -0.43,-0.4 -0.59,-0.51 -3.67,-2.46 -6.89,-5.44 -9.9,-8.67 -3.23,-3.47 -6.23,-7.14 -8.94,-11.02 -0.28,-0.41 -0.8,-0.79 -0.34,-1.63 0.42,0.48 0.81,0.87 1.14,1.3 1.87,2.38 3.66,4.83 5.6,7.15 3.86,4.62 8.05,8.91 13.07,12.31 1.57,1.07 2.26,1.06 3.95,-0.07 -0.27,-0.23 -0.52,-0.45 -0.78,-0.66 -3.51,-2.75 -6.72,-5.8 -9.66,-9.15 -9.38,-10.65 -16.63,-22.62 -22.25,-35.62 -0.19,-0.45 -0.41,-0.89 -0.53,-1.36 -0.06,-0.22 0.07,-0.48 0.15,-0.88 0.87,0.78 1.09,1.69 1.44,2.51 5.69,13.02 13.06,24.98 22.57,35.58 2.74,3.06 5.75,5.84 8.94,8.43 0.9,0.73 1.64,0.88 2.74,0.35 1.43,-0.7 3,-1.13 4.51,-1.65 0.63,-0.21 1.28,-0.35 2.09,-0.56 -0.34,-0.41 -0.54,-0.67 -0.75,-0.91 -3.23,-3.73 -6.54,-7.38 -9.65,-11.2 -2.71,-3.33 -5.24,-6.8 -7.75,-10.29 -2.67,-3.72 -5.37,-7.45 -7.79,-11.34 -4.18,-6.72 -7.69,-13.81 -11.24,-20.87 -5.68,-11.31 -10.58,-22.95 -15.16,-34.73 -2.14,-5.5 -4.03,-11.1 -6.22,-16.58 -3.82,-9.56 -7.25,-19.27 -10.37,-29.08 -1.49,-4.69 -2.91,-9.41 -4.37,-14.12 -0.19,-0.62 -0.47,-1.22 -0.6,-1.57 -0.66,0.42 -1.27,0.81 -1.8,1.14 0.49,1.16 0.94,2.08 1.28,3.04 1.74,4.92 3.51,9.83 5.17,14.78 1.11,3.33 2.05,6.72 3.05,10.08 0.14,0.47 0.41,0.97 -0.07,1.6 -0.24,-0.32 -0.46,-0.51 -0.54,-0.75 -0.25,-0.74 -0.45,-1.49 -0.67,-2.24 -2.37,-7.95 -4.84,-15.86 -7.86,-23.6 -0.28,-0.72 -0.62,-1.41 -1,-2.28 -0.49,0.45 -0.86,0.79 -1.22,1.12 0.12,0.37 0.18,0.61 0.28,0.82 2.05,4.43 3.02,9.15 3.73,13.95 0.63,4.3 1.25,8.59 1.97,12.88 0.73,4.33 1.68,8.62 2.33,12.96 0.84,5.6 1.56,11.21 2.18,16.84 0.72,6.55 1.39,13.1 1.88,19.67 0.43,5.84 0.74,11.69 1.56,17.49 0.8,5.65 1.69,11.29 3.18,16.82 2.66,9.83 7.06,18.81 13.45,26.75 3.07,3.82 6.59,7.21 10.95,9.59 0.49,0.27 1.01,0.5 1.57,0.77 0,-0.23 0.04,-0.35 -0.01,-0.4 -0.23,-0.31 -0.49,-0.61 -0.72,-0.92 -9.31,-12.07 -17.06,-24.97 -21.22,-39.79 -0.91,-3.24 -1.78,-6.49 -2.66,-9.74 -0.13,-0.47 -0.41,-0.99 0.14,-1.45 0.16,0.14 0.32,0.22 0.36,0.34 0.19,0.55 0.36,1.11 0.5,1.68 1.55,6 3.2,11.98 5.48,17.75 4.61,11.68 11.37,22.09 19.03,31.97 1.63,2.11 3.89,2.49 6.24,3.29 -0.12,-0.29 -0.14,-0.39 -0.2,-0.46 -0.16,-0.18 -0.34,-0.35 -0.51,-0.52 -4.71,-4.57 -8.39,-9.88 -11.35,-15.71 -0.35,-0.69 -0.66,-1.41 -0.93,-2.14 -0.07,-0.18 0.11,-0.46 0.26,-1.02 1.08,2.08 2.03,3.88 3.09,5.86 z m 40.9,8.17 c 1.13,-0.67 2.23,-1.4 3.4,-2.01 1.19,-0.62 2.18,-1.46 3.09,-2.42 2.53,-2.66 4.8,-5.52 6.85,-8.57 3.02,-4.49 5.52,-9.24 6.65,-14.56 1.08,-5.1 1.94,-10.25 2.82,-15.4 1.06,-6.17 1.62,-12.38 1.56,-18.65 -0.03,-3.37 -0.07,-6.74 0.12,-10.1 0.41,-6.94 -0.01,-13.86 -0.16,-20.79 -0.13,-6.39 -0.56,-12.77 -0.79,-19.16 -0.14,-3.66 -0.17,-7.32 -0.23,-10.98 -0.1,-6.54 -0.27,-13.09 0.3,-19.61 0.78,-9.05 1.86,-18.05 3.94,-26.91 0.07,-0.31 0.05,-0.63 0.08,-1.11 -0.82,0.48 -1.49,0.87 -1.74,1.68 -0.91,2.98 -2.04,5.92 -2.64,8.97 -1.1,5.6 -1.93,11.25 -2.79,16.89 -1.06,6.9 -2.02,13.81 -3.07,20.71 -1.41,9.31 -3.06,18.58 -5.21,27.76 -1.57,6.7 -3.24,13.37 -4.77,20.08 -2.27,9.94 -4.54,19.87 -8.07,29.47 -3.73,10.12 -8.53,19.68 -14.34,28.75 -1.28,2 -1.3,1.99 0.34,3.75 0.05,0.06 0.18,0.06 0.37,0.11 0.52,-0.58 1.13,-1.15 1.61,-1.81 1.26,-1.74 2.55,-3.47 3.65,-5.3 2.04,-3.38 3.95,-6.85 5.93,-10.27 0.27,-0.47 0.39,-1.1 1.08,-1.29 0.11,0.18 0.26,0.35 0.23,0.42 -3.39,6.76 -7.03,13.36 -12.11,19.14 0.46,0.56 0.91,1.12 1.42,1.76 0.45,-0.55 0.81,-0.94 1.12,-1.36 1.63,-2.19 3.24,-4.4 4.88,-6.59 0.26,-0.35 0.4,-0.94 1.13,-0.71 0.12,0.63 -0.3,1.02 -0.6,1.42 -1.68,2.27 -3.4,4.53 -5.1,6.79 -0.29,0.38 -0.57,0.77 -0.87,1.18 0.59,0.7 1.12,1.32 1.69,2.01 0.33,-0.24 0.58,-0.38 0.78,-0.58 1.43,-1.47 2.93,-2.87 4.24,-4.44 2.85,-3.42 5.25,-7.16 7.4,-11.06 0.26,-0.47 0.36,-1.12 1.14,-1.3 0.06,0.24 0.18,0.45 0.12,0.57 -3.31,6.58 -7.45,12.55 -13.07,17.53 0.47,0.51 0.89,0.95 1.32,1.4 0.55,-0.34 0.98,-0.58 1.37,-0.85 7.65,-5.36 13.75,-12.09 18.12,-20.37 0.43,-0.82 0.85,-1.65 1.31,-2.45 0.12,-0.21 0.38,-0.35 0.63,-0.58 0.14,0.88 0.14,0.89 -0.13,1.45 -4.56,9.32 -11.08,16.95 -19.69,22.77 -0.31,0.21 -0.59,0.45 -1.02,0.78 0.81,0.94 1.56,1.8 2.29,2.64 2.49,-1.57 7.69,-5.96 10.76,-8.84 6.26,-5.89 10.4,-12.98 12.38,-21.34 0.55,-2.32 1.12,-4.65 1.7,-6.96 0.12,-0.47 0.05,-1.09 0.96,-1.26 -0.07,0.66 -0.07,1.24 -0.2,1.78 -0.54,2.33 -1.12,4.65 -1.69,6.97 -2.11,8.59 -6.41,15.9 -12.98,21.8 -2.9,2.61 -5.98,5.02 -8.98,7.51 -0.41,0.34 -0.85,0.63 -1.33,0.99 0.65,0.73 1.22,1.36 1.78,1.98 1.06,-0.52 1.94,-0.93 3.02,-1.43 z m -22.67,26.64 c -2.3,0.21 -4.56,-0.12 -6.77,-0.65 -0.74,2.11 -0.33,3.74 1.37,4.81 1.1,0.69 2.32,1.27 3.56,1.63 4.14,1.21 8.32,0.81 12.45,-0.09 1.17,-0.25 2.31,-0.79 3.38,-1.37 2.25,-1.23 3.15,-4.59 2.02,-6.53 -1.69,0.16 -3.28,0.32 -4.87,0.44 -0.42,0.03 -0.97,0.04 -0.95,-0.6 0.02,-0.6 0.54,-0.59 0.98,-0.62 0.49,-0.03 0.98,-0.02 1.46,-0.05 3.82,-0.25 6.72,-2.93 7.14,-6.72 0.22,-1.93 0.3,-3.89 0.32,-5.84 0.01,-2.52 -0.52,-4.99 -0.95,-7.5 -2.25,0.41 -4.28,1.04 -6.22,1.99 -4.48,2.2 -9.24,3.02 -14.2,2.79 -4.13,-0.19 -8.08,-1.23 -11.93,-2.7 -0.34,-0.13 -0.7,-0.21 -1.13,-0.35 -0.04,0.53 -0.1,0.91 -0.08,1.3 0.09,2 0.1,4.01 0.31,5.99 0.29,2.72 0.72,5.41 1.99,7.9 0.86,1.69 2.09,2.92 3.86,3.6 3.06,1.18 6.2,1.71 9.47,1.12 1.01,-0.18 2,-0.44 3.02,-0.57 0.29,-0.03 0.79,0.23 0.9,0.48 0.2,0.48 -0.27,0.67 -0.66,0.74 -1.41,0.29 -2.81,0.52 -4.47,0.8 z M 222.27,263.04 c -3.78,-7.9 -7.88,-15.63 -12.46,-23.25 -0.32,0.34 -0.54,0.53 -0.7,0.76 -0.46,0.63 -0.95,1.25 -1.34,1.92 -3.75,6.4 -7.48,12.81 -10.63,19.53 -0.15,0.33 -0.3,0.66 -0.44,0.99 0.08,0.06 0.16,0.13 0.24,0.19 5.16,-3.4 9.76,-7.49 14.2,-11.77 -0.18,-0.5 -0.31,-0.86 -0.45,-1.22 -0.26,-0.68 -0.53,-1.37 -0.78,-2.05 -0.16,-0.43 -0.3,-0.91 0.27,-1.11 0.56,-0.19 0.75,0.3 0.94,0.7 0.14,0.31 0.24,0.64 0.38,0.95 2.02,4.82 3.58,9.8 5.04,14.81 3.28,11.24 7.25,22.25 11.48,33.17 0.19,0.5 0.43,0.97 0.73,1.66 0.35,-1.33 0.64,-2.35 0.86,-3.38 0.07,-0.31 0,-0.68 -0.1,-0.98 -0.26,-0.79 -0.55,-1.57 -0.86,-2.33 -1.88,-4.61 -3.76,-9.21 -5.64,-13.81 -0.18,-0.45 -0.4,-0.9 -0.51,-1.37 -0.05,-0.21 0.1,-0.47 0.17,-0.71 0.1,-0.01 0.2,-0.03 0.3,-0.04 1.38,2.77 2.4,5.7 3.58,8.56 1.2,2.91 2.37,5.83 3.6,8.86 0.58,-0.62 0.43,-1.1 0.23,-1.71 -0.58,-1.75 -1.26,-3.51 -0.98,-5.41 0.13,-0.86 0,-1.64 -0.34,-2.42 -0.33,-0.76 -0.63,-1.53 -1,-2.28 -2.63,-5.39 -5.28,-10.77 -7.92,-16.16 -0.45,-0.92 -0.93,-1.83 -1.36,-2.76 -0.1,-0.21 -0.04,-0.49 -0.06,-0.74 0.22,0 0.37,-0.04 0.4,0 4.14,7.12 7.5,14.63 10.97,22.08 1.17,-0.67 1.38,-1.7 1.06,-2.81 -0.34,-1.17 -0.73,-2.34 -1.28,-3.41 -2.48,-4.78 -5,-9.52 -7.6,-14.46 z m 11.7,-41.88 c -1.64,-5.51 -3.44,-10.39 -4.17,-11.3 -1.95,0.62 -3.93,1.11 -5.6,2.43 -0.82,0.64 -1.27,1.29 -1.18,2.32 0.17,1.99 0.32,3.98 0.5,5.97 0.52,5.64 0.98,11.28 1.58,16.9 1.05,9.85 2.24,19.68 4.06,29.42 0.38,2.04 0.76,4.07 1.16,6.19 1.34,-1.69 1.63,-3.33 0.84,-5.26 -0.61,-1.48 -0.49,-3.11 0.22,-4.56 0.47,-0.96 0.42,-1.76 -0.14,-2.6 -0.66,-0.99 -0.7,-2.09 -0.59,-3.24 0.07,-0.72 0.13,-1.46 0.02,-2.17 -1.15,-7.23 -2.32,-14.45 -3.5,-21.67 -0.58,-3.51 -1.2,-7.02 -1.78,-10.53 -0.08,-0.48 -0.29,-1.03 0.39,-1.67 0.18,0.61 0.35,1.03 0.43,1.46 0.44,2.5 0.87,5 1.29,7.5 1.05,6.25 2.09,12.51 3.14,18.76 0.12,0.71 0.25,1.41 0.39,2.23 0.55,-1.65 1.06,-3.11 1.51,-4.6 0.11,-0.35 0.07,-0.78 0.01,-1.15 -0.42,-2.55 -0.82,-5.1 -1.3,-7.64 -0.51,-2.68 -1.09,-5.35 -1.64,-8.03 -0.08,-0.37 -0.3,-0.77 0.39,-1.08 0.67,1.08 0.72,2.36 1,3.54 0.3,1.28 0.54,2.58 0.81,3.87 0.25,1.22 0.49,2.44 0.74,3.66 0.37,-0.38 0.48,-0.8 0.69,-1.15 0.63,-1.03 0.66,-2.08 0.34,-3.22 -0.96,-3.43 -1.81,-6.88 -2.81,-10.3 -0.77,-2.62 -1.69,-5.19 -2.53,-7.79 -0.15,-0.46 -0.5,-0.96 -0.03,-1.49 0.17,0.1 0.36,0.14 0.4,0.24 2.46,6.41 4.39,12.98 5.95,19.84 0.74,-0.67 1.37,-1.23 2.08,-1.86 -2.12,-2.72 -2.7,-5.43 -0.24,-8.18 -1.47,-1.3 -1.86,-2.98 -2.43,-4.84 z m 63.17,-11.6 c 0.77,1.29 1.15,2.66 1.09,4.18 -0.05,1.26 0.05,2.54 0.11,3.8 0.01,0.25 0.12,0.49 0.19,0.73 0.23,-0.45 0.23,-0.87 0.23,-1.29 -0.06,-5.51 -0.16,-11.02 -0.18,-16.53 -0.01,-1.61 0.18,-3.21 0.33,-4.82 0.04,-0.48 0.01,-1.05 0.78,-1.54 0.03,0.66 0.09,1.11 0.07,1.56 -0.07,1.27 -0.26,2.53 -0.26,3.79 0.02,6.15 0.07,12.29 0.13,18.44 0.01,1.56 0.14,3.12 0.11,4.68 -0.02,0.88 -0.15,1.7 0.49,2.47 0.25,0.3 0.3,0.82 0.33,1.25 0.17,2.29 0.3,4.57 0.02,6.86 -0.06,0.48 0.14,1.02 0.3,1.5 0.65,1.99 1.46,3.98 1.13,6.12 -0.16,1.01 -0.16,1.9 0.35,2.79 0.12,0.21 0.24,0.45 0.25,0.68 0.06,1.31 0.83,1.98 2.12,2.4 0.09,-0.53 0.23,-1.04 0.25,-1.55 0.06,-1.36 0.14,-2.73 0.08,-4.09 -0.21,-4.63 -0.43,-9.26 -0.74,-13.88 -0.25,-3.7 -0.64,-7.38 -0.98,-11.07 -0.5,-5.44 -1.09,-10.87 -1.49,-16.32 -0.35,-4.77 -0.48,-9.55 -0.72,-14.32 -0.01,-0.27 -0.06,-0.53 -0.09,-0.8 -0.48,0.33 -0.75,0.72 -0.97,1.12 -2.24,4.01 -4.17,8.16 -5.54,12.56 -0.41,1.3 -0.95,2.57 -0.11,3.91 0.12,0.19 0.13,0.48 0.12,0.72 -0.06,1.39 -0.14,2.78 -0.22,4.27 0.22,0.04 0.57,0.1 0.99,0.18 0.04,-0.35 0.06,-0.59 0.09,-0.83 0.27,-2.47 0.53,-4.95 0.81,-7.42 0.04,-0.32 0.22,-0.63 0.39,-1.06 0.63,0.56 0.44,1.05 0.39,1.51 -0.25,2.23 -0.48,4.46 -0.75,6.69 -0.19,1.16 -0.07,2.23 0.9,3.31 z m 20.67,54.78 c -0.74,2.93 -1.53,5.85 -2.2,8.79 -0.91,3.95 -1.51,7.94 -1.3,12.03 0.2,3.95 0.3,7.9 0.45,11.85 0.01,0.26 0.11,0.52 0.21,0.95 0.12,-0.29 0.18,-0.37 0.19,-0.45 0.71,-5.91 1.37,-11.82 2.14,-17.72 1.14,-8.76 2.91,-17.41 5.14,-25.96 1.23,-4.72 2.51,-9.42 3.76,-14.13 0.08,-0.29 0.06,-0.61 0.12,-1.26 -0.69,0.55 -1.17,0.86 -1.56,1.26 -4.09,4.23 -7.17,9.12 -9.36,14.56 -0.39,0.98 -0.62,2.06 -0.71,3.12 -0.43,5.3 -0.67,10.62 -0.54,15.94 0.01,0.4 0,0.79 0,1.19 0.29,-0.16 0.4,-0.32 0.44,-0.5 1.11,-4.39 2.18,-8.8 3.33,-13.18 0.51,-1.93 1.15,-3.83 1.76,-5.73 0.11,-0.35 0.12,-0.93 0.81,-0.82 0.04,0.14 0.13,0.29 0.1,0.41 -0.9,3.15 -1.81,6.29 -2.78,9.65 z m -42.5,57.51 c -1.25,-0.21 -2.49,-0.57 -3.74,-0.58 -1.64,-0.01 -3.3,0.15 -4.91,0.46 -1.53,0.29 -2.48,1.38 -2.61,2.95 -0.11,1.35 -0.13,2.73 0,4.07 0.15,1.61 1.11,2.65 2.71,3.05 2.99,0.75 6.04,1.06 9.11,1.01 1.06,-0.02 1.41,-0.28 1.55,-1.36 0.28,-2.07 0.55,-4.15 0.62,-6.24 0.08,-2.16 -0.34,-2.56 -2.73,-3.36 z m 0.95,31.41 c 0.56,-0.14 1.18,-0.19 1.68,-0.45 0.38,-0.2 0.81,-0.62 0.91,-1.02 0.41,-1.62 0.51,-3.26 0.1,-4.91 -0.35,-1.41 -1.19,-2.32 -2.61,-2.64 -0.61,-0.14 -1.24,-0.26 -1.87,-0.32 -1.4,-0.14 -2.81,-0.28 -4.22,-0.34 -1.11,-0.04 -2.24,-0.04 -3.34,0.1 -1.91,0.25 -3,1.5 -3.16,3.44 -0.06,0.73 -0.07,1.46 -0.1,2.19 -0.05,1.26 0.5,2.28 1.34,3.13 0.31,0.32 0.82,0.6 1.25,0.61 3.25,0.12 6.5,0.17 10.02,0.21 z m 6.56,-20.05 c 2.55,0.61 5.14,0.43 7.72,0.41 0.7,0 1.41,-0.34 2.1,-0.57 0.76,-0.26 1.23,-0.82 1.33,-1.6 0.11,-0.96 0.2,-1.94 0.19,-2.91 -0.04,-2.45 -0.78,-3.45 -3.08,-4.19 -2.55,-0.83 -5.16,-0.93 -7.79,-0.46 -0.9,0.16 -1.81,0.41 -2.65,0.77 -0.44,0.19 -0.99,0.69 -1.04,1.11 -0.17,1.54 -0.22,3.1 -0.19,4.65 0.02,1.07 0.71,1.79 1.67,2.21 0.49,0.2 1.01,0.34 1.74,0.58 z m -24.07,-14.49 c 0.31,-0.15 0.61,-0.3 0.93,-0.44 1.34,-0.58 2.04,-1.63 2.16,-3.06 0.08,-0.87 0.09,-1.75 0.09,-2.63 -0.01,-1.68 -0.76,-2.87 -2.35,-3.52 -2.38,-0.97 -4.86,-1.44 -7.41,-1.43 -1.63,0.01 -2.89,0.86 -3.68,2.27 -0.24,0.42 -0.32,1.04 -0.22,1.52 0.24,1.14 0.52,2.29 0.98,3.36 1.7,3.95 3.2,4.71 6.74,4.54 0.85,-0.03 1.69,-0.35 2.76,-0.61 z m 6.23,-43.01 c 0.77,0.38 1.51,0.94 2.32,1.1 1.71,0.34 3.47,0.49 5.21,0.67 1.32,0.14 2.56,-0.1 3.43,-1.2 2.08,-2.65 1.15,-7.55 -2.44,-8.57 -1.17,-0.33 -2.34,-0.71 -3.53,-0.88 -0.99,-0.15 -2.05,-0.16 -3.04,0 -2.92,0.49 -4.57,3.41 -3.51,6.19 0.34,0.89 0.93,1.69 1.56,2.69 z m 2.27,12.07 c -0.34,0 -0.68,-0.04 -1.02,0 -1.01,0.13 -2,0.43 -2.17,1.6 -0.21,1.43 -0.47,2.91 -0.33,4.33 0.26,2.72 2.49,4.41 5.23,4.31 1.51,-0.05 3.02,-0.05 4.52,0.04 1.25,0.07 2.16,-0.37 2.85,-1.39 0.82,-1.21 1.15,-2.52 1.16,-3.99 0.02,-2.47 -1.28,-3.73 -3.49,-4.07 -0.29,-0.04 -0.58,-0.05 -0.87,-0.08 -1.87,-0.23 -3.75,-0.47 -5.88,-0.75 z m 9.44,69.99 c -2.08,-3 -4.98,-3.92 -8.44,-3.22 -0.68,0.14 -1.42,0.52 -1.89,1.01 -2.51,2.6 -3.03,6.07 -0.13,9.29 0.56,0.62 1.2,0.85 2.09,0.51 2,-0.75 4.13,-0.95 6.19,-0.46 1.29,0.31 2.01,-0.19 2.5,-1.14 0.39,-0.75 0.76,-1.66 0.7,-2.47 -0.09,-1.12 -0.58,-2.22 -1.02,-3.52 z m -6.86,-38.86 c 1.45,0.05 2.91,0.23 4.35,0.13 2.08,-0.14 3.31,-1.51 3.2,-3.59 -0.06,-1.19 -0.4,-2.38 -0.74,-3.54 -0.38,-1.32 -1.35,-2.21 -2.68,-2.42 -1.76,-0.29 -3.56,-0.45 -5.35,-0.5 -1,-0.03 -2.03,0.24 -3.01,0.49 -0.81,0.2 -1.53,0.63 -1.88,1.48 -1.33,3.25 0.43,6.71 3.85,7.52 0.67,0.15 1.34,0.24 2.26,0.43 z m -19.1,14.63 c -0.18,1.75 -0.44,3.49 -0.52,5.24 -0.1,2.19 0.91,3.24 3.06,3.12 2.04,-0.11 4.08,-0.34 6.1,-0.67 1.94,-0.32 2.66,-1.24 2.7,-3.22 0.02,-1.36 -0.04,-2.73 -0.16,-4.09 -0.13,-1.61 -1.31,-2.89 -2.79,-3.15 -2.47,-0.44 -4.84,-0.1 -7.18,0.77 -0.87,0.33 -1.27,0.84 -1.21,2 z m 11.01,-79.89 c 0.86,2.33 2.24,2.87 5.12,3.07 1.45,0.1 2.93,-0.05 4.39,-0.04 1.62,0.01 3.07,-0.93 3.5,-2.52 0.5,-1.82 0.48,-3.66 -0.19,-5.47 -0.27,-0.75 -0.75,-1.16 -1.51,-1.14 -2.21,0.07 -4.38,-0.22 -6.54,-0.6 -0.33,-0.06 -0.68,-0.04 -1.02,-0.01 -2.05,0.13 -3.35,1.2 -3.88,3.18 -0.31,1.11 -0.3,2.21 0.13,3.53 z m -0.4,32.11 c 1.29,-1.83 1.15,-3.76 0.36,-5.7 -0.62,-1.54 -1.97,-2.46 -3.58,-2.22 -1.89,0.29 -3.77,0.28 -5.67,0.33 -2.98,0.07 -3.96,1.19 -4.01,4.18 -0.06,3.35 1.65,5.12 4.96,5.1 1.36,-0.01 2.73,-0.17 4.09,-0.11 1.48,0.07 2.67,-0.41 3.85,-1.58 z m 30.58,25.08 c 1.5,-1.76 1.89,-4.84 0.89,-6.86 -0.51,-1.03 -1.3,-1.73 -2.45,-1.87 -2.57,-0.32 -5.14,-0.48 -7.71,0.02 -2.01,0.39 -3.09,1.85 -2.82,3.92 0.25,1.97 1.14,3.65 2.85,4.72 0.75,0.47 1.68,0.81 2.56,0.91 1.39,0.16 2.82,0.03 4.23,0.08 0.88,0.03 1.63,-0.18 2.45,-0.92 z m -2.98,-11.11 c 1.17,-0.18 1.59,-0.97 1.71,-2.05 0.13,-1.26 0.28,-2.51 0.46,-3.76 0.3,-2.03 -0.25,-2.96 -2.32,-3.25 -2.5,-0.35 -5.03,-0.55 -7.55,-0.7 -1.47,-0.08 -2.32,0.84 -2.42,2.33 -0.06,0.97 -0.1,1.94 -0.2,2.91 -0.3,3.08 1.33,5.03 4.42,5.02 1.88,0 3.77,-0.29 5.9,-0.5 z m -6.48,14.16 c -2.01,1.01 -2.38,2.85 -2.28,4.82 0.1,1.97 0.61,2.53 2.5,3.08 0.74,0.21 1.52,0.37 2.28,0.43 1.45,0.12 2.91,0.15 4.36,0.24 3,0.19 4.31,-0.92 4.56,-3.9 0.01,-0.1 0.02,-0.19 0.02,-0.29 0.19,-3.35 -1.45,-4.98 -4.66,-5.31 -2.2,-0.23 -4.46,-0.1 -6.78,0.93 z m -17.98,-6.7 c 0.47,0.77 1.08,0.96 1.99,0.77 2.72,-0.57 5.43,-0.27 8.13,0.3 0.48,0.1 1.07,0.04 1.52,-0.15 1.59,-0.69 2.31,-2.1 2.13,-3.94 -0.21,-2.1 -1.39,-3.62 -3.21,-4.09 -2.67,-0.68 -5.39,-0.84 -8.13,-0.62 -2.34,0.19 -3.64,1.68 -3.4,4.03 0.1,1.18 0.55,2.34 0.97,3.7 z m -14.3,-1.36 c 2.46,0.34 4.91,0.68 7.37,1.01 0.19,0.03 0.39,-0.03 0.58,-0.03 1.14,-0.02 1.93,-0.65 2.51,-1.54 1.37,-2.09 0.69,-4.95 -1.47,-6.21 -2.42,-1.41 -5.11,-1.85 -7.86,-1.95 -0.89,-0.03 -1.74,0.26 -2.37,0.95 -1.62,1.74 -1.79,6.48 1.24,7.77 z m -0.5,18.26 c -0.15,0.71 -0.31,1.42 -0.43,2.14 -0.05,0.31 -0.15,0.73 0,0.94 0.59,0.82 1.22,1.63 1.94,2.34 0.53,0.52 1.18,0.66 2.01,0.41 1.92,-0.57 3.91,-0.82 5.91,-0.38 0.99,0.21 1.58,-0.21 2.05,-0.97 0.65,-1.04 0.69,-2.2 0.68,-3.38 -0.01,-2.9 -1.65,-4.56 -4.54,-4.44 -2.05,0.08 -4.08,0 -6.1,-0.36 -0.49,-0.09 -1.01,0.05 -1.51,0.08 0,1.22 0,2.29 -0.01,3.62 z m -7.88,-7.6 c -0.39,0 -0.78,-0.02 -1.17,0.01 -2.34,0.2 -3.98,2.87 -3.09,5.03 0.67,1.62 1.44,3.2 2.03,4.85 0.36,1.01 0.98,1.46 1.95,1.35 1.64,-0.19 3.28,-0.4 4.89,-0.76 1.14,-0.25 1.78,-1.12 1.94,-2.31 0.26,-1.97 0.02,-3.89 -0.46,-5.79 -0.26,-1.02 -0.93,-1.54 -1.96,-1.69 -1.29,-0.2 -2.58,-0.45 -4.13,-0.69 z m 12.56,26.71 c -0.66,0.17 -1.33,0.31 -1.96,0.53 -0.55,0.2 -0.78,0.65 -0.82,1.25 -0.17,2.52 0.48,4.8 1.83,6.94 1.1,1.75 2.63,2.5 4.64,2.5 2.86,0 4.44,-1.64 4.31,-4.5 -0.04,-0.92 -0.02,-1.84 0.05,-2.76 0.14,-1.82 -0.69,-3.07 -2.45,-3.65 -1.74,-0.58 -3.53,-0.58 -5.6,-0.31 z m 20.48,-103.65 c -0.47,-1.63 -1.48,-2.56 -3.23,-2.65 -0.77,-0.04 -1.55,-0.17 -2.31,-0.31 -1.3,-0.23 -2.52,0.04 -3.71,0.49 -0.99,0.37 -1.8,1.01 -2.22,2 -0.68,1.62 -0.8,3.3 -0.29,4.99 0.32,1.07 1.06,1.53 2.18,1.57 0.87,0.03 1.74,0.14 2.61,0.21 1.55,0.13 3.09,0.22 4.64,0.39 0.8,0.09 1.25,-0.28 1.67,-0.9 1.17,-1.75 1.38,-3.6 0.66,-5.79 z m -11.21,41.63 c 0.03,3.32 1.21,4.85 4.46,5.49 1.67,0.33 3.38,0.43 5.07,0.61 1.85,0.19 3.44,-0.86 3.97,-2.65 0.18,-0.6 0.27,-1.24 0.31,-1.87 0.12,-1.73 -0.52,-2.99 -2.2,-3.32 -2.81,-0.54 -5.68,-0.92 -8.53,-1.04 -1.82,-0.08 -2.62,0.84 -3.08,2.78 z m 18.81,-1.34 c 1.94,0.01 3.89,-0.36 5.8,0.34 0.6,0.22 1.31,-0.35 1.49,-1.1 0.31,-1.33 0.62,-2.66 0.8,-4.01 0.28,-2.03 -0.69,-3.8 -2.34,-4.17 -2.23,-0.5 -4.46,-0.93 -6.76,-0.16 -1.74,0.59 -2.9,1.72 -2.86,3.57 0.03,1.44 0.33,2.89 0.65,4.31 0.14,0.61 0.61,1.15 0.89,1.65 0.84,-0.15 1.46,-0.27 2.33,-0.43 z m -16.61,56.5 c -1.49,2.84 0.04,5.64 3.2,5.84 1.46,0.09 2.91,0.21 4.37,0.28 0.92,0.04 1.86,0.1 2.77,0.02 2.53,-0.22 4,-2.21 3.53,-4.7 -0.17,-0.91 -0.64,-1.64 -1.51,-2.03 -0.57,-0.26 -1.18,-0.54 -1.79,-0.6 -2.42,-0.23 -4.84,-0.42 -7.27,-0.51 -1.26,-0.05 -2.37,0.47 -3.3,1.7 z m -4.51,-62.94 c 0.05,-0.24 0.11,-0.47 0.15,-0.71 0.37,-2.23 -0.2,-3.29 -2.33,-4.03 -2.49,-0.86 -5.08,-0.79 -7.64,-0.43 -1.47,0.2 -2.1,0.93 -2.34,2.38 -0.34,2.02 0.18,3.85 1.2,5.58 0.33,0.55 0.71,0.81 1.41,0.74 2.17,-0.19 4.36,-0.4 6.53,-0.35 1.19,0.03 1.82,-0.4 2.27,-1.35 0.25,-0.52 0.46,-1.06 0.75,-1.83 z m 48.31,-20.46 c 1.01,-5.74 1.84,-11.52 3.34,-17.19 -0.81,0.96 -1.53,1.94 -2.13,2.99 -2.13,3.69 -3.69,7.64 -4.91,11.71 -0.48,1.61 -0.91,3.19 -2.36,3.95 0.51,0.97 1.17,1.76 1.35,2.65 0.37,1.81 0.56,3.66 0.7,5.5 0.07,0.96 -0.08,1.91 0.77,2.67 0.28,0.25 0.36,0.79 0.42,1.21 0.14,1.03 0.21,2.06 0.31,3.1 0.36,-1.38 0.6,-2.77 0.79,-4.16 0.58,-4.06 1.13,-8.12 1.72,-12.43 z m -37.14,5.19 c -0.29,-0.05 -0.58,-0.11 -0.87,-0.13 -2.34,-0.23 -4.67,-0.2 -6.93,0.59 -0.86,0.3 -1.67,0.73 -1.84,1.7 -0.15,0.85 -0.23,1.75 -0.1,2.59 0.29,1.82 2.01,2.86 3.87,2.69 1.34,-0.12 2.71,0 4.06,0.09 0.82,0.05 1.63,0.28 2.45,0.37 0.8,0.08 1.54,-0.09 2.14,-0.71 1.87,-1.95 1.57,-4.82 -0.7,-6.29 -0.55,-0.38 -1.22,-0.57 -2.08,-0.9 z m -22.92,-27.56 c -0.19,-0.71 -0.6,-1.29 -1.34,-1.39 -2.08,-0.29 -4.16,-0.52 -6.25,-0.06 -1.05,0.23 -1.74,0.87 -1.94,1.94 -0.16,0.86 -0.22,1.74 -0.38,2.6 -0.25,1.38 0.31,2.59 0.81,3.8 0.13,0.33 0.61,0.65 0.98,0.72 1.86,0.33 3.75,0.55 5.62,0.87 1.13,0.19 1.95,-0.24 2.46,-1.15 0.36,-0.65 0.71,-1.45 0.68,-2.17 -0.08,-1.66 -0.39,-3.29 -0.64,-5.16 z m 20.94,135.51 c -0.64,0.21 -1.32,0.35 -1.92,0.65 -1.79,0.89 -2.45,2.23 -2.11,4.21 0.22,1.28 0.83,2.39 1.82,3.25 2.2,1.91 4.73,1.85 7.28,1 0.61,-0.2 1.18,-0.87 1.51,-1.47 0.71,-1.3 0.97,-2.75 0.86,-4.24 -0.11,-1.57 -0.85,-2.64 -2.43,-3.08 -1.57,-0.43 -3.15,-0.57 -5.01,-0.32 z m 21.79,-25.35 c 0.24,-0.84 0.52,-1.67 0.69,-2.53 0.14,-0.68 -0.13,-1.21 -0.79,-1.56 -2.95,-1.54 -6.01,-1.86 -9.2,-0.86 -0.8,0.25 -1.32,0.74 -1.59,1.57 -0.58,1.83 -0.68,3.64 0.09,5.42 0.24,0.57 0.62,1.11 1.06,1.54 0.26,0.25 0.79,0.36 1.17,0.32 1.59,-0.17 3.17,-0.49 4.77,-0.61 1.41,-0.11 2.35,-0.83 3.1,-1.92 0.25,-0.35 0.4,-0.77 0.7,-1.37 z m -4.62,-97.29 c -0.31,-0.79 -0.93,-1.24 -1.72,-1.45 -2.23,-0.61 -4.51,-0.71 -6.81,-0.51 -0.72,0.06 -1.35,0.38 -1.6,1.1 -0.66,1.96 -0.96,3.99 -0.42,6.02 0.38,1.44 1.45,2.01 3.01,1.95 1.5,-0.06 3.01,-0.01 4.52,0 0.34,0 0.68,0.02 1.02,-0.01 1.09,-0.09 1.71,-0.47 1.85,-1.51 0.25,-1.78 0.65,-3.56 0.15,-5.59 z m -0.09,17.97 c -2.34,-0.31 -4.66,-0.05 -6.98,0.26 -1.83,0.24 -2.84,1.23 -3.26,3.02 -0.7,2.96 1.49,5.27 4.46,4.61 1.34,-0.3 2.69,-0.43 4.06,-0.17 0.43,0.08 0.87,0.12 1.31,0.13 1.43,0.04 1.99,-0.26 2.33,-1.67 0.27,-1.11 0.32,-2.31 0.27,-3.46 -0.07,-1.24 -0.69,-2.22 -2.19,-2.72 z m -33.79,34.53 c 1.25,0.22 2.49,0.47 3.75,0.67 2.58,0.41 4.3,-1.05 4.33,-3.64 0.02,-2.51 -1.76,-4.31 -4.52,-4.35 -2.39,-0.03 -4.78,0.12 -7.17,0.25 -1.1,0.06 -1.52,0.6 -1.51,1.74 0,0.63 0.09,1.27 0.09,1.9 0.01,1.8 1.02,2.58 2.47,3 0.75,0.22 1.54,0.28 2.56,0.43 z m 43.74,-12.02 c -0.68,0.26 -1.35,0.58 -2.05,0.78 -2.13,0.61 -2.88,2.12 -2.88,4.2 0,1.67 0.49,2.31 2.09,2.62 2.58,0.51 5.14,0.24 7.71,-0.14 1.03,-0.15 1.52,-0.76 1.68,-1.73 0.16,-0.96 0.36,-1.92 0.5,-2.88 0.34,-2.27 -2.2,-4.53 -4.39,-3.88 -0.83,0.24 -1.63,0.63 -2.66,1.03 z m -4.52,-19.58 c -0.87,0.39 -1.43,1.05 -1.5,2 -0.06,0.82 -0.1,1.67 0.05,2.47 0.46,2.45 2.24,3.85 4.75,3.85 1.12,0 2.24,-0.02 3.36,0.04 0.7,0.04 1.21,-0.23 1.71,-0.66 1.52,-1.29 1.44,-3.01 1.23,-4.73 -0.2,-1.61 -1.08,-2.69 -2.71,-3.06 -2.22,-0.49 -4.44,-0.5 -6.89,0.09 z M 247,294.26 c 0.14,-0.46 0.36,-0.92 0.41,-1.39 0.17,-1.5 0.07,-3.05 -1.21,-4 -2.54,-1.89 -5.4,-2.3 -8.43,-1.23 -0.82,0.29 -1.2,0.87 -1.4,1.69 -0.51,2.16 -0.05,4 1.53,5.62 0.66,0.68 1.28,1.04 2.28,0.97 1.05,-0.08 2.14,-0.02 3.18,0.18 1.93,0.35 2.53,0.13 3.64,-1.84 z m 36.63,-34.2 c 0.68,-0.03 1.36,-0.03 2.04,-0.11 0.62,-0.07 1.24,-0.19 1.84,-0.36 1.03,-0.29 1.51,-0.97 1.4,-2.07 -0.05,-0.48 0,-0.97 -0.01,-1.46 -0.02,-1.49 -0.68,-2.63 -1.99,-3.34 -2.65,-1.43 -5.41,-1.4 -8.2,-0.46 -0.86,0.29 -1.37,0.92 -1.35,1.87 0.02,0.92 0,1.86 0.13,2.77 0.25,1.88 1.36,2.98 3.25,3.2 0.86,0.1 1.74,-0.01 2.89,-0.04 z m 7.59,18.77 c -0.15,0.98 -0.04,1.92 0.88,2.44 1.9,1.09 3.89,1.77 6.12,1.01 0.87,-0.3 1.75,-0.64 2.65,-0.72 0.89,-0.08 1.42,-0.45 1.49,-1.26 0.11,-1.29 0.13,-2.6 0.11,-3.9 -0.02,-1.17 -0.73,-1.88 -1.82,-2.18 -0.6,-0.16 -1.24,-0.32 -1.86,-0.3 -1.65,0.05 -3.3,0.15 -4.94,0.32 -1.23,0.13 -1.86,0.84 -2.09,2.07 -0.14,0.76 -0.32,1.52 -0.54,2.52 z m -34.87,-21.51 c 0.29,0.05 0.57,0.12 0.86,0.16 1.45,0.23 1.93,-0.04 2.44,-1.41 0.13,-0.36 0.27,-0.76 0.23,-1.13 -0.16,-1.74 -0.3,-3.49 -0.6,-5.21 -0.2,-1.13 -0.85,-1.58 -1.95,-1.6 -1.36,-0.02 -2.73,-0.03 -4.09,0.06 -1.77,0.13 -2.79,0.95 -3.15,2.55 -0.34,1.55 -0.26,3.12 0.28,4.62 0.46,1.27 1.36,1.96 2.79,1.91 0.97,-0.04 1.94,0.01 3.19,0.05 z m 25.73,31.47 c 2.7,0.21 5.41,0.41 8.13,0.62 0.47,-1.87 -0.05,-5.2 -1.12,-6.8 -0.64,-0.95 -1.57,-1.53 -2.69,-1.55 -1.6,-0.02 -3.23,0.01 -4.81,0.23 -1.69,0.23 -3.02,1.66 -2.96,3.14 0.04,0.95 0.32,1.92 0.67,2.81 0.42,1.08 1.25,1.72 2.78,1.55 z m -20.91,-47.96 c -0.11,-1.22 -0.46,-2.4 -1.64,-2.92 -2.25,-1 -4.57,-1.39 -6.91,-0.23 -0.95,0.47 -1.65,1.19 -2.15,2.12 -0.47,0.88 -0.58,1.72 0.01,2.62 0.31,0.48 0.45,1.07 0.68,1.61 0.29,0.69 0.68,1.29 1.47,1.51 2.27,0.65 4.47,0.75 6.69,-0.35 1.24,-0.62 1.95,-1.38 1.83,-2.8 -0.04,-0.45 0.03,-0.89 0.02,-1.56 z m 32.26,2.6 c -2.4,-0.33 -4.04,1.66 -4.13,3.89 -0.02,0.48 0.02,0.97 0.07,1.45 0.25,2.41 1.11,3.38 3.49,3.44 1.84,0.05 3.68,-0.21 5.52,-0.4 0.3,-0.03 0.64,-0.38 0.83,-0.67 0.62,-0.91 0.78,-1.94 0.88,-3.03 0.18,-2.03 -0.24,-3.08 -2.14,-3.76 -1.35,-0.48 -2.83,-0.63 -4.52,-0.92 z m -54.69,34.42 c -1.45,1.83 -1.36,3.88 -0.83,5.98 0.23,0.9 0.78,1.59 1.75,1.75 1.39,0.23 2.78,0.47 4.18,0.61 1.8,0.19 2.91,-0.67 3.14,-2.46 0.15,-1.15 0.22,-2.33 0.18,-3.49 -0.03,-0.65 -0.23,-1.38 -0.6,-1.9 -1.6,-2.21 -5.64,-2.53 -7.82,-0.49 z m 7.57,-2.96 c 1.49,-1.49 1.63,-3.34 1.35,-5.28 -0.12,-0.83 -0.61,-1.5 -1.42,-1.7 -2.07,-0.51 -4.15,-1.02 -6.26,-1.32 -1.47,-0.2 -2.1,0.47 -2.37,1.94 -0.32,1.76 -0.24,3.5 0.35,5.18 0.24,0.7 0.72,1.32 1.14,2.05 1.85,-0.85 3.58,-0.72 5.3,-0.28 0.71,0.18 1.23,-0.07 1.91,-0.59 z m 7.06,-16.4 c -0.48,0.05 -0.97,0.1 -1.45,0.15 -0.81,0.09 -1.37,0.53 -1.62,1.29 -0.6,1.82 -0.59,3.64 0.18,5.42 0.36,0.83 0.95,1.34 1.92,1.29 2.09,-0.12 4.18,-0.2 6.27,-0.35 0.7,-0.05 1.3,-0.34 1.7,-0.99 1.48,-2.41 0.43,-5.52 -2.27,-6.25 -1.43,-0.39 -2.97,-0.39 -4.73,-0.56 z m 32.71,-24.63 c -0.63,-0.52 -1.19,-1.28 -1.91,-1.51 -1.87,-0.61 -3.84,-0.78 -5.77,-0.24 -0.98,0.27 -2.03,0.66 -2.37,1.77 -0.54,1.77 -0.35,3.51 0.87,4.96 0.43,0.52 1.18,0.94 1.85,1.06 2.18,0.39 4.37,0.1 6.55,-0.23 0.71,-0.11 1.16,-0.55 1.29,-1.23 0.27,-1.5 0.5,-3 -0.51,-4.58 z m -27.46,-26.37 c -1.79,-0.04 -3.59,-0.18 -5.38,-0.07 -1.28,0.08 -1.9,0.68 -1.96,1.96 -0.08,1.79 0.04,3.59 0.23,5.38 0.11,1 0.48,1.16 1.5,1.19 1.56,0.05 3.11,0.12 4.67,0.15 0.43,0.01 0.87,-0.08 1.3,-0.17 0.92,-0.19 1.46,-0.73 1.52,-1.7 0.07,-1.07 0.25,-2.14 0.21,-3.21 -0.04,-1.42 -0.17,-2.88 -2.09,-3.53 z m -12.21,19.95 c 0.68,0.04 1.36,0.1 2.04,0.12 1.35,0.05 1.68,-0.19 2.09,-1.49 0.43,-1.35 0.22,-2.69 0.01,-4.04 -0.17,-1.09 -0.75,-1.85 -1.76,-2.11 -1.35,-0.36 -2.75,-0.73 -4.13,-0.75 -1.75,-0.02 -3.25,0.63 -3.68,2.63 -0.05,0.23 -0.14,0.48 -0.26,0.68 -0.65,1.07 -0.39,2.17 -0.08,3.25 0.32,1.09 0.99,1.59 2.14,1.64 1.12,0.05 2.24,0.04 3.63,0.07 z m 42.47,124.84 c 0.44,-1.59 0.98,-3.15 1.3,-4.76 0.26,-1.29 -0.3,-1.93 -1.61,-2.08 -1.51,-0.18 -3.01,-0.07 -4.46,0.46 -2.68,0.97 -3.73,2.63 -3.55,5.46 0.12,1.82 1.04,2.98 2.73,3.57 0.5,0.17 1.03,0.29 1.55,0.4 1.4,0.29 2.48,-0.24 3.26,-1.4 0.29,-0.44 0.48,-0.96 0.78,-1.65 z M 268.21,219.11 c -1.58,0.25 -3.17,0.44 -4.72,0.78 -0.99,0.22 -1.54,0.96 -1.6,2.01 -0.05,0.87 -0.16,1.74 -0.19,2.61 -0.04,1.12 0.19,1.52 1.28,1.77 0.93,0.21 1.91,0.3 2.86,0.26 1.6,-0.07 3.2,-0.24 4.79,-0.43 1.96,-0.24 2.72,-1.17 2.62,-3.14 -0.02,-0.48 -0.12,-0.96 -0.16,-1.45 -0.06,-0.82 -0.48,-1.42 -1.23,-1.64 -1.11,-0.32 -2.26,-0.52 -3.65,-0.77 z m 10.56,11.27 c 1.75,-0.05 3.5,-0.1 5.25,-0.16 1.39,-0.05 2.08,-0.54 2.17,-1.66 0.13,-1.54 -0.16,-3.02 -0.95,-4.36 -0.48,-0.81 -1.11,-1.54 -2.17,-1.52 -1.46,0.03 -2.93,-0.01 -4.36,0.21 -2.36,0.37 -3.61,2.01 -3.56,4.41 0.04,2.36 0.69,3.01 3.04,3.09 0.11,-0.01 0.21,-0.01 0.58,-0.01 z m 20.92,24.71 c -1.55,-1.54 -3.35,-2.11 -5.45,-1.31 -1.39,0.53 -2.48,1.39 -2.71,2.97 -0.14,0.96 -0.22,1.94 -0.21,2.91 0.01,1.75 0.64,2.59 2.34,2.79 2.11,0.24 4.24,0.26 6.22,0.37 0.21,-1.2 0.44,-2.28 0.59,-3.37 0.21,-1.46 0.38,-2.92 -0.78,-4.36 z m -55.54,2.71 c -0.91,-0.16 -1.81,-0.39 -2.73,-0.47 -1.12,-0.1 -2.28,0.15 -2.74,1.25 -0.83,1.97 -1.12,4.02 0.05,6.03 0.25,0.43 0.56,0.57 1.05,0.62 0.96,0.1 1.91,0.31 2.87,0.47 1.05,0.18 2.1,0.38 3.15,0.56 0.59,0.1 1.11,-0.09 1.33,-0.66 1.36,-3.59 1.79,-6.68 -2.6,-7.73 -0.05,-0.01 -0.1,-0.02 -0.38,-0.07 z m -5.98,54.55 c 0.17,0.8 0.31,1.62 0.54,2.4 0.12,0.42 0.42,0.77 0.98,0.65 1.76,-0.35 3.48,0.02 5.21,0.23 0.62,0.08 1.32,-0.18 1.94,-0.39 0.64,-0.22 0.86,-0.77 0.69,-1.42 -0.4,-1.5 -0.72,-3.04 -1.24,-4.5 -0.54,-1.49 -1.61,-2.59 -3.26,-2.8 -1.1,-0.14 -2.23,-0.06 -3.35,-0.02 -0.46,0.02 -0.91,0.22 -1.52,0.37 0,1.82 0,3.51 0.01,5.48 z m 62.42,-8.88 c 0.72,0.07 0.89,-0.39 1,-0.97 0.36,-1.87 0.77,-3.73 1.13,-5.59 0.05,-0.27 0.13,-0.67 -0.01,-0.84 -0.77,-0.95 -1.61,-1.92 -2.99,-1.83 -1.36,0.1 -2.71,0.28 -4.06,0.49 -0.98,0.15 -1.65,0.76 -2.1,1.65 -1,1.96 0.35,6.2 2.84,6.87 1.33,0.36 2.61,0.27 4.19,0.22 z m -56.1,-62.96 c -0.38,-0.09 -0.76,-0.18 -1.14,-0.26 -1.5,-0.31 -2.42,0.07 -3.18,1.4 -0.27,0.46 -0.38,1.01 -0.67,1.46 -0.65,1.01 -0.34,1.96 0.1,2.91 0.16,0.35 0.44,0.65 0.58,1.01 0.23,0.58 0.64,0.76 1.23,0.84 1.45,0.2 2.88,0.49 4.33,0.7 0.67,0.1 1.36,0.11 2.03,0.1 0.27,0 0.59,-0.12 0.79,-0.29 2.22,-1.87 1.89,-5.32 -0.69,-6.67 -0.99,-0.51 -2.1,-0.78 -3.38,-1.2 z m 7.81,-12.12 c -0.88,0.36 -1.18,1.08 -1.24,1.97 -0.11,1.62 0.31,3.1 1.25,4.4 0.28,0.38 0.83,0.75 1.28,0.78 1.65,0.1 3.3,0.08 4.95,0.04 1.02,-0.03 1.77,-0.57 2.03,-1.58 0.26,-0.98 0.55,-1.98 0.63,-2.98 0.16,-2.02 -1.1,-3.58 -2.98,-3.57 -1.93,0 -3.91,-0.08 -5.92,0.94 z m 19.13,-18.34 c -0.25,-0.14 -0.49,-0.36 -0.76,-0.41 -2.72,-0.49 -5.32,0.04 -7.83,1.07 -0.5,0.21 -0.66,0.66 -0.67,1.2 -0.01,0.78 -0.02,1.56 -0.11,2.33 -0.2,1.87 0.42,2.9 2.26,3.02 1.98,0.14 3.98,0 5.96,-0.1 0.99,-0.05 1.65,-0.75 1.78,-1.68 0.26,-1.76 0.47,-3.57 -0.63,-5.43 z m 38.3,24.83 c -1.43,2.99 -2.48,6.11 -3.12,9.37 0.28,-0.39 0.48,-0.81 0.68,-1.24 0.79,-1.62 1.49,-3.29 2.4,-4.84 2.12,-3.59 4.65,-6.83 8.23,-9.15 3.06,-1.98 6.11,-3.96 9.91,-5.09 -0.69,-0.34 -1.14,-0.63 -1.63,-0.78 -2.42,-0.73 -4.85,-0.75 -7.07,0.56 -1.33,0.79 -2.59,1.75 -3.7,2.82 -2.4,2.33 -4.09,5.19 -5.7,8.35 z M 272.08,204.1 c -0.51,-2.74 -1.47,-3.85 -3.7,-4.2 -0.71,-0.11 -1.46,-0.11 -2.18,-0.03 -2.92,0.33 -3.25,0.67 -3.59,3.54 -0.15,1.22 -0.19,2.43 0.24,3.61 0.32,0.88 0.89,1.37 1.86,1.31 1.17,-0.07 2.34,-0.1 3.5,-0.23 3.26,-0.36 3.39,-0.5 3.87,-4 z m -11.73,18.53 c 0.04,-0.92 0.13,-1.84 0.12,-2.76 -0.02,-0.91 -0.51,-1.61 -1.39,-1.85 -1.69,-0.46 -3.41,-0.7 -5.19,-0.58 -1.92,0.12 -2.75,1.74 -2.31,3.53 0.27,1.12 0.37,2.3 0.44,3.46 0.08,1.36 0.18,1.63 1.53,1.77 1.05,0.11 2.13,0.02 3.19,-0.04 2.58,-0.15 3.18,-0.72 3.61,-3.53 z m 30.61,1.88 c -1.88,0.3 -2.76,1.48 -2.91,3.29 -0.06,0.77 -0.11,1.56 -0.07,2.33 0.1,1.99 0.93,2.78 2.96,2.77 1.75,-0.01 3.49,-0.12 5.24,-0.16 0.7,-0.02 1.02,-0.32 1.19,-1 0.4,-1.6 0.03,-3.08 -0.53,-4.55 -0.49,-1.28 -1.49,-2.06 -2.77,-2.38 -0.92,-0.23 -1.91,-0.24 -3.11,-0.3 z m -36.59,-27.56 c -0.91,0.12 -1.4,0.74 -1.54,1.54 -0.19,1.04 -0.28,2.12 -0.29,3.18 -0.03,1.86 1.05,3.38 2.81,4 1.37,0.48 2.77,0.39 4.18,0.12 0.6,-0.12 0.96,-0.47 1.12,-1.02 0.43,-1.55 0.77,-3.1 0.51,-4.75 -0.24,-1.5 -1.06,-2.42 -2.49,-2.69 -1.34,-0.24 -2.7,-0.28 -4.3,-0.38 z m 11.8,38.5 c 0.82,-0.07 1.64,-0.17 2.47,-0.19 0.73,-0.02 1.46,0.08 2.19,0.08 2.23,-0.01 3.57,-1.88 2.83,-3.98 -0.18,-0.5 -0.41,-0.99 -0.69,-1.45 -0.8,-1.31 -1.92,-2.05 -3.52,-1.91 -1.07,0.09 -2.15,0.11 -3.2,0.29 -2.02,0.34 -3.57,2.48 -3.36,4.51 0.16,1.42 1.14,2.29 3.28,2.65 z m -23.9,97.23 c 1.22,2.8 2.44,5.6 3.64,8.36 1.92,-0.39 2.45,-0.7 2.73,-2.38 0.4,-2.39 0.64,-4.82 0.74,-7.25 0.07,-1.71 -0.89,-2.64 -2.61,-2.68 -1.35,-0.04 -2.71,0.16 -4.06,0.33 -0.63,0.08 -1.18,0.43 -1.46,1.15 0.3,0.74 0.62,1.5 1.02,2.47 z m -1.93,-140.92 c 0.05,2.14 0.12,4.29 0.14,6.43 0.02,2.1 0.01,4.21 0.01,6.46 0.46,-0.49 0.81,-0.87 1.17,-1.25 -0.15,-0.66 -0.34,-1.26 -0.41,-1.88 -0.32,-2.96 -0.24,-5.79 2.88,-7.52 -0.47,-2.08 0.83,-3.47 2,-4.79 -1.49,-4.01 -3.64,-7.51 -5.78,-11.35 -0.01,4.78 -0.01,9.21 -0.01,13.9 z m -1.22,105.68 c -2.46,0.78 -2.95,4.92 -1.15,6.55 0.52,0.47 1.19,1 1.83,1.07 1.64,0.18 3.3,0.2 4.95,0.12 1.27,-0.06 1.78,-0.78 1.75,-2.05 -0.01,-0.63 -0.1,-1.26 -0.08,-1.89 0.03,-1.23 -0.5,-2.17 -1.43,-2.89 -1.7,-1.33 -3.6,-1.62 -5.87,-0.91 z m 44.51,-86.38 c 0.06,-0.82 0.17,-1.65 0.17,-2.47 0,-2.04 -0.6,-2.85 -2.65,-2.83 -1.72,0.01 -3.47,0.41 -5.15,0.84 -1,0.25 -1.54,1.15 -1.58,2.24 -0.05,1.29 0.24,2.5 0.87,3.64 0.46,0.83 1.09,1.18 2.02,1.09 1.31,-0.12 2.62,-0.19 3.93,-0.29 1.79,-0.13 1.79,-0.14 2.39,-2.22 z m -29.2,145.83 c -0.35,0.63 0.03,1.13 0.3,1.63 0.94,1.76 1.89,3.51 2.85,5.26 0.58,1.06 1.19,2.11 1.8,3.18 0.78,-0.21 1.46,-0.4 2.17,-0.59 0.88,-2.58 0.95,-5.18 0.57,-7.81 -0.19,-1.32 -1.05,-2.2 -2.31,-2.57 -1.84,-0.55 -3.65,-0.64 -5.38,0.9 z m 25.4,-142.02 c -0.76,0.15 -1.54,0.25 -2.28,0.48 -2.11,0.66 -3.25,2.92 -2.13,5.34 0.17,0.37 0.68,0.69 1.09,0.82 0.44,0.14 0.96,0.06 1.44,0.04 1.84,-0.1 3.68,-0.21 5.52,-0.32 0.19,-0.01 0.39,-0.01 0.58,-0.03 0.55,-0.05 0.94,-0.35 0.99,-0.9 0.09,-1.11 0.23,-2.23 0.13,-3.32 -0.12,-1.27 -1.04,-2.11 -2.32,-2.22 -0.91,-0.09 -1.84,0.03 -3.02,0.11 z m 16.25,27.38 c 0.47,0 0.94,0 1.45,0 0.44,-2.28 0.06,-4.35 -0.9,-6.3 -0.24,-0.49 -0.89,-0.95 -1.44,-1.1 -1.71,-0.44 -3.46,-0.47 -5.17,0.11 -0.89,0.3 -1.38,0.87 -1.37,1.83 0.03,1.49 0.36,2.88 1.27,4.1 0.5,0.67 1.11,1.03 1.96,1.06 1.32,0.05 2.63,0.18 4.2,0.3 z m -51.29,7.88 c -0.77,-0.11 -1.55,-0.33 -2.31,-0.3 -0.95,0.04 -1.93,0.17 -2.82,0.48 -0.76,0.26 -1.2,0.95 -1.16,1.85 0.08,1.89 1.17,3.47 3.01,3.83 2.05,0.4 4.1,0.74 6.03,1.71 1.31,-1.6 1.34,-3.32 0.76,-5.03 -0.5,-1.49 -1.66,-2.34 -3.51,-2.54 z M 283,200.17 c -0.45,-0.41 -0.84,-0.98 -1.37,-1.2 -1.95,-0.8 -4.01,-0.84 -6.05,-0.48 -1.83,0.32 -2.8,1.84 -2.5,3.67 0.09,0.53 0.14,1.07 0.29,1.58 0.45,1.44 1.09,1.96 2.43,1.38 1.52,-0.65 3.15,-1.01 4.86,-0.77 0.33,0.05 0.68,-0.02 1.02,-0.07 1.08,-0.16 1.31,-0.39 1.36,-1.51 0.04,-0.78 0.01,-1.57 -0.04,-2.6 z m -11.37,-5.74 c -0.1,-1.93 -0.33,-2.26 -2.18,-2.73 -0.75,-0.19 -1.53,-0.34 -2.31,-0.36 -2.79,-0.07 -3.89,0.96 -4.09,3.77 -0.03,0.39 -0.01,0.78 -0.01,1.17 0,1.03 0.36,1.9 1.01,2.45 2.14,0 4.11,0 6.2,0 0.99,-1.07 1.51,-2.44 1.38,-4.3 z m -35.88,108.26 c -0.35,-1.91 -0.1,-3.67 1.13,-5.25 0.65,-0.83 0.61,-1.12 -0.04,-1.95 -0.36,-0.46 -0.76,-0.91 -1.22,-1.24 -1.52,-1.1 -4.04,-0.55 -4.75,1.18 -1,2.43 -1.1,4.97 0.21,7.34 1.15,2.11 3.17,2.13 4.67,-0.08 z m 54.48,-109.78 c 0.05,-3.32 0.22,-6.64 0.1,-9.95 -0.12,-3.11 -0.56,-6.21 -0.88,-9.31 -0.02,-0.24 -0.19,-0.47 -0.36,-0.87 -1.36,1.91 -2.32,3.82 -3.14,5.8 -0.12,0.28 0.67,4.69 0.86,4.93 1.75,2.29 2.02,4.88 1.57,7.51 0.56,0.86 1.08,1.66 1.61,2.49 0.07,-0.14 0.14,-0.26 0.24,-0.6 z m -3.6,25.09 c 0.03,0.87 -0.01,1.76 0.11,2.62 0.24,1.73 0.74,2.22 2.44,2.26 1.31,0.03 2.63,-0.11 3.94,-0.21 0.21,-0.02 0.47,-0.16 0.62,-0.32 1,-1.07 1.17,-3.63 0.17,-4.78 -0.69,-0.79 -1.54,-1.53 -2.46,-2 -2.03,-1.03 -4.26,0.05 -4.82,2.43 z m -8.19,-20.9 c 1.19,0.14 2.39,0.28 3.58,0.42 0.29,-1.08 0.36,-3.46 0.01,-4.34 -0.18,-0.46 -0.52,-0.95 -0.93,-1.23 -1.87,-1.3 -4.85,-1.05 -6.52,0.48 -1.35,1.23 -1.3,3.62 0.02,4.81 1.23,-0.05 2.4,-0.09 3.84,-0.14 z m -1.91,-7.07 c 0.47,-0.13 0.94,-0.26 1.41,-0.4 1.97,-0.56 2.87,-1.83 2.76,-3.88 -0.06,-1.18 -0.31,-1.66 -1.48,-1.82 -1.53,-0.2 -3.1,-0.26 -4.64,-0.13 -1.18,0.1 -2.12,0.9 -2.3,2.14 -0.32,2.27 0.48,4.41 3.42,4.14 0.2,-0.01 0.39,-0.01 0.83,-0.05 z m -22.24,1.23 c -0.06,0.91 -0.24,1.84 -0.14,2.73 0.12,1.18 0.72,1.58 1.95,1.67 0.72,0.05 1.45,0.15 2.16,0.28 2.12,0.4 2.21,0.38 3.18,-1.61 0.25,-0.52 0.44,-1.08 0.57,-1.64 0.27,-1.15 0,-1.7 -0.98,-2.32 -1.15,-0.72 -2.45,-0.9 -3.76,-1 -1.33,-0.1 -2.41,0.31 -2.98,1.89 z m 74.99,50.02 c -0.49,-0.64 -0.98,-1.27 -1.62,-2.1 -0.58,2.47 -1.1,4.64 -1.57,6.63 1.17,0.89 2.3,1.58 3.22,2.48 2.12,2.06 3.8,4.45 4.77,7.28 0.08,0.23 0.15,0.47 0.26,0.68 0.08,0.16 0.22,0.3 0.52,0.71 -0.89,-5.74 -2.42,-10.89 -5.58,-15.68 z M 269.8,184.4 c -1.91,-1 -3.91,-0.94 -5.91,-0.36 -0.4,0.11 -0.83,0.57 -0.99,0.97 -0.69,1.74 -0.07,4.48 2.77,4.72 1.15,0.09 2.33,-0.03 3.47,-0.21 1.3,-0.21 1.97,-1.09 1.76,-2.4 -0.14,-0.88 -0.62,-1.7 -1.1,-2.72 z m -35.34,96.67 c 0.54,0.37 1.1,0.6 1.77,0.22 0.11,-0.69 0.06,-1.43 0.35,-2 0.7,-1.4 0.56,-2.81 0.37,-4.27 -0.19,-1.51 -1.06,-2.35 -2.4,-2.82 -1.75,-0.62 -2.65,-0.08 -2.79,1.75 -0.21,2.69 0.36,5.14 2.7,7.12 z m -0.53,-34.09 c -0.9,1.32 -1.26,2.83 -1.48,4.37 -0.15,1.06 0.21,1.98 0.72,2.73 1.5,-0.16 2.83,-0.3 4.28,-0.45 -0.59,-2.11 -0.05,-3.77 2.1,-4.78 -0.35,-0.65 -0.64,-1.2 -0.94,-1.74 -0.56,-1.04 -1.49,-1.41 -2.58,-1.16 -0.68,0.16 -1.3,0.57 -2.1,1.03 z m 10.52,-34.35 c -0.61,0.31 -1.25,0.55 -1.81,0.93 -0.86,0.59 -1.19,1.7 -0.89,2.58 0.29,0.84 0.91,1.22 2.07,1.28 1.21,0.06 2.43,0.13 3.64,0.2 1.16,0.07 2.09,-0.3 2.63,-1.25 -0.16,-0.87 -0.38,-1.62 -0.43,-2.38 -0.11,-1.78 -1.17,-2.59 -2.92,-2.12 -0.7,0.2 -1.39,0.45 -2.29,0.76 z m 4.19,-8.92 c -1.03,-0.26 -2.02,-0.22 -2.91,0.45 -1.03,0.77 -1.93,1.67 -2.36,2.89 -0.27,0.76 -0.43,1.6 -0.42,2.41 0.01,0.93 0.54,1.28 1.47,1.11 1.19,-0.22 2.38,-0.49 3.56,-0.77 0.99,-0.23 1.62,-0.84 1.85,-1.84 0.12,-0.52 0.25,-1.04 0.34,-1.56 0.21,-1.19 -0.09,-2.12 -1.53,-2.69 z m 48.54,108.68 c 0.59,0.19 1.18,0.37 1.94,0.61 0.68,-2.82 1.32,-5.49 1.98,-8.24 -1.49,-0.2 -2.78,-0.05 -4.04,0.3 -0.36,0.1 -0.73,0.32 -0.99,0.58 -1.11,1.11 -1.13,2.53 -0.98,3.96 0.11,1.26 0.61,2.26 2.09,2.79 z m -12.71,-108.8 c 0.08,0.28 0.13,0.57 0.24,0.84 0.63,1.46 1.24,1.81 2.73,1.37 0.92,-0.27 1.79,-0.73 2.65,-1.16 0.59,-0.29 0.81,-0.84 0.63,-1.48 -0.24,-0.84 -0.47,-1.69 -0.82,-2.48 -0.74,-1.69 -1.32,-2 -3.17,-1.88 -1.33,0.08 -2.15,0.87 -2.24,2.21 -0.05,0.77 -0.03,1.55 -0.02,2.58 z m 7.21,4.47 c -1.24,-1.09 -3.55,-1.28 -4.89,-0.42 -0.85,0.55 -1.37,1.31 -1.17,2.33 0.15,0.75 0.39,1.52 0.74,2.19 0.71,1.35 3.58,1.95 4.81,1.06 0.22,-0.16 0.43,-0.42 0.52,-0.68 0.46,-1.41 0.69,-2.84 -0.01,-4.48 z m -33.59,-20.11 c 0.61,-0.16 1.25,-0.25 1.81,-0.51 0.41,-0.19 0.86,-0.54 1.05,-0.94 0.79,-1.61 -0.25,-3.7 -1.98,-4.12 -0.66,-0.16 -1.33,-0.33 -2,-0.41 -1.4,-0.18 -2.34,0.56 -2.52,1.94 -0.08,0.58 -0.16,1.16 -0.27,1.73 -0.22,1.16 0.32,1.99 1.5,2.17 0.71,0.11 1.44,0.12 2.41,0.14 z m -26.02,95.73 c -1.42,1.14 -1.81,2.63 -1.3,4.31 0.6,1.98 2.11,3.03 4.14,3.68 -0.01,-2.17 0.43,-4.08 1.61,-5.77 0.34,-0.48 0.15,-0.92 -0.18,-1.33 -0.91,-1.09 -2.69,-1.54 -4.27,-0.89 z m 39.64,93.43 c -0.48,-0.08 -0.95,-0.15 -1.56,-0.25 -0.5,0.66 -1.08,1.32 -1.53,2.05 -0.16,0.26 -0.18,0.87 0,1.04 1.08,1.04 2.22,2.03 3.39,2.97 0.58,0.47 1.22,0.29 1.66,-0.3 0.64,-0.85 1.3,-1.71 1.83,-2.63 0.55,-0.96 0.6,-2.02 0.25,-3.04 -1.31,0.07 -2.56,0.13 -4.04,0.16 z M 234.74,244.25 c 1.94,0.29 2.87,-0.18 3.61,-1.86 0.74,-1.68 0.83,-3.39 0.23,-5.12 -0.23,-0.65 -0.58,-1.26 -1.39,-1.33 -0.73,-0.06 -1.19,0.38 -1.54,0.94 -0.39,0.62 -0.76,1.25 -1.1,1.89 -0.91,1.76 -0.99,3.53 0.19,5.48 z m 32.73,-68.18 c 0.96,0.39 1.92,0.78 2.94,1.19 0,-1.24 0.06,-2.45 -0.02,-3.66 -0.06,-0.97 -0.51,-1.85 -1.51,-2.12 -0.93,-0.25 -1.92,-0.37 -2.88,-0.35 -1.17,0.02 -2.26,0.89 -2.33,1.84 -0.09,1.13 0.02,2.27 0.05,3.29 1.29,-0.08 2.4,-0.15 3.75,-0.19 z m -35.52,83.34 c 0.55,1.74 2.11,2.16 3.56,2.68 0.64,0.23 1.03,-0.15 1.15,-0.77 0.18,-0.91 0.25,-1.84 0.5,-2.72 0.27,-0.92 0.7,-1.79 1.06,-2.67 -1.06,-0.99 -3.13,-1.15 -4.64,-0.4 -1.43,0.71 -1.9,1.72 -1.63,3.88 z m 19.53,-64.56 c 0.35,-0.56 0.8,-1.09 1.03,-1.69 0.24,-0.62 0.27,-1.33 0.42,-1.99 0.41,-1.89 0.12,-2.4 -1.77,-2.91 -0.51,-0.14 -1.05,-0.24 -1.57,-0.25 -1.07,-0.02 -1.53,0.31 -1.75,1.35 -0.17,0.8 -0.24,1.63 -0.26,2.45 -0.05,2.12 1.52,3.43 3.9,3.04 z m 17.23,-16.99 c -0.95,-0.63 -2,-0.72 -3.08,-0.56 -0.76,0.11 -1.4,0.46 -1.72,1.19 -0.59,1.34 -0.69,2.69 0.14,4.11 1.93,0 3.86,0 5.8,0 0.83,-2.09 0.6,-3.25 -1.14,-4.74 z m 17.6,7.12 c -0.08,-0.12 -0.14,-0.26 -0.24,-0.37 -0.81,-0.88 -1.42,-1.03 -2.47,-0.63 -1.18,0.45 -1.56,0.92 -1.5,2.17 0.05,0.96 0.15,1.95 0.43,2.87 0.65,2.1 1.79,2.56 3.82,1.7 0.65,-0.28 1.01,-0.7 0.98,-1.45 -0.05,-1.42 -0.26,-2.81 -1.02,-4.29 z m -68.65,47.49 c 0.09,0.12 0.18,0.24 0.27,0.36 1.53,-1.19 3.07,-2.36 4.58,-3.56 0.5,-0.4 0.51,-1.01 0.45,-1.61 -0.13,-1.16 -0.23,-2.32 -0.35,-3.48 -0.18,-1.73 -0.37,-3.45 -0.56,-5.24 -1.47,4.51 -2.9,8.93 -4.39,13.53 z m 16.23,30.43 c -0.91,-0.06 -1.27,0.53 -1.54,1.26 -0.72,2 -0.13,3.83 0.76,5.59 0.18,0.35 0.6,0.63 0.98,0.83 0.97,0.52 1.72,0.2 1.99,-0.88 0.34,-1.36 0.64,-2.74 0.91,-4.11 0.18,-0.91 -0.04,-1.34 -0.88,-1.78 -0.65,-0.32 -1.34,-0.56 -2.22,-0.91 z m 46.18,95.01 c -0.93,1.14 -0.84,2.32 -0.14,3.52 0.7,1.2 1.64,2.14 3,2.87 0.86,-2.02 1.64,-3.99 2.03,-6.09 0.22,-1.19 -0.16,-1.66 -1.37,-1.65 -1.23,0.03 -2.41,0.33 -3.52,1.35 z m -43.89,-46.43 c 0.14,-1.59 0.29,-3.18 0.45,-4.96 -0.42,-0.11 -0.92,-0.35 -1.41,-0.33 -1.1,0.04 -2.2,0.2 -3.4,0.32 1.08,2.93 2.15,5.84 3.24,8.8 0.78,-0.12 1.42,-0.21 2.04,-0.3 -0.33,-1.22 -0.61,-2.25 -0.92,-3.53 z m 47.4,-114.89 c 0.18,0.63 0.36,1.26 0.59,2.06 1.53,-1.43 3.27,-0.86 4.84,-0.98 0.25,-1.65 -0.12,-3.04 -0.65,-4.4 -0.23,-0.58 -0.59,-0.96 -1.27,-1.01 -2.15,-0.17 -3.53,1.06 -3.55,3.22 -0.01,0.28 0.01,0.57 0.04,1.11 z m -32.62,1.53 c -0.61,-1.53 -1.88,-2.22 -3.45,-1.96 -0.78,0.13 -1.29,0.5 -1.42,1.25 -0.16,0.95 -0.31,1.92 -0.31,2.88 0,1.25 0.53,1.73 1.77,1.86 2.17,0.22 3.64,-1.39 3.41,-4.03 z m 23.81,-21.15 c 1.23,0 2.46,0 3.73,0 -0.05,-0.27 -0.1,-0.56 -0.16,-0.84 -0.59,-2.68 -1.75,-3.65 -4.43,-3.73 -0.84,-0.02 -1.78,0.2 -1.95,0.98 -0.3,1.33 -0.43,2.76 0.4,4 0.82,-0.15 1.49,-0.27 2.41,-0.41 z m 0.15,5.48 c 1.39,0 2.78,0 4.16,0 -0.1,-0.82 -0.15,-1.54 -0.27,-2.25 -0.23,-1.45 -1.17,-2.22 -2.6,-2.14 -0.72,0.04 -1.45,0.11 -2.16,0.24 -1.33,0.26 -1.78,0.93 -1.6,2.28 0.17,1.28 0.95,1.94 2.47,1.87 z m -13.22,-1.57 c 0.41,-1.09 0.36,-2.19 0.06,-3.3 -0.17,-0.6 -0.51,-1.09 -1.17,-1.16 -1.31,-0.14 -2.76,-0.42 -3.75,0.62 -0.91,0.97 -0.55,2.29 -0.2,3.47 0.01,0.04 0.06,0.07 0.1,0.11 1.26,0.32 2.54,0.61 3.79,0.98 0.57,0.17 0.81,-0.11 1.17,-0.72 z m -0.89,186.98 c -0.59,0.34 -0.14,0.69 0.03,0.96 1.66,2.64 3.33,5.27 5.02,7.88 0.42,0.64 0.9,1.24 1.4,1.92 0.61,-0.8 1.14,-1.49 1.71,-2.24 -0.45,-0.3 -0.87,-0.54 -1.24,-0.83 -0.89,-0.69 -1.88,-1.36 -2.19,-2.48 -0.54,-1.93 -1.84,-3.3 -3.13,-4.69 -0.32,-0.33 -0.93,-0.39 -1.6,-0.52 z m 34.03,-151.9 c 0.56,0.38 1.11,0.76 1.88,0.63 0.5,-0.98 0.22,-2.02 0.27,-3.01 0.08,-1.64 -0.63,-3.01 -1.56,-4.29 -0.32,-0.44 -0.76,-0.94 -1.31,-0.61 -0.32,0.19 -0.54,0.78 -0.56,1.21 -0.06,1.01 0.08,2.04 0.02,3.05 -0.06,1.15 0.25,2.1 1.26,3.02 z m -33.19,-43.82 c -1.14,-0.76 -3.57,-0.6 -4.48,0.31 -0.13,0.13 -0.24,0.31 -0.31,0.49 -0.38,0.97 -0.75,1.95 -1.1,2.87 1.19,-0.24 2.25,-0.6 3.33,-0.64 1.07,-0.05 2.16,0.21 3.31,0.35 0.01,-1.09 -0.09,-2.18 -0.75,-3.38 z m 40.28,81.51 c 1.4,-0.09 2.15,-1.02 2.3,-2.23 0.13,-1.02 -0.11,-2.11 -0.33,-3.15 -0.15,-0.7 -0.71,-1.17 -1.49,-1.16 -0.62,0.01 -0.93,0.5 -1.13,1.48 -0.16,0.8 -0.27,1.63 -0.59,2.37 -0.69,1.61 -0.63,1.86 1.24,2.69 z m 2.42,7.63 c -0.17,-1.15 -0.31,-2.31 -0.54,-3.45 -0.14,-0.72 -0.2,-1.55 -1.21,-1.9 -0.18,0.37 -0.42,0.68 -0.5,1.03 -0.3,1.42 -0.58,2.85 -0.8,4.28 -0.07,0.46 0,0.97 0.11,1.43 0.24,0.95 1.44,1.69 2.38,1.43 0.25,-0.07 0.55,-0.43 0.58,-0.68 0.08,-0.61 0.02,-1.24 -0.02,-2.14 z m -67.82,-33.34 c -1.13,2.36 -0.4,4.55 1.83,5.52 0.58,-3.64 0.58,-3.64 1.93,-5.22 -0.37,-0.74 -0.51,-1.82 -1.49,-1.96 -0.99,-0.15 -1.64,0.67 -2.27,1.66 z m 31.02,-59.99 c -1.59,-1.37 -3.31,-0.8 -4.95,-0.21 -0.45,0.16 -0.83,0.95 -0.96,1.51 -0.23,1.01 0.25,1.78 1.1,2.1 0.95,-0.49 1.77,-1.1 2.68,-1.33 0.89,-0.22 1.87,-0.05 3.02,-0.05 -0.31,-0.78 -0.53,-1.32 -0.89,-2.02 z m -16.49,10.31 c -0.06,0.24 -0.17,0.47 -0.16,0.71 0.03,1.05 0.52,1.55 1.57,1.86 0.59,0.17 1.14,0.5 1.76,0.78 0.35,-0.22 0.75,-0.46 1.1,-0.68 -0.05,-1.03 -0.11,-1.94 -0.14,-2.86 -0.04,-1.21 -0.76,-1.86 -1.95,-1.76 -1.1,0.1 -1.73,0.77 -2.18,1.95 z m 46.79,139.94 c 0.29,-1.26 0.58,-2.51 0.93,-4 -0.91,0.05 -1.62,0.06 -2.32,0.13 -0.68,0.07 -1.05,0.5 -1.07,1.17 -0.03,1.4 -0.07,2.81 0,4.21 0.05,0.9 0.53,1.53 1.69,1.5 0.23,-0.92 0.46,-1.85 0.77,-3.01 z M 271.84,171.68 c 0.97,-0.26 1.93,-0.51 2.92,-0.77 0.09,-2.24 -0.86,-3.24 -3.26,-3.36 -2.15,-0.11 -2.42,0.23 -1.86,2.31 0.17,0.64 1.3,1.73 2.2,1.82 z m -18.73,11.02 c -0.86,-0.81 -2.29,-0.93 -3.29,-0.29 -0.67,0.43 -1,1.87 -0.67,2.95 0.34,1.13 1.37,1.59 3.32,1.44 0.59,-1.2 0.97,-2.48 0.64,-4.1 z m 27.35,-0.52 c 0.43,0.43 0.87,0.87 1.18,1.18 1.25,-0.4 2.29,-0.73 3.36,-1.07 0.23,-2.48 -0.24,-3.02 -2.7,-3.04 -0.19,0 -0.39,-0.01 -0.58,0 -1.39,0.03 -1.8,0.5 -1.62,1.89 0.03,0.29 0.16,0.56 0.36,1.04 z m -40.25,35.28 c -1.64,0 -2.68,0.76 -3.14,2.27 -0.5,1.64 -0.16,3 1.11,3.86 0.34,-0.41 0.78,-0.79 1.02,-1.27 0.48,-0.96 0.84,-1.97 1.27,-2.96 0.25,-0.6 0.42,-1.19 -0.26,-1.9 z m 58.65,23.74 c 0.02,0.36 0.04,0.72 0.06,1.09 1.39,-0.13 1.61,-0.26 1.85,-1.31 0.1,-0.47 0.18,-0.98 0.09,-1.44 -0.25,-1.28 -0.53,-2.57 -0.93,-3.81 -0.42,-1.31 -1.05,-1.51 -2.42,-0.97 0.88,1.96 1.55,3.97 1.35,6.44 z m 5.53,24.29 c -0.57,0.14 -0.78,0.43 -0.62,1.06 0.33,1.29 0.41,2.61 0.04,3.9 -0.2,0.71 -0.54,1.38 -0.83,2.11 2.06,-0.21 2.85,-0.97 2.85,-2.82 0,-1.02 -0.13,-2.04 -0.23,-3.05 -0.06,-0.61 -0.25,-1.16 -1.21,-1.2 z m -62.11,-65.8 c 0.09,0.82 0.14,1.65 0.3,2.45 0.05,0.24 0.42,0.57 0.66,0.58 0.23,0.01 0.51,-0.31 0.7,-0.54 0.11,-0.13 0.1,-0.37 0.13,-0.56 0.24,-1.73 0.49,-3.46 0.7,-5.19 0.03,-0.3 -0.15,-0.62 -0.22,-0.92 -0.91,0.06 -1.35,0.61 -1.57,1.25 -0.31,0.87 -0.47,1.78 -0.7,2.93 z m 39.63,-21.67 c 0.41,-0.03 0.83,-0.07 1.35,-0.11 -0.13,-0.6 -0.19,-1.07 -0.33,-1.52 -0.37,-1.26 -1.11,-1.85 -2.38,-1.96 -0.72,-0.06 -1.03,0.18 -0.94,0.9 0.11,0.9 0.34,1.78 0.52,2.68 0.57,0.01 1.05,0.01 1.78,0.01 z m -3.8,-5.37 c 0.25,0.28 0.5,0.57 0.77,0.88 0.44,-0.19 0.82,-0.36 1.18,-0.52 -0.29,-2.66 -1.6,-4.04 -3.8,-4 -0.15,1.51 0.37,2.69 1.85,3.64 z m 18.05,47.36 c 0.09,1.06 0.13,2.13 0.28,3.18 0.08,0.56 0.49,1.1 1.09,0.89 0.41,-0.14 0.87,-0.66 0.97,-1.09 0.16,-0.69 0.09,-1.45 0.03,-2.18 -0.07,-0.78 -0.56,-1.34 -1.22,-1.72 -0.63,-0.36 -0.78,-0.26 -1.15,0.92 z m -54.67,-14.35 c -1.12,2.37 -1.4,4.77 -0.37,7.32 0.98,-0.74 1.02,-0.75 0.79,-1.88 -0.48,-2.37 -0.1,-4.53 1.46,-6.43 0.08,-0.1 0.11,-0.25 0.21,-0.51 -1.04,-0.01 -1.54,0.61 -2.09,1.5 z m 5.77,137.84 c 0.83,1.7 1.67,3.39 2.51,5.09 0.03,0.06 0.17,0.08 0.31,0.13 0.06,-0.18 0.16,-0.35 0.16,-0.52 0.02,-1.36 0.05,-2.71 0,-4.07 -0.01,-0.24 -0.37,-0.62 -0.62,-0.67 -0.75,-0.12 -1.52,-0.12 -2.36,0.04 z m 6.41,-171.13 c -0.64,0.75 -1.11,1.58 -1.02,2.7 0.66,0 1.28,0 2.01,0 0.28,-1.2 1.29,-2.28 0.7,-3.97 -0.64,0.46 -1.09,0.79 -1.69,1.27 z m 44.98,59.92 c 0.17,0.18 0.34,0.35 0.6,0.63 0.64,-2.4 0.16,-4.62 0.04,-6.83 -0.01,-0.09 -0.03,-0.22 -0.09,-0.27 -0.2,-0.16 -0.47,-0.43 -0.64,-0.39 -0.21,0.05 -0.49,0.39 -0.48,0.59 0.05,0.62 0.19,1.25 0.36,1.85 0.39,1.4 0.5,2.78 0.21,4.42 z m 5.72,46.28 c 1.16,-1.58 0.53,-3.23 0.32,-5.01 -0.65,0.13 -1.16,0.23 -1.84,0.36 0.9,1.19 0.91,2.46 1.03,3.72 0.03,0.34 0.19,0.68 0.49,0.93 z m -12.6,-76.51 c 0.48,1.15 0.22,2.58 1.25,3.7 0.8,-2.75 0.18,-4.68 -1.56,-4.92 0.09,0.36 0.17,0.68 0.31,1.22 z m -34.11,-32.77 c -0.53,0.42 -0.93,0.87 -0.43,1.65 1.03,-0.25 2.04,-0.49 3.13,-0.75 -0.12,-0.59 -0.21,-1.04 -0.33,-1.69 -0.84,0.25 -1.52,0.46 -2.37,0.79 z m -11.6,22.06 c -1.03,1.32 -1.09,2.34 -0.24,3.39 0.35,0.43 0.68,0.49 0.99,0.16 -0.2,-1.22 -0.38,-2.36 -0.75,-3.55 z m 53.62,52.24 c 0.59,0.73 1.18,1.46 1.76,2.2 0.13,-0.96 -0.06,-1.79 -0.62,-2.59 -0.35,0.1 -0.67,0.19 -1.14,0.39 z m 7.2,28.81 c 0.03,-0.24 0.06,-0.47 0.1,-0.76 -1.67,0.99 -0.87,2.36 -0.59,3.64 0.15,-0.89 0.29,-1.79 0.49,-2.88 z m -11.24,52.21 c -0.19,1.26 -0.19,1.26 0.2,2.22 0.26,-1.26 0.5,-2.4 0.75,-3.65 -0.85,0.19 -0.71,0.79 -0.95,1.43 z"
   id="path1" />
		<path
   d="m 233.64,329.74 c -6.56,-17.59 -8.74,-23.97 -8.58,-25.22 0.62,0.1 0.67,0.64 0.82,1.06 1.03,2.89 2.07,5.78 3.05,8.69 3.44,10.16 7.51,20.08 11.37,30.08 0.74,1.91 1.39,3.85 2.07,5.78 0.06,0.16 0.05,0.35 0.1,0.77 -0.39,-0.23 -0.64,-0.32 -0.79,-0.49 -0.15,-0.17 -0.21,-0.43 -0.3,-0.66 -2.56,-6.64 -5.13,-13.27 -7.74,-20.01 z"
   id="path2" />
		<path
   d="m 313.56,242.38 c 0.39,-1.37 0.35,-2.76 1.13,-4.08 0.21,0.33 0.36,0.45 0.34,0.55 -4.04,23.7 -6.44,47.51 -5.27,71.59 0,0.04 -0.15,0.1 -0.41,0.25 -0.11,-0.38 -0.26,-0.7 -0.29,-1.04 -0.11,-1.36 -0.17,-2.72 -0.25,-4.09 -0.39,-6.68 -0.38,-13.37 0.06,-20.04 0.5,-7.49 1.13,-14.98 1.91,-22.44 0.65,-6.2 1.59,-12.38 2.42,-18.56 0.09,-0.67 0.22,-1.34 0.36,-2.14 z"
   id="path3" />
		<path
   d="m 298.51,333.07 c -2.07,7.13 -4.11,14.14 -6.16,21.15 -0.02,0.06 -0.16,0.09 -0.33,0.17 -0.45,-0.46 -0.19,-0.97 -0.06,-1.44 1.06,-3.9 2.07,-7.82 3.22,-11.7 2.38,-8.08 4.86,-16.14 7.25,-24.23 0.58,-1.96 0.95,-3.98 1.44,-5.96 0.08,-0.34 0.26,-0.66 0.48,-1.22 0.54,0.85 0.34,1.47 0.19,2.04 -0.94,3.63 -1.87,7.26 -2.9,10.87 -0.97,3.42 -2.06,6.81 -3.13,10.32 z"
   id="path4" />
		<path
   d="m 275.05,411.01 c -6.38,1.38 -15.22,1.32 -17.24,-0.11 0.22,-0.61 0.68,-0.37 1.09,-0.3 7.02,1.12 13.91,0.56 20.64,-1.75 0.78,-0.27 1.55,-0.58 2.34,-0.84 0.24,-0.08 0.52,-0.06 0.81,-0.08 0.06,0.83 -0.58,0.83 -0.98,0.96 -2.17,0.73 -4.36,1.4 -6.66,2.12 z"
   id="path5" />
		<path
   d="m 272.36,430.33 c 2.1,-0.41 4.06,-0.81 6.11,-1.23 -0.06,0.74 -0.63,0.87 -1.09,0.98 -1.8,0.41 -3.6,0.93 -5.42,1.09 -2.22,0.19 -4.47,0.07 -6.71,0.06 -0.45,0 -1,0.12 -1.24,-0.64 0.88,-0.44 1.8,-0.12 2.67,-0.16 0.92,-0.04 1.85,0.02 2.78,0 0.91,-0.01 1.84,-0.06 2.9,-0.1 z"
   id="path6" />
		<path
   d="m 258.19,414.8 c -0.6,-0.31 -1.44,-0.06 -1.58,-1.14 1.62,0.11 3.07,0.69 4.58,0.87 1.59,0.2 3.18,0.42 4.78,0.51 1.52,0.09 3.04,0.02 4.67,0.02 -0.27,0.79 -0.87,0.67 -1.34,0.69 -2.92,0.18 -5.83,0.08 -8.71,-0.47 -0.76,-0.14 -1.52,-0.3 -2.4,-0.48 z"
   id="path7" />
		<path
   d="m 258.82,419.16 c -0.23,-0.22 -0.35,-0.4 -0.62,-0.79 1.86,0.22 3.48,0.52 5.1,0.58 1.63,0.05 3.27,-0.14 4.94,-0.22 -0.05,0.75 -0.61,0.72 -1.06,0.8 -2.52,0.49 -5.03,0.31 -7.54,-0.17 -0.23,-0.06 -0.46,-0.11 -0.82,-0.2 z"
   id="path8" />
	</g>
</g>
</svg>
