<?xml version="1.0" encoding="UTF-8" standalone="no"?>
<!-- Generator: Adobe Adobe Illustrator 24.2.0, SVG Export Plug-In . SVG Version: 6.00 Build 0)  -->

<svg
   version="1.1"
   id="Layer_1"
   x="0px"
   y="0px"
   width="219.45195"
   height="158.02563"
   viewBox="0 0 219.45195 158.02563"
   xml:space="preserve"
   sodipodi:docname="coliflor.svg"
   inkscape:version="1.4 (e7c3feb1, 2024-10-09)"
   xmlns:inkscape="http://www.inkscape.org/namespaces/inkscape"
   xmlns:sodipodi="http://sodipodi.sourceforge.net/DTD/sodipodi-0.dtd"
   xmlns="http://www.w3.org/2000/svg"
   xmlns:svg="http://www.w3.org/2000/svg"><defs
   id="defs144" /><sodipodi:namedview
   id="namedview144"
   pagecolor="#ffffff"
   bordercolor="#000000"
   borderopacity="0.25"
   inkscape:showpageshadow="2"
   inkscape:pageopacity="0.0"
   inkscape:pagecheckerboard="0"
   inkscape:deskcolor="#d1d1d1"
   inkscape:zoom="1.6816667"
   inkscape:cx="125.47076"
   inkscape:cy="118.03766"
   inkscape:window-width="1200"
   inkscape:window-height="1186"
   inkscape:window-x="0"
   inkscape:window-y="0"
   inkscape:window-maximized="0"
   inkscape:current-layer="Layer_1" />
<g
   id="g144"
   transform="translate(-173.95455,-182.1951)">
	<g
   id="g143">
		<path
   d="m 226.29,314.55 c 3.03,0.84 5.95,1.6 8.86,2.44 4.05,1.17 7.96,2.65 11.34,5.42 0.1,-0.52 0.17,-0.89 0.28,-1.46 0.27,0.3 0.41,0.41 0.5,0.56 0.2,0.33 0.35,0.7 0.57,1.02 0.55,0.8 1.18,1.05 1.69,0.73 0.51,-0.33 0.55,-0.94 0.14,-1.84 -0.14,-0.32 -0.24,-0.65 -0.49,-1.31 0.67,0.34 0.98,0.54 1.32,0.66 0.82,0.28 1.33,-0.17 1.22,-1.05 -0.1,-0.78 -0.86,-1.5 -1.8,-1.7 -0.42,-0.08 -0.84,-0.12 -1.25,-0.17 0.18,-0.97 0.6,-1.88 0.44,-2.69 -0.15,-0.79 -0.88,-1.48 -1.37,-2.24 -0.57,0.27 -1.05,0.5 -1.52,0.72 -0.56,-0.3 -0.37,-0.74 -0.27,-1.16 0.19,-0.77 0.02,-1.46 -0.49,-2.05 -0.91,-1.06 -2.28,-0.8 -2.78,0.51 -0.24,0.64 -0.49,1.27 -0.85,2.18 -0.44,-0.69 -0.72,-1.17 -1.04,-1.62 -0.61,-0.85 -1.52,-1.15 -2.11,-0.56 -0.37,0.37 -0.54,0.99 -0.67,1.53 -0.07,0.29 0.14,0.64 0.22,0.96 -0.49,0.19 -0.92,0.37 -1.47,0.59 -0.31,-0.28 -0.68,-0.65 -1.1,-0.97 -0.53,-0.42 -1.13,-0.61 -1.75,-0.18 -0.64,0.44 -0.56,1.1 -0.39,1.72 0.13,0.49 0.38,0.94 0.66,1.6 -1.24,-0.25 -1.38,-1.1 -1.54,-1.84 -0.2,-0.87 0.02,-1.68 0.82,-2.19 1.48,-0.94 2.54,0.08 3.74,1.03 -0.04,-1.46 0.09,-2.7 1.48,-3.18 1.15,-0.4 2.11,0.04 2.8,1 0.6,-0.63 1.08,-1.46 1.79,-1.79 0.66,-0.3 1.57,-0.06 2.47,-0.06 -0.11,-0.32 -0.24,-0.71 -0.39,-1.09 -1.7,-4.21 -3.24,-8.46 -3.99,-12.98 -1.04,-6.33 -0.54,-12.54 1.03,-18.71 1.38,-5.43 3.32,-10.61 6.28,-15.39 0.1,-0.17 0.19,-0.34 0.3,-0.51 3.49,-5.55 5.91,-11.53 7.09,-18 0.77,-4.26 2.48,-8.11 5.33,-11.4 1.77,-2.04 3.82,-3.75 6.05,-5.28 2.25,-1.54 4.54,-3.07 6.62,-4.83 1.82,-1.53 3.43,-3.33 5.03,-5.09 1.37,-1.5 2.17,-3.35 2.72,-5.29 0.07,-0.23 0.06,-0.53 0.2,-0.69 0.24,-0.27 0.55,-0.57 0.87,-0.62 0.16,-0.03 0.47,0.41 0.61,0.69 0.24,0.48 0.42,0.99 0.59,1.49 0.89,2.6 2.73,4.35 5.1,5.59 4.2,2.19 8.48,4.22 12.97,5.74 10.8,3.66 19.02,10.55 25.23,19.98 2.89,4.38 5.05,9.13 6.58,14.15 1.79,5.89 3.23,11.85 4.2,17.94 0.73,4.63 0.63,9.24 0.07,13.86 -0.25,2.03 -0.48,4.08 -0.88,6.08 -1.46,7.32 -4.47,13.9 -9.47,19.52 -0.09,0.1 -0.15,0.24 -0.3,0.48 0.35,0.16 0.67,0.39 1.02,0.43 1.26,0.14 2.53,0.35 3.78,0.3 3.07,-0.12 5.43,-3.22 5.02,-6.46 0.33,-0.34 0.74,-0.39 0.9,0.09 0.38,1.1 1.25,1.33 2.21,1.29 1.08,-0.05 2.02,-0.55 2.47,-1.58 0.32,-0.74 0.44,-1.58 0.6,-2.39 0.09,-0.45 0.08,-0.92 0.12,-1.44 0.3,0.06 0.49,0.04 0.56,0.12 0.97,1.06 2.49,1.05 3.32,-0.1 0.34,-0.46 0.51,-1.04 0.75,-1.58 0.17,-0.38 0.32,-0.77 0.51,-1.2 0.94,0.43 0.15,1.12 0.46,1.62 0.1,-0.07 0.22,-0.12 0.29,-0.21 2.55,-3.15 5.04,-6.34 7.66,-9.43 3.68,-4.36 6.81,-9.05 8.71,-14.46 1.59,-4.51 2.23,-9.19 2.21,-13.96 -0.02,-3.76 -1.14,-7.21 -3.23,-10.33 -2.53,-3.79 -5.4,-7.29 -8.8,-10.35 -1.52,-1.37 -3.04,-2.75 -4.52,-4.17 -1.71,-1.64 -3.03,-3.55 -4.04,-5.7 -2,-4.24 -3.87,-8.53 -5.14,-13.06 -0.14,-0.49 -0.45,-0.93 -0.71,-1.45 0.27,-0.35 0.61,-0.71 0.85,-1.12 0.78,-1.31 0.2,-2.47 -1.31,-2.62 -0.37,-0.04 -0.75,-0.01 -1.26,-0.01 0.09,-0.27 0.12,-0.56 0.19,-0.57 0.56,-0.08 1.16,-0.26 1.68,-0.13 1.69,0.41 2.11,1.57 1.49,3.95 1.45,0.44 2.95,0.52 4.45,0.55 6.83,0.14 13.67,0.24 20.5,0.41 3.13,0.08 6.21,0.6 9.22,1.49 4.42,1.31 7.81,3.92 10.05,7.98 2.47,4.49 4.15,9.25 4.93,14.32 0.58,3.82 0.94,7.65 0.88,11.52 -0.14,9.77 -2.71,18.74 -8.33,26.84 -7.09,10.2 -15.73,18.75 -26.28,25.33 -8.56,5.34 -17.55,9.79 -27.2,12.82 -2.56,0.8 -5.16,1.48 -7.78,2.06 -10.51,2.31 -20.16,6.69 -29.36,12.13 -1.7,1 -3.17,2.43 -4.64,3.77 -0.52,0.48 -1.01,0.7 -1.66,0.71 -6.51,0.14 -12.71,-1.08 -18.49,-4.18 -1.33,-0.71 -2.71,-1.35 -4.04,-2.07 -6.11,-3.31 -12.7,-4.28 -19.54,-4.04 -2.2,0.08 -4.39,0.2 -6.59,0.22 -6.67,0.08 -13.21,-0.84 -19.73,-2.26 -7.03,-1.54 -13.86,-3.63 -20.48,-6.46 -5.48,-2.35 -9.91,-5.95 -13.6,-10.58 -5.2,-6.51 -8.53,-13.82 -9.9,-22.05 -0.8,-4.82 -1.54,-9.63 -1.79,-14.52 -0.14,-2.75 0.15,-5.46 0.6,-8.16 0.57,-3.46 0.79,-6.99 2.06,-10.31 0.44,-1.14 0.88,-2.29 1.47,-3.34 2.31,-4.1 5.86,-6.14 10.57,-6.12 2.23,0.01 3.9,1.12 5.17,2.86 0.9,1.22 0.89,2.59 0.21,3.88 -0.89,1.68 -1.84,3.33 -2.88,4.92 -1.18,1.8 -1.62,3.73 -1.43,5.85 0.14,1.62 0.72,3.07 1.9,4.17 0.95,0.9 1.98,1.76 3.11,2.41 2.32,1.34 4.73,2.53 7.09,3.8 0.73,0.39 1.48,0.76 2.15,1.24 0.89,0.64 0.91,1.29 -0.01,1.82 -1.39,0.78 -2.26,1.99 -3.03,3.3 -1.84,3.12 -3.49,6.33 -3.99,9.99 -0.31,2.29 -0.39,4.58 0.19,6.83 0.19,0.72 0.54,1.4 0.9,2.06 0.34,-2.31 0.82,-2.95 3.18,-2.81 0.31,-2.11 0.84,-2.55 3.05,-2.4 0.11,-1.06 -0.09,-2.35 1.1,-2.9 0.67,-0.31 1.52,-0.42 2.25,-0.32 1.13,0.16 2.07,0.84 2.79,1.74 0.13,0.16 0.05,0.48 0.09,1.06 -0.56,-0.47 -0.85,-0.78 -1.2,-0.99 -0.67,-0.38 -1.33,-0.88 -2.06,-1.02 -1.62,-0.31 -2.51,0.82 -1.99,2.39 0.17,0.52 0.46,1.01 0.79,1.73 -0.48,-0.11 -0.75,-0.14 -0.99,-0.24 -0.36,-0.15 -0.69,-0.37 -1.05,-0.51 -0.58,-0.24 -1.17,-0.29 -1.61,0.24 -0.45,0.53 -0.28,1.11 0.04,1.63 0.22,0.36 0.5,0.69 0.88,1.2 -0.4,0.04 -0.67,0.14 -0.87,0.06 -0.59,-0.22 -1.13,-0.59 -1.73,-0.77 -0.9,-0.28 -1.54,0.2 -1.63,1.12 -0.02,0.19 -0.04,0.42 0.04,0.58 0.67,1.32 0.96,2.93 2.45,3.68 2.13,1.07 4.3,2.09 6.44,3.15 2.88,1.42 5.8,2.78 8.62,4.32 3.06,1.64 6.16,3.16 9.63,4.14 z m 62.92,-55.65 c -1.11,0.58 -1.43,1.51 -1.54,2.74 -0.35,3.79 -0.82,7.56 -1.31,11.34 -0.67,5.18 -1.21,10.37 -0.96,15.61 0.21,4.44 0.35,8.87 0.57,13.31 0.15,3.07 0.35,6.14 0.56,9.2 0.03,0.49 -0.1,1.07 0.36,1.46 0.15,-0.04 0.25,-0.05 0.33,-0.09 0.22,-0.11 0.43,-0.23 0.63,-0.36 6.89,-4.57 12.49,-10.34 15.98,-17.9 2.69,-5.84 5.06,-11.83 7.6,-17.75 1.29,-3 2.63,-5.98 3.96,-8.96 0.15,-0.33 0.22,-0.8 0.85,-0.63 0.37,0.61 -0.15,1.08 -0.36,1.57 -1.13,2.59 -2.32,5.16 -3.42,7.76 -2.46,5.79 -4.84,11.61 -7.34,17.38 -2.36,5.46 -5.9,10.09 -10.24,14.12 -2.44,2.26 -5.08,4.25 -8.06,5.95 0.92,6.86 2.84,13.4 5.66,19.85 0.45,-0.39 0.8,-0.65 1.1,-0.94 2.35,-2.27 5.1,-3.85 8.08,-5.18 5.7,-2.54 11.37,-5.16 16.96,-7.93 6.54,-3.24 11.11,-8.39 14.23,-14.99 3.25,-6.87 4.16,-14.19 4.55,-21.62 0.25,-4.76 -0.64,-9.43 -1.68,-14.05 -1.5,-6.67 -3.1,-13.3 -6.16,-19.48 -5.8,-11.72 -14.43,-20.34 -26.85,-24.97 -4.11,-1.53 -8.08,-3.41 -12.11,-5.16 -2.35,-1.02 -4.47,-2.39 -6.15,-4.38 -0.03,-0.04 -0.15,0 -0.19,0 1.18,7.22 2.74,14.37 3.49,21.64 0.76,7.33 0.56,14.67 0.26,22.2 0.35,-0.21 0.57,-0.3 0.74,-0.44 2.78,-2.14 5.61,-4.23 8.33,-6.45 3.6,-2.94 6.5,-6.48 8.31,-10.81 1.01,-2.43 1.86,-4.92 2.77,-7.39 0.13,-0.35 0.09,-0.81 0.74,-0.73 0.05,0.16 0.15,0.33 0.15,0.5 0,0.24 -0.06,0.48 -0.13,0.71 -1.92,6.5 -4.62,12.59 -9.9,17.11 -3.09,2.7 -6.41,5.11 -9.81,7.76 z m -13.28,3.79 c -0.63,-0.81 -1.35,-1.56 -1.87,-2.44 -1.71,-2.9 -3.43,-5.79 -4.99,-8.77 -1.93,-3.69 -4.21,-7.03 -7.79,-9.32 -0.88,-0.56 -1.75,-1.15 -2.8,-1.84 0.38,-0.13 0.61,-0.3 0.77,-0.25 0.5,0.18 1,0.4 1.45,0.67 4.07,2.49 7.04,5.97 9.1,10.26 0.8,1.67 1.65,3.32 2.56,4.94 2.11,3.78 4.63,7.24 8.06,9.94 0.67,0.53 1.42,0.95 2.17,1.45 2.2,-6.22 1.49,-46.98 -0.9,-53 -0.11,0.17 -0.19,0.29 -0.26,0.41 -1.55,2.52 -3.48,4.74 -5.77,6.58 -2.54,2.05 -5.2,3.96 -7.89,5.82 -5.32,3.68 -8.93,8.49 -10.29,14.91 -0.57,2.72 -1.25,5.42 -2.05,8.08 -1.19,3.95 -3.22,7.53 -5.36,11.03 -3.04,4.96 -5.12,10.29 -6.49,15.92 -1.33,5.45 -1.87,10.94 -1.09,16.54 0.64,4.64 2.14,9 3.84,13.32 2.3,5.84 5.98,10.72 10.41,15.06 1.04,1.02 2.23,1.9 3.45,2.7 2.9,1.9 5.94,3.55 9.14,4.92 5.96,2.56 11.87,5.23 17.8,7.86 0.24,0.11 0.5,0.16 0.92,0.29 -0.13,-0.37 -0.17,-0.55 -0.26,-0.71 -2.45,-4.48 -4.15,-9.26 -5.4,-14.19 -1.33,-5.22 -1.62,-10.6 -2.1,-15.94 -0.05,-0.57 -0.12,-1.13 -0.18,-1.74 -1.01,-0.14 -1.88,-0.2 -2.73,-0.4 -4.86,-1.14 -9.12,-3.36 -12.65,-6.95 -2.18,-2.21 -3.86,-4.77 -5.53,-7.36 -2.29,-3.53 -5.59,-5.47 -9.75,-6 -0.22,-0.03 -0.41,-0.24 -0.62,-0.37 0.03,-0.11 0.06,-0.22 0.09,-0.32 0.8,0.05 1.65,-0.04 2.4,0.18 3.58,1.01 6.63,2.83 8.65,6.08 0.52,0.83 1.04,1.65 1.58,2.47 3.51,5.39 8.24,9.19 14.45,11.05 1.3,0.39 2.61,0.63 4.06,0.59 -0.11,-12.04 1.33,-23.9 2.61,-35.81 -2.63,-1.35 -4.74,-3.28 -6.74,-5.66 z m -89.84,46.48 c 3.95,5.36 8.99,9.32 15.25,11.66 2.06,0.77 4.09,1.59 6.15,2.34 5.66,2.06 11.57,3.15 17.43,4.42 3.15,0.68 6.35,0.84 9.56,1.01 -0.41,-0.26 -0.85,-0.43 -1.29,-0.59 -3.95,-1.42 -7.91,-2.79 -11.83,-4.27 -5.05,-1.91 -9.68,-4.63 -14.05,-7.78 -4.89,-3.53 -8.28,-8.15 -10.3,-13.87 -2.42,-6.86 -1.98,-13.4 1.51,-19.77 1.19,-2.16 2.3,-4.37 4.43,-6.06 -0.82,-0.43 -1.46,-0.77 -2.1,-1.1 -2.24,-1.19 -4.51,-2.33 -6.7,-3.59 -1.09,-0.63 -2.11,-1.42 -3.04,-2.26 -1.84,-1.66 -2.66,-3.8 -2.69,-6.27 -0.02,-2.06 0.54,-3.93 1.66,-5.67 1,-1.56 1.91,-3.17 2.82,-4.79 0.52,-0.92 0.52,-1.88 -0.15,-2.75 -1,-1.29 -2.28,-2.15 -3.95,-2.22 -1.42,-0.06 -2.8,0.18 -4.15,0.71 -3.35,1.32 -5.24,3.91 -6.48,7.14 -1.1,2.85 -1.53,5.84 -1.96,8.84 -0.49,3.38 -1.22,6.76 -0.87,10.18 0.45,4.46 1.02,8.92 1.67,13.35 1.12,7.82 4.07,14.91 9.08,21.34 z M 366.54,255.6 c 1.98,3.19 2.96,6.68 2.91,10.43 -0.02,1.8 -0.12,3.61 -0.31,5.4 -0.52,4.95 -1.85,9.67 -4.25,14.06 -2.12,3.87 -4.65,7.44 -7.62,10.72 -3.06,3.37 -5.86,6.93 -8.25,10.81 -1.85,2.99 -3.74,5.96 -6.32,8.4 -0.06,0.06 -0.07,0.16 -0.16,0.39 0.44,-0.17 0.8,-0.28 1.13,-0.44 1.2,-0.55 2.39,-1.1 3.57,-1.69 7.91,-3.9 15.37,-8.5 22.01,-14.36 4.4,-3.89 8.41,-8.15 11.97,-12.83 0.41,-0.55 0.83,-1.05 0.7,-1.84 -0.88,-5.29 -3.1,-9.62 -8.32,-11.87 -0.38,-0.16 -0.86,-0.25 -0.86,-0.85 0.08,-0.06 0.14,-0.16 0.22,-0.18 0.14,-0.02 0.29,-0.03 0.42,0.02 2.11,0.73 3.99,1.79 5.38,3.62 1.97,2.59 3.55,5.35 3.91,8.74 0.96,-0.58 1.2,-1.36 1.11,-2.29 -0.3,-3.11 -0.52,-6.22 -0.93,-9.31 -0.69,-5.19 -1.84,-10.27 -3.82,-15.14 -2.33,-5.73 -5.49,-11.01 -8.96,-16.08 -3.78,-5.52 -8.61,-9.97 -14.53,-13.13 -3.4,-1.81 -6.92,-3.39 -10.39,-5.07 -0.29,-0.14 -0.61,-0.19 -1.09,-0.34 0.12,0.52 0.17,0.9 0.3,1.25 0.8,2.15 1.64,4.28 2.44,6.43 1.87,4.99 4.68,9.31 8.94,12.61 0.35,0.27 0.66,0.58 0.99,0.87 3.79,3.35 6.98,7.22 9.81,11.67 z m 9.2,-29.72 c 0.98,1.46 1.98,2.9 2.93,4.38 1.1,1.69 1.83,3.54 2.25,5.53 0.6,2.88 0.33,5.52 -1.9,7.66 0.02,0.04 11.03,26.64 11.09,26.77 0.17,-0.56 0.33,-1.01 0.45,-1.48 1.04,-4.09 1.49,-8.25 1.53,-12.47 0.05,-5.69 -0.47,-11.32 -2.16,-16.77 -1.15,-3.69 -2.57,-7.27 -4.94,-10.39 -2.76,-3.62 -6.67,-5.04 -11.28,-5.96 0.76,1.03 1.33,1.8 2.03,2.73 z m -89.52,8.37 c -0.45,-3.1 -0.81,-6.22 -1.69,-9.25 -0.01,1.42 0.13,2.82 0.2,4.22 0.17,3.46 0.27,6.92 0.46,10.38 0.47,8.7 0.06,17.37 -0.85,26.02 -0.53,5 -1.13,9.99 -1.63,14.99 -0.41,4.08 -0.78,8.16 -1.03,12.25 -0.21,3.36 -0.35,6.73 -0.27,10.09 0.08,3.31 0.5,6.61 0.73,9.92 0.57,7.84 2.74,15.24 6.03,22.34 0.28,0.6 0.65,1.16 1.04,1.84 0.86,-0.91 1.59,-1.68 2.32,-2.45 -0.43,-0.99 -0.83,-1.88 -1.19,-2.77 -3.51,-8.59 -5.23,-17.54 -5.54,-26.8 -0.17,-5.22 -0.43,-10.43 -0.65,-15.65 -0.18,-4.4 -0.05,-8.78 0.5,-13.15 0.94,-7.4 2.06,-14.79 2.25,-22.27 0.17,-6.5 0.18,-12.99 -0.68,-19.71 z m 97.82,36.97 c 0.38,3.07 0.76,6.13 1.13,9.2 2,-3.09 4.35,-6.02 3.39,-10.04 -0.07,-0.28 -0.05,-0.58 -0.07,-0.87 -0.5,-7.59 -3.08,-14.44 -7.34,-20.7 -3.58,-5.27 -7.83,-9.96 -12.21,-14.56 -4.73,-4.98 -10.45,-8.25 -17.08,-9.97 -0.27,-0.07 -0.56,-0.07 -1.03,-0.12 0.26,0.21 0.32,0.28 0.41,0.32 0.35,0.17 0.7,0.33 1.06,0.5 6.97,3.17 12.92,7.68 17.55,13.78 3.81,5.02 6.94,10.48 9.59,16.22 2.35,5.09 3.61,10.49 4.6,16.24 z m -18.89,-42.09 c 1.23,1.04 2.56,1.98 3.66,3.14 3.02,3.18 5.95,6.45 8.91,9.69 0.22,0.24 0.32,0.6 0.47,0.9 1.02,-0.55 1.31,-1.16 1.59,-1.79 0.72,-1.63 0.71,-3.32 0.35,-5.02 -0.45,-2.12 -1.28,-4.09 -2.52,-5.87 -1.48,-2.12 -3.02,-4.19 -4.48,-6.32 -0.52,-0.77 -1.2,-1.08 -2.07,-1.13 -1.61,-0.09 -3.21,-0.25 -4.82,-0.28 -5.22,-0.11 -10.43,-0.18 -15.65,-0.26 -0.1,0 -0.2,0.07 -0.3,0.11 5.31,1.42 10.29,3.41 14.86,6.83 z m -52.51,94.75 c -0.32,0.18 -0.64,0.36 -0.96,0.53 1.32,-0.12 2.54,-0.45 3.78,-0.68 2.34,-0.45 4.71,-0.78 7.04,-1.29 2.62,-0.58 5.2,-1.3 7.8,-1.98 5.17,-1.35 9.73,-3.7 13.25,-7.85 1.64,-1.93 2.91,-4.09 4.34,-6.24 -1.21,0.18 -2.25,0.33 -3.4,0.5 -0.26,1.29 -0.53,2.69 -1.77,3.61 -1.3,0.96 -2.72,0.83 -4.18,0.41 -0.14,0.39 -0.25,0.71 -0.38,1.02 -1.25,3.12 -3.99,4.78 -7.3,4.38 -1.34,-0.16 -2.67,-0.43 -4.01,-0.65 -0.02,-0.14 -0.08,-0.14 -0.12,-0.11 -0.62,0.48 -1.23,0.95 -1.84,1.44 -3.65,2.9 -7.84,4.87 -12.25,6.91 z m -58.02,-2.08 c -0.61,-0.66 -1.22,-1.31 -1.89,-2.04 -0.48,1.51 -0.48,1.51 -1.55,2 -0.51,1.03 -0.93,1.85 -1.35,2.69 1.85,1.28 11.24,4.09 14.24,4.14 -3.46,-1.99 -6.71,-3.87 -9.45,-6.79 z m -21.31,-2.53 c -1.41,1.94 -2.95,3.8 -4.26,5.93 0.49,0.19 0.79,0.34 1.1,0.43 0.31,0.09 0.64,0.13 0.99,0.19 1.81,-2.33 3.59,-4.61 5.47,-7.02 -0.94,-0.28 -1.66,-0.49 -2.39,-0.71 -0.31,0.41 -0.54,0.71 -0.91,1.18 z m 1.87,7.42 c 1.44,-2.23 2.87,-4.46 4.38,-6.8 -0.64,-0.24 -1.12,-0.43 -1.65,-0.63 -1.87,2.34 -3.7,4.63 -5.55,6.95 1.68,0.84 1.76,0.86 2.82,0.48 z m -6.84,-10.21 c -0.3,0.19 -0.68,0.31 -0.88,0.57 -0.9,1.2 -1.76,2.44 -2.62,3.67 -0.52,0.74 -1.02,1.49 -1.6,2.34 0.67,0.25 1.19,0.45 1.76,0.66 1.63,-2.27 3.19,-4.46 4.84,-6.76 -0.57,-0.19 -0.93,-0.3 -1.5,-0.48 z m 1.92,2.09 c -1.34,1.84 -2.68,3.67 -4.09,5.61 0.66,0.25 1.14,0.43 1.62,0.61 1.69,-2.37 3.31,-4.65 5.04,-7.07 -0.67,-0.19 -1.16,-0.34 -1.66,-0.48 -0.3,0.43 -0.54,0.79 -0.91,1.33 z m -4.76,-0.93 c 0.33,-0.51 0.66,-1.02 1.05,-1.62 -0.64,-0.19 -1.1,-0.33 -1.63,-0.49 -1.47,2.13 -2.91,4.22 -4.44,6.44 0.64,0.26 1.1,0.45 1.58,0.64 1.16,-1.69 2.24,-3.25 3.44,-4.97 z m -12.52,-5.21 c 0.42,-0.58 0.84,-1.15 1.33,-1.83 -0.49,-0.26 -0.85,-0.45 -1.15,-0.61 -1.65,1.72 -3.21,3.36 -4.86,5.08 0.52,0.35 0.97,0.65 1.49,1.01 1.08,-1.24 2.07,-2.36 3.19,-3.65 z m 5.57,5.59 c 0.93,-1.22 1.9,-2.42 2.8,-3.78 -0.61,-0.25 -1,-0.41 -1.48,-0.6 -1.42,1.97 -2.81,3.9 -4.28,5.94 0.47,0.25 0.83,0.44 1.23,0.65 0.58,-0.75 1.09,-1.4 1.73,-2.21 z m 22.46,4.29 c 0.23,-0.42 0.47,-0.84 0.74,-1.33 -0.32,-0.18 -0.59,-0.34 -0.98,-0.56 -1.58,2.4 -3.1,4.71 -4.65,7.06 1.21,0.46 1.26,0.49 1.72,-0.21 1.04,-1.58 2.04,-3.19 3.17,-4.96 z m -26.12,-7.96 c 0.55,-0.79 1.1,-1.59 1.73,-2.49 -0.47,-0.23 -0.83,-0.4 -1.11,-0.54 -1.59,1.88 -3.08,3.64 -4.64,5.48 0.51,0.3 0.91,0.54 1.39,0.83 0.86,-1.08 1.68,-2.1 2.63,-3.28 z m -5.53,-5.84 c 0.06,-0.91 -0.77,-0.62 -1.2,-0.99 -1.37,1.3 -2.69,2.56 -4.11,3.9 0.5,0.44 0.87,0.78 1.26,1.13 1.37,-1.36 2.64,-2.62 4.05,-4.04 z m 12.25,9.63 c 0.64,-0.97 1.28,-1.94 1.92,-2.9 -0.47,-0.47 -0.85,-0.6 -1.26,-0.05 -0.61,0.82 -1.23,1.63 -1.86,2.44 -0.79,1.02 -1.6,2.04 -2.5,3.19 0.58,0.24 0.99,0.42 1.45,0.6 0.76,-1.1 1.45,-2.1 2.25,-3.28 z m -5.62,-1.23 c 0.89,-1.26 1.78,-2.52 2.72,-3.85 -0.38,-0.21 -0.65,-0.37 -0.92,-0.52 -1.51,1.95 -2.95,3.81 -4.46,5.76 0.46,0.24 0.83,0.43 1.24,0.65 0.48,-0.68 0.89,-1.27 1.42,-2.04 z m -8.05,-5.12 c -0.53,0.5 -1.05,1 -1.69,1.6 0.4,0.3 0.71,0.54 1.06,0.8 1.7,-1.56 3.27,-3.06 4.61,-4.9 -0.44,-0.21 -0.74,-0.35 -0.81,-0.39 -1.08,0.98 -2.05,1.86 -3.17,2.89 z m 35.92,12.51 c -0.93,1.41 -1.87,2.81 -2.9,4.36 0.85,0.03 1.52,0.36 1.94,-0.36 0.93,-1.59 1.83,-3.19 2.77,-4.85 -0.29,-0.2 -0.51,-0.35 -0.81,-0.55 -0.32,0.46 -0.6,0.85 -1,1.4 z m -4.25,4.12 c 1.39,-2.08 2.78,-4.17 4.2,-6.3 -0.36,-0.22 -0.56,-0.34 -0.84,-0.51 -1.43,2.23 -2.84,4.41 -4.32,6.72 0.35,0.08 0.57,0.13 0.96,0.09 z m 5.99,-2.39 c -0.42,0.83 -1.13,1.54 -1.24,2.56 0.6,0 1.12,0 1.71,0 0.48,-1.04 0.95,-2.04 1.41,-3.05 0.35,-0.77 -0.08,-1.03 -0.79,-1.18 -0.34,0.52 -0.65,1.01 -1.09,1.67 z m -40.52,-19.12 c -0.69,0.75 -1.39,1.5 -2.08,2.26 -0.53,0.58 -0.24,0.91 0.32,1.17 1.1,-1.18 2.15,-2.3 3.23,-3.44 -0.38,-0.15 -0.76,-0.69 -1.47,0.01 z m -3.57,1.3 c 0.2,0.05 0.5,0.2 0.57,0.12 0.73,-0.75 1.43,-1.53 2.12,-2.3 -0.33,-0.47 -0.66,-0.64 -1,-0.24 -0.62,0.73 -1.18,1.5 -1.69,2.42 z m 49.69,20.22 c 0.29,-0.41 0.58,-0.82 0.95,-1.32 -0.58,-0.22 -0.97,-0.36 -1.46,-0.55 -0.32,0.66 -0.6,1.23 -0.97,2 0.58,0 0.94,0 1.48,-0.13 z m -2.61,-0.34 c 0.26,-0.56 0.53,-1.12 0.79,-1.69 0.24,-0.54 -0.06,-0.68 -0.61,-0.69 -0.41,0.87 -0.83,1.76 -1.27,2.7 0.27,0.08 0.42,0.18 0.53,0.15 0.17,-0.05 0.31,-0.19 0.56,-0.47 z M 200.8,305.31 c -0.25,0.42 -0.71,0.81 -0.07,1.45 0.54,-0.64 1.03,-1.21 1.5,-1.77 -0.67,-0.8 -0.97,-0.26 -1.43,0.32 z m -1.71,-2.51 c -0.09,0.06 -0.27,0.16 -0.26,0.19 0.2,0.57 0.42,1.13 0.73,1.92 0.35,-0.51 0.57,-0.82 0.82,-1.17 -0.45,-0.34 -0.79,-0.59 -1.29,-0.94 z m 54.12,25.08 c -0.17,0.25 -0.33,0.51 -0.51,0.78 0.79,0.4 1.28,0.27 1.62,-0.59 -0.34,-0.11 -0.63,-0.2 -1.11,-0.19 z m -3.32,-10.82 c 0.2,0 0.4,0.01 0.59,0.01 -0.1,-0.16 -0.2,-0.31 -0.29,-0.47 -0.11,0.1 -0.23,0.19 -0.3,0.46 z m 6.2,12.19 c 0.11,-0.04 0.21,-0.08 0.32,-0.13 -0.27,-0.14 -0.54,-0.27 -1.1,-0.56 0.25,0.42 0.28,0.51 0.35,0.56 0.06,0.06 0.16,0.08 0.43,0.13 z"
   id="path1" />
		<path
   d="m 229.9,202.41 c -0.02,0.19 -0.02,0.39 -0.07,0.57 -0.02,0.07 -0.14,0.12 -0.35,0.28 -0.35,-0.33 -0.72,-0.69 -1.09,-1.04 -0.62,-0.59 -1.33,-0.98 -2.22,-0.97 -1.42,0.01 -2.14,1.07 -1.57,2.38 0.19,0.43 0.52,0.82 0.84,1.18 0.32,0.36 0.71,0.66 1.14,1.05 -0.3,0.35 -0.56,0.67 -0.83,0.99 -0.69,-0.27 -1.3,-0.59 -1.95,-0.74 -0.84,-0.19 -1.7,-0.1 -2.27,0.64 -0.58,0.76 -0.37,1.64 0.09,2.34 0.5,0.75 1.2,1.36 1.92,2.15 -0.32,0.06 -0.63,0.22 -0.79,0.13 -0.96,-0.61 -1.76,-1.39 -2.14,-2.51 -0.68,-2.04 0.28,-3.5 2.44,-3.65 0.47,-0.03 0.95,0.04 1.45,0.07 -0.29,-0.62 -0.62,-1.16 -0.8,-1.75 -0.48,-1.61 0.48,-2.94 2.15,-3.09 1.38,-0.13 2.45,0.5 3.55,1.48 0.27,0.21 0.38,0.35 0.5,0.49 z"
   id="path2" />
		<path
   d="m 278.84,189.5 c -0.07,-1.31 -0.43,-2.31 -1.71,-2.72 -1.48,-0.47 -2.63,0.24 -2.84,1.79 -0.03,0.23 0,0.47 0,0.84 -0.54,-0.14 -0.97,-0.26 -1.18,-0.31 -0.49,-1.03 -0.78,-1.97 -1.35,-2.7 -0.29,-0.37 -1.06,-0.48 -1.61,-0.49 -0.71,-0.02 -1.57,0 -1.94,0.75 -0.31,0.62 -0.37,1.35 -0.55,2.07 -1.04,-1.18 -0.48,-2.91 1.06,-3.44 2.14,-0.74 3.84,0.05 4.83,2.31 0.17,-0.22 0.3,-0.42 0.45,-0.6 1,-1.21 2.33,-1.5 3.8,-0.86 1.28,0.57 2.11,2.11 1.83,3.5 -0.03,0.17 -0.3,0.28 -0.46,0.42 -0.12,-0.15 -0.22,-0.3 -0.33,-0.56 z"
   id="path3" />
		<path
   d="m 248.47,194.52 c 0.7,-1.39 1.69,-1.93 2.95,-1.71 1.13,0.2 2.08,1.08 2.27,2.35 -0.48,-0.34 -0.79,-0.58 -1.12,-0.78 -0.45,-0.27 -0.9,-0.63 -1.4,-0.72 -1.36,-0.25 -2.18,0.71 -1.78,2.02 0.15,0.5 0.41,0.97 0.65,1.51 -0.39,0.3 -0.75,0.58 -1.23,0.95 -0.31,-0.57 -0.57,-1.07 -0.86,-1.56 -0.51,-0.85 -1.2,-1.42 -2.26,-1.32 -1.03,0.09 -1.56,0.66 -1.65,1.69 -0.03,0.28 -0.04,0.56 -0.3,0.95 -0.17,-0.22 -0.44,-0.42 -0.48,-0.66 -0.16,-0.88 0.12,-1.66 0.85,-2.2 0.94,-0.69 2,-0.74 3.06,-0.33 0.4,0.16 0.73,0.46 1.21,0.77 0.01,-0.35 0.04,-0.6 0.09,-0.96 z"
   id="path4" />
		<path
   d="m 351.07,298.79 c -0.45,2.59 -1.7,3.34 -4.28,2.64 -0.55,1.07 -1,2.36 -2.6,2.21 -1.04,-0.1 -2.33,-1.27 -2.68,-2.48 0.32,0.13 0.58,0.19 0.77,0.33 0.39,0.29 0.72,0.66 1.12,0.93 1.18,0.81 2.17,0.33 2.35,-1.11 0.06,-0.49 0.13,-0.99 0.22,-1.7 0.47,0.38 0.72,0.59 0.98,0.79 1.36,1.03 2.83,0.53 3.21,-1.15 0.11,-0.5 0.01,-1.05 0.04,-1.58 0.01,-0.25 0.09,-0.5 0.18,-0.9 0.84,0.56 0.66,1.27 0.69,2.02 z"
   id="path5" />
		<path
   d="m 245.19,206.75 c 0.53,0.8 1.01,1.5 1.54,2.26 -1.35,-0.07 -2.64,-1.85 -2.68,-3.51 -0.04,-1.49 1.11,-2.82 2.62,-3.02 1.65,-0.22 3.29,0.71 3.67,2.21 -0.31,-0.1 -0.58,-0.13 -0.79,-0.25 -0.25,-0.15 -0.43,-0.39 -0.67,-0.56 -1.07,-0.74 -2.26,-0.78 -3.14,-0.13 -0.89,0.67 -1.03,1.36 -0.55,3 z"
   id="path6" />
		<path
   d="m 230,202.41 c -0.22,-0.14 -0.33,-0.28 -0.5,-0.47 -0.25,-1.04 -0.65,-2.03 -0.62,-3.02 0.06,-2.26 2.22,-3.33 4.05,-2 0.79,0.57 1.31,1.52 1.93,2.32 0.08,0.1 -0.02,0.34 -0.04,0.5 -0.69,0.18 -0.76,-0.38 -1.03,-0.68 -0.45,-0.51 -0.84,-1.11 -1.38,-1.48 -1.27,-0.86 -2.57,-0.19 -2.74,1.33 -0.14,1.22 0.25,2.28 1.24,3.28 -0.39,0.11 -0.6,0.16 -0.91,0.22 z"
   id="path7" />
		<path
   d="m 255.58,189.56 c -1.27,1.23 -1.4,1.87 -0.72,3.27 0.21,0.42 0.42,0.84 0.72,1.42 -0.39,0 -0.65,0.07 -0.72,-0.01 -0.7,-0.83 -1.22,-1.75 -1.2,-2.88 0.04,-1.82 1.63,-3.13 3.59,-2.96 1.07,0.09 1.94,0.6 2.63,1.4 0.14,0.16 0.1,0.47 0.2,1.03 -1.51,-1 -2.7,-2.2 -4.5,-1.27 z"
   id="path8" />
		<path
   d="m 251.87,203.06 c -0.3,0.08 -0.69,0.17 -0.88,0.02 -1.4,-1.15 -1.5,-3.38 -0.23,-4.69 0.74,-0.76 1.62,-1.03 2.66,-0.7 1.11,0.35 1.91,1.03 2.42,2.34 -0.43,-0.1 -0.71,-0.09 -0.9,-0.22 -0.24,-0.15 -0.39,-0.43 -0.61,-0.62 -1.01,-0.93 -2.04,-1.05 -2.86,-0.33 -0.82,0.72 -1.02,2.08 -0.4,3.06 0.22,0.37 0.53,0.69 0.8,1.14 z"
   id="path9" />
		<path
   d="m 331.75,195.44 c 0.32,1.31 0.36,2.47 -0.43,3.78 -0.19,-0.38 -0.39,-0.59 -0.38,-0.8 0.01,-0.48 0.18,-0.96 0.16,-1.44 -0.02,-0.52 -0.08,-1.09 -0.3,-1.54 -0.71,-1.42 -2.2,-1.54 -3.16,-0.28 -0.34,0.44 -0.61,0.93 -1.19,1.32 0,-0.29 -0.09,-0.62 0.02,-0.87 0.5,-1.11 1.2,-2.08 2.53,-2.12 1.28,-0.05 2.19,0.66 2.75,1.95 z"
   id="path10" />
		<path
   d="m 315.67,189.61 c -2.15,-0.85 -3.03,-0.31 -3.86,2.24 -0.72,-0.75 -0.57,-1.78 0.38,-2.65 1.27,-1.16 3.21,-1.13 4.35,0.06 1.14,1.18 1.28,2.88 0.09,3.99 0,-0.77 0.11,-1.38 -0.03,-1.93 -0.15,-0.57 -0.54,-1.09 -0.93,-1.71 z"
   id="path11" />
		<path
   d="m 314.53,211.23 c 2.21,1.43 2.75,3.62 1.37,5.6 -0.13,-0.3 -0.3,-0.52 -0.3,-0.75 -0.01,-0.28 0.14,-0.56 0.18,-0.85 0.35,-2.4 -1.47,-3.99 -3.78,-3.29 -0.63,0.19 -1.22,0.51 -1.87,0.79 0.16,-1.43 2.12,-2.08 4.4,-1.5 z"
   id="path12" />
		<path
   d="m 337.83,203.79 c 0.25,-0.94 0.43,-1.88 0.93,-2.6 0.73,-1.08 2.23,-1.45 3.39,-1.01 1.22,0.47 1.81,1.42 1.86,2.7 0.02,0.65 -0.03,1.31 -0.05,1.97 -0.12,0.03 -0.25,0.06 -0.37,0.1 -0.14,-0.23 -0.37,-0.44 -0.4,-0.68 -0.06,-0.47 0.05,-0.97 -0.02,-1.44 -0.18,-1.18 -0.69,-1.77 -1.66,-1.94 -1.02,-0.18 -1.81,0.26 -2.36,1.09 -0.29,0.44 -0.41,0.98 -0.67,1.44 -0.11,0.19 -0.38,0.31 -0.65,0.37 z"
   id="path13" />
		<path
   d="m 295.12,194.37 c 0.1,-0.82 0.12,-1.57 0.39,-2.22 0.63,-1.52 2.25,-2.22 3.72,-1.71 1.55,0.54 2.46,2.14 2.09,4.02 -0.26,-0.38 -0.45,-0.6 -0.58,-0.85 -0.28,-0.55 -0.42,-1.22 -0.81,-1.67 -1.13,-1.33 -2.96,-1.08 -3.68,0.52 -0.31,0.69 -0.36,1.48 -0.55,2.32 -0.17,-0.09 -0.35,-0.2 -0.58,-0.41 z"
   id="path14" />
		<path
   d="m 239.74,195.23 c 0.96,0.69 1.8,1.35 1.6,2.81 -0.32,-0.25 -0.55,-0.38 -0.71,-0.57 -0.15,-0.18 -0.22,-0.43 -0.36,-0.63 -0.71,-1.02 -1.92,-1.43 -2.94,-1.01 -0.92,0.38 -1.51,1.54 -1.35,2.68 0.05,0.36 0.11,0.72 0.18,1.18 -1.06,-0.6 -1.26,-1.72 -0.69,-3.04 0.73,-1.63 2.14,-2.13 4.27,-1.42 z"
   id="path15" />
		<path
   d="m 304.44,209.1 c -0.66,0.69 -1.22,1.32 -1.78,1.95 -0.37,-0.77 -0.14,-1.45 0.76,-2.24 1.05,-0.91 2.54,-1.04 3.66,-0.31 1.18,0.77 1.64,2.34 1.05,3.98 -0.2,-0.27 -0.39,-0.45 -0.47,-0.67 -0.08,-0.22 -0.03,-0.48 -0.07,-0.72 -0.24,-1.83 -1.14,-2.43 -3.15,-1.99 z"
   id="path16" />
		<path
   d="m 352.04,206.32 c 1.91,-0.67 2.98,-0.44 3.71,0.74 0.79,1.28 0.57,3.39 -0.49,4.46 -0.05,0.05 -0.18,0.03 -0.4,0.05 0,-0.26 -0.05,-0.53 0.01,-0.77 0.12,-0.47 0.36,-0.91 0.46,-1.38 0.22,-1.05 -0.13,-2.12 -0.83,-2.47 -0.93,-0.46 -1.8,-0.2 -2.58,0.4 -0.29,0.22 -0.56,0.46 -0.95,0.78 -0.32,-1.09 0.47,-1.33 1.07,-1.81 z"
   id="path17" />
		<path
   d="m 261.66,188.16 c -0.16,0.6 -0.29,1.08 -0.42,1.57 -0.1,-0.01 -0.21,-0.01 -0.31,-0.02 -0.08,-0.24 -0.23,-0.49 -0.21,-0.72 0.11,-1.24 0.51,-2.38 1.45,-3.26 0.84,-0.78 1.73,-0.81 2.64,-0.13 1.19,0.89 1.72,2.29 1.29,3.63 -0.2,-0.29 -0.36,-0.49 -0.47,-0.71 -0.25,-0.52 -0.39,-1.11 -0.71,-1.58 -0.9,-1.32 -1.88,-1.28 -2.72,0.04 -0.23,0.34 -0.35,0.72 -0.54,1.18 z"
   id="path18" />
		<path
   d="m 308.66,191.47 c -0.18,-1.01 -0.41,-1.85 -1.53,-1.96 -1.39,-0.15 -2.45,0.69 -3.31,2.61 -0.6,-0.64 -0.56,-1.19 0.13,-2.02 1.1,-1.33 3.12,-1.84 4.31,-1.1 1.16,0.71 1.54,2.49 0.82,4.03 -0.58,-0.39 -0.3,-0.97 -0.42,-1.56 z"
   id="path19" />
		<path
   d="m 236.7,213.09 c -0.03,-0.41 -0.07,-0.7 -0.06,-0.99 0.09,-1.48 0.99,-2.64 2.22,-2.91 1.43,-0.31 3.12,0.38 3.77,1.61 0.13,0.24 0.09,0.57 0.13,0.87 -0.1,0.05 -0.19,0.09 -0.29,0.14 -0.24,-0.26 -0.48,-0.51 -0.7,-0.78 -0.82,-0.95 -2.2,-1.34 -3.14,-0.88 -0.92,0.44 -1.35,1.54 -1.14,2.89 0.03,0.19 0.03,0.38 0.03,0.56 0,0.03 -0.07,0.07 -0.23,0.22 -0.18,-0.2 -0.37,-0.41 -0.59,-0.73 z"
   id="path20" />
		<path
   d="m 278.12,208.28 c -0.51,-0.61 0.11,-1 0.19,-1.49 0.14,-0.88 0.07,-1.66 -0.68,-2.25 -0.73,-0.58 -1.55,-0.63 -2.34,-0.24 -0.45,0.22 -0.77,0.69 -1.31,1.2 -0.05,-0.39 -0.18,-0.66 -0.1,-0.84 0.52,-1.1 1.56,-1.56 2.95,-1.36 1.15,0.17 2.23,1.15 2.34,2.3 0.11,1.02 0.11,2.07 -1.05,2.68 z"
   id="path21" />
		<path
   d="m 207.63,264.1 c 1.87,-0.85 3.26,-0.37 4.04,1.35 0.46,1.01 0.65,2.07 0.18,3.18 -0.8,-0.31 -0.48,-0.89 -0.6,-1.31 -0.22,-0.73 -0.34,-1.55 -0.76,-2.15 -0.8,-1.14 -2.12,-1.01 -2.87,0.17 -0.25,0.39 -0.46,0.8 -0.75,1.3 -0.42,-1.11 -0.4,-1.18 0.76,-2.54 z"
   id="path22" />
		<path
   d="m 201.51,241.17 c 0.15,1.75 1.28,3.02 2.83,3.05 0.6,0.01 1.2,-0.43 1.9,-0.7 0.02,0.21 0.14,0.46 0.06,0.61 -0.33,0.68 -0.97,0.95 -1.67,0.98 -2.3,0.09 -4.29,-2.18 -3.89,-4.42 0.08,-0.46 0.14,-0.96 0.94,-1.08 -0.07,0.55 -0.11,1 -0.17,1.56 z"
   id="path23" />
		<path
   d="m 282.89,190.09 c -0.22,0.48 -0.38,0.87 -0.55,1.3 -0.69,-0.83 -0.4,-1.79 0.69,-2.62 1.25,-0.95 2.67,-0.84 3.49,0.28 0.79,1.09 0.59,2.68 -0.63,3.55 0.05,-0.5 0.05,-0.85 0.12,-1.18 0.25,-1.2 0.06,-1.97 -0.67,-2.31 -0.91,-0.42 -1.58,0.07 -2.2,0.67 -0.07,0.06 -0.12,0.14 -0.25,0.31 z"
   id="path24" />
		<path
   d="m 344.7,205.32 c -0.22,-0.07 -0.4,-0.16 -0.46,-0.3 -0.05,-0.1 0.01,-0.3 0.08,-0.41 0.69,-0.97 1.45,-1.85 2.79,-1.85 1.01,0 1.64,0.59 1.98,1.45 0.49,1.24 0.4,2.42 -0.47,3.48 -0.74,-0.32 -0.37,-0.79 -0.26,-1.15 0.19,-0.67 0.28,-1.32 -0.02,-1.99 -0.46,-1.02 -1.33,-1.32 -2.24,-0.66 -0.5,0.39 -0.87,0.93 -1.4,1.43 z"
   id="path25" />
		<path
   d="m 234.35,228.13 c 2.19,-0.83 4.05,0 3.97,1.91 -1.13,-0.94 -2.16,-2.23 -3.68,-1.09 -1.14,0.86 -1.04,2.09 -0.6,3.34 -0.09,0.05 -0.17,0.1 -0.26,0.15 -0.21,-0.16 -0.51,-0.28 -0.6,-0.49 -0.61,-1.28 -0.24,-2.47 1.17,-3.82 z"
   id="path26" />
		<path
   d="m 292.01,185.55 c -0.28,-0.05 -0.57,-0.14 -0.69,-0.34 -0.18,-0.28 -0.18,-0.66 -0.34,-0.95 -0.47,-0.82 -1.19,-1.24 -2.16,-1.22 -0.9,0.02 -1.41,0.57 -1.77,1.3 -0.16,0.34 -0.25,0.71 -0.38,1.08 -0.69,-0.01 -0.7,-0.38 -0.56,-0.88 0.34,-1.26 1.35,-2.21 2.51,-2.33 1.33,-0.13 2.66,0.6 3.18,1.83 0.19,0.44 0.19,0.95 0.21,1.51 z"
   id="path27" />
		<path
   d="m 322.58,192.49 c -1.31,-0.4 -1.59,-0.32 -2.22,0.53 -0.21,0.29 -0.42,0.58 -0.7,0.96 -0.45,-1.45 0.95,-2.85 2.36,-2.61 1.06,0.18 1.89,0.95 1.99,2.03 0.07,0.76 -0.01,1.55 -0.1,2.32 -0.02,0.21 -0.31,0.38 -0.77,0.49 0.02,-0.5 0.04,-1 0.07,-1.5 0.07,-0.78 0.14,-1.56 -0.63,-2.22 z"
   id="path28" />
		<path
   d="m 349.21,244.6 c -0.7,0.19 -1.28,0.38 -2.11,0.65 0.18,-0.41 0.22,-0.75 0.41,-0.91 1.44,-1.21 3.97,-0.4 4.53,1.43 0.37,1.22 0.01,2.46 -0.98,3.23 -0.44,-0.49 -0.02,-0.89 0.1,-1.31 0.51,-1.71 -0.06,-2.65 -1.95,-3.09 z"
   id="path29" />
		<path
   d="m 206.2,286.53 c 0.71,0.44 1.58,0.52 1.88,1.58 -0.4,-0.05 -0.67,-0.04 -0.9,-0.13 -0.72,-0.3 -1.39,-0.74 -2.13,-0.95 -0.46,-0.13 -1.12,-0.14 -1.5,0.11 -0.57,0.36 -0.31,1.05 -0.16,1.61 0.09,0.35 0.22,0.68 0.38,1.14 -1.08,-0.45 -1.55,-1.44 -1.33,-2.5 0.18,-0.9 0.95,-1.47 1.96,-1.35 0.58,0.05 1.14,0.29 1.8,0.49 z"
   id="path30" />
		<path
   d="m 256.82,203.45 c -1.24,-0.35 -1.75,-0.17 -2.15,0.86 -0.26,0.65 -0.34,1.37 -0.5,2.09 -0.73,-0.66 -0.73,-1.69 -0.05,-2.81 0.63,-1.04 1.56,-1.44 2.59,-1.12 1.19,0.37 2.17,1.89 1.97,3.41 -0.68,-0.91 -1.23,-1.64 -1.86,-2.43 z"
   id="path31" />
		<path
   d="m 217.3,268.69 c -0.01,-0.4 0.03,-0.72 0.11,-1.04 0.25,-0.98 0.06,-1.86 -0.71,-2.52 -0.79,-0.68 -1.72,-0.55 -2.61,-0.18 -0.3,0.12 -0.56,0.34 -0.99,0.61 0,-0.39 -0.1,-0.7 0.02,-0.85 0.83,-1.02 3.09,-1.11 4.14,-0.21 1.21,1.03 1.46,3.1 0.51,4.2 -0.07,0.08 -0.26,0.05 -0.47,-0.01 z"
   id="path32" />
		<path
   d="m 219.25,279.62 c -1.47,1.19 -0.52,2.39 -0.02,3.86 -0.5,-0.24 -0.85,-0.29 -0.99,-0.49 -0.61,-0.88 -0.78,-1.88 -0.45,-2.91 0.3,-0.95 1.2,-1.53 2.14,-1.36 1,0.19 1.93,0.57 2.6,1.37 -0.19,0.66 -0.54,0.49 -0.9,0.27 -0.7,-0.44 -1.37,-0.93 -2.38,-0.74 z"
   id="path33" />
		<path
   d="m 285.18,185.67 c -0.24,0.42 -0.51,0.46 -0.69,0.11 -0.17,-0.34 -0.22,-0.74 -0.36,-1.11 -0.52,-1.34 -1.86,-1.58 -2.7,-0.42 -0.38,0.53 -0.51,1.23 -0.74,1.86 -0.06,0.17 -0.11,0.34 -0.23,0.74 -0.25,-0.36 -0.52,-0.57 -0.49,-0.74 0.07,-0.57 0.17,-1.16 0.4,-1.68 0.53,-1.22 1.47,-1.79 2.61,-1.69 1.1,0.1 1.7,0.69 2.09,2.1 0.06,0.24 0.09,0.49 0.11,0.83 z"
   id="path34" />
		<path
   d="m 339.99,208.6 c -0.67,-0.93 -1.64,-0.81 -2.72,-0.83 0.96,-0.86 1.77,-0.9 2.65,-0.35 1.04,0.65 1.41,1.96 0.97,3.39 -0.38,1.23 -1.43,2.05 -2.86,2.02 0.69,-0.67 1.32,-1.15 1.79,-1.75 0.55,-0.7 0.44,-1.56 0.17,-2.48 z"
   id="path35" />
		<path
   d="m 246.73,232.28 c -0.41,-0.34 -0.75,-0.6 -1.12,-0.9 -0.49,0.29 -0.91,0.54 -1.39,0.81 -0.02,-1.09 0.65,-1.7 1.55,-1.52 2.03,0.42 3.71,3.9 2.78,5.78 -0.05,0.1 -0.22,0.14 -0.54,0.33 -0.02,-0.91 0.1,-1.72 -0.1,-2.43 -0.2,-0.7 -0.72,-1.33 -1.18,-2.07 z"
   id="path36" />
		<path
   d="m 202.54,272.89 c 0.2,0.33 0.33,0.57 0.53,0.93 -0.32,0.02 -0.59,0.11 -0.65,0.03 -0.45,-0.62 -0.97,-1.23 -1.25,-1.93 -0.47,-1.17 0.04,-2.6 1,-3.25 0.96,-0.65 2.11,-0.53 3.39,0.48 -0.46,0.06 -0.77,0.2 -1,0.12 -0.85,-0.26 -1.65,-0.36 -2.27,0.42 -0.65,0.82 -0.61,1.71 -0.12,2.61 0.1,0.17 0.21,0.33 0.37,0.59 z"
   id="path37" />
		<path
   d="m 202.45,290.9 c -0.53,-0.35 -0.96,-0.67 -1.43,-0.92 -0.62,-0.34 -1.26,-0.29 -1.76,0.18 -0.54,0.5 -0.69,1.16 -0.43,1.87 0.13,0.35 0.29,0.68 0.56,1.28 -0.48,-0.18 -0.78,-0.2 -0.92,-0.36 -0.64,-0.72 -0.67,-2.18 -0.12,-3.01 0.57,-0.85 1.65,-1.2 2.71,-0.84 0.93,0.32 1.73,0.82 2.29,1.62 -0.19,0.58 -0.5,0.43 -0.9,0.18 z"
   id="path38" />
		<path
   d="m 258.74,211.1 c -0.82,-1.17 -0.82,-2 -0.11,-2.97 0.68,-0.92 1.84,-1.4 2.81,-1.14 1.03,0.27 1.77,1.11 1.93,2.22 -0.51,0.28 -0.67,-0.18 -0.92,-0.44 -0.99,-1.08 -1.59,-1.26 -2.5,-0.75 -0.91,0.51 -1.14,1.2 -0.8,2.48 0.09,0.34 0.08,0.57 -0.41,0.6 z"
   id="path39" />
		<path
   d="m 298.38,187.3 c -0.04,-0.33 -0.07,-0.59 0.01,-0.81 0.27,-0.75 0.26,-1.46 -0.4,-2 -0.7,-0.57 -1.52,-0.65 -2.33,-0.28 -0.43,0.19 -0.81,0.49 -1.38,0.86 0,-0.38 -0.1,-0.69 0.02,-0.85 0.76,-1.07 2.78,-1.33 3.98,-0.56 1.17,0.75 1.47,2.33 0.67,3.61 -0.07,0.12 -0.34,0.09 -0.57,0.03 z"
   id="path40" />
		<path
   d="m 229.87,211.57 c 1.54,-0.28 2.49,0.4 3.35,1.74 -0.45,-0.02 -0.72,0.04 -0.92,-0.06 -0.25,-0.12 -0.44,-0.37 -0.68,-0.54 -0.7,-0.49 -1.5,-0.5 -2.01,-0.05 -0.53,0.47 -0.68,1.28 -0.32,2.01 0.16,0.34 0.41,0.64 0.63,0.99 -0.36,0.44 -0.67,0.31 -0.96,-0.01 -1.16,-1.27 -0.83,-2.99 0.91,-4.08 z"
   id="path41" />
		<path
   d="m 359.02,215.69 c -0.11,-0.23 -0.18,-0.46 -0.12,-0.65 0.05,-0.17 0.23,-0.3 0.37,-0.44 0.64,-0.66 1.18,-1.35 0.65,-2.31 -0.41,-0.74 -1.24,-0.94 -2.47,-0.66 -0.13,0.03 -0.27,0.06 -0.69,0.16 0.19,-0.42 0.23,-0.77 0.41,-0.88 0.92,-0.55 2.44,-0.23 3.21,0.61 0.76,0.84 0.84,1.92 0.09,2.93 -0.37,0.48 -0.9,0.84 -1.45,1.24 z"
   id="path42" />
		<path
   d="m 223.63,301.39 c -1.29,-0.88 -1.85,-1.98 -1.59,-3.44 0.1,-0.55 0.2,-1.15 1.11,-1.38 -0.08,0.43 -0.11,0.73 -0.19,1.01 -0.42,1.39 -0.08,2.35 1.13,3.12 0.86,0.55 0.98,0.53 1.84,-0.25 0.09,-0.09 0.25,-0.11 0.37,-0.16 0.3,1 -0.33,1.78 -1.36,1.64 -0.42,-0.07 -0.81,-0.32 -1.31,-0.54 z"
   id="path43" />
		<path
   d="m 357.81,291.71 c -1.92,0.15 -3.29,-0.79 -3.27,-2.33 0.41,0.34 0.73,0.59 1.03,0.86 0.55,0.51 1.14,0.97 1.94,0.67 0.85,-0.32 0.82,-1.1 0.82,-1.84 0,-0.42 0,-0.83 0,-1.34 1.36,0.76 1.06,2.8 -0.52,3.98 z"
   id="path44" />
		<path
   d="m 330.39,218.11 c 0.93,2.12 0.79,3.51 -0.53,4.3 0.08,-1.32 0.64,-2.56 -0.07,-3.76 -0.72,-1.2 -2.03,-1.13 -3.19,-1.52 0.98,-0.92 2.29,-0.57 3.79,0.98 z"
   id="path45" />
		<path
   d="m 274.66,212.22 c 0.92,-0.62 1.79,-0.77 2.71,-0.31 1.4,0.7 1.71,2.51 0.42,3.77 0,-0.58 -0.02,-0.97 0,-1.37 0.04,-0.74 -0.14,-1.35 -0.87,-1.7 -0.66,-0.32 -1.35,-0.19 -2,0.43 -0.36,0.35 -0.67,0.75 -1.11,1.25 -0.36,-1.07 0.26,-1.51 0.85,-2.07 z"
   id="path46" />
		<path
   d="m 269.41,215.18 c -0.24,-0.43 -0.4,-0.8 -0.64,-1.09 -0.37,-0.46 -0.8,-0.91 -1.47,-0.78 -0.69,0.13 -1.09,0.58 -1.23,1.28 -0.04,0.21 -0.15,0.4 -0.29,0.77 -0.61,-0.71 -0.49,-1.29 -0.13,-1.83 0.49,-0.74 1.2,-1.16 2.11,-1.04 1.35,0.17 2.8,2.24 2.57,3.62 -0.02,0.11 -0.19,0.19 -0.46,0.44 -0.17,-0.51 -0.29,-0.89 -0.46,-1.37 z"
   id="path47" />
		<path
   d="m 307.14,221.78 c -1.97,-0.58 -2.49,-3.21 -1.32,-4.65 0.39,-0.48 0.82,-0.89 1.72,-0.67 -0.76,0.98 -1.85,1.63 -1.51,3.01 0.34,1.4 1.47,1.57 2.71,1.65 -0.42,0.88 -0.98,0.7 -1.6,0.66 z"
   id="path48" />
		<path
   d="m 295.47,205.48 c 0.37,0.69 0.79,1.27 0.93,1.91 0.37,1.79 -1.25,3.08 -3.28,2.42 0.41,-0.2 0.66,-0.37 0.93,-0.45 0.79,-0.22 1.49,-0.51 1.57,-1.47 0.07,-0.89 -0.59,-1.96 -1.46,-2.32 -0.3,-0.12 -0.62,-0.21 -0.97,-0.32 0.77,-0.73 0.9,-0.72 2.28,0.23 z"
   id="path49" />
		<path
   d="m 320.08,209.8 c -1.06,0.1 -1.99,0.23 -2.93,0.35 0.17,-0.75 0.35,-0.91 1.45,-1.14 1.1,-0.23 2.2,-0.19 2.91,0.82 0.67,0.95 0.72,2.03 0.25,3.14 -0.73,-0.18 -0.55,-0.67 -0.56,-1.07 -0.01,-0.85 -0.05,-1.68 -1.12,-2.1 z"
   id="path50" />
		<path
   d="m 340.84,244.55 c 0.9,-1.33 1.61,-1.59 2.86,-1.12 1.26,0.47 1.81,1.5 1.59,3.02 -0.66,0.07 -0.62,-0.49 -0.73,-0.87 -0.18,-0.65 -0.51,-1.15 -1.16,-1.4 -0.97,-0.37 -1.59,-0.08 -1.89,0.93 -0.11,0.36 -0.17,0.73 -0.28,1.22 -0.8,-0.49 -0.5,-1.11 -0.39,-1.78 z"
   id="path51" />
		<path
   d="m 325.38,225.74 c 0.69,-1.67 0.03,-2.81 -1.34,-3.84 0.34,-0.13 0.57,-0.32 0.71,-0.26 1.37,0.56 2.07,2.35 1.58,3.99 -0.37,1.24 -1.66,1.97 -3.15,1.75 -0.11,-0.02 -0.21,-0.15 -0.41,-0.3 0.9,-0.45 1.73,-0.85 2.61,-1.34 z"
   id="path52" />
		<path
   d="m 320.49,215.53 c 1.51,0.23 2.23,1.17 2.58,2.42 0.36,1.28 -0.47,2.59 -1.77,2.92 -0.13,0.03 -0.29,-0.01 -0.42,-0.06 -0.07,-0.03 -0.11,-0.15 -0.22,-0.32 0.2,-0.16 0.38,-0.36 0.61,-0.48 0.63,-0.36 1.13,-0.8 1.03,-1.6 -0.1,-0.88 -0.52,-1.57 -1.36,-1.94 -0.39,-0.17 -0.81,-0.24 -1.59,-0.46 0.54,-0.26 0.78,-0.38 1.14,-0.48 z"
   id="path53" />
		<path
   d="m 215.94,293.65 c -0.43,0.74 -0.16,1.32 0.21,1.85 0.6,0.84 1.25,0.93 2.1,0.32 0.19,-0.13 0.36,-0.28 0.85,-0.66 -0.09,0.61 -0.04,0.95 -0.18,1.13 -0.47,0.63 -1.14,0.93 -1.93,0.75 -0.99,-0.23 -1.6,-0.91 -1.92,-1.83 -0.38,-1.09 0,-2.13 0.92,-2.66 0.11,-0.07 0.28,-0.07 0.41,-0.06 0.07,0.01 0.14,0.12 0.3,0.27 -0.23,0.26 -0.46,0.53 -0.76,0.89 z"
   id="path54" />
		<path
   d="m 229.38,237.16 c 0.17,0.65 0.32,1.18 0.54,1.98 -0.45,-0.22 -0.72,-0.26 -0.81,-0.41 -0.62,-1.06 -0.78,-2.2 -0.45,-3.38 0.23,-0.83 0.86,-1.3 1.69,-1.42 0.78,-0.11 1.51,0.02 2.12,0.93 -0.44,0.03 -0.71,0.11 -0.95,0.06 -1.65,-0.35 -2.13,0.01 -2.18,1.69 -0.01,0.14 0.01,0.28 0.04,0.55 z"
   id="path55" />
		<path
   d="m 230.53,274.35 c -0.91,0.13 -1.14,0.78 -1.37,1.43 -0.13,0.37 -0.26,0.75 -0.45,1.3 -0.57,-1.04 -0.22,-2.44 0.59,-3.11 0.61,-0.51 1.55,-0.55 2.16,-0.09 0.84,0.63 1.19,2.01 0.71,2.96 -0.82,-0.66 -0.42,-2.06 -1.64,-2.49 z"
   id="path56" />
		<path
   d="m 293.46,202.59 c 0.21,-0.45 0.42,-0.79 0.53,-1.16 0.43,-1.38 -0.4,-2.31 -1.85,-2.06 -0.42,0.07 -0.83,0.23 -1.44,0.4 0.11,-0.36 0.1,-0.68 0.25,-0.79 0.8,-0.59 2.41,-0.55 3.18,0.02 0.79,0.59 1.04,1.6 0.61,2.77 -0.21,0.57 -0.55,1.08 -1.13,1.58 -0.07,-0.22 -0.13,-0.44 -0.15,-0.76 z"
   id="path57" />
		<path
   d="m 212.44,247.88 c -1.64,-0.57 -2.27,-1.3 -2.2,-2.71 0.46,0.5 0.78,0.87 1.13,1.23 1,1.03 1.9,0.84 2.4,-0.5 0.12,-0.32 0.13,-0.66 0.23,-0.99 0.08,-0.26 0.21,-0.51 0.34,-0.81 1.01,1.4 0.05,3.33 -1.9,3.78 z"
   id="path58" />
		<path
   d="m 215.16,279.59 c 0.5,0.25 1.13,0.21 1.06,1.11 -0.43,-0.1 -0.81,-0.2 -1.21,-0.28 -0.67,-0.14 -1.37,-0.29 -1.88,0.35 -0.5,0.62 -0.55,1.33 -0.3,2.06 0.13,0.39 0.32,0.75 0.51,1.19 -1.06,-0.14 -1.6,-1.12 -1.44,-2.36 0.21,-1.64 1.19,-2.3 3.26,-2.07 z"
   id="path59" />
		<path
   d="m 336.95,246.26 c 1.04,0.14 2,0.25 2.33,1.64 -0.43,-0.14 -0.69,-0.21 -0.92,-0.31 -0.35,-0.15 -0.68,-0.4 -1.05,-0.48 -1.16,-0.26 -1.92,0.57 -1.57,1.71 0.12,0.41 0.35,0.79 0.61,1.36 -0.38,-0.06 -0.71,-0.01 -0.83,-0.15 -1.32,-1.51 -0.72,-3.8 1.43,-3.77 z"
   id="path60" />
		<path
   d="m 195.4,244.34 c -1.39,-2.08 -1.14,-3.88 0.63,-5 0.2,-0.13 0.49,-0.1 0.91,-0.17 -0.38,1.17 -1.69,1.55 -1.64,2.8 0.05,1.2 0.65,1.96 1.72,2.52 -0.66,0.74 -1.09,0.19 -1.62,-0.15 z"
   id="path61" />
		<path
   d="m 307.36,184.85 c 0.21,0.67 0.72,1.18 0.31,2 -0.25,-0.22 -0.49,-0.36 -0.61,-0.56 -0.19,-0.33 -0.27,-0.73 -0.45,-1.07 -0.47,-0.88 -1.02,-1.12 -1.92,-0.69 -0.68,0.32 -1.28,0.8 -2.02,1.28 -0.05,-0.26 -0.16,-0.51 -0.09,-0.57 0.52,-0.49 1.01,-1.06 1.63,-1.38 1.32,-0.69 2.11,-0.41 3.15,0.99 z"
   id="path62" />
		<path
   d="m 342.84,295.55 c 0.48,0.39 0.85,0.84 1.27,1.22 1.17,1.06 2.31,0.69 2.66,-0.83 0.08,-0.33 0.17,-0.65 0.42,-0.95 0.54,0.83 0.45,1.64 -0.1,2.35 -0.53,0.7 -1.3,1.04 -2.19,0.79 -1.14,-0.32 -1.91,-1.09 -2.33,-2.19 -0.03,-0.09 0.11,-0.24 0.27,-0.39 z"
   id="path63" />
		<path
   d="m 216.19,290.09 c -0.21,0.14 -0.49,0.27 -0.63,0.18 -1.09,-0.69 -1.37,-2.53 -0.58,-3.66 0.71,-1.01 2.27,-1.11 3.36,-0.21 0.05,0.05 0.04,0.18 0.09,0.45 -0.33,-0.02 -0.64,0.03 -0.89,-0.06 -0.69,-0.25 -1.33,-0.35 -1.86,0.28 -0.44,0.52 -0.44,1.48 0,2.2 0.13,0.26 0.33,0.48 0.51,0.82 z"
   id="path64" />
		<path
   d="m 225.12,236.14 c 0.65,0.04 1.29,-0.21 1.67,0.65 -0.39,0.07 -0.69,0.15 -0.99,0.17 -1.35,0.08 -1.91,0.7 -1.75,2.06 0.05,0.48 0.26,0.93 0.35,1.4 0.03,0.17 -0.04,0.36 -0.08,0.66 -1.1,-0.71 -1.14,-1.72 -1.09,-2.72 0.05,-1.11 0.65,-1.89 1.89,-2.22 z"
   id="path65" />
		<path
   d="m 363.33,215.48 c 0.97,0.94 1.15,1.7 0.69,2.63 -0.52,1.04 -1.44,1.6 -2.61,1.45 0.23,-0.25 0.38,-0.46 0.58,-0.63 0.14,-0.13 0.34,-0.19 0.49,-0.31 0.82,-0.62 1.21,-1.42 0.9,-1.95 -0.44,-0.76 -1.15,-0.77 -1.91,-0.6 -0.12,0.03 -0.26,-0.03 -0.58,-0.08 0.2,-0.28 0.32,-0.63 0.47,-0.64 0.61,-0.03 1.23,0.04 1.97,0.13 z"
   id="path66" />
		<path
   d="m 340.83,262.61 c 0.08,-0.24 0.13,-0.38 0.19,-0.51 0.61,-1.15 1.44,-1.74 2.36,-1.59 1.2,0.2 1.77,1.09 2.2,2.12 0.03,0.08 -0.13,0.23 -0.31,0.54 -0.32,-0.37 -0.59,-0.66 -0.84,-0.98 -0.98,-1.23 -1.98,-1.15 -2.69,0.23 -0.17,0.33 -0.31,0.67 -0.59,1.27 -0.18,-0.51 -0.27,-0.75 -0.32,-1.08 z"
   id="path67" />
		<path
   d="m 353.95,254.58 c 0.63,-1.02 0.56,-1.92 0.02,-2.84 -0.2,-0.33 -0.29,-0.73 -0.53,-1.34 1.58,0.9 2.1,2.55 1.52,4.03 -0.54,1.37 -1.55,2.2 -2.6,2 0.54,-0.62 1.04,-1.19 1.59,-1.85 z"
   id="path68" />
		<path
   d="m 236.63,251.21 c 0.67,1.8 1.74,2.04 2.91,0.77 0.27,-0.29 0.56,-0.56 1.04,-1.04 0.12,1.39 -0.61,1.92 -1.3,2.36 -0.81,0.52 -1.7,0.37 -2.47,-0.19 -0.82,-0.59 -1.13,-1.4 -0.82,-2.62 0.29,0.27 0.45,0.44 0.64,0.72 z"
   id="path69" />
		<path
   d="m 359.24,274.49 c 0.38,-0.97 0.19,-1.71 -0.46,-2.36 -0.29,-0.29 -0.73,-0.56 -0.37,-1.09 1.51,0.68 2.14,1.89 1.74,3.33 -0.36,1.29 -1.36,1.96 -2.87,1.76 0.71,-0.57 1.31,-1.05 1.96,-1.64 z"
   id="path70" />
		<path
   d="m 270.74,207.54 c -0.21,-0.46 -0.31,-0.88 -0.46,-1.29 -0.46,-1.3 -1.44,-1.55 -2.47,-0.63 -0.31,0.28 -0.61,0.57 -0.96,0.91 -0.13,-0.25 -0.27,-0.39 -0.25,-0.48 0.28,-1.01 1.56,-1.9 2.55,-1.8 1.52,0.15 2.48,2.08 1.59,3.29 z"
   id="path71" />
		<path
   d="m 228.43,242.27 c -0.86,-0.08 -1.47,0.1 -1.84,0.82 -0.66,1.26 0.39,1.96 0.97,2.78 -0.12,0.12 -0.2,0.24 -0.25,0.23 -1.23,-0.27 -1.97,-1.48 -1.69,-2.75 0.29,-1.33 1.49,-2.18 2.69,-1.87 0.44,0.11 0.74,0.34 0.12,0.79 z"
   id="path72" />
		<path
   d="m 225.52,231.1 c -0.03,-1.36 0.48,-2.31 1.64,-2.79 0.77,-0.32 1.62,-0.67 2.51,0.22 -0.36,0.13 -0.6,0.27 -0.85,0.29 -2.22,0.19 -2.9,1.16 -2.27,3.29 0.04,0.13 0.05,0.28 0.08,0.42 -0.86,0.03 -0.86,0.03 -1.11,-1.43 z"
   id="path73" />
		<path
   d="m 288.7,192.58 c 1.57,0.13 2.27,0.64 2.45,1.69 0.17,0.97 -0.36,2.21 -1.36,2.77 0.11,-0.5 0.18,-0.83 0.25,-1.16 0.1,-0.47 0.29,-0.94 0.27,-1.41 -0.02,-0.73 -0.68,-1.2 -1.43,-1.08 -0.35,0.05 -0.7,0.2 -1.12,0.32 -0.08,-0.78 0.41,-0.92 0.94,-1.13 z"
   id="path74" />
		<path
   d="m 357.62,264.68 c 0.77,-0.26 1.35,-0.09 1.89,0.31 0.68,0.5 1.07,1.15 0.86,2.01 -0.2,0.85 -0.7,1.44 -1.93,1.67 0.25,-0.47 0.34,-0.76 0.53,-0.95 0.47,-0.47 0.89,-0.93 0.48,-1.64 -0.38,-0.65 -0.92,-0.78 -1.89,-0.48 -0.17,0.05 -0.36,0.08 -0.61,0.13 -0.22,-0.63 0.21,-0.8 0.67,-1.05 z"
   id="path75" />
		<path
   d="m 223.64,271.68 c -0.35,0.54 -0.63,0.99 -1.05,1.66 -0.23,-1.77 0.51,-2.73 2.03,-3.04 1.42,-0.29 2.74,0.3 3.03,1.47 -1.33,-0.34 -2.62,-1.38 -4.01,-0.09 z"
   id="path76" />
		<path
   d="m 237.42,280.48 c 0.02,-0.52 0.1,-0.95 0.19,-1.37 0.14,-0.61 0.05,-1.16 -0.44,-1.6 -0.52,-0.47 -1.07,-0.33 -1.62,-0.04 -0.23,0.12 -0.5,0.19 -0.81,0.3 0.3,-1.32 1.92,-1.76 2.94,-0.91 1.07,0.89 1.11,2.72 0.08,3.75 -0.05,0.04 -0.19,-0.02 -0.34,-0.13 z"
   id="path77" />
		<path
   d="m 249.24,246.56 c -0.2,2.36 -2.32,3.7 -4.21,2.78 -0.51,-0.25 -0.51,-0.25 -0.67,-1.2 0.21,0.06 0.39,0.07 0.53,0.15 1.52,0.88 2.62,0.57 3.5,-0.98 0.2,-0.34 0.11,-0.94 0.85,-0.75 z"
   id="path78" />
		<path
   d="m 195.93,222.27 c 0.75,-0.24 1.31,-0.15 1.84,0.49 -0.24,0.12 -0.41,0.29 -0.55,0.27 -0.61,-0.09 -1.17,-0.11 -1.55,0.5 -0.37,0.6 -0.58,1.23 -0.36,1.94 0.14,0.44 0.25,0.88 0.42,1.48 -1,-0.11 -1.1,-0.78 -1.2,-1.34 -0.23,-1.33 0.05,-2.52 1.4,-3.34 z"
   id="path79" />
		<path
   d="m 349.21,257.15 c -0.18,0.41 -0.34,0.7 -0.62,1.19 -0.24,-1.18 -0.24,-2.13 -0.64,-2.88 -0.5,-0.96 -1.52,-0.77 -2.35,-0.37 -0.37,-0.67 0.02,-0.85 0.37,-0.99 0.98,-0.41 2.32,0.07 2.84,1.12 0.27,0.55 0.28,1.21 0.4,1.93 z"
   id="path80" />
		<path
   d="m 229.45,249.08 c 0.11,1.62 1.24,2.14 2.5,2.52 -0.59,0.75 -0.68,0.76 -1.51,0.32 -1.47,-0.79 -2.07,-2.14 -1.62,-3.64 0.27,-0.92 0.5,-1.1 1.32,-1.01 -0.23,0.57 -0.46,1.14 -0.69,1.81 z"
   id="path81" />
		<path
   d="m 335.56,202.71 c 0.35,-1.75 0.03,-2.07 -1.51,-1.75 -0.24,0.05 -0.51,0.01 -0.83,0.01 0.62,-0.86 1.36,-1.13 2.23,-0.86 0.72,0.23 1.14,0.82 1.16,1.65 0.02,1.08 -0.52,1.93 -1.52,2.3 -0.32,-0.57 0.28,-0.84 0.47,-1.35 z"
   id="path82" />
		<path
   d="m 354.08,279.43 c 0.18,-0.32 0.32,-0.54 0.55,-0.89 0.58,0.97 0.12,1.6 -0.34,2.19 -0.57,0.74 -1.38,0.95 -2.21,0.66 -0.95,-0.32 -1.46,-0.93 -1.48,-1.93 0.33,0.23 0.59,0.39 0.83,0.58 1.26,1.01 1.77,0.91 2.65,-0.61 z"
   id="path83" />
		<path
   d="m 237.77,269.41 c 0.36,-0.01 0.62,0 0.99,0.02 -0.41,1.01 -1.16,0.81 -1.77,0.72 -1.19,-0.17 -1.65,-1.11 -1.91,-2.14 -0.22,-0.87 -0.07,-1.66 0.58,-2.26 0.13,0.03 0.26,0.06 0.39,0.09 -0.07,0.38 -0.15,0.76 -0.2,1.14 -0.18,1.34 0.43,2.15 1.92,2.43 z"
   id="path84" />
		<path
   d="m 354.02,296.45 c -1.83,0.11 -2.29,-0.14 -2.47,-1.4 0.4,0.2 0.71,0.37 1.04,0.52 1.05,0.46 1.86,-0.03 1.92,-1.17 0.02,-0.46 -0.05,-0.93 -0.07,-1.45 1.38,0.65 1.19,2.23 -0.42,3.5 z"
   id="path85" />
		<path
   d="m 354.96,264.43 c -0.15,0.27 -0.29,0.44 -0.57,0.79 -0.17,-0.67 -0.2,-1.16 -0.41,-1.55 -0.21,-0.39 -0.56,-0.86 -0.93,-0.97 -0.53,-0.15 -0.83,0.36 -1.01,0.85 -0.11,0.29 -0.24,0.57 -0.41,0.95 -0.53,-1.05 -0.32,-1.89 0.53,-2.41 0.7,-0.43 1.62,-0.34 2.08,0.36 0.36,0.55 0.5,1.24 0.72,1.98 z"
   id="path86" />
		<path
   d="m 348.5,261.79 c -1.26,-0.17 -1.24,0.92 -1.74,1.71 -0.19,-0.33 -0.41,-0.54 -0.41,-0.75 0.01,-0.74 0.4,-1.32 1.05,-1.62 0.7,-0.32 1.45,-0.3 2.05,0.25 0.67,0.61 1.18,1.32 0.97,2.6 -0.71,-0.83 -1.26,-1.49 -1.92,-2.19 z"
   id="path87" />
		<path
   d="m 238.86,260.57 c -1.99,-0.9 -2.96,-0.3 -3.44,2.15 -0.22,-0.27 -0.46,-0.43 -0.49,-0.63 -0.19,-1.08 0.3,-1.94 1.35,-2.46 1.03,-0.51 2.39,-0.43 3,0.22 0.15,0.17 0.14,0.49 0.2,0.75 -0.19,0.02 -0.36,0.03 -0.62,-0.03 z"
   id="path88" />
		<path
   d="m 203.25,250.84 c -0.25,-0.49 -0.43,-0.89 -0.61,-1.3 0.09,-0.06 0.18,-0.12 0.27,-0.18 0.2,0.15 0.42,0.27 0.59,0.45 0.26,0.28 0.45,0.64 0.73,0.9 0.86,0.79 1.47,0.68 2.14,-0.29 0.22,-0.32 0.21,-0.91 0.93,-0.8 0.22,0.92 -0.33,1.52 -0.93,2.05 -0.57,0.5 -1.28,0.47 -1.91,0.14 -0.43,-0.21 -0.77,-0.58 -1.21,-0.97 z"
   id="path89" />
		<path
   d="m 207.5,214.92 c -0.36,-0.17 -0.62,-0.32 -0.9,-0.39 -0.96,-0.23 -1.47,0.05 -1.81,0.97 -0.12,0.33 -0.21,0.67 -0.35,1.14 -0.67,-1.03 -0.41,-2.07 0.51,-2.7 1.04,-0.7 2.7,-0.23 3.5,1.1 -0.33,-0.03 -0.59,-0.05 -0.95,-0.12 z"
   id="path90" />
		<path
   d="m 240.44,287.47 c -0.49,0.54 -0.89,1.02 -1.38,1.39 -0.18,0.14 -0.55,0.02 -1.1,0.02 0.71,-0.88 1.76,-1.1 1.75,-2.15 -0.01,-1 -0.77,-1.36 -1.49,-1.72 0.16,-0.65 0.56,-0.55 0.92,-0.42 0.96,0.36 1.42,1.34 1.3,2.88 z"
   id="path91" />
		<path
   d="m 193.61,229.96 c 0.05,0.94 0.13,1.78 0.22,2.73 -0.82,-0.07 -0.93,-0.73 -1.04,-1.29 -0.2,-1.04 -0.17,-2.11 0.81,-2.77 0.67,-0.45 1.44,-0.98 2.44,-0.34 -0.7,0.82 -2.03,0.47 -2.43,1.67 z"
   id="path92" />
		<path
   d="m 348.22,281.15 c -1.73,1.43 -3.04,1.15 -3.86,-0.73 -0.06,-0.15 -0.01,-0.34 -0.01,-0.91 0.48,0.5 0.74,0.73 0.96,1 0.83,1.01 1.5,1.03 2.36,0.03 0.29,-0.34 0.56,-0.71 0.92,-1.16 0.58,0.87 -0.07,1.22 -0.37,1.77 z"
   id="path93" />
		<path
   d="m 197.77,249.43 c -1.72,0.09 -2.53,-0.58 -2.64,-2.03 -0.08,-1.04 0.52,-1.85 1.65,-2.02 -0.17,0.36 -0.28,0.64 -0.43,0.9 -0.74,1.25 -0.41,2.12 0.98,2.47 0.32,0.09 0.74,0.05 0.44,0.68 z"
   id="path94" />
		<path
   d="m 194.5,237.57 c -0.41,-1.87 0.26,-2.89 1.94,-3.08 0.25,-0.03 0.53,0.17 0.8,0.26 -0.01,0.1 -0.01,0.2 -0.02,0.29 -0.34,0.12 -0.69,0.22 -1.02,0.35 -1.18,0.44 -1.43,1.2 -0.74,2.28 0.2,0.31 0.43,0.6 0.73,1 -1.06,0.24 -1.3,-0.47 -1.69,-1.1 z"
   id="path95" />
		<path
   d="m 207.24,276.07 c 0.44,0.06 0.8,0.2 1.16,0.33 1.16,0.42 1.83,0.14 2.38,-0.96 0.18,-0.35 0.37,-0.7 0.64,-1.21 0.48,1.32 -0.12,2.54 -1.23,2.99 -1.19,0.47 -2.47,0.02 -2.95,-1.15 z"
   id="path96" />
		<path
   d="m 202.22,218.17 c -0.33,0.11 -0.57,0.16 -0.81,0.17 -1.77,0.1 -2.19,0.55 -2.22,2.34 0,0.24 -0.02,0.47 -0.04,0.75 -0.2,-0.04 -0.41,-0.01 -0.46,-0.09 -0.58,-0.95 -0.33,-2.4 0.54,-3.18 0.77,-0.7 2.17,-0.8 3.07,-0.21 0.01,0.02 0,0.09 -0.08,0.22 z"
   id="path97" />
		<path
   d="m 224.94,275.92 c 0.92,0.22 1.63,0.52 1.83,1.82 -0.53,-0.32 -0.84,-0.48 -1.13,-0.67 -0.42,-0.27 -0.91,-0.62 -1.32,-0.2 -0.29,0.3 -0.37,0.84 -0.45,1.29 -0.05,0.25 0.09,0.53 0.17,0.92 -0.96,0.02 -0.98,-0.63 -1.01,-1.15 -0.08,-1.14 0.53,-1.79 1.91,-2.01 z"
   id="path98" />
		<path
   d="m 348.95,292.53 c 0.93,-0.16 1.24,-0.66 1.04,-1.49 -0.07,-0.29 -0.06,-0.6 -0.09,-1.01 0.91,0.62 1.14,1.21 0.91,1.99 -0.23,0.78 -0.91,1.28 -1.75,1.3 -0.91,0.02 -1.53,-0.45 -1.94,-1.62 0.67,0.32 1.2,0.57 1.83,0.83 z"
   id="path99" />
		<path
   d="m 217.68,275.46 c -0.07,0.52 -0.11,0.92 -0.16,1.42 -0.86,-0.76 -0.89,-1.69 -0.2,-2.38 0.82,-0.83 2.48,-0.71 3.4,0.43 -0.52,-0.04 -0.85,-0.08 -1.19,-0.1 -0.66,-0.04 -1.37,-0.24 -1.85,0.63 z"
   id="path100" />
		<path
   d="m 199.17,230.55 c -0.89,0.96 -0.89,0.96 -0.32,2.96 -0.86,-0.07 -1.39,-0.73 -1.36,-1.7 0.04,-1.21 1.2,-2.25 2.49,-2.21 0.18,0.64 -0.46,0.61 -0.81,0.95 z"
   id="path101" />
		<path
   d="m 342.13,253.7 c 0.72,0.54 1.17,1.12 1.25,2.29 -0.46,-0.35 -0.74,-0.48 -0.9,-0.69 -1.02,-1.34 -1.41,-1.38 -2.59,-0.2 -0.06,0.06 -0.17,0.06 -0.44,0.14 0,-0.33 -0.1,-0.66 0.02,-0.87 0.45,-0.82 1.23,-1.01 2.66,-0.67 z"
   id="path102" />
		<path
   d="m 211.09,212.26 c -0.45,0.55 -0.8,1.04 -1.2,1.61 -0.72,-0.69 -0.19,-1.25 0.15,-1.75 0.5,-0.73 1.24,-0.88 2.2,-0.55 1.05,0.36 1.44,0.78 1.44,1.55 -0.83,-0.3 -1.66,-0.6 -2.59,-0.86 z"
   id="path103" />
		<path
   d="m 243.02,264.06 c -0.54,1.14 -1.06,2.14 -2.74,2.35 0.72,-0.87 1.35,-1.45 1.74,-2.16 0.4,-0.73 0.56,-1.6 0.84,-2.44 0.65,0.58 0.65,0.58 0.16,2.25 z"
   id="path104" />
		<path
   d="m 200.17,225.41 c 1.21,-1.21 1.8,-1.27 2.6,-0.27 -0.59,0.36 -1.59,-0.18 -1.88,0.69 -0.2,0.6 -0.17,1.27 -0.25,1.92 -0.93,-0.57 -0.97,-0.76 -0.47,-2.34 z"
   id="path105" />
		<path
   d="m 197.71,219.17 c -1.68,0.12 -1.88,0.35 -2.12,2.47 -0.3,-0.31 -0.59,-0.47 -0.65,-0.7 -0.19,-0.76 0.29,-1.83 1.02,-2.25 0.78,-0.46 1.6,-0.58 2.53,0.1 -0.3,0.17 -0.48,0.27 -0.78,0.38 z"
   id="path106" />
		<path
   d="m 202.16,213.1 c 0.43,0.29 0.76,0.53 1.09,0.77 -0.04,0.1 -0.08,0.19 -0.11,0.29 -0.3,-0.02 -0.66,0.06 -0.88,-0.09 -1.04,-0.68 -1.81,-0.32 -2.53,0.52 -0.17,0.2 -0.41,0.32 -0.68,0.53 -0.05,-1.62 1.06,-2.34 3.11,-2.02 z"
   id="path107" />
		<path
   d="m 218.75,211.79 c 0.5,0.38 0.9,0.71 1.56,1.25 -0.57,0.08 -0.84,0.21 -1.03,0.13 -0.3,-0.13 -0.54,-0.42 -0.82,-0.6 -0.84,-0.53 -1.12,-0.48 -1.88,0.27 -0.13,0.12 -0.27,0.23 -0.45,0.38 -0.21,-1.03 0.09,-1.61 0.96,-1.7 0.51,-0.06 1.04,0.13 1.66,0.27 z"
   id="path108" />
		<path
   d="m 206.55,220.78 c 0.07,0.24 0.11,0.43 0.04,0.57 -0.04,0.08 -0.26,0.11 -0.39,0.08 -0.58,-0.13 -1.21,-0.75 -1.74,-0.2 -0.38,0.4 -0.45,1.09 -0.69,1.75 -0.76,-0.3 -0.53,-0.92 -0.44,-1.41 0.13,-0.71 0.54,-1.31 1.33,-1.28 0.61,0 1.21,0.26 1.89,0.49 z"
   id="path109" />
		<path
   d="m 213.34,215.34 c 1.47,-0.53 1.9,-0.34 2.6,1.24 -0.43,-0.16 -0.72,-0.22 -0.95,-0.36 -0.96,-0.62 -1.11,-0.56 -1.45,0.56 -0.06,0.21 -0.17,0.4 -0.31,0.74 -0.82,-0.85 -0.37,-1.47 0.11,-2.18 z"
   id="path110" />
		<path
   d="m 210.79,217.59 c 0.25,0.28 0.4,0.5 0.66,0.89 -2.31,-0.42 -2.31,-0.42 -3.06,1.08 -0.7,-0.87 -0.33,-2.04 0.75,-2.2 0.5,-0.07 1.04,0.12 1.65,0.23 z"
   id="path111" />
		<path
   d="m 242.79,215.13 c -0.25,-0.07 -0.44,-0.22 -0.63,-0.37 0.09,-0.09 0.19,-0.18 0.28,-0.26 0.14,0.19 0.27,0.37 0.35,0.63 z"
   id="path112" />
		<path
   d="m 261.26,230.07 c -0.18,-0.14 -0.28,-0.32 -0.39,-0.49 0.16,-0.04 0.32,-0.07 0.48,-0.11 0,0.18 -0.01,0.37 -0.09,0.6 z"
   id="path113" />
		<path
   d="m 320.2,205.37 c 0.1,-0.19 0.24,-0.29 0.37,-0.39 0.05,0.16 0.11,0.32 0.16,0.48 -0.16,0 -0.33,0 -0.53,-0.09 z"
   id="path114" />
		<path
   d="m 237.46,222.88 c 0.02,0.22 -0.04,0.38 -0.09,0.55 -0.12,-0.06 -0.23,-0.11 -0.35,-0.17 0.12,-0.15 0.25,-0.3 0.44,-0.38 z"
   id="path115" />
		<path
   d="m 233.5,223.32 c 0.07,0.21 0.06,0.4 0.05,0.59 -0.13,-0.04 -0.26,-0.07 -0.39,-0.11 0.08,-0.17 0.17,-0.34 0.34,-0.48 z"
   id="path116" />
		<path
   d="m 202.88,261.09 c 0,-0.2 0.06,-0.34 0.13,-0.48 0.1,0.08 0.2,0.15 0.3,0.23 -0.12,0.1 -0.24,0.21 -0.43,0.25 z"
   id="path117" />
		<path
   d="m 354.89,268.78 c 0.2,0.09 0.32,0.24 0.44,0.39 -0.12,0.05 -0.24,0.1 -0.35,0.16 -0.06,-0.17 -0.12,-0.33 -0.09,-0.55 z"
   id="path118" />
		<path
   d="m 257.48,196.25 c -0.25,0.12 -0.48,0.13 -0.72,0.14 0,-0.09 -0.01,-0.18 -0.01,-0.27 0.24,0.01 0.49,0.02 0.73,0.13 z"
   id="path119" />
		<path
   d="m 302.09,219.8 c 0.18,0.14 0.28,0.31 0.38,0.49 -0.15,0.04 -0.31,0.08 -0.46,0.12 0,-0.2 0,-0.39 0.08,-0.61 z"
   id="path120" />
		<path
   d="m 289.69,188.83 c 0.05,-0.19 0.16,-0.3 0.26,-0.42 0.07,0.1 0.15,0.21 0.22,0.31 -0.14,0.06 -0.29,0.12 -0.48,0.11 z"
   id="path121" />
		<path
   d="m 311.85,219.01 c 0.18,0.15 0.28,0.32 0.38,0.5 -0.16,0.04 -0.31,0.07 -0.47,0.11 0.01,-0.2 0.01,-0.4 0.09,-0.61 z"
   id="path122" />
		<path
   d="m 234.46,219.06 c -0.25,-0.02 -0.42,-0.1 -0.59,-0.18 0.08,-0.09 0.16,-0.19 0.24,-0.28 0.14,0.13 0.28,0.26 0.35,0.46 z"
   id="path123" />
		<path
   d="m 347.35,213.96 c 0.24,0.01 0.41,0.09 0.58,0.17 -0.08,0.09 -0.16,0.19 -0.24,0.28 -0.14,-0.13 -0.27,-0.26 -0.34,-0.45 z"
   id="path124" />
		<path
   d="m 233.86,246.26 c -0.05,0.18 -0.16,0.3 -0.26,0.41 -0.07,-0.1 -0.15,-0.2 -0.22,-0.3 0.14,-0.06 0.29,-0.12 0.48,-0.11 z"
   id="path125" />
		<path
   d="m 353.1,214.32 c -0.23,-0.01 -0.4,-0.08 -0.56,-0.16 0.08,-0.09 0.16,-0.19 0.24,-0.28 0.13,0.12 0.26,0.25 0.32,0.44 z"
   id="path126" />
		<path
   d="m 360.42,279.79 c 0.2,-0.08 0.39,-0.08 0.57,-0.08 -0.04,0.16 -0.07,0.32 -0.11,0.48 -0.16,-0.1 -0.32,-0.21 -0.46,-0.4 z"
   id="path127" />
		<path
   d="m 246.18,242.49 c 0.17,0.15 0.26,0.32 0.34,0.5 -0.13,0.03 -0.26,0.05 -0.39,0.08 0,-0.18 -0.02,-0.37 0.05,-0.58 z"
   id="path128" />
		<path
   d="m 331.13,239.5 c -0.06,-0.23 -0.05,-0.42 -0.04,-0.61 0.13,0.03 0.25,0.06 0.38,0.1 -0.09,0.18 -0.17,0.36 -0.34,0.51 z"
   id="path129" />
		<path
   d="m 350.79,277.58 c 0.18,0.14 0.28,0.31 0.38,0.48 -0.15,0.04 -0.31,0.07 -0.46,0.11 -0.01,-0.18 0,-0.37 0.08,-0.59 z"
   id="path130" />
		<path
   d="m 230.12,292 c 0.18,0.05 0.3,0.16 0.42,0.26 -0.1,0.07 -0.2,0.15 -0.31,0.22 -0.06,-0.14 -0.12,-0.28 -0.11,-0.48 z"
   id="path131" />
		<path
   d="m 343.49,234.79 c -0.23,0 -0.4,-0.08 -0.57,-0.17 0.08,-0.09 0.16,-0.19 0.24,-0.28 0.13,0.13 0.26,0.25 0.33,0.45 z"
   id="path132" />
		<path
   d="m 210.97,234.95 c 0.16,-0.17 0.33,-0.26 0.51,-0.35 0.03,0.13 0.06,0.26 0.09,0.38 -0.19,0.02 -0.38,0.03 -0.6,-0.03 z"
   id="path133" />
		<path
   d="m 344.31,277.13 c 0.21,-0.07 0.4,-0.06 0.59,-0.04 -0.03,0.13 -0.07,0.26 -0.1,0.4 -0.17,-0.1 -0.34,-0.19 -0.49,-0.36 z"
   id="path134" />
		<path
   d="m 355.37,274.6 c 0.2,-0.07 0.37,-0.04 0.54,-0.01 -0.07,0.14 -0.15,0.28 -0.22,0.42 -0.12,-0.1 -0.23,-0.21 -0.32,-0.41 z"
   id="path135" />
		<path
   d="m 211.81,304.86 c -0.03,0.24 -0.11,0.41 -0.19,0.58 -0.12,-0.12 -0.23,-0.25 -0.35,-0.37 0.16,-0.09 0.32,-0.18 0.54,-0.21 z"
   id="path136" />
		<path
   d="m 364.42,274.19 c -0.07,-0.21 -0.05,-0.4 -0.03,-0.59 0.13,0.03 0.25,0.06 0.38,0.08 -0.09,0.17 -0.17,0.35 -0.35,0.51 z"
   id="path137" />
		<path
   d="m 244.99,259.42 c -0.08,-0.23 -0.09,-0.42 -0.09,-0.61 0.16,0.04 0.31,0.08 0.47,0.12 -0.11,0.18 -0.21,0.36 -0.38,0.49 z"
   id="path138" />
		<path
   d="m 328.63,211.49 c -0.16,-0.11 -0.24,-0.24 -0.32,-0.38 0.12,-0.04 0.24,-0.08 0.36,-0.12 0.02,0.16 0.03,0.31 -0.04,0.5 z"
   id="path139" />
		<path
   d="m 264.67,226.44 c 0.14,-0.18 0.31,-0.27 0.48,-0.36 0.05,0.15 0.09,0.3 0.14,0.46 -0.2,-0.01 -0.4,-0.02 -0.62,-0.1 z"
   id="path140" />
		<path
   d="m 234.4,225.46 c -0.03,0.23 -0.11,0.39 -0.2,0.55 -0.12,-0.12 -0.24,-0.23 -0.36,-0.35 0.17,-0.08 0.33,-0.17 0.56,-0.2 z"
   id="path141" />
		<path
   d="m 229.34,208.15 c 0.05,-0.18 0.16,-0.3 0.26,-0.41 0.07,0.1 0.15,0.2 0.22,0.3 -0.14,0.06 -0.29,0.12 -0.48,0.11 z"
   id="path142" />
		<path
   d="m 376.45,281.53 c 0.84,-1 1.6,-1.92 2.48,-2.99 0.07,0.34 0.22,0.61 0.15,0.8 -0.15,0.4 -0.37,0.8 -0.63,1.14 -2.7,3.5 -6.31,5.42 -10.65,6 -0.17,0.02 -0.36,-0.07 -0.72,-0.15 0.25,-0.29 0.38,-0.56 0.58,-0.65 0.35,-0.15 0.75,-0.21 1.13,-0.27 2.92,-0.49 5.44,-1.78 7.66,-3.88 z"
   id="path143" />
	</g>
</g>
</svg>
