<?xml version="1.0" encoding="UTF-8" standalone="no"?>
<!-- Generator: Adobe Adobe Illustrator 24.2.0, SVG Export Plug-In . SVG Version: 6.00 Build 0)  -->

<svg
   version="1.1"
   id="Layer_1"
   x="0px"
   y="0px"
   width="174.34563"
   height="159.40282"
   viewBox="0 0 174.34563 159.40282"
   xml:space="preserve"
   sodipodi:docname="hongo.svg"
   inkscape:version="1.4 (e7c3feb1, 2024-10-09)"
   xmlns:inkscape="http://www.inkscape.org/namespaces/inkscape"
   xmlns:sodipodi="http://sodipodi.sourceforge.net/DTD/sodipodi-0.dtd"
   xmlns="http://www.w3.org/2000/svg"
   xmlns:svg="http://www.w3.org/2000/svg"><defs
   id="defs17" /><sodipodi:namedview
   id="namedview17"
   pagecolor="#ffffff"
   bordercolor="#000000"
   borderopacity="0.25"
   inkscape:showpageshadow="2"
   inkscape:pageopacity="0.0"
   inkscape:pagecheckerboard="0"
   inkscape:deskcolor="#d1d1d1"
   inkscape:zoom="1.6816667"
   inkscape:cx="59.464817"
   inkscape:cy="93.062438"
   inkscape:window-width="1200"
   inkscape:window-height="1186"
   inkscape:window-x="0"
   inkscape:window-y="0"
   inkscape:window-maximized="0"
   inkscape:current-layer="Layer_1" />
<g
   id="g17"
   transform="translate(-240.02681,-207.04125)">
	<g
   id="g16">
		<path
   d="m 246.42,266.63 c 5.31,-6.59 10.94,-12.73 17.1,-18.39 8.16,-7.5 16.19,-15.13 24.21,-22.77 4.51,-4.3 9.36,-8.11 14.81,-11.16 5.52,-3.1 11.53,-4.74 17.66,-6.02 4.75,-0.99 9.55,-1.56 14.4,-1.07 5.35,0.54 10.61,1.63 15.73,3.29 2.87,0.93 5.73,1.94 8.51,3.12 6.47,2.74 13.06,5.18 19.76,7.28 6.53,2.05 12.92,4.43 18.97,7.66 4.3,2.29 8.09,5.22 11.42,8.81 4.2,4.52 5.85,9.84 5.27,15.88 -0.59,6.17 -2.64,11.84 -6,17.09 -4.82,7.52 -11.47,12.95 -19.13,17.3 -5.66,3.22 -11.79,5.17 -18.13,6.43 -4.54,0.9 -9.13,1.6 -13.71,2.24 -1.92,0.27 -3.9,0.17 -5.84,0.26 -0.82,0.04 -1.63,0.11 -2.49,0.16 0.52,2.43 0.97,4.72 1.5,6.98 1.64,6.92 2.23,13.95 2.36,21.05 0.07,4.09 0.27,8.19 0.42,12.34 0.17,0.05 0.35,0.12 0.53,0.14 2.06,0.23 2.85,0.98 3.11,3.01 0.04,0.29 0.06,0.59 0.04,0.88 -0.35,7.62 -2.68,14.52 -7.39,20.59 -2.01,2.58 -4.52,3.97 -7.78,4.37 -4.26,0.53 -8.45,0.5 -12.65,-0.46 -3.1,-0.71 -5.43,-2.33 -6.88,-5.18 -0.48,-0.96 -1,-1.9 -1.45,-2.87 -1.38,-2.91 -2.76,-5.81 -4.08,-8.75 -0.52,-1.15 -0.87,-2.38 -1.26,-3.58 -0.13,-0.41 -0.19,-0.86 -0.22,-1.29 -0.22,-2.95 0.94,-4.6 3.79,-5.4 0.42,-0.12 0.86,-0.17 1.36,-0.27 0.04,-0.13 0.12,-0.31 0.14,-0.48 0.32,-4.08 0.66,-8.17 0.92,-12.25 0.28,-4.23 0.6,-8.47 0.69,-12.71 0.1,-4.88 -0.05,-9.76 -0.1,-14.64 0,-0.19 -0.04,-0.38 -0.08,-0.77 -0.55,0.2 -1.03,0.35 -1.5,0.55 -5.41,2.24 -11.08,3.4 -16.87,4.08 -7.18,0.85 -14.39,1.36 -21.62,1.12 -5.7,-0.19 -11.42,-0.38 -17.01,-1.72 -1.51,-0.36 -3.04,-0.78 -4.45,-1.42 -3.51,-1.59 -6.98,-3.27 -10.42,-5 -2.15,-1.08 -4.02,-2.58 -5.74,-4.26 -4.14,-4.06 -5.16,-8.9 -3.6,-14.38 0.61,-2.13 1.63,-4.08 2.87,-5.9 0.88,-1.32 1.84,-2.55 2.83,-3.89 z m 128.25,25.28 c 8.55,-2.07 16.19,-5.99 22.94,-11.58 8.3,-6.87 13.87,-15.42 15.31,-26.3 0.71,-5.4 -0.27,-10.44 -3.97,-14.65 -1.57,-1.79 -3.26,-3.51 -5.06,-5.07 -3.5,-3.02 -7.59,-5.13 -11.8,-6.99 -0.29,-0.13 -0.6,-0.21 -0.85,-0.3 -0.64,0.72 -0.13,1.89 -1.38,2.37 0.15,-1.05 0.28,-1.93 0.42,-2.89 -0.75,-0.29 -1.41,-0.54 -2.04,-0.79 -0.64,0.97 -0.42,2.15 -1.38,2.92 -0.5,-1.26 0.62,-2.22 0.35,-3.36 -0.51,-0.18 -1,-0.36 -1.47,-0.53 -0.68,0.91 -0.27,2.14 -1.14,3.17 -0.44,-1.07 -0.05,-1.84 0.05,-2.61 0.13,-0.98 0.12,-1 -1.13,-1.11 -0.18,0.64 -0.35,1.29 -0.54,1.95 -0.17,0.6 -0.03,1.36 -0.85,1.75 -0.4,-1.52 0.63,-2.8 0.51,-4.25 -0.39,-0.13 -0.74,-0.24 -1.09,-0.36 -0.62,0.95 -0.27,2.2 -1.23,2.99 -0.52,-0.6 -0.09,-1.1 -0.03,-1.58 0.08,-0.56 0.21,-1.12 0.33,-1.78 -0.55,-0.15 -0.99,-0.27 -1.41,-0.38 -0.63,1.12 -0.32,2.5 -1.53,3.61 -0.17,-1.53 0.68,-2.66 0.51,-4 -0.48,-0.14 -0.97,-0.28 -1.47,-0.43 -0.45,1.45 -0.13,2.95 -1.21,4.24 -0.43,-0.89 0.01,-1.56 0.08,-2.24 0.08,-0.76 0.17,-1.52 0.26,-2.33 -0.59,-0.17 -1.04,-0.29 -1.62,-0.46 -0.05,0.99 -0.03,1.87 -0.15,2.72 -0.12,0.83 0.15,1.8 -0.78,2.73 0,-1.18 -0.02,-2.08 0.01,-2.98 0.03,-0.91 0.11,-1.82 0.17,-2.78 -0.61,-0.18 -1.09,-0.32 -1.69,-0.5 -0.03,2.29 0.01,4.41 -0.46,6.51 -0.82,-0.25 -0.58,-0.74 -0.56,-1.14 0.07,-1.61 0.15,-3.22 0.2,-4.82 0.02,-0.72 -0.21,-1.24 -1.26,-1.05 0,1.36 0.09,2.73 -0.02,4.09 -0.11,1.3 0,2.66 -0.48,3.96 -0.76,-0.31 -0.57,-0.81 -0.55,-1.21 0.1,-1.75 0.25,-3.5 0.34,-5.26 0.04,-0.71 -0.04,-1.43 -0.07,-2.18 -0.66,-0.2 -1.18,-0.36 -1.84,-0.56 0,1.64 0.02,3.05 0,4.46 -0.04,2.8 -0.15,3.41 -0.69,4.15 -0.57,-0.25 -0.32,-0.72 -0.31,-1.13 0.07,-2.29 0.17,-4.58 0.2,-6.88 0.01,-1.07 -0.05,-1.07 -1.42,-1.31 0,1.37 0.04,2.72 -0.01,4.07 -0.04,1.32 -0.13,2.63 -0.27,3.94 -0.14,1.3 -0.1,2.66 -0.93,3.82 -0.37,-2.03 0.3,-3.98 0.33,-5.97 0.03,-2.09 0.14,-4.18 0.22,-6.33 -0.62,-0.23 -1.09,-0.4 -1.69,-0.62 0,2.03 -0.01,3.84 0,5.64 0.01,3.18 -0.32,6.33 -0.98,9.45 -0.1,0.47 -0.03,1.1 -0.95,1.23 0.05,-0.54 0.05,-1.02 0.14,-1.47 0.94,-4.37 1.1,-8.8 1.06,-13.25 -0.02,-2.15 -0.06,-2.18 -2.12,-2.83 -0.09,-0.03 -0.19,0.01 -0.37,0.03 0.14,1.64 0.36,3.28 0.41,4.92 0.05,1.65 -0.02,3.32 -0.12,4.97 -0.24,3.99 -0.26,3.99 -1.06,4.81 -0.05,-0.49 -0.15,-0.85 -0.1,-1.19 0.43,-3.1 0.58,-6.22 0.43,-9.35 -0.08,-1.6 -0.3,-3.19 -0.47,-4.8 -0.92,-0.35 -1.7,-0.65 -2.64,-1.01 0.35,1.76 0.74,3.27 0.94,4.8 0.23,1.84 0.31,3.69 0.43,5.54 0.03,0.45 0.05,0.98 -0.77,1.19 -0.03,-0.57 -0.07,-1.03 -0.07,-1.49 0.02,-3.14 -0.43,-6.22 -1.2,-9.26 -0.23,-0.9 -0.68,-1.43 -1.59,-1.68 -1.55,-0.43 -3.06,-0.99 -4.61,-1.45 -4.97,-1.47 -10.03,-2.54 -15.2,-2.98 -4.36,-0.37 -8.66,0.29 -12.95,1.05 -10.74,1.91 -20.21,6.4 -28.46,13.55 -1.31,1.14 -1.95,2.18 -1.23,3.82 0.06,0.13 0.13,0.29 0.11,0.42 -0.04,0.24 -0.14,0.48 -0.22,0.71 -0.1,0.01 -0.2,0.01 -0.29,0.02 -0.26,-0.83 -0.52,-1.65 -0.79,-2.49 -0.79,0.34 -0.95,0.8 -0.78,1.48 0.27,1.14 0.49,2.29 0.7,3.44 0.07,0.38 0.28,0.85 -0.44,1.25 -0.21,-0.84 -0.4,-1.56 -0.57,-2.29 -0.17,-0.75 -0.32,-1.5 -0.48,-2.29 -1.82,1.14 -1.86,1.25 -1.32,3.04 0.42,1.4 0.85,2.8 1.24,4.21 0.08,0.31 0,0.66 -0.01,1 -0.14,0.02 -0.27,0.04 -0.41,0.06 -0.83,-1.91 -1.08,-4.04 -1.98,-6.11 -0.45,0.46 -0.81,0.83 -1.19,1.23 0.22,0.68 0.41,1.33 0.63,1.97 0.58,1.71 1.18,3.41 1.75,5.12 0.12,0.35 0.34,0.76 -0.44,0.99 -1.02,-2.37 -1.6,-4.94 -2.71,-7.57 -0.49,0.58 -0.85,1.02 -1.27,1.52 0.2,0.78 0.42,1.62 0.64,2.47 0.46,1.69 0.47,1.69 0.12,2.46 -0.95,-1.28 -0.77,-2.93 -1.53,-4.22 -1.94,1.41 -1.94,1.41 -1.4,3.59 0.05,0.19 0.14,0.38 0.14,0.57 -0.01,0.24 -0.09,0.49 -0.14,0.73 -0.11,0.02 -0.21,0.03 -0.32,0.05 -0.3,-0.82 -0.6,-1.64 -0.93,-2.55 -0.31,0.26 -0.54,0.43 -0.75,0.63 -5.62,5.21 -11.26,10.41 -16.87,15.63 -5.59,5.2 -10.52,11.01 -15.22,17.01 -1.91,2.43 -3.56,5.03 -4.38,8.05 -1.32,4.85 -0.45,9.18 3.22,12.79 1.75,1.73 3.68,3.23 5.87,4.33 3.18,1.6 6.38,3.17 9.64,4.61 1.59,0.71 3.3,1.22 5.01,1.58 6.43,1.39 12.97,1.66 19.51,1.62 4.78,-0.03 9.55,-0.43 14.32,-0.73 5.57,-0.36 11.05,-1.3 16.39,-2.92 2.04,-0.62 4.01,-1.45 6.09,-2.22 -0.11,-1.12 -0.2,-2.07 -0.31,-3.13 -0.67,0.18 -1.18,0.33 -1.69,0.47 -3.62,0.99 -7.22,2.09 -10.87,2.96 -6.66,1.58 -13.41,2.65 -20.28,2.57 -4.15,-0.05 -8.3,-0.32 -12.44,-0.25 -4.35,0.07 -8.39,-0.99 -12.37,-2.58 -4.02,-1.59 -7.86,-3.49 -11.24,-6.2 -0.9,-0.72 -1.76,-1.58 -2.38,-2.54 -1.4,-2.16 -1.46,-4.43 0.11,-6.56 0.69,-0.94 1.49,-1.82 2.35,-2.6 2.7,-2.44 5.75,-4.36 9.11,-5.78 1.62,-0.69 3.24,-1.35 4.86,-2.03 0.39,-0.17 0.76,-0.38 1.12,-0.56 -0.34,-1.35 -1.44,-2.36 -1.33,-3.73 0.12,-0.05 0.24,-0.1 0.36,-0.16 0.6,1.17 1.2,2.34 1.84,3.58 0.71,-0.33 1.3,-0.62 1.92,-0.91 -0.61,-1.17 -1.2,-2.18 -1.67,-3.25 -0.45,-1.02 -1.22,-1.94 -1.08,-3.21 0.35,0.2 0.62,0.44 0.77,0.75 0.51,1 0.96,2.03 1.47,3.03 0.39,0.76 0.84,1.5 1.32,2.34 1.11,-0.6 2.07,-1.11 2.97,-1.6 -1.11,-2.35 -2.15,-4.51 -3.14,-6.68 -0.48,-1.06 -0.9,-2.16 -1.3,-3.26 -0.09,-0.25 0.01,-0.56 0.03,-0.84 0.12,-0.03 0.24,-0.05 0.36,-0.08 0.2,0.41 0.4,0.82 0.59,1.24 1.15,2.58 2.3,5.17 3.46,7.75 0.21,0.46 0.51,0.89 0.82,1.41 0.95,-0.63 1.75,-1.15 2.63,-1.73 -0.27,-0.55 -0.5,-0.97 -0.69,-1.4 -0.58,-1.29 -1.17,-2.58 -1.7,-3.88 -0.09,-0.21 0.07,-0.52 0.12,-0.79 0.12,-0.01 0.23,-0.03 0.35,-0.04 0.81,1.89 1.48,3.86 2.71,5.62 0.84,-0.63 1.57,-1.17 2.32,-1.73 -0.31,-0.76 -0.57,-1.38 -0.83,-2.01 -0.49,-1.2 -0.49,-1.2 -0.07,-2.17 0.55,1.28 1.04,2.41 1.58,3.67 0.83,-0.65 1.52,-1.18 2.2,-1.72 4.12,-3.29 8.15,-6.7 12.37,-9.86 6.59,-4.93 14.1,-7.41 22.29,-7.96 3.93,-0.26 7.79,0.22 11.65,0.85 5.22,0.85 10.48,1.3 15.75,0.87 5.98,-0.48 11.94,-1.2 17.91,-1.79 5.4,-0.53 10.81,-0.73 16.2,0.17 4.94,0.82 9.57,2.34 13.4,5.74 0.06,0.05 0.18,0.04 0.27,0.05 1.24,-0.6 1.93,-1.97 3.56,-2.56 -0.22,1.06 -0.93,1.38 -1.4,1.85 -0.51,0.51 -1.07,0.97 -1.67,1.51 0.38,0.32 0.66,0.56 0.98,0.84 0.73,-0.55 1.41,-1.02 2.06,-1.53 0.65,-0.52 1.24,-1.11 1.9,-1.6 0.62,-0.46 1.01,-1.31 2.27,-1.29 -0.78,1.3 -1.86,1.95 -2.77,2.75 -0.94,0.83 -1.96,1.58 -3.02,2.42 0.36,0.46 0.67,0.87 1.02,1.33 0.73,-0.45 1.38,-0.79 1.96,-1.22 1.53,-1.13 3.02,-2.32 4.54,-3.46 0.39,-0.29 0.7,-0.82 1.55,-0.58 -0.56,1.09 -1.53,1.59 -2.32,2.24 -0.83,0.68 -1.69,1.32 -2.57,1.94 -0.87,0.61 -1.77,1.17 -2.73,1.8 0.29,0.48 0.53,0.89 0.86,1.43 0.99,-0.6 1.92,-1.12 2.79,-1.71 2.21,-1.51 2.2,-1.52 2.92,-1.4 -1.51,1.75 -3.53,2.64 -5.31,3.88 0.32,0.68 0.62,1.29 0.89,1.91 1.91,4.36 1.76,8.63 -0.57,12.8 -1.37,2.46 -3.21,4.54 -5.36,6.34 -2.98,2.48 -6.28,4.46 -9.79,6.1 -3.64,1.7 -7.51,2.74 -11.33,3.92 -6.63,2.04 -13.34,3.74 -20.22,4.73 -1.58,0.23 -3.18,0.35 -4.94,0.54 0.5,1.57 0.97,3.03 1.41,4.43 8.94,0.02 17.46,-1.6 26.16,-3.62 z m -49.87,58.13 c 0.54,0.76 1,1.58 1.62,2.26 2.35,2.58 5.14,4.49 8.76,4.37 6.18,-0.21 10.87,-3.16 14.04,-8.43 2.01,-3.36 2.7,-7.12 2.64,-10.97 -0.09,-5.9 -0.33,-11.8 -0.54,-17.71 -0.32,-9.08 -2.32,-17.86 -4.95,-26.52 -1.43,-4.71 -2.86,-9.43 -4.25,-14.15 -1.01,-3.43 -1.64,-6.93 -1.48,-10.53 0.04,-0.82 -0.02,-1.66 -0.16,-2.48 -0.31,-1.89 -1.26,-2.82 -3.14,-3.15 -0.48,-0.08 -0.97,-0.13 -1.45,-0.15 -3.09,-0.08 -6.14,0.16 -9.16,0.84 -1.96,0.44 -3.85,1.08 -5.62,2.04 -1.25,0.67 -1.64,1.43 -1.04,2.45 0.99,1.7 1.46,3.48 1.38,5.44 -0.02,0.39 0.08,0.78 0.12,1.16 0.23,2.33 0.5,4.66 0.67,6.99 0.28,3.84 0.39,7.7 0.76,11.54 0.71,7.46 0.6,14.93 0.32,22.39 -0.25,6.62 -1.04,13.23 -1.46,19.85 -0.33,5.07 0.21,10.04 2.94,14.76 z m 30.41,-86.67 c -4.03,2.59 -8.3,4.51 -13.16,4.77 -0.11,1.17 -0.13,1.21 0.73,1.63 2.76,1.37 5.69,1.75 8.68,1.04 6.64,-1.57 12.69,-4.3 17.89,-8.88 4.29,-3.78 9.03,-6.96 14.12,-9.62 2.48,-1.29 5.05,-2.31 7.81,-2.8 0.41,-0.07 0.82,-0.19 1.55,-0.36 -0.92,-0.72 -1.59,-1.33 -2.34,-1.82 -2.94,-1.94 -6.22,-3 -9.65,-3.62 -3.26,-0.59 -3.26,-0.58 -5.85,1.41 -2.42,1.86 -4.37,4.17 -6.35,6.45 -3.91,4.48 -8.32,8.38 -13.43,11.8 z m 16.88,4.88 c 2.45,-1.07 4.9,-2.18 7.37,-3.21 1.68,-0.7 3.44,-1.07 5.26,-1.13 4.6,-0.15 8.95,0.59 12.7,3.5 0.18,0.14 0.41,0.2 0.69,0.33 1.17,-2.39 1.5,-4.81 1.03,-7.32 -0.61,-3.29 -2.36,-6.05 -4.18,-8.78 -0.63,-0.94 -1.39,-1.23 -2.48,-1.05 -2.86,0.48 -5.56,1.4 -8.14,2.73 -5.36,2.77 -10.26,6.21 -14.82,10.13 -3.18,2.74 -6.71,4.84 -10.61,6.37 -3.39,1.33 -6.84,2.46 -10.52,2.78 0.17,0.13 0.34,0.18 0.52,0.23 5.88,1.44 11.61,1.19 17.11,-1.51 1.97,-0.97 3.92,-1.98 6.07,-3.07 z m 16.03,9.42 c 0.23,-0.06 0.49,-0.06 0.67,-0.18 3,-1.89 5.68,-4.13 7.75,-7.04 0.33,-0.47 0.62,-0.96 1.04,-1.62 -1.41,-0.8 -2.64,-1.72 -4.01,-2.26 -4.46,-1.74 -9,-2.02 -13.57,-0.38 -4.24,1.52 -8.23,3.57 -12.18,5.69 -6.82,3.65 -13.89,3.81 -21.14,1.68 -0.99,-0.29 -1.92,-0.82 -3.16,-1.36 1.35,1.79 2.33,3.46 3.97,4.59 2.44,1.69 5.15,2.31 8.05,2.1 1.7,-0.12 3.39,-0.41 5.06,-0.72 5.13,-0.96 10.22,-2.1 15.37,-2.91 4.2,-0.66 8.4,-0.66 12.15,2.41 z m -66.64,69.85 c -0.73,-0.98 -1.42,-1.99 -2.21,-2.92 -0.79,-0.93 -1.42,-2.02 -2.63,-2.75 -0.31,1.06 -0.35,1.98 -0.04,2.87 0.5,1.47 1.01,2.95 1.64,4.37 1.02,2.32 2.12,4.61 3.21,6.89 0.69,1.45 1.41,2.89 2.17,4.31 1.13,2.1 2.91,3.32 5.21,3.94 4.57,1.23 9.16,1.21 13.78,0.43 2.1,-0.35 3.89,-1.24 5.21,-2.96 0.68,-0.89 1.42,-1.74 2.06,-2.66 3.57,-5.15 5.24,-10.95 5.77,-17.13 0.02,-0.22 -0.02,-0.44 -0.04,-0.91 -0.31,0.35 -0.48,0.51 -0.6,0.69 -1.46,2.25 -3.02,4.44 -4.35,6.76 -2.18,3.78 -5.24,6.53 -9.22,8.23 -2.45,1.05 -5.05,1.56 -7.72,1.18 -3.79,-0.53 -6.68,-2.6 -8.94,-5.59 -1.13,-1.49 -2.13,-3.06 -3.3,-4.75 z m -25.21,-65.73 c -6.39,1.13 -12.85,1.79 -19.3,2.47 -3.44,0.37 -6.88,0.82 -10.28,1.41 -3.06,0.53 -5.88,1.76 -8.4,3.62 -0.61,0.45 -1.13,1.01 -1.77,1.59 3.05,2.23 6.39,3.3 9.65,4.67 3.63,-3.89 8.36,-5.57 13.24,-6.88 2.49,-0.67 5.04,-1.2 7.59,-1.54 8.2,-1.09 16,-3.47 23.43,-7.07 3.21,-1.56 6.32,-3.29 9.13,-5.51 0.6,-0.47 0.9,-0.96 0.49,-1.78 -0.25,0.15 -0.45,0.28 -0.66,0.4 -2.22,1.21 -4.37,2.6 -6.69,3.6 -5.21,2.22 -10.59,3.96 -16.43,5.02 z m -41.26,-3.78 c -1.46,1.18 -2.91,2.38 -4,4.34 0.69,-0.16 1.06,-0.22 1.42,-0.33 10.18,-3.04 20.65,-4.18 31.21,-4.48 8,-0.22 15.85,-1.14 23.55,-3.34 3.84,-1.1 7.75,-2.03 11.31,-3.95 0.31,-0.17 0.6,-0.38 0.89,-0.58 -0.35,-0.22 -0.61,-0.24 -0.85,-0.18 -1.41,0.39 -2.8,0.85 -4.22,1.21 -3.75,0.94 -7.59,1.23 -11.44,1.59 -8.61,0.79 -17.24,1.13 -25.88,1.09 -3.55,-0.01 -7.12,-0.16 -10.59,-1.17 -0.33,-0.1 -0.76,0.05 -1.11,0.18 -3.62,1.37 -7.07,3.06 -10.29,5.62 z m 52.14,7.9 c 4.17,-2.7 8.36,-5.39 12.51,-8.13 1.09,-0.72 1.04,-0.8 0.55,-2.16 -1.17,0.8 -2.31,1.63 -3.49,2.4 -4.7,3.05 -9.88,5.08 -15.08,7.06 -4.5,1.7 -9.24,2.41 -13.95,3.19 -4.14,0.69 -8.26,1.47 -12.21,2.95 -2.2,0.82 -4.32,1.82 -6.21,3.23 -0.56,0.42 -1.04,0.95 -1.67,1.53 0.45,0.17 0.67,0.26 0.89,0.33 0.56,0.17 1.12,0.35 1.69,0.47 4.57,0.98 9.23,0.48 13.36,0.85 1.62,-1.24 2.84,-2.29 4.17,-3.16 2.42,-1.59 5.1,-2.64 7.84,-3.55 3.96,-1.3 7.86,-2.7 11.6,-5.01 z m 6.7,-12.32 c -2.25,0.66 -4.49,1.33 -6.74,1.97 -6.41,1.81 -12.95,2.91 -19.61,3.11 -8.45,0.26 -16.86,0.79 -25.19,2.3 -3.93,0.71 -7.81,1.61 -11.72,2.81 0.18,3.25 2.39,4.85 4.81,6.41 1.5,-1.67 3.28,-2.85 5.21,-3.81 3.28,-1.63 6.81,-2.36 10.41,-2.78 6.2,-0.72 12.41,-1.36 18.62,-2.08 7.26,-0.85 14.3,-2.59 21.09,-5.29 2.77,-1.1 5.5,-2.29 7.95,-4.02 0.32,-0.22 0.6,-0.49 0.9,-0.74 -0.03,-0.04 -0.07,-0.07 -0.1,-0.11 -1.82,0.72 -3.62,1.43 -5.63,2.23 z m 50.61,13.04 c 4.3,-1.26 8.62,-2.49 12.91,-3.79 2.99,-0.91 5.86,-2.14 8.6,-3.66 0.31,-0.17 0.58,-0.42 0.9,-0.65 -1.19,-1.17 -2.51,-1.72 -3.99,-1.99 -2.14,-0.39 -4.28,-0.45 -6.41,-0.07 -4.61,0.82 -9.2,1.7 -13.8,2.59 -2.87,0.56 -5.72,1.22 -8.68,1.11 -4.15,-0.16 -7.55,-1.74 -9.98,-5.21 -0.14,-0.21 -0.32,-0.39 -0.49,-0.58 0.16,0.75 0.5,1.38 0.93,1.93 0.55,0.69 1.17,1.31 1.77,1.95 1.56,1.66 3.48,2.63 5.72,3.02 1.44,0.26 2.91,0.42 4.3,0.85 2.65,0.82 5.43,1.54 6.48,4.64 0.03,0.08 0.14,0.12 0.25,0.21 0.42,-0.09 0.85,-0.18 1.49,-0.35 z m -46.43,-2.73 c 0.74,-0.7 1.5,-1.39 2.22,-2.11 0.25,-0.25 0.58,-0.58 0.6,-0.9 0.05,-0.7 -0.07,-1.41 -0.13,-2.18 -0.31,0.11 -0.46,0.13 -0.57,0.2 -1.97,1.36 -3.91,2.75 -5.89,4.09 -5.27,3.57 -10.77,6.71 -16.87,8.66 -1.02,0.33 -2.04,0.68 -3.05,1.03 -2.46,0.84 -4.75,2.04 -6.92,3.46 -0.53,0.35 -1.14,0.67 -1.44,1.42 0.33,0.04 0.51,0.08 0.7,0.08 4.8,0.18 9.55,-0.33 14.29,-1.02 0.5,-0.07 1.03,-0.3 1.45,-0.6 3.9,-2.77 7.8,-5.53 11.63,-8.4 1.4,-1.03 2.57,-2.37 3.98,-3.73 z m 44.42,-36.15 c -0.6,0.83 -1.19,1.67 -1.81,2.48 -3.45,4.56 -7.25,8.81 -11.67,12.47 -1.73,1.44 -3.56,2.73 -5.66,3.58 -0.17,0.07 -0.31,0.23 -0.71,0.55 0.57,-0.05 0.81,-0.06 1.04,-0.09 3.57,-0.58 6.83,-1.93 9.89,-3.83 5.22,-3.24 9.78,-7.25 13.84,-11.84 2.39,-2.7 4.74,-5.44 7.74,-7.53 0.1,-0.07 0.15,-0.21 0.29,-0.42 -0.3,-0.06 -0.53,-0.15 -0.76,-0.15 -2.68,0.06 -5.36,0.09 -8.04,0.23 -0.45,0.02 -0.98,0.41 -1.29,0.78 -0.96,1.16 -1.83,2.4 -2.86,3.77 z m -77.15,20.52 c 4.03,0.43 8.06,0.78 12.12,0.59 3.95,-0.19 7.89,-0.37 11.84,-0.56 0.54,-0.03 1.07,-0.05 1.61,-0.1 0.48,-0.05 0.96,-0.13 1.68,-0.23 -9.62,-1.77 -18.86,-3.94 -27.92,-6.85 -1.33,1.01 -2.63,2.04 -3.97,3.01 -1.35,0.98 -2.73,1.91 -4.1,2.87 0.02,0.1 0.05,0.21 0.07,0.31 2.79,0.31 5.6,0.62 8.67,0.96 z m 75.69,-24.57 c -0.77,0.08 -1.56,0.29 -2.32,0.22 -2.17,-0.21 -3.27,1.09 -4.22,2.72 -0.78,1.35 -1.56,2.7 -2.42,4 -3.08,4.66 -5.57,9.77 -10.07,13.36 -0.51,0.41 -0.48,0.88 -0.05,1.39 2.38,-0.73 4.39,-2.03 6.15,-3.64 2.55,-2.34 5.12,-4.68 7.38,-7.27 2.91,-3.34 5.53,-6.93 8.26,-10.42 0.11,-0.14 0.14,-0.33 0.29,-0.67 -1.02,0.11 -1.88,0.2 -3,0.31 z m -39.51,15.92 c 0.84,0.75 1.71,1.46 2.5,2.25 0.54,0.53 1.07,0.8 1.82,0.47 0.34,-0.15 0.72,-0.2 1.12,-0.31 -0.05,-0.22 -0.05,-0.37 -0.12,-0.48 -0.56,-0.85 -1.1,-1.73 -1.72,-2.54 -4.22,-5.48 -9.5,-9.76 -15.33,-13.4 -0.3,-0.19 -0.76,-0.37 -1.06,-0.28 -1.32,0.41 -2.6,0.91 -3.9,1.38 -0.03,0.13 -0.06,0.27 -0.08,0.4 5.76,3.83 11.38,7.86 16.77,12.51 z m -23.81,11.85 c 2.87,-0.25 5.73,-0.51 8.6,-0.74 2.65,-0.21 5.27,-0.59 7.82,-1.36 -3.81,0.13 -7.6,0.34 -11.4,0.47 -3.75,0.13 -7.51,0.25 -11.26,0.22 -2.14,-0.02 -4.28,-0.31 -6.41,-0.57 -3.19,-0.4 -6.37,-0.89 -9.56,-1.31 -0.41,-0.05 -0.89,-0.05 -1.25,0.11 -1.86,0.86 -3.69,1.78 -5.52,2.69 -0.09,0.05 -0.14,0.19 -0.28,0.37 0.33,0.08 0.55,0.17 0.78,0.19 3.74,0.42 7.48,0.73 11.24,0.59 5.66,-0.2 11.32,-0.42 17.24,-0.66 z m 44.82,-9.68 c 1.28,-1.53 2.7,-2.97 3.81,-4.62 2.69,-4.01 5.24,-8.11 7.84,-12.19 0.07,-0.11 0.06,-0.26 0.12,-0.5 -2.33,0.22 -4.6,0.43 -6.8,0.64 -2.54,5.81 -5.04,11.5 -7.55,17.23 0.33,0.28 0.63,0.52 1,0.83 0.49,-0.42 0.96,-0.84 1.58,-1.39 z m -29.71,-7.53 c -3.16,-2.27 -6.32,-4.53 -9.58,-6.86 -1.05,0.57 -2.18,1.2 -3.7,2.03 0.65,0.47 1.07,0.72 1.43,1.04 2.09,1.85 4.42,3.36 6.87,4.68 2.66,1.43 5.32,2.86 7.94,4.37 1.9,1.09 3.73,2.3 5.58,3.48 0.63,0.4 1.2,0.64 1.87,-0.15 -3.28,-3.01 -6.78,-5.72 -10.41,-8.59 z m -2.49,10.98 c -2.15,-0.77 -4.35,-1.45 -6.45,-2.35 -3.08,-1.32 -6.1,-2.8 -9.13,-4.25 -0.7,-0.33 -1.34,-0.8 -1.96,-1.27 -0.6,-0.46 -1.13,-1.01 -1.72,-1.54 -1.75,1.43 -3.41,2.8 -5.27,4.33 0.78,0.28 1.26,0.49 1.76,0.63 2.3,0.63 4.59,1.31 6.91,1.85 5.64,1.3 11.3,2.54 16.96,3.78 0.85,0.19 1.72,0.24 2.59,-0.07 -1.15,-0.33 -2.31,-0.68 -3.69,-1.11 z m 50.32,22.35 c 0.3,-0.11 0.6,-0.23 0.91,-0.35 -0.32,-1.4 -1.17,-2.18 -2.33,-2.73 -2.05,-0.97 -4.21,-1.51 -6.44,-1.79 -3.34,-0.41 -6.12,-1.85 -8.27,-4.46 -0.38,-0.46 -0.82,-0.88 -1.23,-1.32 -0.1,0.34 -0.02,0.55 0.08,0.75 2.08,4.2 4.9,7.82 8.49,10.85 0.58,0.49 1.09,0.67 1.84,0.5 2.23,-0.51 4.48,-0.94 6.95,-1.45 z m -65.25,-29.96 c 7.32,3.85 15,6.71 23.11,8.34 -8.24,-3.58 -16.19,-7.64 -23.29,-13.42 -0.98,0.78 -2,1.58 -3.05,2.41 0.75,1.27 1.92,1.89 3.23,2.67 z m 47.86,-12.35 c -0.86,0.01 -1.72,0.03 -2.51,0.04 -1.01,2.76 -3.75,14.65 -3.69,15.99 0.53,0.11 1.08,0.22 1.59,0.33 1.9,-3.43 7.1,-15.23 7.22,-16.36 -0.78,-0.01 -1.55,-0.01 -2.61,0 z m -33.87,12.13 c -3.89,-1.95 -7.54,-4.26 -10.67,-7.44 -0.81,0.6 -1.54,1.13 -2.46,1.8 1.17,0.94 2.15,1.82 3.22,2.56 4.35,2.98 9.06,5.35 13.71,7.82 1.2,0.64 2.48,1.14 3.75,1.65 0.72,0.29 1.48,0.51 2.24,0.67 0.42,0.08 0.89,-0.04 1.5,-0.08 -1.3,-1.38 -6.04,-4.29 -11.29,-6.98 z m 7.5,-8.39 c 4.26,3.38 8.1,7.17 11.19,11.7 -0.14,-0.76 -0.36,-1.44 -0.67,-2.09 -0.57,-1.19 -1.14,-2.38 -1.79,-3.52 -2.23,-3.92 -5.23,-7.28 -8.02,-10.79 -0.26,-0.33 -0.81,-0.65 -1.2,-0.62 -1.82,0.12 -3.63,0.42 -5.52,1.07 2.05,1.43 3.95,2.77 6.01,4.25 z m 17.11,6.01 c 0,2.07 -0.23,4.15 0.1,6.28 0.56,-0.05 0.98,-0.09 1.39,-0.13 1.3,-5.33 2.59,-10.56 3.89,-15.89 -1.56,-0.12 -3.01,-0.23 -4.58,-0.35 -0.74,3.29 -0.7,6.55 -0.8,10.09 z m -15.35,36.45 c 0.82,-2.4 0.82,-4.92 1.09,-7.43 -0.36,0.23 -0.6,0.52 -0.87,0.78 -1.29,1.26 -2.49,2.63 -3.9,3.74 -2.96,2.32 -6.02,4.49 -9.04,6.73 -0.1,0.08 -0.18,0.2 -0.44,0.5 0.94,-0.19 1.64,-0.3 2.33,-0.47 3.17,-0.8 6.33,-1.62 9.49,-2.44 0.62,-0.17 1.25,-0.36 1.34,-1.41 z m 11.17,-31.74 c 0.14,0.4 0.29,0.8 0.43,1.2 -0.55,-5.64 -0.38,-11.32 -1.64,-16.9 -1.24,-0.15 -2.43,-0.29 -3.81,-0.45 0.22,0.72 0.37,1.23 0.53,1.73 1.52,4.72 3.38,9.33 4.49,14.42 z m 3.09,-9.59 c 0.08,-0.87 0.16,-1.75 0.25,-2.62 0.1,-0.89 0.22,-1.78 0.34,-2.75 -1.21,-0.15 -2.24,-0.28 -3.36,-0.42 0.04,0.63 0.05,1.06 0.1,1.49 0.28,2.91 0.58,5.81 0.86,8.72 0.2,2.04 0.38,4.07 0.55,6.11 0.05,0.57 0.3,0.77 0.87,0.54 0.13,-3.61 0.25,-7.2 0.39,-11.07 z m -6.78,3.38 c 0.23,0.32 0.46,0.64 0.69,0.95 0.07,-0.04 0.15,-0.09 0.22,-0.13 -1.23,-3.62 -2.46,-7.23 -3.69,-10.85 -1.53,0 -2.96,0 -4.51,0 2.45,3.36 4.82,6.6 7.29,10.03 z m 22.08,33.31 c -1.15,-1.4 -2.3,-2.79 -3.45,-4.19 -0.07,0.04 -0.14,0.07 -0.21,0.11 0.72,2.33 1.43,4.67 2.18,7.09 1.4,-0.15 2.61,-0.28 3.86,-0.42 -0.82,-0.89 -1.53,-1.66 -2.38,-2.59 z m -27.67,1.84 c -0.19,1.07 -0.37,2.15 -0.58,3.35 0.66,-0.18 1.16,-0.32 1.73,-0.48 -0.17,-2.17 -0.33,-4.22 -0.49,-6.27 -0.09,0 -0.19,0 -0.28,0.01 -0.13,1.04 -0.24,2.08 -0.38,3.39 z"
   id="path1" />
		<path
   d="m 346.26,317.9 c -0.1,-0.69 -0.25,-1.27 -0.25,-1.84 0,-0.25 0.3,-0.51 0.47,-0.76 0.21,0.17 0.56,0.32 0.59,0.52 0.19,1.09 0.33,2.19 0.42,3.3 0.02,0.21 -0.27,0.45 -0.41,0.68 -0.22,-0.21 -0.54,-0.38 -0.64,-0.63 -0.14,-0.35 -0.12,-0.76 -0.18,-1.27 z"
   id="path2" />
		<path
   d="m 342.66,289.14 c -0.31,-0.04 -0.67,-0.09 -0.7,-0.23 -0.25,-1.03 -0.46,-2.07 -0.63,-3.11 -0.02,-0.15 0.22,-0.47 0.39,-0.5 0.17,-0.03 0.54,0.15 0.57,0.29 0.26,1.15 0.78,2.27 0.37,3.55 z"
   id="path3" />
		<path
   d="m 347.92,332.06 c 0.55,-0.37 0.89,-0.1 0.93,0.31 0.09,0.96 0.09,1.93 0.05,2.9 -0.01,0.18 -0.37,0.48 -0.57,0.48 -0.17,0 -0.48,-0.35 -0.49,-0.55 -0.04,-1.02 0,-2.04 0.08,-3.14 z"
   id="path4" />
		<path
   d="m 347.2,327.2 c -0.06,-0.75 -0.17,-1.37 -0.15,-1.99 0.01,-0.26 0.31,-0.5 0.47,-0.76 0.19,0.18 0.52,0.34 0.55,0.54 0.14,0.9 0.23,1.81 0.25,2.71 0,0.24 -0.33,0.48 -0.51,0.72 -0.2,-0.22 -0.42,-0.43 -0.59,-0.68 -0.06,-0.09 -0.01,-0.27 -0.02,-0.54 z"
   id="path5" />
		<path
   d="m 345.39,307.44 c 0.32,0.12 0.68,0.27 0.71,0.47 0.15,0.9 0.25,1.82 0.29,2.73 0.01,0.2 -0.29,0.42 -0.45,0.63 -0.19,-0.17 -0.52,-0.33 -0.56,-0.53 -0.18,-1.08 -0.57,-2.16 0.01,-3.3 z"
   id="path6" />
		<path
   d="m 343.53,292.62 c 0.15,0.88 0.3,1.64 0.34,2.41 0.01,0.27 -0.24,0.56 -0.38,0.83 -0.24,-0.19 -0.63,-0.35 -0.68,-0.58 -0.18,-0.8 -0.31,-1.62 -0.34,-2.44 -0.02,-0.64 0.26,-0.71 1.06,-0.22 z"
   id="path7" />
		<path
   d="m 336.83,352.54 c 0.71,-0.21 1.31,-0.42 1.92,-0.52 0.27,-0.04 0.57,0.17 0.86,0.27 -0.15,0.26 -0.23,0.68 -0.45,0.75 -0.67,0.24 -1.39,0.48 -2.09,0.5 -0.63,0.01 -0.84,-0.41 -0.24,-1 z"
   id="path8" />
		<path
   d="m 344.65,349.3 c -0.44,0.46 -0.77,0.88 -1.19,1.19 -0.16,0.12 -0.59,0.07 -0.75,-0.07 -0.12,-0.11 -0.09,-0.55 0.04,-0.73 0.36,-0.51 0.8,-0.96 1.22,-1.43 0.26,-0.29 0.57,-0.67 0.95,-0.3 0.16,0.15 0.07,0.59 0.05,0.9 -0.03,0.12 -0.17,0.23 -0.32,0.44 z"
   id="path9" />
		<path
   d="m 344.33,303.33 c -0.15,-0.78 -0.3,-1.46 -0.33,-2.13 -0.01,-0.26 0.28,-0.54 0.44,-0.81 0.22,0.21 0.57,0.4 0.63,0.65 0.17,0.66 0.26,1.34 0.29,2.02 0.01,0.23 -0.21,0.52 -0.41,0.67 -0.06,0.06 -0.37,-0.18 -0.62,-0.4 z"
   id="path10" />
		<path
   d="m 346.64,344.08 c 0.03,-0.91 0.1,-1.72 0.24,-2.52 0.03,-0.18 0.29,-0.43 0.47,-0.45 0.17,-0.02 0.44,0.18 0.53,0.36 0.24,0.48 -0.2,2.36 -0.63,2.7 -0.11,0.09 -0.35,0.01 -0.61,-0.09 z"
   id="path11" />
		<path
   d="m 340.16,279.03 c 0.88,0.69 0.9,1.62 0.9,2.53 0,0.17 -0.25,0.37 -0.42,0.5 -0.06,0.05 -0.34,-0.05 -0.38,-0.13 -0.33,-0.89 -0.85,-1.75 -0.45,-2.75 0.03,-0.06 0.16,-0.1 0.35,-0.15 z"
   id="path12" />
		<path
   d="m 325.99,349.65 c -0.26,-0.68 0.06,-1 0.56,-0.81 0.61,0.23 1.16,0.66 1.7,1.05 0.11,0.07 0.16,0.41 0.08,0.51 -0.12,0.16 -0.43,0.36 -0.56,0.3 -0.58,-0.27 -1.14,-0.63 -1.78,-1.05 z"
   id="path13" />
		<path
   d="m 332.11,353.18 c -0.47,-0.2 -0.92,-0.37 -0.65,-0.85 0.11,-0.19 0.57,-0.29 0.85,-0.26 0.43,0.04 0.87,0.19 1.24,0.39 0.19,0.1 0.33,0.44 0.33,0.68 0,0.11 -0.36,0.34 -0.55,0.33 -0.37,-0.02 -0.74,-0.16 -1.22,-0.29 z"
   id="path14" />
		<path
   d="m 339.55,274.03 c 0.05,0.49 0.21,1 -0.32,1.05 -0.24,0.02 -0.52,-0.41 -0.78,-0.65 -0.03,-0.03 -0.04,-0.09 -0.04,-0.14 -0.02,-0.52 -0.62,-1.25 0.23,-1.48 0.69,-0.17 0.7,0.64 0.91,1.22 z"
   id="path15" />
		<path
   d="m 337.88,268.9 c 0.12,-0.41 0.28,-0.71 0.43,-1.01 0.18,0.12 0.49,0.22 0.53,0.38 0.09,0.34 0.18,0.85 0.01,1.05 -0.41,0.47 -0.74,0.13 -0.97,-0.42 z"
   id="path16" />
	</g>
</g>
</svg>
