<?xml version="1.0" encoding="UTF-8" standalone="no"?>
<!-- Generator: Adobe Adobe Illustrator 24.2.0, SVG Export Plug-In . SVG Version: 6.00 Build 0)  -->

<svg
   version="1.1"
   id="Layer_1"
   x="0px"
   y="0px"
   width="273.5051"
   height="200.72771"
   viewBox="0 0 273.5051 200.72771"
   xml:space="preserve"
   sodipodi:docname="lechuga.svg"
   inkscape:version="1.4 (e7c3feb1, 2024-10-09)"
   xmlns:inkscape="http://www.inkscape.org/namespaces/inkscape"
   xmlns:sodipodi="http://sodipodi.sourceforge.net/DTD/sodipodi-0.dtd"
   xmlns="http://www.w3.org/2000/svg"
   xmlns:svg="http://www.w3.org/2000/svg"><defs
   id="defs10" /><sodipodi:namedview
   id="namedview10"
   pagecolor="#ffffff"
   bordercolor="#000000"
   borderopacity="0.25"
   inkscape:showpageshadow="2"
   inkscape:pageopacity="0.0"
   inkscape:pagecheckerboard="0"
   inkscape:deskcolor="#d1d1d1"
   inkscape:zoom="1.6816667"
   inkscape:cx="143.31021"
   inkscape:cy="100.79286"
   inkscape:window-width="1200"
   inkscape:window-height="1186"
   inkscape:window-x="0"
   inkscape:window-y="0"
   inkscape:window-maximized="0"
   inkscape:current-layer="Layer_1" />
<g
   id="g10"
   transform="translate(-156.55641,-199.48438)">
	<g
   id="g9">
		<path
   d="m 362.19,304.89 c 10.8,5.03 20.9,11.06 30.32,18.15 8.14,6.12 15.32,13.31 21.69,21.28 3.17,3.96 6.46,7.83 9.68,11.75 0.93,1.13 1.83,2.28 2.74,3.43 0.57,0.72 1.11,1.43 2.08,1.73 0.76,0.23 1.01,1 1.18,1.74 0.39,1.67 0.08,3.31 -0.26,4.93 -1.03,4.91 -2.95,9.5 -5.38,13.87 -1.32,2.38 -2.85,4.66 -4.4,6.9 -0.71,1.03 -1.65,1.93 -2.57,2.8 -0.56,0.53 -1.23,0.98 -1.93,1.3 -2.12,0.97 -4.28,1.86 -6.43,2.79 -0.27,0.12 -0.53,0.27 -0.8,0.35 -3.78,1.14 -7.47,2.57 -11.42,3.1 -1.79,0.24 -3.56,0.62 -5.34,0.88 -4.11,0.61 -8.18,0.35 -12.18,-0.75 -4.09,-1.12 -8.16,-2.32 -12.25,-3.47 -2.83,-0.79 -5.7,-1.39 -8.64,-1.48 -1.99,-0.06 -3.99,0.14 -5.99,0.25 -9.17,0.51 -18.33,0.87 -27.47,-0.42 -3.27,-0.46 -6.38,-1.41 -9.34,-2.85 -6.12,-2.96 -12.39,-5.49 -18.89,-7.48 -5.93,-1.82 -11.95,-2.18 -18.1,-1.81 -3.64,0.22 -7.29,0.65 -10.96,0.22 -3.52,-0.41 -6.93,-1.21 -10.07,-2.89 -2.53,-1.36 -4.98,-2.89 -7.48,-4.31 -2.67,-1.51 -5.31,-3.1 -8.07,-4.43 -4.69,-2.26 -9.6,-2.71 -14.69,-1.46 -2.07,0.51 -4.22,0.82 -6.35,0.98 -4.3,0.33 -8.36,-0.71 -12.09,-2.81 -2.5,-1.41 -4.89,-3.04 -7.28,-4.63 -2.15,-1.43 -4.22,-3 -6.38,-4.41 -4.65,-3.04 -9.8,-4.23 -15.32,-4.01 -2,0.08 -4.01,0.28 -5.99,0.13 -5.01,-0.38 -9.3,-2.49 -12.83,-6.03 -2.11,-2.11 -3.05,-4.85 -3.63,-7.71 -0.67,-3.27 -0.73,-6.59 -0.64,-9.91 0.04,-1.61 0.21,-3.22 0.2,-4.83 -0.02,-2.05 -0.08,-4.1 -0.27,-6.13 -0.3,-3.26 0.24,-6.4 1.1,-9.53 1.26,-4.59 3.84,-8.29 7.4,-11.36 2.4,-2.07 4.84,-4.1 7.26,-6.15 0.67,-0.57 1.34,-1.14 1.96,-1.76 1.14,-1.16 2.35,-2.19 3.83,-2.91 0.38,-0.19 0.71,-0.5 1.07,-0.76 -0.4,-1.99 -1.07,-3.83 -2.11,-5.49 -1.52,-2.44 -3.15,-4.81 -4.77,-7.2 -0.77,-1.13 -1.62,-2.2 -2.4,-3.32 -3.76,-5.4 -4.83,-11.42 -4.04,-17.85 0.23,-1.84 0.45,-3.68 0.79,-5.5 0.67,-3.52 2.47,-6.28 5.55,-8.24 2.62,-1.67 5.45,-2.57 8.52,-2.83 0.28,-0.02 0.57,-0.07 0.76,-0.09 0.33,-2.5 0.52,-4.92 0.98,-7.3 1.04,-5.39 3.57,-9.87 8.36,-12.86 3.09,-1.93 5.56,-4.44 7.24,-7.69 1.26,-2.44 3.18,-4.2 5.67,-5.29 3.3,-1.44 6.51,-3.16 10.1,-3.82 2.59,-0.48 5.09,-0.2 7.32,1.26 3.45,2.24 7.24,3.31 11.31,3.6 2.73,0.19 5.23,1.14 7.61,2.44 3.15,1.72 6.03,3.8 8.57,6.34 1.96,1.97 3.87,4 5.75,6.05 1.93,2.11 4.01,3.96 6.73,5.04 1.96,0.77 3.36,2.3 4.58,3.99 0.68,0.95 1.32,1.94 2.07,2.84 2.05,2.45 4.22,2.86 7.18,1.62 0.71,-0.3 1.63,-0.32 2.42,-0.2 2.47,0.38 4.85,1.09 7.01,2.42 1,0.61 2.05,1.14 3.09,1.66 1.46,0.73 3.02,0.9 4.55,0.35 2.23,-0.81 4.4,-0.56 6.6,0.06 6.06,1.71 10.88,5.21 14.61,10.21 2.11,2.84 3.27,6.09 3.4,9.66 0,0.1 0.02,0.19 0.02,0.29 0.07,3.96 1.76,6.92 5.35,8.73 0.39,0.2 0.75,0.46 1.14,0.66 2.43,1.24 3.65,3.28 4.03,5.91 0.1,0.72 0.21,1.45 0.34,2.17 0.68,3.61 3.22,5.81 6.89,5.96 3.06,0.13 4.51,1.49 4.84,4.56 0.09,0.87 0.18,1.75 0.21,2.63 0.07,2.32 0.94,4.33 2.57,5.89 3.65,3.49 7.57,6.56 12.57,8.03 2.53,0.71 4.94,1.96 7.52,3.02 z m -101.97,-32.5 c 1.13,-0.65 2.33,-1.18 3.27,-2.29 -0.44,-0.32 -0.78,-0.58 -1.12,-0.82 -2.46,-1.68 -4.99,-3.27 -7.37,-5.05 -5.86,-4.39 -11.63,-8.9 -17.47,-13.31 -4.15,-3.14 -7.84,-6.75 -11.25,-10.66 -0.19,-0.22 -0.43,-0.43 -0.53,-0.69 -0.09,-0.24 -0.12,-0.67 0.02,-0.79 0.21,-0.18 0.6,-0.23 0.9,-0.21 0.22,0.01 0.44,0.21 0.63,0.35 2.64,1.93 5.28,3.86 7.9,5.81 4,2.97 7.93,6.03 11.99,8.91 3.18,2.26 6.54,4.27 9.77,6.46 7.32,4.96 14.91,9.47 22.71,13.64 0.5,0.27 1.01,0.5 1.57,0.78 0.5,-0.87 0.32,-1.65 0.19,-2.4 -0.47,-2.6 -1.32,-5.09 -2.31,-7.54 -1.55,-3.84 -3.07,-7.7 -4.49,-11.6 -1.03,-2.81 -1.72,-5.71 -1.03,-8.75 0.1,-0.42 0.05,-0.95 0.63,-1.01 0.6,-0.06 0.62,0.49 0.78,0.88 0.49,1.22 0.91,2.47 1.5,3.64 0.77,1.52 1.71,2.96 2.53,4.46 1.49,2.74 3.06,5.45 4.37,8.28 0.88,1.89 1.5,3.92 2.01,5.94 0.74,2.98 0.35,5.82 -1.65,8.3 -0.2,0.24 -0.33,0.53 -0.51,0.82 0.26,0.16 0.41,0.28 0.59,0.36 5.47,2.48 10.83,5.2 16.42,7.37 13.42,5.2 26.86,10.34 40.55,14.81 2.12,0.69 4.26,1.32 6.39,1.98 0.04,-0.08 0.09,-0.17 0.13,-0.25 -0.41,-0.31 -0.82,-0.61 -1.22,-0.93 -1.58,-1.3 -3.23,-2.53 -4.72,-3.93 -1.86,-1.77 -2.97,-3.97 -3.13,-6.59 -0.05,-0.78 -0.11,-1.56 -0.16,-2.34 -0.17,-2.88 -1.07,-3.89 -3.9,-3.97 -4.19,-0.12 -7.3,-3.39 -7.86,-7.01 -0.13,-0.82 -0.28,-1.63 -0.41,-2.45 -0.33,-2.17 -1.42,-3.77 -3.39,-4.83 -1.2,-0.64 -2.33,-1.42 -3.44,-2.22 -1.82,-1.32 -2.9,-3.14 -3.27,-5.36 -0.18,-1.06 -0.31,-2.13 -0.38,-3.19 -0.22,-3.36 -1.3,-6.42 -3.33,-9.08 -3.64,-4.75 -8.28,-8.08 -14.13,-9.64 -1.83,-0.49 -3.61,-0.62 -5.46,0 -1.98,0.67 -3.96,0.44 -5.83,-0.51 -0.96,-0.49 -1.92,-0.98 -2.82,-1.54 -2.07,-1.3 -4.36,-1.94 -6.73,-2.34 -0.58,-0.1 -1.28,-0.01 -1.82,0.23 -2.84,1.29 -5.78,0.83 -7.91,-1.44 -0.93,-0.99 -1.71,-2.13 -2.49,-3.25 -1.34,-1.93 -3,-3.45 -5.22,-4.31 -1.67,-0.65 -3.07,-1.7 -4.32,-2.95 -1.03,-1.04 -1.99,-2.15 -3.02,-3.19 -2.35,-2.35 -4.58,-4.83 -7.11,-6.95 -4.25,-3.57 -8.96,-6.13 -14.75,-6.44 -3.22,-0.17 -6.34,-1.2 -9.07,-3.05 -3.05,-2.07 -6.29,-2.25 -9.64,-0.99 -2.51,0.94 -4.98,2.01 -7.43,3.1 -2.25,1 -4.01,2.56 -5.16,4.79 -1.79,3.47 -4.44,6.17 -7.75,8.2 -3.21,1.98 -5.28,4.85 -6.68,8.28 -1.06,2.61 -1.39,5.37 -1.7,8.14 -0.28,2.45 0.27,4.74 1.46,6.9 2.15,3.9 3.9,7.97 5.32,12.19 0.68,2.01 0.98,4.06 0.86,6.19 -0.1,1.94 -0.04,3.89 -0.04,5.84 0,1.19 0.49,2.18 1.36,2.98 0.61,0.56 1.24,1.11 1.86,1.65 1.71,1.49 3.11,3.23 4.24,5.19 0.8,1.39 1.21,2.87 1.05,4.48 -0.16,1.55 -0.27,3.11 -0.45,4.66 -0.21,1.71 0.01,3.35 1,4.76 1.09,1.55 2.19,3.13 3.5,4.49 3.19,3.33 6.86,6.12 10.92,8.3 3.26,1.75 6.64,3.31 10.04,4.76 4.69,2 9.1,4.49 13.32,7.32 2.88,1.93 5.69,3.95 8.56,5.9 4.88,3.31 10.38,4.65 16.18,4.87 4.16,0.16 8.13,-0.76 11.96,-2.4 2.15,-0.91 4.33,-1.82 6.58,-2.4 3.76,-0.97 7.65,-0.86 11.5,-0.69 3.6,0.16 7.02,1.29 10.27,2.73 5.85,2.6 11.98,3.68 18.32,4.08 6.37,0.4 12.28,2.15 17.18,6.55 1.19,1.07 2.5,2.03 3.82,2.95 1.04,0.72 2.15,1.34 3.27,1.94 1.14,0.62 2.37,0.89 3.67,0.74 1.74,-0.2 3.52,-0.27 5.23,-0.62 2.19,-0.46 4.16,-0.06 6.06,0.99 0.77,0.42 1.51,0.9 2.23,1.4 0.8,0.56 1.62,0.68 2.61,0.59 1.09,-0.09 2.29,-0.04 3.29,0.34 2,0.76 3.88,1.8 5.83,2.7 1.06,0.49 2.08,1.12 3.2,1.4 2.74,0.68 5.5,1.38 8.3,1.75 5.98,0.8 11.59,2.6 16.89,5.46 1.59,0.86 3.2,1.68 4.82,2.46 1.76,0.85 3.54,1.64 5.32,2.43 0.33,0.15 0.69,0.21 1.03,0.32 -0.32,-0.87 -0.76,-1.57 -1.31,-2.16 -1,-1.07 -2.06,-2.08 -3.09,-3.12 -6.19,-6.3 -12.33,-12.66 -18.87,-18.61 -9.49,-8.64 -19.87,-15.9 -31.48,-21.41 -8.21,-3.9 -16.82,-6.81 -25.26,-10.13 -0.46,-0.18 -1.04,-0.13 -1.56,-0.09 -3.3,0.27 -6.6,0.8 -9.91,0.83 -7.32,0.06 -14.64,-0.14 -21.96,-0.19 -3.42,-0.02 -6.85,-0.15 -10.25,0.11 -6.94,0.54 -13.68,2.18 -20.23,4.52 -2.71,0.96 -5.32,2.17 -7.98,3.27 -0.43,0.18 -0.92,0.35 -1.11,-0.2 -0.08,-0.24 0.19,-0.75 0.44,-0.92 1.6,-1.11 3.21,-2.22 4.88,-3.23 3.69,-2.23 7.66,-3.86 11.66,-5.44 6.66,-2.64 13.59,-3.94 20.72,-4.03 4.19,-0.06 8.38,0.32 12.58,0.46 2.73,0.09 5.46,0.12 8.2,0.17 0.31,0.01 0.61,-0.07 0.92,-0.1 -0.4,-0.43 -0.82,-0.63 -1.26,-0.8 -5.57,-2.1 -11.17,-4.12 -16.71,-6.29 -12.53,-4.92 -24.38,-11.19 -35.86,-18.19 -0.48,-0.3 -0.98,-0.57 -1.53,-0.9 -2.5,5.5 -6.75,8.94 -12.03,11.18 -6.88,2.92 -14.02,4.05 -21.47,3 -3.64,-0.51 -7.2,-1.29 -10.63,-2.62 -0.32,-0.12 -0.67,-0.2 -0.94,-0.39 -0.29,-0.21 -0.5,-0.52 -0.74,-0.79 0.29,-0.21 0.55,-0.47 0.87,-0.6 0.31,-0.12 0.67,-0.09 1.01,-0.12 5.25,-0.42 10.5,-0.84 15.76,-1.26 8.3,-0.67 16.09,-3.05 23.71,-6.81 z m 111.3,89.24 c -0.58,-0.25 -1.17,-0.49 -1.75,-0.74 -10.47,-4.68 -21.41,-8.22 -31.76,-13.18 -0.55,-0.26 -1,-0.21 -1.53,-0.03 -2.32,0.81 -4.7,1.33 -7.16,1.33 -3.07,0 -6.15,-0.06 -9.22,-0.17 -5.49,-0.2 -10.93,0.09 -16.27,1.45 -5.72,1.46 -11.43,2.93 -17.17,4.33 -1.36,0.33 -2.79,0.42 -4.2,0.53 -0.36,0.03 -0.96,-0.21 -1.07,-0.48 -0.24,-0.57 0.33,-0.82 0.77,-1.04 0.13,-0.07 0.27,-0.12 0.4,-0.18 1.64,-0.76 3.25,-1.57 4.91,-2.27 2.74,-1.15 5.48,-2.32 8.28,-3.31 4.29,-1.51 8.81,-2.14 13.25,-3.05 5.33,-1.1 10.69,-1.71 16.14,-1.14 0.68,0.07 1.37,0.02 2.05,0.01 0.31,-0.01 0.61,-0.06 0.92,-0.09 -0.37,-0.41 -0.74,-0.62 -1.13,-0.78 -14.57,-6.13 -29.2,-12.11 -44.44,-16.45 -3,-0.85 -6.06,-1.48 -9.1,-2.18 -0.35,-0.08 -0.78,-0.04 -1.13,0.07 -3.19,1 -6.44,1.61 -9.79,1.5 -0.63,-0.02 -1.11,0.17 -1.58,0.6 -0.65,0.59 -1.36,1.11 -2.08,1.61 -0.17,0.12 -0.47,0.05 -0.71,0.07 -0.05,-0.09 -0.09,-0.18 -0.14,-0.26 0.72,-0.62 1.44,-1.24 2.37,-2.04 -0.68,-0.1 -1.01,-0.12 -1.33,-0.21 -1.28,-0.35 -2.37,-0.16 -3.22,0.98 -0.18,0.24 -0.57,0.33 -0.87,0.49 -0.08,-0.11 -0.17,-0.21 -0.25,-0.32 0.41,-0.48 0.81,-0.96 1.32,-1.57 -0.88,-0.23 -1.64,-0.34 -2.35,-0.62 -1.14,-0.46 -2.13,-0.48 -3.02,0.52 -0.27,0.3 -0.67,0.76 -1.32,0.22 0.53,-0.53 1.02,-1.01 1.6,-1.59 -0.67,-0.28 -1.19,-0.51 -1.62,-0.69 -1.07,0.42 -1.69,1.46 -2.78,1.49 -0.07,-0.1 -0.14,-0.2 -0.21,-0.3 0.62,-0.54 1.24,-1.08 1.93,-1.69 -0.99,-0.57 -1.87,-1.08 -2.67,-1.54 -1.3,0.5 -2.17,1.64 -3.5,1.69 -0.07,-0.12 -0.13,-0.23 -0.2,-0.35 0.91,-0.61 1.82,-1.22 2.86,-1.92 -0.75,-0.51 -1.34,-0.91 -1.85,-1.25 -1.35,0.64 -2.39,1.58 -3.82,1.62 0.62,-1.16 2.06,-1.25 2.98,-2.25 -0.91,-0.65 -1.73,-1.24 -2.59,-1.85 -0.61,0.33 -1.14,0.69 -1.72,0.92 -0.54,0.22 -1.04,0.92 -1.98,0.25 1.02,-0.6 1.89,-1.12 2.92,-1.73 -0.92,-0.59 -1.61,-1.04 -2.24,-1.45 -2.55,1.53 -2.55,1.53 -3.41,1.3 0.89,-0.64 1.68,-1.2 2.61,-1.86 -0.99,-0.59 -1.77,-1.06 -2.49,-1.49 -3.34,2.1 -3.38,2.12 -4.39,1.76 0.98,-1.03 2.59,-1.11 3.45,-2.39 -0.83,-0.48 -1.59,-0.92 -2.36,-1.37 -0.77,0.51 -1.47,1.05 -2.24,1.46 -0.71,0.38 -1.32,1.15 -2.57,0.74 1.24,-1.11 2.79,-1.47 3.8,-2.69 -0.52,-0.27 -0.98,-0.46 -1.37,-0.73 -1.27,-0.87 -2.47,-0.92 -3.69,0.13 -0.43,0.37 -1,0.61 -1.52,0.86 -0.4,0.2 -0.83,0.34 -1.42,0.57 0.15,-1.21 1.07,-1.17 1.6,-1.55 0.61,-0.44 1.28,-0.79 2.14,-1.32 -1.59,-0.68 -2.92,-1.24 -4.19,-1.79 -1.34,0.72 -2.28,1.95 -4.02,2.24 0.64,-1.45 2.29,-1.52 2.89,-2.74 -1.2,-0.57 -2.34,-1.12 -3.33,-1.58 -1.16,0.24 -1.64,1.54 -3.2,1.3 0.83,-0.71 1.44,-1.23 2.16,-1.85 -0.93,-0.54 -1.77,-1.02 -2.64,-1.53 -0.59,0.38 -1.14,0.8 -1.74,1.1 -0.57,0.28 -1.02,1.06 -2.14,0.55 1.09,-0.77 2.01,-1.41 3.06,-2.15 -0.83,-0.55 -1.5,-1 -2.15,-1.44 -0.97,0.61 -1.84,1.16 -2.7,1.7 -0.33,0.21 -0.64,0.27 -0.84,-0.33 0.88,-0.59 1.8,-1.2 2.82,-1.89 -1.16,-0.91 -2.19,-1.71 -3.15,-2.46 -1.37,0.5 -2.42,1.43 -4.13,1.67 0.87,-1.42 2.44,-1.39 3.29,-2.4 -0.62,-0.58 -1.18,-1.1 -1.61,-1.5 -1.12,0 -1.73,1.19 -3.03,0.59 0.84,-0.54 1.49,-0.96 2.19,-1.41 -0.75,-0.84 -1.39,-1.57 -1.97,-2.22 -0.97,-0.08 -1.67,0.82 -2.7,0.35 0.46,-0.85 1.46,-0.65 2.03,-1.29 -0.4,-0.67 -0.82,-1.37 -1.2,-2 -1.13,-0.36 -2.09,0.61 -3.28,0.16 0.73,-1.04 2.01,-0.61 2.74,-1.29 -0.13,-0.85 -0.26,-1.66 -0.38,-2.44 -0.89,-0.54 -2.04,0.16 -3.12,-0.88 1.25,-0.06 2.19,-0.1 3.22,-0.14 0.07,-0.8 0.13,-1.55 0.18,-2.16 -0.8,-0.63 -1.93,-0.03 -2.47,-1.29 0.93,0.09 1.68,0.15 2.58,0.24 0.1,-0.93 0.19,-1.82 0.27,-2.62 -0.93,-0.5 -1.93,0.18 -2.79,-0.87 0.95,-0.12 1.71,-0.21 2.65,-0.33 -0.4,-0.78 -0.72,-1.41 -1,-1.94 -1.11,-0.11 -1.92,0.8 -3.02,0.36 0.54,-1.02 1.77,-0.64 2.38,-1.39 -0.14,-0.23 -0.26,-0.44 -0.41,-0.63 -1.19,-1.64 -1.19,-1.64 -3.19,-1.12 -0.44,0.11 -0.89,0.34 -1.54,-0.26 0.95,-0.35 1.71,-0.63 2.74,-1.01 -0.46,-0.37 -0.76,-0.55 -0.97,-0.8 -0.73,-0.86 -1.55,-1.06 -2.58,-0.54 -0.35,0.18 -0.79,0.36 -1.31,-0.11 0.34,-0.23 0.59,-0.42 0.86,-0.56 0.32,-0.17 0.66,-0.3 0.97,-0.43 -0.45,-1.16 -1.18,-1.62 -2.32,-1.46 -0.33,0.05 -0.69,-0.1 -1.19,-0.19 0.64,-0.98 1.64,-0.28 2.24,-0.87 -0.1,-1 -0.2,-2.01 -0.29,-2.84 -0.55,-0.6 -1.42,-0.05 -1.76,-0.94 0.59,-0.1 1.1,-0.18 1.71,-0.28 0,-0.87 0,-1.73 0,-2.57 -0.86,-0.54 -1.89,0.57 -2.93,-0.49 1.21,-0.23 2.21,-0.43 3.33,-0.64 -0.14,-1.18 -0.27,-2.23 -0.41,-3.34 -1.22,0.25 -2.14,1.32 -3.65,0.9 1.08,-1.05 2.61,-0.92 3.34,-2.13 -0.39,-0.98 -0.78,-1.96 -1.19,-2.98 -0.6,0.24 -1.05,0.43 -1.5,0.59 -0.42,0.15 -0.82,0.58 -1.39,0.13 0.54,-1.04 1.8,-0.88 2.64,-1.66 -0.43,-1.01 -0.87,-2.07 -1.27,-3.02 -0.92,-0.26 -1.7,0.59 -2.66,-0.23 0.8,-0.29 1.41,-0.5 2.15,-0.77 -0.31,-0.67 -0.59,-1.26 -0.75,-1.61 -1.08,-0.58 -2.04,0.58 -3.05,-0.45 0.92,-0.26 1.67,-0.47 2.53,-0.72 -0.62,-1.17 -1.17,-2.18 -1.63,-3.04 -1.24,-0.38 -2.31,0.64 -3.7,-0.28 1.25,-0.29 2.2,-0.52 3.25,-0.76 -0.11,-0.48 -0.2,-0.89 -0.28,-1.26 -0.24,-0.06 -0.38,-0.11 -0.52,-0.12 -0.19,-0.01 -0.39,0 -0.58,0.02 -2.81,0.28 -5.41,1.1 -7.83,2.63 -2.96,1.88 -4.67,4.51 -5.24,7.91 -0.28,1.68 -0.47,3.38 -0.69,5.08 -0.78,5.92 0.17,11.48 3.53,16.51 0.79,1.18 1.65,2.3 2.46,3.46 1.42,2.04 2.86,4.07 4.23,6.15 1.67,2.56 2.76,5.37 3.36,8.37 0.31,1.58 0.62,3.16 0.89,4.75 0.64,3.85 2.22,7.22 4.81,10.17 3.98,4.53 8.53,8.28 13.93,11 4.55,2.29 8.47,5.39 11.55,9.5 0.85,1.13 1.67,2.3 2.61,3.35 1.14,1.27 2.29,2.55 3.61,3.61 2.5,1.99 5.36,2.67 8.54,1.9 4.72,-1.15 9.1,-0.25 13.14,2.39 1.6,1.04 3.17,2.11 4.75,3.18 2.98,2 6.27,3.14 9.83,3.5 2.79,0.28 5.3,1.25 7.59,2.84 3.7,2.57 6.85,5.64 8.95,9.69 1.69,3.27 4.39,5.43 7.72,6.86 0.99,0.42 1.99,0.8 3.01,1.15 2.33,0.83 3.84,2.28 3.84,4.92 0,0.15 0.05,0.29 0.05,0.44 -0.01,0.9 0.49,1.46 1.25,1.81 0.57,0.27 1.15,0.54 1.76,0.73 2.56,0.79 5.13,1.56 7.71,2.3 2.81,0.81 5.66,1.51 8.43,2.42 2.16,0.71 4.09,1.92 5.4,3.85 1.1,1.62 2.58,2.62 4.43,3.15 0.75,0.21 1.48,0.49 2.23,0.71 5.75,1.69 11.39,3.82 17.42,4.38 4.03,0.38 8.04,0.99 12.08,1.21 6.19,0.33 12.39,0.22 18.59,-0.2 3.7,-0.25 7.42,-0.28 11.1,-0.71 5.05,-0.59 10.12,-0.84 15.19,-0.97 6.25,-0.17 12.48,-0.45 18.71,-1.01 1.05,-0.1 2.07,-0.28 3.08,-1.13 -2.33,-1.6 -4.43,-3.29 -6.75,-4.6 -4.37,-2.48 -8.83,-4.79 -13.3,-7.1 -3.34,-1.72 -6.73,-3.34 -10.11,-4.98 -3.7,-1.81 -7.39,-3.58 -11.28,-5.46 z M 184.2,350.21 c -0.1,0.89 -0.21,1.78 -0.32,2.75 0.61,0.05 1.08,0.08 1.49,0.11 0.79,-0.85 0.46,-2.15 1.48,-2.93 0.46,1.19 -0.47,2.05 -0.37,3.13 0.37,0.09 0.77,0.19 1.08,0.26 0.64,-0.45 0.29,-1.46 1.33,-1.65 -0.08,0.71 -0.14,1.3 -0.21,1.94 4.45,1.23 8.1,3.75 11.7,6.36 1.38,1 2.73,2.06 4.18,2.96 2.07,1.29 4.15,2.58 6.34,3.64 3.68,1.79 7.62,2.4 11.69,1.8 1.88,-0.28 3.74,-0.69 5.61,-1.04 0.85,-0.16 1.7,-0.32 2.49,-0.46 0.25,-0.93 -0.72,-1.71 0.1,-2.8 0.37,1.05 0.66,1.89 0.98,2.8 0.48,-0.03 0.95,-0.06 1.55,-0.11 0,-1.14 0,-2.16 0,-3.47 1.17,1.18 0.4,2.49 0.96,3.56 0.52,0.06 1.08,0.13 1.71,0.21 0.13,-1.03 0.19,-1.9 0.36,-2.75 0.16,-0.83 -0.16,-1.83 1,-2.39 -0.17,1.71 -0.33,3.41 -0.51,5.22 0.39,0.11 0.73,0.21 1.04,0.3 0.68,-0.97 0.34,-2.34 1.36,-3.01 0.11,0.04 0.22,0.08 0.34,0.12 -0.25,1 -0.49,2.01 -0.77,3.13 0.49,0.15 0.92,0.29 1.36,0.43 0.2,-0.39 0.34,-0.64 0.47,-0.9 0.13,-0.25 0.24,-0.51 0.37,-0.77 0.15,0.1 0.3,0.2 0.45,0.3 -0.11,0.57 -0.22,1.14 -0.35,1.76 4.63,1.83 8.65,4.63 12.84,7.11 1.51,0.89 3.05,1.75 4.63,2.52 4.03,1.96 8.32,2.75 12.78,2.64 3.32,-0.09 6.63,-0.33 9.94,-0.46 5.36,-0.22 10.6,0.41 15.75,1.99 6.31,1.94 12.43,4.35 18.37,7.22 2.29,1.11 4.63,2.07 7.14,2.58 4.51,0.91 9.09,1.23 13.68,1.33 3.31,0.07 6.64,-0.06 9.95,-0.19 2.97,-0.11 5.94,-0.32 8.91,-0.51 3.79,-0.24 7.51,0.29 11.15,1.26 4.15,1.1 8.26,2.35 12.39,3.5 3.41,0.95 6.89,1.55 10.42,1.16 3.24,-0.36 6.49,-0.85 9.68,-1.54 2.9,-0.63 5.76,-1.51 8.56,-2.48 1.86,-0.64 3.6,-1.65 5.45,-2.51 -0.27,-0.61 -0.47,-1.08 -0.7,-1.59 -2.63,0.55 -5.15,1.09 -7.68,1.62 -0.35,0.07 -0.75,0.36 -1,-0.2 0.15,-0.61 0.74,-0.58 1.16,-0.69 1.09,-0.28 2.19,-0.47 3.29,-0.69 1.42,-0.28 2.84,-0.56 4.25,-0.84 0,-0.75 0,-1.31 0,-2 -1.11,0.13 -2.12,0.21 -3.13,0.36 -3.64,0.56 -7.12,1.64 -10.46,3.19 -0.36,0.17 -0.73,0.55 -1.22,0.08 0.05,-0.61 0.58,-0.73 1,-0.89 1.67,-0.67 3.34,-1.37 5.06,-1.92 2.88,-0.92 5.86,-1.43 8.99,-1.58 0.08,-0.5 0.16,-0.95 0.23,-1.38 -2.97,0.3 -5.81,0.7 -8.66,0.85 -5.6,0.29 -11.22,0.41 -16.83,0.64 -2.39,0.1 -4.77,0.26 -7.16,0.43 -6.08,0.43 -12.16,0.98 -18.25,1.28 -4.34,0.22 -8.69,0.19 -13.03,0.12 -2.87,-0.05 -5.75,-0.31 -8.61,-0.57 -2.52,-0.23 -5.03,-0.74 -7.56,-0.86 -2.41,-0.11 -4.73,-0.59 -7.05,-1.17 -2.27,-0.56 -4.51,-1.24 -6.79,-1.75 -2.04,-0.46 -4.15,-0.67 -6.18,-1.15 -3.51,-0.83 -6.99,-1.79 -10.49,-2.67 -4.08,-1.03 -8.05,-2.37 -11.79,-4.32 -4.16,-2.17 -8.46,-4.01 -12.92,-5.49 -3.8,-1.27 -7.18,-3.27 -10.19,-5.91 -0.77,-0.68 -1.54,-1.36 -2.31,-2.03 -1.82,-1.59 -3.87,-2.8 -6.13,-3.65 -1.14,-0.43 -2.29,-0.83 -3.45,-1.21 -3.44,-1.13 -6.48,-2.91 -9.11,-5.41 -1.24,-1.18 -2.51,-2.34 -3.9,-3.32 -1.18,-0.84 -2.49,-1.59 -3.85,-2.05 -1.76,-0.59 -2.32,-0.03 -2.87,1.16 -0.83,1.8 -2.34,2.51 -4.25,2.58 -2.53,0.09 -4.95,-0.45 -7.3,-1.3 -4.13,-1.49 -7.73,-3.92 -11.21,-6.54 -5.01,-3.77 -9.4,-8.22 -13.7,-12.76 -3.25,-3.44 -6.49,-6.9 -9.89,-10.2 -2.02,-1.96 -4.27,-3.72 -6.55,-5.38 -1.24,-0.9 -2.73,-1.51 -4.18,-2.03 -1.54,-0.55 -2.65,-0.12 -3.54,1.26 -0.57,0.89 -1.01,1.89 -1.32,2.91 -0.51,1.68 -0.29,3.4 0.16,5.06 0.6,2.21 1.35,4.38 1.95,6.59 0.35,1.26 0.69,2.56 0.76,3.86 0.19,3.14 -1.6,5.05 -4.74,5.31 -2.4,0.2 -4.54,-0.41 -6.44,-1.88 -2.73,-2.11 -4.71,-4.78 -6.06,-7.94 -0.24,-0.56 -0.49,-1.11 -0.73,-1.66 -0.1,0.02 -0.2,0.04 -0.3,0.05 -0.04,0.9 -0.08,1.8 -0.11,2.7 -0.12,3.52 -0.07,7.03 0.52,10.51 0.77,4.54 2.98,8.08 7.05,10.4 2.19,1.25 4.47,2.18 6.95,2.62 1.78,0.32 3.56,0.25 5.33,0.04 0.25,-1.43 -0.15,-2.82 0.56,-3.99 0.12,0.01 0.24,0.01 0.35,0.02 0,1.26 0,2.53 0,3.92 0.81,-0.05 1.41,-0.09 1.98,-0.13 0.59,-3.6 0.59,-3.6 1.27,-4.05 -0.12,1.39 -0.23,2.67 -0.35,4.03 0.55,0 0.95,0 1.37,0 0.16,-0.76 0.26,-1.44 0.47,-2.09 0.07,-0.23 0.39,-0.39 0.74,-0.42 z m 18.02,-17.91 c 2.21,2.14 4.36,4.35 6.64,6.4 3.49,3.14 7.22,5.97 11.35,8.24 3.02,1.66 6.21,2.83 9.68,3.09 2.05,0.16 3.72,-0.28 4.69,-2.39 0.65,-1.41 1.77,-1.78 3.31,-1.51 1.47,0.26 2.82,0.86 3.99,1.75 1.6,1.2 3.19,2.43 4.63,3.81 2.81,2.7 6.05,4.61 9.76,5.7 4.15,1.23 7.78,3.31 10.92,6.3 3.12,2.97 6.78,5.07 10.88,6.42 4.27,1.4 8.37,3.22 12.38,5.25 2.13,1.07 4.32,2.09 6.59,2.78 4.9,1.49 9.86,2.76 14.8,4.1 0.19,0.05 0.4,0.01 0.61,0.01 -1.48,-0.85 -2.5,-2.06 -3.51,-3.34 -0.64,-0.82 -1.5,-1.47 -2.24,-2.17 -0.85,0.68 -0.44,1.87 -1.53,2.37 -0.29,-1.06 0.5,-1.86 0.36,-2.9 -0.73,-0.31 -1.52,-0.64 -2.26,-0.95 -0.88,0.86 -0.71,2.29 -2.15,2.68 0.37,-0.95 0.75,-1.91 1.19,-3.03 -1.26,-0.33 -2.4,-0.62 -3.38,-0.87 -0.86,0.69 -0.7,1.86 -2.03,2.23 0.35,-0.94 0.62,-1.66 0.93,-2.49 -1.12,-0.27 -2.14,-0.53 -3.07,-0.75 -0.82,0.57 -0.85,1.75 -2.19,2 0.43,-0.87 0.76,-1.54 1.12,-2.28 -1.09,-0.33 -2.1,-0.63 -3.04,-0.91 -0.94,0.58 -1.2,1.85 -2.55,1.74 0.48,-0.64 0.96,-1.29 1.52,-2.03 -1.22,-0.47 -2.35,-0.9 -3.39,-1.3 -0.92,0.26 -1.32,1.39 -2.69,1.1 0.69,-0.64 1.2,-1.12 1.58,-1.47 -0.41,-1.2 -0.78,-2.27 -1.17,-3.43 -0.5,0.3 -0.97,0.64 -1.49,0.89 -0.46,0.22 -0.85,0.84 -1.76,0.3 1.17,-0.81 2.22,-1.54 3.23,-2.24 -0.68,-1.48 -1.43,-2.01 -3.23,-2.33 -0.3,0.53 -0.58,1.1 -0.94,1.61 -0.35,0.49 -0.44,1.3 -1.61,1.33 0.66,-1.22 1.22,-2.24 1.82,-3.35 -1.23,-0.52 -2.28,-0.96 -3.21,-1.35 -1.06,0.57 -1.37,1.79 -2.61,2.12 0.06,-1.3 1.31,-1.67 1.64,-2.69 -0.76,-0.54 -1.54,-1.08 -2.22,-1.56 -1,0.5 -1.24,1.79 -2.71,1.68 0.74,-0.89 1.34,-1.62 1.95,-2.34 -0.63,-0.69 -1.15,-1.27 -1.69,-1.86 -1.01,0.92 -1.6,2.24 -3.01,2.75 0.13,-0.79 0.13,-0.79 1.01,-1.7 1.63,-1.7 1.64,-1.75 0.4,-3.69 -0.04,-0.07 -0.15,-0.09 -0.23,-0.14 -1.15,0.61 -1.68,2.07 -3.32,2.51 0.68,-1.64 2.2,-2.25 2.86,-3.54 -0.62,-1.08 -1.29,-2.06 -2.24,-2.93 -0.46,0.43 -0.8,0.78 -1.17,1.09 -0.36,0.3 -0.54,0.94 -1.32,0.76 0.18,-1.22 1.39,-1.63 1.9,-2.62 -0.71,-0.64 -1.39,-1.24 -2.04,-1.82 -0.91,0.64 -1.2,1.76 -2.38,2.12 0.03,-1.31 1.32,-1.71 1.51,-2.88 -0.76,-0.55 -1.57,-1.14 -2.36,-1.71 -1.27,0.7 -1.71,2.27 -3.08,2.67 -0.09,-0.09 -0.19,-0.18 -0.28,-0.28 0.79,-0.94 1.58,-1.88 2.48,-2.95 -1,-0.43 -1.88,-0.8 -2.69,-1.14 -1,0.83 -1.23,2.2 -2.62,2.72 0.09,-1.32 1.35,-1.86 1.4,-3.09 -5.37,-0.31 -10.14,-2.13 -14.4,-5.5 -0.41,0.67 -0.7,1.23 -1.08,1.73 -0.32,0.42 -0.41,1.23 -1.46,0.97 0.63,-1.09 1.2,-2.08 1.81,-3.14 -0.85,-0.54 -1.57,-1 -2.4,-1.53 -0.36,0.69 -0.63,1.26 -0.94,1.8 -0.32,0.56 -0.68,1.1 -1.02,1.64 -0.13,-0.06 -0.25,-0.13 -0.38,-0.19 0.09,-1.33 1.23,-2.3 1.53,-3.71 -0.69,-0.32 -1.38,-0.63 -2.15,-0.98 -0.36,0.6 -0.63,1.11 -0.96,1.58 -0.32,0.45 -0.4,1.2 -1.5,1.19 0.57,-1.1 1.04,-2.01 1.61,-3.1 -1.36,-0.18 -2.49,-0.33 -3.55,-0.48 -1.59,3.58 -1.59,3.58 -2.53,4.01 0.04,-1.47 1.34,-2.47 1.41,-3.95 -1.91,0.03 -3.7,0.06 -4.57,2.13 -0.15,0.35 -0.41,0.67 -0.68,0.95 -0.15,0.16 -0.43,0.2 -0.65,0.3 -0.07,-0.07 -0.15,-0.15 -0.22,-0.22 0.46,-0.75 0.93,-1.5 1.41,-2.28 -1.64,-0.21 -3.17,-0.4 -4.63,-0.59 -0.8,0.39 -0.82,1.58 -1.93,1.73 -0.15,-1.01 0.89,-1.42 0.96,-2.26 -0.91,-0.56 -1.82,-1.12 -2.65,-1.63 -0.94,0.23 -1.44,1.25 -2.85,1 0.83,-0.67 1.43,-1.16 1.93,-1.56 -0.41,-0.56 -0.75,-1.03 -1,-1.36 -1.08,0.06 -1.35,1.36 -2.68,1.06 0.7,-0.72 1.25,-1.29 1.85,-1.91 -0.7,-0.88 -1.35,-1.7 -1.96,-2.45 -0.99,0.25 -1.4,1.3 -2.59,1.17 0.35,-1.05 1.52,-1.2 1.89,-2.14 -0.5,-0.61 -1.01,-1.23 -1.54,-1.87 -1.93,2.2 -1.93,2.2 -2.71,2.11 0.72,-0.97 1.41,-1.89 2.18,-2.92 -0.96,-0.96 -1.85,-1.84 -2.71,-2.7 -1.17,0.7 -1.53,2.03 -2.86,2.6 -0.04,-0.88 0.49,-1.27 0.85,-1.74 0.37,-0.48 0.78,-0.94 1.23,-1.48 -0.86,-0.62 -1.56,-1.13 -2.28,-1.64 -1.14,0.86 -1.8,2.13 -3.14,2.8 -0.25,-0.98 0.52,-1.26 0.91,-1.72 0.42,-0.51 0.9,-0.98 1.46,-1.58 -0.96,-0.55 -1.74,-1.01 -2.48,-1.44 -1.07,0.53 -1.19,1.88 -2.41,2.27 -0.07,-1.24 1.07,-1.76 1.38,-2.81 -0.4,-0.21 -0.81,-0.42 -1.14,-0.6 -0.9,0.56 -1.11,1.74 -2.42,1.63 0.5,-0.67 1,-1.34 1.57,-2.12 -0.57,-0.35 -1.09,-0.66 -1.53,-0.93 -0.89,0.47 -0.94,1.61 -1.98,1.89 -0.19,-1.11 0.88,-1.56 1.01,-2.5 -0.41,-0.27 -0.84,-0.56 -1.22,-0.82 -0.91,0.42 -1.02,1.63 -2.43,1.84 0.61,-0.98 1.06,-1.71 1.56,-2.5 -0.52,-0.41 -0.97,-0.76 -1.46,-1.14 -0.28,0.36 -0.47,0.65 -0.7,0.89 -0.21,0.22 -0.46,0.39 -0.69,0.58 -0.1,-0.07 -0.19,-0.13 -0.29,-0.2 0.3,-0.61 0.59,-1.23 0.93,-1.92 -0.49,-0.43 -0.97,-0.87 -1.37,-1.22 -0.85,0.49 -0.78,1.6 -2.07,1.89 0.49,-1.06 0.86,-1.86 1.26,-2.72 -0.4,-0.38 -0.77,-0.73 -1.21,-1.15 -0.41,0.51 -0.73,0.94 -1.09,1.32 -0.36,0.38 -0.51,1.05 -1.44,1.01 0.34,-1.29 1.41,-1.97 1.93,-3.06 -0.55,-0.6 -1.09,-1.2 -1.74,-1.91 -0.49,0.56 -0.84,1.03 -1.27,1.42 -0.37,0.33 -0.49,1.12 -1.38,0.86 0.31,-1.33 1.57,-1.89 2.17,-2.98 -0.32,-0.36 -0.62,-0.72 -0.89,-1.02 -0.85,0.23 -1.04,1.44 -2.3,1.07 0.64,-0.72 1.18,-1.32 1.77,-1.97 -0.19,-0.29 -0.37,-0.55 -0.53,-0.8 -1.09,0.31 -1.56,1.53 -2.87,1.62 0.4,-1.37 1.79,-1.61 2.42,-2.66 -0.21,-0.46 -0.43,-0.96 -0.7,-1.57 -0.79,0.6 -1.38,1.11 -2.04,1.52 -0.62,0.39 -1,1.32 -2.14,0.97 1.1,-1.49 2.72,-2.19 3.96,-3.43 -0.16,-0.5 -0.31,-0.97 -0.51,-1.59 -0.68,0.45 -1.21,0.78 -1.73,1.13 -1.37,0.93 -2.74,1.88 -4.12,2.79 -0.29,0.19 -0.64,0.52 -1.1,-0.09 0.97,-0.94 2.18,-1.56 3.27,-2.33 1.15,-0.81 2.33,-1.58 3.56,-2.42 -0.12,-0.62 -0.24,-1.21 -0.4,-2.01 -1.68,1.2 -3.19,2.27 -4.69,3.34 -1.07,0.77 -2.13,1.55 -3.22,2.3 -0.29,0.2 -0.64,0.55 -1.09,-0.16 2.85,-2.21 5.88,-4.2 8.87,-6.37 -0.14,-0.7 -0.27,-1.35 -0.41,-2.06 -1.47,0.43 -2.54,1.25 -3.55,2.17 -1.55,1.41 -3.12,2.81 -4.69,4.19 -1.87,1.64 -3.8,3.22 -5.64,4.9 -2.03,1.84 -3.93,3.83 -5.13,6.34 -2.23,4.64 -3.26,9.49 -2.21,14.64 0.17,0.85 0.27,1.71 0.43,2.69 0.74,-0.27 1.31,-0.53 1.91,-0.68 0.58,-0.14 1.2,-0.65 1.95,-0.05 -1.11,0.93 -2.63,0.74 -3.61,1.77 0.19,0.47 0.36,0.9 0.53,1.31 1.21,-0.19 1.93,-1.41 3.37,-1.22 -0.78,1.21 -2.21,1.29 -3,2.29 0.2,0.4 0.39,0.76 0.61,1.21 0.59,-0.34 1.08,-0.66 1.6,-0.9 0.5,-0.23 0.86,-0.97 1.7,-0.54 -0.7,1.18 -1.99,1.44 -2.99,2.26 0.31,0.54 0.61,1.06 0.93,1.61 1.21,-0.72 1.81,-2.02 3.16,-2.38 -0.39,1.44 -1.91,2.02 -2.6,3.29 0.5,0.58 0.97,1.13 1.51,1.75 0.53,-0.7 0.97,-1.28 1.41,-1.85 0.93,-1.2 0.94,-1.2 1.78,-1.03 -0.87,1.16 -1.71,2.27 -2.63,3.5 0.68,0.55 1.3,1.06 2.01,1.64 0.4,-0.79 0.69,-1.45 1.05,-2.07 0.36,-0.62 0.37,-1.51 1.5,-1.94 -0.3,1.75 -1.29,2.98 -1.87,4.5 0.84,0.26 1.6,0.5 2.33,0.73 0.76,-1.25 0.09,-2.81 1.11,-3.78 0.12,0.02 0.24,0.05 0.36,0.07 -0.13,1.21 -0.27,2.43 -0.43,3.86 0.92,-0.15 1.6,-0.26 2.2,-0.36 0.4,-1.31 -0.52,-2.54 0.26,-3.77 0.89,0.96 0.22,2.17 0.84,3.22 0.31,-0.31 0.62,-0.52 0.81,-0.82 0.61,-0.96 0.7,-2.04 0.46,-3.11 -0.32,-1.47 -0.75,-2.93 -1.15,-4.38 -0.59,-2.16 -1.31,-4.3 -1.76,-6.49 -0.56,-2.73 -0.06,-5.34 1.59,-7.66 1.15,-1.61 2.69,-2.21 4.6,-1.8 0.76,0.16 1.53,0.4 2.2,0.76 1.33,0.72 2.65,1.47 3.87,2.34 3.04,2.16 5.72,4.73 8.29,7.4 3.19,3.16 6.29,6.48 9.56,9.92 z m 162.05,24.86 c 5.56,2.51 11.13,4.97 16.66,7.55 3.31,1.54 6.51,3.35 9.83,4.88 5.33,2.45 10.42,5.34 15.54,8.17 1.02,0.57 1.97,1.27 2.93,1.94 1.35,0.95 2.68,1.92 4.14,2.98 0.54,-1.47 1.03,-2.83 1.55,-4.28 -1.12,-0.81 -2.17,-1.6 -3.24,-2.35 -1.08,-0.75 -2.16,-1.51 -3.3,-2.18 -1.11,-0.65 -2.3,-1.19 -3.45,-1.78 0.02,-0.11 0.04,-0.22 0.06,-0.33 0.28,-0.02 0.61,-0.14 0.84,-0.04 0.86,0.35 1.74,0.68 2.51,1.18 2,1.3 3.95,2.68 5.93,4.03 0.31,0.21 0.63,0.41 1.01,0.66 0.33,-0.76 0.62,-1.42 0.95,-2.16 -0.54,-0.37 -0.99,-0.74 -1.49,-1.02 -2.29,-1.29 -4.6,-2.55 -6.9,-3.84 -0.43,-0.24 -1.03,-0.34 -1.09,-1.03 0.17,-0.05 0.35,-0.17 0.44,-0.13 3.14,1.64 6.27,3.3 9.54,5.03 0.32,-0.64 0.71,-1.4 1.12,-2.2 -0.37,-0.26 -0.63,-0.49 -0.93,-0.64 -1.93,-0.94 -3.86,-1.85 -5.79,-2.8 -0.39,-0.19 -1,-0.17 -1.06,-0.85 0.13,-0.08 0.27,-0.24 0.36,-0.21 2.77,0.82 5.29,2.19 7.82,3.71 0.46,-0.77 0.87,-1.47 1.35,-2.27 -0.89,-0.46 -1.63,-0.95 -2.44,-1.25 -2.1,-0.79 -4.22,-1.51 -6.34,-2.24 -0.44,-0.15 -0.96,-0.15 -1.22,-0.87 1.37,-0.26 2.44,0.42 3.55,0.75 1.21,0.36 2.41,0.79 3.58,1.28 1.11,0.46 2.17,1.05 3.32,1.61 0.44,-0.67 0.83,-1.26 1.24,-1.86 -0.24,-0.16 -0.35,-0.26 -0.48,-0.31 -7.12,-2.54 -14.23,-5.1 -21.36,-7.6 -5.89,-2.07 -11.78,-4.12 -17.71,-6.07 -4.31,-1.42 -8.67,-2.65 -13.01,-3.98 -6.53,-2 -13.07,-3.95 -19.57,-6.05 -11.54,-3.72 -22.49,-8.9 -33.61,-13.65 -5.25,-2.24 -10.46,-4.56 -15.76,-6.67 -6.22,-2.47 -12.65,-2.64 -19.14,-1.23 -1.81,0.39 -3.5,1.09 -5.28,2.02 0.33,0.16 0.49,0.26 0.66,0.31 4.88,1.37 9.82,2.56 14.63,4.12 9.46,3.08 18.76,6.63 27.95,10.47 7.2,3.01 14.3,6.27 21.49,9.3 7.96,3.34 15.97,6.55 24.17,9.9 z m 4.35,-41.56 c 7.19,4.29 13.94,9.16 20.24,14.69 8.45,7.42 16.17,15.58 24,23.62 0.9,0.93 1.59,2.09 2.24,3.23 0.69,1.2 1.93,2.11 3.6,2.29 -0.72,-1.08 -1.38,-2.09 -2.09,-3.08 -0.73,-1.04 -1.52,-2.03 -2.26,-3.06 -0.68,-0.95 -1.66,-1.69 -2.22,-2.87 0.9,-0.25 1.2,0.3 1.48,0.69 2.07,2.84 4.16,5.66 6.11,8.58 0.76,1.14 1.8,1.57 3.12,2.17 -0.22,-0.41 -0.29,-0.59 -0.4,-0.75 -2.72,-3.93 -5.23,-8.02 -8.46,-11.58 -0.26,-0.29 -0.53,-0.59 -0.71,-0.93 -0.11,-0.2 -0.07,-0.49 -0.09,-0.74 0.09,-0.04 0.18,-0.08 0.28,-0.13 4.37,4.46 7.53,9.82 11.01,15.09 0.62,-0.48 1.25,-0.97 1.96,-1.52 -1.17,-1.48 -2.24,-2.87 -3.35,-4.22 -3.32,-4.03 -6.7,-8.01 -9.97,-12.09 -6.33,-7.89 -13.44,-14.98 -21.51,-21.05 -8.4,-6.31 -17.37,-11.77 -26.83,-16.39 -3.86,-1.88 -7.69,-3.84 -11.87,-4.94 -1.31,-0.34 -2.71,-0.39 -4,-0.79 -5.78,-1.79 -11.58,-3.52 -17.28,-5.53 -7.87,-2.77 -15.63,-5.84 -23.49,-8.64 -15.56,-5.55 -30.28,-12.81 -44.26,-21.57 -5.21,-3.26 -10.31,-6.71 -15.42,-10.13 -2.8,-1.87 -5.54,-3.82 -8.24,-5.83 -2.78,-2.07 -5.47,-4.25 -8.21,-6.38 -0.38,-0.3 -0.79,-0.56 -1.19,-0.83 -0.08,0.11 -0.16,0.22 -0.24,0.33 1.93,1.72 3.8,3.5 5.8,5.13 2.8,2.28 5.74,4.39 8.55,6.66 18.24,14.7 38.32,26.2 60.14,34.66 12.92,5.01 25.9,9.85 38.88,14.7 8.42,3.14 16.68,6.63 24.68,11.21 z M 314.5,298.32 c -3.46,-0.14 -6.93,-0.14 -10.38,-0.46 -5.2,-0.49 -10.32,-0.04 -15.44,0.81 -6.42,1.07 -12.35,3.53 -18.19,6.26 -0.26,0.12 -0.49,0.32 -0.74,0.48 0.45,0.05 0.82,-0.04 1.18,-0.16 9.77,-3.29 19.79,-4.56 30.11,-4.13 8.08,0.33 16.18,0.72 24.28,0.09 1.61,-0.12 3.22,-0.24 4.95,-0.37 -0.21,-0.26 -0.25,-0.37 -0.32,-0.4 -2.09,-0.81 -4.18,-1.62 -6.28,-2.4 -0.31,-0.11 -0.69,-0.18 -1,-0.11 -2.61,0.57 -5.25,0.36 -8.17,0.39 z m -81.19,-14.4 c 0.87,0.06 1.75,0.16 2.62,0.18 5.45,0.16 10.64,-1.05 15.67,-3.05 3.39,-1.35 6.42,-3.28 8.92,-5.97 0.53,-0.57 1.08,-1.14 1.48,-2.17 -0.73,0.35 -1.16,0.56 -1.59,0.77 -4.78,2.36 -9.76,4.19 -14.95,5.4 -4.76,1.11 -9.62,1.47 -14.48,1.84 -2.65,0.2 -5.31,0.39 -7.96,0.59 -0.01,0.11 -0.02,0.21 -0.02,0.32 3.23,1.24 6.64,1.68 10.31,2.09 z m 77.7,61.8 c -2.06,0.4 -4.11,0.83 -6.17,1.19 -5.5,0.97 -10.81,2.53 -15.86,4.92 -0.82,0.39 -1.62,0.83 -2.71,1.39 0.49,0.02 0.64,0.06 0.77,0.03 4.3,-1.08 8.63,-2.03 12.89,-3.28 7.06,-2.06 14.22,-2.77 21.54,-2.36 2.72,0.15 5.46,0.18 8.19,0.16 1.93,-0.01 3.85,-0.27 5.91,-1.1 -1.63,-0.91 -3.14,-1.54 -4.67,-2.11 -0.17,-0.06 -0.39,-0.03 -0.58,0.02 -2.26,0.54 -4.55,0.38 -6.84,0.24 -4.12,-0.24 -8.19,0 -12.47,0.9 z m -28.07,-83.27 c -2.17,-5.27 -5.3,-10.02 -8.2,-14.91 -0.04,0.56 -0.02,1.09 0.12,1.6 0.35,1.32 0.66,2.65 1.14,3.92 1.48,3.92 3.09,7.79 4.52,11.73 0.79,2.19 1.34,4.47 1.96,6.72 0.17,0.62 0.22,1.28 0.36,2.08 0.25,-0.27 0.39,-0.39 0.5,-0.54 1.2,-1.71 1.39,-3.64 1.01,-5.6 -0.33,-1.62 -0.88,-3.19 -1.41,-5 z m 78.92,80.78 c -0.47,0.46 -0.94,0.91 -1.56,1.51 2.52,0.76 4.78,1.45 7.11,2.16 1.05,-1.28 2.05,-2.5 3.21,-3.91 -1.34,-0.51 -2.42,-1.14 -3.57,-1.32 -1.83,-0.3 -3.7,-0.25 -5.19,1.56 z m 23.5,9.07 c 1.9,0.84 3.87,1.49 5.87,2.09 1.13,-1.54 2.15,-2.94 3.34,-4.56 -1.82,-0.46 -3.41,-0.9 -5.01,-1.24 -0.35,-0.07 -0.87,0.11 -1.14,0.37 -1.05,1 -2.03,2.08 -3.06,3.34 z m 14.76,0.05 c -1.51,-0.88 -3.09,-1.6 -4.83,-2.09 -1.1,1.47 -2.14,2.86 -3.26,4.36 1.8,0.63 3.43,1.21 5.08,1.79 1.08,-1.35 2.07,-2.6 3.01,-4.06 z m -20.09,-2.67 c -0.18,0.28 -0.36,0.55 -0.59,0.91 1.68,0.49 3.26,0.96 4.85,1.42 0.62,-0.66 1.19,-1.25 1.74,-1.86 0.53,-0.58 1.2,-1.05 1.67,-1.89 -2.02,-0.35 -3.83,-0.66 -5.67,-0.98 -0.63,0.76 -1.25,1.51 -2,2.4 z m -24.85,-6.49 c 1.43,0.42 2.86,0.85 4.12,1.22 1.13,-1.09 2.13,-2.04 3.21,-3.08 -1.28,-0.78 -2.46,-1.5 -3.66,-2.23 -1.35,1.22 -2.58,2.31 -3.79,3.43 -0.11,0.1 -0.06,0.38 0.12,0.66 z m 25.1,4.96 c 0.23,-0.34 0.45,-0.67 0.74,-1.11 -1.99,-0.47 -3.78,-0.9 -5.59,-1.33 -0.77,0.98 -1.5,1.91 -2.34,2.98 1.95,0.58 3.66,1.09 5.39,1.61 0.6,-0.72 1.13,-1.35 1.8,-2.15 z m 21.01,9.84 c 0.35,-0.09 0.82,-0.07 1.02,-0.3 0.84,-0.92 1.61,-1.92 2.51,-3.02 -1.28,-0.66 -2.42,-1.25 -3.68,-1.9 -1.11,1.34 -2.14,2.59 -3.28,3.97 1.21,0.45 2.21,0.81 3.43,1.25 z m 5.52,-2.32 c -0.39,-0.18 -0.78,-0.35 -1.26,-0.57 -0.92,1.1 -1.82,2.17 -2.82,3.37 1.64,0.58 3.09,1.1 4.56,1.62 0.84,-0.97 1.63,-1.89 2.51,-2.9 -0.99,-0.51 -1.89,-0.97 -2.99,-1.52 z m 10.53,25.17 c 0.83,1.78 1.58,3.59 2.76,5.4 0.49,-0.75 0.85,-1.31 1.22,-1.88 -0.69,-1.42 -1.35,-2.78 -2.02,-4.13 -0.65,-1.31 -1.07,-2.73 -1.82,-4.07 -1.13,1.41 -1.22,2.72 -0.4,4.08 0.07,0.12 0.11,0.27 0.26,0.6 z m 4.81,-1.02 c -1,-2.26 -2,-4.52 -3.04,-6.88 -0.91,0.97 -1.27,1.89 -0.7,3.1 0.81,1.71 1.51,3.48 2.28,5.21 0.3,0.69 0.67,1.34 1.06,2.09 1.23,-1.09 1.26,-2.16 0.4,-3.52 z M 370.43,344.5 c -0.67,0.83 -1.35,1.65 -2.16,2.65 1.42,0.46 2.69,0.87 3.96,1.28 0.88,-1.11 1.67,-2.09 2.51,-3.15 -1.18,-0.69 -2.25,-1.32 -3.35,-1.96 -0.34,0.42 -0.58,0.72 -0.96,1.18 z m -13.68,-6 c -0.91,0.07 -1.83,0.16 -2.74,0.22 -1.91,0.11 -2.51,1.63 -3.5,3 0.96,0.31 1.69,0.58 2.44,0.77 0.3,0.08 0.75,0.11 0.94,-0.06 1.32,-1.12 2.58,-2.29 4.01,-3.58 -0.48,-0.16 -0.7,-0.23 -1.15,-0.35 z m 66.65,37.76 c -0.94,-1.9 -1.87,-3.8 -2.87,-5.82 -0.8,0.75 -0.97,1.39 -0.61,2.22 1.1,2.49 2.16,5 3.25,7.5 0.05,0.11 0.21,0.17 0.3,0.24 0.98,-1.09 1.17,-2.21 0.28,-3.42 -0.11,-0.16 -0.17,-0.35 -0.35,-0.72 z m -8.41,5.89 c 0.84,2.23 1.89,4.36 3.21,6.56 0.49,-0.63 0.89,-1.14 1.28,-1.64 -1.22,-2.46 -2.4,-4.83 -3.68,-7.42 -0.31,0.93 -0.55,1.61 -0.81,2.5 z m -84.85,-51.29 c -0.6,0.68 -1.2,1.36 -1.91,2.16 1.09,0.48 2.01,0.89 2.95,1.3 1.12,-1.04 2.17,-2.02 3.37,-3.13 -1.22,-0.66 -2.22,-1.21 -3.23,-1.76 -0.42,0.52 -0.73,0.89 -1.18,1.43 z m 94.96,41.36 c 0.41,0.62 0.57,1.4 1.27,1.95 0.17,-0.39 0.27,-0.66 0.4,-0.91 0.47,-0.91 0.37,-1.71 -0.22,-2.57 -0.69,-1 -1.24,-2.09 -1.87,-3.13 -0.34,-0.56 -0.71,-1.11 -1.14,-1.78 -0.44,0.59 -0.75,1.01 -1.14,1.54 0.86,1.57 1.73,3.14 2.7,4.9 z m -1.19,3.24 c 0.31,0.63 0.62,1.26 0.97,1.98 1.11,-1.85 1.13,-1.86 0.26,-3.45 -1,-1.83 -2.04,-3.64 -3.07,-5.45 -0.05,-0.09 -0.23,-0.12 -0.39,-0.21 -0.24,0.4 -0.46,0.76 -0.68,1.12 0.96,1.98 1.89,3.9 2.91,6.01 z m -87.07,-42.44 c -0.53,-0.4 -1.06,-0.8 -1.64,-1.25 -1.09,0.98 -2.08,1.86 -3.24,2.9 1.38,0.6 2.52,1.09 3.72,1.61 0.76,-0.81 1.47,-1.57 2.21,-2.36 -0.37,-0.33 -0.63,-0.55 -1.05,-0.9 z m -16.18,-3.72 c 0.03,0.17 0.02,0.44 0.11,0.48 1.05,0.48 2.11,0.93 3.23,1.42 0.68,-0.94 1.29,-1.76 1.88,-2.58 0.13,-0.19 0.21,-0.42 0.32,-0.64 -3.32,-1.13 -3.49,-1.1 -5.54,1.32 z m 8.67,-0.57 c -0.69,-0.19 -1.38,-0.38 -2.13,-0.59 -0.81,1.14 -1.57,2.21 -2.39,3.37 0.97,0.43 1.76,0.78 2.65,1.17 1.01,-1.16 1.97,-2.28 3.02,-3.49 -0.44,-0.18 -0.7,-0.29 -1.15,-0.46 z m 80.78,32.42 c 0.18,0.06 0.38,0.1 0.55,0.19 0.72,0.39 1.26,0.24 1.72,-0.46 0.44,-0.67 0.97,-1.28 1.57,-2.05 -1.2,-0.47 -2.26,-0.89 -3.33,-1.31 -0.86,0.97 -1.61,1.83 -2.5,2.85 0.73,0.29 1.25,0.49 1.99,0.78 z m 6.18,2.08 c 0.53,-0.79 1.06,-1.58 1.65,-2.46 -1.16,-0.55 -2.15,-1.02 -3.21,-1.53 -0.77,0.95 -1.47,1.79 -2.28,2.79 1.36,0.48 2.5,0.88 3.84,1.2 z m 10.29,6.02 c 0.28,0.43 0.56,0.87 0.89,1.37 0.89,-1.94 0.89,-1.94 0.05,-3.46 -0.64,-1.17 -1.27,-2.34 -1.97,-3.63 -0.54,0.59 -0.96,1.05 -1.39,1.52 0.82,1.41 1.57,2.71 2.42,4.2 z m -81.73,-30.7 c -0.52,-0.25 -1.04,-0.5 -1.66,-0.79 -0.23,0.37 -0.43,0.71 -0.69,1.14 2.46,0.88 4.78,1.71 7.12,2.54 0.6,-0.79 1.1,-1.45 1.74,-2.29 -1.32,0.06 -2.34,0.22 -3.34,0.13 -1,-0.09 -1.97,-0.42 -3.17,-0.73 z m 70.63,46.81 c -0.3,-0.5 -0.39,-1.13 -1,-1.63 -0.21,0.72 -0.39,1.27 -0.51,1.82 -0.07,0.36 -0.17,0.82 -0.02,1.11 0.72,1.34 1.54,2.63 2.45,4 0.49,-0.53 0.84,-0.91 1.18,-1.29 -0.7,-1.34 -1.36,-2.58 -2.1,-4.01 z m -75.15,-47.3 c 0.45,0.14 0.9,0.28 1.39,0.43 0.28,-0.47 0.5,-0.82 0.73,-1.2 -1.34,-0.97 -2.59,-1.87 -3.9,-2.81 -0.68,0.7 -1.3,1.34 -2.07,2.12 1.37,0.52 2.5,0.95 3.85,1.46 z m 79.3,23.53 c -0.3,-0.11 -0.61,-0.23 -0.99,-0.37 -0.55,0.86 -1.06,1.65 -1.65,2.56 1.38,0.45 2.56,0.84 3.75,1.23 0.47,-0.74 0.85,-1.34 1.32,-2.07 -0.83,-0.46 -1.53,-0.85 -2.43,-1.35 z m -98.58,-34.06 c -0.13,-0.16 -0.24,-0.43 -0.39,-0.45 -1.06,-0.13 -2.12,-0.21 -3.19,-0.31 -0.68,-0.07 -1.09,0.29 -1.4,1.01 1.15,0.5 2.28,1 3.47,1.53 0.51,-0.58 0.96,-1.08 1.51,-1.78 z m 106.22,37.52 c 0.34,0.61 0.69,1.22 1.17,2.08 0.33,-1.46 0.54,-2.58 0.26,-3.73 -0.27,-1.15 -0.69,-1.37 -1.74,-0.86 -0.24,0.12 -0.41,0.36 -0.61,0.54 0.3,0.64 0.56,1.21 0.92,1.97 z m -13.59,23.09 c -0.1,0.72 -0.3,1.46 -0.25,2.17 0.03,0.46 0.31,1.09 0.68,1.31 0.53,0.32 1.07,-0.06 1.56,-0.58 -0.62,-0.97 -1.21,-1.9 -1.99,-2.9 z m 9,-23.31 c 0.23,-0.32 0.45,-0.65 0.73,-1.04 -1,-0.12 -1.04,-0.08 -1.79,1.7 0.44,-0.24 0.68,-0.37 1.06,-0.66 z m -108,-37.68 c 0.42,0.17 0.71,0.1 0.83,-0.5 -0.6,-0.08 -1.15,-0.16 -1.7,-0.23 -0.02,0.08 -0.03,0.16 -0.05,0.24 0.24,0.13 0.49,0.26 0.92,0.49 z"
   id="path1" />
		<path
   d="m 402.97,394.24 c 2.15,-0.51 4.16,-1.01 6.26,-1.52 0.21,0.4 -0.1,0.65 -0.47,0.77 -1.1,0.39 -2.19,0.87 -3.33,1.06 -2.2,0.38 -4.43,0.6 -6.66,0.85 -0.4,0.05 -0.91,0.15 -1.08,-0.68 1.72,-0.27 3.45,-0.27 5.28,-0.48 z"
   id="path2" />
		<path
   d="m 381.27,394.4 c 1.68,0.08 3.24,0.16 4.78,0.36 -0.87,0.67 -4.7,0.66 -5.95,0.12 0.15,-0.62 0.65,-0.43 1.17,-0.48 z"
   id="path3" />
		<path
   d="m 391.96,394.64 c 0.77,0.08 1.46,-0.13 2.14,0.29 -1,0.69 -3.06,0.67 -4.74,0.01 0.8,-0.7 1.68,-0.21 2.6,-0.3 z"
   id="path4" />
		<path
   d="m 393.67,392.25 c -0.63,0.53 -1.28,0.68 -2.07,0.12 0.72,-0.57 1.37,-0.49 2.07,-0.12 z"
   id="path5" />
		<path
   d="m 400.9,369.44 c 0.33,0.27 0.44,0.69 0.07,0.67 -0.82,-0.06 -1.66,-0.27 -2.23,-1.1 0.87,-0.42 1.43,0.2 2.16,0.43 z"
   id="path6" />
		<path
   d="m 402.58,368.36 c -0.64,-0.35 -1.37,-0.46 -1.56,-1.38 0.91,-0.02 1.48,0.46 2.01,0.97 0.01,0.01 -0.23,0.29 -0.45,0.41 z"
   id="path7" />
		<path
   d="m 409.35,348.29 c -0.48,-0.53 -0.88,-0.99 -1.34,-1.52 1.01,-0.1 1.64,0.42 2.4,1.95 -0.44,-0.16 -0.71,-0.26 -1.06,-0.43 z"
   id="path8" />
		<path
   d="m 406.8,341.13 c 0.83,0.44 1.63,0.83 1.97,1.98 -1.04,-0.16 -1.5,-0.86 -2.07,-1.36 -0.1,-0.09 0,-0.4 0.1,-0.62 z"
   id="path9" />
	</g>
</g>
</svg>
