<?xml version="1.0" encoding="UTF-8" standalone="no"?>
<!-- Generator: Adobe Adobe Illustrator 24.2.0, SVG Export Plug-In . SVG Version: 6.00 Build 0)  -->

<svg
   version="1.1"
   id="Layer_1"
   x="0px"
   y="0px"
   width="196.02206"
   height="210.89725"
   viewBox="0 0 196.02206 210.89725"
   xml:space="preserve"
   sodipodi:docname="Veg56.svg"
   inkscape:version="1.4 (e7c3feb1, 2024-10-09)"
   xmlns:inkscape="http://www.inkscape.org/namespaces/inkscape"
   xmlns:sodipodi="http://sodipodi.sourceforge.net/DTD/sodipodi-0.dtd"
   xmlns="http://www.w3.org/2000/svg"
   xmlns:svg="http://www.w3.org/2000/svg"><defs
   id="defs37" /><sodipodi:namedview
   id="namedview37"
   pagecolor="#ffffff"
   bordercolor="#000000"
   borderopacity="0.25"
   inkscape:showpageshadow="2"
   inkscape:pageopacity="0.0"
   inkscape:pagecheckerboard="0"
   inkscape:deskcolor="#d1d1d1"
   inkscape:zoom="1.6816667"
   inkscape:cx="32.111001"
   inkscape:cy="140.03964"
   inkscape:window-width="1200"
   inkscape:window-height="1186"
   inkscape:window-x="0"
   inkscape:window-y="0"
   inkscape:window-maximized="0"
   inkscape:current-layer="Layer_1" />
<g
   id="g37"
   transform="translate(-267.38521,-159.88734)">
	<g
   id="g36">
		<path
   d="m 316.81,369.95 c -3.61,-0.46 -7.08,-0.94 -10.54,-1.61 -6.89,-1.33 -12.97,-4.15 -18.13,-8.93 -2.43,-2.25 -4.95,-4.43 -7.31,-6.75 -1.24,-1.22 -2.42,-2.59 -3.33,-4.07 -3.22,-5.25 -6.13,-10.69 -7.92,-16.61 -2.86,-9.48 -2.93,-19.04 -0.18,-28.58 1.96,-6.8 4,-13.56 6.54,-20.18 2.21,-5.76 3.36,-11.81 4.72,-17.81 1.67,-7.38 2.88,-14.84 4.14,-22.3 1.37,-8.09 3.25,-16.06 6.63,-23.61 2.1,-4.68 5.3,-8.4 9.35,-11.43 1.08,-0.81 2.3,-1.51 3.55,-2.02 4.07,-1.66 8.16,-3.21 12.56,-3.81 6.88,-0.95 13.8,-1.64 20.72,-1.21 6.94,0.43 13.25,2.76 18.27,7.88 0.26,0.27 0.55,0.5 0.94,0.85 0.24,-0.61 0.45,-1.09 0.63,-1.58 2.65,-7 5.67,-13.82 9.64,-20.18 5.39,-8.63 12.04,-16.09 20.66,-21.65 3.26,-2.1 6.72,-3.74 10.39,-5 6.87,-2.37 13.57,-1.77 20.1,1.15 4.99,2.23 9.15,5.54 12.43,9.97 3.5,4.74 6.39,9.79 8.52,15.3 3.88,10.01 7.98,19.94 11.8,29.97 4.55,11.93 7.91,24.21 10.34,36.74 1.09,5.6 1.99,11.26 2.07,16.99 0.1,6.78 -0.83,13.43 -2.84,19.92 -3.3,10.62 -9.75,18.94 -18.74,25.3 -5.05,3.57 -10.65,6.15 -16.47,8.21 -6.21,2.2 -12.69,2.53 -19.21,2.49 -5.01,-0.03 -9.93,-0.63 -14.75,-2.03 -0.42,-0.12 -0.85,-0.2 -1.36,-0.32 -0.13,0.33 -0.3,0.62 -0.37,0.94 -2.3,10.36 -7.2,19.43 -13.72,27.7 -0.79,1 -1.62,1.95 -2.42,2.94 -1.96,2.41 -4.24,4.46 -6.9,6.07 -2,1.22 -4.03,2.39 -6.09,3.5 -3.09,1.66 -6.47,2.4 -9.9,2.98 -6.76,1.13 -13.59,1.41 -20.42,1.6 -3.55,0.1 -7.11,-0.34 -10.66,-0.54 -0.86,-0.09 -1.73,-0.19 -2.74,-0.28 z M 457.74,243.76 c -2,-8.21 -4.35,-16.32 -7.37,-24.21 -4.08,-10.66 -8.38,-21.25 -12.52,-31.89 -2.02,-5.18 -4.79,-9.91 -8.08,-14.38 -2.71,-3.69 -6.07,-6.62 -10.11,-8.73 -6.28,-3.29 -12.86,-4.57 -19.8,-2.44 -2.14,0.66 -4.26,1.44 -6.28,2.4 -5.89,2.78 -10.97,6.72 -15.51,11.37 -9.6,9.82 -15.49,21.81 -20.13,34.52 -0.2,0.55 -0.04,0.92 0.25,1.34 0.86,1.25 1.68,2.52 2.53,3.77 0.17,0.26 0.41,0.47 0.69,0.78 0.22,-0.54 0.37,-0.95 0.55,-1.35 1.14,-2.64 2.28,-5.29 3.45,-7.92 0.22,-0.49 0.38,-1.11 1.06,-1.3 0.11,0.73 0.1,0.72 -0.06,1.09 -1.38,3.18 -2.74,6.36 -4.13,9.53 -0.32,0.72 -0.31,1.36 0.1,2.07 0.56,0.97 1,2.01 1.49,3.02 0.34,0.72 0.67,1.44 1.14,2.46 0.29,-0.84 0.46,-1.34 0.63,-1.84 0.68,-2.04 1.32,-4.09 2.06,-6.1 1.97,-5.37 4.25,-10.6 7.11,-15.56 0.61,-1.06 1.3,-2.07 1.99,-3.07 0.14,-0.2 0.48,-0.26 0.72,-0.38 0,0.56 -0.18,0.88 -0.37,1.2 -0.9,1.51 -1.86,2.98 -2.7,4.53 -3.69,6.86 -6.42,14.12 -8.69,21.55 -0.16,0.51 -0.1,1.16 0.07,1.68 1.2,3.86 2.62,7.67 3.66,11.58 3.35,12.62 7.69,24.87 12.8,36.88 4.21,9.89 7.79,20.01 8.75,30.85 0.42,4.78 0.68,9.54 -0.12,14.3 -0.23,1.38 -0.44,2.77 -0.67,4.17 0.44,0.15 0.76,0.26 1.08,0.36 5.52,1.67 11.18,2.2 16.93,2.12 5.1,-0.07 10.14,-0.44 15.06,-1.88 4.62,-1.35 8.94,-3.42 13.12,-5.74 11.94,-6.6 19.97,-16.36 23.59,-29.61 2.47,-9.04 2.74,-18.19 1.29,-27.43 -0.94,-5.89 -2.1,-11.72 -3.58,-17.74 z M 280.5,281.52 c -2.64,7.09 -5,14.27 -7.05,21.56 -2.52,8.93 -2.43,17.84 0.3,26.7 1.46,4.74 3.83,9.07 6.19,13.4 1.13,2.07 2.58,3.9 4.21,5.6 3.25,3.4 6.9,6.34 10.58,9.24 2.13,1.68 4.53,2.85 7.12,3.65 6.1,1.88 12.34,2.91 18.7,3.27 4.33,0.25 8.64,0.77 13,0.45 4.91,-0.37 9.85,-0.48 14.73,-1.25 3.39,-0.53 6.78,-1.07 9.83,-2.71 2.49,-1.34 4.93,-2.78 7.31,-4.31 1.22,-0.78 2.38,-1.74 3.36,-2.81 6.73,-7.41 12.26,-15.55 15.32,-25.2 1.82,-5.75 3.13,-11.61 3.14,-17.66 0.02,-5.43 -0.65,-10.82 -1.88,-16.11 -1.69,-7.25 -4.31,-14.19 -7.22,-21.02 -3.12,-7.32 -6.03,-14.73 -8.34,-22.34 -1.83,-6.02 -3.47,-12.1 -5.32,-18.12 -2.01,-6.52 -4.84,-12.67 -8.94,-18.18 -2.39,-3.2 -5.41,-5.62 -9.13,-7.1 -4.22,-1.69 -8.59,-2.54 -13.16,-2.33 -1.04,0.05 -1.81,0.24 -2.57,1.02 -1.94,1.98 -4.26,3.43 -6.91,4.27 -4.64,1.48 -9.05,1.23 -13.05,-1.85 -0.11,-0.09 -0.26,-0.14 -0.49,-0.25 -1.57,0.62 -3.21,1.23 -4.83,1.92 -0.67,0.28 -1.32,0.65 -1.91,1.07 -3.55,2.59 -6.58,5.65 -8.53,9.67 -1.69,3.48 -2.99,7.11 -4.04,10.82 -1.93,6.83 -2.92,13.84 -4.13,20.81 -1.62,9.31 -3.51,18.54 -6.29,27.79 z m 107.87,33.13 c -0.26,1.84 -0.47,3.68 -0.79,5.51 -1.05,6.09 -2.82,11.98 -5.59,17.51 -2.17,4.33 -4.9,8.32 -7.76,12.22 -3.8,5.19 -8.52,9.24 -14.3,12.05 -0.35,0.17 -0.69,0.36 -1.04,0.53 -2.19,1.11 -4.51,1.84 -6.92,2.32 -6.63,1.34 -13.37,1.69 -20.09,1.89 -3.99,0.12 -7.99,-0.22 -11.98,-0.5 -4.67,-0.34 -9.31,-0.99 -13.89,-2.04 -5.43,-1.25 -10.37,-3.37 -14.57,-7.11 -1.6,-1.43 -3.33,-2.72 -4.91,-4.17 -2.94,-2.72 -5.84,-5.5 -7.73,-9.12 -1.26,-2.42 -2.57,-4.83 -3.74,-7.3 -5.28,-11.11 -6.02,-22.59 -2.62,-34.37 1.83,-6.33 3.89,-12.58 6.1,-18.79 3.46,-9.73 5.18,-19.91 7.09,-30.03 1.01,-5.37 1.88,-10.77 2.98,-16.12 1.13,-5.46 2.76,-10.79 5.36,-15.76 3.06,-5.84 7.52,-10.16 13.87,-12.33 0.48,-0.16 0.94,-0.39 1.47,-0.61 -0.56,-0.83 -1.01,-1.51 -1.51,-2.24 -2.44,0.73 -4.69,1.71 -6.68,3.26 -3.84,3 -6.8,6.66 -8.76,11.17 -3.04,6.99 -4.83,14.33 -6.12,21.79 -1.37,7.93 -2.61,15.88 -4.41,23.74 -1.37,6 -2.54,12.05 -4.75,17.8 -2.53,6.57 -4.55,13.29 -6.48,20.04 -2.68,9.35 -2.53,18.7 0.35,27.99 1.51,4.87 3.94,9.34 6.35,13.81 1.24,2.3 2.83,4.31 4.63,6.19 3.39,3.53 7.2,6.59 11.03,9.62 1.73,1.37 3.64,2.46 5.72,3.21 4.05,1.46 8.22,2.59 12.48,3.1 8.08,0.99 16.18,1.89 24.37,1.31 4.72,-0.34 9.45,-0.54 14.13,-1.26 3.19,-0.5 6.36,-1.07 9.3,-2.48 3.13,-1.5 6.15,-3.21 8.93,-5.29 1.05,-0.79 2.09,-1.63 2.97,-2.6 7.02,-7.8 12.83,-16.34 16,-26.48 2.01,-6.41 3.43,-12.94 3.26,-19.69 -0.13,-5.08 -0.72,-10.13 -1.84,-15.09 -1.75,-7.74 -4.54,-15.13 -7.63,-22.42 -3.08,-7.28 -6.05,-14.61 -8.35,-22.18 -1.9,-6.25 -3.67,-12.55 -5.53,-18.81 -2.1,-7.06 -4.97,-13.75 -9.21,-19.82 -3.13,-4.49 -7.22,-7.63 -12.45,-9.22 -1.77,-0.54 -3.57,-1.04 -5.39,-1.34 -1.72,-0.28 -3.48,-0.28 -5.21,-0.4 -0.57,1.02 -1.06,1.88 -1.65,2.93 0.66,0 1.04,0.02 1.43,0 3.11,-0.16 6.12,0.41 9.11,1.2 5.02,1.32 9.27,3.88 12.52,7.93 2.08,2.59 3.82,5.42 5.33,8.39 3,5.91 4.99,12.19 6.67,18.57 2.81,10.64 6.4,21 10.66,31.14 1.79,4.27 3.45,8.6 5.05,12.95 3.47,9.39 5.13,19.1 4.74,29.4 z M 331.22,204.8 c 0.57,-0.75 1.19,-1.48 1.56,-2.39 -0.94,-0.39 -1.15,0.27 -1.48,0.72 -2.78,3.73 -6.39,6.12 -11.03,6.8 -3.8,0.56 -7.81,-0.82 -9.54,-4.44 -0.06,-0.12 -0.21,-0.2 -0.36,-0.34 -0.37,0.17 -0.75,0.34 -1.17,0.53 0.12,0.27 0.18,0.45 0.28,0.61 0.18,0.29 0.37,0.58 0.58,0.84 2.52,3.1 5.87,4.29 9.75,3.94 4.6,-0.41 8.3,-2.62 11.41,-6.27 z m -15.24,2.49 c 0.17,0.43 -0.06,1.13 0.76,1.15 0.1,-1.48 -0.37,-4.03 -0.94,-4.69 -0.27,1.19 0.09,2.25 0.18,3.54 z m 2.42,-1.98 c -0.07,-0.63 0.03,-1.31 -0.51,-1.92 -0.51,1.38 -0.05,4.46 0.83,5.32 -0.1,-1.15 -0.2,-2.15 -0.32,-3.4 z m 4.78,-1.44 c 0.1,1.22 0.2,2.44 0.32,3.84 0.57,-0.73 0.72,-3.38 0.36,-4.55 -0.05,-0.15 -0.34,-0.21 -0.61,-0.37 -0.04,0.36 -0.07,0.6 -0.07,1.08 z m -3.52,-0.57 c -0.18,1.79 -0.02,3.53 0.66,5.21 0.06,-1.76 0.05,-3.52 -0.66,-5.21 z m 1.71,1.08 c 0.15,1.19 0.3,2.39 0.46,3.58 0.01,0.05 0.15,0.07 0.23,0.11 0.3,-1.42 -0.05,-4.36 -0.64,-5 -0.02,0.39 -0.04,0.72 -0.05,1.31 z m 4.54,1.88 c -0.12,-1.15 0.05,-2.34 -0.48,-3.43 -0.39,1.2 -0.27,2.39 -0.04,3.59 0.01,0.03 0.25,0.02 0.52,-0.16 z m -11.94,-0.87 c 0.17,0.71 -0.04,1.53 0.56,2.26 0.23,-1.69 0.09,-2.72 -0.61,-3.61 0,0.51 0,0.81 0.05,1.35 z m 13.21,-0.18 c 0.54,-0.68 0.5,-1.63 -0.24,-2.69 0.05,0.96 0.09,1.72 0.24,2.69 z m 1.53,-1.7 c 0.13,0.07 0.35,0.21 0.38,0.18 0.32,-0.32 0.61,-0.67 0.95,-1.08 -1.21,-0.21 -1.21,-0.21 -1.33,0.9 z m -16.72,1.4 c 0.17,0.31 0.35,0.62 0.52,0.92 0.18,-0.46 0.12,-0.82 0.02,-1.17 0,-0.02 -0.31,0.04 -0.54,0.25 z"
   id="path1" />
		<path
   d="m 438.02,266.32 c 0.23,-2.66 0.55,-5.18 0.63,-7.71 0.08,-2.58 0.04,-5.18 -0.18,-7.75 -0.22,-2.5 -0.73,-4.97 -1.13,-7.53 0.8,0.06 0.8,0.66 0.87,1.07 0.42,2.4 1.01,4.8 1.13,7.22 0.76,15.25 -2.36,29.68 -9.59,43.17 -1.57,2.93 -3.49,5.65 -5.94,7.94 -0.88,0.83 -1.89,1.54 -2.87,2.25 -0.25,0.18 -0.63,0.2 -0.95,0.29 -0.05,-0.09 -0.09,-0.19 -0.14,-0.28 0.18,-0.2 0.34,-0.44 0.56,-0.58 2.71,-1.69 4.74,-4.04 6.53,-6.63 2.69,-3.87 4.69,-8.1 6.34,-12.5 2.3,-6.09 3.84,-12.37 4.74,-18.96 z"
   id="path2" />
		<path
   d="m 439.15,294.42 c 1.23,-2.87 2.41,-5.63 3.69,-8.62 0.17,0.43 0.35,0.67 0.33,0.89 -0.04,0.38 -0.21,0.75 -0.34,1.11 -3.01,8.38 -7.71,15.75 -13.52,22.45 -1.89,2.18 -3.81,4.32 -6.22,5.96 -0.38,0.26 -0.71,0.69 -1.51,0.43 7.53,-6.16 13.03,-13.75 17.57,-22.22 z"
   id="path3" />
		<path
   d="m 448.61,293.64 c 1.15,-3.65 2.14,-7.22 2.61,-10.91 0.46,-3.6 0.83,-7.21 1.23,-10.81 0.11,-0.02 0.23,-0.04 0.34,-0.06 0.09,0.25 0.27,0.51 0.26,0.76 -0.35,6.15 -1.03,12.24 -2.76,18.18 -1.14,3.94 -2.33,7.86 -4.19,11.53 -0.29,0.57 -0.67,1.11 -1.01,1.66 -0.12,-0.05 -0.25,-0.11 -0.37,-0.16 0.09,-0.32 0.13,-0.67 0.29,-0.96 1.53,-2.92 2.64,-5.98 3.6,-9.23 z"
   id="path4" />
		<path
   d="m 381.44,179.29 c -4.79,5.33 -8.86,11.02 -11.78,17.48 -0.22,0.48 -0.33,1.14 -1.08,1.24 0.31,-4.6 13.95,-23.18 18.14,-24.69 0.19,0.69 -0.39,0.94 -0.72,1.29 -1.49,1.54 -2.99,3.07 -4.56,4.68 z"
   id="path5" />
		<path
   d="m 380.55,199.79 c 2.81,-5.16 5.81,-10.06 9.57,-14.44 1.3,-1.51 2.72,-2.93 4.1,-4.37 0.15,-0.16 0.37,-0.24 0.75,-0.48 -0.04,0.43 0,0.68 -0.1,0.85 -0.17,0.29 -0.4,0.55 -0.65,0.79 -5.28,5.05 -9.15,11.12 -12.67,17.44 -1.02,1.83 -1.95,3.71 -2.94,5.56 -0.15,0.29 -0.34,0.55 -0.54,0.86 -0.58,-0.33 -0.33,-0.71 -0.17,-1.02 0.86,-1.72 1.74,-3.4 2.65,-5.19 z"
   id="path6" />
		<path
   d="m 430.3,187.76 c 0.05,0.5 -0.09,0.81 -0.52,0.68 -0.16,-0.05 -0.34,-0.48 -0.29,-0.66 0.14,-0.45 0.47,-0.37 0.81,-0.02 z"
   id="path7" />
		<path
   d="m 425.43,195.13 c -0.44,-0.35 -0.5,-0.69 -0.07,-0.95 0.1,-0.06 0.41,0.02 0.48,0.13 0.23,0.38 0.23,0.73 -0.41,0.82 z"
   id="path8" />
		<path
   d="m 430.29,197.9 c 0.03,0.5 -0.18,0.74 -0.58,0.62 -0.13,-0.04 -0.28,-0.4 -0.23,-0.55 0.14,-0.41 0.44,-0.44 0.81,-0.07 z"
   id="path9" />
		<path
   d="m 438.55,199.91 c 0.44,-0.28 0.72,-0.18 0.77,0.24 0.02,0.15 -0.22,0.46 -0.36,0.48 -0.44,0.05 -0.54,-0.25 -0.41,-0.72 z"
   id="path10" />
		<path
   d="m 439.28,212.83 c 0.48,-0.18 0.76,-0.07 0.73,0.38 -0.01,0.13 -0.23,0.33 -0.36,0.34 -0.42,0.02 -0.57,-0.23 -0.37,-0.72 z"
   id="path11" />
		<path
   d="m 445.46,214.62 c 0.29,0.04 0.5,0.16 0.71,0.27 -0.15,0.15 -0.3,0.3 -0.45,0.46 -0.11,-0.22 -0.23,-0.44 -0.26,-0.73 z"
   id="path12" />
		<path
   d="m 430.61,209.67 c -0.05,0.3 -0.16,0.52 -0.27,0.73 -0.14,-0.1 -0.39,-0.19 -0.41,-0.32 -0.07,-0.44 0.18,-0.6 0.68,-0.41 z"
   id="path13" />
		<path
   d="m 432.05,205.85 c 0.05,-0.26 0.18,-0.46 0.3,-0.66 0.12,0.12 0.24,0.25 0.36,0.37 -0.19,0.12 -0.39,0.23 -0.66,0.29 z"
   id="path14" />
		<path
   d="m 440.95,220.73 c -0.05,0.27 -0.17,0.46 -0.3,0.66 -0.12,-0.12 -0.23,-0.25 -0.35,-0.37 0.19,-0.12 0.38,-0.24 0.65,-0.29 z"
   id="path15" />
		<path
   d="m 434.48,193.89 c 0.27,0.03 0.48,0.13 0.69,0.23 -0.11,0.14 -0.22,0.27 -0.33,0.41 -0.14,-0.19 -0.27,-0.37 -0.36,-0.64 z"
   id="path16" />
		<path
   d="m 434.29,184.86 c 0.26,0.05 0.46,0.17 0.65,0.29 -0.12,0.12 -0.24,0.23 -0.36,0.35 -0.12,-0.19 -0.24,-0.38 -0.29,-0.64 z"
   id="path17" />
		<path
   d="m 442.55,205.74 c 0.27,0.06 0.47,0.18 0.66,0.3 -0.12,0.12 -0.25,0.25 -0.37,0.37 -0.12,-0.2 -0.24,-0.4 -0.29,-0.67 z"
   id="path18" />
		<path
   d="m 427.55,205.16 c 0.18,-0.2 0.38,-0.31 0.58,-0.42 0.05,0.16 0.09,0.33 0.14,0.49 -0.23,0.01 -0.46,0.02 -0.72,-0.07 z"
   id="path19" />
		<path
   d="m 309.09,274.8 c 6.58,-3.85 13.56,-5.64 21.08,-5.41 16.27,0.51 30.39,11.6 35,27.63 6.17,21.45 -6.53,44.31 -27.92,50.23 -20.7,5.73 -41.79,-6.69 -46.91,-27.59 -4.26,-17.32 3.28,-35.61 18.75,-44.86 z m 13.63,37.48 c -0.14,-2.44 -0.39,-4.87 -0.4,-7.31 -0.01,-5.12 -0.02,-10.25 0.21,-15.37 0.19,-4.09 0.71,-8.16 1.13,-12.24 0.15,-1.43 0.44,-2.85 0.67,-4.27 -0.45,0.33 -0.71,0.72 -0.94,1.13 -2.87,5.02 -4.44,10.5 -5.51,16.13 -1.75,9.21 -2.32,18.49 -1.44,27.83 0.45,4.72 1.24,9.4 2.91,13.86 1.11,2.96 2.43,5.86 3.78,8.72 0.96,2.03 2.41,3.73 4.23,5.5 -2.44,-11.32 -3.39,-22.53 -4.64,-33.98 z m -8.71,27.47 c 2.31,2.68 4.95,4.98 7.94,6.88 0.71,0.45 1.4,0.76 2.33,0.34 -0.41,-0.38 -0.76,-0.71 -1.12,-1.01 -2.67,-2.2 -4.78,-4.88 -6.45,-7.89 -2.07,-3.72 -3.75,-7.62 -4.99,-11.69 -1.72,-5.67 -2.67,-11.49 -3.17,-17.39 -0.45,-5.28 -0.34,-10.53 0.67,-15.75 1.4,-7.22 4.63,-13.53 9.43,-19.06 0.3,-0.34 0.56,-0.71 0.84,-1.07 -0.61,0.11 -1.05,0.39 -1.47,0.69 -5.58,4.06 -9.37,9.48 -11.89,15.82 -3.61,9.1 -4.28,18.48 -2.46,28.05 1.56,8.15 4.8,15.54 10.34,22.08 z m 0.67,-57.72 c -3,5.33 -4.51,11.1 -4.93,17.15 -0.42,5.97 0.13,11.89 1.11,17.78 1.14,6.83 3.18,13.37 6.45,19.5 1.57,2.95 3.44,5.67 5.99,7.88 0.26,0.23 0.55,0.43 0.82,0.65 -2.89,-4.02 -4.68,-8.5 -6.23,-13.07 -2.33,-6.86 -3.06,-13.99 -3.18,-21.19 -0.1,-6.11 0.45,-12.19 1.45,-18.21 1.17,-7.12 3.07,-14 6.82,-20.26 0.11,-0.18 0.18,-0.39 0.27,-0.58 -3.63,2.75 -6.15,6.37 -8.57,10.35 z m 33.39,52.99 c 0.49,-0.84 1.01,-1.67 1.47,-2.53 4.77,-8.79 7.57,-18.08 6.74,-28.19 -1.18,-14.32 -8.32,-24.67 -21.13,-31.13 -0.28,-0.14 -0.58,-0.23 -0.87,-0.34 0.13,0.29 0.31,0.45 0.51,0.58 7.52,5.09 12.26,12.16 14.73,20.82 2.47,8.69 2.28,17.45 0.44,26.22 -1.7,8.14 -4.83,15.73 -9.02,22.91 -0.25,0.43 -0.47,0.87 -0.83,1.54 1.7,-0.94 4.74,-4.78 7.96,-9.88 z m -3.91,-11.85 c -0.27,1.59 -0.5,3.18 -0.81,4.76 -1.24,6.16 -3.13,12.08 -6.49,17.46 -0.09,0.14 -0.13,0.31 -0.21,0.53 0.97,0.09 1.43,-0.38 1.84,-1.05 6.33,-10.24 10.51,-21.2 11.39,-33.31 0.44,-6.05 -0.09,-11.99 -1.87,-17.79 -2.17,-7.09 -5.99,-13.1 -11.86,-17.72 -0.43,-0.34 -0.89,-0.64 -1.34,-0.96 0.01,0.44 0.16,0.67 0.34,0.89 1.67,2.12 3.01,4.44 4.13,6.89 3.58,7.9 5.05,16.27 5.5,24.85 0.28,5.08 0.04,10.15 -0.62,15.45 z M 333,296.46 c -0.16,-0.86 -0.33,-1.72 -0.49,-2.59 -0.92,-5.05 -2.33,-9.97 -4.02,-14.81 -0.28,-0.8 -0.66,-1.56 -0.99,-2.34 -0.23,0.43 -0.24,0.77 -0.19,1.1 0.67,4.16 0.83,8.34 0.8,12.55 -0.02,2.29 -0.03,4.59 0.15,6.88 0.54,7.21 0.8,14.42 0.79,21.64 -0.01,8.83 0.16,17.67 0.26,26.5 0,0.11 0.08,0.22 0.24,0.61 0.27,-0.75 0.45,-1.23 0.61,-1.72 1.23,-3.77 2.13,-7.61 2.5,-11.56 0.53,-5.68 1.13,-11.36 1.53,-17.05 0.43,-6.36 -0.14,-12.68 -1.19,-19.21 z m 2.83,44.48 c -0.89,1.91 -1.77,3.83 -2.7,5.83 0.88,0.01 1.41,-0.26 1.88,-0.96 2.84,-4.17 4.69,-8.77 5.98,-13.6 2.2,-8.23 2.93,-16.6 2.43,-25.09 -0.34,-5.92 -1.24,-11.74 -2.97,-17.41 -1.38,-4.51 -3.21,-8.8 -6.08,-12.59 -1.43,-1.88 -3.08,-3.53 -5.17,-4.69 -0.44,-0.25 -0.92,-0.43 -1.39,-0.65 0.18,0.59 0.52,0.94 0.8,1.32 1.09,1.44 2.27,2.82 3.22,4.34 3.96,6.36 6.06,13.38 7.12,20.75 0.72,5.03 0.98,10.1 1.04,15.18 0.06,5.27 -0.01,10.57 -1.07,15.75 -0.79,3.91 -1.98,7.74 -3.09,11.82 z M 307.1,281.18 c -2.43,3.03 -4.32,6.38 -5.67,10.02 -3.95,10.61 -4.08,21.36 -0.99,32.18 2.09,7.3 5.64,13.77 11,19.23 1.81,1.84 3.89,3.06 6.4,3.57 0.28,0.06 0.58,0.04 1.11,0.07 -0.4,-0.35 -0.57,-0.51 -0.76,-0.66 -4.26,-3.39 -7.66,-7.51 -10.26,-12.27 -6.15,-11.28 -7.89,-23.28 -5.48,-35.84 1.6,-8.32 5.13,-15.73 11.23,-21.77 0.13,-0.13 0.21,-0.31 0.45,-0.69 -2.27,1.2 -4.58,3.24 -7.03,6.16 z m -9.87,22.66 c 0.69,-7.97 3.09,-15.36 7.58,-22.05 -0.21,0.05 -0.34,0.13 -0.44,0.24 -0.33,0.36 -0.66,0.72 -0.98,1.09 -2.62,3.05 -4.81,6.4 -6.46,10.06 -4.71,10.43 -5.7,21.11 -1.88,32.02 2.42,6.93 6.64,12.54 12.85,16.57 0.4,0.26 0.78,0.65 1.4,0.59 -9.45,-11.11 -13.04,-23.97 -12.07,-38.52 z m 35.86,-13.63 c 0.02,0.1 0.03,0.19 0.05,0.29 2.17,9.24 2.87,18.61 2.23,28.07 -0.33,4.87 -0.92,9.71 -1.44,14.57 -0.5,4.68 -1.61,9.22 -3.27,13.62 -0.04,0.09 0.05,0.23 0.07,0.35 0.11,0.08 0.21,0.17 0.32,0.25 0.16,-0.29 0.32,-0.59 0.49,-0.87 1.35,-2.21 2.71,-4.41 3.38,-6.95 0.3,-1.13 0.62,-2.26 0.98,-3.37 1.67,-5.09 2.45,-10.35 2.69,-15.68 0.32,-7.08 0.11,-14.15 -0.79,-21.19 -0.99,-7.74 -3.22,-15.06 -7.36,-21.74 -0.7,-1.12 -1.53,-2.15 -2.3,-3.23 -0.09,0.05 -0.18,0.11 -0.27,0.16 2.43,4.93 3.92,10.17 5.22,15.72 z m 22.69,-1.59 c -3.83,-6.18 -11.83,-13.49 -15.55,-14.22 0.06,0.07 0.12,0.16 0.19,0.22 0.36,0.26 0.72,0.5 1.08,0.76 7.13,5.07 12.03,11.75 14.54,20.15 2.27,7.63 2.17,15.31 0.36,23 -1.86,7.9 -5.4,15.03 -10.16,21.58 -0.38,0.52 -0.76,1.05 -1.13,1.58 0.58,-0.13 0.97,-0.41 1.29,-0.75 1.39,-1.44 2.85,-2.82 4.14,-4.35 5.99,-7.08 9.7,-15.2 10.58,-24.47 0.78,-8.31 -0.95,-16.11 -5.34,-23.5 z m -28.04,43.17 c 0,-1.85 0.01,-3.71 -0.01,-5.56 -0.08,-7.12 -0.11,-14.24 -0.28,-21.36 -0.11,-4.68 -0.59,-9.35 -0.63,-14.03 -0.04,-5.04 -0.27,-10.04 -1.05,-15.01 -0.04,-0.23 -0.15,-0.44 -0.23,-0.66 -0.36,0.89 -0.51,1.75 -0.64,2.61 -0.82,5.85 -1.28,11.74 -1.27,17.64 0.01,5.31 0.1,10.63 0.38,15.94 0.21,3.94 0.72,7.87 1.2,11.78 0.73,5.95 1.55,11.89 2.35,17.84 0.03,0.23 0.16,0.44 0.25,0.66 0.06,-0.02 0.12,-0.04 0.17,-0.06 -0.08,-3.17 -0.16,-6.34 -0.24,-9.79 z m 29.37,0.56 c 0.29,-0.39 0.6,-0.77 0.87,-1.18 7.56,-11.08 9.57,-23.05 5.25,-35.79 -3.45,-10.17 -10.29,-17.44 -20.15,-21.81 -0.48,-0.21 -0.99,-0.38 -1.49,-0.56 0.44,0.58 0.98,0.91 1.52,1.23 15.43,9.36 22.62,26.92 18.19,44.43 -1.77,6.98 -5.07,13.17 -9.68,18.68 -0.31,0.37 -0.6,0.75 -0.9,1.13 0.08,0.06 0.16,0.12 0.24,0.19 0.59,-0.51 1.21,-0.98 1.75,-1.54 1.45,-1.52 2.85,-3.08 4.4,-4.78 z m -65.66,-13.71 c 0.32,1.17 0.64,2.34 0.96,3.51 -3.12,-15.96 0.92,-29.86 11.56,-41.98 -11.04,10.48 -15.58,23.11 -12.52,38.47 z"
   id="path20" />
		<path
   d="m 335.29,214.05 c 0.47,0.39 0.43,0.75 -0.02,0.93 -0.17,0.07 -0.61,-0.1 -0.67,-0.25 -0.16,-0.47 0.12,-0.71 0.69,-0.68 z"
   id="path21" />
		<path
   d="m 329.97,210.99 c 0.2,-0.52 0.49,-0.78 0.87,-0.36 0.13,0.14 0.14,0.61 0.01,0.74 -0.38,0.37 -0.69,0.15 -0.88,-0.38 z"
   id="path22" />
		<path
   d="m 342.18,224.42 c -0.6,-0.18 -0.69,-0.52 -0.34,-0.87 0.13,-0.13 0.6,-0.14 0.72,-0.02 0.34,0.37 0.16,0.7 -0.38,0.89 z"
   id="path23" />
		<path
   d="m 350.51,213.39 c -0.01,0.55 -0.23,0.81 -0.69,0.55 -0.13,-0.07 -0.22,-0.45 -0.14,-0.59 0.19,-0.38 0.5,-0.38 0.83,0.04 z"
   id="path24" />
		<path
   d="m 335.3,208.88 c 0.18,-0.42 0.43,-0.68 0.76,-0.34 0.12,0.12 0.12,0.57 0,0.69 -0.34,0.33 -0.59,0.08 -0.76,-0.35 z"
   id="path25" />
		<path
   d="m 334.22,220.25 c 0.46,-0.27 0.75,-0.1 0.78,0.28 0.01,0.16 -0.33,0.51 -0.5,0.5 -0.36,-0.03 -0.55,-0.31 -0.28,-0.78 z"
   id="path26" />
		<path
   d="m 349.61,222.17 c 0.59,-0.03 0.84,0.24 0.66,0.7 -0.06,0.17 -0.51,0.36 -0.67,0.28 -0.44,-0.21 -0.42,-0.58 0.01,-0.98 z"
   id="path27" />
		<path
   d="m 347.44,227.53 c 0.45,0.16 0.68,0.41 0.36,0.74 -0.12,0.12 -0.56,0.13 -0.69,0.01 -0.34,-0.32 -0.12,-0.58 0.33,-0.75 z"
   id="path28" />
		<path
   d="m 357.73,230.96 c 0.5,0.08 0.7,0.33 0.47,0.7 -0.08,0.13 -0.46,0.22 -0.59,0.14 -0.36,-0.23 -0.3,-0.55 0.12,-0.84 z"
   id="path29" />
		<path
   d="m 340.33,217.19 c -0.51,-0.07 -0.69,-0.33 -0.46,-0.69 0.08,-0.13 0.46,-0.21 0.58,-0.14 0.37,0.23 0.33,0.54 -0.12,0.83 z"
   id="path30" />
		<path
   d="m 353.9,227.59 c 0.17,-0.48 0.45,-0.64 0.76,-0.31 0.11,0.11 0.11,0.5 0,0.61 -0.31,0.34 -0.59,0.19 -0.76,-0.3 z"
   id="path31" />
		<path
   d="m 358.48,226.86 c -0.18,-0.51 0,-0.76 0.42,-0.7 0.16,0.02 0.41,0.33 0.39,0.47 -0.06,0.4 -0.36,0.51 -0.81,0.23 z"
   id="path32" />
		<path
   d="m 355.61,219.46 c 0.06,0.52 -0.15,0.75 -0.56,0.61 -0.14,-0.05 -0.3,-0.4 -0.26,-0.55 0.14,-0.43 0.45,-0.42 0.82,-0.06 z"
   id="path33" />
		<path
   d="m 342.8,212.39 c 0.32,-0.39 0.62,-0.46 0.82,-0.04 0.06,0.12 -0.02,0.42 -0.13,0.5 -0.39,0.26 -0.61,0.05 -0.69,-0.46 z"
   id="path34" />
		<path
   d="m 330.45,217.02 c -0.32,0.42 -0.62,0.46 -0.81,0.04 -0.06,-0.12 0.02,-0.42 0.12,-0.49 0.37,-0.23 0.63,-0.09 0.69,0.45 z"
   id="path35" />
		<path
   d="m 346.04,216.77 c 0.49,-0.03 0.77,0.14 0.61,0.57 -0.06,0.15 -0.41,0.32 -0.55,0.26 -0.39,-0.15 -0.46,-0.45 -0.06,-0.83 z"
   id="path36" />
	</g>
</g>
</svg>
