<?xml version="1.0" encoding="UTF-8" standalone="no"?>
<!-- Generator: Adobe Adobe Illustrator 24.2.0, SVG Export Plug-In . SVG Version: 6.00 Build 0)  -->

<svg
   version="1.1"
   id="Layer_1"
   x="0px"
   y="0px"
   width="262.97269"
   height="134.91476"
   viewBox="0 0 262.97269 134.91476"
   xml:space="preserve"
   sodipodi:docname="pepino.svg"
   inkscape:version="1.4 (e7c3feb1, 2024-10-09)"
   xmlns:inkscape="http://www.inkscape.org/namespaces/inkscape"
   xmlns:sodipodi="http://sodipodi.sourceforge.net/DTD/sodipodi-0.dtd"
   xmlns="http://www.w3.org/2000/svg"
   xmlns:svg="http://www.w3.org/2000/svg"><defs
   id="defs123" /><sodipodi:namedview
   id="namedview123"
   pagecolor="#ffffff"
   bordercolor="#000000"
   borderopacity="0.25"
   inkscape:showpageshadow="2"
   inkscape:pageopacity="0.0"
   inkscape:pagecheckerboard="0"
   inkscape:deskcolor="#d1d1d1"
   inkscape:zoom="1.6816667"
   inkscape:cx="120.71358"
   inkscape:cy="94.251734"
   inkscape:window-width="1200"
   inkscape:window-height="1186"
   inkscape:window-x="0"
   inkscape:window-y="0"
   inkscape:window-maximized="0"
   inkscape:current-layer="Layer_1" />
<g
   id="g123"
   transform="translate(-179.13992,-205.52524)">
	<g
   id="g122">
		<path
   d="m 179.32,285.59 c -0.07,-4.62 -0.16,-9.11 -0.18,-13.6 -0.01,-2.89 0.88,-5.57 2.08,-8.16 2.28,-4.91 5.19,-9.36 9.2,-13.09 4.36,-4.07 8.85,-7.97 13.62,-11.54 4.65,-3.48 9.74,-6.11 15.24,-7.98 5.45,-1.86 10.89,-3.74 16.31,-5.66 5.45,-1.92 11.1,-3.02 16.71,-4.33 5.51,-1.29 11.01,-2.61 16.38,-4.43 3.08,-1.04 6.25,-1.49 9.47,-1.71 3.03,-0.2 6,-0.75 8.91,-1.61 3.06,-0.91 6.18,-1.35 9.35,-1.66 5.22,-0.52 10.28,-1.82 15.16,-3.71 4.01,-1.55 8.15,-2.5 12.4,-2.58 2.8,-0.06 5.63,0.46 8.43,0.86 1.78,0.25 3.56,0.63 5.29,1.14 5.82,1.73 10.82,4.79 15.01,9.25 5.72,6.09 8.81,13.38 10.17,21.49 0.22,1.29 0.19,2.62 0.29,4.1 4.37,0.55 8.7,1.39 12.79,3.45 0.46,-0.41 0.91,-0.77 1.32,-1.17 1.54,-1.53 3.28,-2.77 5.17,-3.8 8.17,-4.47 16.79,-7.58 26.07,-8.73 4.78,-0.59 9.54,-0.43 14.27,0.51 4.15,0.82 7.63,2.81 10.74,5.64 4.75,4.32 7.42,9.73 8.45,15.98 0.24,1.42 0.15,2.94 -0.07,4.37 -0.32,2.07 -0.86,4.1 -1.37,6.14 -0.41,1.63 -1.25,3.06 -2.19,4.44 -5.14,7.5 -11.56,13.74 -19.02,18.87 -6.07,4.18 -12.27,8.17 -18.75,11.7 -0.61,0.33 -0.79,0.79 -0.93,1.37 -0.49,1.99 -0.93,3.99 -1.52,5.95 -0.47,1.53 -1,3.08 -1.75,4.49 -3.2,5.93 -7.09,11.36 -12.34,15.65 -3.29,2.68 -6.7,5.22 -10.12,7.73 -4.03,2.95 -8.66,4.56 -13.56,5.1 -3.77,0.42 -7.6,0.37 -11.4,0.38 -3.04,0 -6.01,-0.59 -8.92,-1.48 -5.91,-1.83 -11.52,-4.29 -16.63,-7.81 -2.83,-1.95 -5.2,-4.38 -7.16,-7.23 -2.06,-2.98 -3.9,-6.06 -5.2,-9.6 -0.88,0.17 -1.73,0.32 -2.57,0.5 -5.15,1.12 -10.27,2.36 -15.44,3.35 -5.57,1.07 -11.23,1.31 -16.89,1.57 -5.31,0.25 -10.61,0.69 -15.92,0.98 -2.97,0.16 -5.95,0.33 -8.92,0.25 -6.06,-0.16 -12.1,0.27 -18.14,0.53 -3.11,0.13 -6.24,0.05 -9.36,-0.04 -5.53,-0.16 -10.98,-0.88 -16.32,-2.39 -4.73,-1.34 -8.92,-3.57 -12.48,-7.04 -3.82,-3.73 -7.29,-7.74 -10.42,-12.06 -3.11,-4.28 -4.91,-8.99 -5.26,-14.38 z m 104.01,32.48 c 3.1,-0.37 6.22,-0.64 9.3,-1.14 3.08,-0.5 6.13,-1.18 9.17,-1.91 3,-0.72 6.06,-1.26 9.01,-2.18 -0.09,-0.82 -0.21,-1.45 -0.23,-2.08 -0.27,-6.75 -0.15,-13.47 1.63,-20.06 0.15,-0.57 0.14,-1.05 -0.25,-1.5 -1.02,-1.17 -1.97,-2.43 -3.1,-3.49 -3.32,-3.08 -6.18,-6.52 -8.55,-10.36 -3.48,-5.67 -5.85,-11.64 -5.42,-18.51 0.2,-3.1 -0.3,-6.23 -0.88,-9.31 -1.08,-5.74 -1.16,-11.47 0.52,-17.11 1.7,-5.72 4.48,-10.91 8.19,-15.59 0.76,-0.95 1.67,-1.78 2.5,-2.66 0.21,-0.22 0.4,-0.45 0.77,-0.88 -0.75,0.17 -1.23,0.25 -1.69,0.38 -2.83,0.79 -5.71,1.31 -8.64,1.52 -2.94,0.21 -5.77,0.91 -8.62,1.59 -2.6,0.62 -5.24,1.14 -7.9,1.47 -3.34,0.42 -6.7,0.61 -9.92,1.72 -5.68,1.96 -11.53,3.33 -17.37,4.68 -5.61,1.3 -11.25,2.45 -16.69,4.4 -4.78,1.71 -9.56,3.39 -14.38,4.99 -5.79,1.93 -11.19,4.58 -16.07,8.26 -5.04,3.8 -9.8,7.9 -14.33,12.3 -4.08,3.96 -6.82,8.77 -8.87,13.99 -0.59,1.52 -0.96,3.21 -1.02,4.83 -0.14,3.95 -0.09,7.91 -0.04,11.86 0.08,5.98 1.77,11.42 5.39,16.25 3,3.99 6.21,7.77 9.77,11.28 3.58,3.54 7.8,5.77 12.61,7.09 4.88,1.34 9.84,2 14.88,2.22 2.58,0.11 5.17,0.31 7.75,0.2 6.24,-0.28 12.47,-0.76 18.73,-0.7 3.51,0.03 7.03,-0.09 10.53,-0.27 7.65,-0.37 15.3,-0.83 23.22,-1.28 z m 61.61,-70.27 c -1.25,0.85 -2.55,1.64 -3.74,2.57 -3.75,2.92 -7.11,6.25 -10.2,9.85 -4.34,5.06 -8,10.58 -11.41,16.29 -6.18,10.35 -8.55,21.58 -7.81,33.54 0.12,1.95 0.42,3.88 1.22,5.69 2.82,6.34 7.03,11.43 13.19,14.8 4.5,2.47 9.23,4.25 14.36,4.71 3.97,0.36 7.92,-0.22 11.74,-1.21 6.79,-1.75 13.02,-4.7 18.27,-9.47 4.5,-4.08 8.79,-8.35 11.96,-13.58 2.71,-4.47 5.05,-9.14 7.02,-13.99 2.7,-6.63 4.35,-13.49 3.8,-20.69 -0.26,-3.44 -0.93,-6.86 -1.6,-10.25 -0.98,-5.03 -3.42,-9.3 -7.1,-12.87 -2.26,-2.19 -4.85,-3.88 -7.6,-5.41 -8.45,-4.69 -21.94,-6.31 -32.1,0.02 z m -48.78,7.56 c 0.03,1.66 0.06,3.32 0.1,4.98 0.07,2.61 0.59,5.13 1.65,7.53 2.32,5.26 5.24,10.14 9.23,14.32 1.88,1.97 3.8,3.9 5.73,5.87 4.93,-13.37 12.95,-24.76 22.93,-34.91 -0.28,-0.3 -0.53,-0.53 -0.73,-0.8 -0.21,-0.27 -0.41,-0.55 -0.54,-0.86 -0.35,-0.79 -0.25,-1.46 0.25,-1.88 0.61,-0.5 1.2,-0.27 1.75,0.1 0.59,0.41 1.15,0.87 1.78,1.34 3.23,-2.88 6.82,-5.11 10.77,-6.77 4.04,-1.69 8.32,-1.89 12.78,-2.06 -0.06,-1.21 -0.05,-2.32 -0.19,-3.41 -0.68,-4.99 -2.3,-9.66 -4.71,-14.07 -3.9,-7.14 -9.62,-12.26 -17.18,-15.18 -4.71,-1.82 -9.72,-2.55 -14.76,-2.75 -3.33,-0.13 -6.56,0.6 -9.78,1.47 -5.23,1.41 -9.35,4.28 -12.5,8.63 -2.33,3.22 -4.21,6.68 -5.73,10.35 -2.38,5.74 -2.96,11.68 -2.09,17.8 0.46,3.34 0.82,6.68 1.24,10.3 z m 99.5,-18.93 c -0.55,0.19 -1.11,0.38 -1.66,0.58 -4.24,1.51 -8.3,3.41 -12.19,5.66 -1.68,0.97 -3.16,2.2 -4.43,3.62 4.28,2.73 8.47,5.41 12.94,8.26 -0.3,-0.62 -0.46,-0.91 -0.59,-1.22 -0.29,-0.67 -0.65,-1.32 -0.83,-2.02 -0.27,-1.02 0.43,-1.65 1.41,-1.29 0.44,0.16 0.9,0.44 1.21,0.79 0.64,0.73 1.26,1.5 1.75,2.33 0.73,1.22 0.56,1.84 -0.56,2.74 -0.14,0.11 -0.3,0.2 -0.24,0.17 0.9,0.99 1.79,1.97 2.67,2.95 0.53,-0.5 0.02,-1.4 0.93,-1.92 0,0.84 -0.04,1.49 0.01,2.13 0.04,0.51 0.08,1.08 0.33,1.5 0.66,1.08 1.44,2.08 2.16,3.11 1.1,0.36 2.33,-0.51 3.38,0.19 0,0.13 0.01,0.26 0.01,0.39 -0.96,0.1 -1.92,0.2 -2.96,0.32 0.15,0.42 0.24,0.69 0.35,0.95 0.98,2.26 1.59,4.63 1.74,7.07 0.25,3.94 0.38,7.89 0.56,11.84 0.02,0.46 0,0.93 0,1.53 0.36,-0.15 0.54,-0.2 0.7,-0.29 4.62,-2.55 8.94,-5.58 13.25,-8.61 3.21,-2.26 6.1,-4.87 8.5,-7.99 0.77,-1 1.61,-1.97 2.52,-2.85 4.59,-4.43 7.04,-10 8.6,-16.04 0.31,-1.2 0.54,-2.57 0.29,-3.75 -1.18,-5.46 -3.95,-9.71 -9.5,-11.67 -3.96,-1.4 -8.07,-1.96 -12.23,-1.87 -6.13,0.14 -12.11,1.25 -18.12,3.39 z m -1.4,48.63 c -0.08,0.47 -0.15,0.95 -0.22,1.41 1.13,0.81 2.61,0.85 3.74,2.06 -1.64,0.12 -2.63,-0.93 -3.92,-1.03 -0.47,1.87 -0.94,3.7 -1.42,5.58 0.56,0.29 1.03,0.52 1.5,0.78 0.73,0.39 1.47,0.77 2.17,1.21 0.15,0.09 0.14,0.43 0.28,0.9 -1.55,-0.77 -2.84,-1.42 -4.22,-2.11 -0.8,2.04 -1.55,3.97 -2.31,5.91 0.99,0.5 1.89,0.88 2.71,1.39 0.82,0.5 1.88,0.76 2.11,2.02 -1.72,-0.89 -3.33,-2 -5.24,-2.61 -0.57,1.2 -1.09,2.29 -1.63,3.42 0.54,0.36 0.99,0.65 1.43,0.95 1.72,1.2 3.45,2.39 5.15,3.61 0.32,0.23 0.81,0.49 0.25,1.19 -2.31,-1.74 -4.6,-3.53 -7.23,-4.97 -0.5,0.96 -0.93,1.81 -1.35,2.61 1.05,0.98 2.01,1.81 2.88,2.72 0.83,0.88 1.83,1.67 2.01,3.04 -1.82,-1.57 -3.25,-3.53 -5.34,-4.93 -0.66,1.18 -1.28,2.32 -1.89,3.4 2.02,2.09 2.02,2.09 1.95,2.91 -0.83,-0.73 -1.58,-1.39 -2.45,-2.15 -0.47,0.71 -0.89,1.34 -1.37,2.06 0.46,0.46 0.9,0.84 1.27,1.28 0.35,0.42 1.05,0.7 0.68,1.69 -0.88,-0.81 -1.64,-1.52 -2.45,-2.27 -1.14,1.36 -2.2,2.62 -3.3,3.93 0.68,0.76 1.33,1.42 1.9,2.14 0.53,0.67 1.37,1.19 1.37,2.58 -1.58,-1.34 -2.45,-2.96 -3.91,-4.09 -0.69,0.75 -1.33,1.44 -1.99,2.16 0.62,0.76 1.19,1.37 1.64,2.06 0.43,0.66 1.33,1.14 1.01,2.49 -1.17,-1.44 -2.18,-2.69 -3.22,-3.99 -1.51,1.39 -2.86,2.63 -4.19,3.85 0.43,1.08 1.66,1.46 1.92,2.72 -1.38,-0.19 -1.71,-1.52 -2.66,-2 -0.09,0.03 -0.2,0.03 -0.27,0.08 -0.24,0.17 -0.47,0.35 -0.7,0.52 -6.65,4.94 -14.09,7.86 -22.34,8.73 -2.78,0.29 -5.54,0.47 -8.31,-0.01 -0.43,-0.07 -0.86,-0.18 -1.29,-0.27 -0.42,-0.08 -0.84,-0.15 -1.26,-0.23 4.2,2.04 8.62,3.21 13.25,3.35 2.97,0.09 5.95,-0.03 8.92,-0.18 5.63,-0.29 10.85,-1.93 15.44,-5.24 3.32,-2.39 6.56,-4.92 9.77,-7.46 1.26,-0.99 2.45,-2.1 3.54,-3.28 2.82,-3.06 5.31,-6.38 7.42,-9.96 0.94,-1.59 1.78,-3.28 2.34,-5.02 2.43,-7.56 3.88,-15.32 3.93,-23.28 0.03,-3.9 -0.24,-7.8 -0.52,-11.69 -0.2,-2.84 -0.92,-5.58 -2.28,-8.12 -0.18,-0.34 -0.35,-0.78 -0.65,-0.94 -1.52,-0.81 -3.09,-1.54 -4.9,-2.03 0.46,1.7 0.87,3.23 1.27,4.69 0.94,0.43 2.04,0.02 2.71,1.12 -0.81,-0.04 -1.63,-0.09 -2.58,-0.14 0.22,1.26 0.38,2.41 0.66,3.53 0.07,0.28 0.49,0.57 0.81,0.69 0.91,0.34 1.86,0.57 2.78,0.89 0.32,0.11 0.58,0.36 0.87,0.55 -0.05,0.11 -0.09,0.22 -0.14,0.33 -1.37,-0.01 -2.58,-0.93 -4.07,-0.96 0.09,0.89 0.28,1.7 0.23,2.51 -0.07,1.19 0.39,1.8 1.53,2.07 0.43,0.1 1.09,0.15 1.12,1.08 -0.86,-0.22 -1.62,-0.41 -2.49,-0.63 0,1.45 0,2.75 0,4.01 0.68,0.67 1.92,0.43 2.43,1.72 -0.56,-0.13 -0.92,-0.21 -1.27,-0.31 -0.4,-0.12 -0.8,-0.26 -1.32,-0.43 -0.08,0.81 -0.17,1.48 -0.29,2.39 z m 22.83,2.97 c 7.7,-5.11 14.36,-11.31 19.76,-18.96 -0.78,-0.55 -1.45,-0.96 -2.05,-1.45 -0.53,-0.44 -1.43,-0.58 -1.27,-1.73 1.24,0.81 2.47,1.62 3.8,2.49 0.43,-0.7 0.82,-1.35 1.21,-2 -1.19,-1.11 -2.75,-1.56 -3.62,-2.89 1.55,0.15 2.54,1.44 4.04,1.98 0.26,-0.94 0.48,-1.76 0.72,-2.61 -0.89,-0.49 -1.69,-0.86 -2.42,-1.34 -0.72,-0.47 -1.78,-0.46 -2.29,-1.68 1.95,0.28 3.26,1.6 4.98,2.1 0.2,-0.94 0.37,-1.79 0.56,-2.66 -0.73,-0.42 -1.39,-0.74 -1.98,-1.16 -0.5,-0.37 -1.42,-0.41 -1.37,-1.63 1.22,0.68 2.27,1.26 3.49,1.94 0.08,-0.87 0.15,-1.57 0.23,-2.37 -1.81,-0.71 -3.52,-1.39 -5.42,-2.14 -1.51,5.22 -4.18,9.69 -8.08,13.5 0.84,0.75 1.57,1.39 2.29,2.04 1.64,1.46 1.64,1.46 1.62,2.51 -1.53,-1.36 -2.96,-2.63 -4.47,-3.97 -0.6,0.73 -1.11,1.35 -1.77,2.14 0.71,0.63 1.37,1.14 1.92,1.75 0.5,0.55 1.41,0.87 1.31,2.08 -1.5,-0.91 -2.39,-2.29 -3.7,-3.25 -0.51,0.62 -0.97,1.17 -1.47,1.77 0.66,0.71 1.27,1.27 1.77,1.93 0.47,0.63 1.47,0.98 1.25,2.34 -1.3,-1.32 -2.43,-2.47 -3.58,-3.63 -1.48,1.33 -2.85,2.55 -4.28,3.84 0.51,0.69 1,1.3 1.43,1.94 0.44,0.64 1.15,1.14 1.12,2.07 -0.84,-0.26 -1.22,-1 -1.72,-1.6 -0.52,-0.62 -1,-1.27 -1.52,-1.95 -0.92,0.66 -1.71,1.22 -2.46,1.76 0.39,1.14 1.58,1.66 1.74,2.91 -0.82,-0.02 -1.05,-0.64 -1.42,-1.04 -0.38,-0.41 -0.71,-0.88 -1.1,-1.36 -1.13,0.78 -2.16,1.49 -3.25,2.24 0.46,0.62 0.87,1.11 1.19,1.64 0.29,0.48 1,0.8 0.67,1.71 -1.19,-0.73 -1.62,-2.03 -2.62,-2.85 -0.74,0.52 -1.44,1.01 -2.19,1.54 0.87,1.2 1.65,2.25 2.4,3.33 0.15,0.22 0.15,0.53 0.22,0.8 -1.59,-0.88 -2.17,-2.53 -3.41,-3.69 -0.89,0.52 -1.74,1.03 -2.66,1.57 0.68,0.98 1.28,1.75 1.77,2.59 0.46,0.79 1.41,1.34 1.19,2.52 -1.51,-1.34 -2.42,-3.18 -3.75,-4.68 -0.62,0.38 -1.12,0.67 -1.61,0.99 -0.83,0.53 -0.91,0.85 -0.31,1.63 0.92,1.2 1.87,2.38 2.82,3.55 0.58,0.71 1.17,1.41 1.85,2.21 3.48,-2.26 6.87,-4.46 10.44,-6.77 z m -16.05,5.34 c -0.26,1.62 -0.52,3.24 -0.84,5.19 2.05,-1.21 3.83,-2.26 5.69,-3.36 -0.8,-0.98 -1.45,-1.83 -2.15,-2.63 -0.7,-0.81 -1.23,-1.8 -2.27,-2.49 -0.14,1.12 -0.27,2.08 -0.43,3.29 z m -12.31,-38.2 c -0.14,-0.05 -0.29,-0.09 -0.47,-0.15 1.03,1.84 2,3.58 2.98,5.32 0.12,0.21 0.26,0.47 0.45,0.55 1.36,0.55 2.73,1.05 4.1,1.57 -1.89,-2.87 -4.17,-5.25 -7.06,-7.29 z m 51.95,-0.96 c -0.13,-0.7 -0.01,-1.52 -0.8,-1.92 -1.06,-0.53 -2.15,-1.01 -3.34,-1.57 -0.28,0.96 -0.5,1.74 -0.73,2.52 1.65,0.62 3.22,1.21 4.9,1.85 -0.01,-0.32 -0.01,-0.5 -0.03,-0.88 z m -49.72,-2.87 c -0.37,-0.26 -0.69,-0.68 -1.41,-0.42 0.74,1.58 1.14,3.24 2.7,4.18 0.7,-0.53 0.74,-1.06 0.35,-1.62 -0.48,-0.68 -0.99,-1.33 -1.64,-2.14 z m 47.29,-0.73 c 0.54,0.24 1.08,0.49 1.74,0.78 -0.53,-2.59 -0.7,-2.75 -3.07,-3.09 -0.06,0.56 -0.12,1.11 -0.19,1.67 0.51,0.21 0.91,0.38 1.52,0.64 z m -101.42,0.34 c -0.47,-0.28 -0.94,-0.57 -1.48,-0.89 -0.22,1.45 -0.08,1.69 1.29,2.4 0.44,-0.37 1.23,-0.63 0.19,-1.51 z m 101.31,-3.28 c 0.11,-0.14 0.35,-0.33 0.32,-0.4 -0.3,-0.72 -0.62,-1.43 -1,-2.11 -0.14,-0.25 -0.47,-0.4 -0.98,-0.81 0.16,0.9 0.32,1.45 0.33,2 0.02,0.79 0.4,1.16 1.33,1.32 z"
   id="path1" />
		<path
   d="m 296.36,311.91 c -7.57,1.62 -15.11,2.62 -22.66,3.51 -3.05,0.36 -6.12,0.51 -9.19,0.7 -5.45,0.32 -10.91,0.64 -16.36,0.87 -7.58,0.31 -15.1,-0.36 -22.58,-1.62 -4.52,-0.76 -9.09,-1.26 -13.57,-2.2 -3.76,-0.79 -7.41,-2.04 -11.11,-3.09 -0.16,-0.05 -0.29,-0.2 -0.51,-0.36 0.42,-0.48 0.83,-0.32 1.23,-0.2 1.63,0.5 3.28,0.94 4.9,1.49 3.39,1.16 6.92,1.63 10.44,2.18 4.82,0.76 9.63,1.5 14.46,2.17 7.13,0.99 14.29,1.02 21.47,0.56 2.97,-0.19 5.94,-0.33 8.91,-0.46 6.53,-0.29 13.02,-0.99 19.51,-1.83 8.33,-1.08 16.51,-2.92 24.71,-4.65 0.44,-0.09 0.89,-0.11 1.39,-0.17 0,0.86 -0.51,0.82 -0.91,0.9 -3.34,0.72 -6.67,1.44 -10.13,2.2 z"
   id="path2" />
		<path
   d="m 250.23,246.41 c -6.86,1.96 -13.7,3.64 -20.34,5.88 -13.63,4.6 -27.06,9.76 -40.09,15.9 -0.75,0.35 -1.48,0.75 -2.24,1.09 -0.23,0.1 -0.5,0.1 -0.88,0.17 0.18,-0.92 0.88,-1.05 1.41,-1.3 4.65,-2.13 9.26,-4.4 14,-6.31 11.07,-4.47 22.16,-8.95 33.63,-12.32 12.26,-3.6 24.64,-6.75 37.21,-9.06 4.83,-0.89 9.76,-1.28 14.64,-1.88 0.37,-0.05 0.81,-0.17 0.98,0.61 -2.51,0.53 -5.08,0.51 -7.59,0.87 -2.61,0.37 -5.22,0.71 -7.81,1.17 -2.54,0.45 -5.06,1.02 -7.59,1.58 -2.57,0.56 -5.14,1.16 -7.7,1.76 -2.5,0.58 -5.01,1.21 -7.63,1.84 z"
   id="path3" />
		<path
   d="m 276.3,236.45 c -20.79,2.78 -40.72,8.29 -60.1,15.9 -8.04,3.16 -16.06,6.35 -23.71,10.4 -1.21,0.64 -2.4,1.31 -3.6,1.95 -0.32,0.17 -0.66,0.29 -1.15,0.23 0.12,-0.21 0.19,-0.51 0.38,-0.63 0.87,-0.54 1.76,-1.05 2.66,-1.54 7.71,-4.25 15.86,-7.52 24.02,-10.79 14.21,-5.7 28.82,-10.05 43.76,-13.34 7.25,-1.6 14.56,-2.8 21.96,-3.45 1.15,-0.1 2.3,-0.22 3.48,-0.34 0.07,0.83 -0.47,0.84 -0.84,0.9 -0.92,0.14 -1.84,0.21 -2.76,0.3 -1.34,0.14 -2.65,0.27 -4.1,0.41 z"
   id="path4" />
		<path
   d="m 303.38,306.01 c -4.67,0.9 -9.2,1.91 -13.78,2.59 -4.82,0.71 -9.69,1.15 -14.54,1.63 -8.46,0.83 -16.95,0.9 -25.45,1 -4.34,0.05 -8.69,0.17 -13.03,0.17 -4.49,0.01 -8.96,-0.33 -13.4,-1.1 -3.27,-0.57 -6.55,-1.01 -9.83,-1.52 -0.33,-0.05 -0.65,-0.19 -1.05,-0.32 0.42,-0.68 0.88,-0.49 1.29,-0.43 3.71,0.55 7.41,1.22 11.14,1.64 3.77,0.43 7.58,0.86 11.37,0.86 8.98,0.01 17.96,-0.15 26.94,-0.38 7.51,-0.2 14.99,-0.99 22.45,-1.83 6.56,-0.73 12.99,-2.14 19.43,-3.49 0.67,-0.14 1.34,-0.29 2.01,-0.36 0.33,-0.03 0.67,0.1 1.01,0.36 -1.43,0.68 -2.97,0.78 -4.56,1.18 z"
   id="path5" />
		<path
   d="m 269.21,301.75 c -7.71,0.76 -15.28,1.54 -22.85,2.23 -3.01,0.27 -6.04,0.41 -9.06,0.46 -4.53,0.07 -9.07,0 -13.61,-0.03 -1.11,-0.01 -1.11,-0.05 -2,-0.69 0.43,-0.07 0.72,-0.16 1.01,-0.16 4.15,0.05 8.3,0.25 12.44,0.15 6.04,-0.15 12.08,-0.52 18.09,-1.26 4.21,-0.52 8.45,-0.8 12.67,-1.23 5,-0.51 10,-1 14.99,-1.6 4.84,-0.58 9.69,-1.16 14.49,-1.97 3.65,-0.62 7.23,-1.6 10.84,-2.42 0.76,-0.17 1.52,-0.35 2.29,-0.45 0.41,-0.06 0.91,-0.08 1,0.55 -6.59,1.72 -13.19,3.33 -19.96,4.1 -6.73,0.75 -13.47,1.53 -20.34,2.32 z"
   id="path6" />
		<path
   d="m 252.61,282.17 c 1.48,-0.19 2.8,-0.73 4.19,-0.6 0.04,0.11 0.07,0.23 0.11,0.34 -0.31,0.16 -0.59,0.4 -0.92,0.46 -8.52,1.64 -16.96,3.68 -25.59,4.8 -7.74,1 -15.45,2.22 -23.17,3.33 -3.76,0.54 -7.53,1.06 -11.3,1.58 -0.17,0.02 -0.35,-0.05 -0.58,-0.09 0.11,-0.73 0.66,-0.71 1.11,-0.78 1.98,-0.3 3.96,-0.58 5.93,-0.87 7.19,-1.04 14.38,-2.08 21.57,-3.13 4.73,-0.69 9.47,-1.3 14.18,-2.13 4.8,-0.85 9.57,-1.92 14.47,-2.91 z"
   id="path7" />
		<path
   d="m 255.56,307.99 c -1.78,0.16 -3.43,0.42 -5.16,0.12 0.14,-0.28 0.17,-0.42 0.22,-0.43 19.56,-1.44 38.98,-3.89 58.14,-8.21 0.05,-0.01 0.13,0.12 0.22,0.22 -0.08,0.72 -0.75,0.68 -1.21,0.79 -1.95,0.46 -3.9,0.87 -5.86,1.26 -7.79,1.57 -15.62,3 -23.51,3.98 -5.95,0.74 -11.93,1.27 -17.9,1.88 -1.59,0.16 -3.2,0.26 -4.94,0.39 z"
   id="path8" />
		<path
   d="m 275.45,296.23 c 7.6,-0.51 14.95,-1.75 22.23,-3.41 3.52,-0.8 7.03,-1.61 10.55,-2.41 0.44,-0.1 0.9,-0.11 1.47,-0.17 -0.17,0.83 -0.71,0.85 -1.15,0.96 -2.75,0.65 -5.5,1.33 -8.27,1.9 -4.97,1.01 -9.93,2.09 -14.93,2.86 -4.28,0.66 -8.62,1 -12.94,1.36 -5.05,0.43 -10.12,0.75 -15.18,1.1 -0.64,0.04 -1.33,0.26 -2.1,-0.3 0.35,-0.19 0.56,-0.39 0.78,-0.41 4.13,-0.31 8.27,-0.6 12.4,-0.91 2.34,-0.17 4.67,-0.37 7.14,-0.57 z"
   id="path9" />
		<path
   d="m 231.21,268.99 c 0.94,-0.48 1.81,-0.93 2.73,-1.22 11.07,-3.56 22.33,-6.33 33.83,-8.12 2.26,-0.35 4.55,-0.58 6.83,-0.84 0.41,-0.05 0.89,-0.19 1.2,0.46 -0.24,0.11 -0.46,0.3 -0.7,0.32 -13.8,1.4 -27.18,4.73 -40.4,8.76 -0.98,0.3 -1.93,0.68 -2.89,1.04 -0.35,0.12 -0.58,0.1 -0.6,-0.4 z"
   id="path10" />
		<path
   d="m 227.29,238.14 c 7.83,-2.43 24.43,-5.74 26.38,-5.24 -0.31,0.72 -1.01,0.74 -1.58,0.84 -1.25,0.23 -2.51,0.38 -3.76,0.54 -7.29,0.9 -14.37,2.7 -21.38,4.83 -4.67,1.42 -9.21,3.2 -13.65,5.23 -0.31,0.14 -0.65,0.2 -1.17,0.35 0.31,-0.99 0.99,-1.12 1.53,-1.36 4.39,-2 8.87,-3.81 13.63,-5.19 z"
   id="path11" />
		<path
   d="m 234.77,263.7 c 3.71,-1.21 7.31,-2.43 10.94,-3.52 7.47,-2.25 15.1,-3.84 22.82,-4.91 0.92,-0.13 1.84,-0.24 2.76,-0.32 0.45,-0.04 0.91,0.03 1.49,0.05 -0.28,0.81 -0.82,0.69 -1.26,0.76 -4.18,0.67 -8.39,1.22 -12.54,2.02 -8.05,1.54 -15.88,3.88 -23.64,6.49 -0.18,0.06 -0.38,0.2 -0.55,0.17 -0.55,-0.12 -0.44,-0.4 -0.02,-0.74 z"
   id="path12" />
		<path
   d="m 261.18,265.57 c 11.67,-1.58 14.47,-1.75 15.45,-0.96 -0.12,0.09 -0.23,0.23 -0.34,0.23 -12.92,0.51 -25.41,3.36 -37.79,6.84 -0.01,0 -0.05,-0.07 -0.12,-0.19 0.15,-0.61 0.79,-0.61 1.24,-0.75 2.89,-0.86 5.77,-1.79 8.71,-2.48 4.22,-0.99 8.48,-1.78 12.85,-2.69 z"
   id="path13" />
		<path
   d="m 294.36,290.27 c 3.46,-0.71 6.79,-1.39 10.13,-2.07 0.04,-0.01 0.11,0.13 0.21,0.26 -0.15,0.58 -0.72,0.58 -1.14,0.66 -4.92,1 -9.82,2.18 -14.78,2.88 -6.37,0.9 -12.8,1.4 -19.2,2.06 -0.29,0.03 -0.6,-0.08 -1.01,-0.15 0.3,-0.74 0.86,-0.61 1.29,-0.65 2.72,-0.29 5.44,-0.5 8.15,-0.84 5.4,-0.68 10.81,-1.42 16.35,-2.15 z"
   id="path14" />
		<path
   d="m 275.91,279.44 c -4.21,0.7 -8.29,1.39 -12.37,2.06 -0.06,0.01 -0.13,-0.12 -0.26,-0.23 0.15,-0.51 0.59,-0.51 1.01,-0.59 4.79,-0.88 9.6,-1.7 14.38,-2.65 5.02,-0.99 10.01,-2.1 15.02,-3.14 0.45,-0.09 0.92,-0.12 1.49,-0.19 -0.18,0.88 -0.79,0.88 -1.26,0.99 -2.56,0.6 -5.12,1.21 -7.7,1.75 -3.39,0.69 -6.79,1.32 -10.31,2 z"
   id="path15" />
		<path
   d="m 278.68,289.2 c -0.66,0.06 -1.19,0.16 -1.73,0.15 -0.27,0 -0.53,-0.18 -0.85,-0.31 0.19,-0.22 0.24,-0.34 0.31,-0.35 8.82,-0.93 17.53,-2.48 26.19,-4.32 0.06,-0.01 0.16,0.1 0.29,0.19 -0.12,0.68 -0.75,0.66 -1.21,0.76 -2.04,0.47 -4.07,0.99 -6.14,1.32 -5.57,0.9 -11.15,1.71 -16.86,2.56 z"
   id="path16" />
		<path
   d="m 302.85,281.12 c -2.14,0.6 -4.2,1.18 -6.3,1.57 -5.74,1.08 -11.5,2.09 -17.25,3.1 -0.67,0.12 -1.38,0.34 -2.19,-0.02 0.36,-0.61 0.9,-0.56 1.33,-0.64 7.75,-1.48 15.5,-2.94 23.25,-4.39 0.4,-0.06 0.97,-0.49 1.16,0.38 z"
   id="path17" />
		<path
   d="m 289.26,242.7 c -7.54,0.8 -14.91,1.86 -22.09,4.01 -0.38,0.11 -0.82,0.44 -1.21,-0.34 0.51,-0.19 0.97,-0.42 1.45,-0.53 3.89,-0.9 7.77,-1.86 11.68,-2.62 2.77,-0.54 5.59,-0.79 8.4,-1.15 0.53,-0.07 1.07,-0.08 1.6,-0.05 0.37,0.02 0.48,0.28 0.17,0.68 z"
   id="path18" />
		<path
   d="m 274.27,273.38 c 3.79,-0.89 7.44,-1.92 11.33,-2.19 -0.17,0.93 -0.81,0.81 -1.27,0.91 -1.91,0.39 -3.83,0.7 -5.73,1.12 -4.18,0.92 -8.35,1.89 -12.53,2.84 -0.44,0.1 -0.9,0.38 -1.39,-0.07 0.27,-0.57 0.78,-0.55 1.23,-0.66 2.75,-0.63 5.5,-1.28 8.36,-1.95 z"
   id="path19" />
		<path
   d="m 288.89,246.12 c -3.61,0.55 -7.09,1.09 -10.58,1.63 -0.04,-0.67 0.5,-0.68 0.88,-0.75 2.52,-0.51 5.04,-1.02 7.58,-1.44 1.48,-0.25 2.99,-0.36 4.49,-0.51 0.45,-0.04 0.97,-0.27 1.3,0.3 -0.71,0.53 -0.79,0.55 -3.67,0.77 z"
   id="path20" />
		<path
   d="m 290.12,249.16 c 0.52,-0.03 0.92,-0.03 1.45,-0.03 -0.21,0.8 -0.69,0.73 -1.08,0.8 -2.83,0.49 -5.66,0.97 -8.48,1.48 -0.79,0.14 -1.56,0.38 -2.46,0.61 0.08,-0.91 0.68,-0.95 1.14,-1.06 2.09,-0.47 4.18,-0.91 6.28,-1.32 1,-0.19 2.02,-0.3 3.15,-0.48 z"
   id="path21" />
		<path
   d="m 285.14,258.16 c 1.75,-0.19 3.34,-0.7 5.08,-0.66 -0.16,0.86 -0.77,0.79 -1.23,0.87 -1.82,0.31 -3.64,0.58 -5.46,0.89 -0.91,0.15 -1.81,0.35 -2.72,0.5 -0.31,0.05 -0.64,0.01 -0.96,0.01 -0.08,-0.66 0.38,-0.68 0.73,-0.75 1.47,-0.3 2.95,-0.57 4.56,-0.86 z"
   id="path22" />
		<path
   d="m 280.46,255.3 c 2.17,-1.09 4.48,-1.2 6.73,-1.56 0.67,-0.11 1.35,-0.19 2.03,-0.23 0.34,-0.02 0.7,0.08 1.09,0.13 -0.19,0.76 -0.71,0.62 -1.1,0.68 -1.98,0.29 -3.96,0.53 -5.93,0.84 -0.72,0.11 -1.41,0.37 -2.12,0.54 -0.3,0.08 -0.69,0.27 -0.7,-0.4 z"
   id="path23" />
		<path
   d="m 194.33,300.64 c 1.9,-0.28 3.74,-0.44 5.57,-0.6 0.87,-0.08 1.75,-0.19 2.62,-0.24 0.44,-0.03 0.89,0.03 1.34,0.05 0.02,0.1 0.03,0.2 0.05,0.31 -0.17,0.12 -0.33,0.34 -0.51,0.35 -2.77,0.23 -5.54,0.44 -8.31,0.61 -0.26,0.02 -0.55,-0.24 -0.76,-0.48 z"
   id="path24" />
		<path
   d="m 265.35,230.9 c 0.05,-0.29 0.08,-0.49 0.17,-0.65 0.06,-0.1 0.23,-0.14 0.44,-0.26 0.12,0.38 0.23,0.71 0.39,1.22 0.57,-0.29 1.08,-0.55 1.6,-0.81 -0.01,-0.1 -0.03,-0.19 -0.04,-0.29 -0.59,-0.12 -1.18,-0.25 -1.86,-0.38 0.82,-0.74 2.06,-0.76 2.58,-0.1 0.15,0.19 0.23,0.55 0.16,0.78 -0.26,0.92 -2.01,1.76 -2.88,1.37 -0.25,-0.13 -0.37,-0.51 -0.56,-0.88 z"
   id="path25" />
		<path
   d="m 221.73,234.23 c 0.72,-0.29 1.24,-0.17 1.62,0.39 0.4,0.6 0.08,1.13 -0.23,1.61 -0.4,0.62 -1.34,0.73 -1.94,0.29 -0.54,-0.4 -0.63,-1 -0.19,-1.67 0.16,-0.22 0.42,-0.38 0.74,-0.62 z m 0.63,1.62 c 0.1,-0.28 0.2,-0.55 0.31,-0.87 -0.68,-0.14 -1.01,0.1 -1.09,0.58 -0.01,0.1 0.4,0.27 0.78,0.29 z"
   id="path26" />
		<path
   d="m 283.77,266.11 c -0.01,-1.42 0.65,-2.06 1.65,-1.73 0.77,0.25 1.3,1.06 1.1,1.66 -0.18,0.54 -1.02,0.95 -1.72,0.75 -0.36,-0.09 -0.66,-0.38 -1.03,-0.68 z m 1.64,-0.13 c 0.45,-0.35 0.2,-0.62 -0.16,-0.72 -0.21,-0.06 -0.66,0.09 -0.7,0.23 -0.13,0.51 0.3,0.5 0.86,0.49 z"
   id="path27" />
		<path
   d="m 216.11,295.57 c -0.62,0.5 -0.62,0.5 -0.77,1.27 0.57,-0.08 1.1,-0.15 1.7,-0.24 0,0.94 -0.7,1 -1.19,1.03 -0.41,0.02 -1.02,-0.18 -1.22,-0.49 -0.21,-0.32 -0.21,-1.07 0.03,-1.32 0.52,-0.53 1.23,-0.87 1.89,-1.24 0.08,-0.04 0.33,0.23 0.66,0.48 -0.43,0.21 -0.71,0.34 -1.1,0.51 z"
   id="path28" />
		<path
   d="m 238.62,279.87 c -1.4,0.63 -1.93,0.42 -2.09,-0.79 0.57,-0.13 1.47,1.11 1.79,-0.46 -0.53,-0.18 -1.04,-0.36 -1.6,-0.56 0.64,-0.61 1.25,-0.64 1.88,-0.17 0.6,0.44 0.62,0.88 0.02,1.98 z"
   id="path29" />
		<path
   d="m 188.71,297.64 c -0.64,0.29 -1.17,0.33 -1.53,-0.21 -0.33,-0.47 -0.45,-1.11 0.03,-1.45 0.42,-0.31 1.08,-0.5 1.59,-0.42 0.66,0.1 0.64,0.78 0.48,1.31 -0.08,0.26 -0.31,0.48 -0.57,0.77 z m -0.63,-1.21 c -0.07,0.15 -0.14,0.31 -0.21,0.46 0.2,-0.03 0.4,-0.07 0.6,-0.1 -0.08,-0.15 -0.16,-0.3 -0.39,-0.36 z"
   id="path30" />
		<path
   d="m 190.24,280.39 c 0.12,0.21 0.19,0.54 0.14,0.56 -1.51,0.62 -3.03,1.2 -4.55,1.79 -0.02,0.01 -0.07,-0.06 -0.1,-0.1 0.51,-0.99 1.92,-1.72 4.51,-2.25 z"
   id="path31" />
		<path
   d="m 288.3,218.56 c 0.47,-1.23 1.41,-0.98 2.26,-0.88 0.54,0.07 0.55,0.15 0.69,1.07 -0.7,-0.07 -1.38,-0.87 -2.2,-0.04 0.35,0.29 0.65,0.53 0.98,0.81 -0.07,0.12 -0.12,0.31 -0.2,0.33 -0.95,0.2 -1.11,0.07 -1.53,-1.29 z"
   id="path32" />
		<path
   d="m 262.03,290.6 c -0.75,0.07 -1.28,-0.1 -1.46,-0.79 -0.15,-0.56 0.42,-1.48 1.1,-1.72 0.51,-0.18 1.12,-0.41 1.48,0.46 -0.65,0.26 -1.56,0.03 -1.76,1.08 0.36,0.1 0.74,0.21 1.29,0.36 -0.23,0.25 -0.38,0.42 -0.65,0.61 z"
   id="path33" />
		<path
   d="m 211.45,281.57 c -0.49,1.38 -0.61,1.46 -1.61,1.09 0.01,-0.09 0,-0.2 0.04,-0.27 0.23,-0.33 1.15,-0.39 0.6,-1.02 -0.45,-0.51 -0.68,0.23 -1,0.44 -0.1,0.07 -0.26,0.07 -0.39,0.11 -0.04,-0.9 0.23,-1.39 0.88,-1.52 0.83,-0.15 1.26,0.32 1.48,1.17 z"
   id="path34" />
		<path
   d="m 234.23,294.98 c 0.42,-0.28 0.85,-0.55 1.29,-0.59 0.98,-0.09 1.5,0.35 1.5,1.13 0,0.88 -0.66,1.43 -1.94,1.4 0.4,-0.4 0.71,-0.64 0.93,-0.95 0.11,-0.16 0.12,-0.46 0.05,-0.65 -0.04,-0.12 -0.31,-0.21 -0.48,-0.22 -0.43,-0.03 -0.89,-0.01 -1.35,-0.12 z"
   id="path35" />
		<path
   d="m 202.25,250.66 c 0.57,-0.24 1.37,0.29 1.55,-0.75 -0.35,-0.03 -0.68,-0.06 -1.02,-0.09 -0.03,-0.09 -0.07,-0.18 -0.1,-0.28 0.33,-0.22 0.64,-0.54 1,-0.63 0.24,-0.06 0.66,0.12 0.83,0.33 0.39,0.5 0.08,1.42 -0.57,1.89 -0.67,0.49 -1.11,0.39 -1.69,-0.47 z"
   id="path36" />
		<path
   d="m 188.37,277.43 c 0.54,-0.17 0.97,-0.45 1.46,-0.12 -0.75,0.84 -3.45,1.82 -4.65,1.66 0.85,-1.02 2.09,-1.02 3.19,-1.54 z"
   id="path37" />
		<path
   d="m 187.11,284.39 c 1.21,-0.52 2.26,-1.2 3.67,-1.37 -0.59,0.93 -3.26,2.18 -4.74,2.22 0.46,-0.37 0.72,-0.59 1.07,-0.85 z"
   id="path38" />
		<path
   d="m 187.15,288.89 c 1.27,-1.28 2.97,-2.04 4.08,-1.92 -0.06,0.14 -0.07,0.33 -0.17,0.38 -1.16,0.61 -2.34,1.2 -3.52,1.78 -0.08,0.05 -0.25,-0.08 -0.39,-0.24 z"
   id="path39" />
		<path
   d="m 203.81,268.29 c 1.05,-1.03 1.05,-1.03 2.17,-0.47 -0.34,0.58 -1.45,0.11 -1.48,1.15 0.28,0.04 0.57,0.08 0.93,0.13 0.06,0.81 -0.5,0.88 -1.02,0.78 -0.84,-0.17 -0.85,-0.81 -0.6,-1.59 z"
   id="path40" />
		<path
   d="m 186.86,274.17 c -0.78,0.36 -1.46,0.68 -2.14,1 -0.06,-0.06 -0.13,-0.12 -0.19,-0.18 0.14,-0.25 0.22,-0.59 0.43,-0.72 1,-0.63 2.05,-1.18 3.39,-1.23 -0.23,0.89 -0.94,0.81 -1.49,1.13 z"
   id="path41" />
		<path
   d="m 198.62,297.92 c 0.89,0.01 1.66,-0.51 2.5,-0.07 -0.95,0.86 -2.99,1.09 -4.17,0.33 0.68,-0.11 1.12,-0.18 1.67,-0.26 z"
   id="path42" />
		<path
   d="m 238.27,254.65 c 0.66,-0.2 1.28,-0.54 1.66,0.45 -0.52,0.1 -0.95,0.18 -1.5,0.29 0.12,0.41 0.22,0.73 0.35,1.16 -0.28,0.02 -0.53,0.11 -0.62,0.03 -0.26,-0.23 -0.65,-0.56 -0.62,-0.81 0.06,-0.38 0.41,-0.72 0.73,-1.12 z"
   id="path43" />
		<path
   d="m 256.55,276.4 c -0.67,-0.66 -0.62,-1.29 -0.17,-1.9 0.31,-0.43 0.62,-1.02 1.47,-0.64 -0.33,0.46 -0.79,0.84 -0.87,1.28 -0.07,0.36 0.31,0.8 0.56,1.37 -0.34,-0.01 -0.62,-0.03 -0.99,-0.11 z"
   id="path44" />
		<path
   d="m 345.61,289.95 c -1.4,2.04 -3.41,3.14 -5.48,4.3 1.91,0.46 2.28,1.66 0.98,2.99 -1.2,1.24 -2.64,2.15 -4.27,2.74 -0.27,0.1 -0.56,0.17 -0.85,0.22 -0.87,0.14 -1.77,-0.14 -1.96,-0.65 -0.29,-0.81 0.29,-1.3 0.81,-1.72 0.82,-0.68 1.71,-1.29 2.58,-1.91 0.42,-0.3 0.87,-0.57 1.35,-0.88 -0.17,-0.12 -0.24,-0.21 -0.3,-0.21 -0.62,-0.02 -1.32,0.15 -1.66,-0.6 -0.36,-0.79 -0.03,-1.48 0.53,-1.98 2.05,-1.83 4.3,-3.36 7,-4.1 0.56,-0.16 1.19,-0.31 1.62,0.26 0.41,0.53 -0.07,0.98 -0.35,1.54 z m -1.44,0.44 c 0.33,-0.45 0.66,-0.89 1.06,-1.43 -0.35,-0.05 -0.5,-0.12 -0.63,-0.08 -2.6,0.7 -4.72,2.2 -6.69,3.97 -0.24,0.21 -0.29,0.63 -0.45,1.01 1.75,0.13 4.47,-1.29 6.71,-3.47 z m -9.2,8.46 c 0.05,0.16 0.09,0.45 0.16,0.45 0.38,0.03 0.79,0.07 1.14,-0.04 1.66,-0.51 3.08,-1.43 4.27,-2.68 0.26,-0.27 0.35,-0.7 0.67,-1.39 -0.87,0.2 -1.46,0.18 -1.85,0.45 -1.45,0.96 -2.84,2.02 -4.39,3.21 z"
   id="path45" />
		<path
   d="m 344.22,279.17 c 0.77,0.49 1.54,0.98 2.48,1.58 -0.48,0.67 -0.88,1.24 -1.36,1.92 0.98,0.56 2,1.14 3.08,1.75 -1.06,0.48 -2.55,-0.18 -4,-1.7 -1.94,0.34 -3.93,0.42 -5.92,0.09 -0.83,-0.14 -1.69,-0.28 -1.91,-1.28 -0.15,-0.68 0.49,-1.43 1.53,-1.92 1.65,-0.77 3.41,-0.71 5.39,-0.64 0.39,0.05 0.55,0.13 0.71,0.2 z m 1.15,1.72 c -1.81,-1.5 -3.88,-1.32 -5.95,-0.86 -0.8,0.18 -1.72,0.37 -1.95,1.53 0.41,0.15 0.75,0.36 1.11,0.4 1.79,0.23 3.59,0.39 5.35,-0.1 0.53,-0.13 1,-0.49 1.44,-0.97 z"
   id="path46" />
		<path
   d="m 344.34,279.2 c -0.28,-0.1 -0.44,-0.17 -0.67,-0.25 -0.77,-0.33 -1.47,-0.65 -2.17,-0.99 -0.91,-0.45 -1.58,-1.1 -1.82,-2.13 -0.32,-1.37 0.43,-2.32 1.85,-2.21 0.52,0.04 1.05,0.21 1.52,0.43 1.98,0.93 3.89,1.96 5.66,3.52 0.22,0.24 0.36,0.34 0.49,0.45 0.31,1.38 -0.28,2.06 -1.61,1.82 -1.05,-0.18 -2.09,-0.41 -3.25,-0.64 z m -2.96,-2.27 c 2.73,1.52 5.43,2.24 7.19,1.81 -0.44,-0.43 -0.74,-0.87 -1.16,-1.13 -1.56,-0.97 -3.15,-1.9 -4.76,-2.8 -0.64,-0.36 -1.48,-0.72 -2,-0.03 -0.56,0.72 -0.03,1.45 0.73,2.15 z"
   id="path47" />
		<path
   d="m 359.74,284.92 c -1.12,-0.6 -1.18,-0.69 -0.79,-1.55 0.16,-0.35 0.36,-0.7 0.63,-0.96 1.73,-1.64 3.73,-2.79 6.1,-3.2 0.74,-0.13 1.64,-0.36 2.13,0.45 0.49,0.8 -0.05,1.55 -0.53,2.12 -0.61,0.73 -1.33,1.43 -2.15,1.91 -1.61,0.94 -3.38,1.43 -5.39,1.23 z m 4.06,-1.48 c 1.51,-0.69 2.9,-1.51 3.3,-3.38 -0.29,-0.07 -0.48,-0.16 -0.66,-0.14 -2.3,0.25 -4.27,1.25 -5.99,2.75 -0.35,0.31 -0.49,0.86 -0.78,1.39 1.54,0.31 2.71,-0.24 4.13,-0.62 z"
   id="path48" />
		<path
   d="m 349.3,278.06 c -0.23,-0.15 -0.36,-0.25 -0.52,-0.4 -0.41,-0.66 -0.78,-1.29 -1.16,-1.9 -0.96,-1.55 -0.99,-3.21 -0.59,-4.91 0.08,-0.32 0.25,-0.64 0.43,-0.92 0.59,-0.9 1.32,-1.02 2.01,-0.19 0.68,0.81 1.26,1.73 1.69,2.69 0.62,1.37 0.98,2.86 0.82,4.38 -0.18,1.74 -0.99,2.12 -2.68,1.25 z m 1.58,-3.84 c -0.46,-1.57 -1.01,-3.09 -2.35,-4.19 -1.93,2.35 -0.55,6.85 2.26,7.62 0.77,-1.03 0.29,-2.13 0.09,-3.43 z"
   id="path49" />
		<path
   d="m 333.43,288.86 c 1.62,-0.99 3.33,-1.34 5.07,-1.6 0.66,-0.1 1.24,0.1 1.47,0.67 0.14,0.37 -0.02,0.93 -0.2,1.34 -0.17,0.38 -0.51,0.72 -0.84,1 -1.64,1.39 -3.52,2.23 -5.66,2.48 -0.29,0.03 -0.59,0.03 -0.87,-0.02 -1.12,-0.19 -1.61,-1.12 -0.95,-2.02 0.5,-0.69 1.25,-1.21 1.98,-1.85 z m 4.81,0.91 c 0.41,-0.44 0.98,-0.79 0.93,-1.52 -3.23,-0.24 -6.49,1.34 -7.08,3.39 1.36,0.61 3.54,-0.02 6.15,-1.87 z"
   id="path50" />
		<path
   d="m 357.26,278.45 c -0.46,0.64 -0.78,1.28 -1.27,1.73 -0.35,0.32 -0.94,0.59 -1.38,0.53 -0.32,-0.05 -0.69,-0.63 -0.81,-1.05 -0.65,-2.31 0.61,-5.78 2.56,-7.16 1.28,-0.91 2.64,-0.37 2.73,1.19 0.05,0.79 -0.17,1.65 -0.46,2.39 -0.31,0.81 -0.86,1.53 -1.37,2.37 z m -0.78,-0.35 c 0.46,-0.74 0.98,-1.45 1.34,-2.24 0.27,-0.6 0.41,-1.29 0.46,-1.94 0.02,-0.32 -0.22,-0.82 -0.48,-0.95 -0.25,-0.12 -0.76,0.04 -1.02,0.25 -1.04,0.84 -1.84,1.94 -2.1,3.23 -0.23,1.11 -0.49,2.33 0.3,3.66 0.53,-0.71 0.96,-1.27 1.5,-2.01 z"
   id="path51" />
		<path
   d="m 358.95,287.37 c 0.44,-0.22 0.79,-0.47 1.16,-0.49 1.66,-0.09 3.32,-0.04 4.89,0.54 0.48,0.18 0.96,0.5 1.28,0.9 0.69,0.85 0.41,1.71 -0.66,2.01 -2.25,0.62 -4.52,0.65 -6.77,0.05 -1.61,-0.43 -1.78,-1.15 -0.63,-2.33 0.21,-0.21 0.43,-0.41 0.73,-0.68 z m 0.97,0.4 c -0.58,0.41 -1.23,0.76 -1.46,1.62 2.49,0.75 4.9,0.84 7.35,0 -0.12,-0.96 -0.8,-1.25 -1.45,-1.33 -1.39,-0.2 -2.8,-0.24 -4.44,-0.29 z"
   id="path52" />
		<path
   d="m 364.59,270.23 c 1.1,1.14 0.58,2.38 0.21,3.46 -0.6,1.75 -1.99,2.98 -3.49,3.97 -1.01,0.67 -1.8,0.16 -1.86,-1.05 -0.01,-0.19 0,-0.39 0.02,-0.58 0.32,-2.43 1.75,-4.15 3.64,-5.53 0.35,-0.25 0.91,-0.21 1.48,-0.27 z m -2.16,1.81 c -0.56,0.8 -1.16,1.56 -1.65,2.4 -0.47,0.79 -0.61,1.67 -0.34,2.63 2.3,-1.08 4.65,-4.07 3.74,-6.04 -0.7,-0.03 -1.14,0.43 -1.75,1.01 z"
   id="path53" />
		<path
   d="m 354.88,297.89 c 0.57,1.19 1.18,2.27 1.52,3.43 0.32,1.1 0.38,2.28 0.48,3.44 0.04,0.54 -0.13,1.22 -0.73,1.27 -0.44,0.04 -1.08,-0.25 -1.36,-0.61 -1.49,-1.92 -2.55,-4.05 -2.36,-6.57 0.12,-1.75 0.88,-2.06 2.45,-0.96 z m -1.11,4.08 c 0.53,1.16 0.96,2.38 2.16,3.35 0.58,-2.42 -0.41,-4.27 -1.3,-6.13 -0.23,-0.48 -0.39,-1.14 -1.21,-1.01 -0.36,1.24 -0.15,2.42 0.35,3.79 z"
   id="path54" />
		<path
   d="m 361.63,304.07 c -2.45,-1.17 -3.23,-3.37 -3.77,-5.67 -0.21,-0.89 0.5,-1.5 1.42,-1.34 0.5,0.08 1.12,0.3 1.39,0.67 1.01,1.36 1.96,2.8 2.26,4.52 0.21,1.16 -0.08,1.54 -1.3,1.82 z m -2.21,-3.6 c 0.4,0.66 0.76,1.35 1.21,1.98 0.32,0.45 0.74,0.89 1.41,0.71 0.11,-1.52 -1.12,-4.36 -2.21,-5.04 -0.28,-0.17 -0.68,-0.14 -1.36,-0.25 0.35,0.99 0.59,1.7 0.95,2.6 z"
   id="path55" />
		<path
   d="m 363.24,296.28 c -2.25,0.46 -4.03,-0.32 -5.64,-1.64 -0.45,-0.37 -0.98,-0.78 -0.72,-1.46 0.26,-0.69 0.84,-1.08 1.58,-1.12 0.48,-0.03 1.02,-0.04 1.45,0.14 1.16,0.49 2.35,0.96 3.38,1.67 1.03,0.72 0.96,1.45 -0.05,2.41 z m -3.55,-1.24 c 1.15,0.46 2.3,0.89 3.59,0.29 -0.78,-1.32 -2.38,-2.29 -3.81,-2.36 -0.62,-0.03 -1.38,-0.33 -1.75,0.7 0.59,0.43 1.18,0.85 1.97,1.37 z"
   id="path56" />
		<path
   d="m 346.66,310.73 c -0.31,-0.69 -0.64,-1.3 -0.71,-1.95 -0.18,-1.71 0.17,-3.38 0.72,-5 0.06,-0.18 0.15,-0.36 0.24,-0.53 0.24,-0.48 0.66,-0.81 1.16,-0.67 0.36,0.1 0.84,0.45 0.91,0.77 0.22,0.93 0.34,1.9 0.36,2.86 0.03,1.27 -0.15,2.53 -0.95,3.59 -0.4,0.54 -0.8,1.12 -1.73,0.93 z m 0.83,-6.72 c -0.56,1.9 -1.16,3.8 -0.51,5.84 1.54,-1.06 2.25,-4.86 1.18,-6.23 -0.04,-0.05 -0.37,0.11 -0.67,0.39 z"
   id="path57" />
		<path
   d="m 337.09,304.29 c 0.34,-2.5 2.8,-4.61 5.18,-4.56 0.82,0.02 1.05,0.31 0.84,1.1 -0.08,0.28 -0.19,0.56 -0.35,0.8 -0.84,1.29 -1.93,2.33 -3.3,3.03 -0.78,0.4 -1.66,0.73 -2.37,-0.37 z m 3.82,-3.4 c -1.43,0.63 -2.68,1.41 -3.02,3.14 1.7,0.07 3.57,-1.44 4.23,-3.43 -0.38,0.09 -0.69,0.15 -1.21,0.29 z"
   id="path58" />
		<path
   d="m 342.82,303.26 c 0.59,-0.44 1.05,-0.92 1.62,-1.15 1.01,-0.4 1.72,0.25 1.34,1.26 -0.47,1.27 -1.11,2.48 -1.75,3.67 -0.22,0.4 -0.64,0.75 -1.05,0.99 -1.01,0.6 -1.7,0.18 -1.7,-1 0,-1.41 0.46,-2.66 1.54,-3.77 z m 0.8,0.39 c -1.06,1.01 -1.7,2.17 -1.39,3.83 1.96,-0.96 2.03,-2.87 2.57,-4.62 -0.34,0.22 -0.68,0.43 -1.18,0.79 z"
   id="path59" />
		<path
   d="m 348.75,291.59 c 0.42,-0.34 0.65,-0.91 1.26,-0.62 0,0.14 0.04,0.27 -0.01,0.32 -2.53,2.56 -4.17,5.71 -5.89,8.81 -0.03,0.05 -0.18,0.03 -0.27,0.04 -0.23,-1.39 1.95,-5.23 4.91,-8.55 z"
   id="path60" />
		<path
   d="m 352.32,282.3 c -0.32,1.91 -0.61,3.7 -0.9,5.49 -0.12,0 -0.24,0 -0.37,0.01 -0.06,-0.27 -0.2,-0.56 -0.17,-0.81 0.36,-2.59 0.75,-5.18 1.14,-7.77 0.08,-0.5 0.18,-1 0.27,-1.5 0.75,0.08 0.69,0.5 0.63,0.87 -0.16,1.19 -0.37,2.39 -0.6,3.71 z"
   id="path61" />
		<path
   d="m 345.87,285.99 c 0.61,0.27 1.11,0.52 1.61,0.76 -0.03,0.12 -0.06,0.24 -0.09,0.35 -0.27,0 -0.56,0.06 -0.82,-0.01 -1.12,-0.31 -2.22,-0.68 -3.34,-0.99 -1.41,-0.39 -2.85,-0.58 -4.32,-0.36 -0.27,0.04 -0.56,-0.09 -1.14,-0.19 1.23,-0.85 2.3,-0.84 3.32,-0.65 1.57,0.28 3.11,0.7 4.78,1.09 z"
   id="path62" />
		<path
   d="m 350.32,296.39 c 0.17,-1.39 -0.27,-2.7 0.24,-4.03 0.57,0.92 0.73,4.34 0.29,6.58 -0.26,1.32 -0.3,2.76 -1.5,4 -0.33,-1.33 0.46,-2.22 0.54,-3.24 0.09,-1.06 0.28,-2.11 0.43,-3.31 z"
   id="path63" />
		<path
   d="m 359.6,280.52 c 0.22,0.11 0.48,0.36 0.45,0.4 -0.16,0.23 -0.39,0.42 -0.61,0.6 -1.58,1.38 -3.16,2.76 -4.74,4.13 -0.31,0.27 -0.63,0.54 -1.17,0.68 0.05,-0.23 0.02,-0.53 0.15,-0.68 1.74,-1.92 3.59,-3.73 5.92,-5.13 z"
   id="path64" />
		<path
   d="m 346.1,291.85 c -1.44,1.98 -1.92,2.41 -3.01,2.69 0.04,-0.21 0.01,-0.43 0.11,-0.54 0.71,-0.79 1.44,-1.57 2.18,-2.34 0.26,-0.27 0.57,-0.45 0.72,0.19 z"
   id="path65" />
		<path
   d="m 357.01,292.27 c -0.15,0.14 -0.32,0.27 -0.39,0.23 -1.21,-0.71 -2.15,-1.7 -3.1,-2.89 0.96,-0.02 2.01,0.79 3.49,2.66 z"
   id="path66" />
		<path
   d="m 362.95,322.2 c -0.35,-0.4 -0.3,-0.72 0.14,-1.03 0.5,0.38 0.46,0.71 -0.14,1.03 z"
   id="path67" />
		<path
   d="m 365.32,320.48 c 0.07,-0.46 0.29,-0.61 0.54,-0.29 0.13,0.16 0.07,0.48 0.1,0.73 -0.21,-0.12 -0.42,-0.24 -0.64,-0.44 z"
   id="path68" />
		<path
   d="m 361.27,319.96 c -0.44,0.28 -0.62,0.09 -0.57,-0.25 0.02,-0.15 0.3,-0.26 0.46,-0.39 0.06,0.19 0.11,0.37 0.11,0.64 z"
   id="path69" />
		<path
   d="m 364.51,312.43 c 0.39,-0.5 0.58,-0.21 0.73,0.11 0.04,0.08 -0.07,0.23 -0.12,0.35 -0.21,-0.12 -0.42,-0.24 -0.61,-0.46 z"
   id="path70" />
		<path
   d="m 323.27,304.09 c 0.51,-0.08 0.72,0.13 0.61,0.56 -0.02,0.09 -0.22,0.14 -0.34,0.21 -0.11,-0.24 -0.22,-0.48 -0.27,-0.77 z"
   id="path71" />
		<path
   d="m 373.13,314.62 c 0.09,0.23 0.09,0.43 0.1,0.63 -0.16,-0.04 -0.32,-0.09 -0.47,-0.13 0.09,-0.18 0.19,-0.35 0.37,-0.5 z"
   id="path72" />
		<path
   d="m 382.36,291.35 c -0.06,-0.25 -0.03,-0.48 0,-0.7 0.13,0.03 0.25,0.06 0.38,0.09 -0.09,0.21 -0.19,0.42 -0.38,0.61 z"
   id="path73" />
		<path
   d="m 320.74,302.42 c -0.14,0.16 -0.31,0.24 -0.48,0.32 -0.04,-0.12 -0.07,-0.25 -0.11,-0.37 0.19,-0.01 0.37,-0.02 0.59,0.05 z"
   id="path74" />
		<path
   d="m 321.38,296.22 c 0.09,0.19 0.1,0.35 0.1,0.51 -0.16,-0.05 -0.33,-0.1 -0.49,-0.16 0.1,-0.12 0.2,-0.25 0.39,-0.35 z"
   id="path75" />
		<path
   d="m 355.48,319 c 0.1,-0.21 0.28,-0.34 0.46,-0.47 0.06,0.11 0.12,0.22 0.18,0.33 -0.18,0.08 -0.37,0.15 -0.64,0.14 z"
   id="path76" />
		<path
   d="m 327.31,315.25 c -0.06,-0.21 -0.04,-0.38 -0.01,-0.56 0.12,0.04 0.23,0.07 0.35,0.11 -0.08,0.16 -0.17,0.32 -0.34,0.45 z"
   id="path77" />
		<path
   d="m 325.82,311.66 c 0.1,-0.19 0.23,-0.29 0.37,-0.4 0.05,0.17 0.1,0.33 0.15,0.5 -0.16,-0.01 -0.32,-0.01 -0.52,-0.1 z"
   id="path78" />
		<path
   d="m 321.31,306.53 c 0.09,0.18 0.09,0.34 0.09,0.49 -0.16,-0.04 -0.33,-0.08 -0.49,-0.12 0.1,-0.14 0.21,-0.27 0.4,-0.37 z"
   id="path79" />
		<path
   d="m 320.2,252.57 c -0.56,-0.15 -1.07,-0.21 -1.48,-0.44 -0.62,-0.35 -1.3,-0.72 -1.74,-1.26 -0.79,-0.97 -0.25,-2.25 0.99,-2.4 2.36,-0.29 4.56,0.26 6.54,1.55 0.44,0.29 0.7,0.86 1.09,1.36 1.99,-1.29 3.77,-3.13 6.63,-3.35 -0.57,1.07 -1.54,0.89 -2.16,1.32 -0.68,0.47 -1.42,0.85 -2.1,1.32 -0.64,0.44 -1.26,0.93 -1.85,1.43 -0.61,0.52 -1.19,1.09 -1.77,1.62 -0.68,-0.63 0.13,-0.94 0.06,-1.52 -0.56,0.1 -1.11,0.21 -1.69,0.32 0.87,1.5 0.74,2.11 -0.46,3.21 -1.42,1.31 -3.1,2.19 -4.82,2.98 -0.81,0.37 -1.73,0.71 -2.44,-0.06 -0.71,-0.77 -0.06,-1.58 0.32,-2.27 0.86,-1.59 2.35,-2.42 3.95,-3.09 0.4,-0.17 0.78,-0.35 1.17,-0.54 0.02,-0.01 0.03,-0.09 0.01,-0.11 -0.06,-0.03 -0.11,-0.04 -0.25,-0.07 z m -4.44,4.73 c -0.04,0.29 -0.08,0.59 -0.15,1.11 2.67,-0.81 4.82,-2.02 6.58,-3.87 0.19,-0.2 0.17,-0.6 0.24,-0.91 -2.31,-0.37 -5.19,1.18 -6.67,3.67 z m 2.71,-8.05 c -0.33,0.15 -0.84,0.23 -0.93,0.48 -0.1,0.26 0.14,0.71 0.35,1 0.19,0.26 0.52,0.47 0.83,0.56 1.87,0.55 3.73,0.78 5.81,-0.23 -1.86,-1.3 -3.7,-1.94 -6.06,-1.81 z"
   id="path80" />
		<path
   d="m 330.13,252.42 c -1.2,0.91 -2.42,1.65 -3.25,2.95 1.02,1.34 0.69,2.75 0.01,4.1 -0.73,1.43 -1.57,2.81 -2.4,4.19 -0.27,0.45 -0.65,0.85 -1.02,1.24 -0.39,0.41 -0.88,0.64 -1.46,0.43 -0.61,-0.23 -0.9,-0.73 -0.93,-1.36 -0.02,-0.39 -0.04,-0.8 0.07,-1.16 0.63,-2.06 1.43,-4.04 2.96,-5.64 0.93,-0.97 1.74,-2.06 2.71,-2.99 0.8,-0.77 1.73,-1.42 2.63,-2.08 0.25,-0.2 0.66,-0.38 0.68,0.32 z m -4.93,8.47 c 0.44,-0.92 0.92,-1.82 1.29,-2.77 0.24,-0.62 0.37,-1.3 -0.3,-1.98 -0.55,0.6 -1.04,1.19 -1.59,1.72 -1.45,1.41 -2.13,3.22 -2.64,5.1 -0.14,0.52 -0.26,1.15 0.46,1.64 1.33,-0.85 1.9,-2.27 2.78,-3.71 z"
   id="path81" />
		<path
   d="m 324.8,235.9 c -0.34,-1.23 -0.7,-2.35 -0.9,-3.49 -0.1,-0.6 -0.05,-1.29 0.16,-1.86 0.16,-0.44 0.59,-0.91 1.03,-1.1 0.56,-0.25 1.02,0.21 1.31,0.68 1.1,1.75 1.94,3.61 1.99,5.73 0.02,0.68 0,1.36 0,1.94 0.91,1.02 1.79,2.01 2.78,3.11 -0.91,0.07 -0.91,0.07 -2.92,-2.15 -0.58,-0.03 -1.25,0.12 -1.67,-0.13 -0.49,-0.3 -0.79,-0.94 -1.13,-1.46 -0.24,-0.36 -0.41,-0.78 -0.65,-1.27 z m -0.13,-4.69 c -0.07,2.78 1.01,5.64 2.51,6.65 0.9,-2.1 -0.12,-6.04 -2.03,-7.6 -0.14,0.25 -0.28,0.48 -0.48,0.95 z"
   id="path82" />
		<path
   d="m 318.98,242.28 c 2.06,0.75 3.72,1.93 5.33,3.21 0.68,0.54 1.49,1.19 1.09,2.18 -0.41,1.03 -1.47,0.82 -2.31,0.71 -2,-0.27 -3.96,-0.75 -5.39,-2.3 -0.61,-0.66 -1.15,-1.46 -1.49,-2.29 -0.42,-1.01 0.01,-1.6 1.09,-1.71 0.51,-0.06 1.04,0.1 1.68,0.2 z m 5.31,4.36 c -1.59,-1.44 -3.33,-2.67 -5.34,-3.49 -0.63,-0.26 -1.27,-0.49 -2.06,-0.05 0.09,0.34 0.1,0.76 0.31,1.04 0.52,0.69 1.03,1.46 1.72,1.94 1.46,1.01 3.17,1.44 4.95,1.5 0.52,0.01 0.92,-0.11 0.42,-0.94 z"
   id="path83" />
		<path
   d="m 324.7,240.77 c 0.32,0.6 0.7,1.09 0.8,1.63 0.18,0.99 -0.41,1.47 -1.38,1.2 -0.46,-0.13 -0.96,-0.28 -1.34,-0.55 -1.37,-0.99 -2.75,-1.99 -4.03,-3.09 -0.49,-0.42 -0.81,-1.1 -1.04,-1.72 -0.37,-1 0.09,-1.63 1.18,-1.59 0.61,0.02 1.25,0.2 1.81,0.45 1.7,0.75 2.89,2.1 4,3.67 z m -4.53,-3 c -0.53,-0.12 -1.06,-0.24 -1.67,-0.38 0.32,2.19 3.73,5.09 6.03,5.32 -0.14,-1.5 -1.93,-3.57 -4.36,-4.94 z"
   id="path84" />
		<path
   d="m 341.45,240.99 c -1.16,0.72 -2.31,1.28 -3.27,2.07 -0.91,0.74 -1.62,1.72 -2.56,2.75 0.01,-1.31 0.66,-2.18 2.9,-4.15 0,-1.79 1.8,-4.51 3.42,-5.19 0.27,-0.11 0.55,-0.21 0.84,-0.25 0.92,-0.12 1.4,0.4 1.16,1.32 -0.39,1.41 -1.23,2.52 -2.49,3.45 z m 0.84,-3.8 c -1.44,0.76 -2.25,2 -2.91,3.77 2.01,-0.62 3.08,-1.76 3.68,-3.39 0.17,-0.49 -0.15,-0.59 -0.77,-0.38 z"
   id="path85" />
		<path
   d="m 335.77,234.72 c 0.84,-0.88 1.6,-1.71 2.43,-2.45 0.48,-0.43 1.12,-0.63 1.75,-0.23 0.7,0.45 0.69,1.14 0.51,1.82 -0.12,0.46 -0.28,0.96 -0.55,1.34 -0.74,1.03 -1.53,2.02 -2.35,2.99 -0.27,0.33 -0.67,0.57 -1.04,0.79 -0.46,0.27 -0.97,0.55 -1.49,0.11 -0.52,-0.44 -0.86,-1.02 -0.59,-1.68 0.36,-0.9 0.84,-1.74 1.33,-2.69 z m 3.96,-1.15 c -0.2,-0.99 -0.35,-1.12 -1,-0.69 -1.66,1.11 -2.83,2.64 -3.45,4.54 -0.09,0.28 0.12,0.66 0.23,1.18 2.06,-1.26 3.24,-2.92 4.22,-5.03 z"
   id="path86" />
		<path
   d="m 332.76,232.75 c 0.75,2.08 0.49,4.04 -0.13,5.95 -0.36,1.1 -1.38,1.19 -2.15,0.28 -0.82,-0.96 -0.91,-2.14 -0.83,-3.31 0.06,-0.86 0.22,-1.74 0.52,-2.55 0.49,-1.38 1.34,-1.5 2.59,-0.37 z m -2.24,3.21 c 0,1.04 -0.08,2.1 1.18,2.81 0.68,-1.65 0.83,-3.26 0.65,-4.89 -0.06,-0.51 -0.28,-1.03 -0.98,-1.11 -0.87,0.82 -0.88,1.87 -0.85,3.19 z"
   id="path87" />
		<path
   d="m 346.67,243.31 c -1.25,0.37 -2.4,0.77 -3.59,0.97 -0.84,0.14 -1.47,-0.34 -1.58,-0.95 -0.14,-0.74 0.26,-1.28 0.89,-1.5 1.42,-0.49 2.86,-0.9 4.31,-1.27 0.39,-0.1 0.88,-0.01 1.28,0.13 0.5,0.17 0.69,0.61 0.32,1.04 -0.46,0.55 -1.02,1.02 -1.63,1.58 z m -4.22,-0.43 c 0.05,0.16 0.06,0.44 0.16,0.48 1.27,0.49 3.84,-0.57 4.67,-1.99 -1.76,-0.02 -3.28,0.49 -4.83,1.51 z"
   id="path88" />
		<path
   d="m 325.42,240.06 c 0.3,-0.01 0.57,-0.01 0.75,0.12 1.72,1.2 3.43,2.41 5.12,3.64 0.36,0.26 0.63,0.64 0.95,0.96 -0.06,0.08 -0.12,0.17 -0.18,0.25 -0.21,-0.04 -0.46,-0.01 -0.61,-0.12 -1.83,-1.29 -3.66,-2.59 -5.47,-3.91 -0.28,-0.2 -0.43,-0.58 -0.56,-0.94 z"
   id="path89" />
		<path
   d="m 337.43,246.9 c -0.39,0.15 -0.68,0.24 -1.08,0.37 0.55,-1.45 4.36,-2.86 6.48,-2.46 -0.67,0.98 -1.76,0.67 -2.59,1 -0.89,0.37 -1.8,0.7 -2.81,1.09 z"
   id="path90" />
		<path
   d="m 334.07,253.85 c -0.21,0.09 -0.46,0.11 -0.47,0.07 -0.25,-1.05 -0.64,-2.09 -0.3,-3.27 0.68,0.68 0.68,0.68 0.77,3.2 z"
   id="path91" />
		<path
   d="m 330.71,254.29 c 0.12,-0.35 0.23,-0.58 0.43,-1.01 0.51,0.93 0.31,1.56 -0.07,2.22 -0.76,-0.23 -0.37,-0.72 -0.36,-1.21 z"
   id="path92" />
		<path
   d="m 334.34,220.35 c 0.29,-0.09 0.54,-0.09 0.78,-0.09 -0.06,0.16 -0.11,0.32 -0.17,0.49 -0.22,-0.11 -0.43,-0.2 -0.61,-0.4 z"
   id="path93" />
		<path
   d="m 303.03,255.78 c 0.16,-0.42 0.41,-0.5 0.64,-0.19 0.07,0.09 -0.06,0.33 -0.09,0.5 -0.18,-0.08 -0.37,-0.15 -0.55,-0.31 z"
   id="path94" />
		<path
   d="m 347.29,227.81 c 0.25,0.03 0.43,0.12 0.61,0.22 -0.13,0.11 -0.27,0.23 -0.4,0.34 -0.09,-0.17 -0.18,-0.34 -0.21,-0.56 z"
   id="path95" />
		<path
   d="m 351.64,235.91 c -0.4,-0.28 -0.29,-0.5 0.02,-0.61 0.11,-0.04 0.29,0.1 0.44,0.16 -0.12,0.16 -0.25,0.32 -0.46,0.45 z"
   id="path96" />
		<path
   d="m 356.7,235.94 c -0.24,-0.01 -0.41,-0.09 -0.58,-0.17 0.14,-0.14 0.29,-0.29 0.43,-0.43 0.07,0.17 0.14,0.35 0.15,0.6 z"
   id="path97" />
		<path
   d="m 311.74,277.62 c -0.1,-0.22 -0.12,-0.41 -0.13,-0.6 0.19,0.05 0.38,0.1 0.57,0.15 -0.11,0.16 -0.23,0.32 -0.44,0.45 z"
   id="path98" />
		<path
   d="m 311.16,262.56 c 0.26,-0.07 0.49,-0.04 0.72,-0.02 -0.04,0.12 -0.08,0.24 -0.11,0.37 -0.21,-0.09 -0.42,-0.17 -0.61,-0.35 z"
   id="path99" />
		<path
   d="m 342.55,228 c 0.24,-0.11 0.44,-0.13 0.64,-0.15 -0.02,0.16 -0.05,0.31 -0.07,0.47 -0.2,-0.08 -0.4,-0.15 -0.57,-0.32 z"
   id="path100" />
		<path
   d="m 313.02,248.52 c -0.19,-0.09 -0.31,-0.23 -0.43,-0.38 0.07,-0.06 0.14,-0.11 0.21,-0.17 0.1,0.16 0.2,0.33 0.22,0.55 z"
   id="path101" />
		<path
   d="m 315.54,262.08 c 0.15,0.14 0.23,0.32 0.3,0.5 -0.12,0.04 -0.24,0.08 -0.36,0.12 0,-0.2 -0.01,-0.39 0.06,-0.62 z"
   id="path102" />
		<path
   d="m 354.39,239.52 c 0.21,0.05 0.37,0.16 0.53,0.27 -0.09,0.1 -0.19,0.2 -0.28,0.3 -0.11,-0.17 -0.21,-0.34 -0.25,-0.57 z"
   id="path103" />
		<path
   d="m 315.42,265.66 c 0.02,0.22 -0.03,0.38 -0.09,0.54 -0.12,-0.06 -0.23,-0.12 -0.35,-0.17 0.13,-0.15 0.25,-0.29 0.44,-0.37 z"
   id="path104" />
		<path
   d="m 348.48,234.98 c 0.07,0.2 0.04,0.38 0,0.56 -0.13,-0.03 -0.26,-0.06 -0.39,-0.08 0.1,-0.17 0.19,-0.33 0.39,-0.48 z"
   id="path105" />
		<path
   d="m 400.54,253.48 c 0.82,-0.83 1.49,-1.69 2.35,-2.29 1.13,-0.79 1.98,-0.27 1.98,1.12 0,0.47 -0.05,1 -0.26,1.41 -1,1.91 -2.46,3.33 -4.52,4.09 -0.22,0.08 -0.47,0.12 -0.71,0.13 -0.99,0.05 -1.4,-0.5 -0.91,-1.35 0.59,-1.06 1.33,-2.03 2.07,-3.11 z m 1.77,1.9 c 0.42,-0.47 0.88,-0.91 1.24,-1.42 0.48,-0.68 0.65,-1.44 0.33,-2.28 -1.73,0.75 -4.2,3.74 -4.44,5.28 1.24,-0.19 1.31,-0.22 2.87,-1.58 z"
   id="path106" />
		<path
   d="m 408.86,255.91 c -0.02,1.89 -1.4,2.78 -2.58,3.73 -1,0.81 -2.23,1.17 -3.55,1.07 -1.16,-0.08 -1.43,-0.6 -0.85,-1.63 0.05,-0.08 0.09,-0.17 0.15,-0.25 1.47,-1.68 3.24,-2.92 5.41,-3.53 0.59,-0.15 1.06,-0.04 1.42,0.61 z m -4,3.58 c 1.84,-0.97 2.89,-2.11 3.09,-3.46 -2.3,0.57 -4.08,1.71 -5.54,3.97 0.95,-0.19 1.6,-0.31 2.45,-0.51 z"
   id="path107" />
		<path
   d="m 396.98,255.46 c -1.65,-0.91 -1.87,-1.36 -1.23,-2.95 0.43,-1.08 1,-2.11 1.57,-3.13 0.21,-0.37 0.55,-0.69 0.89,-0.96 0.59,-0.49 1.28,-0.45 1.93,-0.15 0.61,0.29 0.81,0.89 0.71,1.49 -0.13,0.81 -0.29,1.65 -0.64,2.38 -0.7,1.41 -1.57,2.7 -3.23,3.32 z m 1.9,-2.66 c 0.39,-0.94 0.81,-1.86 1.14,-2.82 0.18,-0.53 -0.04,-1.01 -0.65,-1.07 -0.29,-0.03 -0.69,0.13 -0.9,0.35 -1.17,1.17 -1.8,2.64 -2.15,4.23 -0.12,0.57 0.21,0.91 0.88,1.12 0.49,-0.52 1.02,-1.08 1.68,-1.81 z"
   id="path108" />
		<path
   d="m 402.58,267.48 c 0.56,0.1 1.17,0.1 1.43,0.39 0.91,1.06 1.81,2.16 2.48,3.38 0.4,0.72 0.46,1.67 0.49,2.52 0.03,0.94 -0.54,1.32 -1.44,1.05 -0.4,-0.12 -0.81,-0.36 -1.1,-0.65 -1.29,-1.31 -2.14,-2.88 -2.48,-4.69 -0.13,-0.7 -0.27,-1.46 0.62,-2 z m 2.12,2.4 c -0.58,-0.53 -1.02,-1.23 -1.79,-1.65 -0.35,2.26 1.4,5.36 3.27,5.78 0.23,-1.57 -0.42,-2.81 -1.48,-4.13 z"
   id="path109" />
		<path
   d="m 410.81,266.67 c -2.03,1.18 -4.01,0.97 -5.98,0.19 -0.43,-0.17 -0.86,-0.49 -1.14,-0.86 -0.68,-0.89 -0.22,-2.12 0.89,-2.2 1.95,-0.15 3.9,-0.08 5.6,1.12 0.56,0.39 1.14,0.83 0.63,1.75 z m -6.36,-1.92 c -0.34,0.48 -0.11,0.81 0.28,1.1 1.27,0.97 3.92,1.04 5.36,0.12 -0.49,-0.68 -1.2,-1.03 -1.95,-1.13 -1.15,-0.15 -2.31,-0.14 -3.69,-0.09 z"
   id="path110" />
		<path
   d="m 408.78,277.36 c 0.26,0.11 0.45,0.3 0.65,0.5 -0.11,0.07 -0.31,0.2 -0.32,0.19 -0.14,-0.19 -0.26,-0.4 -0.33,-0.69 z"
   id="path111" />
		<path
   d="m 408.69,273.95 c 0.46,-0.23 0.63,-0.03 0.54,0.33 -0.04,0.15 -0.33,0.24 -0.51,0.36 -0.03,-0.21 -0.06,-0.42 -0.03,-0.69 z"
   id="path112" />
		<path
   d="m 416.87,257.98 c 0.15,0.21 0.2,0.41 0.25,0.6 -0.12,0.02 -0.25,0.05 -0.37,0.07 0.01,-0.23 0.01,-0.45 0.12,-0.67 z"
   id="path113" />
		<path
   d="m 409.59,269.56 c 0.19,-0.09 0.35,-0.09 0.51,-0.09 -0.05,0.16 -0.1,0.32 -0.14,0.48 -0.13,-0.11 -0.26,-0.2 -0.37,-0.39 z"
   id="path114" />
		<path
   d="m 406.59,252.72 c -0.16,-0.17 -0.24,-0.38 -0.32,-0.58 0.16,-0.02 0.32,-0.04 0.48,-0.07 -0.03,0.2 -0.05,0.41 -0.16,0.65 z"
   id="path115" />
		<path
   d="m 420.88,251.15 c -0.22,-0.11 -0.36,-0.29 -0.5,-0.48 0.12,-0.04 0.32,-0.14 0.33,-0.12 0.1,0.16 0.17,0.35 0.17,0.6 z"
   id="path116" />
		<path
   d="m 419.26,263.34 c 0.2,0.04 0.35,0.15 0.51,0.26 -0.09,0.1 -0.18,0.19 -0.27,0.29 -0.1,-0.17 -0.2,-0.33 -0.24,-0.55 z"
   id="path117" />
		<path
   d="m 388.96,317.44 c -0.35,0.4 -0.62,0.8 -0.99,0.95 -0.3,0.13 -0.88,0.1 -1.04,-0.1 -0.23,-0.27 -0.32,-0.8 -0.23,-1.16 0.16,-0.64 0.7,-0.84 1.36,-0.82 0.69,0.04 0.93,0.4 0.9,1.13 z m -1.55,0.1 c 0.2,-0.04 0.39,-0.08 0.59,-0.12 -0.04,-0.11 -0.09,-0.21 -0.13,-0.32 -0.15,0.1 -0.31,0.19 -0.46,0.44 z"
   id="path118" />
		<path
   d="m 397.28,292.7 c -0.75,-1.39 -0.71,-1.58 0.46,-2.33 -0.04,0.58 -0.07,1.09 -0.1,1.6 0.08,0.03 0.16,0.05 0.23,0.08 0.22,-0.3 0.44,-0.6 0.67,-0.93 0.66,0.45 0.41,0.91 0.16,1.31 -0.31,0.53 -0.77,0.73 -1.42,0.27 z"
   id="path119" />
		<path
   d="m 362.49,335.11 c 0.32,1.4 0.32,1.4 -0.51,1.75 -0.24,-0.51 0.3,-1.34 -0.69,-1.62 -0.29,0.37 -0.6,0.77 -0.98,1.26 -0.58,-0.68 -0.19,-1.17 0.22,-1.61 0.53,-0.54 0.96,-0.5 1.96,0.22 z"
   id="path120" />
		<path
   d="m 416.24,286.34 c 0.51,-0.11 0.96,-0.3 1.41,-0.5 0.3,0.59 0.18,0.93 -0.51,1.33 -0.58,0.33 -1.19,0.23 -1.52,-0.32 -0.16,-0.27 -0.29,-0.67 -0.22,-0.95 0.1,-0.38 0.38,-0.73 0.63,-1.05 0.04,-0.05 0.33,0.09 0.5,0.14 -0.13,0.33 -0.26,0.66 -0.37,0.99 -0.02,0.08 0.02,0.18 0.08,0.36 z"
   id="path121" />
		<path
   d="m 430.82,265.26 c 0.94,-0.03 1.38,0.4 1.37,1.22 0,0.56 0.03,1.21 -0.97,1.29 0.08,-0.54 0.16,-1.01 0.25,-1.63 -0.48,0.03 -0.86,0.06 -1.23,0.08 -0.2,-0.54 0.12,-0.74 0.58,-0.96 z"
   id="path122" />
	</g>
</g>
</svg>
