<?xml version="1.0" encoding="UTF-8" standalone="no"?>
<!-- Generator: Adobe Adobe Illustrator 24.2.0, SVG Export Plug-In . SVG Version: 6.00 Build 0)  -->

<svg
   version="1.1"
   id="Layer_1"
   x="0px"
   y="0px"
   width="144.957"
   height="227.54906"
   viewBox="0 0 161.06334 252.83229"
   xml:space="preserve"
   sodipodi:docname="Veg91.svg"
   inkscape:version="1.4 (e7c3feb1, 2024-10-09)"
   xmlns:inkscape="http://www.inkscape.org/namespaces/inkscape"
   xmlns:sodipodi="http://sodipodi.sourceforge.net/DTD/sodipodi-0.dtd"
   xmlns="http://www.w3.org/2000/svg"
   xmlns:svg="http://www.w3.org/2000/svg"><defs
   id="defs2" /><sodipodi:namedview
   id="namedview2"
   pagecolor="#ffffff"
   bordercolor="#000000"
   borderopacity="0.25"
   inkscape:showpageshadow="2"
   inkscape:pageopacity="0.0"
   inkscape:pagecheckerboard="0"
   inkscape:deskcolor="#d1d1d1"
   inkscape:zoom="1.6816667"
   inkscape:cx="62.735382"
   inkscape:cy="111.49653"
   inkscape:window-width="2560"
   inkscape:window-height="1412"
   inkscape:window-x="2560"
   inkscape:window-y="0"
   inkscape:window-maximized="0"
   inkscape:current-layer="Layer_1" />
<g
   id="g2"
   transform="translate(-220.21908,-139.09586)">
	<g
   id="g1">
		<path
   d="m 257.48,376.54 c -3.78,-1.36 -6.57,-3.82 -8.85,-6.9 -3.26,-4.4 -5.47,-9.33 -7.24,-14.47 -1.56,-4.54 -2.33,-9.26 -3.18,-13.97 -1.89,-10.51 -3.88,-21.01 -5.73,-31.53 -1.21,-6.87 -2.33,-13.76 -3.34,-20.66 -0.67,-4.58 -1.22,-9.19 -1.61,-13.81 -0.6,-7.1 -0.99,-14.22 -0.44,-21.35 0.91,-11.85 5.89,-21.71 14.66,-29.69 1.78,-1.62 3.81,-2.88 6.02,-3.85 3.99,-1.76 8.06,-3.23 12.46,-3.57 0.37,-0.03 0.85,-0.29 1.05,-0.59 4.53,-6.88 11.15,-10.91 18.66,-13.73 3.16,-1.19 6.43,-1.97 9.75,-2.56 0.23,-0.04 0.47,-0.09 0.87,-0.18 -0.09,-1.13 -0.12,-2.23 -0.27,-3.32 -1.3,-9.27 -5.52,-16.98 -12.48,-23.22 -3.36,-3.01 -7.31,-4.41 -11.78,-4.42 -2.24,0 -4.49,0.14 -6.73,0.09 -1.15,-0.03 -2.31,-0.3 -3.44,-0.56 -0.91,-0.21 -1.34,-0.87 -1.33,-1.84 0.03,-5.04 1.8,-9.23 5.95,-12.26 1.6,-1.17 3.36,-1.52 5.26,-0.82 0.64,0.24 1.32,0.4 1.91,0.73 4.34,2.48 9.04,4.14 13.61,6.1 13.7,5.87 22.12,16.26 25.84,30.55 0.62,2.39 0.75,4.91 1.11,7.37 0.09,0.62 0.18,1.23 0.27,1.85 8.51,1.85 16.14,5.02 21.35,12.55 0.46,-0.16 0.96,-0.31 1.44,-0.49 4.35,-1.63 8.8,-2.14 13.37,-1.08 0.47,0.11 0.96,0.2 1.41,0.38 5.53,2.28 10.53,5.3 14.26,10.14 3.79,4.91 6.19,10.46 7.88,16.38 1.55,5.47 2.53,11.02 3.03,16.68 0.91,10.41 1.48,20.84 1.56,31.28 0.04,5.36 -0.3,10.73 -0.68,16.08 -0.5,7.01 -1.12,14.01 -1.86,20.99 -0.55,5.2 -1.77,10.29 -3.12,15.33 -1.94,7.25 -3.91,14.5 -5.93,21.74 -0.71,2.54 -1.78,4.95 -3.14,7.23 -1.32,2.21 -3.02,4.07 -4.99,5.7 -1.85,1.51 -3.95,2.45 -6.32,2.87 -4.16,0.73 -8.28,1.12 -12.46,-0.05 -2.98,-0.83 -5.36,-2.51 -7.66,-4.42 -0.15,-0.12 -0.29,-0.24 -0.54,-0.45 -0.41,0.45 -0.8,0.86 -1.18,1.29 -4.65,5.36 -10.69,7.88 -17.62,8.4 -2.65,0.2 -5.24,-0.37 -7.75,-1.25 -6.57,-2.29 -12.05,-6.14 -16.59,-11.37 -0.35,-0.4 -0.7,-0.8 -1.14,-1.31 -1.27,1.22 -2.51,2.36 -3.69,3.56 -2.54,2.58 -5.48,4.53 -8.81,5.92 -3.84,1.59 -7.74,1.91 -11.82,0.51 z m 90.84,-72.92 c 2.02,-10.94 4.13,-21.87 4.83,-33 0.33,-5.22 0.35,-10.43 -0.04,-15.65 -0.59,-7.83 -3.7,-14.48 -8.99,-20.18 -3.78,-4.07 -8.23,-7.01 -13.73,-8.19 -4.15,-0.89 -8.23,-0.84 -12.2,0.85 -0.87,0.37 -1.4,0.91 -1.76,1.79 -0.83,2.02 -2.05,3.84 -3.89,5.02 -5.91,3.77 -12.08,4.37 -18.49,1.27 -1.89,-0.91 -3.81,-1.76 -5.67,-2.71 -1.06,-0.54 -2.15,-0.61 -3.27,-0.46 -2.03,0.27 -4.07,0.49 -6.08,0.87 -5.89,1.1 -10.35,4.09 -12.85,9.73 -1.29,2.91 -2.47,5.86 -3.04,8.99 -1.01,5.52 -1.92,11.05 -2.74,16.6 -0.91,6.15 -1.06,12.36 -0.68,18.55 0.52,8.43 1.58,16.8 3.07,25.12 2.47,13.71 6.45,26.93 12.3,39.58 1.95,4.21 3.89,8.43 6.58,12.23 4.87,6.86 11.23,11.75 19.32,14.25 1.57,0.48 3.25,0.81 4.88,0.83 6.98,0.06 13,-2.33 17.75,-7.54 4.17,-4.58 7.59,-9.7 10.09,-15.36 3.7,-8.36 6.6,-17.02 8.76,-25.89 2.11,-8.78 3.88,-17.63 5.85,-26.7 z m -69.45,63.87 c 0.7,-0.72 1.64,-1.22 1.97,-2.11 -1.2,-2.02 -2.4,-3.86 -3.42,-5.8 -9.15,-17.32 -14.57,-35.83 -17.24,-55.17 -0.71,-5.17 -1.24,-10.37 -1.67,-15.57 -0.41,-4.96 -0.4,-9.95 -0.02,-14.92 0.48,-6.33 1.46,-12.6 2.59,-18.84 0.83,-4.58 2.12,-9.01 4.15,-13.22 2.36,-4.89 6.16,-7.97 11.35,-9.38 1.27,-0.34 2.57,-0.55 3.87,-0.75 1.61,-0.25 3.23,-0.42 5.15,-0.67 -0.65,-0.78 -1.07,-1.35 -1.56,-1.86 -0.44,-0.46 -0.99,-0.8 -1.41,-1.27 -3.11,-3.5 -7.03,-5.87 -11.19,-7.85 -3.6,-1.71 -7.44,-2.31 -11.41,-1.99 -2.49,0.2 -4.9,0.83 -7.26,1.64 -4.63,1.59 -8.86,3.78 -12.28,7.41 -7.5,7.95 -11.69,17.3 -12.19,28.26 -0.24,5.32 -0.06,10.64 0.24,15.95 0.31,5.56 0.9,11.09 1.74,16.59 0.91,5.93 1.73,11.88 2.78,17.78 2.33,13.16 4.8,26.29 7.18,39.45 1.28,7.07 3.49,13.8 7.06,20.05 1.43,2.51 3.07,4.89 5.25,6.82 4.85,4.3 10.27,5.23 16.31,2.77 3.87,-1.6 7.03,-4.16 10.01,-7.32 z m 52.33,-3.92 c -1.21,1.77 -2.4,3.56 -3.66,5.3 -0.43,0.6 -0.43,1.07 0.12,1.51 1.9,1.52 3.8,2.99 6.2,3.78 4.05,1.32 8.06,1.03 12.15,0.37 3.19,-0.51 5.74,-2.04 7.97,-4.28 2.83,-2.84 4.52,-6.32 5.77,-10.06 2.37,-7.09 4.04,-14.36 5.94,-21.58 2.07,-7.9 3.57,-15.89 4.1,-24.05 0.24,-3.7 0.65,-7.39 0.9,-11.09 0.32,-4.87 0.76,-9.74 0.79,-14.61 0.07,-11.86 -0.62,-23.7 -1.68,-35.52 -0.67,-7.44 -2.3,-14.66 -5.06,-21.58 -3.07,-7.67 -7.95,-13.77 -15.49,-17.63 -4.97,-2.55 -9.97,-3.06 -15.3,-1.64 -5.27,1.41 -9.51,4.2 -12.5,8.81 -0.74,1.15 -1.56,2.24 -2.33,3.38 -0.17,0.25 -0.25,0.56 -0.38,0.86 0.21,0.04 0.31,0.08 0.4,0.07 0.19,-0.02 0.39,-0.06 0.57,-0.11 6.38,-1.7 12.48,-0.71 18.07,2.57 7.54,4.42 12.59,10.98 15.24,19.32 1.38,4.32 1.63,8.82 1.71,13.31 0.17,9.4 -0.9,18.71 -2.42,27.96 -1.62,9.87 -3.58,19.67 -5.7,29.45 -2.13,9.83 -4.53,19.57 -7.95,29.05 -2.02,5.61 -4.1,11.18 -7.46,16.41 z M 265.79,212.61 c -2.21,2.34 -2.69,3 -2.87,4.07 0.44,0.05 0.87,0.08 1.3,0.14 2.28,0.28 4.56,0.62 6.67,1.56 4.62,2.06 8.94,4.57 12.36,8.41 0.4,0.45 0.88,0.82 1.43,1.34 4,-8.72 6.69,-17.46 5.96,-27.19 -2.33,0.53 -4.49,0.93 -6.59,1.53 -6.81,1.93 -13.02,4.97 -18.26,10.14 z m -6.3,-53.85 c -0.53,0 -1.06,0 -1.68,0 -0.32,0.68 -0.62,1.31 -0.97,2.06 0.81,0 1.39,0.04 1.97,-0.01 4.89,-0.4 9.71,-0.23 14.53,0.9 7.03,1.64 12.62,5.39 16.89,11.08 4.59,6.11 7.86,12.83 9.42,20.41 1.18,5.71 2.17,11.4 1.96,17.24 -0.2,5.56 -0.47,11.11 -0.79,16.66 -0.14,2.33 -0.49,4.65 -0.74,6.98 -0.06,0.61 -0.08,1.22 -0.13,1.94 1.46,0.11 2.74,0.33 4.03,-0.06 0.05,-0.32 0.12,-0.55 0.13,-0.79 0.32,-6.72 0.72,-13.44 0.94,-20.17 0.19,-6.01 -0.17,-11.99 -1.51,-17.88 -1.23,-5.43 -2.67,-10.79 -5.04,-15.86 -3.36,-7.16 -8.16,-12.98 -15.18,-16.91 -6.7,-3.75 -13.73,-6.02 -21.49,-5.59 -0.69,0.04 -1.38,0.01 -2.34,0 z m 59.99,46.31 c -4.32,-2.2 -9.22,-3.74 -10.82,-3.4 0.14,2.68 0.28,5.35 0.4,8.03 0.17,3.73 1.09,7.24 3.28,10.31 1.4,1.97 2.97,3.82 4.5,5.76 1.71,-2.45 3.33,-4.82 5.01,-7.14 1.74,-2.39 4.03,-4.17 6.64,-5.52 -1.61,-2.9 -4.6,-5.57 -9.01,-8.04 z m -35.63,-35.85 c 2.01,1.74 3.7,3.76 5.09,6.02 5.8,9.45 8.82,19.71 8.96,30.81 0.1,7.65 -0.8,15.19 -2.45,22.65 -0.4,1.79 -0.82,3.58 -1.23,5.42 1.49,0.82 2.95,1.57 4.8,1.69 0.24,-1.87 0.57,-3.69 0.7,-5.52 0.27,-3.7 0.39,-7.41 0.67,-11.1 0.37,-4.73 0.52,-9.44 0.27,-14.18 -0.31,-5.75 -1.66,-11.29 -3.21,-16.77 -1.63,-5.75 -4.69,-10.84 -8.34,-15.51 -3.43,-4.39 -7.76,-7.66 -13.15,-9.39 -6.34,-2.05 -12.82,-2.32 -19.5,-1.49 -0.12,0.43 -0.26,0.91 -0.4,1.41 3.08,-0.05 6,-0.2 8.92,-0.11 2.28,0.07 4.58,0.28 6.83,0.68 4.36,0.78 8.5,2.2 12.04,5.39 z m 12.37,27.5 c -1.38,-8.31 -4.47,-15.95 -9.27,-22.86 -2.71,-3.9 -6.35,-6.74 -10.97,-8.12 -1.96,-0.58 -3.96,-1.04 -5.97,-1.41 -4.41,-0.82 -8.85,-0.45 -13.28,-0.23 -0.28,0.01 -0.56,0.13 -0.92,0.23 0,0.47 0,0.92 0,1.22 3.96,0 7.81,-0.15 11.65,0.04 5.32,0.26 10.06,2.11 14.08,5.7 3.71,3.31 6.29,7.43 8.53,11.79 1.43,2.78 2.51,5.71 3.24,8.76 1.63,6.89 1.39,13.85 0.66,20.81 -0.53,5.01 -1.78,9.88 -3.2,14.7 -0.44,1.49 -0.83,2.98 -1.27,4.56 1.32,0.59 2.54,1.13 3.81,1.69 0.14,-0.39 0.24,-0.61 0.31,-0.84 0.19,-0.66 0.39,-1.31 0.53,-1.98 1.25,-5.87 2.38,-11.75 2.72,-17.76 0.31,-5.38 0.24,-10.72 -0.65,-16.3 z m -13.55,-33.64 c 7.28,3.63 12.37,9.41 15.97,16.57 2.15,4.28 3.67,8.81 4.81,13.48 1.28,5.28 2.24,10.58 2.41,16.03 0.24,7.72 -0.32,15.41 -0.75,23.11 -0.06,1.16 -0.11,2.32 -0.18,3.69 0.92,-0.23 1.65,-0.43 2.39,-0.61 0.56,-0.13 0.8,-0.46 0.82,-1.04 0.04,-1.76 0.2,-3.51 0.15,-5.27 -0.17,-6.49 -0.49,-12.97 -0.59,-19.46 -0.11,-7.47 -1.26,-14.77 -3.32,-21.93 -3.53,-12.26 -11.34,-20.82 -22.93,-25.97 -3.29,-1.46 -6.68,-2.73 -10.08,-3.95 -3.24,-1.16 -6.65,-1.5 -10.06,-1.73 -1.31,-0.09 -2,0.64 -2.68,1.91 2.94,0.02 5.68,-0.17 8.36,0.12 2.7,0.3 5.41,0.88 7.99,1.71 2.58,0.84 5.01,2.13 7.69,3.34 z m -19.14,3.24 c -0.88,0 -1.76,0 -2.64,0.01 -0.83,0.01 -1.66,0 -2.49,0.06 -0.82,0.06 -1.71,-0.24 -2.56,0.39 0.76,0.64 1.59,0.74 2.41,0.78 1.17,0.05 2.34,0.06 3.51,-0.01 2.29,-0.14 4.57,-0.25 6.86,0.03 3.19,0.39 6.09,1.45 8.59,3.42 4.75,3.74 8.53,8.32 11.03,13.84 2.15,4.73 3.44,9.68 3.74,14.95 0.44,7.69 -0.67,15.08 -3.37,22.26 -0.77,2.05 -1.62,4.08 -2.5,6.09 -0.37,0.85 -0.23,1.5 0.39,2.11 0.6,0.58 1.27,1.03 2.19,1.26 0.33,-1.14 0.63,-2.21 0.96,-3.27 2.91,-9.3 4.5,-18.79 3.89,-28.56 -0.16,-2.57 -0.51,-5.15 -1.09,-7.66 -1.38,-6.04 -4.24,-11.43 -7.95,-16.34 -3.21,-4.24 -7.34,-7.21 -12.56,-8.62 -2.68,-0.72 -5.39,-0.7 -8.41,-0.74 z M 309,223.48 c 0,3.69 0,7.37 0,11.26 0.8,-0.42 1.51,-0.72 2.14,-1.14 0.27,-0.18 0.5,-0.61 0.52,-0.94 0.16,-2.33 0.37,-4.67 0.36,-7 -0.01,-2.23 -0.14,-4.48 -1.66,-6.37 -0.39,-0.48 -0.56,-1.13 -0.86,-1.69 -0.14,-0.26 -0.32,-0.51 -0.5,-0.78 -0.02,2.21 -0.02,4.3 0,6.66 z m 3.62,6.94 c 0,0.59 0,1.19 0,1.78 1.29,-1.32 2.6,-2.53 2.98,-4.31 0.12,-0.53 0.18,-1.26 -0.1,-1.65 -0.79,-1.13 -1.75,-2.13 -2.65,-3.18 0.11,2.46 0.1,4.78 -0.23,7.36 z m -46.64,-75.65 c -0.66,-0.15 -1.31,-0.38 -1.98,-0.44 -0.8,-0.07 -1.6,0.02 -2.26,0.79 2.15,0.29 4.16,0.56 6.18,0.84 0.02,-0.09 0.05,-0.17 0.07,-0.26 -0.6,-0.28 -1.2,-0.56 -2.01,-0.93 z"
   id="path1" />
	</g>
</g>
</svg>
