<?xml version="1.0" encoding="UTF-8" standalone="no"?>
<!-- Generator: Adobe Adobe Illustrator 24.2.0, SVG Export Plug-In . SVG Version: 6.00 Build 0)  -->

<svg
   version="1.1"
   id="Layer_1"
   x="0px"
   y="0px"
   width="194.03659"
   height="196.47847"
   viewBox="0 0 194.03659 196.47847"
   xml:space="preserve"
   sodipodi:docname="repollo.svg"
   inkscape:version="1.4 (e7c3feb1, 2024-10-09)"
   xmlns:inkscape="http://www.inkscape.org/namespaces/inkscape"
   xmlns:sodipodi="http://sodipodi.sourceforge.net/DTD/sodipodi-0.dtd"
   xmlns="http://www.w3.org/2000/svg"
   xmlns:svg="http://www.w3.org/2000/svg"><defs
   id="defs14" /><sodipodi:namedview
   id="namedview14"
   pagecolor="#ffffff"
   bordercolor="#000000"
   borderopacity="0.25"
   inkscape:showpageshadow="2"
   inkscape:pageopacity="0.0"
   inkscape:pagecheckerboard="0"
   inkscape:deskcolor="#d1d1d1"
   inkscape:zoom="1.6816667"
   inkscape:cx="85.629336"
   inkscape:cy="88.305253"
   inkscape:window-width="1200"
   inkscape:window-height="1186"
   inkscape:window-x="0"
   inkscape:window-y="0"
   inkscape:window-maximized="0"
   inkscape:current-layer="Layer_1" />
<g
   id="g14"
   transform="translate(-214.03073,-211.50828)">
	<g
   id="g13">
		<path
   d="m 344.84,221.17 c 2.6,3.12 5.65,5.52 9.15,7.35 10.02,5.24 19.15,11.7 26.98,19.91 13.79,14.46 22.74,31.48 25.81,51.24 4.48,28.81 -2.67,54.45 -22.44,76.14 -11.66,12.78 -26.18,20.96 -42.92,25.26 -2.92,0.75 -5.77,1.81 -8.68,2.61 -9.5,2.63 -19.17,4.12 -29.03,4.29 -15.37,0.26 -30.13,-2.49 -43.92,-9.47 -20.88,-10.57 -34.53,-27.29 -41.53,-49.51 -3.43,-10.87 -4.6,-22.04 -4.13,-33.4 0.77,-18.59 5.88,-36.03 14.24,-52.57 6.29,-12.45 14.25,-23.76 23.67,-34.04 1.56,-1.71 1.64,-1.69 2.64,0.34 0.21,0.44 0.47,0.85 0.73,1.26 0.65,1.03 1.61,1.6 2.81,1.56 1.16,-0.04 2.32,-0.22 3.47,-0.4 0.72,-0.12 1.41,-0.51 2.12,-0.52 1.5,-0.02 2.66,-0.72 3.9,-1.42 8.04,-4.56 16.47,-8.02 25.8,-8.93 4.81,-0.47 9.59,-1.17 14.44,-1.13 0.7,0.01 1.06,-0.35 1.43,-0.83 1.23,-1.61 2.73,-2.91 4.44,-3.99 2.75,-1.73 5.55,-1.99 8.44,-0.35 0.25,0.14 0.53,0.25 0.77,0.42 1.61,1.14 3.25,0.95 4.79,-0.03 2.69,-1.71 5.73,-2.44 8.73,-3.29 0.55,-0.16 1.16,-0.18 1.74,-0.15 1.35,0.06 2.29,0.74 2.76,2.03 0.08,0.23 0.18,0.46 0.22,0.7 0.5,2.63 1.85,4.81 3.57,6.92 z m -110.91,75.65 c -0.12,0.21 -0.26,0.41 -0.36,0.63 -4.98,11.05 -7.9,22.62 -8.52,34.74 -0.29,5.76 -0.06,11.5 0.79,17.22 1.33,8.96 4,17.47 8.27,25.47 0.2,0.38 0.45,0.74 0.67,1.11 0.06,-0.52 -0.06,-0.97 -0.2,-1.42 -0.9,-2.99 -1.85,-5.96 -2.69,-8.96 -2.88,-10.29 -4.59,-20.76 -4.17,-31.48 0.19,-4.92 0.53,-9.84 1.11,-14.72 0.78,-6.54 2.14,-12.98 4.25,-19.25 0.37,-1.1 0.69,-2.23 1.18,-3.44 0.1,-0.3 0.19,-0.6 0.29,-0.89 -0.06,-0.01 -0.11,-0.03 -0.17,-0.04 -0.08,0.34 -0.16,0.7 -0.45,1.03 z m 88,71.15 c -0.53,-1.51 -1.01,-3.05 -1.62,-4.53 -0.63,-1.53 -1.43,-2.99 -2.06,-4.53 -1.98,-4.89 -1.79,-9.57 1.26,-14.06 1.28,-1.89 2.32,-3.95 3.34,-6 0.83,-1.65 0.73,-2.24 -0.66,-3.48 -2.49,-2.21 -3.48,-4.96 -3.44,-8.21 0.02,-1.46 -0.1,-2.94 -0.36,-4.37 -0.44,-2.47 -1.55,-4.62 -3.56,-6.21 -1.92,-1.52 -2.6,-3.46 -2.03,-5.84 0.1,-0.43 0.18,-0.86 0.3,-1.28 0.52,-1.87 0.45,-3.77 0.37,-5.67 -0.05,-1.19 -0.61,-2.05 -1.66,-2.56 -0.74,-0.36 -1.52,-0.67 -2.29,-0.95 -1.15,-0.41 -2.32,-0.75 -3.46,-1.18 -2.78,-1.05 -5.3,-2.42 -7.1,-4.93 -0.87,-1.21 -1.39,-2.42 -1.39,-3.9 0,-3.39 0.42,-6.71 1.55,-9.93 0.61,-1.75 1.14,-3.53 1.69,-5.3 1.01,-3.22 1.13,-6.4 -0.36,-9.55 -0.95,-2.01 -1.3,-4.18 -1.25,-6.41 0.02,-1.02 -0.01,-2.05 -0.06,-3.07 -0.08,-2.05 -0.85,-3.81 -2.46,-5.12 -1.13,-0.92 -2.31,-1.79 -3.52,-2.61 -2.74,-1.85 -4.56,-4.34 -5.45,-7.53 -0.38,-1.36 -0.77,-2.72 -1.28,-4.04 -0.65,-1.7 -1.91,-2.67 -3.79,-2.71 -0.54,-0.01 -1.07,-0.01 -1.61,0 -2.32,0.05 -4.54,0.65 -6.72,1.37 -1.79,0.59 -3.36,0.33 -4.74,-0.99 -0.25,-0.24 -0.55,-0.42 -0.76,-0.68 -0.91,-1.06 -2.11,-1.4 -3.42,-1.32 -0.96,0.06 -1.91,0.34 -2.87,0.47 -1.49,0.2 -2.99,0.47 -4.48,0.5 -1.57,0.04 -2.78,-0.8 -3.63,-2.13 -0.34,-0.53 -0.67,-1.06 -1.18,-1.86 -0.37,0.5 -0.6,0.87 -0.89,1.19 -11.42,12.65 -20.59,26.73 -27.18,42.47 -5.51,13.17 -8.9,26.84 -9.71,41.11 -0.51,8.91 0.1,17.76 1.96,26.5 2.49,11.7 7.05,22.51 14.05,32.24 0.3,0.42 0.63,0.83 0.94,1.24 0.01,-0.59 -0.17,-1.07 -0.4,-1.53 -4.47,-9.31 -6.93,-19.14 -7.66,-29.42 -0.49,-6.94 -0.17,-13.85 0.9,-20.72 0.87,-5.61 2.2,-11.1 4.08,-16.45 1.07,-3.05 1.66,-6.11 0.81,-9.32 -0.73,-2.73 -1.35,-5.5 -2.14,-8.21 -1.05,-3.63 -0.82,-7.24 -0.02,-10.85 0.05,-0.21 0.3,-0.38 0.52,-0.64 0.23,0.87 0.24,0.87 0.11,1.51 -0.71,3.6 -0.59,7.12 0.42,10.7 0.93,3.32 2.02,6.63 2.28,10.12 0.01,0.14 0.14,0.28 0.26,0.49 1.17,-2.45 2.3,-4.76 3.38,-7.1 0.37,-0.79 0.67,-1.62 0.92,-2.46 0.72,-2.38 0.63,-4.84 0.43,-7.27 -0.2,-2.47 0.05,-4.86 0.66,-7.24 1.08,-4.25 3.15,-8.07 5.15,-11.93 1.12,-2.17 2.31,-4.3 3.38,-6.49 1.74,-3.54 2.52,-7.26 1.93,-11.22 -0.04,-0.27 0.08,-0.57 0.13,-0.86 0.12,-0.01 0.23,-0.02 0.35,-0.03 0.11,0.33 0.27,0.65 0.33,0.98 0.48,2.95 0.24,5.88 -0.86,8.64 -1.03,2.58 -2.31,5.05 -3.54,7.54 -1.42,2.89 -2.99,5.71 -4.33,8.63 -1.74,3.81 -2.77,7.8 -2.42,12.07 0.11,1.31 0.01,2.63 0.02,3.95 0,0.39 0.04,0.79 0.06,1.18 0.89,-1.1 1.59,-2.22 2.11,-3.41 1.68,-3.85 3.59,-7.58 5.84,-11.14 3.67,-5.78 7.87,-11.17 12.24,-16.43 3.36,-4.03 7.2,-7.57 11.45,-10.65 1.3,-0.94 2.71,-1.74 4.08,-2.57 0.27,-0.17 0.64,-0.18 0.96,-0.26 0.05,0.12 0.1,0.23 0.15,0.35 -1.9,1.3 -3.86,2.52 -5.68,3.91 -1.86,1.42 -3.66,2.93 -5.36,4.54 -1.7,1.61 -3.29,3.34 -4.83,5.1 -1.52,1.73 -2.92,3.57 -4.37,5.37 3.43,-1.1 6.73,-2.27 9.97,-3.6 5.23,-2.15 9.9,-5.08 13,-10.03 0.16,-0.25 0.46,-0.41 0.7,-0.62 0.52,0.58 0.08,0.91 -0.14,1.24 -2.01,3 -4.47,5.54 -7.63,7.36 -2.8,1.61 -5.7,2.98 -8.75,4.05 -2.03,0.7 -4.02,1.49 -6,2.32 -1.84,0.77 -3.34,2 -4.47,3.66 -1.65,2.42 -3.41,4.77 -4.92,7.28 -5.18,8.62 -8.91,17.88 -12.14,27.37 -0.07,0.21 -0.09,0.44 -0.15,0.76 0.18,-0.14 0.28,-0.18 0.33,-0.25 0.22,-0.32 0.43,-0.65 0.65,-0.97 6.25,-9.21 14.53,-15.53 25.54,-18.03 4.85,-1.1 9.68,-2.31 14.46,-3.66 5.88,-1.65 11.74,-3.41 16.61,-7.36 0.11,-0.09 0.25,-0.19 0.38,-0.21 0.17,-0.03 0.35,0.01 0.89,0.04 -0.51,0.49 -0.77,0.8 -1.08,1.04 -3.06,2.32 -6.41,4.05 -10.06,5.28 -6.71,2.26 -13.55,4.03 -20.46,5.56 -4.66,1.03 -9.05,2.75 -13.11,5.27 -0.46,0.29 -0.9,0.62 -1.57,1.08 0.48,0 0.63,0.03 0.77,0 8.05,-1.75 16.08,-1.62 24.08,0.37 4.62,1.15 9.01,2.88 13.16,5.22 0.39,0.22 0.95,0.32 0.89,0.99 -0.57,0.32 -0.94,-0.11 -1.35,-0.31 -1.85,-0.88 -3.65,-1.88 -5.54,-2.66 -5.55,-2.29 -11.32,-3.62 -17.33,-3.94 -5.26,-0.28 -10.43,0.17 -15.51,1.57 -0.81,0.22 -1.63,0.7 -2.25,1.26 -4.08,3.7 -7.59,7.87 -10.14,12.78 -0.36,0.68 -0.66,1.42 -0.83,2.17 -2.35,9.88 -3.39,19.9 -3.18,30.05 0.07,3.56 0.3,7.11 0.46,10.66 0.11,0.01 0.22,0.01 0.32,0.02 0.1,-0.6 0.19,-1.21 0.31,-1.81 0.27,-1.44 0.46,-2.89 0.84,-4.3 1.12,-4.07 3.22,-7.61 5.92,-10.83 4.14,-4.94 9,-9.07 14.23,-12.79 1.8,-1.28 3.15,-2.88 4.23,-4.77 2.41,-4.2 3.71,-8.68 3.55,-13.55 -0.01,-0.35 -0.14,-0.8 0.62,-0.98 0.09,0.62 0.24,1.21 0.24,1.8 -0.05,4.64 -1.27,8.95 -3.62,12.96 -0.23,0.39 -0.42,0.81 -0.72,1.4 0.38,-0.17 0.52,-0.22 0.64,-0.3 6.25,-4.07 12.97,-7.18 19.92,-9.82 0.3,-0.12 0.65,-0.12 1.21,-0.21 -0.79,0.95 -0.78,0.98 -2.2,1.52 -4.2,1.6 -8.32,3.36 -12.26,5.55 -8.72,4.83 -16.78,10.56 -23.57,17.91 -1.78,1.92 -3.22,4.16 -4.8,6.26 -0.19,0.25 -0.26,0.6 -0.39,0.9 0.36,-0.1 0.52,-0.28 0.66,-0.48 2.81,-3.88 6.33,-7.06 10.26,-9.73 8.48,-5.76 17.87,-7.48 27.94,-5.94 2.79,0.43 5.59,0.96 8.43,0.48 1.1,-0.19 2.19,-0.49 3.29,-0.69 0.27,-0.05 0.56,0.06 0.85,0.09 -0.26,0.43 -0.52,0.68 -0.83,0.73 -1.63,0.3 -3.26,0.75 -4.89,0.77 -2.18,0.02 -4.38,-0.25 -6.56,-0.5 -3.44,-0.4 -6.87,-0.84 -10.36,-0.48 -7.47,0.79 -14.16,3.42 -20.03,8.16 -3.92,3.16 -7.15,6.92 -10.01,11.02 -0.44,0.63 -0.86,1.34 -1.06,2.07 -1.09,3.95 -1.47,8.02 -0.8,12.04 1.24,7.52 3.38,14.83 5.92,22.01 0.52,1.48 1.44,2.72 2.53,3.86 -1,-2.76 -1.17,-5.64 -1.14,-8.5 0.09,-9.2 7.68,-20.28 17.89,-22.5 2.57,-0.56 5.12,-1.25 7.63,-2.03 4.28,-1.32 7.79,-3.68 9.56,-7.98 1.8,-4.36 4.86,-7.47 9,-9.63 1.99,-1.04 3.93,-2.17 5.86,-3.32 3.83,-2.29 7.07,-5.19 9.3,-9.12 0.14,-0.24 0.42,-0.4 0.72,-0.67 0.37,0.79 -0.08,1.21 -0.33,1.63 -1.83,3.07 -4.27,5.59 -7.24,7.55 -2.28,1.5 -4.62,2.94 -7.05,4.17 -4.49,2.28 -7.84,5.49 -9.76,10.24 -1.13,2.79 -3.24,4.85 -5.92,6.27 -0.33,0.17 -0.63,0.39 -1.24,0.77 0.62,0 0.9,0.02 1.17,0 5.26,-0.37 10.52,-0.66 15.76,-1.14 3.88,-0.35 7.79,-0.7 11.54,-1.83 2.85,-0.86 5.65,-1.86 8.48,-2.77 0.45,-0.15 0.93,-0.57 1.48,-0.08 -0.11,0.17 -0.15,0.33 -0.25,0.4 -0.24,0.16 -0.5,0.31 -0.78,0.4 -3.63,1.14 -7.2,2.5 -10.9,3.35 -5.67,1.31 -11.49,1.62 -17.28,2.02 -3.21,0.22 -6.43,0.31 -9.65,0.42 -2.67,0.09 -5.14,1.08 -7.71,1.64 -2.43,0.54 -4.86,1.11 -7.05,2.36 -6.29,3.59 -10.09,9.04 -11.93,15.95 -0.13,0.48 -0.18,0.98 -0.26,1.47 1.1,-2.03 2.64,-3.44 4.75,-4.23 1.8,-0.67 3.67,-0.99 5.6,-0.81 2.77,0.25 5.54,0.5 8.31,0.75 5.76,0.52 11.27,-0.42 16.58,-2.7 1.74,-0.75 3.52,-1.5 5.36,-1.91 6.98,-1.56 13.68,-0.49 20.09,2.54 2.25,1.06 4.43,2.26 6.63,3.42 0.22,0.12 0.36,0.38 0.54,0.57 -0.04,0.09 -0.09,0.18 -0.13,0.27 -0.48,-0.13 -1,-0.19 -1.44,-0.41 -1.74,-0.88 -3.45,-1.83 -5.19,-2.71 -6.1,-3.09 -12.53,-4.36 -19.29,-3.08 -2.23,0.42 -4.39,1.31 -6.5,2.18 -5.05,2.09 -10.26,3.11 -15.72,2.72 -2.63,-0.19 -5.25,-0.43 -7.87,-0.71 -2.11,-0.23 -4.19,-0.22 -6.22,0.47 -2.86,0.97 -4.47,2.92 -4.98,5.92 -0.6,3.55 0.16,6.88 1.34,10.18 0.34,0.94 0.86,1.72 1.61,2.39 4.52,4.07 9.41,7.61 14.72,10.57 0.41,0.23 0.84,0.43 1.36,0.69 0,-0.53 0,-0.91 0,-1.29 -0.03,-2.23 0.73,-4.01 2.84,-5.02 0.66,-0.32 1.31,-0.71 2,-0.88 1.94,-0.47 3.89,-0.94 5.86,-1.21 1.83,-0.25 3.68,-0.24 5.15,-1.61 0.31,-0.29 0.76,-0.43 1.16,-0.62 2.24,-1.09 4.48,-2.17 6.72,-3.26 2.72,-1.31 4.61,-3.42 5.77,-6.17 0.47,-1.12 0.7,-2.33 1.06,-3.49 0.12,-0.38 0.07,-0.93 0.73,-0.88 0.05,0.09 0.14,0.17 0.14,0.26 0.01,0.24 0.01,0.49 -0.04,0.73 -0.93,4.78 -3.29,8.52 -7.85,10.62 -0.62,0.29 -1.25,0.56 -1.86,0.85 -1.72,0.82 -3.43,1.64 -5.14,2.49 -0.35,0.17 -0.66,0.45 -1.23,0.84 3.72,0.07 7.09,0.2 10.41,-0.47 3.73,-0.75 7.45,-1.54 11.18,-2.28 4.9,-0.97 9.61,-0.38 14.11,1.81 1.52,0.74 2.77,1.79 3.85,3.09 1.56,1.87 2.25,4.2 3.39,6.29 0.03,0.05 -0.06,0.17 -0.16,0.45 -0.26,-0.18 -0.59,-0.29 -0.71,-0.51 -0.54,-0.98 -1.03,-1.99 -1.51,-3.01 -1.2,-2.57 -2.99,-4.53 -5.6,-5.74 -3.54,-1.63 -7.25,-2.28 -11.12,-1.88 -1.27,0.13 -2.59,0.21 -3.96,0.89 0.65,0.22 1.1,0.37 1.56,0.52 3.66,1.24 7.04,2.96 9.66,5.86 1.1,1.22 1.94,2.67 2.85,4.05 0.14,0.2 0.05,0.55 0.06,0.84 -0.11,0.04 -0.22,0.07 -0.34,0.11 -0.22,-0.34 -0.47,-0.66 -0.66,-1.02 -1,-1.89 -2.37,-3.45 -3.99,-4.82 -2.74,-2.31 -5.92,-3.75 -9.33,-4.73 -1.29,-0.37 -2.57,-0.38 -3.9,-0.07 -4.77,1.1 -9.6,1.74 -14.51,1.53 -1.32,-0.06 -2.64,-0.02 -3.95,0.02 -2.6,0.07 -5.14,0.49 -7.6,1.36 -0.32,0.11 -0.61,0.3 -0.92,0.46 2.83,0.38 5.41,1.21 7.9,2.4 3.03,1.45 6.2,2.02 9.53,1.07 0.42,-0.12 0.85,-0.21 1.29,-0.28 1.56,-0.25 3.12,-0.36 4.6,0.33 0.41,0.19 0.98,0.29 0.94,1.16 -0.44,-0.13 -0.84,-0.22 -1.21,-0.37 -1.16,-0.48 -2.34,-0.66 -3.58,-0.38 -0.71,0.16 -1.45,0.24 -2.15,0.42 -3.32,0.85 -6.48,0.29 -9.55,-1.08 -0.89,-0.4 -1.76,-0.85 -2.67,-1.19 -2.03,-0.76 -4.11,-1.21 -6.3,-1.03 -0.87,0.07 -1.38,0.52 -1.56,1.29 -0.36,1.61 -0.11,3.11 1.09,4.34 0.86,0.89 1.9,1.5 3.03,2 10.12,4.46 20.73,6.88 31.73,7.52 5.85,0.34 11.7,0.2 17.55,-0.42 8.04,-0.85 15.89,-2.53 23.6,-4.93 0.34,-0.11 0.66,-0.27 1.13,-0.47 -0.7,-0.66 -1.39,-1.11 -1.81,-1.74 -1.29,-1.91 -2.86,-1.76 -4.8,-1.11 -8.22,2.76 -16.76,3.6 -25.36,4.02 -0.53,0.03 -1.08,0.03 -1.61,-0.05 -0.2,-0.03 -0.37,-0.31 -0.55,-0.47 5.05,-0.32 9.98,-0.76 14.89,-1.46 4.95,-0.7 9.81,-1.79 14.69,-3.48 -0.44,-0.4 -0.75,-0.64 -1,-0.92 -0.82,-0.93 -1.71,-0.9 -2.87,-0.57 -2.62,0.75 -5.3,1.29 -7.96,1.9 -0.37,0.08 -0.79,0.22 -0.95,-0.57 1.59,-0.32 3.19,-0.62 4.78,-0.97 1.59,-0.35 3.17,-0.73 4.8,-1.42 -0.41,-0.36 -0.69,-0.62 -0.99,-0.86 -0.88,-0.7 -1.82,-1.33 -2.65,-2.08 -2.11,-1.93 -4.06,-4.01 -4.35,-7.05 -0.12,-1.21 -0.08,-2.44 -0.09,-3.66 0.03,-4.06 0.03,-8.06 -0.01,-12.31 z m 44.82,3.58 c 1.02,-0.09 2.04,-0.19 3.06,-0.26 3.98,-0.27 7.8,0.2 11.2,2.52 0.68,0.46 1.31,0.99 2.01,1.52 0.2,-0.17 0.39,-0.31 0.55,-0.49 4.24,-4.56 7.95,-9.51 11.09,-14.88 0.22,-0.37 0.43,-0.79 0.49,-1.21 0.29,-1.94 0.36,-3.89 -0.11,-5.82 -0.77,-3.16 -2.36,-5.87 -4.58,-8.22 -1.6,-1.69 -3.47,-3.06 -5.74,-3.64 -3.43,-0.87 -6.93,-1.09 -10.45,-0.57 -1.05,0.16 -1.7,0.64 -2.28,1.56 -1.76,2.77 -3.84,5.29 -6.3,7.48 -2.28,2.02 -4.96,3.08 -7.99,3.21 -2,0.08 -4,0.09 -6,0.06 -2.9,-0.04 -5.64,0.39 -7.98,2.3 -0.22,0.18 -0.57,0.19 -0.85,0.28 -0.06,-0.1 -0.13,-0.2 -0.19,-0.3 0.32,-0.31 0.62,-0.65 0.98,-0.92 1.89,-1.44 4.04,-2.12 6.42,-2.09 1.9,0.02 3.81,0.03 5.71,-0.01 3.39,-0.07 6.58,-0.69 9.25,-3.04 2.36,-2.08 4.31,-4.51 6.15,-7.04 0.13,-0.18 0.21,-0.41 0.4,-0.8 -0.94,0.08 -1.7,0.13 -2.46,0.23 -2.34,0.28 -4.67,0.25 -7,-0.12 -5.11,-0.82 -8.78,-3.56 -11.01,-8.23 -0.25,-0.53 -0.68,-1.08 -0.3,-1.76 0.62,0.47 0.62,0.47 0.96,1.2 2.05,4.46 5.48,7.12 10.33,7.94 3.42,0.58 6.82,0.4 10.18,-0.36 2.41,-0.55 4.83,-0.7 7.27,-0.59 3.35,0.16 6.64,0.6 9.38,2.79 4.42,3.52 7.14,7.95 7.21,13.75 0,0.22 0.03,0.45 0.04,0.67 0.09,0.03 0.18,0.07 0.27,0.1 0.37,-0.71 0.7,-1.44 1.11,-2.13 1.1,-1.9 1.83,-3.86 1.26,-6.11 -0.13,-0.51 -0.01,-1.07 -0.06,-1.61 -0.1,-1.07 -0.15,-2.14 -0.35,-3.19 -0.69,-3.56 -1.85,-6.98 -3.25,-10.31 -0.72,-1.7 -1.61,-3.35 -2.62,-4.9 -2.72,-4.21 -6.66,-6.65 -11.58,-7.45 -5.11,-0.83 -10.25,-1.32 -15.45,-0.97 -2.18,0.15 -4.39,-0.03 -6.57,-0.26 -1.69,-0.18 -3.35,-0.65 -5.01,-1.02 -0.37,-0.08 -0.91,-0.13 -0.79,-0.89 0.29,0.04 0.56,0.06 0.82,0.13 3.55,0.99 7.18,1.44 10.86,1.25 5.28,-0.27 10.53,0.02 15.76,0.83 5.58,0.87 10.01,3.52 12.95,8.37 1.23,2.03 2.21,4.23 3.12,6.44 0.89,2.19 1.54,4.47 2.3,6.71 0.08,-0.59 0.09,-1.18 0,-1.75 -0.25,-1.69 -0.45,-3.39 -0.81,-5.06 -1.41,-6.62 -3.8,-12.81 -8.3,-18.02 -2.51,-2.9 -5.25,-5.57 -8.81,-7.12 -4.3,-1.88 -8.76,-3.28 -13.37,-4.23 -2.34,-0.48 -4.64,-1.13 -6.95,-1.73 -0.39,-0.1 -0.92,-0.13 -0.88,-0.96 0.53,0.11 1.03,0.19 1.52,0.31 1.7,0.42 3.38,0.94 5.1,1.28 4.66,0.91 9.18,2.26 13.6,4 2.02,0.8 3.87,1.84 5.56,3.2 4.86,3.91 8.49,8.72 10.76,14.54 0.33,0.86 0.67,1.71 1,2.56 -0.21,-2.6 -0.96,-5.05 -1.99,-7.4 -1.03,-2.37 -2.13,-4.72 -3.44,-6.94 -1.28,-2.18 -2.73,-4.29 -4.33,-6.25 -1.63,-1.99 -3.43,-3.88 -5.35,-5.6 -1.89,-1.7 -4.01,-3.13 -6.03,-4.68 0.04,-0.1 0.08,-0.19 0.13,-0.29 0.38,0.11 0.79,0.16 1.12,0.35 0.88,0.52 1.76,1.06 2.57,1.68 9.61,7.43 15.65,17.13 18.4,28.92 0.51,2.17 0.85,4.38 1.27,6.57 0.15,-0.69 0.18,-1.36 0.15,-2.03 -0.25,-4.38 -0.44,-8.77 -0.78,-13.15 -0.62,-7.94 -1.92,-15.78 -3.84,-23.51 -0.16,-0.66 -0.38,-1.31 -0.68,-1.92 -3.56,-7.29 -13.13,-9.74 -19.06,-6.92 -0.84,0.4 -1.69,0.77 -2.54,1.14 -3.07,1.33 -6.24,1.46 -9.46,0.71 -0.4,-0.09 -0.92,-0.09 -0.89,-0.88 0.44,0.04 0.88,0.01 1.28,0.11 3.42,0.87 6.67,0.35 9.81,-1.18 0.92,-0.45 1.86,-0.9 2.83,-1.18 5.24,-1.53 10.02,-0.47 14.41,2.65 0.38,0.27 0.74,0.56 1.11,0.84 0.07,-0.07 0.14,-0.14 0.21,-0.22 -1.19,-1.33 -2.31,-2.72 -3.58,-3.96 -1.32,-1.3 -2.72,-2.52 -4.19,-3.66 -1.42,-1.11 -2.94,-2.09 -4.46,-3.07 -1.52,-0.98 -3.06,-1.93 -4.64,-2.79 -1.62,-0.89 -3.27,-1.77 -4.99,-2.45 -1.63,-0.64 -3.36,-1 -5.05,-1.48 0.02,-0.13 0.03,-0.26 0.05,-0.39 0.34,-0.03 0.69,-0.14 1.02,-0.08 2.07,0.38 4.12,0.87 5.98,1.88 2.49,1.35 4.97,2.71 7.39,4.17 4.94,2.96 9.39,6.5 12.87,11.15 0.09,0.12 0.24,0.19 0.63,0.5 -2.98,-8.74 -6.39,-16.79 -12.58,-23.45 -2.16,-2.32 -4.53,-3.86 -7.51,-4.77 -4.57,-1.4 -9.14,-2.81 -13.9,-3.43 -0.53,-0.07 -1.18,0 -1.59,-0.54 0.61,-0.4 0.61,-0.4 1.29,-0.32 5.16,0.62 10.13,2.03 15.02,3.75 0.52,0.18 1.06,0.33 1.58,0.49 -0.08,-0.43 -0.27,-0.64 -0.47,-0.84 -2.77,-2.79 -5.89,-5.11 -9.26,-7.13 -2.85,-1.71 -5.64,-3.5 -8.43,-5.3 -3.4,-2.19 -5.97,-5.16 -7.93,-8.66 -0.62,-1.1 -1.14,-2.27 -1.64,-3.43 -0.17,-0.4 -0.48,-0.89 0.03,-1.3 0.14,0.04 0.28,0.04 0.31,0.09 0.16,0.3 0.31,0.61 0.43,0.92 2,4.86 4.99,8.94 9.46,11.81 2.91,1.87 5.86,3.7 8.81,5.52 2.88,1.77 5.6,3.74 8.01,6.12 1.53,1.51 3.1,2.97 4.65,4.45 0.11,0.11 0.29,0.15 0.74,0.37 -0.38,-2.24 -0.61,-4.22 -1.07,-6.16 -0.77,-3.24 -1.87,-6.36 -3.55,-9.26 -0.19,-0.33 -0.61,-0.71 0.05,-1.26 0.26,0.34 0.54,0.64 0.74,0.99 2.59,4.68 4.11,9.7 4.37,15.04 0.06,1.24 0.47,2.1 1.37,2.87 4.23,3.59 7.46,7.97 10.12,12.79 4.82,8.74 7.55,18.18 9.02,27.99 0.64,4.24 1.09,8.52 1.3,12.8 0.22,4.53 0.16,9.08 0.02,13.61 -0.11,3.64 -0.53,7.26 -0.84,11.16 0.28,-0.72 0.51,-1.2 0.67,-1.7 4.95,-15.5 5.76,-31.24 2.24,-47.11 -5.03,-22.7 -16.86,-41.16 -35.11,-55.53 -5.04,-3.97 -10.47,-7.33 -16.14,-10.3 -4.72,-2.48 -8.66,-5.81 -11.53,-10.33 -0.5,-0.79 -0.91,-1.64 -1.38,-2.5 -0.78,1.19 -1.43,2.34 -2.24,3.37 -0.84,1.07 -1.84,2.01 -2.76,3.02 -0.23,0.25 -0.42,0.54 -0.6,0.83 -0.43,0.72 -0.37,1.47 0.23,2.01 0.48,0.43 1.12,0.76 1.75,0.94 0.74,0.22 1.54,0.22 2.31,0.33 1.62,0.23 2.42,1.2 2.21,2.83 -0.11,0.87 -0.36,1.72 -0.59,2.56 -0.28,1.04 -0.66,2.04 -0.91,3.09 -0.51,2.18 -0.11,4.17 1.43,5.86 1.45,1.6 2.95,3.13 4.95,4.06 2.13,0.99 3.6,2.64 4.65,4.69 0.38,0.74 0.8,1.47 1.05,2.25 0.81,2.53 2.63,4.01 4.96,5.05 1.06,0.48 2.14,0.99 3.08,1.66 1.78,1.27 2.54,3.05 2.14,5.24 -0.18,0.96 -0.41,1.91 -0.66,2.85 -0.4,1.47 -0.28,2.89 0.31,4.29 1.48,3.5 1.03,6.7 -1.32,9.74 -1.12,1.45 -2.05,3.1 -2.8,4.78 -1.65,3.68 -2.48,7.6 -2.99,11.57 -0.56,4.41 -1.22,8.79 -2.4,13.08 -0.88,3.21 -2.6,4.09 -5.67,2.88 -0.36,-0.14 -0.72,-0.31 -1.1,-0.39 -0.57,-0.12 -1.15,-0.25 -1.72,-0.24 -1.54,0.02 -2.34,0.73 -2.55,2.26 -0.08,0.58 -0.02,1.17 -0.07,1.75 -0.1,1.02 -0.14,2.06 -0.38,3.04 -0.46,1.86 -1.83,2.4 -3.44,1.33 -0.8,-0.53 -1.44,-1.3 -2.14,-1.97 -0.22,-0.21 -0.41,-0.45 -0.7,-0.78 -0.7,1.97 -0.91,3.85 -0.87,5.76 0.03,1.46 0.16,2.93 0.19,4.39 0.05,2.34 -0.61,4.52 -1.51,6.66 -1.8,4.3 -1.69,8.53 -0.05,12.95 1.95,5.25 3.58,10.63 5.1,16.03 2.26,8.07 1.74,16.03 -1.55,23.78 -0.11,0.26 -0.18,0.54 -0.26,0.81 0.14,0.06 0.23,0.11 0.32,0.12 0.14,0.01 0.29,0 0.44,-0.02 6.13,-1.04 11.9,-3.04 17.06,-6.59 0.44,-0.3 0.88,-0.63 1.35,-0.87 0.19,-0.1 0.47,-0.02 0.71,-0.02 -0.26,0.58 -0.61,0.89 -0.99,1.16 -4.39,3.14 -9.26,5.19 -14.5,6.39 -1.33,0.3 -2.69,0.47 -4.02,0.76 -0.39,0.08 -0.92,0.26 -1.09,0.56 -0.58,1.03 -1.04,2.14 -1.64,3.43 1.54,-0.25 2.84,-0.41 4.12,-0.66 7.63,-1.53 14.91,-3.91 21.18,-8.75 0.15,-0.12 0.31,-0.27 0.49,-0.32 0.19,-0.06 0.41,-0.01 0.62,-0.01 -0.19,0.56 -0.48,0.93 -0.86,1.17 -1.84,1.2 -3.63,2.49 -5.56,3.51 -5.72,3.02 -11.88,4.65 -18.24,5.59 -0.4,0.06 -0.79,0.16 -1.19,0.24 0.62,0.69 1.2,1.22 1.65,1.85 0.82,1.15 1.89,1.43 3.19,1.11 0.28,-0.07 0.57,-0.11 0.86,-0.18 7.86,-1.93 15.14,-5.13 21.59,-10.08 2.6,-1.99 5.14,-4.05 7.35,-6.48 0.27,-0.3 0.52,-0.76 1.15,-0.39 -0.46,1.24 -1.51,1.99 -2.4,2.84 -8.31,7.88 -18.05,13.02 -29.33,15.26 1.12,1.5 1.13,1.52 2.35,1.22 15.95,-3.85 29.76,-11.53 41.37,-23.14 0.26,-0.26 0.48,-0.57 0.82,-0.97 -0.77,-0.59 -1.43,-1.17 -2.16,-1.62 -4.02,-2.49 -8.47,-2.88 -12.86,-1.72 -7.07,1.86 -14.09,3.95 -20.77,7 -0.37,0.17 -0.76,0.27 -1.26,0.45 0.31,-0.92 0.29,-0.98 1.14,-1.3 3.23,-1.24 6.46,-2.5 9.72,-3.66 2.16,-0.77 4.37,-1.38 6.56,-2.07 0.29,-0.09 0.55,-0.27 0.95,-0.47 -6.53,-1.33 -15.77,-5.95 -16.99,-8.47 0.73,-0.37 1.08,0.29 1.49,0.59 3.9,2.83 8.09,5.1 12.75,6.4 1.73,0.49 3.55,0.84 5.69,0.52 z M 324.61,283.7 c -0.34,-0.91 -0.76,-1.81 -1,-2.75 -0.5,-1.89 -1.6,-3.2 -3.43,-3.9 -0.27,-0.1 -0.53,-0.25 -0.79,-0.37 -2.72,-1.26 -5.02,-2.96 -6.41,-5.74 -0.76,-1.52 -2.08,-2.48 -3.72,-2.85 -3.1,-0.71 -5.42,-2.58 -7.48,-4.86 -0.25,-0.27 -0.5,-0.54 -0.75,-0.81 0.22,1.44 0.66,2.76 1.14,4.07 0.7,1.87 0.97,3.78 0.54,5.75 -0.34,1.52 -0.66,3.05 -1.09,4.55 -0.62,2.15 -1.38,4.27 -1.99,6.43 -0.34,1.17 -0.61,2.38 -0.47,3.98 0.42,-0.66 0.63,-1.03 0.88,-1.37 1.41,-1.87 2.81,-3.74 4.25,-5.59 0.29,-0.38 0.6,-0.91 1.51,-0.6 -0.4,0.51 -0.7,0.92 -1.03,1.29 -2.13,2.37 -3.98,4.93 -5.45,7.77 -0.59,1.14 -0.6,2.2 -0.04,3.52 0.29,-0.49 0.5,-0.85 0.73,-1.2 1.04,-1.59 2.07,-3.19 3.13,-4.77 0.22,-0.32 0.47,-0.78 1.2,-0.4 -0.3,0.43 -0.57,0.81 -0.82,1.2 -1.09,1.73 -2.2,3.45 -3.24,5.21 -0.19,0.32 -0.27,0.88 -0.11,1.2 0.25,0.52 0.73,0.93 1.16,1.43 0.79,-1.31 1.42,-2.47 2.15,-3.56 0.7,-1.05 1.28,-2.23 2.5,-2.86 -0.22,1.4 -1.3,2.28 -1.94,3.42 -0.66,1.18 -1.37,2.34 -2.14,3.65 0.82,0.49 1.5,0.9 2.15,1.29 0.94,-1.19 1.21,-2.65 2.64,-3.71 -0.17,1.75 -1.44,2.65 -1.67,4.14 0.86,0.35 1.73,0.7 2.65,1.08 0.46,-0.86 0.81,-1.61 1.24,-2.31 0.44,-0.71 0.58,-1.63 1.57,-2.24 0.14,1.09 -0.48,1.71 -0.8,2.41 -0.35,0.77 -0.77,1.52 -1.18,2.33 1.21,0.46 2.27,0.81 3.29,1.25 1.87,0.79 3.01,2.1 2.99,4.25 -0.01,1.09 0.1,2.17 0.17,3.5 2.79,-2.27 4.81,-4.77 5.6,-8.09 0.85,-3.56 0.93,-7.15 0.26,-10.75 -0.06,-0.34 -0.4,-0.75 0.23,-1.01 0.55,0.25 0.58,0.82 0.67,1.32 0.5,2.66 0.44,5.34 0.13,8.02 -0.24,2.1 -0.73,4.13 -1.82,5.97 -1.16,1.95 -2.63,3.63 -4.44,5.01 -0.44,0.34 -0.9,0.79 -1.08,1.29 -0.31,0.86 -0.5,1.8 -0.57,2.71 -0.12,1.5 0.44,2.71 1.78,3.51 0.09,-0.1 0.14,-0.13 0.16,-0.18 0.26,-0.52 0.53,-1.04 0.78,-1.57 2.36,-4.79 6.17,-7.84 11.28,-9.29 1.13,-0.32 2.27,-0.57 3.39,-0.91 2.14,-0.64 4.08,-1.62 5.5,-3.43 0.12,-0.16 0.37,-0.22 0.61,-0.35 0.31,0.74 -0.15,1.11 -0.5,1.48 -1.29,1.4 -2.91,2.29 -4.7,2.87 -1.39,0.45 -2.81,0.8 -4.23,1.18 -2.9,0.78 -5.37,2.3 -7.52,4.36 -1.9,1.83 -3.11,4.08 -4.09,6.49 2.17,2.35 3.3,5.04 3.5,8.12 0.11,1.66 0.17,3.32 0.31,4.97 0.08,0.95 0.24,1.9 0.85,2.54 1.58,-1.75 3.02,-3.53 4.67,-5.11 2.9,-2.76 4.47,-3.71 5.53,-3.7 -0.37,0.69 -0.37,0.68 -0.99,1.13 -2.19,1.57 -4.32,3.2 -6.1,5.23 -0.96,1.09 -1.85,2.24 -2.62,3.79 0.63,0.54 1.29,1.05 1.87,1.63 1.24,1.22 1.64,2.66 0.79,4.26 -1.19,2.24 -2.46,4.43 -3.66,6.66 -0.69,1.28 -1.33,2.59 -1.92,3.92 -0.18,0.41 -0.13,0.94 -0.18,1.41 0.55,-0.42 0.79,-0.89 1.11,-1.31 1.56,-2.05 3.13,-4.11 4.74,-6.13 0.29,-0.37 0.61,-0.9 1.29,-0.7 -0.26,0.8 -0.26,0.81 -0.67,1.24 -2.35,2.44 -4.27,5.19 -5.96,8.12 -0.89,1.54 -0.64,2.92 -0.07,4.64 0.32,-0.61 0.52,-1.05 0.76,-1.45 1.32,-2.22 2.64,-4.44 3.99,-6.64 0.25,-0.41 0.49,-0.94 1.16,-0.91 0.25,0.71 -0.28,1.06 -0.57,1.46 -1.72,2.38 -3.19,4.9 -4.45,7.56 -0.54,1.13 -0.34,2 0.45,3.03 0.67,-1.19 1.23,-2.31 1.9,-3.36 0.69,-1.08 1.22,-2.3 2.29,-3.19 0.43,0.69 -0.01,1.05 -0.24,1.44 -1,1.73 -2.07,3.42 -3.01,5.19 -0.69,1.3 -0.55,1.7 0.62,2.93 0.34,-0.49 0.66,-0.97 1,-1.45 1,-1.39 1.99,-2.78 3.01,-4.15 0.23,-0.31 0.47,-0.81 1.16,-0.3 -0.31,0.45 -0.61,0.88 -0.91,1.3 -1.17,1.63 -2.32,3.26 -3.51,4.87 -0.43,0.57 -0.53,1.11 -0.19,1.75 0.22,0.41 0.38,0.84 0.62,1.38 0.46,-0.52 0.81,-0.91 1.16,-1.31 1.3,-1.46 2.59,-2.92 3.91,-4.36 0.26,-0.29 0.52,-0.76 1.25,-0.31 -0.31,0.38 -0.58,0.75 -0.89,1.09 -1.56,1.75 -3.13,3.49 -4.67,5.26 -0.27,0.31 -0.54,0.75 -0.53,1.12 0.03,1.2 0.18,2.39 0.31,3.82 1.37,-1.83 2.35,-3.73 3.97,-5.13 0.55,0.69 0.04,0.95 -0.18,1.27 -1.08,1.57 -2.18,3.12 -3.25,4.68 -0.51,0.74 -0.72,1.57 -0.73,2.48 -0.01,2.29 -0.08,4.59 -0.11,6.88 0,0.29 0.04,0.59 0.08,1.02 0.94,-2.42 1.7,-4.68 2.68,-6.85 1.43,-3.18 2.85,-5.15 3.91,-5.82 0.12,0.67 0.13,0.68 -0.42,1.47 -2.68,3.86 -4.5,8.07 -5.51,12.67 -0.23,1.03 -0.03,1.81 0.57,2.57 0.48,0.61 0.95,1.24 1.46,1.83 0.19,0.23 0.48,0.37 0.77,0.59 1.46,-6.82 2.75,-10.26 4.16,-11.08 0.39,0.59 -0.09,1.02 -0.31,1.46 -1.48,2.95 -2.51,6.03 -2.95,9.3 -0.06,0.45 -0.08,1.12 0.18,1.35 1.31,1.15 2.71,2.18 4.2,3.35 0.37,-0.69 0.67,-1.18 0.91,-1.7 0.68,-1.51 1.38,-3.02 2,-4.56 2.7,-6.71 3.41,-13.63 1.74,-20.67 -1.44,-6.08 -3.21,-12.07 -5.52,-17.88 -1.11,-2.79 -1.7,-5.64 -1.25,-8.59 0.3,-1.96 0.89,-3.9 1.58,-5.76 0.75,-2 1.22,-4 1.09,-6.14 -0.07,-1.17 -0.07,-2.34 -0.11,-3.51 -0.08,-2.37 0.23,-4.68 1.01,-6.91 0.16,-0.46 0.36,-0.92 0.65,-1.3 0.35,-0.46 0.91,-0.4 1.21,0.1 0.17,0.29 0.24,0.64 0.37,0.95 0.53,1.26 1.4,2.23 2.6,2.87 0.68,0.36 0.99,0.24 1.24,-0.45 0.16,-0.45 0.26,-0.94 0.3,-1.42 0.09,-1.02 0.14,-2.05 0.19,-3.07 0.06,-1.29 0.61,-2.28 1.54,-3.2 1.49,-1.47 2.96,-2.98 4.26,-4.62 3.1,-3.92 5.62,-8.22 7.86,-12.67 0.36,-0.71 0.46,-1.55 0.77,-2.62 -1.32,0.14 -2.4,0.12 -3.41,0.38 -2.5,0.63 -4.99,1.35 -7.46,2.11 -3.74,1.15 -7.04,0.24 -9.38,-2.87 -1.36,-1.81 -2.97,-3.18 -5.08,-4.03 -2,-0.8 -3.53,-2.19 -4.52,-4.42 z m -3.64,-29.37 c -3.08,3.27 -5.16,7.07 -6.16,11.46 -0.26,1.13 -0.25,2.27 -0.16,3.63 0.25,-0.29 0.36,-0.37 0.42,-0.49 1.1,-2.16 2.76,-3.74 4.86,-4.91 1.77,-0.99 3.66,-1.68 5.62,-2 1.73,-0.29 2.87,-1.13 3.83,-2.55 1.15,-1.69 2.5,-3.25 3.77,-4.85 0.25,-0.31 0.48,-0.77 1.31,-0.37 -1.78,2.26 -3.62,4.36 -5.37,6.93 6.36,-1.15 10.86,-5.06 16.05,-8.23 -2.65,-1.09 -4.26,-2.99 -5.94,-4.82 -0.95,-1.04 -1.95,-2.06 -3.04,-2.95 -1.96,-1.6 -4.22,-2.34 -6.79,-2.15 -2.51,0.19 -4.96,-0.14 -7.28,-1.22 -1.33,-0.61 -2.68,-1.18 -4.05,-1.69 -3.37,-1.27 -6.78,-1.3 -10.16,-0.04 -1.92,0.72 -3.77,1.59 -5.68,2.34 -3.5,1.37 -7.02,2.76 -10.91,1.83 -0.07,-0.02 -0.17,0.05 -0.34,0.11 0.71,1.23 1.74,2.06 2.87,2.84 1.32,0.91 2.62,1.87 3.86,2.89 1.37,1.12 2.18,2.63 2.51,4.35 0.19,1 0.18,2.04 0.32,3.05 0.09,0.66 0.2,1.35 0.45,1.96 1.11,2.8 3.21,4.74 5.69,6.29 1.06,0.66 2.24,1.05 3.58,1.13 -0.08,-0.25 -0.11,-0.39 -0.18,-0.52 -1.94,-3.54 -1.99,-7.38 -1.78,-11.26 0.02,-0.37 -0.02,-0.91 0.81,-0.99 0,0.53 0.01,1 0,1.47 -0.01,1.07 -0.06,2.15 -0.04,3.22 0.03,2.11 0.37,4.18 1.21,6.13 0.75,1.75 1.92,3.19 3.44,4.53 0.34,-4.55 0.73,-6.3 2.24,-9.36 2.28,-4.63 5.7,-8.23 10.07,-10.94 0.37,-0.23 0.76,-0.64 1.47,-0.09 -2.24,1.64 -4.55,3.08 -6.5,5.27 z m 30.13,22.26 c -1.77,-2.36 -3.85,-4.41 -6.3,-6.06 -1.09,-0.73 -2.21,-1.43 -3.3,-2.17 -0.23,-0.16 -0.36,-0.45 -0.54,-0.68 0.1,-0.12 0.21,-0.24 0.31,-0.35 3.06,1.72 5.94,3.68 8.4,6.27 2.49,2.61 4.22,5.76 6.21,8.74 -0.02,-1.55 -0.07,-3.06 -0.29,-4.55 -0.33,-2.31 -0.69,-4.63 -1.21,-6.9 -0.48,-2.09 -1.27,-4.1 -1.82,-6.17 -0.52,-1.98 -0.92,-3.99 -1.34,-5.99 -0.26,-1.23 -0.21,-2.42 0.65,-3.4 -0.34,-0.7 -0.63,-1.3 -0.97,-2.01 -0.89,1.16 -1.64,2.23 -2.49,3.23 -2.21,2.6 -4.45,5.19 -6.71,7.75 -0.84,0.95 -1.72,1.87 -2.67,2.71 -1.41,1.25 -3.1,1.84 -4.98,1.78 -0.97,-0.03 -1.95,-0.13 -2.91,-0.3 -1.44,-0.25 -2.86,-0.63 -4.3,-0.88 -5.47,-0.92 -8.11,3.72 -8.18,7.27 0.82,0.41 1.68,0.86 2.56,1.27 1.74,0.81 2.9,2.1 3.43,3.96 0.13,0.47 0.3,0.93 0.44,1.39 0.82,2.72 2.4,4.74 5.16,5.76 1.93,0.71 3.4,2.04 4.63,3.68 2.42,3.24 5,3.9 8.87,2.71 3.53,-1.08 7.04,-2.37 10.89,-2.21 0.37,-1.18 0.61,-2.38 1.11,-3.48 0.58,-1.28 0.42,-2.46 -0.09,-3.66 -0.21,-0.49 -0.45,-0.97 -0.65,-1.47 -0.61,-1.59 -1.82,-2.51 -3.39,-2.97 -0.7,-0.21 -1.43,-0.4 -2.14,-0.4 -1.41,-0.01 -2.82,0.13 -4.24,0.19 -1.99,0.07 -3.99,0.23 -5.98,0.15 -1.89,-0.07 -3.59,-0.87 -5.12,-1.97 -0.3,-0.22 -0.67,-0.46 -0.31,-1 0.22,0.08 0.47,0.12 0.65,0.25 2.66,1.89 5.62,2.32 8.78,1.94 1.6,-0.19 3.21,-0.41 4.81,-0.39 1.56,0.02 3.13,0.34 4.78,0.53 -0.54,-0.8 -1.08,-1.6 -1.75,-2.57 z m -3.21,-28.19 c -0.62,-0.47 -1.18,-1.06 -1.86,-1.39 -2.06,-1.01 -3.7,-2.51 -5.26,-4.14 -2.15,-2.26 -2.74,-4.88 -1.91,-7.84 0.37,-1.31 0.86,-2.6 1.16,-3.93 0.53,-2.38 -0.11,-2.64 -1.84,-2.62 -0.24,0 -0.48,-0.08 -0.72,-0.1 -2.33,-0.18 -3.83,-1.31 -4.16,-3.73 -4.86,-1.5 -9.81,-2.22 -14.81,-2.79 0.35,0.35 0.76,0.57 1.15,0.82 1.21,0.81 2.43,1.62 3.62,2.47 0.21,0.15 0.28,0.5 0.43,0.77 -0.25,0.08 -0.37,0.17 -0.42,0.13 -0.29,-0.17 -0.58,-0.36 -0.84,-0.57 -2.12,-1.7 -4.48,-2.95 -7.02,-3.87 -0.59,-0.21 -1.22,-0.37 -1.84,-0.44 -4.1,-0.4 -8.19,-0.2 -12.28,0.1 -0.72,0.05 -1.44,0.19 -2.31,0.31 1.37,1.02 2.62,1.81 3.7,2.78 1.01,0.91 1.86,1.99 2.74,3.03 0.23,0.26 0.55,0.63 -0.07,1.07 -0.24,-0.26 -0.52,-0.5 -0.72,-0.79 -1.7,-2.41 -3.95,-4.17 -6.56,-5.48 -0.49,-0.25 -1.13,-0.43 -1.66,-0.36 -3.14,0.42 -6.27,0.92 -9.4,1.42 -0.36,0.06 -0.81,0.23 -1,0.5 -1.9,2.7 -2.69,5.68 -2.13,9.02 2.34,0.69 3.53,2.39 4.16,4.57 0.32,1.08 0.65,2.15 0.94,3.23 0.49,1.81 1.11,2.29 3,2.21 0.34,-0.01 0.68,-0.08 1.01,-0.17 3.2,-0.85 5.97,-2.35 7.97,-5.09 1.09,-1.5 2.22,-2.98 3.46,-4.35 0.77,-0.85 1.67,-1.72 2.7,-2.19 3.03,-1.41 6.24,-2.27 9.63,-2.12 3.84,0.17 6.68,1.92 8.33,5.47 0.21,0.44 0.43,0.88 0.63,1.32 1.01,2.21 2.78,3.46 5.1,4 0.52,0.12 1.05,0.23 1.58,0.3 2.47,0.31 4.54,1.4 6.26,3.2 0.71,0.74 1.43,1.46 2.16,2.18 2.05,2.02 4.72,2.77 7.48,3.82 -0.15,-0.35 -0.2,-0.48 -0.4,-0.75 z m -19.04,-6.65 c 4.01,-0.4 7.23,1.17 9.93,4.01 0.64,0.67 1.24,1.38 1.89,2.04 0.92,0.94 1.81,1.94 2.84,2.74 1.42,1.11 2.53,1.8 5.17,0.11 -0.95,-0.38 -1.77,-0.76 -2.63,-1.04 -3.1,-0.98 -5.75,-2.62 -7.87,-5.11 -1.73,-2.03 -3.94,-3.12 -6.59,-3.42 -1.82,-0.21 -3.49,-0.87 -4.93,-2.07 -1.24,-1.03 -1.96,-2.41 -2.6,-3.84 -1.68,-3.74 -4.32,-5.38 -9.15,-5 -2.01,0.16 -4,0.85 -5.97,1.39 -1.4,0.38 -2.56,1.2 -3.48,2.33 -1.14,1.4 -2.27,2.81 -3.36,4.24 -1.32,1.73 -2.83,3.23 -4.81,4.19 -0.21,0.1 -0.4,0.25 -0.59,0.38 0.32,0.11 0.61,0.12 0.86,0.03 1.6,-0.58 3.21,-1.16 4.8,-1.77 1.95,-0.76 3.87,-1.61 5.85,-2.31 2.39,-0.84 4.87,-0.93 7.37,-0.52 2.19,0.36 4.23,1.18 6.21,2.14 2.15,1.02 4.38,1.6 7.06,1.48 z M 317.7,220.33 c 5.4,0.74 10.79,1.54 15.42,2.88 1.19,-0.93 2.18,-1.47 2.86,-2.28 1.13,-1.33 2.09,-2.8 3.04,-4.27 0.33,-0.51 0.49,-1.17 0.62,-1.78 0.29,-1.4 -0.36,-2.16 -1.8,-2.11 -0.53,0.02 -1.07,0.12 -1.58,0.27 -2.75,0.83 -5.56,1.51 -8,3.14 -0.32,0.21 -0.7,0.35 -1.06,0.48 -1.44,0.55 -2.85,0.55 -4.22,-0.26 -0.63,-0.37 -1.28,-0.7 -1.94,-1.03 -1.62,-0.81 -3.28,-0.9 -4.95,-0.21 -1.93,0.79 -3.57,1.99 -4.97,3.53 -0.24,0.27 -0.42,0.59 -0.69,0.96 1.28,0.1 2.39,0.18 3.5,0.28 1.18,0.13 2.35,0.26 3.77,0.4 z m 0.32,51.57 c 0.17,-0.41 0.3,-0.83 0.51,-1.21 1.57,-3 3.97,-4.62 7.44,-4.42 0.63,0.04 1.26,0.11 1.89,0.23 1.05,0.2 2.11,0.41 3.14,0.69 3.76,1 6.83,-0.02 9.21,-3.09 0.06,-0.08 0.13,-0.15 0.19,-0.22 2.46,-2.84 4.94,-5.66 7.37,-8.53 0.68,-0.8 1.23,-1.72 2.02,-2.84 -0.66,0.1 -1.01,0.08 -1.28,0.22 -1.14,0.56 -2.29,1.1 -3.36,1.76 -2.32,1.44 -4.59,2.96 -6.9,4.43 -2.83,1.8 -5.89,2.99 -9.2,3.63 -1.96,0.38 -3.91,0.85 -5.81,1.45 -2.5,0.79 -4.72,2.09 -6.33,4.26 -0.82,1.11 -1.2,2.33 -1.11,3.7 0.08,1.1 0.4,1.47 1.62,1.85 0.17,-0.59 0.35,-1.14 0.6,-1.91 z m 40.24,10.61 c 0.45,-0.64 0.86,-1.31 1.35,-1.91 2.08,-2.56 2.43,-5.34 1.11,-8.35 -0.68,-1.57 -0.85,-3.18 -0.42,-4.86 0.28,-1.08 0.5,-2.19 0.7,-3.29 0.17,-0.96 -0.01,-1.9 -0.64,-2.62 -0.56,-0.65 -1.26,-1.22 -2,-1.66 -1.79,-1.08 -3.64,-2.07 -5.47,-3.09 -0.11,-0.06 -0.26,-0.04 -0.58,-0.08 0,0.52 -0.09,1 0.01,1.44 0.62,2.66 1.23,5.32 1.94,7.95 0.89,3.29 2.14,6.49 2.38,9.94 0.14,1.95 0.34,3.89 0.52,5.83 0.05,0.54 0.16,1.07 0.29,1.88 0.39,-0.53 0.54,-0.77 0.81,-1.18 z m 42.46,52.52 c 0,3.27 0,6.53 0,9.61 -0.07,0.11 0.01,0.04 0.02,-0.04 0.38,-3.78 0.91,-7.55 1.11,-11.35 0.38,-7.47 0.2,-14.92 -0.73,-22.36 -0.93,-7.48 -2.5,-14.81 -5.08,-21.9 -2.13,-5.85 -4.87,-11.39 -8.68,-16.35 -0.29,-0.38 -0.55,-0.83 -1.23,-1.22 4.8,7.74 7.93,16.75 10,25.2 3.07,12.52 4.31,25.27 4.59,38.41 z M 274.05,234.09 c 2.87,-0.96 5.81,-1.5 8.96,-1.48 -0.25,-3.13 0.23,-6 1.66,-8.75 -5.92,1.89 -11.58,4.18 -16.91,7.28 1,0.85 1.87,1.55 2.7,2.3 0.99,0.9 2.07,1.24 3.59,0.65 z m 77.12,68.29 c -1.09,1.61 -2.14,3.26 -3.29,4.83 -1.13,1.54 -2.38,2.99 -3.63,4.55 0.73,0.18 1.3,0.28 1.85,0.46 0.6,0.19 1.18,0.47 1.78,0.67 1.46,0.5 2.3,0.12 2.93,-1.3 0.12,-0.27 0.22,-0.55 0.28,-0.83 0.53,-2.18 1.11,-4.35 1.55,-6.54 0.31,-1.57 0.43,-3.19 0.63,-4.78 -0.09,-0.03 -0.19,-0.06 -0.28,-0.09 -0.58,0.95 -1.14,1.9 -1.82,3.03 z"
   id="path1" />
		<path
   d="m 298.73,301.85 c 1.26,0.92 2.44,1.77 3.64,2.59 1.29,0.88 2.65,1.66 3.87,2.62 2.42,1.88 3.85,4.4 4.26,7.43 0.37,2.74 1.32,5.14 3.21,7.22 1.81,2 2.41,4.53 2.61,7.16 0.04,0.47 0.07,0.98 -0.6,1.36 -0.09,-0.34 -0.22,-0.63 -0.23,-0.91 -0.06,-2.94 -0.95,-5.56 -2.95,-7.76 -1.5,-1.65 -2.32,-3.58 -2.64,-5.76 -0.11,-0.72 -0.26,-1.44 -0.42,-2.15 -0.5,-2.21 -1.57,-4.13 -3.33,-5.54 -1.48,-1.18 -3.05,-2.28 -4.71,-3.18 -2.77,-1.5 -4.54,-3.72 -5.72,-6.59 -1.69,-4.12 -2.04,-8.41 -1.95,-12.78 0.02,-0.93 0.06,-1.85 0.11,-2.78 0.02,-0.27 0.13,-0.52 0.27,-1.06 0.26,0.44 0.47,0.64 0.49,0.85 0.04,0.48 -0.02,0.97 -0.05,1.46 -0.27,4.82 0.02,9.57 1.97,14.07 0.57,1.28 1.4,2.45 2.17,3.75 z"
   id="path2" />
		<path
   d="m 313.8,357.65 c -1.52,-3.77 -1.77,-7.5 -0.56,-11.27 0.35,-1.1 1,-2.1 1.56,-3.12 0.13,-0.23 0.46,-0.35 0.92,-0.35 -0.06,0.2 -0.09,0.43 -0.2,0.6 -2.54,3.76 -2.8,7.85 -1.52,12.05 0.56,1.85 1.43,3.63 2.34,5.34 1.57,2.96 2.96,5.99 3.13,9.36 0.12,2.32 -0.12,4.67 -0.26,7 -0.15,2.53 -0.38,5.06 0.05,7.59 0.35,2.04 1.28,3.77 2.74,5.22 0.34,0.34 0.92,0.58 0.82,1.27 -0.63,0.2 -0.93,-0.25 -1.26,-0.56 -2.3,-2.11 -3.33,-4.81 -3.34,-7.85 -0.01,-2.68 0.06,-5.38 0.37,-8.03 0.51,-4.33 -0.3,-8.34 -2.26,-12.18 -0.84,-1.65 -1.67,-3.3 -2.53,-5.07 z"
   id="path3" />
		<path
   d="m 270.95,396.14 c 7.19,2.32 14.49,2.86 21.99,2.56 -0.23,0.9 -0.81,0.86 -1.29,0.87 -1.71,0.03 -3.41,0.06 -5.12,0.01 -6.84,-0.2 -13.44,-1.55 -19.8,-4.07 -0.44,-0.17 -0.86,-0.39 -1.28,-0.59 0.24,-0.74 0.63,-0.46 0.98,-0.34 1.47,0.5 2.94,1.02 4.52,1.56 z"
   id="path4" />
		<path
   d="m 291.27,251.89 c -1.45,-1.16 -2.83,-2.24 -4.2,-3.33 -1.9,-1.51 -3.38,-3.37 -4.33,-5.61 -0.3,-0.7 -0.51,-1.43 -0.17,-2.45 0.26,0.37 0.45,0.53 0.48,0.71 0.52,2.69 2.16,4.65 4.13,6.38 0.95,0.83 2.01,1.54 3.04,2.29 1.57,1.14 2.92,2.52 3.67,4.29 0.89,2.1 1.54,4.3 2.24,6.47 0.15,0.46 0.07,1 0.09,1.54 -0.88,-0.01 -0.73,-0.59 -0.83,-0.95 -0.45,-1.54 -0.81,-3.11 -1.31,-4.63 -0.56,-1.75 -1.47,-3.3 -2.81,-4.71 z"
   id="path5" />
		<path
   d="m 245.67,381.58 c 2.94,3.74 6.51,6.64 10.55,9.1 -0.55,0.6 -0.88,0.44 -1.21,0.22 -2.35,-1.56 -4.79,-3.05 -6.69,-5.17 -2.34,-2.61 -4.53,-5.34 -6.77,-8.04 -0.56,-0.68 -0.51,-0.71 -0.53,-1.79 1.02,0.95 1.56,2.03 2.33,2.91 0.77,0.88 1.5,1.79 2.32,2.77 z"
   id="path6" />
		<path
   d="m 339.66,364.32 c -0.43,-5.88 -1.58,-11.42 -4.59,-16.44 -1.78,-2.97 -2.15,-6.14 -1.06,-9.42 0.74,-2.22 1.61,-4.38 2.43,-6.57 0.28,-0.75 0.59,-1.49 0.93,-2.34 0.74,0.6 0.47,1.19 0.24,1.76 -0.54,1.31 -1.17,2.58 -1.63,3.91 -0.59,1.7 -1.14,3.42 -1.55,5.17 -0.42,1.79 -0.23,3.59 0.51,5.3 0.29,0.67 0.6,1.34 0.96,1.97 3.59,6.14 4.6,12.87 4.61,19.83 0,0.64 -0.01,0.64 -0.63,1.41 -0.07,-1.61 -0.14,-3.03 -0.22,-4.58 z"
   id="path7" />
		<path
   d="m 385.43,364.62 c 2.46,-3.68 4.7,-7.35 5.74,-11.72 0.77,0.46 0.57,0.99 0.44,1.4 -0.32,1.07 -0.65,2.15 -1.11,3.16 -1.83,4.01 -4.23,7.66 -7.11,11 -0.47,0.55 -0.49,0.54 -1.38,0.75 0.26,-1.05 1.18,-1.53 1.69,-2.29 0.52,-0.76 1.11,-1.47 1.73,-2.3 z"
   id="path8" />
		<path
   d="m 355.29,312.05 c 0.15,0.1 0.26,0.19 0.24,0.26 -0.52,2.58 -3.12,5.23 -5.7,5.63 -0.98,0.15 -2.07,0.15 -3.02,-0.12 -1.68,-0.48 -2.96,-0.26 -3.87,1.32 -0.06,0.1 -0.23,0.14 -0.5,0.29 -0.05,-0.32 -0.18,-0.6 -0.1,-0.79 0.55,-1.27 1.91,-2.04 3.31,-1.9 0.38,0.04 0.76,0.16 1.14,0.25 3,0.75 5.21,-0.1 6.92,-2.68 0.51,-0.75 0.99,-1.52 1.58,-2.26 z"
   id="path9" />
		<path
   d="m 360.61,286.55 c -1.68,3.99 -3.15,7.93 -3.02,12.31 -0.15,-0.01 -0.31,-0.02 -0.46,-0.03 -0.09,-0.27 -0.28,-0.56 -0.25,-0.82 0.19,-1.74 0.24,-3.52 0.69,-5.2 0.62,-2.3 1.54,-4.52 2.35,-6.76 0.16,-0.43 0.44,-0.81 0.73,-1.33 0.69,0.75 0.13,1.23 -0.04,1.83 z"
   id="path10" />
		<path
   d="m 344.57,240.16 c 0.45,0.79 0.85,1.49 1.31,2.29 -1.02,-0.16 -1.33,-0.47 -2.18,-2.32 -0.45,-0.97 -0.85,-1.97 -1.14,-2.99 -0.79,-2.81 -0.24,-5.91 1.37,-7.21 0.01,1.32 -0.79,2.3 -0.79,3.41 0,1.16 -0.03,2.34 0.2,3.46 0.24,1.11 0.78,2.17 1.23,3.36 z"
   id="path11" />
		<path
   d="m 334.15,370.77 c 0.64,5.21 0.65,10.25 -0.76,15.22 -0.24,0.84 -0.52,1.67 -0.85,2.49 -0.12,0.31 -0.41,0.56 -0.8,0.76 1.22,-3.95 2,-7.9 2,-12.02 0,-4.05 -0.59,-8.01 -1.61,-12.1 1.1,0.59 1.37,1.43 2.02,5.65 z"
   id="path12" />
		<path
   d="m 317.77,236.5 c 0.37,0.29 0.85,0.4 0.56,1.01 -1.21,-0.4 -2.4,-0.92 -3.65,-1.15 -1.23,-0.23 -2.54,-0.32 -3.77,-0.17 -1.25,0.15 -2.46,0.66 -3.76,1.04 -0.05,-0.73 0.48,-0.86 0.88,-1.05 1.77,-0.85 3.66,-1.09 5.57,-0.81 1.38,0.19 2.72,0.7 4.17,1.13 z"
   id="path13" />
	</g>
</g>
</svg>
