<?xml version="1.0" encoding="UTF-8" standalone="no"?>
<!-- Generator: Adobe Adobe Illustrator 24.2.0, SVG Export Plug-In . SVG Version: 6.00 Build 0)  -->

<svg
   version="1.1"
   id="Layer_1"
   x="0px"
   y="0px"
   width="233.38425"
   height="192.44994"
   viewBox="0 0 233.38425 192.44994"
   xml:space="preserve"
   sodipodi:docname="tomate.svg"
   inkscape:version="1.4 (e7c3feb1, 2024-10-09)"
   xmlns:inkscape="http://www.inkscape.org/namespaces/inkscape"
   xmlns:sodipodi="http://sodipodi.sourceforge.net/DTD/sodipodi-0.dtd"
   xmlns="http://www.w3.org/2000/svg"
   xmlns:svg="http://www.w3.org/2000/svg"><defs
   id="defs19" /><sodipodi:namedview
   id="namedview19"
   pagecolor="#ffffff"
   bordercolor="#000000"
   borderopacity="0.25"
   inkscape:showpageshadow="2"
   inkscape:pageopacity="0.0"
   inkscape:pagecheckerboard="0"
   inkscape:deskcolor="#d1d1d1"
   inkscape:zoom="1.6816667"
   inkscape:cx="86.223984"
   inkscape:cy="103.17146"
   inkscape:window-width="1200"
   inkscape:window-height="1186"
   inkscape:window-x="0"
   inkscape:window-y="0"
   inkscape:window-maximized="0"
   inkscape:current-layer="Layer_1" />
<g
   id="g19"
   transform="translate(-213.18191,-197.12512)">
	<g
   id="g18">
		<path
   d="m 320.85,212.93 c 3.44,0.78 6.76,1.55 10.21,2.34 0.37,-1.75 0.8,-3.65 1.17,-5.55 0.54,-2.78 1.02,-5.57 1.56,-8.34 0.1,-0.51 -0.05,-1.35 0.82,-1.29 0.74,0.05 0.56,0.78 0.64,1.28 0.78,5.23 1.06,10.48 0.78,15.76 -0.01,0.24 0.03,0.48 0.06,0.76 9.66,5.54 16.23,13.44 18.57,24.73 7.14,-1.43 14.27,-0.77 21.49,-0.22 -0.25,-1.46 -0.51,-2.78 -0.7,-4.11 -0.3,-2.15 -0.19,-4.28 0.31,-6.4 0.06,-0.24 0.11,-0.48 0.21,-0.7 0.25,-0.56 0.36,-1.34 1.21,-1.24 0.76,0.09 0.74,0.81 0.85,1.37 0.8,4.22 2.66,7.93 5.42,11.2 0.13,0.15 0.25,0.3 0.38,0.44 0.06,0.07 0.16,0.1 0.34,0.2 0.23,-0.16 0.53,-0.31 0.77,-0.53 1.97,-1.8 4.31,-3.02 6.63,-4.26 1.88,-1.01 3.91,-1.49 6.06,-1.44 1.89,0.04 3.38,0.84 4.44,2.41 0.46,0.68 0.9,1.37 1.47,2.23 0.81,-1.04 1.6,-1.9 2.22,-2.87 1.66,-2.59 3.24,-5.23 4.39,-8.1 0.14,-0.36 0.28,-0.75 0.52,-1.04 0.19,-0.23 0.56,-0.48 0.8,-0.43 0.21,0.04 0.42,0.45 0.5,0.73 0.08,0.26 -0.01,0.58 -0.02,0.87 -0.2,3.62 -0.82,7.17 -1.94,10.63 -0.21,0.64 -0.35,1.29 -0.54,2 1.51,0.11 2.87,0.16 4.22,0.33 5.12,0.63 9.91,2.19 14.05,5.36 0.67,0.51 1.22,0.56 2,0.32 2.73,-0.84 5.53,-1.21 8.38,-0.65 0.52,0.1 1.07,0.22 1.53,0.47 0.3,0.16 0.64,0.57 0.63,0.86 -0.01,0.27 -0.39,0.64 -0.7,0.78 -0.52,0.24 -1.12,0.32 -1.68,0.51 -1.61,0.55 -3.21,1.11 -4.86,1.69 14.3,16.92 17.36,35.42 8.71,55.72 -10,19.72 -26.17,29.23 -48.25,29.14 -0.08,1.39 -0.13,2.84 -0.24,4.29 -0.8,10.72 -5.04,19.98 -12.12,27.96 -8.28,9.31 -18.66,15.12 -30.77,17.85 -12.5,2.81 -24.75,1.94 -36.59,-3.06 -10.53,-4.46 -18.87,-11.5 -24.41,-21.62 -1.21,-2.22 -2.07,-4.62 -3.09,-6.94 -0.11,-0.26 -0.22,-0.52 -0.37,-0.89 -0.58,0.24 -1.12,0.44 -1.64,0.66 -7.82,3.34 -15.98,4.79 -24.45,4.15 -21.29,-1.62 -37.86,-15.53 -43.86,-34.16 -5.37,-16.68 -2.88,-32.46 6.82,-46.95 8.12,-12.13 19.5,-19.76 33.81,-22.88 1.15,-0.25 1.7,-0.74 2.06,-1.85 0.75,-2.32 1.78,-4.54 2.53,-6.86 0.57,-1.75 0.89,-3.59 1.32,-5.39 0.03,-0.14 -0.02,-0.33 0.06,-0.43 0.22,-0.28 0.45,-0.62 0.76,-0.73 0.14,-0.05 0.59,0.35 0.66,0.61 0.35,1.22 0.68,2.45 0.89,3.69 0.46,2.77 0.17,5.55 -0.17,8.31 -0.09,0.72 -0.13,1.44 -0.2,2.29 1.89,0.18 3.66,0.35 5.6,0.54 -1.32,-7.62 -0.02,-14.69 3.42,-21.52 -0.99,-0.45 -1.88,-0.84 -2.74,-1.26 -1.1,-0.53 -2.2,-1.06 -3.27,-1.65 -0.49,-0.27 -1.17,-0.52 -1.05,-1.25 0.12,-0.73 0.83,-0.71 1.4,-0.81 2.72,-0.46 5.43,-0.59 8.12,0.19 0.13,0.04 0.29,0 0.55,0 5.67,-7.5 13.21,-12.49 22.08,-15.44 0.05,-0.18 0.11,-0.29 0.09,-0.36 -1.39,-3.97 -3.02,-7.83 -5.04,-11.51 -0.63,-1.14 -1.53,-2.13 -2.33,-3.17 -0.42,-0.54 -0.92,-1.02 -1.31,-1.57 -0.13,-0.18 -0.14,-0.61 -0.01,-0.77 0.14,-0.17 0.58,-0.3 0.76,-0.2 0.65,0.33 1.28,0.71 1.85,1.15 4.37,3.41 8.42,7.13 11.45,11.83 0.61,0.94 1.24,1.86 1.91,2.85 4.92,-0.7 9.83,-0.83 14.87,-0.06 z m 55.9,159.86 c 3.7,-3.46 6.89,-7.34 9.35,-11.77 6.89,-12.39 8.13,-25.26 2.61,-38.43 -4.77,-11.39 -13.31,-19.19 -24.41,-24.32 -0.12,-0.06 -0.28,-0.04 -0.42,-0.05 -2.71,2.27 -5.81,3.59 -9.31,3.87 -1.87,0.15 -3.67,0.45 -5.41,1.17 -1.53,0.64 -3.14,0.75 -4.75,0.44 -2.08,-0.41 -4.07,-0.12 -6.04,0.57 -0.87,0.3 -1.77,0.55 -2.65,0.83 -1.44,0.46 -2.89,0.5 -4.33,0.08 -1.64,-0.48 -3.26,-1.01 -4.87,-1.56 -4.54,-1.55 -9.16,-2.73 -14,-2.78 -0.56,-0.01 -1.2,0.08 -1.67,0.35 -8.32,4.83 -15.11,11.24 -19.76,19.72 -6.51,11.87 -7.72,24.24 -2.79,36.97 3.77,9.73 10.45,17.1 19.35,22.42 11.45,6.84 23.87,9.11 37.03,7.37 12.15,-1.6 22.83,-6.46 32.07,-14.88 z M 284.32,291.3 c -0.63,0.07 -1.27,0.09 -1.88,0.23 -3.21,0.7 -5.68,3.48 -5.9,6.63 -0.06,0.87 -0.04,1.75 -0.03,2.63 0.02,1.85 0.04,3.71 0.08,5.56 0.05,2.44 -0.02,4.89 0.23,7.3 0.46,4.41 1.11,8.8 1.69,13.2 0.07,0.54 0.19,1.22 -0.43,1.39 -0.42,0.11 -1.09,-0.11 -1.42,-0.42 -0.96,-0.89 -1.89,-1.85 -2.67,-2.89 -3.03,-4.03 -4.37,-8.67 -4.72,-13.64 -0.45,-6.42 -0.83,-12.85 -1.28,-19.27 -0.19,-2.68 -0.49,-5.35 -2.13,-7.65 -2.67,-3.72 -4.48,-7.88 -6.05,-12.15 -1.71,-4.66 -2.95,-9.41 -2.06,-14.46 0.01,-0.08 -0.06,-0.17 -0.15,-0.4 -0.91,0.2 -1.85,0.37 -2.78,0.61 -25.36,6.5 -41.78,30.48 -40.12,54.99 0.54,8.04 2.76,15.54 6.88,22.45 13,21.81 40.06,29.67 63.28,19.09 0.25,-0.11 0.47,-0.31 0.69,-0.47 -0.09,-0.4 -0.15,-0.74 -0.23,-1.07 -2.42,-9.99 -1.45,-19.68 2.75,-29.02 4.11,-9.15 10.59,-16.31 18.86,-21.9 0.37,-0.25 0.72,-0.53 1.08,-0.79 -0.04,-0.09 -0.09,-0.18 -0.13,-0.28 -3,0.32 -6,0.63 -9,0.96 -1.79,0.2 -3.58,0.45 -5.38,0.59 -0.35,0.03 -0.89,-0.23 -1.07,-0.53 -0.29,-0.48 0.17,-0.78 0.57,-1 0.3,-0.17 0.62,-0.29 0.91,-0.47 1.53,-0.91 3.05,-1.83 4.72,-2.84 -4.35,-3.24 -8.61,-6.11 -14.31,-6.38 z m 80.11,-31.24 c -0.37,-0.11 -0.76,-0.2 -1.12,-0.35 -0.5,-0.2 -1.14,-0.44 -0.91,-1.09 0.12,-0.34 0.71,-0.53 1.1,-0.76 0.11,-0.07 0.29,-0.03 0.43,-0.05 1.74,-0.25 3.48,-0.49 5.21,-0.76 5.06,-0.79 10.1,-1.74 15.26,-1.68 0.17,0 0.34,-0.1 0.56,-0.16 -0.65,-1.13 -1.24,-2.19 -1.89,-3.21 -0.17,-0.26 -0.51,-0.48 -0.81,-0.57 -2.84,-0.89 -5.67,-1.78 -8.54,-2.58 -0.49,-0.14 -1.19,0.01 -1.65,0.27 -4.64,2.7 -9.25,5.46 -13.86,8.2 -0.24,0.14 -0.45,0.35 -0.71,0.55 0.13,0.6 0.26,1.17 0.36,1.74 0.45,2.45 0.86,4.91 0.61,7.42 -0.22,2.23 -0.45,4.47 -0.76,6.69 -0.95,6.78 -2.49,13.42 -4.9,19.85 -0.15,0.39 -0.26,0.8 -0.44,1.38 2.41,-0.64 4.54,-1.4 6.47,-2.65 2.09,-1.36 4.13,-2.79 6.2,-4.17 1.64,-1.1 2.75,-2.63 3.55,-4.39 0.84,-1.87 0.76,-3.75 -0.61,-5.36 -0.85,-0.99 -1.88,-1.83 -2.84,-2.73 -0.78,-0.73 -1.57,-1.45 -2.34,-2.19 -0.32,-0.31 -0.66,-0.78 -0.25,-1.13 0.25,-0.21 0.79,-0.09 1.21,-0.1 0.09,0 0.18,0.08 0.26,0.12 1.72,0.81 3.46,1.59 5.16,2.44 1.81,0.91 3.36,2.14 4.54,3.83 1.12,1.6 1.33,3.31 0.83,5.16 -0.4,1.48 -1.11,2.83 -2.08,4 -2.01,2.45 -4.08,4.86 -6.13,7.28 -0.52,0.61 -1.03,1.22 -1.58,1.86 16.55,8.17 26.77,20.76 28.65,39.33 18.11,1.7 39.46,-8.67 48.28,-30.74 8.09,-20.26 1.13,-41.05 -10.23,-51.63 -3.67,1.89 -7.32,3.85 -11.05,5.65 -3.72,1.8 -7.77,2.64 -11.9,3.63 0.42,0.61 0.69,1 0.96,1.4 3.31,4.82 6.05,9.91 7.35,15.68 0.44,1.96 0.13,2.65 -1.69,3.47 -0.27,0.12 -0.54,0.24 -0.81,0.33 -2.48,0.83 -4.78,-0.16 -5.76,-2.58 -0.47,-1.17 -0.79,-2.4 -1.12,-3.62 -0.59,-2.21 -1,-4.48 -1.72,-6.65 -1.11,-3.37 -3.47,-5.96 -5.84,-8.5 -0.25,-0.27 -0.56,-0.47 -0.94,-0.79 -0.67,1.04 -1.28,1.98 -1.88,2.92 -2.56,3.98 -5.05,8.01 -7.69,11.94 -2.66,3.94 -6.12,7.07 -10.17,9.56 -0.25,0.15 -0.49,0.37 -0.76,0.42 -0.25,0.04 -0.63,-0.01 -0.78,-0.18 -0.14,-0.16 -0.15,-0.56 -0.04,-0.77 0.24,-0.47 0.56,-0.91 0.89,-1.34 4.13,-5.29 7.17,-11.15 9.17,-17.55 0.61,-1.94 1.14,-3.91 1.73,-5.95 -0.39,-0.04 -0.63,-0.11 -0.86,-0.09 -4.77,0.34 -9.54,0.61 -14.33,0.27 -3.18,-0.24 -6.42,-0.1 -9.79,-1.07 z M 340,274.57 c 0.54,-3.13 1.82,-5.97 3.49,-8.63 2.89,-4.6 6.22,-8.87 9.76,-12.98 0.34,-0.4 0.79,-0.84 0.85,-1.31 0.11,-0.94 -0.01,-1.91 -0.04,-2.97 -7.42,-0.13 -14.59,0.27 -21.88,2.75 3.98,2.34 7.63,4.48 11.69,5.8 0.42,0.13 0.87,0.19 1.25,0.39 0.21,0.11 0.37,0.44 0.4,0.69 0.01,0.13 -0.29,0.39 -0.49,0.43 -0.32,0.08 -0.68,0.04 -1.02,0.03 -1.71,-0.09 -3.41,-0.26 -5.12,-0.26 -4.93,-0.02 -9.36,-1.73 -13.62,-3.97 -0.54,-0.28 -0.95,-0.37 -1.49,-0.1 -1.13,0.58 -2.31,1.06 -3.41,1.69 -2.5,1.42 -4.96,2.9 -7.47,4.37 0.3,2.75 -0.32,5.31 -1.03,7.86 -0.44,1.6 -0.82,3.21 -1.18,4.83 -0.45,2.06 -0.55,4.15 -0.29,6.26 0.07,0.56 0.4,1.26 -0.28,1.58 -0.74,0.34 -0.99,-0.44 -1.31,-0.87 -2.96,-4.06 -3.43,-8.6 -2.55,-13.39 0.11,-0.58 0.18,-1.17 0.26,-1.76 -0.1,-0.05 -0.2,-0.1 -0.3,-0.15 -2.78,2.16 -5.56,4.32 -8.39,6.52 3.82,3.56 7.49,7 10.12,11.36 0.31,0.51 0.78,0.52 1.27,0.5 2.78,-0.13 5.57,-0.11 8.32,-0.43 5.78,-0.67 11.11,0.3 15.71,4.02 1.7,1.38 3.21,2.99 4.78,4.52 0.65,0.63 1.24,1.32 1.89,2.02 0.12,-0.25 0.19,-0.33 0.19,-0.41 -0.11,-3.46 -0.28,-6.92 -0.33,-10.39 -0.01,-2.58 0.11,-5.16 0.22,-8 z m 67.45,-2.72 c 0.4,1.76 0.79,3.52 1.22,5.27 0.28,1.13 0.55,2.28 0.95,3.37 0.89,2.44 2.63,3.1 5.01,1.99 1.16,-0.54 1.19,-0.66 0.93,-1.9 -0.88,-4.26 -2.7,-8.14 -4.93,-11.83 -4.14,-6.84 -9.71,-12.46 -15.63,-17.72 -3.24,-2.88 -7.19,-4.65 -11.39,-5.81 -4.59,-1.26 -9.3,-1.73 -14.03,-1.97 -3.85,-0.2 -7.71,-0.3 -11.55,0.2 -1.6,0.21 -3.18,0.48 -4.78,0.67 -3.83,0.44 -7.67,0.77 -11.49,1.28 -5.87,0.78 -11.56,2.36 -17.24,3.96 -3.38,0.95 -6.66,2.2 -9.71,4.03 -3.14,1.88 -6.31,3.71 -9.5,5.51 -4.99,2.81 -9.81,5.84 -13.83,10.01 -0.67,0.7 -1.45,1.31 -2.23,1.89 -4.04,2.99 -8.09,5.96 -12.13,8.94 -0.75,0.55 -1.48,1.12 -2.19,1.72 -1.14,0.97 -1.31,1.72 -0.7,3.1 0.2,0.44 0.47,0.86 0.76,1.24 0.93,1.22 1.42,1.37 2.71,0.55 1.31,-0.84 2.58,-1.77 3.77,-2.77 4.9,-4.11 9.74,-8.29 14.64,-12.39 5.1,-4.26 10.32,-8.36 16.04,-11.76 3.27,-1.95 6.5,-3.99 9.92,-5.63 11.41,-5.48 23.49,-7.29 36.05,-6.18 0.3,0.03 0.74,0.19 0.83,0.42 0.1,0.22 -0.08,0.65 -0.27,0.89 -0.55,0.68 -1.17,1.31 -1.76,1.96 -4.52,4.88 -8.67,10.05 -12.25,15.67 -2.47,3.87 -3.88,8.06 -3.7,12.73 0.15,4.05 0.21,8.1 0.33,12.15 0.07,2.37 0.68,4.61 1.59,6.85 1.1,-0.58 2.17,-1.14 3.21,-1.69 -0.15,-3.28 -0.2,-6.5 -0.45,-9.7 -0.38,-4.98 -0.27,-9.94 0.33,-14.9 0.19,-1.58 0.59,-3.05 1.55,-4.36 2.71,-3.7 5.35,-7.45 8.11,-11.11 1.79,-2.38 3.73,-4.64 5.62,-6.94 1.45,-1.78 3.38,-2.57 5.64,-2.64 0.63,-0.02 1.27,0 1.9,0.03 3.93,0.19 7.69,1.13 11.43,2.32 7.68,2.44 14.51,6.2 20.15,12.02 2.96,3 5.61,6.22 7.07,10.53 z m -72.9,-52.05 c 0.6,-4.6 0.33,-12.2 -0.25,-13.95 -0.43,2.11 -0.82,4 -1.2,5.9 -1.04,5.11 -2.05,10.21 -4.27,15.01 -1.44,3.12 -3.47,5.62 -6.27,7.54 -1.02,0.7 -2.12,0.97 -3.33,0.75 -2.15,-0.4 -4.03,-1.38 -5.25,-3.18 -1.28,-1.89 -2.39,-3.91 -3.38,-5.96 -1.44,-2.98 -2.64,-6.09 -4.08,-9.07 -2.64,-5.46 -6.15,-10.29 -10.74,-14.3 -0.27,-0.24 -0.57,-0.44 -0.86,-0.66 -0.08,0.32 0.01,0.54 0.1,0.74 1.53,3.48 3.15,6.93 4.56,10.45 1.01,2.53 1.61,5.22 2.62,7.76 2.07,5.19 3.08,10.68 4.67,16 0.55,1.83 -0.12,2.98 -2.01,3.31 -1.08,0.19 -2.23,0.06 -3.34,-0.03 -1.41,-0.11 -2.81,-0.41 -4.21,-0.47 -3.85,-0.16 -7.4,-1.2 -10.57,-3.42 -2.21,-1.55 -4.58,-2.77 -7.14,-3.64 -2.92,-0.98 -5.84,-1.96 -8.99,-1.67 -0.53,0.05 -1.05,0.17 -1.58,0.25 0.58,0.54 1.13,0.85 1.71,1.1 3.51,1.51 6.85,3.32 10.04,5.4 2.95,1.93 6.08,3.5 9.25,5.02 4.32,2.06 8.9,2.46 13.55,2.4 2.38,-0.03 4.76,-0.39 7.13,-0.63 0.51,-0.05 0.98,-0.09 1.33,0.35 0.41,0.51 0.19,1.02 -0.05,1.51 -0.13,0.26 -0.29,0.52 -0.49,0.72 -1.78,1.75 -2.55,4.02 -3.2,6.32 -0.2,0.71 -0.49,1.48 -0.06,2.42 1.23,-0.71 2.39,-1.41 3.57,-2.04 0.64,-0.34 0.86,-0.8 0.86,-1.52 0,-1.31 0.08,-2.63 0.17,-3.94 0.03,-0.54 0.13,-1.2 0.77,-1.25 0.4,-0.03 0.93,0.26 1.23,0.57 0.75,0.76 1.41,1.61 2.09,2.45 0.48,0.59 0.87,0.47 1.36,-0.18 -0.48,-0.8 -0.9,-1.69 -1.49,-2.44 -1.14,-1.46 -2.38,-2.84 -3.59,-4.24 -0.38,-0.44 -0.82,-0.84 -1.15,-1.32 -0.56,-0.82 -0.48,-1.43 0.31,-2.03 0.54,-0.41 1.14,-0.76 1.75,-1.06 1.9,-0.93 2.73,-0.8 4.04,0.91 0.86,1.11 1.55,2.36 2.2,3.61 0.87,1.67 1.64,3.4 2.48,5.18 0.94,-0.3 1.84,-0.59 2.84,-0.91 -1.87,-3.28 -1.22,-6.17 0.73,-8.93 0.53,-0.76 1.01,-1.55 1.54,-2.32 2.79,-4.06 5.04,-8.35 5.95,-13.25 0.17,-1.01 0.4,-2.01 0.65,-3.26 z m -65.46,71.15 c 0.24,3.36 0.47,6.71 0.72,10.07 0.29,3.99 0.51,7.99 0.92,11.96 0.5,4.83 2.27,9.16 5.57,12.79 0.2,0.22 0.48,0.36 0.96,0.71 -0.3,-2.56 -0.44,-4.86 -0.86,-7.1 -0.85,-4.53 -1.29,-9.07 -1.05,-13.68 0.08,-1.51 -0.08,-3.02 -0.1,-4.53 -0.01,-1.07 0.04,-2.14 0.04,-3.21 0.02,-4.68 5.33,-8.02 8.86,-7.9 3.99,0.13 7.54,1.43 10.81,3.61 1.62,1.08 3.2,2.21 4.87,3.37 1.13,-0.48 2.33,-0.99 3.69,-1.57 -0.6,-0.51 -1.11,-0.96 -1.64,-1.37 -3.21,-2.5 -6.7,-4.55 -10.31,-6.39 -1.38,-0.7 -2.87,-1.24 -4.36,-1.68 -1.76,-0.52 -1.88,-0.69 -0.64,-2.13 1.46,-1.71 2.58,-3.6 3.54,-5.95 -0.46,0.37 -0.69,0.53 -0.9,0.71 -2.25,1.95 -4.48,3.92 -6.76,5.83 -1.23,1.03 -2.52,2.02 -3.87,2.88 -2.09,1.32 -3.29,1.05 -4.74,-0.93 -0.37,-0.51 -0.69,-1.07 -0.92,-1.65 -0.7,-1.79 -0.36,-3.06 1.08,-4.31 0.48,-0.41 1.02,-0.77 1.46,-1.21 0.24,-0.25 0.5,-0.65 0.48,-0.96 -0.2,-3.14 0.65,-6.08 1.62,-9.01 0.94,-2.86 1.21,-5.83 0.85,-8.82 -0.48,-4.02 -1.05,-8.03 -1.65,-12.03 -0.27,-1.8 -0.71,-3.58 -1.07,-5.37 -0.21,0.28 -0.23,0.53 -0.2,0.76 0.77,6.19 0.48,12.35 -0.26,18.53 -0.62,5.19 -2.8,9.95 -3.75,15.03 -0.13,0.68 -0.64,0.79 -1.21,0.33 -0.23,-0.18 -0.4,-0.42 -0.6,-0.64 -2.14,-2.32 -3.73,-5 -5.1,-7.82 -0.4,-0.82 -0.68,-1.73 -0.87,-2.63 -0.81,-3.85 -0.85,-7.73 -0.48,-11.65 0.27,-2.81 0.32,-5.64 0.45,-8.47 0.01,-0.33 -0.11,-0.67 -0.21,-1.22 -1.31,3.5 -2.6,6.71 -3.72,9.98 -0.87,2.56 -1.26,5.21 -0.88,7.93 0.98,6.93 3.58,13.28 7.3,19.13 1.68,2.64 2.6,5.34 2.93,8.61 z m 14.15,-50.21 c -2.8,-1.74 -5.52,-3.62 -8.57,-5.09 -0.24,0.48 -0.4,0.82 -0.46,0.94 0.54,0.77 1.06,1.35 1.39,2.02 0.4,0.83 0.69,1.72 0.94,2.61 1.07,3.71 1.59,7.53 2.08,11.35 0.28,2.21 0.67,4.42 0.99,6.55 4.16,1.72 7.84,3.96 11.48,6.72 0.56,-2.04 1.16,-3.84 1.54,-5.69 0.63,-3.15 1.12,-6.33 1.67,-9.5 0.08,-0.49 0.15,-1.02 0.79,-1.06 0.68,-0.05 0.91,0.46 1.06,1 0.05,0.19 0.09,0.38 0.1,0.58 0.12,2.43 0.31,4.86 0.34,7.3 0.02,1.42 -0.21,2.84 -0.34,4.34 3.66,-2.21 7.19,-4.34 10.63,-6.43 -0.11,-4.01 1.28,-7.39 3.94,-10.64 -1.37,0.09 -2.42,0.16 -3.47,0.22 -2.04,0.13 -4.08,0.32 -6.12,0.37 -1.16,0.03 -2.34,-0.12 -3.5,-0.28 -1.4,-0.18 -2.82,-0.32 -4.16,-0.72 -3.55,-1.07 -6.88,-2.7 -10.33,-4.59 z m 42.8,1.18 c -0.61,1.94 -0.33,3.71 0.95,5.41 8.59,-2.56 17.35,-3.74 26.33,-4.56 -1.06,-5.86 -3.57,-10.88 -7.35,-15.29 -3.09,-3.61 -8.15,-7.54 -10.15,-7.89 -0.84,6.18 -2.89,11.91 -6.55,17.01 -0.62,0.87 -1.22,1.76 -1.79,2.68 -0.49,0.79 -0.92,1.61 -1.44,2.64 z m -0.61,45.97 c 3.56,1.71 6.66,4.05 9.4,6.88 1.07,1.1 1.93,2.33 2.46,3.77 0.17,0.47 0.19,1 0.3,1.65 -0.61,0.05 -1.04,0.15 -1.45,0.1 -2.02,-0.28 -4.1,-0.38 -6.04,-0.95 -4.6,-1.35 -9.26,-2.31 -14,-3.03 -6.61,-1.01 -12.84,-0.23 -18.51,3.56 -0.39,0.26 -0.77,0.53 -1.41,0.97 0.59,0 0.87,0.02 1.13,0 4.08,-0.4 8.15,-0.79 12.22,-1.23 3.44,-0.38 6.8,0.1 10.17,0.76 3.42,0.66 6.69,1.76 9.93,2.99 2.65,1.01 5.23,0.94 7.82,-0.15 2.4,-1.01 4.9,-1.16 7.47,-0.8 0.99,0.14 2.1,0.15 3.02,-0.17 2.28,-0.79 4.56,-1.41 6.97,-1.49 0.44,-0.02 0.87,-0.11 1.3,-0.21 2.58,-0.64 5.04,-1.53 6.87,-3.6 1.13,-1.28 2.25,-2.57 3.34,-3.87 1.69,-2.02 3.38,-4.05 5.02,-6.1 0.92,-1.15 1.58,-2.45 1.94,-3.9 0.24,-0.99 0.19,-1.95 -0.28,-2.85 -1.23,-2.34 -3.24,-3.75 -5.66,-4.64 0.48,0.69 1.04,1.29 1.55,1.94 1.74,2.18 1.82,4.59 0.7,7.02 -0.89,1.92 -2.18,3.58 -3.99,4.77 -1.35,0.88 -2.7,1.76 -3.99,2.72 -3.31,2.47 -7.07,3.93 -11.05,4.81 -2.69,0.59 -5.31,1.21 -7.6,2.85 -0.79,0.56 -1.26,0.32 -1.4,-0.67 -0.23,-1.65 -0.9,-2.98 -2.14,-4.15 -1.67,-1.57 -3.09,-3.39 -4.71,-5.01 -5.54,-5.5 -12.17,-7.02 -19.78,-5.22 3.54,0.81 7,1.57 10.4,3.25 z m -21.19,-55.85 c -1.17,-5.43 -3.24,-10.59 -4.87,-15.83 -5.29,0.03 -19.43,9.72 -21.29,14.51 0.27,0.1 0.53,0.22 0.81,0.31 2.92,0.99 5.76,2.12 8.26,3.98 0.47,0.35 0.99,0.63 1.49,0.93 2.21,1.33 4.58,2.1 7.16,2.31 2.23,0.18 4.45,0.52 6.68,0.75 0.67,0.07 1.38,0.09 2.03,-0.05 1.19,-0.25 1.42,-0.7 1.11,-1.88 -0.42,-1.61 -0.87,-3.2 -1.38,-5.03 z m 19.87,-17.26 c -5.72,-1.22 -11.47,-1.53 -17.34,-0.57 0.08,0.26 0.11,0.45 0.19,0.62 1.69,3.78 3.34,7.58 5.11,11.33 0.76,1.62 1.71,3.17 2.68,4.69 0.9,1.41 2.3,2.23 3.85,2.77 1.05,0.37 2.12,0.39 3.09,-0.27 2.35,-1.58 4.34,-3.49 5.5,-6.12 0.85,-1.92 1.69,-3.84 2.39,-5.81 0.51,-1.45 0.79,-2.98 1.18,-4.51 -2.18,-1 -4.3,-1.52 -6.65,-2.13 z m -28.16,73.89 c 3.01,1.73 5.92,3.6 8.5,5.95 0.45,0.41 0.88,0.49 1.46,0.42 1.6,-0.18 3.2,-0.29 4.81,-0.44 0.32,-0.03 0.63,-0.08 0.99,-0.12 -0.02,-0.31 -0.02,-0.5 -0.05,-0.68 -0.55,-2.6 -1.64,-4.99 -2.9,-7.32 -0.46,-0.85 -1.02,-1.34 -2.02,-1.39 -1.12,-0.05 -2.23,-0.2 -3.34,-0.38 -0.26,-0.04 -0.55,-0.36 -0.65,-0.62 -0.05,-0.13 0.26,-0.5 0.49,-0.61 0.29,-0.14 0.66,-0.14 1,-0.17 0.71,-0.06 1.42,-0.11 2.39,-0.17 -2.67,-4.32 -6.09,-7.64 -9.68,-10.89 -1.58,1.3 -3.03,2.45 -4.43,3.66 -0.31,0.26 -0.48,0.72 -0.64,1.11 -0.93,2.37 -2.05,4.63 -3.57,6.69 -0.22,0.3 -0.41,0.62 -0.69,1.06 2.98,0.85 5.58,2.28 8.33,3.9 z m 17.79,6.05 c 3.46,0.55 6.95,0.98 10.38,1.69 2.81,0.58 5.54,1.52 8.32,2.23 1.15,0.3 2.33,0.57 3.67,0.32 -0.43,-1.27 -1.13,-2.26 -2,-3.1 -1.15,-1.12 -2.32,-2.23 -3.58,-3.23 -5.93,-4.66 -12.84,-6.59 -20.22,-7.16 -0.11,-0.01 -0.24,0.11 -0.43,0.2 0.11,0.25 0.19,0.47 0.3,0.68 1.28,2.37 2.31,4.83 2.83,7.49 0.06,0.3 0.32,0.56 0.73,0.88 z m 76.05,-30.18 c -1.73,6.57 -4.57,12.65 -8.24,18.38 0.57,-0.29 1.02,-0.65 1.46,-1.03 2.6,-2.26 4.76,-4.88 6.63,-7.77 2.62,-4.06 5.23,-8.12 7.83,-12.18 0.2,-0.31 0.38,-0.64 0.67,-1.13 -1.93,-1.51 -3.79,-3 -5.69,-4.43 -0.3,-0.23 -0.8,-0.31 -1.2,-0.28 -2.04,0.14 -4.07,0.37 -6.11,0.51 -1.46,0.1 -2.94,0.01 -4.38,0.19 -4.59,0.59 -9.17,1.27 -13.75,1.93 -0.2,0.03 -0.4,0.14 -0.59,0.22 0.82,0.37 1.62,0.54 2.43,0.59 5.36,0.32 10.72,0.56 16.08,0.26 1.41,-0.08 2.82,-0.19 4.23,-0.27 1.87,-0.1 2.04,0.13 1.53,1.98 -0.27,0.93 -0.55,1.87 -0.9,3.03 z m 28.78,-18.52 c -3.1,-0.9 -6.24,-1.49 -9.35,-1.31 -1.57,3.7 -3.08,7.28 -4.63,10.94 7.74,-0.44 14.86,-3.28 22.43,-5.43 -2.63,-2.03 -5.3,-3.34 -8.45,-4.2 z m -63.42,15.77 c -0.12,1.84 -0.17,3.7 -0.38,5.53 -0.49,4.18 -1.64,8.22 -2.82,12.24 -0.82,2.8 -2.34,5.24 -4.12,7.53 -0.32,0.41 -0.72,0.92 -0.71,1.38 0.04,2.52 0.19,5.04 0.31,7.72 0.99,-0.2 1.79,-0.39 2.59,-0.52 0.56,-0.09 0.83,-0.39 1.02,-0.9 0.62,-1.74 1.4,-3.44 1.88,-5.22 1.62,-5.97 3.16,-11.97 3.81,-18.15 0.29,-2.76 0.66,-5.53 0.35,-8.31 -0.18,-1.6 -0.33,-3.22 -0.96,-4.77 -1.39,0.83 -1.06,2.04 -0.97,3.47 z m -90.11,-4.48 c -0.6,-0.02 -0.73,0.35 -0.73,0.85 0.01,1.02 0.01,2.04 0.02,3.07 0.03,5.35 2.13,9.91 5.39,14.02 0.19,0.23 0.45,0.4 0.72,0.64 1.78,-5.79 3.64,-11.41 3.79,-17.6 -3.05,-0.33 -6,-0.65 -9.19,-0.98 z m 139.3,1.19 c 0.86,0.93 1.77,1.82 2.58,2.79 0.45,0.53 0.88,0.62 1.53,0.48 4.84,-0.98 9.56,-2.35 13.97,-4.62 1.82,-0.94 3.61,-1.92 5.4,-2.92 2.73,-1.53 5.56,-2.83 8.53,-3.81 0.25,-0.08 0.47,-0.23 0.87,-0.43 -2.4,-0.33 -4.46,-0.16 -7,0.6 -3.87,1.17 -7.75,2.31 -11.59,3.56 -4.8,1.55 -9.72,2.43 -14.75,2.8 -0.21,0.02 -0.41,0.11 -0.75,0.2 0.42,0.48 0.74,0.84 1.21,1.35 z m -115.51,10.84 c 0.65,-0.69 1.65,-1.1 1.71,-2.32 -3.19,-2.61 -6.75,-4.61 -10.7,-6.37 0,0.52 0,0.8 0,1.08 0.01,3.18 -0.34,6.29 -1.44,9.32 -0.57,1.59 -0.8,3.3 -1.13,4.97 -0.1,0.54 -0.02,1.12 -0.02,1.99 4.17,-2.71 7.71,-5.74 11.58,-8.67 z m 63.83,-6.75 c -1.44,2.08 -2.93,4.13 -4.3,6.26 -0.46,0.71 -0.76,1.59 -0.9,2.43 -0.79,4.73 -0.86,9.49 -0.54,14.26 0,0.07 0.12,0.13 0.24,0.25 0.19,-0.21 0.39,-0.4 0.55,-0.62 1.51,-2.07 2.59,-4.35 3.26,-6.81 0.56,-2.07 1.19,-4.12 1.58,-6.23 0.55,-3.01 0.93,-6.05 1.33,-9.09 0.06,-0.47 0.14,-1.03 -0.3,-1.57 -0.31,0.38 -0.56,0.67 -0.92,1.12 z m 46.8,-13.33 c -0.41,0.88 -0.81,1.75 -1.16,2.5 0.79,0.87 1.56,1.72 2.43,2.69 2.29,-4.12 3.01,-8.26 1.29,-12.6 -1.14,-2.87 -3.06,-4.02 -5.82,-3.52 -1.42,0.26 -2.84,0.71 -4.16,1.31 -1.51,0.67 -2.93,1.55 -4.33,2.43 -0.92,0.58 -1.73,1.33 -2.73,2.11 0.83,0.31 1.46,0.47 2.01,0.76 0.88,0.47 1.45,0.27 2.13,-0.47 1.61,-1.75 3.57,-3.03 5.95,-3.51 2.95,-0.6 5.33,1.38 5.16,4.37 -0.06,1.24 -0.44,2.47 -0.77,3.93 z m -128.17,6.57 c 0.03,0.56 0.28,0.92 0.86,1 0.72,0.1 1.43,0.2 2.26,0.32 0.77,-6.33 -0.19,-12.47 -0.92,-18.65 -2.43,5.49 -3.17,11.18 -2.2,17.33 z m 137.1,-18.97 c -1.2,2.01 -2.41,4.02 -4.16,5.61 -0.46,0.41 -0.34,0.85 -0.25,1.33 0.76,3.8 0,7.34 -1.78,10.72 -0.19,0.36 -0.32,0.75 -0.47,1.12 1.01,0.44 1.21,-0.26 1.51,-0.8 3.18,-5.71 5.1,-11.87 6.61,-18.18 0.2,-0.82 0.29,-1.66 0.43,-2.49 -0.08,-0.02 -0.16,-0.05 -0.24,-0.07 -0.5,0.86 -1.02,1.72 -1.65,2.76 z m -100.47,38.9 c 0.29,0.63 0.39,1.36 1.03,1.92 0.12,-1.31 0.11,-2.49 0.35,-3.62 0.6,-2.81 1.32,-5.59 1.97,-8.39 0.31,-1.35 0.63,-2.7 0.35,-4.3 -0.88,0.56 -1.58,1.08 -2.34,1.48 -1.12,0.59 -1.88,1.33 -1.61,2.74 0.07,0.36 -0.08,0.77 -0.17,1.15 -0.71,2.97 -0.46,5.9 0.42,9.02 z m 84.85,-27.96 c 1.43,1 2.87,1.99 4.41,3.06 1.27,-2.06 1.93,-4.19 1.68,-6.69 -2.88,-0.23 -5.56,0.18 -8.22,0.75 -0.55,0.12 -0.88,0.5 -1.04,1.09 1.04,0.58 2.01,1.13 3.17,1.79 z m -75.99,-7.78 c -1.17,-0.75 -2.34,-0.42 -3.75,1.13 2.38,2.6 4.88,5.15 6.4,8.53 0.71,-0.27 1.33,-0.51 2.05,-0.79 -0.22,-0.6 -0.37,-1.11 -0.6,-1.59 -0.68,-1.45 -1.34,-2.92 -2.11,-4.33 -0.53,-0.98 -1.22,-1.87 -1.99,-2.95 z m 16.84,16.58 c 1.96,0.43 3.93,0.77 6.11,0.56 -3.05,-1.74 -5.91,-3.39 -8.78,-5 -0.26,-0.15 -0.68,-0.19 -0.96,-0.09 -1.29,0.42 -2.56,0.9 -4.19,1.48 2.61,1.41 5.11,2.17 7.82,3.05 z m 27.27,-2.51 c 3.14,-1.82 6.29,-3.63 9.43,-5.45 -0.01,-0.1 -0.02,-0.19 -0.03,-0.29 -0.94,-0.08 -1.88,-0.2 -2.83,-0.23 -2.22,-0.07 -4.08,0.67 -5.49,2.46 -1.11,1.41 -2.27,2.79 -3.4,4.19 -0.19,0.24 -0.33,0.52 -0.49,0.78 0.06,0.05 0.11,0.1 0.17,0.14 0.82,-0.49 1.64,-0.99 2.64,-1.6 z m 21.28,-10.93 c -1.04,-1.59 -2.19,-3.11 -3.07,-4.77 -0.86,-1.61 -1.45,-3.36 -2.25,-5.29 -0.11,0.77 -0.2,1.25 -0.25,1.73 -0.2,2.31 0.09,4.56 0.74,6.77 0.15,0.51 0.3,1.05 0.96,1.15 1.28,0.2 2.57,0.42 3.87,0.41 z m -87.16,18.54 c 0.26,-2.09 0.5,-4.17 0.2,-6.57 -0.95,3.77 -1.83,7.24 -2.73,10.81 1.93,-1.42 1.93,-1.42 2.4,-3.56 0.03,-0.14 0.06,-0.29 0.13,-0.68 z m 92.06,-6.47 c 0.94,-0.03 1.88,-0.05 2.98,-0.09 -1.2,-1.12 -3.96,-2.38 -5.27,-2.39 0.75,0.87 1.41,1.63 2.29,2.48 z m -71.2,-4.46 c -0.54,-0.7 -1.01,-1.48 -1.99,-2.22 0.02,1.42 -0.27,2.52 0.12,3.85 0.74,-0.55 1.35,-1 1.87,-1.63 z m 80.26,-8.56 c -0.99,-0.04 -1.89,0.19 -2.66,0.93 1.25,-0.13 2.5,-0.25 3.75,-0.38 0.01,-0.07 0.02,-0.14 0.04,-0.22 -0.31,-0.1 -0.61,-0.2 -1.13,-0.33 z m -40.52,8.03 c 0.41,-0.36 0.92,-0.65 1,-1.36 -0.46,0 -0.82,0 -1.33,0 0.06,0.49 0.1,0.9 0.33,1.36 z"
   id="path1" />
		<path
   d="m 309.66,374.42 c -3.86,-2.22 -7.43,-4.67 -10.84,-7.37 -0.42,-0.33 -0.84,-0.68 -1.18,-1.09 -0.18,-0.21 -0.19,-0.55 -0.03,-0.99 1.2,0.95 2.39,1.92 3.62,2.84 1.25,0.94 2.51,1.85 3.81,2.72 1.29,0.87 2.61,1.71 3.96,2.5 1.34,0.79 2.7,1.56 4.11,2.23 1.36,0.65 2.76,1.24 4.18,1.74 1.47,0.51 2.98,0.92 4.48,1.31 1.51,0.39 3.03,0.74 4.55,1.06 1.52,0.32 3.06,0.59 4.59,0.87 1.47,0.27 2.99,0.29 4.48,0.51 -0.01,0.17 -0.02,0.34 -0.03,0.51 -0.39,0.05 -0.8,0.19 -1.18,0.14 -8.5,-1.03 -16.87,-2.53 -24.52,-6.98 z"
   id="path2" />
		<path
   d="m 322.94,313.27 c -1.71,1.82 -3.25,3.64 -4.4,5.76 -1.3,2.4 -2,4.95 -2.17,7.67 -0.06,0.94 -0.2,1.87 -0.31,2.84 -0.71,-0.15 -0.68,-0.55 -0.68,-0.93 0.08,-8.09 3.88,-14.1 10.4,-18.59 0.28,-0.19 0.63,-0.28 1.2,-0.53 -0.39,1.25 -1.36,1.43 -1.96,2 -0.64,0.6 -1.34,1.14 -2.08,1.78 z"
   id="path3" />
		<path
   d="m 365.77,364.02 c 0.42,-0.29 0.75,-0.52 1.09,-0.74 0.07,0.06 0.14,0.12 0.21,0.19 -0.06,0.2 -0.04,0.48 -0.18,0.6 -3.24,2.71 -6.76,4.94 -10.73,6.44 -0.11,0.04 -0.27,-0.03 -0.43,-0.05 -0.23,-0.76 0.41,-0.8 0.78,-0.96 2.49,-1.02 4.81,-2.35 7.04,-3.86 0.73,-0.51 1.43,-1.04 2.22,-1.62 z"
   id="path4" />
		<path
   d="m 359.42,310.92 c 1.67,3.6 2.69,8.9 2.01,10.42 -0.55,-0.05 -0.48,-0.5 -0.53,-0.85 -0.24,-1.68 -0.34,-3.39 -0.73,-5.04 -0.35,-1.5 -1.02,-2.92 -1.54,-4.38 -0.17,-0.47 -0.29,-0.96 -0.48,-1.59 0.97,0.19 0.92,0.9 1.27,1.44 z"
   id="path5" />
		<path
   d="m 372.73,365.94 c 0.2,-0.15 0.31,-0.25 0.45,-0.29 0.07,-0.02 0.17,0.04 0.26,0.06 -0.29,1.56 -4.41,5.18 -6.19,5.39 -0.06,-0.69 0.53,-0.87 0.92,-1.14 1.67,-1.12 3.18,-2.41 4.56,-4.02 z"
   id="path6" />
		<path
   d="m 315.81,333.51 c 0.36,-0.58 0.55,-0.41 0.66,0.04 0.36,1.42 0.7,2.84 1.07,4.25 0.14,0.54 0.36,1.07 0.54,1.59 -0.65,0.38 -0.8,-0.04 -0.94,-0.39 -0.71,-1.72 -1.25,-3.49 -1.33,-5.49 z"
   id="path7" />
		<path
   d="m 353.76,377.53 c 1.01,-0.44 1.92,-0.83 3.18,-1.38 -0.27,0.54 -0.32,0.86 -0.52,1.01 -1.14,0.9 -3.81,1.65 -4.9,1.35 0.54,-0.81 1.48,-0.58 2.24,-0.98 z"
   id="path8" />
		<path
   d="m 362.52,328.5 c -0.23,0.06 -0.53,0.05 -0.54,-0.02 -0.32,-1.55 -0.21,-3.11 -0.45,-4.95 0.92,0.83 1.14,2.15 0.99,4.97 z"
   id="path9" />
		<path
   d="m 241.29,351.09 c -7.28,-4.01 -11.85,-10.47 -16.29,-17.04 -0.19,-0.28 -0.22,-0.66 -0.32,-0.99 0.11,-0.06 0.21,-0.13 0.32,-0.19 0.24,0.25 0.5,0.47 0.71,0.75 2.09,2.82 4.09,5.71 6.27,8.47 3.7,4.69 8.47,8.03 13.88,10.48 0.25,0.11 0.47,0.28 0.83,0.5 -0.62,0.52 -1.11,0.27 -1.55,0.05 -1.27,-0.64 -2.51,-1.31 -3.85,-2.03 z"
   id="path10" />
		<path
   d="m 242.28,302.96 c -0.21,0.37 -0.37,0.63 -0.6,1 -0.52,-0.66 -0.2,-1.12 0.02,-1.57 0.91,-1.86 2.07,-3.53 3.55,-4.98 2.76,-2.72 5.88,-4.97 9.14,-7.03 1.28,-0.81 2.59,-1.57 3.89,-2.32 0.35,-0.2 0.72,-0.55 1.34,0.02 -0.41,0.3 -0.74,0.61 -1.12,0.83 -3.67,2.14 -7.23,4.43 -10.51,7.14 -2.34,1.91 -4.35,4.07 -5.71,6.91 z"
   id="path11" />
		<path
   d="m 244.88,274.01 c -0.33,0.13 -0.58,0.21 -0.91,0.31 0.38,-1.05 0.98,-1.43 3.25,-2.17 3.74,-1.23 5.72,-1.5 6.85,-0.76 -1.7,0.35 -3.24,0.59 -4.74,1.01 -1.49,0.42 -2.92,1.03 -4.45,1.61 z"
   id="path12" />
		<path
   d="m 261.86,355.73 c -4.82,0.07 -7.54,-0.29 -8.49,-1.17 0.48,-0.03 0.84,-0.1 1.18,-0.07 2.18,0.18 4.35,0.36 6.52,0.58 0.34,0.04 1.01,-0.22 0.79,0.66 z"
   id="path13" />
		<path
   d="m 430.83,310.45 c 0.36,-0.35 0.72,-0.53 0.75,0.05 0.02,0.34 -0.24,0.73 -0.45,1.04 -4.53,6.82 -10.31,12.33 -17.37,16.47 -0.54,0.32 -1.11,0.75 -2.17,0.36 7.99,-4.49 14.35,-10.35 19.24,-17.92 z"
   id="path14" />
		<path
   d="m 398.44,290.67 c -0.48,-4.16 -1.71,-8.01 -2.86,-12.07 1.07,0.2 1.15,0.92 1.3,1.46 0.66,2.39 1.31,4.78 1.82,7.2 0.34,1.61 0.44,3.27 0.6,4.91 0.04,0.38 -0.11,0.78 -0.21,1.48 -0.93,-1.06 -0.43,-2.02 -0.65,-2.98 z"
   id="path15" />
		<path
   d="m 437.7,306.7 c 0.26,-0.9 0.45,-1.71 0.74,-2.48 0.26,-0.69 -0.13,-1.57 0.61,-2.15 0.56,0.91 0.52,1.45 -0.29,3.99 -0.89,2.83 -1.42,3.75 -2.62,4.27 0.55,-1.27 1.04,-2.4 1.56,-3.63 z"
   id="path16" />
		<path
   d="m 420.03,266.68 c 1.8,1.83 2.97,3.88 3.66,6.2 -0.11,0.08 -0.21,0.15 -0.32,0.23 -0.2,-0.21 -0.46,-0.38 -0.6,-0.62 -0.58,-1.07 -1.03,-2.22 -1.7,-3.23 -0.58,-0.88 -1.39,-1.61 -2.09,-2.42 -0.14,-0.16 -0.25,-0.36 -0.4,-0.6 0.68,-0.35 0.99,0.11 1.45,0.44 z"
   id="path17" />
		<path
   d="m 429.68,269.2 c 0.12,-0.16 0.3,-0.3 0.36,-0.26 0.92,0.6 1.45,1.42 1.44,2.6 -0.85,0.05 -0.74,-0.68 -1.02,-1.05 -0.29,-0.37 -0.52,-0.79 -0.78,-1.29 z"
   id="path18" />
	</g>
</g>
</svg>
