<?xml version="1.0" encoding="UTF-8" standalone="no"?>
<!-- Generator: Adobe Adobe Illustrator 24.2.0, SVG Export Plug-In . SVG Version: 6.00 Build 0)  -->

<svg
   version="1.1"
   id="Layer_1"
   x="0px"
   y="0px"
   width="184.20357"
   height="211.50772"
   viewBox="0 0 184.20357 211.50772"
   xml:space="preserve"
   sodipodi:docname="zapallo.svg"
   inkscape:version="1.4 (e7c3feb1, 2024-10-09)"
   xmlns:inkscape="http://www.inkscape.org/namespaces/inkscape"
   xmlns:sodipodi="http://sodipodi.sourceforge.net/DTD/sodipodi-0.dtd"
   xmlns="http://www.w3.org/2000/svg"
   xmlns:svg="http://www.w3.org/2000/svg"><defs
   id="defs12" /><sodipodi:namedview
   id="namedview12"
   pagecolor="#ffffff"
   bordercolor="#000000"
   borderopacity="0.25"
   inkscape:showpageshadow="2"
   inkscape:pageopacity="0.0"
   inkscape:pagecheckerboard="0"
   inkscape:deskcolor="#d1d1d1"
   inkscape:zoom="1.6816667"
   inkscape:cx="54.707631"
   inkscape:cy="125.76809"
   inkscape:window-width="1200"
   inkscape:window-height="1186"
   inkscape:window-x="0"
   inkscape:window-y="0"
   inkscape:window-maximized="0"
   inkscape:current-layer="Layer_1" />
<g
   id="g12"
   transform="translate(-226.06788,-186.09478)">
	<g
   id="g11">
		<path
   d="m 226.67,326.75 c -0.59,-4.45 -0.69,-8.8 -0.54,-13.14 0.41,-11.77 3.05,-23 8.59,-33.46 4.82,-9.1 11.36,-16.67 20.16,-22.16 4.51,-2.81 9.37,-4.79 14.56,-5.97 0.58,-0.13 1.1,-0.24 1.5,-0.77 2.92,-3.86 6.99,-5.85 11.58,-6.87 1.56,-0.35 3.18,-0.45 4.78,-0.57 0.76,-0.05 1.37,-0.21 2.01,-0.66 2.34,-1.64 4.9,-2.6 7.93,-2.25 0.14,-0.32 0.31,-0.66 0.44,-1.01 1.65,-4.46 2.45,-9.13 3.47,-13.75 1.29,-5.81 2.49,-11.64 3.83,-17.44 0.69,-3 1.69,-5.91 3.09,-8.67 1.33,-2.6 3.02,-4.93 5.26,-6.78 2.75,-2.27 5.59,-4.41 8.44,-6.55 1.34,-1 2.75,-0.75 3.67,0.67 1.2,1.86 2.02,3.9 2.36,6.1 0.15,0.97 -0.24,1.81 -0.8,2.59 -4.33,6.02 -6.56,12.75 -7.17,20.14 -0.56,6.76 0.33,13.23 2.86,19.5 0.18,0.45 0.38,0.88 0.5,1.17 1.88,-0.51 3.63,-1.14 5.43,-1.44 2.51,-0.43 4.98,-0.06 7.23,1.2 0.62,0.35 1.15,0.34 1.8,0.2 2.79,-0.63 5.6,-0.8 8.42,-0.17 1.45,0.32 2.77,0.89 4.01,1.71 0.41,0.27 0.98,0.47 1.46,0.45 15.06,-0.73 27.21,5.39 37.39,15.98 7.75,8.06 12.97,17.65 16.53,28.19 3.84,11.38 5.3,23.08 4.67,35.05 -0.64,12.24 -3.47,23.92 -9.09,34.87 -4.48,8.73 -10.41,16.26 -18.43,22.03 -3.95,2.84 -8.23,5.03 -12.87,6.53 -0.63,0.2 -1.21,0.62 -1.74,1.02 -4.89,3.76 -10.21,6.67 -16.24,8.14 -1.65,0.4 -3.37,0.48 -5.05,0.75 -0.85,0.14 -1.69,0.37 -2.53,0.57 -0.19,0.05 -0.36,0.14 -0.55,0.2 -1.58,0.48 -3.04,1.14 -4.42,2.12 -2,1.43 -4.37,1.86 -6.83,1.65 -0.56,-0.05 -1.19,-0.07 -1.71,0.11 -5.01,1.8 -10.12,1.96 -15.3,0.96 -0.86,-0.17 -1.7,-0.17 -2.59,-0.09 -3.66,0.31 -7.32,0.18 -10.96,-0.33 -5.1,-0.71 -10.02,-2.11 -14.77,-4.09 -0.44,-0.18 -0.92,-0.36 -1.39,-0.37 -7.11,-0.15 -13.78,-2.03 -20.12,-5.14 -9.59,-4.69 -17.29,-11.64 -23.54,-20.22 -7.73,-10.6 -12.48,-22.47 -14.69,-35.37 -0.24,-1.5 -0.42,-3 -0.64,-4.63 z m 124.74,54.1 c -1.85,2.92 -3.7,5.84 -5.61,8.86 1.56,-0.45 2.62,-1.41 3.57,-2.54 5.49,-6.52 9.62,-13.86 12.78,-21.75 7.03,-17.52 9.53,-35.74 8.24,-54.53 -0.47,-6.79 -1.54,-13.47 -3.3,-20.04 -2.18,-8.16 -5.31,-15.92 -10.09,-22.94 -3.45,-5.06 -7.58,-9.44 -12.89,-12.59 -5.01,-2.97 -10.41,-4.46 -16.24,-3.85 -1.67,0.18 -2.66,-0.31 -3.58,-1.56 -3.29,-4.48 -5.91,-9.3 -7.59,-14.61 -1.46,-4.6 -1.85,-9.37 -1.93,-14.16 -0.03,-1.55 0.25,-3.11 0.44,-4.65 0.03,-0.23 0.32,-0.43 0.65,-0.85 0.1,0.5 0.19,0.69 0.16,0.86 -0.45,2.71 -0.41,5.43 -0.28,8.17 0.35,7.49 2.59,14.36 6.53,20.7 0.82,1.32 1.73,2.6 2.71,3.81 0.4,0.48 1.1,0.93 1.7,0.99 1.13,0.12 2.29,-0.06 3.77,-0.13 -4.95,-4.84 -7.89,-10.53 -9.99,-16.74 -2.14,-6.34 -2.38,-12.8 -1.67,-19.38 0.71,-6.59 3.1,-12.54 6.85,-18.06 -0.57,-0.22 -0.97,-0.38 -1.43,-0.55 -0.16,0.2 -0.28,0.35 -0.39,0.51 -0.24,0.31 -0.48,0.61 -0.71,0.93 -2.63,3.72 -4.33,7.84 -5.23,12.3 -0.24,1.19 -0.33,2.42 -0.51,3.62 -0.04,0.23 -0.21,0.44 -0.32,0.66 -0.16,-0.06 -0.32,-0.13 -0.48,-0.19 0.31,-6.88 2.81,-12.97 7.11,-18.48 -0.3,-0.37 -0.6,-0.73 -1.05,-1.29 -0.63,0.72 -1.18,1.35 -1.72,1.97 -3.32,3.77 -5.42,8.21 -6.84,12.98 -2.94,9.86 -3.16,19.91 -1.88,30.02 0.48,3.81 1.36,7.58 2.05,11.37 0.07,0.4 0.34,0.84 -0.2,1.2 -0.75,-0.29 -0.64,-1.05 -0.76,-1.59 -2.02,-8.79 -3.06,-17.68 -2.5,-26.72 0.29,-4.59 0.93,-9.13 2.18,-13.55 1.75,-6.15 4.44,-11.77 9.2,-16.22 0.06,-0.06 0.08,-0.17 0.08,-0.16 -0.24,-1.42 -0.46,-2.75 -0.7,-4.18 -0.18,0.09 -0.36,0.15 -0.5,0.26 -2.44,1.95 -4.91,3.86 -7.28,5.89 -1.83,1.57 -3.21,3.53 -4.35,5.66 -1.5,2.82 -2.5,5.84 -3.22,8.93 -1.25,5.37 -2.33,10.77 -3.55,16.15 -1.09,4.85 -1.9,9.77 -3.55,14.49 -0.08,0.22 -0.09,0.47 -0.14,0.7 0.6,-0.88 1.03,-1.8 1.38,-2.76 0.7,-1.93 1.35,-3.87 2.02,-5.8 0.15,-0.43 0.19,-0.95 0.81,-1.08 0.4,0.6 0.06,1.08 -0.08,1.57 -1.82,6.13 -4.43,11.88 -8.05,17.16 -0.19,0.28 -0.32,0.6 -0.47,0.9 1.86,-1.6 4.22,-4.88 5.77,-7.92 0.95,-1.87 1.76,-3.8 2.66,-5.7 0.19,-0.39 0.21,-0.98 1.1,-1.02 -0.11,0.5 -0.14,0.92 -0.29,1.28 -2.11,5.19 -4.72,10.07 -8.59,14.2 -0.19,0.2 -0.33,0.46 -0.49,0.69 1.95,-1.11 3.47,-2.62 4.82,-4.3 1.16,-1.45 2.23,-2.97 3.35,-4.44 0.27,-0.36 0.41,-0.92 1.12,-0.86 0.21,1.02 -0.64,1.54 -1.06,2.24 -0.46,0.75 -1.01,1.44 -1.55,2.13 -0.51,0.66 -1.03,1.31 -1.58,1.93 -0.58,0.66 -1.18,1.3 -1.82,1.91 -0.64,0.6 -1.32,1.16 -2.01,1.7 -0.64,0.5 -1.32,0.96 -1.98,1.44 0.97,-0.02 1.81,-0.3 2.67,-0.41 1.2,-0.16 2.08,-0.76 2.76,-1.71 0.83,-1.15 1.64,-2.31 2.48,-3.45 0.27,-0.36 0.42,-0.91 1.27,-0.82 -0.17,0.41 -0.25,0.76 -0.44,1.04 -0.81,1.16 -1.65,2.3 -2.47,3.45 -0.18,0.25 -0.32,0.53 -0.5,0.85 0.81,0 1.5,-0.05 2.17,0.01 0.9,0.09 1.5,-0.3 1.94,-1.02 0.56,-0.92 1.09,-1.85 1.66,-2.76 0.17,-0.28 0.43,-0.5 0.65,-0.75 0.1,0.07 0.21,0.14 0.31,0.21 -0.25,1.57 -1.48,2.72 -2.13,4.29 0.87,0.06 1.58,0.1 2.21,0.14 1.17,-1.11 1.2,-2.82 2.57,-4.04 0.06,1.79 -1.1,2.82 -1.44,4.22 0.52,0.12 1.04,0.24 1.55,0.37 0.41,0.1 0.8,0.33 0.64,0.79 -0.08,0.21 -0.52,0.39 -0.8,0.4 -0.43,0.02 -0.87,-0.12 -1.3,-0.2 -3.4,-0.61 -6.79,-0.64 -10.19,0.03 -6.37,1.25 -11.58,4.52 -15.98,9.18 -3.66,3.88 -6.4,8.36 -8.56,13.21 -4.04,9.09 -5.84,18.69 -6.36,28.56 -0.33,6.3 -0.04,12.58 0.74,18.85 1.58,12.7 5.06,24.84 10.68,36.34 4.19,8.57 9.43,16.41 16.32,23.08 3.88,3.76 8.17,6.97 13.06,9.3 4.74,2.26 9.71,3.53 15,3.34 1.39,-0.05 2.79,-0.11 4.3,-0.65 -0.55,-0.16 -0.92,-0.28 -1.29,-0.37 -2.44,-0.58 -4.73,-1.52 -6.94,-2.7 -2.38,-1.28 -4.54,-2.86 -6.5,-4.72 -0.31,-0.3 -0.83,-0.57 -0.52,-1.17 0.15,0 0.28,-0.04 0.34,0.01 0.39,0.29 0.78,0.58 1.14,0.91 3.09,2.78 6.57,4.88 10.5,6.24 0.28,0.1 0.58,0.12 0.88,0.17 -0.14,-0.31 -0.34,-0.44 -0.54,-0.56 -3,-1.72 -5.54,-3.98 -7.84,-6.54 -4.1,-4.58 -7.36,-9.72 -10.05,-15.23 -4.46,-9.14 -7.33,-18.79 -9.31,-28.74 -0.09,-0.46 -0.29,-0.93 0.19,-1.41 0.75,0.58 0.64,1.42 0.79,2.12 2.01,9.53 4.78,18.81 9.07,27.59 2.76,5.65 6.1,10.9 10.36,15.54 2.43,2.65 5.14,4.93 8.35,6.58 0.54,0.28 1.11,0.5 1.67,0.74 0.01,-0.31 -0.05,-0.45 -0.16,-0.52 -4.51,-3.13 -7.76,-7.38 -10.63,-11.96 -2.63,-4.19 -4.78,-8.62 -6.64,-13.19 -7.43,-18.34 -10.95,-37.51 -11.94,-57.18 -0.38,-7.56 -0.27,-15.13 0.51,-22.67 0.62,-5.93 1.58,-11.8 3.27,-17.53 1.2,-4.04 2.73,-7.94 5.01,-11.51 1.24,-1.95 2.68,-3.72 4.49,-5.18 2.28,-1.84 4.85,-2.89 7.82,-2.79 0.29,0.01 0.62,-0.02 0.86,0.1 0.22,0.11 0.48,0.4 0.48,0.61 0,0.19 -0.31,0.42 -0.53,0.54 -0.15,0.08 -0.38,0.02 -0.58,0.01 -3.06,-0.15 -5.61,1.04 -7.85,3.03 -1.73,1.54 -3.08,3.39 -4.24,5.39 -1.76,3.01 -3.02,6.23 -4.04,9.55 -2.58,8.41 -3.62,17.07 -4,25.82 -0.39,8.94 0.02,17.85 1.02,26.75 1.12,9.96 2.96,19.78 5.69,29.42 2.5,8.85 5.65,17.45 10.17,25.5 2.28,4.06 4.86,7.9 8.19,11.19 1.75,1.73 3.66,3.23 5.89,4.3 0.87,0.42 1.73,0.59 2.78,0.08 -2.64,-1.38 -4.64,-3.37 -6.49,-5.53 -2.2,-2.57 -4.14,-5.32 -5.69,-8.32 -0.92,-1.77 -1.76,-3.59 -2.61,-5.4 -0.15,-0.32 -0.43,-0.73 0.31,-1.04 0.28,0.52 0.6,1.05 0.84,1.6 2.26,5.07 5.12,9.76 8.9,13.86 1.47,1.59 3.05,3.03 4.98,4.04 0.31,0.16 0.67,0.24 1.23,0.44 -0.24,-0.44 -0.34,-0.66 -0.47,-0.85 -1.35,-2.06 -2.14,-4.37 -2.97,-6.67 -0.13,-0.35 -0.35,-0.75 0.42,-1.07 1.28,2.89 2,6.09 4.14,8.53 1.26,-0.22 1.3,-0.19 1.76,-1.09 0.53,-1.04 1.05,-2.1 1.44,-3.2 2.22,-6.39 3.78,-12.94 4.24,-19.69 0.55,-8.15 0.26,-16.29 -0.98,-24.38 -0.27,-1.78 -0.52,-3.57 -0.75,-5.36 -0.03,-0.27 0.11,-0.56 0.17,-0.84 0.12,-0.01 0.25,-0.02 0.37,-0.02 0.12,0.44 0.27,0.87 0.34,1.32 0.89,5.74 1.68,11.48 1.84,17.31 0.2,7.14 0.09,14.25 -1.49,21.26 -1.02,4.52 -2.07,9.04 -4.05,13.26 -0.05,0.1 0.02,0.25 0.04,0.4 2.39,-1.08 4,-2.73 4.81,-5.24 1.19,-3.69 1.92,-7.46 2.4,-11.29 0.84,-6.69 1.15,-13.42 1.13,-20.16 -0.01,-3.42 -0.04,-6.84 -0.2,-10.25 -0.28,-5.9 -0.48,-11.81 -1.04,-17.68 -0.76,-7.81 -1.71,-15.62 -2.81,-23.39 -1.4,-9.91 -3.41,-19.71 -6.15,-29.35 -1.47,-5.17 -3.16,-10.25 -5.52,-15.1 -1.39,-2.85 -3.27,-5.17 -6.15,-6.63 -1.37,-0.7 -2.49,-1.74 -3.34,-3.02 -1.42,-2.16 -2.87,-4.31 -4.16,-6.55 -0.75,-1.3 -1.25,-2.75 -1.79,-4.16 -0.18,-0.48 -0.43,-1.09 0.23,-1.65 0.18,0.33 0.35,0.55 0.44,0.81 2.06,6.08 5.18,11.34 11.03,14.56 1.48,0.81 2.57,2.04 3.44,3.51 2.25,3.81 3.89,7.87 5.26,12.05 4.58,13.97 7.15,28.37 9.05,42.9 0.77,5.9 1.38,11.83 1.86,17.76 0.49,6.13 0.87,12.27 1.03,18.41 0.14,5.71 -0.02,11.42 -0.17,17.13 -0.13,4.93 -0.6,9.84 -1.45,14.7 -0.33,1.89 -0.74,3.76 -1.12,5.64 0.69,-1.31 1.22,-2.67 1.68,-4.04 0.47,-1.38 0.91,-2.78 1.32,-4.19 0.41,-1.4 0.8,-2.81 1.16,-4.23 0.36,-1.42 0.67,-2.85 0.97,-4.28 0.3,-1.43 0.59,-2.87 0.82,-4.31 0.23,-1.44 0.43,-2.9 0.59,-4.35 0.15,-1.45 0.27,-2.92 0.33,-4.38 0.07,-1.46 0.02,-2.93 0.07,-4.39 0.05,-1.42 -0.19,-2.86 0.18,-4.41 0.29,0.22 0.49,0.3 0.49,0.38 0.08,1.16 0.18,2.33 0.18,3.49 0.04,13.67 -3.01,26.66 -8.79,39.36 0.48,-0.51 0.79,-0.78 1.04,-1.1 2.89,-3.65 5.46,-7.49 7.18,-11.85 0.16,-0.41 0.31,-0.83 0.54,-1.2 0.11,-0.18 0.39,-0.25 0.86,-0.52 -0.48,2.03 -1.38,3.58 -2.2,5.4 z m 56.11,-84.79 c -0.1,-0.53 -0.2,-1.06 -0.3,-1.58 -2.16,-10.68 -5.98,-20.7 -12.03,-29.81 -4.64,-7 -10.31,-12.99 -17.42,-17.54 -7.38,-4.72 -15.41,-7.29 -24.22,-7.1 -6.35,0.13 -12.33,1.79 -17.97,4.69 -0.35,0.18 -0.68,0.41 -1.05,0.49 -0.23,0.05 -0.64,-0.07 -0.73,-0.24 -0.1,-0.17 0,-0.58 0.16,-0.76 0.22,-0.24 0.57,-0.37 0.87,-0.53 3.96,-2.08 8.14,-3.53 12.54,-4.32 0.36,-0.06 0.71,-0.18 1.26,-0.32 -1.48,-1 -2.95,-1.33 -4.45,-1.44 -5.99,-0.42 -11.25,1.43 -15.8,5.32 -0.43,0.37 -0.79,0.82 -1.23,1.27 0.37,0.48 0.66,0.85 1.01,1.28 0.36,-0.32 0.64,-0.57 0.92,-0.83 1.75,-1.57 3.64,-2.95 5.76,-3.98 0.52,-0.26 1.07,-0.49 1.63,-0.64 0.19,-0.05 0.45,0.15 0.68,0.24 -3.19,1.55 -6.05,3.39 -8.5,5.93 0.78,0.88 1.43,1.6 2.06,2.34 0.93,1.08 2.09,1.66 3.52,1.86 4.43,0.6 8.44,2.33 12.14,4.82 4.99,3.35 8.91,7.72 12.19,12.7 4.34,6.58 7.33,13.77 9.42,21.34 3.22,11.62 4.39,23.46 3.93,35.5 -0.34,8.81 -1.5,17.5 -3.66,26.04 -3.18,12.61 -8.08,24.45 -16.03,34.87 -0.14,0.18 -0.19,0.43 -0.28,0.64 0.71,-0.46 1.26,-1.01 1.78,-1.58 3.5,-3.83 6.67,-7.91 9.68,-12.13 3.35,-4.68 5.91,-9.76 7.63,-15.25 0.54,-1.72 1.06,-3.45 1.59,-5.17 0.12,-0.39 0.1,-0.91 0.88,-0.91 -0.02,0.38 0.02,0.76 -0.07,1.1 -1.48,5.32 -3.19,10.56 -5.94,15.39 -3.26,5.71 -7.31,10.84 -11.59,15.8 -1.62,1.88 -3.48,3.55 -5.24,5.31 -0.21,0.21 -0.44,0.41 -0.66,0.61 0.06,0.08 0.11,0.16 0.17,0.23 0.69,-0.33 1.41,-0.6 2.06,-0.99 3.06,-1.84 6.01,-3.83 8.69,-6.2 1.57,-1.39 3.07,-2.86 4.62,-4.28 0.33,-0.3 0.6,-0.82 1.19,-0.51 0.01,0.14 0.05,0.27 0.01,0.32 -0.23,0.31 -0.46,0.63 -0.73,0.9 -3.1,3.13 -6.39,6.03 -10.11,8.42 -0.36,0.23 -0.7,0.51 -1.04,0.77 3.42,-0.98 6.48,-2.58 9.37,-4.51 7.15,-4.77 12.76,-11.02 17.3,-18.25 9.32,-14.85 13.54,-31.22 14.2,-48.6 0.26,-6.75 -0.22,-13.46 -1.37,-20.12 -1.49,-8.67 -4.07,-16.98 -8.18,-24.78 -3.54,-6.72 -7.99,-12.75 -13.95,-17.52 -10.04,-8.03 -21.24,-10.8 -33.77,-7.1 -0.23,0.07 -0.48,0.22 -0.7,0.18 -0.25,-0.04 -0.6,-0.2 -0.68,-0.4 -0.07,-0.18 0.1,-0.57 0.29,-0.71 0.26,-0.2 0.62,-0.27 0.95,-0.36 7.37,-2.21 14.72,-2.18 22.03,0.29 7.66,2.58 13.87,7.28 19.09,13.35 5.98,6.95 10.07,14.95 12.91,23.61 3.95,12.08 5.26,24.47 4.46,37.12 -0.5,8.02 -1.87,15.88 -4.2,23.58 -3.37,11.15 -8.44,21.4 -16.02,30.33 -0.11,0.12 -0.18,0.28 -0.27,0.42 1.23,-0.85 2.28,-1.84 3.28,-2.89 1.04,-1.1 2.04,-2.24 3.01,-3.4 0.94,-1.12 1.85,-2.27 2.73,-3.44 0.88,-1.17 1.75,-2.35 2.57,-3.56 0.85,-1.25 1.62,-2.55 2.47,-3.81 0.79,-1.17 1.18,-2.61 2.36,-3.56 0.1,0.37 0.12,0.71 0,0.98 -0.3,0.67 -0.65,1.31 -1.02,1.95 -4.4,7.51 -9.74,14.26 -16.29,20.02 -0.39,0.35 -0.76,0.72 -1.14,1.08 0.58,-0.01 1.03,-0.19 1.45,-0.41 2.93,-1.47 5.68,-3.24 8.23,-5.3 7.93,-6.38 13.61,-14.47 17.73,-23.69 4.08,-9.14 6.32,-18.73 7.07,-28.7 0.58,-7.93 0.17,-15.8 -1.25,-23.87 z m -133.13,66.01 c 2.29,4.1 4.86,8.01 7.68,11.76 4.02,5.34 8.62,10.09 14.14,13.91 0.41,0.29 0.85,0.54 1.27,0.8 -1.15,-1.4 -2.47,-2.53 -3.72,-3.74 -6.99,-6.7 -12.34,-14.6 -16.6,-23.24 -7.1,-14.43 -10.94,-29.71 -11.72,-45.76 -0.42,-8.76 0.11,-17.47 2.05,-26.05 1.61,-7.14 4.06,-13.96 7.97,-20.19 3.65,-5.81 8.24,-10.64 14.42,-13.81 0.2,-0.1 0.38,-0.26 0.84,-0.6 -0.82,-0.09 -1.33,-0.25 -1.83,-0.19 -2.67,0.28 -5.37,0.42 -7.98,0.96 -12.23,2.52 -21.87,9.11 -29.16,19.14 -7.39,10.17 -10.89,21.73 -11.73,34.15 -0.75,11.14 0.76,22.02 4.33,32.59 5.18,15.32 13.63,28.48 26.09,38.9 9.29,7.77 19.8,12.98 31.91,14.61 2.05,0.27 4.12,0.36 6.18,0.53 -0.32,-0.38 -0.68,-0.51 -1.05,-0.58 -3.23,-0.61 -6.34,-1.62 -9.31,-3.01 -2.78,-1.3 -5.48,-2.78 -8.19,-4.22 -0.41,-0.22 -1,-0.4 -0.97,-1.2 1.25,0.11 2.04,0.97 3.01,1.44 1.05,0.51 2.06,1.11 3.11,1.63 1,0.5 2.01,0.99 3.04,1.44 1.07,0.47 2.16,0.9 3.26,1.31 1.03,0.38 2.08,0.7 3.13,1.05 -0.03,-0.21 -0.1,-0.28 -0.18,-0.33 -0.34,-0.18 -0.68,-0.37 -1.04,-0.54 -5.88,-2.8 -11.12,-6.51 -15.63,-11.2 -8.95,-9.32 -15.59,-20.09 -19.93,-32.27 -0.28,-0.78 -0.55,-1.56 -0.77,-2.36 -0.06,-0.21 0.11,-0.48 0.17,-0.72 0.12,-0.03 0.25,-0.05 0.37,-0.08 1.9,5.42 3.93,10.72 6.84,15.87 z m 4.92,27.54 c -6.65,-3.21 -12.59,-7.45 -17.88,-12.59 -6.71,-6.52 -12.36,-13.81 -16.35,-22.32 -0.23,-0.49 -0.47,-0.97 -0.63,-1.48 -0.06,-0.2 0.11,-0.46 0.18,-0.7 0.11,-0.02 0.21,-0.05 0.32,-0.07 2.22,4.79 4.77,9.38 7.95,13.6 3.21,4.26 6.76,8.22 10.7,11.82 3.89,3.55 8.06,6.68 12.76,9.07 -0.15,-0.27 -0.37,-0.43 -0.59,-0.6 -2.91,-2.29 -6.01,-4.38 -8.71,-6.91 -17.36,-16.26 -26.6,-36.42 -28.32,-60.07 -0.6,-8.34 0.22,-16.58 2.4,-24.66 2.6,-9.63 7.01,-18.3 13.9,-25.6 7.7,-8.16 17.06,-13.22 28.2,-14.86 2.11,-0.31 4.24,-0.45 6.59,-0.69 -0.43,-0.17 -0.67,-0.33 -0.93,-0.36 -2.03,-0.3 -4.05,-0.7 -6.08,-0.84 -11.05,-0.78 -21.07,2.17 -30.04,8.6 -8.39,6.01 -14.4,13.96 -18.63,23.29 -5.56,12.26 -7.52,25.16 -6.57,38.55 0.56,7.79 2.12,15.36 4.73,22.71 4.04,11.35 10.11,21.42 18.86,29.79 7.79,7.45 16.8,12.65 27.47,14.78 0.46,0.09 0.92,0.15 1.38,0.22 0.02,-0.07 0.05,-0.15 0.07,-0.22 -0.21,-0.14 -0.41,-0.26 -0.78,-0.46 z m 12.55,-138.37 c 0.18,-0.28 0.37,-0.55 0.6,-0.91 -0.53,-0.3 -0.97,-0.6 -1.45,-0.81 -1.34,-0.59 -2.7,-1.12 -4.03,-1.71 -0.3,-0.13 -0.56,-0.37 -0.84,-0.57 0.07,-0.14 0.14,-0.27 0.21,-0.41 2.34,0.53 4.45,1.66 6.67,2.84 0.6,-0.94 1.17,-1.82 1.81,-2.82 -0.92,-0.4 -1.65,-0.79 -2.43,-1.05 -3.05,-0.99 -6.14,-0.94 -9.24,-0.3 -3.69,0.77 -7.04,2.26 -9.82,4.88 -0.25,0.23 -0.42,0.54 -0.78,1.01 6.17,-0.78 12.01,-0.56 17.84,0.67 -0.38,-0.35 -0.77,-0.63 -1.21,-0.8 -1.44,-0.58 -2.9,-1.12 -4.35,-1.69 -0.37,-0.14 -0.93,-0.09 -0.88,-0.92 0.53,0.09 1.07,0.09 1.53,0.28 1.76,0.71 3.49,1.49 5.23,2.24 0.32,0.15 0.58,0.6 1.14,0.07 z m 34.44,-8.45 c 0.21,-0.08 0.46,-0.11 0.61,-0.26 2.02,-1.97 4.36,-3.43 6.95,-4.52 0.25,-0.1 0.47,-0.26 0.77,-0.43 -2.98,-1.71 -8.43,-1.18 -10.72,1.02 0.28,0.54 0.58,1.11 0.87,1.68 1.66,-0.9 2.81,-2.31 4.64,-2.54 -1.08,1.51 -3.05,1.96 -4.12,3.51 0.29,0.48 0.57,0.94 1,1.54 z m -34.58,0.39 c -0.35,0.21 -0.7,0.43 -1.13,0.69 1.69,0.6 3.23,1.14 4.82,1.7 0.59,-1.03 1.09,-2.08 1.35,-3.37 -1.83,-0.38 -3.33,0.28 -5.04,0.98 z m 33.39,-52.84 c -0.61,0.29 -1.29,0.48 -1.75,1.07 0.73,-0.14 1.38,-0.44 2.03,-0.75 0.03,-0.02 -0.05,-0.24 -0.28,-0.32 z m -0.86,-2.25 c -0.54,0.11 -1.06,0.24 -1.16,1.04 0.43,-0.31 0.87,-0.62 1.16,-1.04 z m -0.17,4.12 c -0.03,0.04 -0.07,0.07 -0.09,0.11 -0.01,0.02 0.02,0.09 0.03,0.09 0.73,0.04 1.33,-0.24 1.89,-0.6 -0.04,-0.11 -0.08,-0.21 -0.13,-0.32 -0.51,0.21 -1.02,0.42 -1.7,0.72 z m -0.44,-2.1 c 0.42,-0.21 0.84,-0.42 1.52,-0.77 -1.28,0.19 -1.28,0.19 -1.52,0.77 z m 2.07,4.38 c 0.4,0.1 0.7,0.05 0.79,-0.79 -0.45,0.32 -0.7,0.49 -0.79,0.79 z m -0.38,-1.51 c -0.16,0.07 -0.33,0.15 -0.77,0.34 0.47,0 0.66,0.04 0.82,-0.01 0.28,-0.09 0.54,-0.24 0.81,-0.36 -0.02,-0.06 -0.03,-0.12 -0.05,-0.18 -0.21,0.04 -0.43,0.08 -0.81,0.21 z"
   id="path1" />
		<path
   d="m 312.94,363.23 c -2.47,-8.18 -4.48,-16.35 -5.46,-24.74 -0.01,-0.08 0.2,-0.18 0.48,-0.43 0.19,0.69 0.4,1.26 0.49,1.85 1.18,7.86 3.01,15.58 5.33,23.18 0.65,2.13 1.43,4.22 2.21,6.49 -0.3,-0.1 -0.63,-0.11 -0.72,-0.25 -0.32,-0.54 -0.61,-1.11 -0.82,-1.7 -0.52,-1.43 -0.99,-2.86 -1.51,-4.4 z"
   id="path2" />
		<path
   d="m 297.06,273.34 c 0.85,-2.63 1.53,-5.2 2.7,-7.7 0.74,0.52 0.39,0.99 0.26,1.41 -0.72,2.23 -1.49,4.44 -2.17,6.68 -1.74,5.68 -2.51,11.52 -2.85,17.43 -0.13,2.32 -0.17,4.64 -0.25,7.16 -0.26,-0.24 -0.49,-0.37 -0.58,-0.57 -0.09,-0.21 -0.06,-0.48 -0.07,-0.72 -0.16,-8 0.68,-15.87 2.96,-23.69 z"
   id="path3" />
		<path
   d="m 298.22,361.83 c 1.5,3.24 2.96,6.37 4.41,9.5 0.03,0.05 -0.07,0.17 -0.13,0.28 -0.58,0.06 -0.67,-0.45 -0.86,-0.8 -3.65,-6.51 -6.36,-13.38 -7.81,-20.72 -0.26,-1.29 -0.53,-2.58 -0.75,-3.88 -0.1,-0.61 -0.1,-1.23 -0.15,-1.93 0.89,0.14 0.8,0.76 0.9,1.23 0.41,2.01 0.66,4.05 1.21,6.02 0.95,3.43 2.08,6.8 3.18,10.3 z"
   id="path4" />
		<path
   d="m 336.75,265.61 c -0.55,-1.05 -1.07,-1.99 -1.54,-2.95 -0.12,-0.25 -0.11,-0.57 -0.19,-1.01 0.83,0.17 1.03,0.71 1.24,1.16 0.98,2.01 2,4.02 2.87,6.08 1.62,3.82 3.08,7.69 3.79,11.81 0.25,1.44 0.25,1.76 -0.16,2.93 -0.65,-1.65 -0.56,-3.22 -1.01,-4.65 -0.48,-1.53 -0.89,-3.09 -1.41,-4.61 -0.5,-1.47 -1.09,-2.92 -1.68,-4.37 -0.59,-1.44 -1.23,-2.86 -1.91,-4.39 z"
   id="path5" />
		<path
   d="m 374.97,316.13 c 0.03,-1.12 -0.21,-2.13 0.07,-3.09 0.1,-0.02 0.21,-0.03 0.31,-0.05 0.11,0.27 0.3,0.55 0.31,0.82 0.07,3.17 0.19,6.34 0.13,9.5 -0.07,3.41 -0.27,6.82 -0.53,10.22 -0.29,3.79 -0.76,7.57 -1.77,11.25 -0.17,0.61 -0.47,1.19 -0.91,1.73 -0.22,-1.48 0.51,-2.77 0.69,-4.16 0.19,-1.45 0.47,-2.89 0.66,-4.33 0.19,-1.45 0.35,-2.9 0.48,-4.36 0.13,-1.41 0.2,-2.82 0.28,-4.23 0.08,-1.46 0.16,-2.92 0.21,-4.38 0.05,-1.46 0.08,-2.93 0.09,-4.39 0.01,-1.46 -0.01,-2.93 -0.02,-4.53 z"
   id="path6" />
		<path
   d="m 399.82,328.88 c 0.2,-2.31 0.38,-4.49 0.58,-6.67 0.01,-0.08 0.21,-0.13 0.33,-0.2 0.55,1.27 0.26,6.14 -0.61,10.51 -1.67,8.43 -3.31,14.04 -4.54,15.25 0,-0.42 -0.07,-0.74 0.01,-1 1.82,-5.82 3.25,-11.74 4.23,-17.89 z"
   id="path7" />
		<path
   d="m 348.12,255.38 c -0.57,-0.54 -1.48,-0.58 -1.6,-1.67 0.4,0.11 0.73,0.12 0.98,0.27 5.05,3.08 9.34,6.98 12.78,11.81 0.29,0.4 0.73,0.79 0.54,1.61 -0.34,-0.26 -0.63,-0.38 -0.78,-0.61 -3.2,-4.57 -7.19,-8.3 -11.92,-11.41 z"
   id="path8" />
		<path
   d="m 272.1,366.27 c 1.65,2.36 3.25,4.62 4.83,6.89 0.03,0.04 -0.08,0.16 -0.12,0.25 -4.12,-1.62 -14.49,-23.08 -12.96,-26.86 0.59,0.11 0.53,0.65 0.61,1.02 1.35,6.69 4.07,12.81 7.64,18.7 z"
   id="path9" />
		<path
   d="m 266.64,285.41 c -0.24,0.94 -0.46,1.77 -0.69,2.65 -0.78,-0.3 -0.54,-0.8 -0.46,-1.16 0.34,-1.42 0.68,-2.84 1.12,-4.24 1.49,-4.81 3.56,-9.37 6.1,-13.72 0.28,-0.49 0.65,-0.92 1.18,-1.68 0.09,0.6 0.17,0.84 0.15,1.07 -0.02,0.18 -0.18,0.34 -0.28,0.51 -3.06,5.18 -5.49,10.64 -7.12,16.57 z"
   id="path10" />
		<path
   d="m 242.91,282.78 c 0.73,-1.28 1.19,-2.62 2.38,-3.48 0.02,1.33 -0.89,2.26 -1.37,3.36 -0.53,1.2 -1.14,2.37 -1.66,3.58 -0.49,1.17 -0.94,2.35 -1.34,3.55 -0.42,1.25 -0.79,2.51 -1.15,3.78 -0.34,1.22 -0.66,2.45 -0.94,3.68 -0.28,1.28 -0.52,2.58 -0.74,3.88 -0.21,1.25 -0.41,2.5 -0.57,3.76 -0.16,1.3 -0.31,2.61 -0.39,3.93 -0.08,1.26 -0.09,2.53 -0.09,3.8 -0.01,1.32 0,2.63 0.05,3.95 0.05,1.27 0.14,2.53 0.27,3.79 0.14,1.31 0.37,2.61 0.51,3.91 0.13,1.22 0.55,2.41 0.51,3.64 -0.13,0.04 -0.25,0.08 -0.38,0.12 -0.14,-0.3 -0.36,-0.59 -0.41,-0.9 -0.4,-2.5 -0.88,-5 -1.12,-7.51 -1.02,-10.71 0.51,-21.1 4.06,-31.22 0.66,-1.89 1.55,-3.69 2.38,-5.62 z"
   id="path11" />
	</g>
</g>
</svg>
